<?xml version="1.0" standalone="no"?>
<!DOCTYPE svg PUBLIC "-//W3C//DTD SVG 1.1//EN" "http://www.w3.org/Graphics/SVG/1.1/DTD/svg11.dtd" >
<svg xmlns="http://www.w3.org/2000/svg" xmlns:xlink="http://www.w3.org/1999/xlink" version="1.1">
<metadata>
Created by FontForge 20170731 at Sun Jan 22 08:00:35 2023
 By Aleksey,,,
Copyright 2021 Dinamo (Johannes Breyer, Fabian Harb). All rights reserved.
</metadata>
<defs>
<font id="ABCArizonaFlare-MediumItalic" horiz-adv-x="1228" >
  <font-face 
    font-family="ABC Arizona Flare Unlicensed Trial Medium"
    font-weight="500"
    font-style="italic"
    font-stretch="normal"
    units-per-em="2048"
    panose-1="2 0 0 4 0 2 0 6 0 3"
    ascent="1610"
    descent="-438"
    x-height="971"
    cap-height="1423"
    bbox="-496 -535 2499 1935"
    underline-thickness="102"
    underline-position="-307"
    slope="-14"
    unicode-range="U+0020-FB02"
  />
<missing-glyph horiz-adv-x="1376" 
d="M1077 0h-1009l364 1454h1010zM580 1292l-285 -1130h635l284 1130h-634z" />
    <glyph glyph-name="fi" unicode="fi" horiz-adv-x="1220" 
d="M354 971l29 116q49 191 189 292.5t341 101.5q103 0 195 -28t156 -69l-50 -198h-12q-43 64 -122 102.5t-167 38.5q-242 0 -295 -221l-34 -135h604l-187 -735q-36 -138 -10 -226v-10h-313v10q37 39 55 84.5t43 141.5l144 581h-375l-146 -575q-22 -89 -22.5 -139t22.5 -93
v-10h-327v10q37 39 56.5 86.5t41.5 141.5l145 579h-202l39 154h202z" />
    <glyph glyph-name="fl" unicode="fl" horiz-adv-x="1243" 
d="M168 229l147 588h-202l39 154h202l31 123q48 189 182.5 288t317.5 99q112 0 219 -39l221 18h6l-307 -1222q-38 -152 -10 -228v-10h-316v10q38 40 56 84t43 142l256 1026q-64 67 -176 67q-203 0 -263 -227l-32 -131h258l-39 -154h-258l-146 -586q-20 -79 -20 -130t22 -91
v-10h-327v10q38 38 55 81t41 138z" />
    <glyph glyph-name="f_b.liga" unicode="fb" horiz-adv-x="1892" 
d="M168 231l147 586h-202l37 154h204l31 123q48 188 182.5 287.5t317.5 99.5q117 0 217 -39l225 18h6l-153 -614h10q114 151 293 151q145 0 243.5 -112t98.5 -297q0 -161 -70 -302t-195 -227t-274 -86q-101 0 -179 46.5t-116 121.5h-10l-84 -141h-158l316 1262
q-29 30 -76.5 48.5t-101.5 18.5q-206 0 -263 -227l-32 -131h260l-39 -154h-260l-146 -586q-20 -80 -20.5 -129t20.5 -92v-10h-325v10q36 38 54 83t42 138zM1253 119q74 0 139 40t108.5 104t69 144.5t25.5 161.5q0 123 -54.5 191.5t-147.5 68.5q-56 0 -105.5 -26.5t-85 -70.5
t-60 -93.5t-38.5 -101.5l-27 -107q-37 -146 18.5 -228.5t157.5 -82.5z" />
    <glyph glyph-name="f_f.liga" unicode="ff" horiz-adv-x="1411" 
d="M1456 1481q127 0 217 -41l-47 -187h-12q-22 32 -62 54t-90 22q-77 0 -131.5 -43t-75.5 -129l-47 -186h258l-39 -154h-258l-143 -577q-22 -88 -22.5 -137t20.5 -93v-10h-326v10q37 39 57 88.5t42 141.5l145 577h-397l-142 -571q-24 -98 -25.5 -143.5t21.5 -92.5v-10h-325
v10q35 36 53 79.5t45 143.5l145 584h-202l37 154h204l27 114q48 186 182 283.5t307 97.5q172 0 297 -80q115 95 287 95zM981 971l39 162q13 53 39 110q-75 72 -185 72q-97 0 -164 -55.5t-96 -167.5l-30 -121h397z" />
    <glyph glyph-name="f_f_b.liga" unicode="ffb" horiz-adv-x="2510" 
d="M2099 997q147 0 244.5 -111.5t97.5 -297.5q0 -161 -69.5 -302t-194.5 -227t-274 -86q-101 0 -178 46.5t-117 121.5h-11l-84 -141h-157l315 1262q-29 30 -76.5 48.5t-101.5 18.5q-205 0 -262 -227l-33 -131h260l-39 -154h-258l-147 -586q-20 -80 -20 -129t22 -92v-10h-328
v10q36 38 54 83t42 138l148 586h-387l-142 -571q-24 -98 -25.5 -143.5t21.5 -92.5v-10h-325v10q35 36 53 79.5t45 143.5l145 584h-202l37 154h204l27 114q48 186 182 283.5t307 97.5q179 0 310 -88q133 103 319 103q116 0 219 -39l224 18h6l-154 -614h10q114 151 293 151z
M971 971l30 123q20 78 60 147q-74 74 -187 74q-97 0 -164 -55.5t-96 -167.5l-30 -121h387zM1870 119q74 0 139 40t108.5 104t69 144.5t25.5 161.5q0 123 -54.5 191.5t-146.5 68.5q-46 0 -87.5 -18t-73 -47t-58 -68t-44 -78.5t-28.5 -80.5l-26 -107q-36 -146 19 -228.5
t157 -82.5z" />
    <glyph glyph-name="f_f_h.liga" unicode="ffh" horiz-adv-x="2467" 
d="M2091 997q86 0 152.5 -48t98 -144t-4.5 -240l-82 -332q-37 -138 -12 -223v-10h-316v10q36 39 55.5 84.5t42.5 138.5l93 369q28 107 -8.5 166t-110.5 59q-87 0 -165 -69.5t-110 -200.5l-79 -324q-36 -135 -11 -223v-10h-315v10q37 42 56.5 86.5t41.5 136.5l254 1029
q-64 67 -176 67q-205 0 -262 -227l-33 -131h258l-39 -154h-258l-147 -584q-20 -82 -20 -132.5t22 -90.5v-10h-326v10q38 38 55.5 81.5t40.5 139.5l146 586h-387l-142 -571q-24 -98 -25.5 -143.5t21.5 -92.5v-10h-325v10q35 36 53 79.5t45 143.5l145 584h-202l37 154h204
l27 114q48 186 182 283.5t307 97.5q179 0 310 -88q133 103 321 103q114 0 217 -39l226 18h4l-152 -612h8q120 149 285 149zM971 971l30 123q20 78 60 147q-74 74 -187 74q-97 0 -164 -55.5t-96 -167.5l-30 -121h387z" />
    <glyph glyph-name="f_f_i.liga" unicode="ffi" horiz-adv-x="1830" 
d="M1522 1481q103 0 194.5 -28t155.5 -69l-49 -198h-11q-44 65 -122 103t-166 38q-241 0 -297 -221l-33 -135h602l-184 -735q-37 -144 -10 -226v-10h-316v10q37 40 56.5 87t41.5 139l144 581h-375l-143 -575q-23 -87 -23.5 -139t21.5 -93v-10h-326v10q37 38 55 84t43 144
l146 579h-381l-142 -571q-24 -98 -25.5 -143.5t21.5 -92.5v-10h-325v10q35 36 53 79.5t45 143.5l145 584h-202l37 154h204l27 114q48 186 182 283.5t307 97.5q179 0 310 -88q136 103 340 103zM965 971l28 116q21 84 64 156q-75 72 -183 72q-97 0 -164 -55.5t-96 -167.5
l-30 -121h381z" />
    <glyph glyph-name="f_f_k.liga" unicode="ffk" horiz-adv-x="2414" 
d="M2499 971v-10q-121 -69 -312 -220l-198 -155l319 -582v-4h-254l-239 451l-156 -121l-25 -97q-38 -147 -10 -223v-10h-315v10q36 38 56 85t42 136l258 1031q-64 67 -176 67q-204 0 -264 -227l-33 -131h260l-39 -154h-258l-147 -586q-20 -79 -20 -130t22 -91v-10h-328v10
q38 38 55 80.5t43 140.5l146 586h-381l-142 -571q-24 -98 -25.5 -143.5t21.5 -92.5v-10h-325v10q35 36 53 79.5t45 143.5l145 584h-202l37 154h204l27 114q48 186 182 283.5t307 97.5q181 0 306 -86q131 101 317 101q116 0 219 -39l221 18h7l-226 -903h10l304 246
q67 55 94.5 91t27.5 71v6h347zM965 971l30 123q20 81 62 151q-77 70 -183 70q-97 0 -164 -55.5t-96 -167.5l-30 -121h381z" />
    <glyph glyph-name="f_f_l.liga" unicode="ffl" horiz-adv-x="1853" 
d="M1935 1460h7l-308 -1222q-38 -152 -10 -228v-10h-315v10q38 39 55.5 83t42.5 143l256 1026q-64 67 -174 67q-204 0 -264 -227l-33 -131h258l-39 -154h-256l-147 -586q-20 -79 -20 -130t22 -91v-10h-328v10q38 38 55 81t41 138l148 588h-381l-142 -571
q-24 -98 -25.5 -143.5t21.5 -92.5v-10h-325v10q35 36 53 79.5t45 143.5l145 584h-202l37 154h204l27 114q48 186 182 283.5t307 97.5q178 0 306 -86q131 101 317 101q112 0 219 -39zM965 971l30 123q20 81 62 151q-77 70 -183 70q-97 0 -164 -55.5t-96 -167.5l-30 -121h381z
" />
    <glyph glyph-name="f_h.liga" unicode="fh" horiz-adv-x="1839" 
d="M170 231l145 586h-202l39 154h202l31 123q48 188 183.5 287.5t318.5 99.5q114 0 217 -39l225 18h4l-153 -612h10q120 149 285 149q86 0 152.5 -48t97.5 -144t-5 -240l-84 -332q-36 -144 -10 -223v-10h-315v10q36 39 55.5 84.5t42.5 138.5l92 369q28 107 -8.5 166
t-110.5 59q-88 0 -165 -69t-109 -201l-80 -324q-21 -77 -22 -131t12 -92v-10h-316v10q37 42 57 87t42 136l254 1029q-28 30 -75.5 48.5t-100.5 18.5q-206 0 -263 -227l-32 -131h258l-39 -154h-260l-146 -584q-20 -82 -20 -132.5t22 -90.5v-10h-325v10q37 38 55 83t41 138z
" />
    <glyph glyph-name="f_k.liga" unicode="fk" horiz-adv-x="1804" 
d="M1888 971v-10q-118 -67 -311 -220l-199 -155l320 -582v-4h-256l-238 451l-155 -121l-25 -97q-38 -147 -10 -223v-10h-316v10q37 38 57.5 85.5t41.5 135.5l258 1031q-29 30 -76.5 48.5t-101.5 18.5q-203 0 -263 -227l-32 -131h260l-39 -154h-260l-146 -586
q-20 -79 -20 -130t22 -91v-10h-327v10q37 38 55 82.5t43 138.5l145 586h-202l39 154h202l31 123q48 188 182.5 287.5t317.5 99.5q116 0 219 -39l221 18h6l-225 -903h10l303 246q67 55 95 91t28 71v6h346z" />
    <glyph glyph-name=".notdef" horiz-adv-x="1376" 
d="M1077 0h-1009l364 1454h1010zM580 1292l-285 -1130h635l284 1130h-634z" />
    <glyph glyph-name=".null" horiz-adv-x="0" 
 />
    <glyph glyph-name="nonmarkingreturn" horiz-adv-x="682" 
 />
    <glyph glyph-name="space" unicode=" " horiz-adv-x="495" 
 />
    <glyph glyph-name="exclam" unicode="!" horiz-adv-x="557" 
d="M342 420h-160l209 1003h242zM180 -27q-63 0 -100 39.5t-37 98.5q0 73 48.5 122.5t119.5 49.5q63 0 102 -40.5t39 -101.5q0 -73 -49.5 -120.5t-122.5 -47.5z" />
    <glyph glyph-name="quotedbl" unicode="&#x22;" horiz-adv-x="796" 
d="M371 834h-144l115 589h209zM737 834h-143l115 589h209z" />
    <glyph glyph-name="numbersign" unicode="#" horiz-adv-x="1368" 
d="M1421 1022l-35 -150h-264l-145 -333h235l-36 -150h-265l-170 -389h-157l170 389h-308l-170 -389h-157l170 389h-232l37 150h260l146 333h-234l39 150h260l176 401h158l-176 -401h307l176 401h158l-176 -401h233zM512 539h307l146 333h-308z" />
    <glyph glyph-name="dollar" unicode="$" horiz-adv-x="1077" 
d="M897 1579l-41 -164q171 -23 291 -112l-57 -228h-13q-39 79 -107 128t-151 61l-125 -496l29 -20q120 -80 177.5 -161.5t57.5 -187.5q0 -181 -133.5 -296t-328.5 -128l-39 -159h-129l41 164q-216 27 -367 165l57 228h11q60 -115 147.5 -173.5t188.5 -68.5l120 477l-53 35
q-108 77 -163.5 162.5t-55.5 191.5q0 179 135.5 297t339.5 127l39 158h129zM473 1040q0 -60 25.5 -105t85.5 -91l104 418q-95 -18 -155 -77.5t-60 -144.5zM737 354q0 52 -24 93.5t-78 82.5l-98 -391q90 20 145 76t55 139z" />
    <glyph glyph-name="percent" unicode="%" horiz-adv-x="1736" 
d="M496 684q-125 0 -208 87t-83 233q0 108 48 208t141 166t208 66q125 0 210 -87.5t85 -232.5q0 -107 -49 -207t-143 -166.5t-209 -66.5zM1683 1423h-196l-1325 -1423h194zM504 821q62 0 111.5 54.5t72.5 127.5t23 142q0 77 -32 119.5t-85 42.5q-62 0 -110.5 -55
t-70.5 -127.5t-22 -143.5q0 -77 30.5 -118.5t82.5 -41.5zM1247 -16q-125 0 -208 86.5t-83 232.5q0 108 48.5 208t141.5 166t208 66q126 0 210.5 -87t84.5 -232q0 -107 -49.5 -207t-143.5 -166.5t-209 -66.5zM1255 121q62 0 111.5 54.5t72.5 127t23 141.5q0 78 -32 120
t-84 42q-62 0 -110.5 -54.5t-70.5 -127t-22 -143.5q0 -77 30 -118.5t82 -41.5z" />
    <glyph glyph-name="ampersand" unicode="&#x26;" horiz-adv-x="1331" 
d="M1098 793h254v-7l-351 -452l220 -328v-6h-250l-107 160h-8q-166 -187 -399 -187q-172 0 -289 111.5t-117 269.5q0 282 346 420l49 21q-102 162 -102 278q0 158 115.5 267.5t294.5 109.5q153 0 250.5 -85.5t97.5 -213.5q0 -121 -78 -206.5t-225 -147.5l-84 -35l194 -291
h11zM745 1296q-89 0 -138.5 -58t-49.5 -144q0 -92 80 -217h10l45 20q103 47 153 104.5t50 135.5q0 72 -40.5 115.5t-109.5 43.5zM524 156q153 0 258 127l-256 391l-28 -8q-96 -36 -153.5 -108t-57.5 -165q0 -103 65.5 -170t171.5 -67z" />
    <glyph glyph-name="quotesingle" unicode="'" horiz-adv-x="430" 
d="M371 834h-144l115 589h209z" />
    <glyph glyph-name="parenleft" unicode="(" horiz-adv-x="653" 
d="M432 -289l-135 -20q-203 333 -203 682q0 663 641 1235l150 -31q-559 -596 -559 -1286q0 -326 106 -580z" />
    <glyph glyph-name="parenright" unicode=")" horiz-adv-x="653" 
d="M305 1583l135 21q203 -333 203 -682q0 -663 -641 -1235l-149 30q559 600 559 1287q0 315 -107 579z" />
    <glyph glyph-name="asterisk" unicode="*" horiz-adv-x="894" 
d="M582 1004l-166 -261l-127 91l211 215v2l-258 -37l20 170l262 -35l2 2l-120 238l157 63l51 -256h2l166 256l125 -90l-211 -215v-2l258 39l-20 -172l-260 37l-2 -2l119 -236l-156 -68l-51 261h-2z" />
    <glyph glyph-name="plus" unicode="+" horiz-adv-x="1169" 
d="M670 565h395v-157h-395v-404h-166v404h-395v157h395v404h166v-404z" />
    <glyph glyph-name="comma" unicode="," horiz-adv-x="514" 
d="M195 283q67 0 110 -44t43 -110q0 -52 -22.5 -96.5t-73.5 -112.5l-207 -260h-137l254 311q-61 3 -99 42.5t-38 101.5q0 68 49.5 118t120.5 50z" />
    <glyph glyph-name="hyphen" unicode="-" horiz-adv-x="819" 
d="M133 524h569l43 170h-567z" />
    <glyph glyph-name="period" unicode="." horiz-adv-x="493" 
d="M162 -27q-63 0 -101 39.5t-38 98.5q0 73 49.5 122.5t120.5 49.5q63 0 101 -40.5t38 -101.5q0 -73 -49.5 -120.5t-120.5 -47.5z" />
    <glyph glyph-name="slash" unicode="/" horiz-adv-x="802" 
d="M1026 1505h-192l-938 -1585h194z" />
    <glyph glyph-name="zero" unicode="0" horiz-adv-x="1249" 
d="M559 -27q-192 0 -308 142t-116 381q0 131 28.5 263t86 250.5t135.5 210t184.5 145.5t225.5 54q191 0 307.5 -143.5t116.5 -382.5q0 -110 -20.5 -221t-59 -213t-97 -191t-130 -154.5t-162.5 -103t-191 -37.5zM563 141q94 0 175 83t131.5 209t79 265.5t28.5 262.5
q0 292 -189 292q-75 0 -142.5 -55.5t-115 -144.5t-82.5 -199t-52 -220t-17 -206q0 -142 47 -214.5t137 -72.5z" />
    <glyph glyph-name="one" unicode="1" horiz-adv-x="784" 
d="M451 0h-236l246 987h-289l33 137q183 8 276 66.5t140 202.5h178z" />
    <glyph glyph-name="two" unicode="2" horiz-adv-x="1077" 
d="M909 217l-53 -217h-881l43 168l426 313q99 73 159 123t120 113.5t87.5 126t27.5 129.5q0 117 -78.5 186.5t-204.5 69.5q-156 0 -285 -96l-8 143q162 143 373 143q193 0 316.5 -112t123.5 -287q0 -88 -29 -166t-91 -151.5t-137 -137.5t-187 -143l-277 -195v-10h555z" />
    <glyph glyph-name="three" unicode="3" horiz-adv-x="1107" 
d="M446 -27q-272 0 -446 203l55 115q155 -125 342 -125q143 0 242.5 75.5t99.5 194.5q0 217 -325 223l35 148l425 358v13h-598l54 215h880l-41 -168l-522 -434v-11q157 -29 243.5 -124t86.5 -232q0 -102 -44 -188.5t-118 -143t-169.5 -88t-199.5 -31.5z" />
    <glyph glyph-name="four" unicode="4" horiz-adv-x="1280" 
d="M803 0h-219l90 360h-664l41 166l899 867h201l-207 -828h311l-53 -205h-309zM850 1104l-547 -526v-13h422l135 539h-10z" />
    <glyph glyph-name="five" unicode="5" horiz-adv-x="1118" 
d="M442 -27q-280 0 -454 203l55 115q157 -125 350 -125q161 0 265 81.5t104 211.5q0 107 -74.5 165t-204.5 58q-142 0 -297 -72h-4l295 783h744l-56 -215h-610l-135 -363h10q77 45 178 45q103 0 191.5 -44.5t145 -133.5t56.5 -205q0 -143 -74.5 -259t-202.5 -180.5
t-282 -64.5z" />
    <glyph glyph-name="six" unicode="6" horiz-adv-x="1222" 
d="M600 -27q-176 0 -294 102t-156 267q-49 213 19 442.5t228 389.5q243 235 555 235q100 0 193.5 -30.5t154.5 -80.5l-47 -129q-117 70 -270 70q-228 0 -379 -137t-209 -379h11q122 162 323 162q164 0 276.5 -111t112.5 -285q0 -222 -146.5 -369t-371.5 -147zM590 131
q127 0 208 98t81 228q0 115 -65.5 184.5t-166.5 69.5q-102 0 -184.5 -68.5t-95.5 -181.5l-2 -21q-12 -131 50 -220t175 -89z" />
    <glyph glyph-name="seven" unicode="7" horiz-adv-x="1036" 
d="M948 1174v-11l-962 -1157v-6h297l882 1208l45 185h-927l-54 -219h719z" />
    <glyph glyph-name="eight" unicode="8" horiz-adv-x="1239" 
d="M547 -27q-211 0 -343 104t-132 277q0 155 115 261t307 137v12q-98 33 -151.5 100.5t-53.5 161.5q0 171 146 282t362 111q195 0 315.5 -98t120.5 -242q0 -136 -95.5 -230.5t-263.5 -131.5v-10q115 -34 179.5 -110.5t64.5 -180.5q0 -135 -76 -236.5t-204.5 -154
t-290.5 -52.5zM723 809q120 0 196 78t76 194q0 81 -54.5 128.5t-145.5 47.5q-119 0 -195 -73t-76 -187q0 -85 55 -136.5t144 -51.5zM549 135q143 0 237.5 86.5t94.5 212.5q0 98 -66.5 157.5t-175.5 59.5q-141 0 -234.5 -88t-93.5 -215q0 -97 65.5 -155t172.5 -58z" />
    <glyph glyph-name="nine" unicode="9" 
d="M399 -16q-105 0 -202.5 30.5t-165.5 81.5l47 131q130 -71 282 -71q243 0 393 147t191 402h-12q-51 -77 -138 -123.5t-192 -46.5q-163 0 -274 113t-111 288q0 206 139.5 344.5t354.5 138.5q176 0 298 -98.5t165 -269.5q53 -209 -7 -441.5t-221 -392.5q-233 -233 -547 -233
zM688 707q105 0 184 71.5t89 182.5v14q12 118 -53.5 203.5t-176.5 85.5q-126 0 -200 -87t-74 -212q0 -115 64.5 -186.5t166.5 -71.5z" />
    <glyph glyph-name="colon" unicode=":" horiz-adv-x="557" 
d="M350 670q-63 0 -101 39t-38 98q0 73 49 122.5t119 49.5q65 0 103 -40t38 -101q0 -73 -49.5 -120.5t-120.5 -47.5zM176 -27q-62 0 -99.5 39.5t-37.5 98.5q0 73 48.5 122.5t119.5 49.5q65 0 103 -40t38 -102q0 -73 -49.5 -120.5t-122.5 -47.5z" />
    <glyph glyph-name="semicolon" unicode=";" horiz-adv-x="571" 
d="M369 979q65 0 103 -40t38 -101q0 -73 -49.5 -120.5t-120.5 -47.5q-63 0 -101 39t-38 98q0 73 49 122.5t119 49.5zM221 283q67 0 110.5 -44t43.5 -110q0 -52 -22.5 -96.5t-73.5 -112.5l-207 -260h-138l254 311q-61 3 -99 42.5t-38 101.5q0 68 49.5 118t120.5 50z" />
    <glyph glyph-name="less" unicode="&#x3c;" horiz-adv-x="1220" 
d="M1047 166v-174l-951 416v155l951 416v-176l-734 -316v-8z" />
    <glyph glyph-name="equal" unicode="=" horiz-adv-x="1302" 
d="M1130 596h-956v158h956v-158zM1130 223h-956v158h956v-158z" />
    <glyph glyph-name="greater" unicode="&#x3e;" horiz-adv-x="1220" 
d="M1126 408l-952 -416v172l735 313v10l-735 314v178l952 -416v-155z" />
    <glyph glyph-name="question" unicode="?" horiz-adv-x="1032" 
d="M371 420l71 291q189 35 296.5 118t107.5 209q0 102 -78.5 162t-204.5 60q-167 0 -315 -113l-8 143q170 160 399 160q188 0 313 -107.5t125 -269.5q0 -92 -37.5 -170t-104.5 -135.5t-153.5 -98t-191.5 -63.5l-45 -186h-174zM387 -27q-63 0 -101 39.5t-38 98.5
q0 73 49.5 122.5t120.5 49.5q63 0 101 -40.5t38 -101.5q0 -73 -49.5 -120.5t-120.5 -47.5z" />
    <glyph glyph-name="at" unicode="@" horiz-adv-x="1609" 
d="M735 -266q-140 0 -262 49t-209 135t-136.5 208t-49.5 263q0 233 110.5 428.5t308.5 311.5t441 116q137 0 255 -45t200 -123.5t129 -187t47 -232.5q0 -149 -53 -273t-152 -197.5t-225 -73.5q-80 0 -137.5 33.5t-83.5 89.5h-9q-95 -123 -241 -123q-104 0 -173 76t-69 202
q0 118 55.5 227.5t156.5 179.5t222 70q65 0 117.5 -26.5t83.5 -73.5h10l66 84h137l-176 -451q-26 -67 -9 -110t74 -43q73 0 132.5 62.5t90.5 154t31 186.5q0 201 -134 326t-349 125q-147 0 -278 -58t-222 -155t-143.5 -226.5t-52.5 -269.5q0 -233 139.5 -374.5t367.5 -141.5
q195 0 369 105l-2 -144q-169 -104 -377 -104zM729 254q118 0 184 197l39 116q28 89 2.5 137t-88.5 48q-71 0 -131 -57t-91.5 -136.5t-31.5 -155.5q0 -68 31.5 -108.5t85.5 -40.5z" />
    <glyph glyph-name="A" unicode="A" horiz-adv-x="1400" 
d="M1032 1423l168 -1108q17 -114 34 -181t48 -124v-10h-377v10q47 57 59 134t-3 167l-13 92h-563l-47 -77q-130 -209 -105 -316v-10h-342v10q68 58 123.5 132t128.5 194l680 1087h209zM836 1130l-349 -563h439l-78 563h-12z" />
    <glyph glyph-name="B" unicode="B" horiz-adv-x="1349" 
d="M23 0v10q53 52 80.5 118.5t60.5 193.5l194 786q28 111 32.5 177.5t-17.5 127.5v10h510q214 0 329 -91t115 -228q0 -146 -103.5 -241.5t-277.5 -129.5v-12q140 -25 222.5 -103.5t82.5 -191.5q0 -128 -81 -226t-215.5 -149t-299.5 -51h-632zM532 817h218q153 0 242 67
t89 193q0 90 -64.5 138.5t-178.5 48.5h-195zM705 657h-213l-125 -497h249q170 0 275.5 74t105.5 217q0 101 -76 153.5t-216 52.5z" />
    <glyph glyph-name="C" unicode="C" horiz-adv-x="1370" 
d="M786 -27q-177 0 -324 81.5t-234 231t-87 335.5q0 134 40.5 259t117 228t178.5 180t232 119.5t272 42.5q277 0 469 -129l-61 -242h-11q-56 96 -155 149.5t-224 53.5q-171 0 -309 -88t-212.5 -230.5t-74.5 -306.5q0 -151 62 -261.5t167.5 -166t239.5 -55.5q198 0 383 131
l7 -143q-195 -189 -476 -189z" />
    <glyph glyph-name="D" unicode="D" horiz-adv-x="1550" 
d="M164 324l194 786q18 71 26 122.5t6 98.5t-17 82v10h475q146 0 272 -44.5t215.5 -123t140 -190.5t50.5 -244q0 -174 -66.5 -326t-184 -261t-286.5 -171.5t-366 -62.5h-600v10q54 53 81.5 119.5t59.5 194.5zM645 1264l-276 -1104h209q160 0 291.5 54.5t216.5 148
t131.5 215.5t46.5 260q0 200 -121.5 313t-323.5 113h-174z" />
    <glyph glyph-name="E" unicode="E" horiz-adv-x="1277" 
d="M1122 289h11l-72 -289h-1041v10q38 35 65 86t40 91.5t35 125.5l198 795q54 213 13 305v10h1022l-66 -262h-10q-28 54 -97 76.5t-200 22.5h-377l-115 -459h252q123 0 192 17t111 56h13l-78 -313h-12q-22 40 -80.5 58t-173.5 18h-265l-118 -473h405q129 0 211.5 28.5
t136.5 96.5z" />
    <glyph glyph-name="F" unicode="F" horiz-adv-x="1177" 
d="M23 0v10q53 50 80.5 116t58.5 189l196 789q19 75 27.5 126.5t6.5 99.5t-19 83v10h958l-65 -262h-13q-26 53 -94 76t-201 23h-315l-119 -482h252q120 0 192 17.5t113 58.5h11l-78 -313h-10q-23 40 -79 56.5t-173 16.5h-271l-73 -295q-19 -75 -26.5 -126.5t-3 -99
t24.5 -83.5v-10h-380z" />
    <glyph glyph-name="G" unicode="G" horiz-adv-x="1474" 
d="M1047 1450q301 0 499 -131l-59 -238h-12q-62 95 -169.5 148t-246.5 53q-123 0 -230 -35t-184.5 -97.5t-133 -145.5t-83 -180.5t-27.5 -202.5q0 -226 117.5 -356t329.5 -130q76 0 147 21l74 295q25 97 23.5 162t-29.5 128v11h385v-11q-53 -61 -79.5 -123t-55.5 -176
l-88 -354q-196 -115 -420 -115q-189 0 -340.5 82.5t-237.5 231t-86 336.5q0 170 67.5 322t186 263.5t288 176.5t364.5 65z" />
    <glyph glyph-name="H" unicode="H" horiz-adv-x="1615" 
d="M1335 1413v10h371v-10q-51 -49 -78 -114.5t-59 -190.5l-199 -797q-27 -107 -30 -176t18 -125v-10h-371v10q52 50 81 118t58 187l80 320h-721l-79 -322q-27 -108 -30 -177t19 -126v-10h-370v10q50 50 78.5 118t58.5 185l196 797q18 76 26 125t6.5 96t-17.5 82v10h368v-10
q-50 -50 -77.5 -116.5t-59.5 -188.5l-76 -307h719l76 309q28 110 31.5 176.5t-19.5 126.5z" />
    <glyph glyph-name="I" unicode="I" horiz-adv-x="651" 
d="M25 0v10q49 51 77.5 118.5t57.5 184.5l198 795q28 115 32 178.5t-19 126.5v10h370v-10q-51 -48 -79 -115t-58 -188l-198 -797q-52 -202 -11 -303v-10h-370z" />
    <glyph glyph-name="J" unicode="J" horiz-adv-x="980" 
d="M262 -27q-193 0 -336 119l49 135q117 -75 236 -75q57 0 104 12.5t91 42.5t77 85t52 134l170 682q28 112 32.5 177.5t-18.5 127.5v10h371v-10q-52 -51 -80.5 -117t-59.5 -188l-168 -680q-112 -455 -520 -455z" />
    <glyph glyph-name="K" unicode="K" horiz-adv-x="1409" 
d="M1599 1423v-10q-76 -43 -148 -94t-119 -90.5t-134 -114.5l-340 -295l471 -815v-4h-280l-369 666l-242 -207l-35 -142q-27 -113 -30 -181t18 -126v-10h-368v10q50 52 78 118t59 187l198 795q28 108 32 175t-19 128v10h368v-10q-53 -51 -81 -118.5t-56 -184.5l-94 -377h8
l506 451q93 83 134.5 134.5t41.5 96.5v8h401z" />
    <glyph glyph-name="L" unicode="L" horiz-adv-x="1155" 
d="M25 0v10q51 51 78 117.5t59 194.5l196 790q28 111 31.5 177t-18.5 124v10h370v-10q-52 -49 -81 -116.5t-56 -184.5l-235 -948h346q131 0 209.5 31t138.5 114h12l-78 -309h-972z" />
    <glyph glyph-name="M" unicode="M" horiz-adv-x="1933" 
d="M926 0h-203l-158 1167h-10l-213 -856q-51 -200 -14 -301v-10h-308v10q50 51 80 120t58 183l200 801q53 214 13 299v10h389l147 -1130h13l700 1130h403v-10q-51 -48 -80 -117t-59 -190l-196 -799q-52 -207 -15 -297v-10h-364v10q51 54 79.5 118t57.5 173l215 868h-12z" />
    <glyph glyph-name="N" unicode="N" horiz-adv-x="1566" 
d="M23 0v10q52 50 81.5 120.5t57.5 186.5l254 1020l-29 80v6h332l409 -1112h11l200 801q18 72 25.5 123t5 97t-17.5 81v10h311v-10q-48 -51 -78.5 -121.5t-58.5 -183.5l-277 -1108h-245l-435 1161h-12l-209 -844q-28 -110 -32 -178.5t18 -128.5v-10h-311z" />
    <glyph glyph-name="O" unicode="O" horiz-adv-x="1617" 
d="M770 -27q-279 0 -455 173t-176 442q0 231 105 427.5t296 315.5t425 119q278 0 453 -172t175 -440q0 -173 -62 -331t-169 -276t-262 -188t-330 -70zM778 145q123 0 229 64t175.5 166.5t109 227.5t39.5 251q0 195 -100.5 310.5t-276.5 115.5q-98 0 -187 -42t-155 -113
t-114.5 -162.5t-73.5 -192t-25 -199.5q0 -198 100.5 -312t278.5 -114z" />
    <glyph glyph-name="P" unicode="P" horiz-adv-x="1220" 
d="M674 561h-207l-61 -248q-18 -68 -25 -119.5t-3 -99.5t23 -84v-10h-381v10q52 52 82.5 121t57.5 180l198 799q19 73 27 124t5.5 97.5t-19.5 81.5v10h434q220 0 356.5 -107.5t136.5 -281.5q0 -150 -82.5 -258.5t-222 -161.5t-319.5 -53zM780 1264h-137l-135 -545h154
q184 0 285.5 83t101.5 236q0 112 -71 169t-198 57z" />
    <glyph glyph-name="Q" unicode="Q" horiz-adv-x="1628" 
d="M1186 162v-10h452l-53 -209h-6l-582 63q-114 -33 -231 -33q-279 0 -454 172t-175 441q0 172 61.5 329.5t168.5 275.5t262 188.5t332 70.5q138 0 255.5 -46.5t198.5 -128t126.5 -195.5t45.5 -246q0 -228 -114 -410.5t-287 -261.5zM399 567q0 -193 100.5 -307.5
t274.5 -114.5q124 0 230.5 64.5t175.5 167.5t108 228t39 249q0 195 -100 310.5t-273 115.5q-99 0 -188 -42t-154.5 -113.5t-114.5 -163t-73.5 -193t-24.5 -201.5z" />
    <glyph glyph-name="R" unicode="R" horiz-adv-x="1351" 
d="M1307 1069q0 -158 -119.5 -260.5t-321.5 -132.5l412 -672v-4h-281l-387 655h-121l-86 -342q-20 -75 -28 -124t-5 -96.5t23 -82.5v-10h-370v10q52 49 80 116.5t57 186.5l196 791q19 73 28 124.5t7 100.5t-20 84v10h463q212 0 342.5 -99.5t130.5 -254.5zM641 1264
l-113 -449h168q166 0 263.5 68t97.5 186q0 96 -68 145.5t-192 49.5h-156z" />
    <glyph glyph-name="S" unicode="S" horiz-adv-x="1093" 
d="M473 -27q-272 0 -463 172l62 240h10q62 -124 167.5 -184t219.5 -60q115 0 195.5 59t80.5 162q0 60 -34 107.5t-111 99.5l-121 82q-213 146 -213 365q0 126 69.5 226t186 154t256.5 54q114 0 217 -31.5t179 -85.5l-60 -239h-10q-42 89 -130 139.5t-192 50.5
q-118 0 -198 -62t-80 -165q0 -63 31 -111t102 -98l119 -80q118 -80 172.5 -164t54.5 -196q0 -130 -72 -230.5t-187.5 -152.5t-250.5 -52z" />
    <glyph glyph-name="T" unicode="T" horiz-adv-x="1257" 
d="M315 0v10q59 53 87.5 118t60.5 194l235 940h-145q-136 0 -216.5 -25t-127.5 -82h-10l67 268h1192l-67 -268h-13q-24 56 -97.5 81.5t-205.5 25.5h-131l-233 -940q-20 -81 -27.5 -131t-3 -97.5t26.5 -83.5v-10h-392z" />
    <glyph glyph-name="U" unicode="U" horiz-adv-x="1529" 
d="M694 -27q-182 0 -307.5 79t-173 226t-0.5 338l125 498q26 106 29.5 172t-19.5 127v10h373v-10q-51 -49 -80.5 -117t-56.5 -180l-133 -534q-46 -187 27.5 -298.5t252.5 -111.5q172 0 286.5 105.5t162.5 300.5l133 532q52 207 16 303v10h311v-10q-51 -48 -79.5 -116.5
t-59.5 -188.5l-135 -547q-148 -588 -672 -588z" />
    <glyph glyph-name="V" unicode="V" horiz-adv-x="1384" 
d="M1370 1096l-692 -1096h-223l-129 1110q-14 113 -30 180.5t-50 122.5v10h379v-10q-52 -54 -63 -131.5t5 -179.5l84 -813h13l503 817q67 108 94 177t27 132v8h328v-10q-66 -58 -116 -124.5t-130 -192.5z" />
    <glyph glyph-name="W" unicode="W" horiz-adv-x="1976" 
d="M344 0l-35 1106q-3 113 -13.5 179.5t-39.5 127.5v10h379v-10q-55 -57 -72.5 -127t-15.5 -178l14 -786h12l510 991l-8 110h283l16 -1093h12l392 768q58 111 79 181.5t7 133.5v10h317v-10q-43 -43 -80.5 -96t-61 -94.5t-67.5 -124.5l-575 -1098h-232l-16 1075h-12
l-559 -1075h-234z" />
    <glyph glyph-name="X" unicode="X" horiz-adv-x="1366" 
d="M252 352l362 381l-176 387q-34 73 -54.5 113.5t-51.5 91.5t-62 88v10h396v-10q-22 -40 -24 -87.5t9 -91t35 -99.5l100 -234h11l215 229q180 192 180 287v6h352v-10q-20 -15 -41.5 -32t-37.5 -30.5t-41 -36.5t-36.5 -34t-40.5 -40.5t-37 -38t-43 -44.5t-42 -43l-346 -362
l198 -428q54 -116 94 -185.5t89 -128.5v-10h-398v10q26 64 17.5 131.5t-52.5 165.5l-120 275h-11l-237 -250q-113 -120 -162 -191t-49 -131v-10h-361v10q133 100 365 342z" />
    <glyph glyph-name="Y" unicode="Y" horiz-adv-x="1366" 
d="M1245 1417v6h348v-10q-82 -58 -150.5 -127.5t-152.5 -171.5l-469 -553l-63 -254q-50 -191 -10 -297v-10h-371v10q49 47 79 118t58 183l66 260l-187 547q-39 110 -69.5 176t-75.5 119v10h391v-10q-62 -101 6 -299l119 -354h12l295 358q87 106 130.5 175t43.5 124z" />
    <glyph glyph-name="Z" unicode="Z" horiz-adv-x="1226" 
d="M1024 0h-1071l43 168l1024 1085v7h-418q-124 0 -202.5 -28t-127.5 -91h-10l70 282h1032l-41 -166l-1020 -1085v-8h426q134 0 218 30t138 103h13z" />
    <glyph glyph-name="bracketleft" unicode="[" horiz-adv-x="716" 
d="M961 1593l-39 -149h-273l-395 -1594h272l-39 -149h-503l473 1892h504z" />
    <glyph glyph-name="backslash" unicode="\" horiz-adv-x="782" 
d="M610 -80l-153 1585h-172l153 -1585h172z" />
    <glyph glyph-name="bracketright" unicode="]" horiz-adv-x="716" 
d="M-160 -299l39 149h273l395 1594h-273l39 149h504l-475 -1892h-502z" />
    <glyph glyph-name="asciicircum" unicode="^" horiz-adv-x="921" 
d="M365 809h-179l285 614h186l283 -614h-180l-193 448h-10z" />
    <glyph glyph-name="underscore" unicode="_" horiz-adv-x="1054" 
d="M-104 -242h913l39 156h-914z" />
    <glyph glyph-name="grave" unicode="`" horiz-adv-x="477" 
d="M512 1434l74 -301h-133l-181 297v4h240z" />
    <glyph glyph-name="a" unicode="a" horiz-adv-x="1177" 
d="M408 -27q-144 0 -240 115t-96 299q0 116 40.5 227t110 195.5t168.5 136t209 51.5q101 0 177.5 -45t117.5 -123h10l84 142h156l-174 -692q-23 -91 -25.5 -144.5t12.5 -95.5v-12l-278 -31h-6l33 129h-11q-51 -69 -124 -110.5t-164 -41.5zM494 141q70 0 131 46t98.5 110.5
t56.5 138.5l33 129q32 129 -22.5 209t-153.5 80q-97 0 -176 -68.5t-119.5 -169.5t-40.5 -208q0 -122 52 -194.5t141 -72.5z" />
    <glyph glyph-name="b" unicode="b" horiz-adv-x="1181" 
d="M575 -27q-102 0 -179.5 47t-114.5 121h-11l-84 -141h-157l295 1184q22 89 23.5 139.5t-19.5 95.5v11l288 30h7l-156 -614h12q111 151 291 151q147 0 245.5 -111.5t98.5 -297.5q0 -161 -70 -302t-195 -227t-274 -86zM543 119q74 0 139 40t108.5 104t69 144.5t25.5 161.5
q0 123 -55 191.5t-148 68.5q-56 0 -105.5 -26t-85 -69t-60 -93t-38.5 -104l-28 -113q-35 -141 20 -223t158 -82z" />
    <glyph glyph-name="c" unicode="c" horiz-adv-x="968" 
d="M514 -27q-195 0 -316.5 128t-121.5 321q0 157 73.5 288t209.5 209t307 78q174 0 307 -77l-47 -195h-13q-30 58 -92.5 90.5t-138.5 32.5q-163 0 -270 -112.5t-107 -282.5q0 -140 77 -217.5t208 -77.5q135 0 250 75l4 -122q-67 -67 -152.5 -102.5t-177.5 -35.5z" />
    <glyph glyph-name="d" unicode="d" horiz-adv-x="1189" 
d="M414 -27q-146 0 -244 113.5t-98 298.5q0 157 68 297t192.5 227.5t275.5 87.5q95 0 168 -42.5t109 -114.5h10l88 354q19 78 19.5 132t-15.5 93v11l285 30h6l-301 -1200q-37 -142 -8 -221v-12l-279 -31h-6l33 129h-10q-113 -152 -293 -152zM502 141q105 0 182 87.5
t109 211.5l30 125q33 132 -23 210.5t-157 78.5q-60 0 -114 -26t-95 -70t-71.5 -101t-46 -122t-15.5 -129q0 -124 53 -194.5t148 -70.5z" />
    <glyph glyph-name="e" unicode="e" horiz-adv-x="1021" 
d="M602 997q189 0 284.5 -125.5t55.5 -314.5l-12 -53h-629q-2 -12 -2 -37q0 -153 78.5 -231t210.5 -78q142 0 278 92l4 -127q-150 -150 -356 -150q-187 0 -311.5 124t-124.5 331q0 109 38 211.5t104.5 182t166.5 127.5t215 48zM584 860q-93 0 -159 -62t-99 -163h417
q14 101 -27.5 163t-131.5 62z" />
    <glyph glyph-name="f" unicode="f" horiz-adv-x="786" 
d="M74 0v10q36 38 55 86t43 144l143 577h-202l39 154h202l41 162q43 173 156 260.5t278 87.5q128 0 218 -41l-46 -187h-12q-22 32 -62 54t-91 22q-76 0 -130 -43t-75 -129l-47 -186h258l-39 -154h-258l-144 -577q-22 -88 -22.5 -137t20.5 -93v-10h-325z" />
    <glyph glyph-name="g" unicode="g" horiz-adv-x="1067" 
d="M1141 1014l-47 -183l-207 3v-9q47 -50 47 -133q0 -160 -123.5 -263t-310.5 -103q-86 0 -150 24q-61 -16 -97 -43.5t-36 -64.5q0 -64 100 -70l267 -14q156 -9 243.5 -69.5t87.5 -168.5q0 -111 -80.5 -194t-205 -123.5t-271.5 -40.5q-201 0 -319.5 71t-118.5 189
q0 66 47.5 123t134.5 94v4q-67 51 -67 139q0 73 51.5 132.5t149.5 97.5v8q-89 83 -89 205q0 165 125.5 268.5t311.5 103.5q85 0 164 -26l387 43h6zM510 457q95 0 157 73.5t62 176.5q0 73 -40.5 117t-110.5 44q-95 0 -157.5 -73.5t-62.5 -176.5q0 -74 41 -117.5t111 -43.5z
M557 -29l-303 19q-4 0 -12.5 1t-12.5 1q-57 -24 -90 -62t-33 -84q0 -70 69 -109.5t190 -39.5q88 0 161.5 18t122.5 58t49 96q0 49 -33.5 73t-107.5 29z" />
    <glyph glyph-name="h" unicode="h" horiz-adv-x="1136" 
d="M98 240l236 946q22 84 23 136t-19 97v11l287 30h4l-152 -612h8q120 149 285 149q86 0 152.5 -48t98 -144t-4.5 -240l-80 -323q-22 -88 -24.5 -139.5t12.5 -92.5v-10h-318v10q37 37 56 84t45 150l92 362q26 105 -10.5 163t-110.5 58q-88 0 -165.5 -69t-111.5 -207
l-75 -309q-35 -146 -13 -232v-10h-315v10q38 41 56.5 85.5t43.5 144.5z" />
    <glyph glyph-name="i" unicode="i" horiz-adv-x="546" 
d="M457 1137q-59 0 -97 37.5t-38 95.5q0 70 49 117t121 47q58 0 95.5 -37t37.5 -94q0 -70 -48.5 -118t-119.5 -48zM516 977l-186 -744q-37 -150 -11 -223v-10h-315v10q35 38 54 85t42 138l121 486q18 73 19 121.5t-17 95.5v10l287 31h6z" />
    <glyph glyph-name="j" unicode="j" horiz-adv-x="532" 
d="M451 1137q-58 0 -96 38t-38 95q0 70 49 117t121 47q58 0 94.5 -37t36.5 -94q0 -71 -47.5 -118.5t-119.5 -47.5zM-156 -438q-116 0 -204 57l38 119q56 -27 121 -27q165 0 213 187l203 815q36 139 2 223v10l287 31h6l-266 -1071q-87 -344 -400 -344z" />
    <glyph glyph-name="k" unicode="k" horiz-adv-x="1101" 
d="M1184 971v-10q-117 -70 -303 -211l-207 -162l321 -584v-4h-256l-237 453l-158 -125l-22 -90q-22 -86 -24 -136t13 -92v-10h-315v10q36 37 55 84t43 142l244 972q19 81 18.5 124.5t-20.5 86.5v11l287 30h4l-226 -903h13l313 254q64 54 88.5 89t24.5 67v4h344z" />
    <glyph glyph-name="l" unicode="l" horiz-adv-x="538" 
d="M-4 0v10q36 37 55 84t41 139l244 971q19 84 18.5 127t-18.5 88v11l285 30h6l-308 -1229q-35 -135 -8 -221v-10h-315z" />
    <glyph glyph-name="m" unicode="m" horiz-adv-x="1701" 
d="M98 227l121 482q20 84 20.5 134.5t-16.5 92.5v10l285 31h6l-33 -127h11q117 147 276 147q90 0 151 -52.5t80 -147.5h11q131 200 331 200q84 0 150.5 -47.5t97 -138.5t-1.5 -223l-88 -355q-21 -80 -23 -131.5t13 -91.5v-10h-315v10q34 37 53 84t43 142l96 380
q27 103 -6.5 157t-106.5 54q-79 0 -149 -66t-100 -183l-86 -338q-36 -141 -13 -230v-10h-313v10q36 38 54 83t42 140l96 385q23 96 -8 152.5t-102 56.5q-82 0 -155.5 -67t-102.5 -185l-86 -346q-35 -136 -11 -219v-10h-317v10q38 38 57 85t39 132z" />
    <glyph glyph-name="n" unicode="n" horiz-adv-x="1140" 
d="M100 229l117 476q22 84 23.5 135t-17.5 96v10l285 31h6l-33 -129h11q121 149 282 149q89 0 156 -50.5t95.5 -146.5t-5.5 -235l-82 -334q-20 -84 -22.5 -131t12.5 -90v-10h-316v10q37 41 55.5 85t41.5 136l94 375q26 104 -10.5 162.5t-110.5 58.5q-88 0 -164.5 -68.5
t-109.5 -205.5l-80 -317q-35 -139 -11 -226v-10h-315v10q36 39 55.5 84t42.5 135z" />
    <glyph glyph-name="o" unicode="o" horiz-adv-x="1150" 
d="M508 -27q-192 0 -313 120t-121 306q0 165 73.5 302t205.5 216.5t294 79.5q194 0 314 -119t120 -305q0 -166 -73.5 -303t-205 -217t-294.5 -80zM510 129q76 0 140.5 42.5t106 110t64.5 149.5t23 165q0 115 -53.5 180.5t-147.5 65.5q-76 0 -140.5 -42t-105.5 -110
t-63.5 -149.5t-22.5 -163.5q0 -117 52.5 -182.5t146.5 -65.5z" />
    <glyph glyph-name="p" unicode="p" horiz-adv-x="1191" 
d="M-6 -170l221 883q19 78 21.5 124.5t-13.5 96.5v10l281 31h6l-33 -129h10q111 151 293 151q144 0 243 -111t99 -298q0 -161 -70 -302t-193.5 -227t-270.5 -86q-98 0 -172 42.5t-109 109.5h-10l-74 -295q-23 -92 -24.5 -139.5t20.5 -89.5v-11h-323v11q36 37 55 84.5
t43 144.5zM551 119q100 0 180 68.5t121 170.5t41 211q0 121 -54 190.5t-147 69.5q-108 0 -185 -86.5t-104 -203.5l-30 -121q-35 -140 20 -219.5t158 -79.5z" />
    <glyph glyph-name="q" unicode="q" horiz-adv-x="1181" 
d="M643 -172l76 297h-10q-114 -152 -293 -152q-148 0 -245 113.5t-97 294.5q0 161 68 301.5t192.5 227.5t275.5 87q99 0 177 -45t118 -123h10l86 142h156l-287 -1145q-21 -83 -23.5 -133.5t11.5 -91.5v-11h-321v11q42 37 61.5 82.5t44.5 144.5zM504 141q107 0 184 91
t107 212l30 121q33 132 -23.5 210.5t-158.5 78.5q-98 0 -178 -68.5t-121 -171.5t-41 -213q0 -120 53.5 -190t147.5 -70z" />
    <glyph glyph-name="r" unicode="r" horiz-adv-x="790" 
d="M102 238l117 469q20 86 21.5 135.5t-17.5 93.5v10l285 31h6l-57 -229h10q63 127 137.5 188t183.5 61q53 0 91 -14l-58 -229q-43 16 -98 16q-112 0 -207.5 -85t-138.5 -253l-49 -196q-22 -85 -22 -135t22 -91v-10h-324v10q36 41 55.5 87.5t42.5 140.5z" />
    <glyph glyph-name="s" unicode="s" horiz-adv-x="845" 
d="M324 -27q-90 0 -178 33t-154 88l45 182h12q40 -70 115.5 -111.5t163.5 -41.5q76 0 127 30t51 91q0 36 -23 64.5t-71 60.5l-105 67q-147 96 -147 246q0 137 111 226t278 89q168 0 289 -79l-47 -191h-11q-34 58 -95 90.5t-138 32.5q-81 0 -137 -34.5t-56 -92.5
q0 -38 23 -66t82 -65l100 -64q74 -47 112 -104t38 -135q0 -138 -109.5 -227t-275.5 -89z" />
    <glyph glyph-name="t" unicode="t" horiz-adv-x="755" 
d="M406 -27q-133 0 -203.5 97t-30.5 258l123 489h-195l37 141q55 1 94 6.5t69 20.5t49 32t36 50.5t28 65.5t27 88h183l-62 -250h268l-38 -154h-269l-133 -530q-20 -78 10.5 -114t96.5 -36q61 0 125 25l-3 -121q-92 -68 -212 -68z" />
    <glyph glyph-name="u" unicode="u" horiz-adv-x="1116" 
d="M354 -27q-135 0 -208 112.5t-29 291.5l84 334q20 79 21.5 127.5t-17.5 95.5v12l284 31h5l-156 -639q-24 -93 7.5 -143t105.5 -50q82 0 156.5 73t109.5 214l71 281q13 52 18 87t2 70.5t-17 63.5v12l286 31h6l-176 -709q-15 -59 -21 -96.5t-5 -71.5t12 -61v-12l-279 -31h-6
l33 129h-10q-120 -152 -277 -152z" />
    <glyph glyph-name="v" unicode="v" horiz-adv-x="1032" 
d="M311 0l-102 723q-12 81 -27 126.5t-49 86.5v12l275 33l2 -20q7 -77 28 -277l43 -393h11l278 444q76 129 76 226v10h287v-10q-36 -28 -71.5 -70t-53 -67t-64.5 -97l-467 -727h-166z" />
    <glyph glyph-name="w" unicode="w" horiz-adv-x="1538" 
d="M436 303h13l329 588l-6 80h219l41 -676h12l244 442q39 70 51.5 119.5t12.5 106.5v8h278v-10q-48 -44 -84.5 -95t-85.5 -137l-422 -729h-172l-39 680h-12l-393 -680h-168l-57 725q-5 77 -18.5 124.5t-45.5 86.5v12l270 33l3 -43l12 -262z" />
    <glyph glyph-name="x" unicode="x" horiz-adv-x="1007" 
d="M160 248l229 246l-121 270q-35 73 -60 114.5t-65 82.5v10h336v-10q-37 -79 8 -185l58 -135h10l117 129q57 63 82.5 106t25.5 87v8h307v-10q-112 -78 -243 -222l-217 -231l125 -275q66 -149 131 -223v-10h-336v10q43 74 -8 197l-66 153h-8l-127 -139q-63 -69 -93 -119
t-30 -96v-6h-313v10q42 30 88 70.5t77.5 72t92.5 95.5z" />
    <glyph glyph-name="y" unicode="y" horiz-adv-x="1028" 
d="M846 961v10h284v-10q-54 -47 -89.5 -95.5t-94.5 -146.5l-524 -862q-97 -162 -192.5 -228.5t-215.5 -66.5q-101 0 -168 45l43 176q69 -27 138 -27q80 0 147.5 39t126.5 139l35 58l-131 731q-14 78 -31.5 126.5t-52.5 88.5v10l274 33l2 -16q17 -133 39 -271l64 -409h8
l264 446q90 150 74 230z" />
    <glyph glyph-name="z" unicode="z" horiz-adv-x="937" 
d="M508 150h-234v10l652 657l37 154h-754l-55 -221h10q41 43 99.5 58t164.5 15h215v-12l-653 -659l-37 -152h790l60 240h-10q-45 -50 -112.5 -70t-172.5 -20z" />
    <glyph glyph-name="braceleft" unicode="{" horiz-adv-x="784" 
d="M416 -317q-163 0 -249.5 114.5t-37.5 304.5l76 310q26 100 -1 147.5t-116 54.5l25 152q101 7 152.5 53.5t78.5 145.5l80 319q41 166 151.5 246t266.5 80q94 0 186 -29l-41 -129q-55 10 -96 10q-204 0 -254 -200l-76 -299q-31 -127 -97 -194.5t-169 -86.5v-10
q87 -24 119 -100t0 -201l-80 -326q-53 -213 164 -213q51 0 92 8l-27 -137q-68 -20 -147 -20z" />
    <glyph glyph-name="bar" unicode="|" horiz-adv-x="536" 
d="M164 -299h-180l473 1892h178z" />
    <glyph glyph-name="braceright" unicode="}" horiz-adv-x="782" 
d="M449 1610q105 0 181.5 -49.5t107.5 -142.5t-1 -226l-78 -309q-25 -101 2 -149t115 -54l-24 -152q-100 -7 -152.5 -53.5t-77.5 -146.5l-80 -320q-42 -166 -152.5 -245.5t-266.5 -79.5q-99 0 -185 28l39 131q41 -10 96 -10q203 0 254 199l76 301q31 126 97.5 192.5
t168.5 87.5v9q-87 24 -118.5 100.5t0.5 202.5l79 325q53 213 -163 213q-33 0 -91 -8l25 135q65 21 148 21z" />
    <glyph glyph-name="asciitilde" unicode="~" horiz-adv-x="1157" 
d="M270 350h-164q-2 138 67.5 221.5t186.5 83.5q93 0 207 -57l82 -45q101 -49 144 -49q100 0 100 143h166q1 -138 -69 -221.5t-187 -83.5q-98 0 -209 59l-84 43q-87 50 -139 50q-48 0 -75 -37t-26 -107z" />
    <glyph glyph-name="uni00A0" unicode="&#xa0;" horiz-adv-x="495" 
 />
    <glyph glyph-name="exclamdown" unicode="&#xa1;" horiz-adv-x="528" 
d="M362 997q63 0 101.5 -39.5t38.5 -97.5q0 -73 -49.5 -122.5t-120.5 -49.5q-63 0 -101 40t-38 101q0 73 49 120.5t120 47.5zM201 551h161l-210 -1004h-240z" />
    <glyph glyph-name="cent" unicode="&#xa2;" horiz-adv-x="1040" 
d="M825 1157l-41 -164q134 -18 226 -73l-47 -195h-13q-27 52 -80.5 83.5t-121.5 37.5l-168 -686q14 -2 47 -2q135 0 250 75l4 -122q-67 -67 -152.5 -102.5t-177.5 -35.5h-19l-38 -157h-129l45 178q-137 43 -217 158.5t-80 269.5q0 150 67 277t192.5 206.5t284.5 89.5l41 162
h127zM342 453q0 -178 119 -252l157 635q-124 -34 -200 -138t-76 -245z" />
    <glyph glyph-name="sterling" unicode="&#xa3;" horiz-adv-x="1150" 
d="M866 1419q195 0 348 -92l-55 -233h-12q-33 75 -106.5 118t-174.5 43q-71 0 -132 -22t-110 -67.5t-75.5 -122.5t-22.5 -179l6 -178h527l-35 -143h-487q-3 -122 -59 -199t-163 -125v-10h686l-53 -209h-968l43 164q73 33 122 64t92 75.5t64 103.5t21 136h-218l35 143h176
l-6 168q-9 251 147.5 408t409.5 157z" />
    <glyph glyph-name="currency" unicode="&#xa4;" horiz-adv-x="1234" 
d="M1231 1100l-168 -133q53 -86 53 -201q0 -185 -115 -326l111 -139l-98 -76l-101 129q-129 -96 -292 -96q-149 0 -259 92l-169 -135l-76 96l168 133q-56 94 -56 203q0 187 113 322l-109 143l99 76l100 -131q129 96 295 96q146 0 256 -92l172 135zM625 412q142 0 235.5 105
t93.5 247q0 105 -65.5 170t-167.5 65q-143 0 -235.5 -103.5t-92.5 -246.5q0 -104 65.5 -170.5t166.5 -66.5z" />
    <glyph glyph-name="yen" unicode="&#xa5;" horiz-adv-x="1282" 
d="M1137 1384v9h315v-11q-68 -43 -134.5 -113t-152.5 -177l-305 -377h268l-32 -135h-332l-33 -136h330l-33 -135h-332q-26 -107 -30.5 -171.5t14.5 -127.5v-10h-346v10q50 56 79.5 122.5t57.5 176.5h-332l35 135h330l33 136h-330l35 135h266l-109 395q-29 105 -55.5 169.5
t-64.5 102.5v11h348v-11q-23 -24 -29 -66.5t0.5 -87t22.5 -110.5l90 -344h10l268 340q148 185 148 270z" />
    <glyph glyph-name="brokenbar" unicode="&#xa6;" horiz-adv-x="536" 
d="M461 895h-178l174 698h178zM164 -299h-180l174 700h180z" />
    <glyph glyph-name="section" unicode="&#xa7;" horiz-adv-x="1032" 
d="M756 1419q200 0 350 -92l-47 -205h-12q-104 133 -299 133q-112 0 -176 -43t-64 -116q0 -44 25.5 -81.5t89.5 -76.5l155 -92q104 -65 148.5 -127.5t44.5 -145.5q0 -105 -74 -188.5t-192 -126.5v-12q75 -75 75 -183q0 -149 -125.5 -251.5t-326.5 -102.5q-220 0 -371 105
l51 200h10q43 -63 123.5 -102t180.5 -39q109 0 174 40.5t65 119.5q0 43 -26.5 78t-88.5 73l-147 92q-99 62 -144.5 128t-45.5 147q0 108 73 187.5t193 123.5v8q-86 86 -86 201q0 142 127.5 245t339.5 103zM639 688l-160 100q-1 0 -2 1.5t-2 1.5q-166 -67 -166 -187
q0 -49 27 -87.5t98 -82.5l146 -92l24 -16q166 80 166 192q0 49 -27 85.5t-104 84.5z" />
    <glyph glyph-name="dieresis" unicode="&#xa8;" horiz-adv-x="747" 
d="M336 1143q-55 0 -90 36t-35 91q0 66 45.5 110.5t114.5 44.5q55 0 89 -35t34 -90q0 -67 -45 -112t-113 -45zM745 1143q-55 0 -91 36.5t-36 90.5q0 66 46 110.5t114 44.5q55 0 90 -35.5t35 -89.5q0 -67 -46 -112t-112 -45z" />
    <glyph glyph-name="copyright" unicode="&#xa9;" horiz-adv-x="1769" 
d="M946 -29q-212 0 -383.5 98.5t-268.5 271.5t-97 386q0 214 97 387t268.5 271t383.5 98q159 0 298.5 -57.5t238.5 -157.5t156 -240.5t57 -300.5q0 -213 -97 -386t-269 -271.5t-384 -98.5zM946 106q262 0 431 175.5t169 447.5t-169 446.5t-431 174.5q-174 0 -311.5 -79.5
t-214 -221t-76.5 -320.5t76.5 -321t214 -222t311.5 -80zM975 328q-167 0 -283.5 115t-116.5 284q0 174 115 288.5t291 114.5q120 0 215 -53v-172h-10q-70 90 -178 90q-107 0 -172.5 -66.5t-65.5 -180.5q0 -121 71 -192t185 -71q100 0 188 52l19 -97q-112 -112 -258 -112z
" />
    <glyph glyph-name="ordfeminine" unicode="&#xaa;" horiz-adv-x="886" 
d="M618 1450q159 0 243.5 -103t43.5 -262l-69 -282q-17 -67 -18.5 -105.5t13.5 -72.5v-9l-247 -24h-4l28 110h-10q-88 -135 -229 -135q-85 0 -145 59.5t-60 151.5q0 107 85 167t253 93l198 39l11 41q20 80 -24.5 125t-129.5 45q-129 0 -252 -76l-4 125q151 113 317 113z
M461 721q63 0 120.5 53t82.5 150l10 47l-125 -31q-96 -23 -139 -49t-43 -80q0 -42 26 -66t68 -24z" />
    <glyph glyph-name="guillemotleft" unicode="&#xab;" horiz-adv-x="1273" 
d="M580 10l-158 -24l-332 538l526 461l177 -37l-443 -450zM1028 10l-158 -24l-301 483l588 516l174 -37l-506 -516z" />
    <glyph glyph-name="logicalnot" unicode="&#xac;" horiz-adv-x="1181" 
d="M113 565h884v-565h-163v406h-721v159z" />
    <glyph glyph-name="uni00AD" unicode="&#xad;" horiz-adv-x="819" 
d="M133 524h569l43 170h-567z" />
    <glyph glyph-name="registered" unicode="&#xae;" horiz-adv-x="1769" 
d="M946 1483q159 0 298.5 -57.5t238.5 -157.5t156 -240.5t57 -300.5q0 -213 -97 -386t-269 -271.5t-384 -98.5t-383.5 98.5t-268.5 271.5t-97 386q0 214 97 387t268.5 271t383.5 98zM946 106q262 0 431 175.5t169 447.5t-169 446.5t-431 174.5q-174 0 -311.5 -79.5
t-214 -221t-76.5 -320.5t76.5 -321t214 -222t311.5 -80zM1253 897q0 -77 -47.5 -131.5t-132.5 -79.5l273 -342v-4h-211l-252 330h-41v-181q0 -101 30 -139v-10h-231v10q31 39 31 139v480q0 100 -31 139v10h309q138 0 220.5 -59t82.5 -162zM842 1008v-230h73q75 0 116.5 29.5
t41.5 87.5q0 57 -41.5 85t-113.5 28h-76z" />
    <glyph glyph-name="macron" unicode="&#xaf;" horiz-adv-x="733" 
d="M213 1188h649l35 139h-647z" />
    <glyph glyph-name="degree" unicode="&#xb0;" horiz-adv-x="770" 
d="M545 852q-131 0 -219 85t-88 214q0 130 88 215.5t219 85.5q130 0 218.5 -85.5t88.5 -215.5q0 -128 -88.5 -213.5t-218.5 -85.5zM545 983q69 0 114.5 47.5t45.5 120.5q0 74 -45 121t-115 47t-115 -47t-45 -121q0 -73 45.5 -120.5t114.5 -47.5z" />
    <glyph glyph-name="plusminus" unicode="&#xb1;" horiz-adv-x="1247" 
d="M676 977v-322h395v-159h-395v-254h-166v254h-395v159h395v322h166zM1071 -29h-956v160h956v-160z" />
    <glyph glyph-name="uni00B2" unicode="&#xb2;" horiz-adv-x="780" 
d="M784 821h-618l35 146l274 170q119 74 178.5 133t59.5 131t-50.5 111.5t-130.5 39.5q-102 0 -196 -63l-8 119q121 112 276 112q129 0 218 -78.5t89 -195.5q0 -61 -21 -112.5t-62.5 -94.5t-86 -75.5t-108.5 -69.5l-133 -78v-8h329z" />
    <glyph glyph-name="uni00B3" unicode="&#xb3;" horiz-adv-x="768" 
d="M481 793q-97 0 -177.5 40.5t-135.5 106.5l47 92q102 -88 225 -88q90 0 147.5 40.5t57.5 109.5q0 113 -188 116l26 109l230 180v10h-369l47 183h600l-37 -142l-305 -243v-7q84 -25 131 -82t47 -133q0 -131 -102.5 -211.5t-243.5 -80.5z" />
    <glyph glyph-name="acute" unicode="&#xb4;" horiz-adv-x="485" 
d="M358 1133h-153l198 301h273v-4z" />
    <glyph glyph-name="uni00B5" unicode="&#xb5;" horiz-adv-x="1185" 
d="M-41 -410l279 1127q37 139 4 217v12l284 31h6l-157 -641q-24 -92 7 -141.5t101 -49.5q89 0 163.5 73.5t109.5 213.5l69 283q19 77 20.5 122.5t-18.5 96.5v12l289 31h6l-178 -707q-14 -60 -20 -96t-5.5 -72t11.5 -63v-12l-277 -31h-6l31 129h-10q-116 -152 -269 -152
q-63 0 -102 31h-4l-43 -168q-23 -90 -24.5 -140t20.5 -95v-11h-287z" />
    <glyph glyph-name="paragraph" unicode="&#xb6;" horiz-adv-x="1294" 
d="M1362 1423v-10q-51 -48 -79 -113.5t-58 -183.5l-355 -1415h-143l395 1579h-239l-396 -1579h-145l236 946q-181 10 -282 108.5t-101 245.5q0 106 41.5 187.5t116.5 132.5t175 76.5t222 25.5h612z" />
    <glyph glyph-name="periodcentered" unicode="&#xb7;" horiz-adv-x="520" 
d="M264 416q-63 0 -100 39t-37 98q0 73 48.5 122.5t119.5 49.5q63 0 101 -40t38 -101q0 -73 -49.5 -120.5t-120.5 -47.5z" />
    <glyph glyph-name="cedilla" unicode="&#xb8;" horiz-adv-x="509" 
d="M49 -422q-128 0 -215 90l37 78q70 -53 152 -53q50 0 82 20.5t32 53.5q0 27 -23.5 43t-60.5 16q-32 0 -76 -19l-4 3l138 231l71 -41l-59 -96l2 -2q12 4 29 4q54 0 92.5 -38t38.5 -101q0 -84 -67 -136.5t-169 -52.5z" />
    <glyph glyph-name="uni00B9" unicode="&#xb9;" horiz-adv-x="724" 
d="M629 821h-191l123 502h-295l29 115q186 8 270 61.5t133 200.5h150z" />
    <glyph glyph-name="ordmasculine" unicode="&#xba;" horiz-adv-x="1003" 
d="M561 567q-163 0 -265.5 103t-102.5 266q0 102 39 196.5t105.5 164.5t160 111.5t198.5 41.5q163 0 266 -104t103 -267q0 -137 -65.5 -254.5t-182 -187.5t-256.5 -70zM569 713q82 0 150 60t103.5 148.5t35.5 180.5q0 91 -46 146t-124 55q-82 0 -150.5 -60t-104.5 -148.5
t-36 -179.5q0 -92 47 -147t125 -55z" />
    <glyph glyph-name="guillemotright" unicode="&#xbb;" horiz-adv-x="1277" 
d="M250 963l158 22l299 -483l-586 -514l-176 37l506 516zM698 963l158 22l332 -539l-526 -458l-177 37l443 448z" />
    <glyph glyph-name="onequarter" unicode="&#xbc;" horiz-adv-x="2162" 
d="M567 594h-184l119 477h-281l27 111q176 6 257 58t128 192h141zM1853 1423h-196l-1325 -1423h194zM1798 0h-172l51 197h-407l30 125l570 516h137l-121 -490h180l-36 -151h-183zM1497 356v-8h217l64 256h-9z" />
    <glyph glyph-name="onehalf" unicode="&#xbd;" horiz-adv-x="2037" 
d="M565 594h-184l119 477h-281l27 111q176 6 257 58t128 192h141zM1849 1423h-194l-1327 -1423h194zM1835 0h-590l33 139l262 162q55 34 89.5 59t69.5 57t51.5 65.5t16.5 70.5q0 68 -48.5 105.5t-123.5 37.5q-101 0 -188 -61l-8 113q117 108 264 108q124 0 208.5 -75
t84.5 -187q0 -58 -20 -107t-60.5 -90.5t-82.5 -72t-103 -66.5l-127 -74v-8h315z" />
    <glyph glyph-name="threequarters" unicode="&#xbe;" horiz-adv-x="2125" 
d="M426 569q-92 0 -169 39t-126 101l43 88q98 -84 215 -84q85 0 140 38t55 103q0 110 -178 113l24 102l217 172v10h-350l45 174h571l-34 -135l-291 -231v-6q79 -23 124.5 -78t45.5 -127q0 -126 -97.5 -202.5t-234.5 -76.5zM1819 1423h-195l-1327 -1423h195zM1765 0h-172
l52 197h-408l31 125l569 516h137l-121 -490h181l-37 -151h-182zM1464 356v-8h217l64 256h-8z" />
    <glyph glyph-name="questiondown" unicode="&#xbf;" horiz-adv-x="1011" 
d="M633 997q62 0 99.5 -39.5t37.5 -97.5q0 -73 -48.5 -122.5t-119.5 -49.5q-65 0 -103 40t-38 101q0 73 49.5 120.5t122.5 47.5zM649 551l-74 -291q-187 -35 -294 -118.5t-107 -209.5q0 -102 77.5 -161.5t203.5 -59.5q169 0 317 113l6 -143q-170 -160 -399 -160
q-188 0 -312 107t-124 270q0 180 134 299t351 168l47 186h174z" />
    <glyph glyph-name="Agrave" unicode="&#xc0;" horiz-adv-x="1400" 
d="M963 1841l73 -301h-133l-180 297v4h240zM1032 1423l168 -1108q17 -114 34 -181t48 -124v-10h-377v10q47 57 59 134t-3 167l-13 92h-563l-47 -77q-130 -209 -105 -316v-10h-342v10q68 58 123.5 132t128.5 194l680 1087h209zM836 1130l-349 -563h439l-78 563h-12z" />
    <glyph glyph-name="Aacute" unicode="&#xc1;" horiz-adv-x="1400" 
d="M829 1540l201 301h270v-4l-317 -297h-154zM823 1423h209l168 -1108q17 -114 34 -181t48 -124v-10h-377v10q47 57 59 134t-3 167l-13 92h-563l-47 -77q-130 -209 -105 -316v-10h-342v10q68 58 123.5 132t128.5 194zM836 1130l-349 -563h439l-78 563h-12z" />
    <glyph glyph-name="Acircumflex" unicode="&#xc2;" horiz-adv-x="1400" 
d="M1126 1540l-122 152l-216 -152h-190l354 301h156l176 -301h-158zM823 1423h209l168 -1108q17 -114 34 -181t48 -124v-10h-377v10q47 57 59 134t-3 167l-13 92h-563l-47 -77q-130 -209 -105 -316v-10h-342v10q68 58 123.5 132t128.5 194zM836 1130l-349 -563h439l-78 563
h-12z" />
    <glyph glyph-name="Atilde" unicode="&#xc3;" horiz-adv-x="1400" 
d="M850 1669q-79 0 -107 -113h-129q20 129 83 199t153 70q72 0 149 -60l41 -34q36 -31 74 -31q75 0 107 115h129q-20 -130 -83 -200.5t-155 -70.5q-81 0 -149 62l-37 30q-38 33 -76 33zM823 1423h209l168 -1108q17 -114 34 -181t48 -124v-10h-377v10q47 57 59 134t-3 167
l-13 92h-563l-47 -77q-130 -209 -105 -316v-10h-342v10q68 58 123.5 132t128.5 194zM836 1130l-349 -563h439l-78 563h-12z" />
    <glyph glyph-name="Adieresis" unicode="&#xc4;" horiz-adv-x="1400" 
d="M762 1559q-55 0 -90 36t-35 91q0 66 45.5 110.5t114.5 44.5q54 0 88.5 -35.5t34.5 -89.5q0 -67 -45 -112t-113 -45zM1204 1841q55 0 90 -35.5t35 -89.5q0 -67 -46 -112t-114 -45q-55 0 -90 36t-35 91q0 66 46 110.5t114 44.5zM823 1423h209l168 -1108q17 -114 34 -181
t48 -124v-10h-377v10q47 57 59 134t-3 167l-13 92h-563l-47 -77q-130 -209 -105 -316v-10h-342v10q68 58 123.5 132t128.5 194zM836 1130l-349 -563h439l-78 563h-12z" />
    <glyph glyph-name="Aring" unicode="&#xc5;" horiz-adv-x="1400" 
d="M997 1503q-91 0 -156 63.5t-65 151.5q0 89 65 153t156 64q95 0 160.5 -63.5t65.5 -153.5q0 -88 -65.5 -151.5t-160.5 -63.5zM997 1815q-39 0 -65.5 -27.5t-26.5 -69.5q0 -41 26.5 -67.5t65.5 -26.5q40 0 68.5 26.5t28.5 67.5q0 42 -28.5 69.5t-68.5 27.5zM1032 1423
l168 -1108q17 -114 34 -181t48 -124v-10h-377v10q47 57 59 134t-3 167l-13 92h-563l-47 -77q-130 -209 -105 -316v-10h-342v10q68 58 123.5 132t128.5 194l680 1087h209zM836 1130l-349 -563h439l-78 563h-12z" />
    <glyph glyph-name="AE" unicode="&#xc6;" horiz-adv-x="1849" 
d="M160 348l823 1075h987l-65 -262h-11q-27 53 -94 76t-201 23h-311l-112 -459h194q215 0 291 73h12l-78 -313h-12q-39 76 -244 76h-204l-119 -473h336q126 0 209.5 28t138.5 97h10l-72 -289h-962v10q53 51 82 118.5t59 184.5l23 90h-424l-58 -75q-159 -208 -159 -320v-8
h-338v10q73 59 139 136t160 202zM541 567h340l159 647h-10z" />
    <glyph glyph-name="Ccedilla" unicode="&#xc7;" horiz-adv-x="1370" 
d="M981 1450q277 0 469 -129l-61 -242h-11q-56 96 -155 149.5t-224 53.5q-171 0 -309 -88t-212.5 -230.5t-74.5 -306.5q0 -151 62 -261.5t167.5 -166t239.5 -55.5q198 0 383 131l7 -143q-195 -189 -476 -189h-30l-41 -69l2 -2q12 4 28 4q52 0 90.5 -38t38.5 -101
q0 -84 -66 -136.5t-167 -52.5q-131 0 -215 90l35 78q73 -53 151 -53q51 0 83 20t32 54q0 27 -23.5 43t-60.5 16q-36 0 -74 -19l-6 3l103 174q-229 41 -377 214.5t-148 422.5q0 134 40.5 259t117 228t178.5 180t232 119.5t272 42.5z" />
    <glyph glyph-name="Egrave" unicode="&#xc8;" horiz-adv-x="1277" 
d="M926 1841l73 -301h-133l-180 297v4h240zM1122 289h11l-72 -289h-1041v10q38 35 65 86t40 91.5t35 125.5l198 795q54 213 13 305v10h1022l-66 -262h-10q-28 54 -97 76.5t-200 22.5h-377l-115 -459h252q123 0 192 17t111 56h13l-78 -313h-12q-22 40 -80.5 58t-173.5 18
h-265l-118 -473h405q129 0 211.5 28.5t136.5 96.5z" />
    <glyph glyph-name="Eacute" unicode="&#xc9;" horiz-adv-x="1277" 
d="M946 1540h-153l200 301h271v-4zM1122 289h11l-72 -289h-1041v10q38 35 65 86t40 91.5t35 125.5l198 795q54 213 13 305v10h1022l-66 -262h-10q-28 54 -97 76.5t-200 22.5h-377l-115 -459h252q123 0 192 17t111 56h13l-78 -313h-12q-22 40 -80.5 58t-173.5 18h-265
l-118 -473h405q129 0 211.5 28.5t136.5 96.5z" />
    <glyph glyph-name="Ecircumflex" unicode="&#xca;" horiz-adv-x="1277" 
d="M752 1540h-191l354 301h156l176 -301h-157l-123 152zM1122 289h11l-72 -289h-1041v10q38 35 65 86t40 91.5t35 125.5l198 795q54 213 13 305v10h1022l-66 -262h-10q-28 54 -97 76.5t-200 22.5h-377l-115 -459h252q123 0 192 17t111 56h13l-78 -313h-12q-22 40 -80.5 58
t-173.5 18h-265l-118 -473h405q129 0 211.5 28.5t136.5 96.5z" />
    <glyph glyph-name="Edieresis" unicode="&#xcb;" horiz-adv-x="1277" 
d="M725 1559q-55 0 -90 36t-35 91q0 66 45.5 110.5t114.5 44.5q54 0 88.5 -35.5t34.5 -89.5q0 -67 -45 -112t-113 -45zM1133 1559q-55 0 -90 36t-35 91q0 66 45.5 110.5t113.5 44.5q55 0 90 -35.5t35 -89.5q0 -67 -45.5 -112t-113.5 -45zM1122 289h11l-72 -289h-1041v10
q38 35 65 86t40 91.5t35 125.5l198 795q54 213 13 305v10h1022l-66 -262h-10q-28 54 -97 76.5t-200 22.5h-377l-115 -459h252q123 0 192 17t111 56h13l-78 -313h-12q-22 40 -80.5 58t-173.5 18h-265l-118 -473h405q129 0 211.5 28.5t136.5 96.5z" />
    <glyph glyph-name="Igrave" unicode="&#xcc;" horiz-adv-x="651" 
d="M596 1841l74 -301h-133l-181 297v4h240zM25 0v10q49 51 77.5 118.5t57.5 184.5l198 795q28 115 32 178.5t-19 126.5v10h370v-10q-51 -48 -79 -115t-58 -188l-198 -797q-52 -202 -11 -303v-10h-370z" />
    <glyph glyph-name="Iacute" unicode="&#xcd;" horiz-adv-x="651" 
d="M616 1540h-153l201 301h270v-4zM25 0v10q49 51 77.5 118.5t57.5 184.5l198 795q28 115 32 178.5t-19 126.5v10h370v-10q-51 -48 -79 -115t-58 -188l-198 -797q-52 -202 -11 -303v-10h-370z" />
    <glyph glyph-name="Icircumflex" unicode="&#xce;" horiz-adv-x="651" 
d="M422 1540h-191l355 301h155l177 -301h-158l-123 152zM25 0v10q49 51 77.5 118.5t57.5 184.5l198 795q28 115 32 178.5t-19 126.5v10h370v-10q-51 -48 -79 -115t-58 -188l-198 -797q-52 -202 -11 -303v-10h-370z" />
    <glyph glyph-name="Idieresis" unicode="&#xcf;" horiz-adv-x="651" 
d="M393 1559q-55 0 -90 36t-35 91q0 66 45.5 110.5t114.5 44.5q54 0 88.5 -35.5t34.5 -89.5q0 -67 -45 -112t-113 -45zM801 1559q-55 0 -90 36t-35 91q0 66 46 110.5t114 44.5q55 0 90 -35.5t35 -89.5q0 -67 -46 -112t-114 -45zM25 0v10q49 51 77.5 118.5t57.5 184.5
l198 795q28 115 32 178.5t-19 126.5v10h370v-10q-51 -48 -79 -115t-58 -188l-198 -797q-52 -202 -11 -303v-10h-370z" />
    <glyph glyph-name="Eth" unicode="&#xd0;" horiz-adv-x="1566" 
d="M389 1423h475q197 0 351.5 -75.5t241.5 -213t87 -313.5q0 -174 -66.5 -326t-184 -261t-286.5 -171.5t-366 -62.5h-602v10q55 53 83 119.5t60 194.5l86 344h-182l37 147h180l74 295q27 108 31 174.5t-19 128.5v10zM387 160h207q160 0 291.5 54.5t217.5 148t132.5 215.5
t46.5 260q0 200 -121 313t-323 113h-176l-111 -449h301l-37 -147h-301z" />
    <glyph glyph-name="Ntilde" unicode="&#xd1;" horiz-adv-x="1566" 
d="M1182 1544q-82 0 -150 62l-37 30q-38 33 -75 33q-79 0 -107 -113h-129q20 129 83 199t153 70q72 0 149 -60l41 -34q36 -31 74 -31q74 0 106 115h129q-20 -131 -82.5 -201t-154.5 -70zM23 0v10q52 50 81.5 120.5t57.5 186.5l254 1020l-29 80v6h332l409 -1112h11l200 801
q18 72 25.5 123t5 97t-17.5 81v10h311v-10q-48 -51 -78.5 -121.5t-58.5 -183.5l-277 -1108h-245l-435 1161h-12l-209 -844q-28 -110 -32 -178.5t18 -128.5v-10h-311z" />
    <glyph glyph-name="Ograve" unicode="&#xd2;" horiz-adv-x="1617" 
d="M1028 1841l74 -301h-133l-181 297v4h240zM770 -27q-279 0 -455 173t-176 442q0 231 105 427.5t296 315.5t425 119q278 0 453 -172t175 -440q0 -173 -62 -331t-169 -276t-262 -188t-330 -70zM778 145q123 0 229 64t175.5 166.5t109 227.5t39.5 251q0 195 -100.5 310.5
t-276.5 115.5q-98 0 -187 -42t-155 -113t-114.5 -162.5t-73.5 -192t-25 -199.5q0 -198 100.5 -312t278.5 -114z" />
    <glyph glyph-name="Oacute" unicode="&#xd3;" horiz-adv-x="1617" 
d="M1049 1540h-154l201 301h270v-4zM770 -27q-279 0 -455 173t-176 442q0 231 105 427.5t296 315.5t425 119q278 0 453 -172t175 -440q0 -173 -62 -331t-169 -276t-262 -188t-330 -70zM778 145q123 0 229 64t175.5 166.5t109 227.5t39.5 251q0 195 -100.5 310.5
t-276.5 115.5q-98 0 -187 -42t-155 -113t-114.5 -162.5t-73.5 -192t-25 -199.5q0 -198 100.5 -312t278.5 -114z" />
    <glyph glyph-name="Ocircumflex" unicode="&#xd4;" horiz-adv-x="1617" 
d="M854 1540h-190l354 301h156l176 -301h-158l-123 152zM770 -27q-279 0 -455 173t-176 442q0 231 105 427.5t296 315.5t425 119q278 0 453 -172t175 -440q0 -173 -62 -331t-169 -276t-262 -188t-330 -70zM778 145q123 0 229 64t175.5 166.5t109 227.5t39.5 251
q0 195 -100.5 310.5t-276.5 115.5q-98 0 -187 -42t-155 -113t-114.5 -162.5t-73.5 -192t-25 -199.5q0 -198 100.5 -312t278.5 -114z" />
    <glyph glyph-name="Otilde" unicode="&#xd5;" horiz-adv-x="1617" 
d="M1176 1544q-82 0 -150 62l-37 30q-38 33 -76 33q-78 0 -106 -113h-129q20 129 82.5 199t152.5 70q73 0 150 -60l41 -34q36 -31 74 -31q74 0 106 115h129q-20 -131 -82.5 -201t-154.5 -70zM770 -27q-279 0 -455 173t-176 442q0 231 105 427.5t296 315.5t425 119
q278 0 453 -172t175 -440q0 -173 -62 -331t-169 -276t-262 -188t-330 -70zM778 145q123 0 229 64t175.5 166.5t109 227.5t39.5 251q0 195 -100.5 310.5t-276.5 115.5q-98 0 -187 -42t-155 -113t-114.5 -162.5t-73.5 -192t-25 -199.5q0 -198 100.5 -312t278.5 -114z" />
    <glyph glyph-name="Odieresis" unicode="&#xd6;" horiz-adv-x="1617" 
d="M825 1559q-55 0 -90 36t-35 91q0 66 45.5 110.5t114.5 44.5q54 0 88.5 -35.5t34.5 -89.5q0 -67 -45 -112t-113 -45zM1233 1559q-55 0 -90 36t-35 91q0 66 46 110.5t114 44.5q55 0 90 -35.5t35 -89.5q0 -67 -46 -112t-114 -45zM770 -27q-279 0 -455 173t-176 442
q0 231 105 427.5t296 315.5t425 119q278 0 453 -172t175 -440q0 -173 -62 -331t-169 -276t-262 -188t-330 -70zM778 145q123 0 229 64t175.5 166.5t109 227.5t39.5 251q0 195 -100.5 310.5t-276.5 115.5q-98 0 -187 -42t-155 -113t-114.5 -162.5t-73.5 -192t-25 -199.5
q0 -198 100.5 -312t278.5 -114z" />
    <glyph glyph-name="multiply" unicode="&#xd7;" horiz-adv-x="1132" 
d="M680 487l319 -321l-114 -113l-320 320l-319 -320l-113 113l320 321l-318 320l115 111l317 -318l316 318l114 -113z" />
    <glyph glyph-name="Oslash" unicode="&#xd8;" horiz-adv-x="1617" 
d="M1569 1509l98 -94l-197 -196q123 -161 123 -381q0 -173 -61.5 -331t-168.5 -276t-261.5 -188t-329.5 -70q-241 0 -414 133l-192 -192l-96 96l194 195q-125 159 -125 383q0 231 105 427.5t296 315.5t425 119q238 0 411 -133zM401 571q0 -114 33 -196l795 794
q-105 111 -275 111q-98 0 -187 -42t-154.5 -113t-114 -162.5t-73 -192t-24.5 -199.5zM1333 854q0 113 -33 195l-794 -795q103 -109 272 -109q99 0 188 41.5t154.5 112.5t114.5 162t73.5 192t24.5 201z" />
    <glyph glyph-name="Ugrave" unicode="&#xd9;" horiz-adv-x="1529" 
d="M1044 1841l74 -301h-133l-180 297v4h239zM694 -27q-182 0 -307.5 79t-173 226t-0.5 338l125 498q26 106 29.5 172t-19.5 127v10h373v-10q-51 -49 -80.5 -117t-56.5 -180l-133 -534q-46 -187 27.5 -298.5t252.5 -111.5q172 0 286.5 105.5t162.5 300.5l133 532
q52 207 16 303v10h311v-10q-51 -48 -79.5 -116.5t-59.5 -188.5l-135 -547q-148 -588 -672 -588z" />
    <glyph glyph-name="Uacute" unicode="&#xda;" horiz-adv-x="1529" 
d="M1065 1540h-154l201 301h270v-4zM694 -27q-182 0 -307.5 79t-173 226t-0.5 338l125 498q26 106 29.5 172t-19.5 127v10h373v-10q-51 -49 -80.5 -117t-56.5 -180l-133 -534q-46 -187 27.5 -298.5t252.5 -111.5q172 0 286.5 105.5t162.5 300.5l133 532q52 207 16 303v10
h311v-10q-51 -48 -79.5 -116.5t-59.5 -188.5l-135 -547q-148 -588 -672 -588z" />
    <glyph glyph-name="Ucircumflex" unicode="&#xdb;" horiz-adv-x="1529" 
d="M870 1540h-190l354 301h156l176 -301h-158l-123 152zM694 -27q-182 0 -307.5 79t-173 226t-0.5 338l125 498q26 106 29.5 172t-19.5 127v10h373v-10q-51 -49 -80.5 -117t-56.5 -180l-133 -534q-46 -187 27.5 -298.5t252.5 -111.5q172 0 286.5 105.5t162.5 300.5l133 532
q52 207 16 303v10h311v-10q-51 -48 -79.5 -116.5t-59.5 -188.5l-135 -547q-148 -588 -672 -588z" />
    <glyph glyph-name="Udieresis" unicode="&#xdc;" horiz-adv-x="1529" 
d="M842 1559q-55 0 -90 36t-35 91q0 66 45.5 110.5t114.5 44.5q54 0 88 -35.5t34 -89.5q0 -68 -44.5 -112.5t-112.5 -44.5zM1249 1559q-55 0 -90 36t-35 91q0 66 46 110.5t114 44.5q55 0 90 -35.5t35 -89.5q0 -67 -46 -112t-114 -45zM694 -27q-182 0 -307.5 79t-173 226
t-0.5 338l125 498q26 106 29.5 172t-19.5 127v10h373v-10q-51 -49 -80.5 -117t-56.5 -180l-133 -534q-46 -187 27.5 -298.5t252.5 -111.5q172 0 286.5 105.5t162.5 300.5l133 532q52 207 16 303v10h311v-10q-51 -48 -79.5 -116.5t-59.5 -188.5l-135 -547
q-148 -588 -672 -588z" />
    <glyph glyph-name="Yacute" unicode="&#xdd;" horiz-adv-x="1366" 
d="M1278 1841v-4l-317 -297h-154l201 301h270zM1245 1417v6h348v-10q-82 -58 -150.5 -127.5t-152.5 -171.5l-469 -553l-63 -254q-50 -191 -10 -297v-10h-371v10q49 47 79 118t58 183l66 260l-187 547q-39 110 -69.5 176t-75.5 119v10h391v-10q-62 -101 6 -299l119 -354h12
l295 358q87 106 130.5 175t43.5 124z" />
    <glyph glyph-name="Thorn" unicode="&#xde;" horiz-adv-x="1241" 
d="M614 1145h125q219 0 353.5 -105t134.5 -278q0 -152 -82.5 -262.5t-222.5 -164.5t-320 -54h-203q-22 -94 -23 -157.5t19 -115.5v-8h-370v8q50 52 78 119.5t57 189.5l198 791q28 115 32 178.5t-19 126.5v10h370v-10q-47 -46 -74 -106.5t-53 -161.5zM438 438h150
q185 0 287 85t102 241q0 110 -71 165.5t-197 55.5h-136z" />
    <glyph glyph-name="germandbls" unicode="&#xdf;" horiz-adv-x="1169" 
d="M588 -27q-119 0 -213 58l37 121q67 -29 127 -29q133 0 214 89.5t81 225.5q0 115 -71.5 178.5t-197.5 71.5l35 146q156 6 248 94t92 225q0 85 -45.5 134.5t-124.5 49.5q-173 0 -229 -221l-279 -1116h-268v10q37 40 55.5 86t42.5 144l211 841q46 186 162.5 294t316.5 108
q169 0 276 -96.5t107 -239.5q0 -146 -102 -248.5t-268 -140.5v-10q120 -32 196 -123t76 -215q0 -130 -66.5 -231t-175 -153.5t-237.5 -52.5z" />
    <glyph glyph-name="agrave" unicode="&#xe0;" horiz-adv-x="1177" 
d="M711 1434l75 -301h-133l-180 297v4h238zM408 -27q-144 0 -240 115t-96 299q0 116 40.5 227t110 195.5t168.5 136t209 51.5q101 0 177.5 -45t117.5 -123h10l84 142h156l-174 -692q-23 -91 -25.5 -144.5t12.5 -95.5v-12l-278 -31h-6l33 129h-11q-51 -69 -124 -110.5
t-164 -41.5zM494 141q70 0 131 46t98.5 110.5t56.5 138.5l33 129q32 129 -22.5 209t-153.5 80q-97 0 -176 -68.5t-119.5 -169.5t-40.5 -208q0 -122 52 -194.5t141 -72.5z" />
    <glyph glyph-name="aacute" unicode="&#xe1;" horiz-adv-x="1177" 
d="M727 1133h-154l201 301h270v-4zM408 -27q-144 0 -240 115t-96 299q0 116 40.5 227t110 195.5t168.5 136t209 51.5q101 0 177.5 -45t117.5 -123h10l84 142h156l-174 -692q-23 -91 -25.5 -144.5t12.5 -95.5v-12l-278 -31h-6l33 129h-11q-51 -69 -124 -110.5t-164 -41.5z
M494 141q70 0 131 46t98.5 110.5t56.5 138.5l33 129q32 129 -22.5 209t-153.5 80q-97 0 -176 -68.5t-119.5 -169.5t-40.5 -208q0 -122 52 -194.5t141 -72.5z" />
    <glyph glyph-name="acircumflex" unicode="&#xe2;" horiz-adv-x="1177" 
d="M522 1133h-190l354 301h154l178 -301h-158l-123 149zM408 -27q-144 0 -240 115t-96 299q0 116 40.5 227t110 195.5t168.5 136t209 51.5q101 0 177.5 -45t117.5 -123h10l84 142h156l-174 -692q-23 -91 -25.5 -144.5t12.5 -95.5v-12l-278 -31h-6l33 129h-11
q-51 -69 -124 -110.5t-164 -41.5zM494 141q70 0 131 46t98.5 110.5t56.5 138.5l33 129q32 129 -22.5 209t-153.5 80q-97 0 -176 -68.5t-119.5 -169.5t-40.5 -208q0 -122 52 -194.5t141 -72.5z" />
    <glyph glyph-name="atilde" unicode="&#xe3;" horiz-adv-x="1177" 
d="M856 1128q-78 0 -147 62l-39 33q-35 30 -76 30q-76 0 -107 -112h-129q22 129 84 199.5t152 70.5q75 0 149 -61l41 -33q38 -31 74 -31q38 0 64 26.5t43 86.5h129q-20 -129 -83 -200t-155 -71zM408 -27q-144 0 -240 115t-96 299q0 116 40.5 227t110 195.5t168.5 136
t209 51.5q101 0 177.5 -45t117.5 -123h10l84 142h156l-174 -692q-23 -91 -25.5 -144.5t12.5 -95.5v-12l-278 -31h-6l33 129h-11q-51 -69 -124 -110.5t-164 -41.5zM494 141q70 0 131 46t98.5 110.5t56.5 138.5l33 129q32 129 -22.5 209t-153.5 80q-97 0 -176 -68.5
t-119.5 -169.5t-40.5 -208q0 -122 52 -194.5t141 -72.5z" />
    <glyph glyph-name="adieresis" unicode="&#xe4;" horiz-adv-x="1177" 
d="M514 1143q-55 0 -90 36t-35 91q0 66 46 110.5t114 44.5q55 0 90 -35.5t35 -89.5q0 -67 -46 -112t-114 -45zM924 1143q-55 0 -91 36.5t-36 90.5q0 66 46 110.5t115 44.5q54 0 88.5 -35.5t34.5 -89.5q0 -68 -44.5 -112.5t-112.5 -44.5zM408 -27q-144 0 -240 115t-96 299
q0 116 40.5 227t110 195.5t168.5 136t209 51.5q101 0 177.5 -45t117.5 -123h10l84 142h156l-174 -692q-23 -91 -25.5 -144.5t12.5 -95.5v-12l-278 -31h-6l33 129h-11q-51 -69 -124 -110.5t-164 -41.5zM494 141q70 0 131 46t98.5 110.5t56.5 138.5l33 129q32 129 -22.5 209
t-153.5 80q-97 0 -176 -68.5t-119.5 -169.5t-40.5 -208q0 -122 52 -194.5t141 -72.5z" />
    <glyph glyph-name="aring" unicode="&#xe5;" horiz-adv-x="1177" 
d="M723 1083q-92 0 -157.5 63t-65.5 152t65.5 152t157.5 63q93 0 158 -62.5t65 -152.5t-65 -152.5t-158 -62.5zM723 1202q39 0 66.5 27t27.5 69q0 41 -27.5 69t-66.5 28q-40 0 -66 -28t-26 -69q0 -42 26 -69t66 -27zM408 -27q-144 0 -240 115t-96 299q0 116 40.5 227
t110 195.5t168.5 136t209 51.5q101 0 177.5 -45t117.5 -123h10l84 142h156l-174 -692q-23 -91 -25.5 -144.5t12.5 -95.5v-12l-278 -31h-6l33 129h-11q-51 -69 -124 -110.5t-164 -41.5zM494 141q70 0 131 46t98.5 110.5t56.5 138.5l33 129q32 129 -22.5 209t-153.5 80
q-97 0 -176 -68.5t-119.5 -169.5t-40.5 -208q0 -122 52 -194.5t141 -72.5z" />
    <glyph glyph-name="ae" unicode="&#xe6;" horiz-adv-x="1583" 
d="M1165 997q186 0 282 -125.5t58 -314.5l-12 -53h-629q-2 -12 -2 -37q0 -152 77.5 -230.5t207.5 -78.5q152 0 283 92l4 -127q-150 -150 -359 -150q-129 0 -233 63.5t-162 180.5h-10q-60 -114 -160.5 -180t-224.5 -66q-114 0 -185 67.5t-71 174.5q0 122 95.5 192.5
t278.5 108.5l236 47l14 57q25 100 -26 154.5t-150 54.5q-143 0 -293 -88v127q75 58 170.5 94.5t188.5 36.5q190 0 278 -131h13q137 131 331 131zM887 635h418q18 97 -25.5 161t-132.5 64q-92 0 -159 -61.5t-101 -163.5zM354 139q47 0 92.5 23.5t88 82.5t63.5 146l12 49
l-153 -41q-101 -25 -153 -59t-52 -96q0 -50 28 -77.5t74 -27.5z" />
    <glyph glyph-name="ccedilla" unicode="&#xe7;" horiz-adv-x="968" 
d="M666 997q174 0 307 -77l-47 -195h-13q-30 58 -92.5 90.5t-138.5 32.5q-163 0 -270 -112.5t-107 -282.5q0 -140 77 -217.5t208 -77.5q135 0 250 75l4 -122q-67 -67 -152.5 -102.5t-177.5 -35.5h-27l-41 -69l3 -2q12 4 28 4q52 0 90.5 -38t38.5 -101q0 -84 -66 -136.5
t-167 -52.5q-131 0 -215 90l35 78q73 -53 151 -53q51 0 83 20t32 54q0 27 -23.5 43t-60.5 16q-36 0 -74 -19l-6 3l104 176q-149 37 -236 155.5t-87 280.5q0 157 73.5 288t209.5 209t307 78z" />
    <glyph glyph-name="egrave" unicode="&#xe8;" horiz-adv-x="1021" 
d="M659 1434l76 -301h-133l-180 297v4h237zM602 997q189 0 284.5 -125.5t55.5 -314.5l-12 -53h-629q-2 -12 -2 -37q0 -153 78.5 -231t210.5 -78q142 0 278 92l4 -127q-150 -150 -356 -150q-187 0 -311.5 124t-124.5 331q0 109 38 211.5t104.5 182t166.5 127.5t215 48z
M584 860q-93 0 -159 -62t-99 -163h417q14 101 -27.5 163t-131.5 62z" />
    <glyph glyph-name="eacute" unicode="&#xe9;" horiz-adv-x="1021" 
d="M524 1133l201 301h270v-4l-317 -297h-154zM602 997q189 0 284.5 -125.5t55.5 -314.5l-12 -53h-629q-2 -12 -2 -37q0 -153 78.5 -231t210.5 -78q142 0 278 92l4 -127q-150 -150 -356 -150q-187 0 -311.5 124t-124.5 331q0 109 38 211.5t104.5 182t166.5 127.5t215 48z
M584 860q-93 0 -159 -62t-99 -163h417q14 101 -27.5 163t-131.5 62z" />
    <glyph glyph-name="ecircumflex" unicode="&#xea;" horiz-adv-x="1021" 
d="M809 1133l-123 149l-215 -149h-190l354 301h153l179 -301h-158zM602 997q189 0 284.5 -125.5t55.5 -314.5l-12 -53h-629q-2 -12 -2 -37q0 -153 78.5 -231t210.5 -78q142 0 278 92l4 -127q-150 -150 -356 -150q-187 0 -311.5 124t-124.5 331q0 109 38 211.5t104.5 182
t166.5 127.5t215 48zM584 860q-93 0 -159 -62t-99 -163h417q14 101 -27.5 163t-131.5 62z" />
    <glyph glyph-name="edieresis" unicode="&#xeb;" horiz-adv-x="1021" 
d="M463 1143q-55 0 -90 36t-35 91q0 66 46 110.5t114 44.5q55 0 90 -35.5t35 -89.5q0 -67 -46 -112t-114 -45zM907 1425q54 0 88.5 -35.5t34.5 -89.5q0 -67 -45 -112t-113 -45q-55 0 -91 36.5t-36 90.5q0 66 46.5 110.5t115.5 44.5zM602 997q189 0 284.5 -125.5t55.5 -314.5
l-12 -53h-629q-2 -12 -2 -37q0 -153 78.5 -231t210.5 -78q142 0 278 92l4 -127q-150 -150 -356 -150q-187 0 -311.5 124t-124.5 331q0 109 38 211.5t104.5 182t166.5 127.5t215 48zM584 860q-93 0 -159 -62t-99 -163h417q14 101 -27.5 163t-131.5 62z" />
    <glyph glyph-name="igrave" unicode="&#xec;" horiz-adv-x="546" 
d="M446 1434l76 -301h-133l-180 297v4h237zM516 977l-186 -744q-37 -150 -11 -223v-10h-315v10q35 38 54 85t42 138l121 486q18 73 19 121.5t-17 95.5v10l287 31h6z" />
    <glyph glyph-name="iacute" unicode="&#xed;" horiz-adv-x="546" 
d="M465 1133h-154l201 301h270v-4zM516 977l-186 -744q-37 -150 -11 -223v-10h-315v10q35 38 54 85t42 138l121 486q18 73 19 121.5t-17 95.5v10l287 31h6z" />
    <glyph glyph-name="icircumflex" unicode="&#xee;" horiz-adv-x="546" 
d="M260 1133h-190l354 301h154l178 -301h-158l-123 149zM516 977l-186 -744q-37 -150 -11 -223v-10h-315v10q35 38 54 85t42 138l121 486q18 73 19 121.5t-17 95.5v10l287 31h6z" />
    <glyph glyph-name="idieresis" unicode="&#xef;" horiz-adv-x="546" 
d="M250 1143q-55 0 -90 36t-35 91q0 66 46 110.5t114 44.5q55 0 90 -35.5t35 -89.5q0 -67 -46 -112t-114 -45zM659 1143q-55 0 -91 36.5t-36 90.5q0 66 46.5 110.5t115.5 44.5q54 0 88.5 -35.5t34.5 -89.5q0 -67 -45 -112t-113 -45zM516 977l-186 -744q-37 -150 -11 -223
v-10h-315v10q35 38 54 85t42 138l121 486q18 73 19 121.5t-17 95.5v10l287 31h6z" />
    <glyph glyph-name="eth" unicode="&#xf0;" horiz-adv-x="1193" 
d="M1102 1438l49 -111l-162 -72q156 -188 156 -460q0 -114 -28 -230.5t-83.5 -222.5t-131 -188.5t-178.5 -131.5t-218 -49q-185 0 -306.5 127t-121.5 322q0 156 67.5 288t187 209.5t263.5 77.5q121 0 211.5 -67.5t126.5 -175.5h10q32 258 -104 438l-326 -143l-49 114
l285 123q-80 66 -193 121l105 74q129 -49 233 -131zM842 489l6 29q13 77 0 139.5t-45.5 100.5t-74.5 58t-89 20q-99 0 -177.5 -66.5t-118.5 -168t-40 -214.5q0 -120 56.5 -194t152.5 -74q69 0 128 34t99 89.5t66 118t37 128.5z" />
    <glyph glyph-name="ntilde" unicode="&#xf1;" horiz-adv-x="1140" 
d="M895 1128q-78 0 -147 62l-39 33q-35 30 -76 30q-76 0 -107 -112h-129q22 129 84 199.5t152 70.5q75 0 149 -61l41 -33q38 -31 74 -31q38 0 64 26.5t43 86.5h129q-20 -129 -83 -200t-155 -71zM100 229l117 476q22 84 23.5 135t-17.5 96v10l285 31h6l-33 -129h11
q121 149 282 149q89 0 156 -50.5t95.5 -146.5t-5.5 -235l-82 -334q-20 -84 -22.5 -131t12.5 -90v-10h-316v10q37 41 55.5 85t41.5 136l94 375q26 104 -10.5 162.5t-110.5 58.5q-88 0 -164.5 -68.5t-109.5 -205.5l-80 -317q-35 -139 -11 -226v-10h-315v10q36 39 55.5 84
t42.5 135z" />
    <glyph glyph-name="ograve" unicode="&#xf2;" horiz-adv-x="1150" 
d="M723 1434l76 -301h-133l-181 297v4h238zM508 -27q-192 0 -313 120t-121 306q0 165 73.5 302t205.5 216.5t294 79.5q194 0 314 -119t120 -305q0 -166 -73.5 -303t-205 -217t-294.5 -80zM510 129q76 0 140.5 42.5t106 110t64.5 149.5t23 165q0 115 -53.5 180.5t-147.5 65.5
q-76 0 -140.5 -42t-105.5 -110t-63.5 -149.5t-22.5 -163.5q0 -117 52.5 -182.5t146.5 -65.5z" />
    <glyph glyph-name="oacute" unicode="&#xf3;" horiz-adv-x="1150" 
d="M739 1133h-153l200 301h271v-4zM508 -27q-192 0 -313 120t-121 306q0 165 73.5 302t205.5 216.5t294 79.5q194 0 314 -119t120 -305q0 -166 -73.5 -303t-205 -217t-294.5 -80zM510 129q76 0 140.5 42.5t106 110t64.5 149.5t23 165q0 115 -53.5 180.5t-147.5 65.5
q-76 0 -140.5 -42t-105.5 -110t-63.5 -149.5t-22.5 -163.5q0 -117 52.5 -182.5t146.5 -65.5z" />
    <glyph glyph-name="ocircumflex" unicode="&#xf4;" horiz-adv-x="1150" 
d="M535 1133h-191l354 301h154l178 -301h-158l-122 149zM508 -27q-192 0 -313 120t-121 306q0 165 73.5 302t205.5 216.5t294 79.5q194 0 314 -119t120 -305q0 -166 -73.5 -303t-205 -217t-294.5 -80zM510 129q76 0 140.5 42.5t106 110t64.5 149.5t23 165q0 115 -53.5 180.5
t-147.5 65.5q-76 0 -140.5 -42t-105.5 -110t-63.5 -149.5t-22.5 -163.5q0 -117 52.5 -182.5t146.5 -65.5z" />
    <glyph glyph-name="otilde" unicode="&#xf5;" horiz-adv-x="1150" 
d="M868 1128q-78 0 -147 62l-39 33q-35 30 -76 30q-75 0 -106 -112h-129q22 130 83.5 200t151.5 70q76 0 150 -61l41 -33q38 -31 73 -31q38 0 64 26.5t43 86.5h129q-20 -129 -83 -200t-155 -71zM508 -27q-192 0 -313 120t-121 306q0 165 73.5 302t205.5 216.5t294 79.5
q194 0 314 -119t120 -305q0 -166 -73.5 -303t-205 -217t-294.5 -80zM510 129q76 0 140.5 42.5t106 110t64.5 149.5t23 165q0 115 -53.5 180.5t-147.5 65.5q-76 0 -140.5 -42t-105.5 -110t-63.5 -149.5t-22.5 -163.5q0 -117 52.5 -182.5t146.5 -65.5z" />
    <glyph glyph-name="odieresis" unicode="&#xf6;" horiz-adv-x="1150" 
d="M526 1143q-55 0 -90 36t-35 91q0 66 46 110.5t114 44.5q55 0 90 -35.5t35 -89.5q0 -67 -46 -112t-114 -45zM936 1143q-55 0 -91 36.5t-36 90.5q0 66 46.5 110.5t115.5 44.5q54 0 88.5 -35.5t34.5 -89.5q0 -67 -45 -112t-113 -45zM508 -27q-192 0 -313 120t-121 306
q0 165 73.5 302t205.5 216.5t294 79.5q194 0 314 -119t120 -305q0 -166 -73.5 -303t-205 -217t-294.5 -80zM510 129q76 0 140.5 42.5t106 110t64.5 149.5t23 165q0 115 -53.5 180.5t-147.5 65.5q-76 0 -140.5 -42t-105.5 -110t-63.5 -149.5t-22.5 -163.5q0 -117 52.5 -182.5
t146.5 -65.5z" />
    <glyph glyph-name="divide" unicode="&#xf7;" horiz-adv-x="1189" 
d="M594 713q-56 0 -93.5 38t-37.5 95q0 56 38 94.5t93 38.5q57 0 95 -38.5t38 -94.5q0 -57 -38 -95t-95 -38zM1075 406h-956v159h956v-159zM594 -6q-55 0 -93 39t-38 96q0 55 37.5 93t93.5 38q57 0 95 -37.5t38 -93.5q0 -57 -38 -96t-95 -39z" />
    <glyph glyph-name="oslash" unicode="&#xf8;" horiz-adv-x="1153" 
d="M1038 1036l90 -88l-122 -123q75 -107 75 -252q0 -166 -73.5 -303t-205 -217t-294.5 -80q-152 0 -268 82l-125 -125l-88 90l125 125q-76 109 -76 254q0 165 73.5 302t205 216.5t294.5 79.5q153 0 269 -82zM313 377q0 -24 4 -64l469 469q-54 60 -141 60q-76 0 -140.5 -42
t-105.5 -110t-63.5 -149.5t-22.5 -163.5zM844 596q0 25 -4 61l-469 -469q50 -59 141 -59q75 0 139.5 42.5t105.5 110t64 149.5t23 165z" />
    <glyph glyph-name="ugrave" unicode="&#xf9;" horiz-adv-x="1116" 
d="M713 1434l75 -301h-133l-180 297v4h238zM354 -27q-135 0 -208 112.5t-29 291.5l84 334q20 79 21.5 127.5t-17.5 95.5v12l284 31h5l-156 -639q-24 -93 7.5 -143t105.5 -50q82 0 156.5 73t109.5 214l71 281q13 52 18 87t2 70.5t-17 63.5v12l286 31h6l-176 -709
q-15 -59 -21 -96.5t-5 -71.5t12 -61v-12l-279 -31h-6l33 129h-10q-120 -152 -277 -152z" />
    <glyph glyph-name="uacute" unicode="&#xfa;" horiz-adv-x="1116" 
d="M731 1133h-153l200 301h271v-4zM354 -27q-135 0 -208 112.5t-29 291.5l84 334q20 79 21.5 127.5t-17.5 95.5v12l284 31h5l-156 -639q-24 -93 7.5 -143t105.5 -50q82 0 156.5 73t109.5 214l71 281q13 52 18 87t2 70.5t-17 63.5v12l286 31h6l-176 -709q-15 -59 -21 -96.5
t-5 -71.5t12 -61v-12l-279 -31h-6l33 129h-10q-120 -152 -277 -152z" />
    <glyph glyph-name="ucircumflex" unicode="&#xfb;" horiz-adv-x="1116" 
d="M526 1133h-190l354 301h154l178 -301h-158l-123 149zM354 -27q-135 0 -208 112.5t-29 291.5l84 334q20 79 21.5 127.5t-17.5 95.5v12l284 31h5l-156 -639q-24 -93 7.5 -143t105.5 -50q82 0 156.5 73t109.5 214l71 281q13 52 18 87t2 70.5t-17 63.5v12l286 31h6l-176 -709
q-15 -59 -21 -96.5t-5 -71.5t12 -61v-12l-279 -31h-6l33 129h-10q-120 -152 -277 -152z" />
    <glyph glyph-name="udieresis" unicode="&#xfc;" horiz-adv-x="1116" 
d="M518 1143q-55 0 -90 36t-35 91q0 66 46 110.5t114 44.5q55 0 90 -35.5t35 -89.5q0 -67 -46 -112t-114 -45zM928 1143q-55 0 -91 36.5t-36 90.5q0 66 46.5 110.5t115.5 44.5q54 0 88 -35.5t34 -89.5q0 -68 -44.5 -112.5t-112.5 -44.5zM354 -27q-135 0 -208 112.5
t-29 291.5l84 334q20 79 21.5 127.5t-17.5 95.5v12l284 31h5l-156 -639q-24 -93 7.5 -143t105.5 -50q82 0 156.5 73t109.5 214l71 281q13 52 18 87t2 70.5t-17 63.5v12l286 31h6l-176 -709q-15 -59 -21 -96.5t-5 -71.5t12 -61v-12l-279 -31h-6l33 129h-10
q-120 -152 -277 -152z" />
    <glyph glyph-name="yacute" unicode="&#xfd;" horiz-adv-x="1028" 
d="M1004 1434v-4l-318 -297h-154l201 301h271zM846 961v10h284v-10q-54 -47 -89.5 -95.5t-94.5 -146.5l-524 -862q-97 -162 -192.5 -228.5t-215.5 -66.5q-101 0 -168 45l43 176q69 -27 138 -27q80 0 147.5 39t126.5 139l35 58l-131 731q-14 78 -31.5 126.5t-52.5 88.5v10
l274 33l2 -16q17 -133 39 -271l64 -409h8l264 446q90 150 74 230z" />
    <glyph glyph-name="thorn" unicode="&#xfe;" horiz-adv-x="1181" 
d="M-6 -170l338 1358q21 83 23.5 132.5t-13.5 96.5v13l283 30h6l-154 -614h10q114 151 293 151q144 0 243 -111t99 -298q0 -161 -70 -302t-193.5 -227t-270.5 -86q-98 0 -172 42.5t-109 109.5h-10l-74 -295q-23 -92 -24.5 -139.5t20.5 -89.5v-11h-323v11q36 37 55 84.5
t43 144.5zM551 119q100 0 180 68.5t121 170.5t41 211q0 121 -54 190.5t-147 69.5q-108 0 -185 -86.5t-104 -203.5l-34 -136q-32 -131 24 -207.5t158 -76.5z" />
    <glyph glyph-name="ydieresis" unicode="&#xff;" horiz-adv-x="1028" 
d="M473 1143q-55 0 -90 36t-35 91q0 66 46 110.5t114 44.5q55 0 90 -35.5t35 -89.5q0 -67 -46 -112t-114 -45zM883 1143q-55 0 -91 36.5t-36 90.5q0 66 46.5 110.5t115.5 44.5q54 0 88 -35.5t34 -89.5q0 -68 -45 -112.5t-112 -44.5zM846 961v10h284v-10q-54 -47 -89.5 -95.5
t-94.5 -146.5l-524 -862q-97 -162 -192.5 -228.5t-215.5 -66.5q-101 0 -168 45l43 176q69 -27 138 -27q80 0 147.5 39t126.5 139l35 58l-131 731q-14 78 -31.5 126.5t-52.5 88.5v10l274 33l2 -16q17 -133 39 -271l64 -409h8l264 446q90 150 74 230z" />
    <glyph glyph-name="Amacron" unicode="&#x100;" horiz-adv-x="1400" 
d="M659 1604l37 141h647l-34 -141h-650zM823 1423h209l168 -1108q17 -114 34 -181t48 -124v-10h-377v10q47 57 59 134t-3 167l-13 92h-563l-47 -77q-130 -209 -105 -316v-10h-342v10q68 58 123.5 132t128.5 194zM836 1130l-349 -563h439l-78 563h-12z" />
    <glyph glyph-name="amacron" unicode="&#x101;" horiz-adv-x="1177" 
d="M387 1188h649l35 139h-647zM408 -27q-144 0 -240 115t-96 299q0 116 40.5 227t110 195.5t168.5 136t209 51.5q101 0 177.5 -45t117.5 -123h10l84 142h156l-174 -692q-23 -91 -25.5 -144.5t12.5 -95.5v-12l-278 -31h-6l33 129h-11q-51 -69 -124 -110.5t-164 -41.5z
M494 141q70 0 131 46t98.5 110.5t56.5 138.5l33 129q32 129 -22.5 209t-153.5 80q-97 0 -176 -68.5t-119.5 -169.5t-40.5 -208q0 -122 52 -194.5t141 -72.5z" />
    <glyph glyph-name="Abreve" unicode="&#x102;" horiz-adv-x="1400" 
d="M969 1540q-127 0 -191 81t-37 220h129q-14 -69 14.5 -110t96.5 -41q130 0 190 151h140q-34 -143 -123.5 -222t-218.5 -79zM823 1423h209l168 -1108q17 -114 34 -181t48 -124v-10h-377v10q47 57 59 134t-3 167l-13 92h-563l-47 -77q-130 -209 -105 -316v-10h-342v10
q68 58 123.5 132t128.5 194zM836 1130l-349 -563h439l-78 563h-12z" />
    <glyph glyph-name="abreve" unicode="&#x103;" horiz-adv-x="1177" 
d="M705 1133q-125 0 -189.5 81t-38.5 220h131q-15 -69 14 -111.5t95 -42.5q131 0 192 154h138q-32 -142 -122.5 -221.5t-219.5 -79.5zM408 -27q-144 0 -240 115t-96 299q0 116 40.5 227t110 195.5t168.5 136t209 51.5q101 0 177.5 -45t117.5 -123h10l84 142h156l-174 -692
q-23 -91 -25.5 -144.5t12.5 -95.5v-12l-278 -31h-6l33 129h-11q-51 -69 -124 -110.5t-164 -41.5zM494 141q70 0 131 46t98.5 110.5t56.5 138.5l33 129q32 129 -22.5 209t-153.5 80q-97 0 -176 -68.5t-119.5 -169.5t-40.5 -208q0 -122 52 -194.5t141 -72.5z" />
    <glyph glyph-name="Aogonek" unicode="&#x104;" horiz-adv-x="1400" 
d="M1032 1423l168 -1108q17 -114 34 -181t48 -124v-10h-51q-258 -93 -258 -211q0 -39 25.5 -63.5t70.5 -24.5q49 0 107 33l4 -96q-71 -58 -162 -58q-84 0 -138.5 52t-54.5 130q0 155 209 238h-129v10q47 57 59 134t-3 167l-13 92h-563l-47 -77q-130 -209 -105 -316v-10h-342
v10q68 58 123.5 132t128.5 194l680 1087h209zM836 1130l-349 -563h439l-78 563h-12z" />
    <glyph glyph-name="aogonek" unicode="&#x105;" horiz-adv-x="1177" 
d="M989 971h156l-174 -692q-23 -91 -25.5 -144.5t12.5 -95.5v-12l-133 -15l31 -12q-258 -93 -258 -211q0 -39 25.5 -63.5t70.5 -24.5q49 0 107 33l4 -96q-71 -58 -162 -58q-84 0 -138 51.5t-54 130.5q0 160 225 244l31 119h-11q-51 -69 -124 -110.5t-164 -41.5
q-144 0 -240 115t-96 299q0 116 40.5 227t110 195.5t168.5 136t209 51.5q101 0 177.5 -45t117.5 -123h10zM494 141q70 0 131 46t98.5 110.5t56.5 138.5l33 129q32 129 -22.5 209t-153.5 80q-97 0 -176 -68.5t-119.5 -169.5t-40.5 -208q0 -122 52 -194.5t141 -72.5z" />
    <glyph glyph-name="Cacute" unicode="&#x106;" horiz-adv-x="1370" 
d="M1028 1540h-154l201 301h271v-4zM786 -27q-177 0 -324 81.5t-234 231t-87 335.5q0 134 40.5 259t117 228t178.5 180t232 119.5t272 42.5q277 0 469 -129l-61 -242h-11q-56 96 -155 149.5t-224 53.5q-171 0 -309 -88t-212.5 -230.5t-74.5 -306.5q0 -151 62 -261.5
t167.5 -166t239.5 -55.5q198 0 383 131l7 -143q-195 -189 -476 -189z" />
    <glyph glyph-name="cacute" unicode="&#x107;" horiz-adv-x="968" 
d="M713 1133h-154l201 301h270v-4zM514 -27q-195 0 -316.5 128t-121.5 321q0 157 73.5 288t209.5 209t307 78q174 0 307 -77l-47 -195h-13q-30 58 -92.5 90.5t-138.5 32.5q-163 0 -270 -112.5t-107 -282.5q0 -140 77 -217.5t208 -77.5q135 0 250 75l4 -122
q-67 -67 -152.5 -102.5t-177.5 -35.5z" />
    <glyph glyph-name="Ccircumflex" unicode="&#x108;" horiz-adv-x="1370" 
d="M834 1540h-191l354 301h156l176 -301h-158l-122 152zM786 -27q-177 0 -324 81.5t-234 231t-87 335.5q0 134 40.5 259t117 228t178.5 180t232 119.5t272 42.5q277 0 469 -129l-61 -242h-11q-56 96 -155 149.5t-224 53.5q-171 0 -309 -88t-212.5 -230.5t-74.5 -306.5
q0 -151 62 -261.5t167.5 -166t239.5 -55.5q198 0 383 131l7 -143q-195 -189 -476 -189z" />
    <glyph glyph-name="ccircumflex" unicode="&#x109;" horiz-adv-x="968" 
d="M506 1133h-191l355 301h153l178 -301h-157l-123 149zM514 -27q-195 0 -316.5 128t-121.5 321q0 157 73.5 288t209.5 209t307 78q174 0 307 -77l-47 -195h-13q-30 58 -92.5 90.5t-138.5 32.5q-163 0 -270 -112.5t-107 -282.5q0 -140 77 -217.5t208 -77.5q135 0 250 75
l4 -122q-67 -67 -152.5 -102.5t-177.5 -35.5z" />
    <glyph glyph-name="Cdotaccent" unicode="&#x10a;" horiz-adv-x="1370" 
d="M1018 1542q-59 0 -97 38.5t-38 94.5q0 70 49 118t121 48q58 0 95.5 -38t37.5 -95q0 -70 -48.5 -118t-119.5 -48zM786 -27q-177 0 -324 81.5t-234 231t-87 335.5q0 134 40.5 259t117 228t178.5 180t232 119.5t272 42.5q277 0 469 -129l-61 -242h-11q-56 96 -155 149.5
t-224 53.5q-171 0 -309 -88t-212.5 -230.5t-74.5 -306.5q0 -151 62 -261.5t167.5 -166t239.5 -55.5q198 0 383 131l7 -143q-195 -189 -476 -189z" />
    <glyph glyph-name="cdotaccent" unicode="&#x10b;" horiz-adv-x="968" 
d="M702 1137q-58 0 -95.5 38t-37.5 95q0 70 49 117t121 47q58 0 94.5 -37t36.5 -94q0 -71 -48 -118.5t-120 -47.5zM514 -27q-195 0 -316.5 128t-121.5 321q0 157 73.5 288t209.5 209t307 78q174 0 307 -77l-47 -195h-13q-30 58 -92.5 90.5t-138.5 32.5q-163 0 -270 -112.5
t-107 -282.5q0 -140 77 -217.5t208 -77.5q135 0 250 75l4 -122q-67 -67 -152.5 -102.5t-177.5 -35.5z" />
    <glyph glyph-name="Ccaron" unicode="&#x10c;" horiz-adv-x="1370" 
d="M1243 1839h191l-355 -301h-155l-176 301h157l123 -149zM786 -27q-177 0 -324 81.5t-234 231t-87 335.5q0 134 40.5 259t117 228t178.5 180t232 119.5t272 42.5q277 0 469 -129l-61 -242h-11q-56 96 -155 149.5t-224 53.5q-171 0 -309 -88t-212.5 -230.5t-74.5 -306.5
q0 -151 62 -261.5t167.5 -166t239.5 -55.5q198 0 383 131l7 -143q-195 -189 -476 -189z" />
    <glyph glyph-name="ccaron" unicode="&#x10d;" horiz-adv-x="968" 
d="M920 1432h190l-352 -302h-156l-178 302h158l123 -152zM514 -27q-195 0 -316.5 128t-121.5 321q0 157 73.5 288t209.5 209t307 78q174 0 307 -77l-47 -195h-13q-30 58 -92.5 90.5t-138.5 32.5q-163 0 -270 -112.5t-107 -282.5q0 -140 77 -217.5t208 -77.5q135 0 250 75
l4 -122q-67 -67 -152.5 -102.5t-177.5 -35.5z" />
    <glyph glyph-name="Dcaron" unicode="&#x10e;" horiz-adv-x="1550" 
d="M1196 1839h190l-354 -301h-155l-177 301h158l123 -149zM164 324l194 786q18 71 26 122.5t6 98.5t-17 82v10h475q146 0 272 -44.5t215.5 -123t140 -190.5t50.5 -244q0 -174 -66.5 -326t-184 -261t-286.5 -171.5t-366 -62.5h-600v10q54 53 81.5 119.5t59.5 194.5zM645 1264
l-276 -1104h209q160 0 291.5 54.5t216.5 148t131.5 215.5t46.5 260q0 200 -121.5 313t-323.5 113h-174z" />
    <glyph glyph-name="dcaron" unicode="&#x10f;" horiz-adv-x="1189" 
d="M1468 1473q49 0 81 -32.5t32 -82.5q0 -60 -68 -150l-122 -159h-109l160 196q-41 6 -67.5 36t-26.5 71q0 52 33 86.5t87 34.5zM987 1419v11l285 30h6l-301 -1200q-37 -142 -8 -221v-12l-279 -31h-6l33 129h-10q-113 -152 -293 -152q-146 0 -244 113.5t-98 298.5
q0 157 68 297t192.5 227.5t275.5 87.5q95 0 168 -42.5t109 -114.5h10l88 354q19 78 19.5 132t-15.5 93zM793 440l30 125q33 132 -23 210.5t-157 78.5q-60 0 -114 -26t-95 -70t-71.5 -101t-46 -122t-15.5 -129q0 -124 53 -194.5t148 -70.5q105 0 182 87.5t109 211.5z" />
    <glyph glyph-name="Dcroat" unicode="&#x110;" horiz-adv-x="1566" 
d="M389 1423h475q197 0 351.5 -75.5t241.5 -213t87 -313.5q0 -174 -66.5 -326t-184 -261t-286.5 -171.5t-366 -62.5h-602v10q55 53 83 119.5t60 194.5l86 344h-182l37 147h180l74 295q27 108 31 174.5t-19 128.5v10zM387 160h207q160 0 291.5 54.5t217.5 148t132.5 215.5
t46.5 260q0 200 -121 313t-323 113h-176l-111 -449h301l-37 -147h-301z" />
    <glyph glyph-name="dcroat" unicode="&#x111;" horiz-adv-x="1189" 
d="M1219 1221h143l-21 -129h-155l-209 -832q-37 -142 -8 -221v-12l-279 -31h-6l33 129h-10q-113 -152 -293 -152q-146 0 -244 113.5t-98 298.5q0 157 68 297t192.5 227.5t275.5 87.5q95 0 168 -42.5t109 -114.5h10l63 252h-258l21 129h268q25 117 -2 198v11l285 30h6z
M793 440l30 125q33 132 -23 210.5t-157 78.5q-60 0 -114 -26t-95 -70t-71.5 -101t-46 -122t-15.5 -129q0 -124 53 -194.5t148 -70.5q105 0 182 87.5t109 211.5z" />
    <glyph glyph-name="Emacron" unicode="&#x112;" horiz-adv-x="1277" 
d="M623 1604h649l35 141h-648zM1122 289h11l-72 -289h-1041v10q38 35 65 86t40 91.5t35 125.5l198 795q54 213 13 305v10h1022l-66 -262h-10q-28 54 -97 76.5t-200 22.5h-377l-115 -459h252q123 0 192 17t111 56h13l-78 -313h-12q-22 40 -80.5 58t-173.5 18h-265l-118 -473
h405q129 0 211.5 28.5t136.5 96.5z" />
    <glyph glyph-name="emacron" unicode="&#x113;" horiz-adv-x="1021" 
d="M338 1188l37 139h647l-35 -139h-649zM602 997q189 0 284.5 -125.5t55.5 -314.5l-12 -53h-629q-2 -12 -2 -37q0 -153 78.5 -231t210.5 -78q142 0 278 92l4 -127q-150 -150 -356 -150q-187 0 -311.5 124t-124.5 331q0 109 38 211.5t104.5 182t166.5 127.5t215 48zM584 860
q-93 0 -159 -62t-99 -163h417q14 101 -27.5 163t-131.5 62z" />
    <glyph glyph-name="Ebreve" unicode="&#x114;" horiz-adv-x="1277" 
d="M932 1540q-127 0 -190.5 81t-36.5 220h129q-14 -69 14.5 -110t95.5 -41q131 0 191 151h139q-34 -143 -123.5 -222t-218.5 -79zM1122 289h11l-72 -289h-1041v10q38 35 65 86t40 91.5t35 125.5l198 795q54 213 13 305v10h1022l-66 -262h-10q-28 54 -97 76.5t-200 22.5h-377
l-115 -459h252q123 0 192 17t111 56h13l-78 -313h-12q-22 40 -80.5 58t-173.5 18h-265l-118 -473h405q129 0 211.5 28.5t136.5 96.5z" />
    <glyph glyph-name="ebreve" unicode="&#x115;" horiz-adv-x="1021" 
d="M653 1133q-125 0 -189 81t-38 220h131q-15 -69 14 -111.5t95 -42.5q131 0 192 154h137q-32 -142 -122.5 -221.5t-219.5 -79.5zM602 997q189 0 284.5 -125.5t55.5 -314.5l-12 -53h-629q-2 -12 -2 -37q0 -153 78.5 -231t210.5 -78q142 0 278 92l4 -127q-150 -150 -356 -150
q-187 0 -311.5 124t-124.5 331q0 109 38 211.5t104.5 182t166.5 127.5t215 48zM584 860q-93 0 -159 -62t-99 -163h417q14 101 -27.5 163t-131.5 62z" />
    <glyph glyph-name="Edotaccent" unicode="&#x116;" horiz-adv-x="1277" 
d="M936 1542q-59 0 -97 38.5t-38 94.5q0 70 49 118t121 48q58 0 95.5 -38t37.5 -95q0 -70 -48.5 -118t-119.5 -48zM1122 289h11l-72 -289h-1041v10q38 35 65 86t40 91.5t35 125.5l198 795q54 213 13 305v10h1022l-66 -262h-10q-28 54 -97 76.5t-200 22.5h-377l-115 -459h252
q123 0 192 17t111 56h13l-78 -313h-12q-22 40 -80.5 58t-173.5 18h-265l-118 -473h405q129 0 211.5 28.5t136.5 96.5z" />
    <glyph glyph-name="edotaccent" unicode="&#x117;" horiz-adv-x="1021" 
d="M668 1137q-58 0 -95.5 38t-37.5 95q0 70 49 117t121 47q58 0 94.5 -37t36.5 -94q0 -71 -48 -118.5t-120 -47.5zM602 997q189 0 284.5 -125.5t55.5 -314.5l-12 -53h-629q-2 -12 -2 -37q0 -153 78.5 -231t210.5 -78q142 0 278 92l4 -127q-150 -150 -356 -150
q-187 0 -311.5 124t-124.5 331q0 109 38 211.5t104.5 182t166.5 127.5t215 48zM584 860q-93 0 -159 -62t-99 -163h417q14 101 -27.5 163t-131.5 62z" />
    <glyph glyph-name="Eogonek" unicode="&#x118;" horiz-adv-x="1277" 
d="M371 1413v10h1022l-66 -262h-10q-28 54 -97 76.5t-200 22.5h-377l-115 -459h252q123 0 192 17t111 56h13l-78 -313h-12q-22 40 -80.5 58t-173.5 18h-265l-118 -473h405q129 0 211.5 28.5t136.5 96.5h11l-72 -289q-258 -93 -258 -211q0 -39 25.5 -63.5t70.5 -24.5
q49 0 107 33l4 -96q-71 -58 -162 -58q-84 0 -138.5 52t-54.5 130q0 155 209 238h-844v10q38 35 65 86t40 91.5t35 125.5l198 795q54 213 13 305z" />
    <glyph glyph-name="eogonek" unicode="&#x119;" horiz-adv-x="1021" 
d="M604 997q188 0 283 -126.5t55 -313.5l-12 -53h-629q-2 -12 -2 -37q0 -153 78.5 -231t208.5 -78q147 0 280 92l2 -123q-55 -59 -116 -92t-142 -55q-105 -31 -167 -81.5t-62 -107.5q0 -40 26 -65t70 -25q53 0 107 33l4 -96q-73 -58 -162 -58q-84 0 -137 53t-53 127
q0 72 44.5 128t120.5 92v6q-144 35 -233.5 152.5t-89.5 291.5q0 108 38 210.5t105 181.5t167 127t216 48zM326 635h415q18 97 -24 161t-131 64q-93 0 -160 -62.5t-100 -162.5z" />
    <glyph glyph-name="Ecaron" unicode="&#x11a;" horiz-adv-x="1277" 
d="M1161 1839h191l-355 -301h-155l-176 301h157l123 -149zM1122 289h11l-72 -289h-1041v10q38 35 65 86t40 91.5t35 125.5l198 795q54 213 13 305v10h1022l-66 -262h-10q-28 54 -97 76.5t-200 22.5h-377l-115 -459h252q123 0 192 17t111 56h13l-78 -313h-12q-22 40 -80.5 58
t-173.5 18h-265l-118 -473h405q129 0 211.5 28.5t136.5 96.5z" />
    <glyph glyph-name="ecaron" unicode="&#x11b;" horiz-adv-x="1021" 
d="M1075 1432l-352 -302h-156l-178 302h158l123 -152l215 152h190zM602 997q189 0 284.5 -125.5t55.5 -314.5l-12 -53h-629q-2 -12 -2 -37q0 -153 78.5 -231t210.5 -78q142 0 278 92l4 -127q-150 -150 -356 -150q-187 0 -311.5 124t-124.5 331q0 109 38 211.5t104.5 182
t166.5 127.5t215 48zM584 860q-93 0 -159 -62t-99 -163h417q14 101 -27.5 163t-131.5 62z" />
    <glyph glyph-name="Gcircumflex" unicode="&#x11c;" horiz-adv-x="1474" 
d="M1196 1540l-123 152l-215 -152h-190l354 301h156l176 -301h-158zM1047 1450q301 0 499 -131l-59 -238h-12q-62 95 -169.5 148t-246.5 53q-123 0 -230 -35t-184.5 -97.5t-133 -145.5t-83 -180.5t-27.5 -202.5q0 -226 117.5 -356t329.5 -130q76 0 147 21l74 295
q25 97 23.5 162t-29.5 128v11h385v-11q-53 -61 -79.5 -123t-55.5 -176l-88 -354q-196 -115 -420 -115q-189 0 -340.5 82.5t-237.5 231t-86 336.5q0 170 67.5 322t186 263.5t288 176.5t364.5 65z" />
    <glyph glyph-name="gcircumflex" unicode="&#x11d;" horiz-adv-x="1067" 
d="M805 1133l-123 149l-215 -149h-191l353 301h155l179 -301h-158zM1141 1014l-47 -183l-207 3v-9q47 -50 47 -133q0 -160 -123.5 -263t-310.5 -103q-86 0 -150 24q-61 -16 -97 -43.5t-36 -64.5q0 -64 100 -70l267 -14q156 -9 243.5 -69.5t87.5 -168.5q0 -111 -80.5 -194
t-205 -123.5t-271.5 -40.5q-201 0 -319.5 71t-118.5 189q0 66 47.5 123t134.5 94v4q-67 51 -67 139q0 73 51.5 132.5t149.5 97.5v8q-89 83 -89 205q0 165 125.5 268.5t311.5 103.5q85 0 164 -26l387 43h6zM510 457q95 0 157 73.5t62 176.5q0 73 -40.5 117t-110.5 44
q-95 0 -157.5 -73.5t-62.5 -176.5q0 -74 41 -117.5t111 -43.5zM557 -29l-303 19q-4 0 -12.5 1t-12.5 1q-57 -24 -90 -62t-33 -84q0 -70 69 -109.5t190 -39.5q88 0 161.5 18t122.5 58t49 96q0 49 -33.5 73t-107.5 29z" />
    <glyph glyph-name="Gbreve" unicode="&#x11e;" horiz-adv-x="1474" 
d="M1038 1540q-127 0 -190.5 81t-36.5 220h129q-14 -69 14.5 -110t96.5 -41q130 0 190 151h139q-34 -143 -123.5 -222t-218.5 -79zM1047 1450q301 0 499 -131l-59 -238h-12q-62 95 -169.5 148t-246.5 53q-123 0 -230 -35t-184.5 -97.5t-133 -145.5t-83 -180.5t-27.5 -202.5
q0 -226 117.5 -356t329.5 -130q76 0 147 21l74 295q25 97 23.5 162t-29.5 128v11h385v-11q-53 -61 -79.5 -123t-55.5 -176l-88 -354q-196 -115 -420 -115q-189 0 -340.5 82.5t-237.5 231t-86 336.5q0 170 67.5 322t186 263.5t288 176.5t364.5 65z" />
    <glyph glyph-name="gbreve" unicode="&#x11f;" horiz-adv-x="1067" 
d="M655 1133q-125 0 -189 81t-38 220h131q-15 -69 14 -111.5t95 -42.5q131 0 192 154h137q-32 -142 -122.5 -221.5t-219.5 -79.5zM1141 1014l-47 -183l-207 3v-9q47 -50 47 -133q0 -160 -123.5 -263t-310.5 -103q-86 0 -150 24q-61 -16 -97 -43.5t-36 -64.5q0 -64 100 -70
l267 -14q156 -9 243.5 -69.5t87.5 -168.5q0 -111 -80.5 -194t-205 -123.5t-271.5 -40.5q-201 0 -319.5 71t-118.5 189q0 66 47.5 123t134.5 94v4q-67 51 -67 139q0 73 51.5 132.5t149.5 97.5v8q-89 83 -89 205q0 165 125.5 268.5t311.5 103.5q85 0 164 -26l387 43h6z
M510 457q95 0 157 73.5t62 176.5q0 73 -40.5 117t-110.5 44q-95 0 -157.5 -73.5t-62.5 -176.5q0 -74 41 -117.5t111 -43.5zM557 -29l-303 19q-4 0 -12.5 1t-12.5 1q-57 -24 -90 -62t-33 -84q0 -70 69 -109.5t190 -39.5q88 0 161.5 18t122.5 58t49 96q0 49 -33.5 73
t-107.5 29z" />
    <glyph glyph-name="Gdotaccent" unicode="&#x120;" horiz-adv-x="1474" 
d="M1042 1542q-59 0 -97 38.5t-38 94.5q0 70 49 118t121 48q58 0 95.5 -38t37.5 -95q0 -70 -48.5 -118t-119.5 -48zM1047 1450q301 0 499 -131l-59 -238h-12q-62 95 -169.5 148t-246.5 53q-123 0 -230 -35t-184.5 -97.5t-133 -145.5t-83 -180.5t-27.5 -202.5
q0 -226 117.5 -356t329.5 -130q76 0 147 21l74 295q25 97 23.5 162t-29.5 128v11h385v-11q-53 -61 -79.5 -123t-55.5 -176l-88 -354q-196 -115 -420 -115q-189 0 -340.5 82.5t-237.5 231t-86 336.5q0 170 67.5 322t186 263.5t288 176.5t364.5 65z" />
    <glyph glyph-name="gdotaccent" unicode="&#x121;" horiz-adv-x="1067" 
d="M668 1137q-58 0 -95.5 38t-37.5 95q0 70 49 117t121 47q58 0 94.5 -37t36.5 -94q0 -71 -48 -118.5t-120 -47.5zM1141 1014l-47 -183l-207 3v-9q47 -50 47 -133q0 -160 -123.5 -263t-310.5 -103q-86 0 -150 24q-61 -16 -97 -43.5t-36 -64.5q0 -64 100 -70l267 -14
q156 -9 243.5 -69.5t87.5 -168.5q0 -111 -80.5 -194t-205 -123.5t-271.5 -40.5q-201 0 -319.5 71t-118.5 189q0 66 47.5 123t134.5 94v4q-67 51 -67 139q0 73 51.5 132.5t149.5 97.5v8q-89 83 -89 205q0 165 125.5 268.5t311.5 103.5q85 0 164 -26l387 43h6zM510 457
q95 0 157 73.5t62 176.5q0 73 -40.5 117t-110.5 44q-95 0 -157.5 -73.5t-62.5 -176.5q0 -74 41 -117.5t111 -43.5zM557 -29l-303 19q-4 0 -12.5 1t-12.5 1q-57 -24 -90 -62t-33 -84q0 -70 69 -109.5t190 -39.5q88 0 161.5 18t122.5 58t49 96q0 49 -33.5 73t-107.5 29z" />
    <glyph glyph-name="uni0122" unicode="&#x122;" horiz-adv-x="1474" 
d="M1047 1450q301 0 499 -131l-59 -238h-12q-62 95 -169.5 148t-246.5 53q-123 0 -230 -35t-184.5 -97.5t-133 -145.5t-83 -180.5t-27.5 -202.5q0 -226 117.5 -356t329.5 -130q76 0 147 21l74 295q25 97 23.5 162t-29.5 128v11h385v-11q-53 -61 -79.5 -123t-55.5 -176
l-88 -354q-196 -115 -420 -115q-189 0 -340.5 82.5t-237.5 231t-86 336.5q0 170 67.5 322t186 263.5t288 176.5t364.5 65zM745 -88q52 0 85.5 -34.5t33.5 -86.5q0 -70 -71 -158l-129 -168h-113l164 209q-42 6 -69.5 37.5t-27.5 73.5q0 55 35.5 91t91.5 36z" />
    <glyph glyph-name="uni0123" unicode="&#x123;" horiz-adv-x="1067" 
d="M643 1081q-53 0 -87 34.5t-34 86.5q0 64 72 158l131 168h113l-166 -211q42 -4 69 -35.5t27 -73.5q0 -55 -34.5 -91t-90.5 -36zM1141 1014l-47 -183l-207 3v-9q47 -50 47 -133q0 -160 -123.5 -263t-310.5 -103q-86 0 -150 24q-61 -16 -97 -43.5t-36 -64.5q0 -64 100 -70
l267 -14q156 -9 243.5 -69.5t87.5 -168.5q0 -111 -80.5 -194t-205 -123.5t-271.5 -40.5q-201 0 -319.5 71t-118.5 189q0 66 47.5 123t134.5 94v4q-67 51 -67 139q0 73 51.5 132.5t149.5 97.5v8q-89 83 -89 205q0 165 125.5 268.5t311.5 103.5q85 0 164 -26l387 43h6z
M510 457q95 0 157 73.5t62 176.5q0 73 -40.5 117t-110.5 44q-95 0 -157.5 -73.5t-62.5 -176.5q0 -74 41 -117.5t111 -43.5zM557 -29l-303 19q-4 0 -12.5 1t-12.5 1q-57 -24 -90 -62t-33 -84q0 -70 69 -109.5t190 -39.5q88 0 161.5 18t122.5 58t49 96q0 49 -33.5 73
t-107.5 29z" />
    <glyph glyph-name="Hcircumflex" unicode="&#x124;" horiz-adv-x="1615" 
d="M1241 1540l-123 152l-215 -152h-190l354 301h156l176 -301h-158zM1335 1413v10h371v-10q-51 -49 -78 -114.5t-59 -190.5l-199 -797q-27 -107 -30 -176t18 -125v-10h-371v10q52 50 81 118t58 187l80 320h-721l-79 -322q-27 -108 -30 -177t19 -126v-10h-370v10
q50 50 78.5 118t58.5 185l196 797q18 76 26 125t6.5 96t-17.5 82v10h368v-10q-50 -50 -77.5 -116.5t-59.5 -188.5l-76 -307h719l76 309q28 110 31.5 176.5t-19.5 126.5z" />
    <glyph glyph-name="hcircumflex" unicode="&#x125;" horiz-adv-x="1136" 
d="M702 1540h-190l354 301h156l176 -301h-158l-122 152zM98 240l236 946q22 84 23 136t-19 97v11l287 30h4l-152 -612h8q120 149 285 149q86 0 152.5 -48t98 -144t-4.5 -240l-80 -323q-22 -88 -24.5 -139.5t12.5 -92.5v-10h-318v10q37 37 56 84t45 150l92 362
q26 105 -10.5 163t-110.5 58q-88 0 -165.5 -69t-111.5 -207l-75 -309q-35 -146 -13 -232v-10h-315v10q38 41 56.5 85.5t43.5 144.5z" />
    <glyph glyph-name="Hbar" unicode="&#x126;" horiz-adv-x="1671" 
d="M1618 1180h174l-39 -154h-174l-180 -715q-52 -205 -10 -301v-10h-371v10q50 50 79 118.5t58 186.5l80 320h-721l-80 -322q-51 -203 -8 -303v-10h-373v10q50 50 78.5 118t58.5 185l177 713h-179l39 154h176q32 159 -2 233v10h371v-10q-43 -41 -69 -94.5t-52 -138.5h717
q32 161 -4 233v10h371v-10q-42 -42 -67.5 -95.5t-49.5 -137.5zM557 801h719l55 225h-719z" />
    <glyph glyph-name="hbar" unicode="&#x127;" horiz-adv-x="1136" 
d="M770 997q86 0 152.5 -48t98 -144t-4.5 -240l-80 -323q-22 -88 -24.5 -139.5t12.5 -92.5v-10h-318v10q37 37 56 84t45 150l92 362q26 105 -10.5 163t-110.5 58q-88 0 -165.5 -69t-111.5 -207l-75 -309q-35 -146 -13 -232v-10h-315v10q38 41 56.5 85.5t43.5 144.5l213 852
h-149l20 129h160q29 129 -4 198v11l287 30h4l-60 -239h254l-20 -129h-266l-60 -244h8q120 149 285 149z" />
    <glyph glyph-name="Itilde" unicode="&#x128;" horiz-adv-x="651" 
d="M743 1544q-81 0 -149 62l-37 30q-38 33 -76 33q-78 0 -106 -113h-129q20 129 82.5 199t152.5 70q73 0 150 -60l41 -34q36 -31 73 -31q75 0 107 115h129q-20 -130 -83 -200.5t-155 -70.5zM25 0v10q49 51 77.5 118.5t57.5 184.5l198 795q28 115 32 178.5t-19 126.5v10h370
v-10q-51 -48 -79 -115t-58 -188l-198 -797q-52 -202 -11 -303v-10h-370z" />
    <glyph glyph-name="itilde" unicode="&#x129;" horiz-adv-x="546" 
d="M592 1128q-79 0 -148 62l-38 33q-35 30 -76 30q-76 0 -107 -112h-129q22 129 84 199.5t152 70.5q75 0 149 -61l41 -33q38 -31 74 -31q38 0 63.5 26.5t42.5 86.5h129q-20 -129 -82.5 -200t-154.5 -71zM516 977l-186 -744q-37 -150 -11 -223v-10h-315v10q35 38 54 85
t42 138l121 486q18 73 19 121.5t-17 95.5v10l287 31h6z" />
    <glyph glyph-name="Imacron" unicode="&#x12a;" horiz-adv-x="651" 
d="M291 1604h649l35 141h-647zM25 0v10q49 51 77.5 118.5t57.5 184.5l198 795q28 115 32 178.5t-19 126.5v10h370v-10q-51 -48 -79 -115t-58 -188l-198 -797q-52 -202 -11 -303v-10h-370z" />
    <glyph glyph-name="imacron" unicode="&#x12b;" horiz-adv-x="546" 
d="M125 1188h649l35 139h-647zM516 977l-186 -744q-37 -150 -11 -223v-10h-315v10q35 38 54 85t42 138l121 486q18 73 19 121.5t-17 95.5v10l287 31h6z" />
    <glyph glyph-name="Ibreve" unicode="&#x12c;" horiz-adv-x="651" 
d="M600 1540q-127 0 -190.5 81t-36.5 220h129q-14 -69 14.5 -110t95.5 -41q131 0 191 151h139q-34 -143 -123.5 -222t-218.5 -79zM25 0v10q49 51 77.5 118.5t57.5 184.5l198 795q28 115 32 178.5t-19 126.5v10h370v-10q-51 -48 -79 -115t-58 -188l-198 -797
q-52 -202 -11 -303v-10h-370z" />
    <glyph glyph-name="ibreve" unicode="&#x12d;" horiz-adv-x="546" 
d="M440 1133q-125 0 -189 81t-38 220h131q-15 -69 14 -111.5t95 -42.5q131 0 192 154h137q-32 -142 -122.5 -221.5t-219.5 -79.5zM516 977l-186 -744q-37 -150 -11 -223v-10h-315v10q35 38 54 85t42 138l121 486q18 73 19 121.5t-17 95.5v10l287 31h6z" />
    <glyph glyph-name="Iogonek" unicode="&#x12e;" horiz-adv-x="651" 
d="M371 1413v10h370v-10q-51 -48 -79 -115t-58 -188l-198 -797q-52 -202 -11 -303v-10h-67q-258 -93 -258 -211q0 -39 25.5 -63.5t70.5 -24.5q48 0 106 33l4 -96q-71 -58 -161 -58q-84 0 -138.5 52t-54.5 130q0 155 209 238h-106v10q49 51 77.5 118.5t57.5 184.5l198 795
q28 115 32 178.5t-19 126.5z" />
    <glyph glyph-name="iogonek" unicode="&#x12f;" horiz-adv-x="546" 
d="M492 1434q58 0 94.5 -37t36.5 -94q0 -71 -48 -118.5t-120 -47.5q-58 0 -95.5 38t-37.5 95q0 70 49 117t121 47zM223 936v10l287 31h6l-186 -744q-37 -150 -11 -223v-10h-47q-258 -93 -258 -211q0 -39 26 -63.5t71 -24.5q48 0 106 33l4 -96q-71 -58 -162 -58
q-84 0 -138 51.5t-54 130.5q0 155 209 238h-72v10q35 38 54 85t42 138l121 486q18 73 19 121.5t-17 95.5z" />
    <glyph glyph-name="Idotaccent" unicode="&#x130;" horiz-adv-x="651" 
d="M604 1542q-59 0 -97 38.5t-38 94.5q0 70 49 118t121 48q58 0 95.5 -38t37.5 -95q0 -70 -48.5 -118t-119.5 -48zM25 0v10q49 51 77.5 118.5t57.5 184.5l198 795q28 115 32 178.5t-19 126.5v10h370v-10q-51 -48 -79 -115t-58 -188l-198 -797q-52 -202 -11 -303v-10h-370z
" />
    <glyph glyph-name="dotlessi" unicode="&#x131;" horiz-adv-x="546" 
d="M516 977l-186 -744q-37 -150 -11 -223v-10h-315v10q35 38 54 85t42 138l121 486q18 73 19 121.5t-17 95.5v10l287 31h6z" />
    <glyph glyph-name="IJ" unicode="&#x132;" horiz-adv-x="1632" 
d="M25 0v10q49 51 77.5 118.5t57.5 184.5l198 795q28 115 32 178.5t-19 126.5v10h370v-10q-51 -48 -79 -115t-58 -188l-198 -797q-52 -202 -11 -303v-10h-370zM913 -27q-192 0 -335 119l49 135q117 -75 235 -75q57 0 104 12.5t91 42.5t77 85t52 134l170 682
q28 112 32.5 177.5t-18.5 127.5v10h371v-10q-52 -50 -80 -116t-59 -189l-168 -680q-112 -455 -521 -455z" />
    <glyph glyph-name="ij" unicode="&#x133;" horiz-adv-x="1079" 
d="M457 1137q-59 0 -97 37.5t-38 95.5q0 70 49 117t121 47q58 0 95.5 -37t37.5 -94q0 -70 -48.5 -118t-119.5 -48zM997 1137q-58 0 -95.5 38t-37.5 95q0 71 48.5 117.5t121.5 46.5q58 0 94.5 -37t36.5 -94q0 -70 -48.5 -118t-119.5 -48zM516 977l-186 -744
q-37 -150 -11 -223v-10h-315v10q35 38 54 85t42 138l121 486q18 73 19 121.5t-17 95.5v10l287 31h6zM391 -438q-117 0 -205 57l39 119q56 -27 121 -27q165 0 213 187l203 815q36 139 2 223v10l287 31h6l-266 -1071q-87 -344 -400 -344z" />
    <glyph glyph-name="Jcircumflex" unicode="&#x134;" horiz-adv-x="980" 
d="M768 1540h-190l354 301h155l177 -301h-158l-123 152zM262 -27q-193 0 -336 119l49 135q117 -75 236 -75q57 0 104 12.5t91 42.5t77 85t52 134l170 682q28 112 32.5 177.5t-18.5 127.5v10h371v-10q-52 -51 -80.5 -117t-59.5 -188l-168 -680q-112 -455 -520 -455z" />
    <glyph glyph-name="jcircumflex" unicode="&#x135;" horiz-adv-x="532" 
d="M254 1133h-191l355 301h153l179 -301h-158l-123 149zM-156 -438q-116 0 -204 57l38 119q56 -27 121 -27q165 0 213 187l203 815q36 139 2 223v10l287 31h6l-266 -1071q-87 -344 -400 -344z" />
    <glyph glyph-name="uni0136" unicode="&#x136;" horiz-adv-x="1409" 
d="M1599 1423v-10q-76 -43 -148 -94t-119 -90.5t-134 -114.5l-340 -295l471 -815v-4h-280l-369 666l-242 -207l-35 -142q-27 -113 -30 -181t18 -126v-10h-368v10q50 52 78 118t59 187l198 795q28 108 32 175t-19 128v10h368v-10q-53 -51 -81 -118.5t-56 -184.5l-94 -377h8
l506 451q93 83 134.5 134.5t41.5 96.5v8h401zM637 -88q52 0 85.5 -34.5t33.5 -86.5q0 -68 -72 -158l-129 -168h-113l164 209q-41 6 -68.5 37t-27.5 74q0 55 35.5 91t91.5 36z" />
    <glyph glyph-name="uni0137" unicode="&#x137;" horiz-adv-x="1101" 
d="M1184 971v-10q-117 -70 -303 -211l-207 -162l321 -584v-4h-256l-237 453l-158 -125l-22 -90q-22 -86 -24 -136t13 -92v-10h-315v10q36 37 55 84t43 142l244 972q19 81 18.5 124.5t-20.5 86.5v11l287 30h4l-226 -903h13l313 254q64 54 88.5 89t24.5 67v4h344zM457 -88
q52 0 85 -34.5t33 -86.5q0 -70 -71 -158l-129 -168h-113l164 209q-41 6 -68.5 37t-27.5 74q0 55 35.5 91t91.5 36z" />
    <glyph glyph-name="Lacute" unicode="&#x139;" horiz-adv-x="1155" 
d="M616 1540h-153l201 301h270v-4zM25 0v10q51 51 78 117.5t59 194.5l196 790q28 111 31.5 177t-18.5 124v10h370v-10q-52 -49 -81 -116.5t-56 -184.5l-235 -948h346q131 0 209.5 31t138.5 114h12l-78 -309h-972z" />
    <glyph glyph-name="lacute" unicode="&#x13a;" horiz-adv-x="538" 
d="M563 1540h-153l200 301h271v-4zM-4 0v10q36 37 55 84t41 139l244 971q19 84 18.5 127t-18.5 88v11l285 30h6l-308 -1229q-35 -135 -8 -221v-10h-315z" />
    <glyph glyph-name="uni013B" unicode="&#x13b;" horiz-adv-x="1155" 
d="M1063 309h12l-78 -309h-972v10q51 51 78 117.5t59 194.5l196 790q28 111 31.5 177t-18.5 124v10h370v-10q-52 -49 -81 -116.5t-56 -184.5l-235 -948h346q131 0 209.5 31t138.5 114zM500 -88q52 0 85 -34.5t33 -86.5q0 -70 -71 -158l-129 -168h-113l164 209
q-41 6 -68.5 37t-27.5 74q0 55 35.5 91t91.5 36z" />
    <glyph glyph-name="uni013C" unicode="&#x13c;" horiz-adv-x="540" 
d="M621 1460h6l-308 -1229q-35 -135 -8 -221v-10h-315v10q36 37 55 84t41 139l244 971q19 84 18.5 127t-18.5 88v11zM100 -88q52 0 85.5 -34.5t33.5 -86.5q0 -68 -72 -158l-129 -168h-112l164 209q-42 6 -69.5 37.5t-27.5 73.5q0 55 35.5 91t91.5 36z" />
    <glyph glyph-name="Lcaron" unicode="&#x13d;" horiz-adv-x="1155" 
d="M1071 1178l-123 -160h-108l159 196q-41 6 -67.5 36t-26.5 71q0 52 33.5 86.5t87.5 34.5q49 0 81 -32.5t32 -82.5q0 -59 -68 -149zM369 164h346q131 0 209.5 31t138.5 114h12l-78 -309h-972v10q51 51 78 117.5t59 194.5l196 790q28 111 31.5 177t-18.5 124v10h370v-10
q-52 -49 -81 -116.5t-56 -184.5z" />
    <glyph glyph-name="lcaron" unicode="&#x13e;" horiz-adv-x="538" 
d="M819 1473q49 0 81 -32.5t32 -82.5q0 -60 -68 -150l-123 -159h-108l160 196q-41 6 -68 36t-27 71q0 52 33.5 86.5t87.5 34.5zM336 1419v11l285 30h6l-308 -1229q-35 -135 -8 -221v-10h-315v10q36 37 55 84t41 139l244 971q19 84 18.5 127t-18.5 88z" />
    <glyph glyph-name="Ldot" unicode="&#x13f;" horiz-adv-x="1155" 
d="M25 0v10q51 51 78 117.5t59 194.5l196 790q28 111 31.5 177t-18.5 124v10h370v-10q-52 -49 -81 -116.5t-56 -184.5l-235 -948h346q131 0 209.5 31t138.5 114h12l-78 -309h-972zM768 444q-63 0 -101 40t-38 100q0 73 49 121.5t119 48.5q65 0 103 -40t38 -102
q0 -71 -49.5 -119.5t-120.5 -48.5z" />
    <glyph glyph-name="ldot" unicode="&#x140;" horiz-adv-x="735" 
d="M-4 0v10q36 37 55 84t41 139l244 971q19 84 18.5 127t-18.5 88v11l285 30h6l-308 -1229q-35 -135 -8 -221v-10h-315zM688 592q-62 0 -99.5 39.5t-37.5 99.5q0 73 48.5 121.5t119.5 48.5q65 0 103 -40t38 -101q0 -72 -50 -120t-122 -48z" />
    <glyph glyph-name="Lslash" unicode="&#x141;" horiz-adv-x="1212" 
d="M1122 309h13l-76 -309h-975v10q52 51 78 116t59 196l29 116l-207 -102l45 182l207 103l123 491q28 112 31.5 177t-19.5 124v10h371v-10q-51 -49 -79 -115t-58 -186l-89 -352l433 215l-45 -182l-433 -215l-102 -414h346q131 0 209.5 31t138.5 114z" />
    <glyph glyph-name="lslash" unicode="&#x142;" horiz-adv-x="692" 
d="M569 891l197 98l-43 -170l-197 -98l-123 -490q-36 -139 -10 -221v-10h-315v10q36 38 56 85.5t42 137.5l90 359l-203 -100l43 170l203 100l111 442q19 83 18.5 127t-20.5 88v11l287 30h6z" />
    <glyph glyph-name="Nacute" unicode="&#x143;" horiz-adv-x="1566" 
d="M1053 1540h-154l201 301h270v-4zM23 0v10q52 50 81.5 120.5t57.5 186.5l254 1020l-29 80v6h332l409 -1112h11l200 801q18 72 25.5 123t5 97t-17.5 81v10h311v-10q-48 -51 -78.5 -121.5t-58.5 -183.5l-277 -1108h-245l-435 1161h-12l-209 -844q-28 -110 -32 -178.5
t18 -128.5v-10h-311z" />
    <glyph glyph-name="nacute" unicode="&#x144;" horiz-adv-x="1140" 
d="M766 1133h-154l201 301h270v-4zM100 229l117 476q22 84 23.5 135t-17.5 96v10l285 31h6l-33 -129h11q121 149 282 149q89 0 156 -50.5t95.5 -146.5t-5.5 -235l-82 -334q-20 -84 -22.5 -131t12.5 -90v-10h-316v10q37 41 55.5 85t41.5 136l94 375q26 104 -10.5 162.5
t-110.5 58.5q-88 0 -164.5 -68.5t-109.5 -205.5l-80 -317q-35 -139 -11 -226v-10h-315v10q36 39 55.5 84t42.5 135z" />
    <glyph glyph-name="uni0145" unicode="&#x145;" horiz-adv-x="1566" 
d="M1352 1413v10h311v-10q-48 -51 -78.5 -121.5t-58.5 -183.5l-277 -1108h-245l-435 1161h-12l-209 -844q-28 -110 -32 -178.5t18 -128.5v-10h-311v10q52 50 81.5 120.5t57.5 186.5l254 1020l-29 80v6h332l409 -1112h11l200 801q18 72 25.5 123t5 97t-17.5 81zM674 -88
q52 0 85.5 -34.5t33.5 -86.5q0 -68 -72 -158l-129 -168h-113l164 209q-41 6 -68.5 37t-27.5 74q0 55 35.5 91t91.5 36z" />
    <glyph glyph-name="uni0146" unicode="&#x146;" horiz-adv-x="1140" 
d="M774 997q89 0 156 -50.5t95.5 -146.5t-5.5 -235l-82 -334q-20 -84 -22.5 -131t12.5 -90v-10h-316v10q37 41 55.5 85t41.5 136l94 375q26 104 -10.5 162.5t-110.5 58.5q-88 0 -164.5 -68.5t-109.5 -205.5l-80 -317q-35 -139 -11 -226v-10h-315v10q36 39 55.5 84t42.5 135
l117 476q22 84 23.5 135t-17.5 96v10l285 31h6l-33 -129h11q121 149 282 149zM438 -88q52 0 85.5 -34.5t33.5 -86.5q0 -68 -72 -158l-129 -168h-112l164 209q-42 6 -69.5 37.5t-27.5 73.5q0 55 35.5 91t91.5 36z" />
    <glyph glyph-name="Ncaron" unicode="&#x147;" horiz-adv-x="1566" 
d="M1268 1839h190l-354 -301h-156l-176 301h158l123 -149zM23 0v10q52 50 81.5 120.5t57.5 186.5l254 1020l-29 80v6h332l409 -1112h11l200 801q18 72 25.5 123t5 97t-17.5 81v10h311v-10q-48 -51 -78.5 -121.5t-58.5 -183.5l-277 -1108h-245l-435 1161h-12l-209 -844
q-28 -110 -32 -178.5t18 -128.5v-10h-311z" />
    <glyph glyph-name="ncaron" unicode="&#x148;" horiz-adv-x="1140" 
d="M975 1432h190l-352 -302h-156l-178 302h158l123 -152zM100 229l117 476q22 84 23.5 135t-17.5 96v10l285 31h6l-33 -129h11q121 149 282 149q89 0 156 -50.5t95.5 -146.5t-5.5 -235l-82 -334q-20 -84 -22.5 -131t12.5 -90v-10h-316v10q37 41 55.5 85t41.5 136l94 375
q26 104 -10.5 162.5t-110.5 58.5q-88 0 -164.5 -68.5t-109.5 -205.5l-80 -317q-35 -139 -11 -226v-10h-315v10q36 39 55.5 84t42.5 135z" />
    <glyph glyph-name="Eng" unicode="&#x14a;" horiz-adv-x="1566" 
d="M819 -438q-119 0 -211 57l39 119q64 -27 121 -27q73 0 128.5 41t78.5 131l43 168l-449 1112h-12l-207 -837q-29 -118 -33.5 -187t17.5 -129v-10h-314v10q52 51 82 120t60 192l254 1015l-29 80v6h328l430 -1048h10l182 735q53 207 15 303v10h311v-10q-49 -51 -79.5 -121
t-57.5 -180l-303 -1218q-23 -91 -65.5 -157.5t-98 -103.5t-115 -54t-125.5 -17z" />
    <glyph glyph-name="eng" unicode="&#x14b;" horiz-adv-x="1136" 
d="M465 -438q-57 0 -113 16t-92 41l37 121q56 -29 123 -29q163 0 211 187l176 708q27 104 -9.5 162.5t-111.5 58.5q-88 0 -164 -69t-108 -195l-84 -336q-19 -72 -19.5 -124.5t11.5 -92.5v-10h-316v10q37 39 56.5 84.5t41.5 134.5l117 473q22 85 23.5 138t-17.5 96v10l285 31
h6l-31 -129h9q121 149 280 149q140 0 219 -118t31 -314l-166 -659q-88 -344 -395 -344z" />
    <glyph glyph-name="Omacron" unicode="&#x14c;" horiz-adv-x="1617" 
d="M723 1604h649l35 141h-647zM770 -27q-279 0 -455 173t-176 442q0 231 105 427.5t296 315.5t425 119q278 0 453 -172t175 -440q0 -173 -62 -331t-169 -276t-262 -188t-330 -70zM778 145q123 0 229 64t175.5 166.5t109 227.5t39.5 251q0 195 -100.5 310.5t-276.5 115.5
q-98 0 -187 -42t-155 -113t-114.5 -162.5t-73.5 -192t-25 -199.5q0 -198 100.5 -312t278.5 -114z" />
    <glyph glyph-name="omacron" unicode="&#x14d;" horiz-adv-x="1150" 
d="M399 1188h650l34 139h-647zM508 -27q-192 0 -313 120t-121 306q0 165 73.5 302t205.5 216.5t294 79.5q194 0 314 -119t120 -305q0 -166 -73.5 -303t-205 -217t-294.5 -80zM510 129q76 0 140.5 42.5t106 110t64.5 149.5t23 165q0 115 -53.5 180.5t-147.5 65.5
q-76 0 -140.5 -42t-105.5 -110t-63.5 -149.5t-22.5 -163.5q0 -117 52.5 -182.5t146.5 -65.5z" />
    <glyph glyph-name="Obreve" unicode="&#x14e;" horiz-adv-x="1617" 
d="M1032 1540q-127 0 -190.5 81t-36.5 220h129q-14 -69 14.5 -110t95.5 -41q131 0 191 151h139q-34 -143 -123.5 -222t-218.5 -79zM770 -27q-279 0 -455 173t-176 442q0 231 105 427.5t296 315.5t425 119q278 0 453 -172t175 -440q0 -173 -62 -331t-169 -276t-262 -188
t-330 -70zM778 145q123 0 229 64t175.5 166.5t109 227.5t39.5 251q0 195 -100.5 310.5t-276.5 115.5q-98 0 -187 -42t-155 -113t-114.5 -162.5t-73.5 -192t-25 -199.5q0 -198 100.5 -312t278.5 -114z" />
    <glyph glyph-name="obreve" unicode="&#x14f;" horiz-adv-x="1150" 
d="M717 1133q-125 0 -189.5 81t-38.5 220h132q-15 -69 13.5 -111.5t94.5 -42.5q132 0 193 154h137q-32 -142 -122.5 -221.5t-219.5 -79.5zM508 -27q-192 0 -313 120t-121 306q0 165 73.5 302t205.5 216.5t294 79.5q194 0 314 -119t120 -305q0 -166 -73.5 -303t-205 -217
t-294.5 -80zM510 129q76 0 140.5 42.5t106 110t64.5 149.5t23 165q0 115 -53.5 180.5t-147.5 65.5q-76 0 -140.5 -42t-105.5 -110t-63.5 -149.5t-22.5 -163.5q0 -117 52.5 -182.5t146.5 -65.5z" />
    <glyph glyph-name="Ohungarumlaut" unicode="&#x150;" horiz-adv-x="1617" 
d="M874 1540h-131l168 301h234v-4zM1212 1540h-135l172 301h232v-4zM770 -27q-279 0 -455 173t-176 442q0 231 105 427.5t296 315.5t425 119q278 0 453 -172t175 -440q0 -173 -62 -331t-169 -276t-262 -188t-330 -70zM778 145q123 0 229 64t175.5 166.5t109 227.5t39.5 251
q0 195 -100.5 310.5t-276.5 115.5q-98 0 -187 -42t-155 -113t-114.5 -162.5t-73.5 -192t-25 -199.5q0 -198 100.5 -312t278.5 -114z" />
    <glyph glyph-name="ohungarumlaut" unicode="&#x151;" horiz-adv-x="1150" 
d="M575 1133h-133l168 301h234v-4zM911 1133h-133l170 301h234v-4zM508 -27q-192 0 -313 120t-121 306q0 165 73.5 302t205.5 216.5t294 79.5q194 0 314 -119t120 -305q0 -166 -73.5 -303t-205 -217t-294.5 -80zM510 129q76 0 140.5 42.5t106 110t64.5 149.5t23 165
q0 115 -53.5 180.5t-147.5 65.5q-76 0 -140.5 -42t-105.5 -110t-63.5 -149.5t-22.5 -163.5q0 -117 52.5 -182.5t146.5 -65.5z" />
    <glyph glyph-name="OE" unicode="&#x152;" horiz-adv-x="1908" 
d="M1698 0h-899q-297 0 -478.5 166.5t-181.5 443.5q0 162 64 310t176 259.5t276.5 177.5t354.5 66h1020l-66 -262h-10q-26 53 -95 76t-204 23h-307l-115 -459h194q111 0 180.5 16.5t112.5 56.5h13l-78 -313h-13q-23 41 -79.5 58.5t-165.5 17.5h-205l-119 -473h340
q125 0 208.5 28.5t137.5 96.5h10zM791 164h36l275 1098h-92q-113 0 -211.5 -37t-170.5 -100t-124 -146t-77.5 -177t-25.5 -190q0 -213 104 -330.5t286 -117.5z" />
    <glyph glyph-name="oe" unicode="&#x153;" horiz-adv-x="1794" 
d="M1376 997q190 0 286.5 -127.5t53.5 -310.5l-12 -55h-629q-2 -12 -2 -37q0 -152 79.5 -230.5t209.5 -78.5q145 0 278 92l2 -123q-148 -154 -356 -154q-110 0 -203 47.5t-151 135.5h-10q-78 -87 -184.5 -135t-229.5 -48q-192 0 -313 120t-121 306q0 165 73.5 302
t205.5 216.5t294 79.5q225 0 350 -166h11q149 166 368 166zM1100 635h416q19 97 -24 161t-132 64q-93 0 -160.5 -62t-99.5 -163zM510 129q75 0 139.5 42t106 110t65 149.5t23.5 163.5q0 117 -52.5 182.5t-146.5 65.5q-76 0 -140.5 -42t-106 -109t-64.5 -148.5t-23 -163.5
q0 -117 52.5 -183.5t146.5 -66.5z" />
    <glyph glyph-name="Racute" unicode="&#x154;" horiz-adv-x="1351" 
d="M1214 1841v-4l-317 -297h-154l201 301h270zM1307 1069q0 -158 -119.5 -260.5t-321.5 -132.5l412 -672v-4h-281l-387 655h-121l-86 -342q-20 -75 -28 -124t-5 -96.5t23 -82.5v-10h-370v10q52 49 80 116.5t57 186.5l196 791q19 73 28 124.5t7 100.5t-20 84v10h463
q212 0 342.5 -99.5t130.5 -254.5zM641 1264l-113 -449h168q166 0 263.5 68t97.5 186q0 96 -68 145.5t-192 49.5h-156z" />
    <glyph glyph-name="racute" unicode="&#x155;" horiz-adv-x="790" 
d="M629 1133h-154l201 301h270v-4zM102 238l117 469q20 86 21.5 135.5t-17.5 93.5v10l285 31h6l-57 -229h10q63 127 137.5 188t183.5 61q53 0 91 -14l-58 -229q-43 16 -98 16q-112 0 -207.5 -85t-138.5 -253l-49 -196q-22 -85 -22 -135t22 -91v-10h-324v10q36 41 55.5 87.5
t42.5 140.5z" />
    <glyph glyph-name="uni0156" unicode="&#x156;" horiz-adv-x="1351" 
d="M1307 1069q0 -158 -119.5 -260.5t-321.5 -132.5l412 -672v-4h-281l-387 655h-121l-86 -342q-20 -75 -28 -124t-5 -96.5t23 -82.5v-10h-370v10q52 49 80 116.5t57 186.5l196 791q19 73 28 124.5t7 100.5t-20 84v10h463q212 0 342.5 -99.5t130.5 -254.5zM641 1264
l-113 -449h168q166 0 263.5 68t97.5 186q0 96 -68 145.5t-192 49.5h-156zM602 -88q52 0 85.5 -34.5t33.5 -86.5q0 -68 -72 -158l-129 -168h-112l163 209q-41 6 -68.5 37t-27.5 74q0 55 35.5 91t91.5 36z" />
    <glyph glyph-name="uni0157" unicode="&#x157;" horiz-adv-x="790" 
d="M788 997q53 0 91 -14l-58 -229q-43 16 -98 16q-112 0 -207.5 -85t-138.5 -253l-49 -196q-22 -85 -22 -135t22 -91v-10h-324v10q36 41 55.5 87.5t42.5 140.5l117 469q20 86 21.5 135.5t-17.5 93.5v10l285 31h6l-57 -229h10q63 127 137.5 188t183.5 61zM111 -88
q52 0 85 -34.5t33 -86.5q0 -70 -71 -158l-129 -168h-113l164 209q-41 6 -68.5 37t-27.5 74q0 55 35.5 91t91.5 36z" />
    <glyph glyph-name="Rcaron" unicode="&#x158;" horiz-adv-x="1351" 
d="M1303 1839l-355 -301h-155l-177 301h158l123 -149l215 149h191zM1307 1069q0 -158 -119.5 -260.5t-321.5 -132.5l412 -672v-4h-281l-387 655h-121l-86 -342q-20 -75 -28 -124t-5 -96.5t23 -82.5v-10h-370v10q52 49 80 116.5t57 186.5l196 791q19 73 28 124.5t7 100.5
t-20 84v10h463q212 0 342.5 -99.5t130.5 -254.5zM641 1264l-113 -449h168q166 0 263.5 68t97.5 186q0 96 -68 145.5t-192 49.5h-156z" />
    <glyph glyph-name="rcaron" unicode="&#x159;" horiz-adv-x="790" 
d="M836 1432h190l-352 -302h-156l-178 302h158l123 -152zM102 238l117 469q20 86 21.5 135.5t-17.5 93.5v10l285 31h6l-57 -229h10q63 127 137.5 188t183.5 61q53 0 91 -14l-58 -229q-43 16 -98 16q-112 0 -207.5 -85t-138.5 -253l-49 -196q-22 -85 -22 -135t22 -91v-10
h-324v10q36 41 55.5 87.5t42.5 140.5z" />
    <glyph glyph-name="Sacute" unicode="&#x15a;" horiz-adv-x="1093" 
d="M821 1540h-153l200 301h271v-4zM473 -27q-272 0 -463 172l62 240h10q62 -124 167.5 -184t219.5 -60q115 0 195.5 59t80.5 162q0 60 -34 107.5t-111 99.5l-121 82q-213 146 -213 365q0 126 69.5 226t186 154t256.5 54q114 0 217 -31.5t179 -85.5l-60 -239h-10
q-42 89 -130 139.5t-192 50.5q-118 0 -198 -62t-80 -165q0 -63 31 -111t102 -98l119 -80q118 -80 172.5 -164t54.5 -196q0 -130 -72 -230.5t-187.5 -152.5t-250.5 -52z" />
    <glyph glyph-name="sacute" unicode="&#x15b;" horiz-adv-x="845" 
d="M588 1133h-154l201 301h270v-4zM324 -27q-90 0 -178 33t-154 88l45 182h12q40 -70 115.5 -111.5t163.5 -41.5q76 0 127 30t51 91q0 36 -23 64.5t-71 60.5l-105 67q-147 96 -147 246q0 137 111 226t278 89q168 0 289 -79l-47 -191h-11q-34 58 -95 90.5t-138 32.5
q-81 0 -137 -34.5t-56 -92.5q0 -38 23 -66t82 -65l100 -64q74 -47 112 -104t38 -135q0 -138 -109.5 -227t-275.5 -89z" />
    <glyph glyph-name="Scircumflex" unicode="&#x15c;" horiz-adv-x="1093" 
d="M627 1540h-191l355 301h155l176 -301h-157l-123 152zM473 -27q-272 0 -463 172l62 240h10q62 -124 167.5 -184t219.5 -60q115 0 195.5 59t80.5 162q0 60 -34 107.5t-111 99.5l-121 82q-213 146 -213 365q0 126 69.5 226t186 154t256.5 54q114 0 217 -31.5t179 -85.5
l-60 -239h-10q-42 89 -130 139.5t-192 50.5q-118 0 -198 -62t-80 -165q0 -63 31 -111t102 -98l119 -80q118 -80 172.5 -164t54.5 -196q0 -130 -72 -230.5t-187.5 -152.5t-250.5 -52z" />
    <glyph glyph-name="scircumflex" unicode="&#x15d;" horiz-adv-x="845" 
d="M381 1133h-191l355 301h153l179 -301h-158l-123 149zM324 -27q-90 0 -178 33t-154 88l45 182h12q40 -70 115.5 -111.5t163.5 -41.5q76 0 127 30t51 91q0 36 -23 64.5t-71 60.5l-105 67q-147 96 -147 246q0 137 111 226t278 89q168 0 289 -79l-47 -191h-11
q-34 58 -95 90.5t-138 32.5q-81 0 -137 -34.5t-56 -92.5q0 -38 23 -66t82 -65l100 -64q74 -47 112 -104t38 -135q0 -138 -109.5 -227t-275.5 -89z" />
    <glyph glyph-name="Scedilla" unicode="&#x15e;" horiz-adv-x="1093" 
d="M778 1450q114 0 217 -31.5t179 -85.5l-60 -239h-10q-42 89 -130 139.5t-192 50.5q-118 0 -198 -62t-80 -165q0 -63 31 -111t102 -98l119 -80q118 -80 172.5 -164t54.5 -196q0 -93 -38 -172.5t-102 -134t-148.5 -87.5t-178.5 -39l-43 -71l2 -2q12 4 29 4q52 0 90.5 -38
t38.5 -101q0 -84 -66.5 -136.5t-167.5 -52.5q-131 0 -215 90l35 78q73 -53 152 -53q51 0 82.5 20t31.5 54q0 27 -23.5 43t-60.5 16q-35 0 -73 -19l-6 3l98 165q-237 15 -410 170l62 240h10q62 -124 167.5 -184t219.5 -60q115 0 195.5 59t80.5 162q0 60 -34 107.5t-111 99.5
l-121 82q-213 146 -213 365q0 126 69.5 226t186 154t256.5 54z" />
    <glyph glyph-name="scedilla" unicode="&#x15f;" horiz-adv-x="845" 
d="M549 997q168 0 289 -79l-47 -191h-11q-34 58 -95 90.5t-138 32.5q-81 0 -137 -34.5t-56 -92.5q0 -38 23 -66t82 -65l100 -64q74 -47 112 -104t38 -135q0 -127 -93.5 -213.5t-240.5 -100.5l-43 -71l2 -2q12 4 28 4q52 0 91 -38t39 -101q0 -84 -66.5 -136.5t-167.5 -52.5
q-131 0 -215 90l35 78q73 -53 151 -53q51 0 83 20t32 54q0 27 -23.5 43t-60.5 16q-36 0 -74 -19l-6 3l99 165q-78 7 -153.5 39t-133.5 80l45 182h12q40 -70 115.5 -111.5t163.5 -41.5q76 0 127 30t51 91q0 36 -23 64.5t-71 60.5l-105 67q-147 96 -147 246q0 137 111 226
t278 89z" />
    <glyph glyph-name="Scaron" unicode="&#x160;" horiz-adv-x="1093" 
d="M1036 1839h191l-355 -301h-155l-176 301h157l123 -149zM473 -27q-272 0 -463 172l62 240h10q62 -124 167.5 -184t219.5 -60q115 0 195.5 59t80.5 162q0 60 -34 107.5t-111 99.5l-121 82q-213 146 -213 365q0 126 69.5 226t186 154t256.5 54q114 0 217 -31.5t179 -85.5
l-60 -239h-10q-42 89 -130 139.5t-192 50.5q-118 0 -198 -62t-80 -165q0 -63 31 -111t102 -98l119 -80q118 -80 172.5 -164t54.5 -196q0 -130 -72 -230.5t-187.5 -152.5t-250.5 -52z" />
    <glyph glyph-name="scaron" unicode="&#x161;" horiz-adv-x="854" 
d="M801 1432h190l-354 -302h-156l-176 302h158l123 -152zM324 -27q-90 0 -178 33t-154 88l45 182h12q40 -70 115.5 -111.5t163.5 -41.5q76 0 127 30t51 91q0 36 -23 64.5t-71 60.5l-105 67q-147 96 -147 246q0 137 111 226t278 89q168 0 289 -79l-47 -191h-11
q-34 58 -95 90.5t-138 32.5q-81 0 -137 -34.5t-56 -92.5q0 -38 23 -66t82 -65l100 -64q74 -47 112 -104t38 -135q0 -138 -109.5 -227t-275.5 -89z" />
    <glyph glyph-name="uni0162" unicode="&#x162;" horiz-adv-x="1257" 
d="M199 1155l67 268h1192l-67 -268h-13q-24 56 -97.5 81.5t-205.5 25.5h-131l-233 -940q-20 -81 -27.5 -131t-3 -97.5t26.5 -83.5v-10h-156l-57 -96l2 -2q12 4 28 4q52 0 90.5 -38t38.5 -101q0 -84 -66 -136.5t-167 -52.5q-131 0 -215 90l35 78q73 -53 151 -53q51 0 83 20
t32 54q0 27 -23.5 43t-60.5 16q-36 0 -74 -19l-6 3l113 190h-140v10q59 53 87.5 118t60.5 194l235 940h-145q-136 0 -216.5 -25t-127.5 -82h-10z" />
    <glyph glyph-name="uni0163" unicode="&#x163;" horiz-adv-x="755" 
d="M791 817h-269l-133 -530q-20 -78 10.5 -114t96.5 -36q61 0 125 25l-3 -121q-92 -68 -212 -68q-40 0 -74 9l-47 -78l2 -2q12 4 28 4q52 0 90.5 -38t38.5 -101q0 -84 -66 -136.5t-167 -52.5q-131 0 -215 90l35 78q73 -53 151 -53q51 0 83 20t32 54q0 27 -23.5 43t-60.5 16
q-36 0 -74 -19l-6 3l123 206q-63 43 -86 121.5t2 190.5l123 489h-195l37 141q55 1 94 6.5t69 20.5t49 32t36 50.5t28 65.5t27 88h183l-62 -250h268z" />
    <glyph glyph-name="Tcaron" unicode="&#x164;" horiz-adv-x="1257" 
d="M1130 1839h191l-354 -301h-156l-176 301h158l122 -149zM315 0v10q59 53 87.5 118t60.5 194l235 940h-145q-136 0 -216.5 -25t-127.5 -82h-10l67 268h1192l-67 -268h-13q-24 56 -97.5 81.5t-205.5 25.5h-131l-233 -940q-20 -81 -27.5 -131t-3 -97.5t26.5 -83.5v-10h-392z
" />
    <glyph glyph-name="tcaron" unicode="&#x165;" horiz-adv-x="755" 
d="M872 1473q49 0 81 -32.5t32 -82.5q0 -61 -67 -150l-123 -159h-109l160 196q-41 6 -67.5 36t-26.5 71q0 52 33 86.5t87 34.5zM440 1221h183l-62 -250h268l-38 -154h-269l-133 -530q-20 -78 10.5 -114t96.5 -36q61 0 125 25l-3 -121q-92 -68 -212 -68q-133 0 -203.5 97
t-30.5 258l123 489h-195l37 141q55 1 94 6.5t69 20.5t49 32t36 50.5t28 65.5t27 88z" />
    <glyph glyph-name="Tbar" unicode="&#x166;" horiz-adv-x="1257" 
d="M199 1155l67 268h1192l-67 -268h-13q-24 56 -97.5 81.5t-205.5 25.5h-131l-106 -431h264l-33 -133h-264l-94 -376q-20 -81 -27.5 -131t-3 -97.5t26.5 -83.5v-10h-392v10q59 53 87.5 118t60.5 194l94 376h-264l33 133h264l108 431h-145q-136 0 -216.5 -25t-127.5 -82h-10z
" />
    <glyph glyph-name="tbar" unicode="&#x167;" horiz-adv-x="772" 
d="M838 971l-39 -154h-269l-57 -231h242l-21 -129h-254l-43 -170q-19 -78 12 -114t95 -36q60 0 127 25l-2 -121q-92 -68 -213 -68q-134 0 -204 96.5t-30 258.5l33 129h-160l19 129h172l57 231h-192l34 141q55 1 94.5 6.5t69.5 20.5t49 32t36.5 51t28 65.5t26.5 87.5h184
l-64 -250h269z" />
    <glyph glyph-name="Utilde" unicode="&#x168;" horiz-adv-x="1529" 
d="M1194 1544q-82 0 -150 62l-36 30q-38 33 -76 33q-79 0 -107 -113h-129q20 129 83 199t153 70q72 0 149 -60l41 -34q36 -31 74 -31q75 0 107 115h129q-20 -130 -83 -200.5t-155 -70.5zM694 -27q-182 0 -307.5 79t-173 226t-0.5 338l125 498q26 106 29.5 172t-19.5 127v10
h373v-10q-51 -49 -80.5 -117t-56.5 -180l-133 -534q-46 -187 27.5 -298.5t252.5 -111.5q172 0 286.5 105.5t162.5 300.5l133 532q52 207 16 303v10h311v-10q-51 -48 -79.5 -116.5t-59.5 -188.5l-135 -547q-148 -588 -672 -588z" />
    <glyph glyph-name="utilde" unicode="&#x169;" horiz-adv-x="1116" 
d="M860 1128q-78 0 -147 62l-39 33q-35 30 -76 30q-75 0 -106 -112h-130q22 129 84 199.5t152 70.5q76 0 150 -61l40 -33q38 -31 74 -31q38 0 64 26.5t43 86.5h129q-20 -129 -83 -200t-155 -71zM354 -27q-135 0 -208 112.5t-29 291.5l84 334q20 79 21.5 127.5t-17.5 95.5v12
l284 31h5l-156 -639q-24 -93 7.5 -143t105.5 -50q82 0 156.5 73t109.5 214l71 281q13 52 18 87t2 70.5t-17 63.5v12l286 31h6l-176 -709q-15 -59 -21 -96.5t-5 -71.5t12 -61v-12l-279 -31h-6l33 129h-10q-120 -152 -277 -152z" />
    <glyph glyph-name="Umacron" unicode="&#x16a;" horiz-adv-x="1529" 
d="M739 1604h650l34 141h-647zM694 -27q-182 0 -307.5 79t-173 226t-0.5 338l125 498q26 106 29.5 172t-19.5 127v10h373v-10q-51 -49 -80.5 -117t-56.5 -180l-133 -534q-46 -187 27.5 -298.5t252.5 -111.5q172 0 286.5 105.5t162.5 300.5l133 532q52 207 16 303v10h311v-10
q-51 -48 -79.5 -116.5t-59.5 -188.5l-135 -547q-148 -588 -672 -588z" />
    <glyph glyph-name="umacron" unicode="&#x16b;" horiz-adv-x="1116" 
d="M391 1188h649l35 139h-647zM354 -27q-135 0 -208 112.5t-29 291.5l84 334q20 79 21.5 127.5t-17.5 95.5v12l284 31h5l-156 -639q-24 -93 7.5 -143t105.5 -50q82 0 156.5 73t109.5 214l71 281q13 52 18 87t2 70.5t-17 63.5v12l286 31h6l-176 -709q-15 -59 -21 -96.5
t-5 -71.5t12 -61v-12l-279 -31h-6l33 129h-10q-120 -152 -277 -152z" />
    <glyph glyph-name="Ubreve" unicode="&#x16c;" horiz-adv-x="1529" 
d="M1049 1540q-127 0 -191 81t-37 220h129q-14 -69 14.5 -110t96.5 -41q130 0 190 151h140q-34 -143 -123.5 -222t-218.5 -79zM694 -27q-182 0 -307.5 79t-173 226t-0.5 338l125 498q26 106 29.5 172t-19.5 127v10h373v-10q-51 -49 -80.5 -117t-56.5 -180l-133 -534
q-46 -187 27.5 -298.5t252.5 -111.5q172 0 286.5 105.5t162.5 300.5l133 532q52 207 16 303v10h311v-10q-51 -48 -79.5 -116.5t-59.5 -188.5l-135 -547q-148 -588 -672 -588z" />
    <glyph glyph-name="ubreve" unicode="&#x16d;" horiz-adv-x="1116" 
d="M709 1133q-125 0 -189.5 81t-38.5 220h131q-15 -69 14 -111.5t95 -42.5q131 0 192 154h138q-32 -142 -122.5 -221.5t-219.5 -79.5zM354 -27q-135 0 -208 112.5t-29 291.5l84 334q20 79 21.5 127.5t-17.5 95.5v12l284 31h5l-156 -639q-24 -93 7.5 -143t105.5 -50
q82 0 156.5 73t109.5 214l71 281q13 52 18 87t2 70.5t-17 63.5v12l286 31h6l-176 -709q-15 -59 -21 -96.5t-5 -71.5t12 -61v-12l-279 -31h-6l33 129h-10q-120 -152 -277 -152z" />
    <glyph glyph-name="Uring" unicode="&#x16e;" horiz-adv-x="1529" 
d="M1077 1503q-91 0 -156 63.5t-65 151.5q0 89 65 153t156 64q95 0 160.5 -63.5t65.5 -153.5q0 -88 -65.5 -151.5t-160.5 -63.5zM1077 1624q40 0 68.5 26.5t28.5 67.5q0 42 -28.5 69.5t-68.5 27.5q-39 0 -65.5 -27.5t-26.5 -69.5q0 -41 26.5 -67.5t65.5 -26.5zM694 -27
q-182 0 -307.5 79t-173 226t-0.5 338l125 498q26 106 29.5 172t-19.5 127v10h373v-10q-51 -49 -80.5 -117t-56.5 -180l-133 -534q-46 -187 27.5 -298.5t252.5 -111.5q172 0 286.5 105.5t162.5 300.5l133 532q52 207 16 303v10h311v-10q-51 -48 -79.5 -116.5t-59.5 -188.5
l-135 -547q-148 -588 -672 -588z" />
    <glyph glyph-name="uring" unicode="&#x16f;" horiz-adv-x="1116" 
d="M727 1083q-92 0 -157.5 63t-65.5 152t65.5 152t157.5 63q93 0 158 -62.5t65 -152.5t-65 -152.5t-158 -62.5zM727 1202q39 0 66.5 27t27.5 69q0 41 -27.5 69t-66.5 28q-40 0 -66 -28t-26 -69q0 -42 26 -69t66 -27zM354 -27q-135 0 -208 112.5t-29 291.5l84 334
q20 79 21.5 127.5t-17.5 95.5v12l284 31h5l-156 -639q-24 -93 7.5 -143t105.5 -50q82 0 156.5 73t109.5 214l71 281q13 52 18 87t2 70.5t-17 63.5v12l286 31h6l-176 -709q-15 -59 -21 -96.5t-5 -71.5t12 -61v-12l-279 -31h-6l33 129h-10q-120 -152 -277 -152z" />
    <glyph glyph-name="Uhungarumlaut" unicode="&#x170;" horiz-adv-x="1529" 
d="M893 1540h-131l168 301h233v-4zM1231 1540h-135l172 301h231v-4zM694 -27q-182 0 -307.5 79t-173 226t-0.5 338l125 498q26 106 29.5 172t-19.5 127v10h373v-10q-51 -49 -80.5 -117t-56.5 -180l-133 -534q-46 -187 27.5 -298.5t252.5 -111.5q172 0 286.5 105.5
t162.5 300.5l133 532q52 207 16 303v10h311v-10q-51 -48 -79.5 -116.5t-59.5 -188.5l-135 -547q-148 -588 -672 -588z" />
    <glyph glyph-name="uhungarumlaut" unicode="&#x171;" horiz-adv-x="1116" 
d="M567 1133h-133l168 301h234v-4zM903 1133h-133l170 301h234v-4zM354 -27q-135 0 -208 112.5t-29 291.5l84 334q20 79 21.5 127.5t-17.5 95.5v12l284 31h5l-156 -639q-24 -93 7.5 -143t105.5 -50q82 0 156.5 73t109.5 214l71 281q13 52 18 87t2 70.5t-17 63.5v12l286 31h6
l-176 -709q-15 -59 -21 -96.5t-5 -71.5t12 -61v-12l-279 -31h-6l33 129h-10q-120 -152 -277 -152z" />
    <glyph glyph-name="Uogonek" unicode="&#x172;" horiz-adv-x="1529" 
d="M627 -420q-84 0 -137.5 52t-53.5 130q0 133 160 213v7q-151 21 -252.5 104t-137 218t6.5 314l123 494q19 72 27 122.5t5 96.5t-20 82v10h373v-10q-51 -48 -79.5 -115t-59.5 -184l-131 -530q-48 -188 26 -300t254 -112q172 0 286.5 105.5t162.5 300.5l133 530
q27 108 30.5 175.5t-16.5 129.5v10h313v-10q-52 -58 -82 -125.5t-57 -181.5l-135 -545q-121 -487 -510 -573q-139 -32 -205.5 -86t-66.5 -113q0 -40 25.5 -64t68.5 -24q46 0 106 33l4 -96q-67 -58 -161 -58z" />
    <glyph glyph-name="uogonek" unicode="&#x173;" horiz-adv-x="1118" 
d="M1077 977h6l-178 -713q-21 -84 -24.5 -131.5t12.5 -93.5v-12l-64 -15q-126 -30 -200 -90.5t-74 -128.5q0 -43 25 -67.5t69 -24.5q49 0 107 33l4 -96q-67 -58 -162 -58q-88 0 -140 53t-52 131q0 157 206 242l29 119h-10q-119 -152 -281 -152q-84 0 -147 49.5t-89 139.5
t3 217l84 332q37 149 4 223v12l284 31h5l-158 -639q-24 -93 8.5 -143t101.5 -50q89 0 163.5 74.5t107.5 206.5l71 285q38 153 3 223v12z" />
    <glyph glyph-name="Wcircumflex" unicode="&#x174;" horiz-adv-x="1976" 
d="M1077 1540h-190l354 301h156l176 -301h-158l-123 152zM344 0l-35 1106q-3 113 -13.5 179.5t-39.5 127.5v10h379v-10q-55 -57 -72.5 -127t-15.5 -178l14 -786h12l510 991l-8 110h283l16 -1093h12l392 768q58 111 79 181.5t7 133.5v10h317v-10q-43 -43 -80.5 -96t-61 -94.5
t-67.5 -124.5l-575 -1098h-232l-16 1075h-12l-559 -1075h-234z" />
    <glyph glyph-name="wcircumflex" unicode="&#x175;" horiz-adv-x="1538" 
d="M739 1133h-190l354 301h154l178 -301h-158l-123 149zM436 303h13l329 588l-6 80h219l41 -676h12l244 442q39 70 51.5 119.5t12.5 106.5v8h278v-10q-48 -44 -84.5 -95t-85.5 -137l-422 -729h-172l-39 680h-12l-393 -680h-168l-57 725q-5 77 -18.5 124.5t-45.5 86.5v12
l270 33l3 -43l12 -262z" />
    <glyph glyph-name="Ycircumflex" unicode="&#x176;" horiz-adv-x="1366" 
d="M1104 1540l-123 152l-215 -152h-191l355 301h155l177 -301h-158zM1245 1417v6h348v-10q-82 -58 -150.5 -127.5t-152.5 -171.5l-469 -553l-63 -254q-50 -191 -10 -297v-10h-371v10q49 47 79 118t58 183l66 260l-187 547q-39 110 -69.5 176t-75.5 119v10h391v-10
q-62 -101 6 -299l119 -354h12l295 358q87 106 130.5 175t43.5 124z" />
    <glyph glyph-name="ycircumflex" unicode="&#x177;" horiz-adv-x="1028" 
d="M819 1133l-123 149l-215 -149h-190l354 301h154l178 -301h-158zM846 961v10h284v-10q-54 -47 -89.5 -95.5t-94.5 -146.5l-524 -862q-97 -162 -192.5 -228.5t-215.5 -66.5q-101 0 -168 45l43 176q69 -27 138 -27q80 0 147.5 39t126.5 139l35 58l-131 731
q-14 78 -31.5 126.5t-52.5 88.5v10l274 33l2 -16q17 -133 39 -271l64 -409h8l264 446q90 150 74 230z" />
    <glyph glyph-name="Ydieresis" unicode="&#x178;" horiz-adv-x="1366" 
d="M737 1559q-55 0 -90 36t-35 91q0 66 45.5 110.5t114.5 44.5q54 0 88.5 -35.5t34.5 -89.5q0 -67 -45 -112t-113 -45zM1145 1559q-55 0 -90 36t-35 91q0 66 46 110.5t114 44.5q55 0 90 -35.5t35 -89.5q0 -67 -46 -112t-114 -45zM1245 1417v6h348v-10q-82 -58 -150.5 -127.5
t-152.5 -171.5l-469 -553l-63 -254q-50 -191 -10 -297v-10h-371v10q49 47 79 118t58 183l66 260l-187 547q-39 110 -69.5 176t-75.5 119v10h391v-10q-62 -101 6 -299l119 -354h12l295 358q87 106 130.5 175t43.5 124z" />
    <glyph glyph-name="Zacute" unicode="&#x179;" horiz-adv-x="1226" 
d="M883 1540h-154l201 301h270v-4zM1024 0h-1071l43 168l1024 1085v7h-418q-124 0 -202.5 -28t-127.5 -91h-10l70 282h1032l-41 -166l-1020 -1085v-8h426q134 0 218 30t138 103h13z" />
    <glyph glyph-name="zacute" unicode="&#x17a;" horiz-adv-x="937" 
d="M643 1133h-154l201 301h271v-4zM508 150h-234v10l652 657l37 154h-754l-55 -221h10q41 43 99.5 58t164.5 15h215v-12l-653 -659l-37 -152h790l60 240h-10q-45 -50 -112.5 -70t-172.5 -20z" />
    <glyph glyph-name="Zdotaccent" unicode="&#x17b;" horiz-adv-x="1226" 
d="M872 1542q-59 0 -97 38.5t-38 94.5q0 70 49 118t121 48q58 0 95.5 -38t37.5 -95q0 -70 -48.5 -118t-119.5 -48zM1024 0h-1071l43 168l1024 1085v7h-418q-124 0 -202.5 -28t-127.5 -91h-10l70 282h1032l-41 -166l-1020 -1085v-8h426q134 0 218 30t138 103h13z" />
    <glyph glyph-name="zdotaccent" unicode="&#x17c;" horiz-adv-x="937" 
d="M633 1137q-58 0 -95.5 38t-37.5 95q0 70 49 117t121 47q58 0 94.5 -37t36.5 -94q0 -71 -48 -118.5t-120 -47.5zM508 150h-234v10l652 657l37 154h-754l-55 -221h10q41 43 99.5 58t164.5 15h215v-12l-653 -659l-37 -152h790l60 240h-10q-45 -50 -112.5 -70t-172.5 -20z
" />
    <glyph glyph-name="Zcaron" unicode="&#x17d;" horiz-adv-x="1226" 
d="M1098 1839h190l-354 -301h-156l-176 301h158l123 -149zM1024 0h-1071l43 168l1024 1085v7h-418q-124 0 -202.5 -28t-127.5 -91h-10l70 282h1032l-41 -166l-1020 -1085v-8h426q134 0 218 30t138 103h13z" />
    <glyph glyph-name="zcaron" unicode="&#x17e;" horiz-adv-x="937" 
d="M850 1432h190l-352 -302h-156l-178 302h158l123 -152zM508 150h-234v10l652 657l37 154h-754l-55 -221h10q41 43 99.5 58t164.5 15h215v-12l-653 -659l-37 -152h790l60 240h-10q-45 -50 -112.5 -70t-172.5 -20z" />
    <glyph glyph-name="uni01E2" unicode="&#x1e2;" horiz-adv-x="1849" 
d="M1208 1745h647l-34 -141h-650zM160 348l823 1075h987l-65 -262h-11q-27 53 -94 76t-201 23h-311l-112 -459h194q215 0 291 73h12l-78 -313h-12q-39 76 -244 76h-204l-119 -473h336q126 0 209.5 28t138.5 97h10l-72 -289h-962v10q53 51 82 118.5t59 184.5l23 90h-424
l-58 -75q-159 -208 -159 -320v-8h-338v10q73 59 139 136t160 202zM541 567h340l159 647h-10z" />
    <glyph glyph-name="uni01E3" unicode="&#x1e3;" horiz-adv-x="1583" 
d="M606 1327h647l-34 -139h-650zM1165 997q186 0 282 -125.5t58 -314.5l-12 -53h-629q-2 -12 -2 -37q0 -152 77.5 -230.5t207.5 -78.5q152 0 283 92l4 -127q-150 -150 -359 -150q-129 0 -233 63.5t-162 180.5h-10q-60 -114 -160.5 -180t-224.5 -66q-114 0 -185 67.5
t-71 174.5q0 122 95.5 192.5t278.5 108.5l236 47l14 57q25 100 -26 154.5t-150 54.5q-143 0 -293 -88v127q75 58 170.5 94.5t188.5 36.5q190 0 278 -131h13q137 131 331 131zM887 635h418q18 97 -25.5 161t-132.5 64q-92 0 -159 -61.5t-101 -163.5zM354 139q47 0 92.5 23.5
t88 82.5t63.5 146l12 49l-153 -41q-101 -25 -153 -59t-52 -96q0 -50 28 -77.5t74 -27.5z" />
    <glyph glyph-name="AEacute" unicode="&#x1fc;" horiz-adv-x="1849" 
d="M1812 1841v-4l-317 -297h-154l201 301h270zM160 348l823 1075h987l-65 -262h-11q-27 53 -94 76t-201 23h-311l-112 -459h194q215 0 291 73h12l-78 -313h-12q-39 76 -244 76h-204l-119 -473h336q126 0 209.5 28t138.5 97h10l-72 -289h-962v10q53 51 82 118.5t59 184.5
l23 90h-424l-58 -75q-159 -208 -159 -320v-8h-338v10q73 59 139 136t160 202zM541 567h340l159 647h-10z" />
    <glyph glyph-name="aeacute" unicode="&#x1fd;" horiz-adv-x="1583" 
d="M1227 1434v-4l-318 -297h-153l200 301h271zM1165 997q186 0 282 -125.5t58 -314.5l-12 -53h-629q-2 -12 -2 -37q0 -152 77.5 -230.5t207.5 -78.5q152 0 283 92l4 -127q-150 -150 -359 -150q-129 0 -233 63.5t-162 180.5h-10q-60 -114 -160.5 -180t-224.5 -66
q-114 0 -185 67.5t-71 174.5q0 122 95.5 192.5t278.5 108.5l236 47l14 57q25 100 -26 154.5t-150 54.5q-143 0 -293 -88v127q75 58 170.5 94.5t188.5 36.5q190 0 278 -131h13q137 131 331 131zM887 635h418q18 97 -25.5 161t-132.5 64q-92 0 -159 -61.5t-101 -163.5z
M354 139q47 0 92.5 23.5t88 82.5t63.5 146l12 49l-153 -41q-101 -25 -153 -59t-52 -96q0 -50 28 -77.5t74 -27.5z" />
    <glyph glyph-name="Oslashacute" unicode="&#x1fe;" horiz-adv-x="1617" 
d="M1366 1841v-4l-317 -297h-154l201 301h270zM1569 1509l98 -94l-197 -196q123 -161 123 -381q0 -173 -61.5 -331t-168.5 -276t-261.5 -188t-329.5 -70q-241 0 -414 133l-192 -192l-96 96l194 195q-125 159 -125 383q0 231 105 427.5t296 315.5t425 119q238 0 411 -133z
M401 571q0 -114 33 -196l795 794q-105 111 -275 111q-98 0 -187 -42t-154.5 -113t-114 -162.5t-73 -192t-24.5 -199.5zM1333 854q0 113 -33 195l-794 -795q103 -109 272 -109q99 0 188 41.5t154.5 112.5t114.5 162t73.5 192t24.5 201z" />
    <glyph glyph-name="oslashacute" unicode="&#x1ff;" horiz-adv-x="1153" 
d="M1059 1434v-4l-318 -297h-153l200 301h271zM1038 1036l90 -88l-122 -123q75 -107 75 -252q0 -166 -73.5 -303t-205 -217t-294.5 -80q-152 0 -268 82l-125 -125l-88 90l125 125q-76 109 -76 254q0 165 73.5 302t205 216.5t294.5 79.5q153 0 269 -82zM313 377q0 -24 4 -64
l469 469q-54 60 -141 60q-76 0 -140.5 -42t-105.5 -110t-63.5 -149.5t-22.5 -163.5zM844 596q0 25 -4 61l-469 -469q50 -59 141 -59q75 0 139.5 42.5t105.5 110t64 149.5t23 165z" />
    <glyph glyph-name="uni0218" unicode="&#x218;" horiz-adv-x="1093" 
d="M778 1450q114 0 217 -31.5t179 -85.5l-60 -239h-10q-42 89 -130 139.5t-192 50.5q-118 0 -198 -62t-80 -165q0 -63 31 -111t102 -98l119 -80q118 -80 172.5 -164t54.5 -196q0 -130 -72 -230.5t-187.5 -152.5t-250.5 -52q-272 0 -463 172l62 240h10q62 -124 167.5 -184
t219.5 -60q115 0 195.5 59t80.5 162q0 60 -34 107.5t-111 99.5l-121 82q-213 146 -213 365q0 126 69.5 226t186 154t256.5 54zM438 -88q52 0 85.5 -34.5t33.5 -86.5q0 -68 -72 -158l-129 -168h-112l164 209q-42 6 -69.5 37.5t-27.5 73.5q0 55 35.5 91t91.5 36z" />
    <glyph glyph-name="uni0219" unicode="&#x219;" horiz-adv-x="845" 
d="M549 997q168 0 289 -79l-47 -191h-11q-34 58 -95 90.5t-138 32.5q-81 0 -137 -34.5t-56 -92.5q0 -38 23 -66t82 -65l100 -64q74 -47 112 -104t38 -135q0 -138 -109.5 -227t-275.5 -89q-90 0 -178 33t-154 88l45 182h12q40 -70 115.5 -111.5t163.5 -41.5q76 0 127 30
t51 91q0 36 -23 64.5t-71 60.5l-105 67q-147 96 -147 246q0 137 111 226t278 89zM297 -88q52 0 85.5 -34.5t33.5 -86.5q0 -68 -72 -158l-129 -168h-113l164 209q-41 6 -68.5 37t-27.5 74q0 55 35.5 91t91.5 36z" />
    <glyph glyph-name="uni021A" unicode="&#x21a;" horiz-adv-x="1257" 
d="M199 1155l67 268h1192l-67 -268h-13q-24 56 -97.5 81.5t-205.5 25.5h-131l-233 -940q-20 -81 -27.5 -131t-3 -97.5t26.5 -83.5v-10h-392v10q59 53 87.5 118t60.5 194l235 940h-145q-136 0 -216.5 -25t-127.5 -82h-10zM459 -88q52 0 85.5 -34.5t33.5 -86.5q0 -68 -72 -158
l-129 -168h-113l164 209q-41 6 -68.5 37t-27.5 74q0 55 35.5 91t91.5 36z" />
    <glyph glyph-name="uni021B" unicode="&#x21b;" horiz-adv-x="755" 
d="M791 817h-269l-133 -530q-20 -78 10.5 -114t96.5 -36q61 0 125 25l-3 -121q-92 -68 -212 -68q-133 0 -203.5 97t-30.5 258l123 489h-195l37 141q55 1 94 6.5t69 20.5t49 32t36 50.5t28 65.5t27 88h183l-62 -250h268zM250 -88q52 0 85.5 -34.5t33.5 -86.5q0 -68 -72 -158
l-129 -168h-113l164 209q-41 6 -68.5 37t-27.5 74q0 55 35.5 91t91.5 36z" />
    <glyph glyph-name="uni0226" unicode="&#x226;" horiz-adv-x="1400" 
d="M973 1542q-59 0 -97 38.5t-38 94.5q0 70 49 118t121 48q58 0 95.5 -38t37.5 -95q0 -70 -48.5 -118t-119.5 -48zM1032 1423l168 -1108q17 -114 34 -181t48 -124v-10h-377v10q47 57 59 134t-3 167l-13 92h-563l-47 -77q-130 -209 -105 -316v-10h-342v10q68 58 123.5 132
t128.5 194l680 1087h209zM836 1130l-349 -563h439l-78 563h-12z" />
    <glyph glyph-name="uni0227" unicode="&#x227;" horiz-adv-x="1177" 
d="M717 1137q-58 0 -95.5 38t-37.5 95q0 70 49 117t121 47q58 0 94.5 -37t36.5 -94q0 -71 -48 -118.5t-120 -47.5zM408 -27q-144 0 -240 115t-96 299q0 116 40.5 227t110 195.5t168.5 136t209 51.5q101 0 177.5 -45t117.5 -123h10l84 142h156l-174 -692
q-23 -91 -25.5 -144.5t12.5 -95.5v-12l-278 -31h-6l33 129h-11q-51 -69 -124 -110.5t-164 -41.5zM494 141q70 0 131 46t98.5 110.5t56.5 138.5l33 129q32 129 -22.5 209t-153.5 80q-97 0 -176 -68.5t-119.5 -169.5t-40.5 -208q0 -122 52 -194.5t141 -72.5z" />
    <glyph glyph-name="uni0232" unicode="&#x232;" horiz-adv-x="1366" 
d="M672 1745h647l-35 -141h-649zM1245 1417v6h348v-10q-82 -58 -150.5 -127.5t-152.5 -171.5l-469 -553l-63 -254q-50 -191 -10 -297v-10h-371v10q49 47 79 118t58 183l66 260l-187 547q-39 110 -69.5 176t-75.5 119v10h391v-10q-62 -101 6 -299l119 -354h12l295 358
q87 106 130.5 175t43.5 124z" />
    <glyph glyph-name="uni0233" unicode="&#x233;" horiz-adv-x="1028" 
d="M385 1327h647l-35 -139h-649zM846 961v10h284v-10q-54 -47 -89.5 -95.5t-94.5 -146.5l-524 -862q-97 -162 -192.5 -228.5t-215.5 -66.5q-101 0 -168 45l43 176q69 -27 138 -27q80 0 147.5 39t126.5 139l35 58l-131 731q-14 78 -31.5 126.5t-52.5 88.5v10l274 33l2 -16
q17 -133 39 -271l64 -409h8l264 446q90 150 74 230z" />
    <glyph glyph-name="uni0237" unicode="&#x237;" horiz-adv-x="532" 
d="M-156 -438q-116 0 -204 57l38 119q56 -27 121 -27q165 0 213 187l203 815q36 139 2 223v10l287 31h6l-266 -1071q-87 -344 -400 -344z" />
    <glyph glyph-name="circumflex" unicode="&#x2c6;" horiz-adv-x="804" 
d="M406 1133h-191l352 301h156l176 -301h-158l-123 149z" />
    <glyph glyph-name="caron" unicode="&#x2c7;" horiz-adv-x="804" 
d="M782 1432h191l-352 -302h-156l-178 302h159l123 -150z" />
    <glyph glyph-name="breve" unicode="&#x2d8;" horiz-adv-x="692" 
d="M516 1133q-126 0 -189.5 81t-37.5 220h129q-14 -69 14.5 -111.5t95.5 -42.5q128 0 193 154h137q-34 -143 -123.5 -222t-218.5 -79z" />
    <glyph glyph-name="dotaccent" unicode="&#x2d9;" horiz-adv-x="362" 
d="M365 1137q-60 0 -98 38t-38 95q0 70 49 117t121 47q58 0 95.5 -37t37.5 -94q0 -70 -48 -118t-119 -48z" />
    <glyph glyph-name="ring" unicode="&#x2da;" horiz-adv-x="544" 
d="M471 1083q-92 0 -156.5 63t-64.5 152t64.5 152t156.5 63q93 0 158 -62.5t65 -152.5t-65 -152.5t-158 -62.5zM471 1202q40 0 67 27t27 69q0 41 -27 69t-67 28q-38 0 -65 -28t-27 -69q0 -42 26.5 -69t65.5 -27z" />
    <glyph glyph-name="ogonek" unicode="&#x2db;" horiz-adv-x="585" 
d="M129 -420q-83 0 -136.5 52t-53.5 130q0 99 85 166.5t226 106.5l94 -35q-258 -93 -258 -211q0 -39 25.5 -63.5t68.5 -24.5q48 0 109 33l2 -96q-71 -58 -162 -58z" />
    <glyph glyph-name="tilde" unicode="&#x2dc;" horiz-adv-x="772" 
d="M711 1128q-81 0 -150 62l-39 33q-35 30 -76 30q-75 0 -106 -112h-129q22 130 83.5 200t151.5 70q76 0 150 -61l41 -33q38 -31 76 -31q36 0 61.5 26.5t42.5 86.5h129q-20 -129 -82.5 -200t-152.5 -71z" />
    <glyph glyph-name="hungarumlaut" unicode="&#x2dd;" horiz-adv-x="784" 
d="M348 1133h-133l168 301h233v-4zM684 1133h-133l170 301h231v-4z" />
    <glyph glyph-name="uni0394" unicode="&#x394;" horiz-adv-x="1273" 
d="M1114 0h-1190l39 162l797 1261h217l176 -1261zM168 172v-10h743v8l-129 963h-10z" />
    <glyph glyph-name="Pi" unicode="&#x3a0;" horiz-adv-x="1454" 
d="M1548 1423v-10q-50 -53 -77.5 -111t-55.5 -167l-209 -840q-26 -103 -26.5 -169t20.5 -116v-10h-371v10q48 53 74.5 111t54.5 170l242 969h-559l-238 -963q-19 -76 -24 -133.5t-0.5 -88t16.5 -65.5v-10h-370v10q46 46 74.5 107t58.5 184l202 821q28 113 31 170.5
t-20 120.5v10h1177z" />
    <glyph glyph-name="uni03A9" unicode="&#x3a9;" horiz-adv-x="1617" 
d="M614 0h-559l27 205h391l2 12q-145 57 -230 185.5t-85 289.5q0 111 36.5 221.5t106.5 206.5t164.5 170t220 117t262.5 43q276 0 451.5 -164t175.5 -418q0 -221 -141.5 -402.5t-368.5 -250.5v-10h348l-24 -205h-594l59 231q132 32 238 130t165.5 235.5t59.5 286.5
q0 184 -99.5 290.5t-271.5 106.5q-95 0 -181 -38.5t-148.5 -103t-109 -146.5t-70 -172t-23.5 -177q0 -155 65.5 -262.5t190.5 -151.5z" />
    <glyph glyph-name="uni03BC" unicode="&#x3bc;" horiz-adv-x="1132" 
d="M-63 -410l280 1127q18 75 19.5 121.5t-17.5 95.5v12l285 31h6l-158 -641q-24 -92 7.5 -141.5t103.5 -49.5q88 0 161.5 73.5t108.5 213.5l70 283q19 77 21 122.5t-17 96.5v12l287 31h6l-176 -707q-15 -60 -21.5 -96t-6 -72t12.5 -63v-12l-278 -31h-6l32 129h-10
q-119 -152 -270 -152q-64 0 -103 31h-4l-43 -168q-23 -92 -23.5 -140t21.5 -95v-11h-288z" />
    <glyph glyph-name="pi" unicode="&#x3c0;" horiz-adv-x="1241" 
d="M1219 817h-224l-133 -530q-19 -79 12.5 -114.5t92.5 -35.5q62 0 129 25l-2 -121q-96 -68 -211 -68q-135 0 -205.5 97t-30.5 258l121 489h-252l-205 -817h-227l203 817h-156l39 154h1087z" />
    <glyph glyph-name="uni0E3F" unicode="&#xe3f;" horiz-adv-x="1316" 
d="M913 719v-12q127 -26 203 -103.5t76 -181.5q0 -129 -77.5 -226.5t-205 -146.5t-284.5 -49h-35l-45 -184h-125l45 184h-422v10q49 48 75 113.5t58 189.5l195 783q18 72 26 119.5t6.5 93.5t-18.5 73v11h428l47 190h125l-49 -197q165 -22 251.5 -106t86.5 -201
q0 -139 -99 -232t-262 -128zM776 1245h-149l-111 -448h148zM1042 1057q0 70 -37.5 115.5t-105.5 62.5l-108 -432q117 15 184 80.5t67 173.5zM479 653l-125 -506h148l127 506h-150zM752 647l-125 -497q148 8 238.5 83.5t90.5 212.5q0 83 -53 134.5t-151 66.5z" />
    <glyph glyph-name="Wgrave" unicode="&#x1e80;" horiz-adv-x="1976" 
d="M1251 1841l74 -301h-133l-180 297v4h239zM344 0l-35 1106q-3 113 -13.5 179.5t-39.5 127.5v10h379v-10q-55 -57 -72.5 -127t-15.5 -178l14 -786h12l510 991l-8 110h283l16 -1093h12l392 768q58 111 79 181.5t7 133.5v10h317v-10q-43 -43 -80.5 -96t-61 -94.5
t-67.5 -124.5l-575 -1098h-232l-16 1075h-12l-559 -1075h-234z" />
    <glyph glyph-name="wgrave" unicode="&#x1e81;" horiz-adv-x="1538" 
d="M928 1434l76 -301h-134l-180 297v4h238zM436 303h13l329 588l-6 80h219l41 -676h12l244 442q39 70 51.5 119.5t12.5 106.5v8h278v-10q-48 -44 -84.5 -95t-85.5 -137l-422 -729h-172l-39 680h-12l-393 -680h-168l-57 725q-5 77 -18.5 124.5t-45.5 86.5v12l270 33l3 -43
l12 -262z" />
    <glyph glyph-name="Wacute" unicode="&#x1e82;" horiz-adv-x="1976" 
d="M1272 1540h-154l201 301h270v-4zM344 0l-35 1106q-3 113 -13.5 179.5t-39.5 127.5v10h379v-10q-55 -57 -72.5 -127t-15.5 -178l14 -786h12l510 991l-8 110h283l16 -1093h12l392 768q58 111 79 181.5t7 133.5v10h317v-10q-43 -43 -80.5 -96t-61 -94.5t-67.5 -124.5
l-575 -1098h-232l-16 1075h-12l-559 -1075h-234z" />
    <glyph glyph-name="wacute" unicode="&#x1e83;" horiz-adv-x="1538" 
d="M946 1133h-153l200 301h271v-4zM436 303h13l329 588l-6 80h219l41 -676h12l244 442q39 70 51.5 119.5t12.5 106.5v8h278v-10q-48 -44 -84.5 -95t-85.5 -137l-422 -729h-172l-39 680h-12l-393 -680h-168l-57 725q-5 77 -18.5 124.5t-45.5 86.5v12l270 33l3 -43l12 -262z
" />
    <glyph glyph-name="Wdieresis" unicode="&#x1e84;" horiz-adv-x="1976" 
d="M1049 1559q-55 0 -90 36t-35 91q0 66 45 110.5t114 44.5q54 0 88.5 -35.5t34.5 -89.5q0 -68 -45 -112.5t-112 -44.5zM1456 1559q-55 0 -90 36t-35 91q0 66 46 110.5t114 44.5q55 0 90 -35.5t35 -89.5q0 -67 -46 -112t-114 -45zM344 0l-35 1106q-3 113 -13.5 179.5
t-39.5 127.5v10h379v-10q-55 -57 -72.5 -127t-15.5 -178l14 -786h12l510 991l-8 110h283l16 -1093h12l392 768q58 111 79 181.5t7 133.5v10h317v-10q-43 -43 -80.5 -96t-61 -94.5t-67.5 -124.5l-575 -1098h-232l-16 1075h-12l-559 -1075h-234z" />
    <glyph glyph-name="wdieresis" unicode="&#x1e85;" horiz-adv-x="1538" 
d="M731 1143q-55 0 -90 36t-35 91q0 66 46 110.5t114 44.5q55 0 90 -35.5t35 -89.5q0 -67 -46 -112t-114 -45zM1141 1143q-55 0 -91 36.5t-36 90.5q0 66 46.5 110.5t115.5 44.5q54 0 88 -35.5t34 -89.5q0 -68 -45 -112.5t-112 -44.5zM436 303h13l329 588l-6 80h219l41 -676
h12l244 442q39 70 51.5 119.5t12.5 106.5v8h278v-10q-48 -44 -84.5 -95t-85.5 -137l-422 -729h-172l-39 680h-12l-393 -680h-168l-57 725q-5 77 -18.5 124.5t-45.5 86.5v12l270 33l3 -43l12 -262z" />
    <glyph glyph-name="uni1E9E" unicode="&#x1e9e;" horiz-adv-x="1478" 
d="M432 1423h1108l-41 -163l-473 -476q149 -28 247.5 -122.5t98.5 -241.5q0 -130 -72.5 -233t-194.5 -158.5t-269 -55.5q-190 0 -322 99l43 135q112 -66 234 -66q143 0 237 80.5t94 208.5q0 114 -78 174t-225 60h-76l37 145l439 444v11h-582l-318 -1264h-303v10
q51 51 81 119.5t59 181.5z" />
    <glyph glyph-name="uni1ECA" unicode="&#x1eca;" horiz-adv-x="651" 
d="M25 0v10q49 51 77.5 118.5t57.5 184.5l198 795q28 115 32 178.5t-19 126.5v10h370v-10q-51 -48 -79 -115t-58 -188l-198 -797q-52 -202 -11 -303v-10h-370zM125 -422q-59 0 -97 38.5t-38 94.5q0 70 49 118t121 48q58 0 95.5 -38t37.5 -95q0 -70 -48.5 -118t-119.5 -48z
" />
    <glyph glyph-name="uni1ECB" unicode="&#x1ecb;" horiz-adv-x="546" 
d="M457 1137q-59 0 -97 37.5t-38 95.5q0 70 49 117t121 47q58 0 95.5 -37t37.5 -94q0 -70 -48.5 -118t-119.5 -48zM516 977l-186 -744q-37 -150 -11 -223v-10h-315v10q35 38 54 85t42 138l121 486q18 73 19 121.5t-17 95.5v10l287 31h6zM74 -422q-59 0 -97 38.5t-38 94.5
q0 70 49 118t121 48q58 0 95.5 -38t37.5 -95q0 -70 -48.5 -118t-119.5 -48z" />
    <glyph glyph-name="uni1ECC" unicode="&#x1ecc;" horiz-adv-x="1617" 
d="M770 -27q-279 0 -455 173t-176 442q0 231 105 427.5t296 315.5t425 119q278 0 453 -172t175 -440q0 -173 -62 -331t-169 -276t-262 -188t-330 -70zM778 145q123 0 229 64t175.5 166.5t109 227.5t39.5 251q0 195 -100.5 310.5t-276.5 115.5q-98 0 -187 -42t-155 -113
t-114.5 -162.5t-73.5 -192t-25 -199.5q0 -198 100.5 -312t278.5 -114zM670 -422q-59 0 -97 38.5t-38 94.5q0 70 49 118t121 48q58 0 95.5 -38t37.5 -95q0 -70 -48.5 -118t-119.5 -48z" />
    <glyph glyph-name="uni1ECD" unicode="&#x1ecd;" horiz-adv-x="1150" 
d="M508 -27q-192 0 -313 120t-121 306q0 165 73.5 302t205.5 216.5t294 79.5q194 0 314 -119t120 -305q0 -166 -73.5 -303t-205 -217t-294.5 -80zM510 129q76 0 140.5 42.5t106 110t64.5 149.5t23 165q0 115 -53.5 180.5t-147.5 65.5q-76 0 -140.5 -42t-105.5 -110
t-63.5 -149.5t-22.5 -163.5q0 -117 52.5 -182.5t146.5 -65.5zM410 -422q-59 0 -97.5 38.5t-38.5 94.5q0 70 49 118t121 48q58 0 96 -38t38 -95q0 -70 -48.5 -118t-119.5 -48z" />
    <glyph glyph-name="uni1EE4" unicode="&#x1ee4;" horiz-adv-x="1529" 
d="M694 -27q-182 0 -307.5 79t-173 226t-0.5 338l125 498q26 106 29.5 172t-19.5 127v10h373v-10q-51 -49 -80.5 -117t-56.5 -180l-133 -534q-46 -187 27.5 -298.5t252.5 -111.5q172 0 286.5 105.5t162.5 300.5l133 532q52 207 16 303v10h311v-10q-51 -48 -79.5 -116.5
t-59.5 -188.5l-135 -547q-148 -588 -672 -588zM602 -422q-59 0 -97 38.5t-38 94.5q0 70 49 118t121 48q58 0 95.5 -38t37.5 -95q0 -70 -48.5 -118t-119.5 -48z" />
    <glyph glyph-name="uni1EE5" unicode="&#x1ee5;" horiz-adv-x="1116" 
d="M354 -27q-135 0 -208 112.5t-29 291.5l84 334q20 79 21.5 127.5t-17.5 95.5v12l284 31h5l-156 -639q-24 -93 7.5 -143t105.5 -50q82 0 156.5 73t109.5 214l71 281q13 52 18 87t2 70.5t-17 63.5v12l286 31h6l-176 -709q-15 -59 -21 -96.5t-5 -71.5t12 -61v-12l-279 -31h-6
l33 129h-10q-120 -152 -277 -152zM383 -422q-59 0 -97 38.5t-38 94.5q0 70 49 118t121 48q58 0 95.5 -38t37.5 -95q0 -70 -48.5 -118t-119.5 -48z" />
    <glyph glyph-name="Ygrave" unicode="&#x1ef2;" horiz-adv-x="1366" 
d="M940 1841l74 -301h-133l-181 297v4h240zM1245 1417v6h348v-10q-82 -58 -150.5 -127.5t-152.5 -171.5l-469 -553l-63 -254q-50 -191 -10 -297v-10h-371v10q49 47 79 118t58 183l66 260l-187 547q-39 110 -69.5 176t-75.5 119v10h391v-10q-62 -101 6 -299l119 -354h12
l295 358q87 106 130.5 175t43.5 124z" />
    <glyph glyph-name="ygrave" unicode="&#x1ef3;" horiz-adv-x="1028" 
d="M670 1434l75 -301h-133l-180 297v4h238zM846 961v10h284v-10q-54 -47 -89.5 -95.5t-94.5 -146.5l-524 -862q-97 -162 -192.5 -228.5t-215.5 -66.5q-101 0 -168 45l43 176q69 -27 138 -27q80 0 147.5 39t126.5 139l35 58l-131 731q-14 78 -31.5 126.5t-52.5 88.5v10
l274 33l2 -16q17 -133 39 -271l64 -409h8l264 446q90 150 74 230z" />
    <glyph glyph-name="uni2002" unicode="&#x2002;" horiz-adv-x="1024" 
 />
    <glyph glyph-name="uni2003" unicode="&#x2003;" horiz-adv-x="2048" 
 />
    <glyph glyph-name="uni2009" unicode="&#x2009;" horiz-adv-x="256" 
 />
    <glyph glyph-name="uni200A" unicode="&#x200a;" horiz-adv-x="86" 
 />
    <glyph glyph-name="endash" unicode="&#x2013;" horiz-adv-x="1093" 
d="M121 489h856l41 160h-858z" />
    <glyph glyph-name="emdash" unicode="&#x2014;" horiz-adv-x="1648" 
d="M121 489h1409l41 160h-1411z" />
    <glyph glyph-name="quoteleft" unicode="&#x2018;" horiz-adv-x="499" 
d="M637 1423l-254 -313q59 -2 97 -41.5t38 -99.5q0 -70 -48.5 -119t-119.5 -49q-69 0 -112 42.5t-43 110.5q0 52 22.5 95.5t75.5 113.5l205 260h139z" />
    <glyph glyph-name="quoteright" unicode="&#x2019;" horiz-adv-x="503" 
d="M477 1452q69 0 111.5 -43t42.5 -111q0 -52 -22 -96t-74 -112l-205 -261h-140l254 314q-60 2 -98.5 42t-38.5 101q0 68 49.5 117t120.5 49z" />
    <glyph glyph-name="quotesinglbase" unicode="&#x201a;" horiz-adv-x="512" 
d="M195 283q67 0 110 -44t43 -110q0 -52 -22.5 -96.5t-73.5 -112.5l-207 -260h-137l254 311q-61 3 -99 42.5t-38 101.5q0 68 49.5 118t120.5 50z" />
    <glyph glyph-name="quotedblleft" unicode="&#x201c;" horiz-adv-x="907" 
d="M633 1421l-252 -311q60 -3 97.5 -42.5t37.5 -100.5q0 -68 -49.5 -118t-120.5 -50q-67 0 -110 43.5t-43 109.5q0 52 22.5 96.5t73.5 112.5l207 260h137zM1044 1421l-253 -311q62 -3 99.5 -42.5t37.5 -100.5q0 -68 -49.5 -118t-120.5 -50q-67 0 -110.5 43.5t-43.5 109.5
q0 52 22.5 96.5t73.5 112.5l207 260h137z" />
    <glyph glyph-name="quotedblright" unicode="&#x201d;" horiz-adv-x="913" 
d="M477 1452q67 0 110.5 -44t43.5 -110q0 -52 -23 -96t-76 -112l-204 -261h-140l254 312q-60 3 -97.5 42.5t-37.5 100.5q0 68 49.5 118t120.5 50zM889 1452q67 0 110 -44t43 -110q0 -53 -23 -97t-75 -111l-205 -261h-139l254 312q-60 3 -97.5 42.5t-37.5 100.5
q0 69 49 118.5t121 49.5z" />
    <glyph glyph-name="quotedblbase" unicode="&#x201e;" horiz-adv-x="923" 
d="M195 283q67 0 110 -44t43 -110q0 -53 -23 -97.5t-75 -111.5l-205 -260h-139l254 311q-60 3 -97.5 43t-37.5 101q0 69 49 118.5t121 49.5zM604 283q68 0 112 -43.5t44 -110.5q0 -52 -22.5 -95.5t-75.5 -113.5l-205 -260h-140l254 311q-60 3 -97.5 43t-37.5 101
q0 69 48.5 118.5t119.5 49.5z" />
    <glyph glyph-name="dagger" unicode="&#x2020;" horiz-adv-x="1060" 
d="M461 -299h-246l360 1290l-395 -37l56 224l376 -37l74 452h246l-152 -452l389 37l-53 -224l-371 37z" />
    <glyph glyph-name="daggerdbl" unicode="&#x2021;" horiz-adv-x="1134" 
d="M504 -299h-248l152 455l-392 -37l54 223l372 -37l54 342l120 344l-391 -37l56 224l372 -37l74 452h246l-150 -452l391 37l-55 -224l-375 37l-53 -344l-119 -342l394 37l-56 -223l-375 37z" />
    <glyph glyph-name="bullet" unicode="&#x2022;" horiz-adv-x="931" 
d="M455 256q-125 0 -200 78t-75 196q0 145 97.5 242.5t238.5 97.5q126 0 202.5 -79.5t76.5 -200.5q0 -144 -98.5 -239t-241.5 -95z" />
    <glyph glyph-name="ellipsis" unicode="&#x2026;" horiz-adv-x="1746" 
d="M162 -27q-63 0 -101 39.5t-38 98.5q0 73 49.5 122.5t120.5 49.5q63 0 101 -40.5t38 -101.5q0 -73 -49.5 -120.5t-120.5 -47.5zM780 -27q-63 0 -101 39.5t-38 98.5q0 73 49 122.5t119 49.5q65 0 103 -40t38 -102q0 -73 -49.5 -120.5t-120.5 -47.5zM1417 -27
q-63 0 -101 39.5t-38 98.5q0 73 49 122.5t119 49.5q65 0 103 -40t38 -102q0 -73 -49.5 -120.5t-120.5 -47.5z" />
    <glyph glyph-name="perthousand" unicode="&#x2030;" horiz-adv-x="2228" 
d="M496 684q-125 0 -208 87t-83 233q0 108 48 208t141 166t208 66q125 0 210 -87.5t85 -232.5q0 -107 -49 -207t-143 -166.5t-209 -66.5zM162 0l1325 1423h196l-1327 -1423h-194zM594 1307q-62 0 -110.5 -55t-70.5 -127.5t-22 -143.5q0 -77 30.5 -118.5t82.5 -41.5
q62 0 111.5 54.5t72.5 127.5t23 142q0 77 -32 119.5t-85 42.5zM1849 743q126 0 210.5 -87t84.5 -232q0 -107 -49 -207t-143 -166.5t-209 -66.5q-148 0 -230 114q-114 -114 -266 -114q-125 0 -208 86.5t-83 232.5q0 108 48.5 208t141.5 166t208 66q71 0 131 -29t100 -83
q112 112 264 112zM1255 121q62 0 111.5 54.5t72.5 127t23 141.5q0 78 -32 120t-84 42q-62 0 -110.5 -54.5t-70.5 -127t-22 -143.5q0 -77 30 -118.5t82 -41.5zM1751 121q62 0 111.5 54.5t72.5 127t23 141.5q0 77 -32 119.5t-85 42.5q-62 0 -110.5 -54.5t-70.5 -127
t-22 -143.5q0 -77 30.5 -118.5t82.5 -41.5z" />
    <glyph glyph-name="guilsinglleft" unicode="&#x2039;" horiz-adv-x="774" 
d="M569 10l-161 -24l-322 518l549 481l178 -37l-465 -475z" />
    <glyph glyph-name="guilsinglright" unicode="&#x203a;" horiz-adv-x="774" 
d="M207 954l160 23l321 -518l-549 -479l-178 36l465 476z" />
    <glyph glyph-name="uni203D" unicode="&#x203d;" horiz-adv-x="1030" 
d="M1075 1075q0 -92 -38 -170.5t-106 -135.5t-155 -98t-192 -65l-54 -186h-155l184 844q-165 -2 -311 -113l-8 139q170 160 401 160q186 0 310 -107t124 -268zM754 1217l-127 -453q225 91 225 274q0 116 -98 179zM418 283q63 0 101 -40.5t38 -101.5q0 -73 -49.5 -120.5
t-120.5 -47.5q-63 0 -101 39.5t-38 98.5q0 73 49.5 122.5t120.5 49.5z" />
    <glyph glyph-name="fraction" unicode="&#x2044;" horiz-adv-x="407" 
d="M1026 1423h-195l-1327 -1423h195z" />
    <glyph glyph-name="uni2070" unicode="&#x2070;" horiz-adv-x="985" 
d="M623 793q-162 0 -262.5 108t-100.5 279q0 150 64 273.5t176.5 195t249.5 71.5q162 0 264 -107t102 -274q0 -151 -64 -276t-177.5 -197.5t-251.5 -72.5zM627 946q83 0 149 62t99.5 154t33.5 192q0 103 -44.5 159t-123.5 56q-81 0 -145.5 -62t-96.5 -154t-32 -192
q0 -104 43 -159.5t117 -55.5z" />
    <glyph glyph-name="uni2074" unicode="&#x2074;" horiz-adv-x="880" 
d="M731 821h-180l51 207h-426l33 131l598 541h143l-127 -512h189l-39 -160h-191zM414 1194v-6h227l68 268h-9z" />
    <glyph glyph-name="uni2075" unicode="&#x2075;" horiz-adv-x="759" 
d="M469 793q-92 0 -172.5 38.5t-136.5 108.5l47 92q98 -88 221 -88q98 0 156.5 43t58.5 115q0 62 -45.5 95.5t-120.5 33.5q-97 0 -192 -57h-4l196 518h500l-45 -183h-400l-69 -180h10q54 35 125 35q95 0 163 -68.5t68 -181.5q0 -137 -102 -229t-258 -92z" />
    <glyph glyph-name="uni2076" unicode="&#x2076;" horiz-adv-x="829" 
d="M569 793q-115 0 -194.5 66.5t-108.5 174.5q-32 128 7 272t135 246q160 168 372 168q141 0 238 -73l-33 -99q-81 43 -182 43q-128 0 -219 -78.5t-119 -214.5h8q78 88 197 88q104 0 178 -74.5t74 -183.5q0 -146 -101.5 -240.5t-251.5 -94.5zM561 913q75 0 124.5 57
t49.5 138q0 64 -38 103.5t-97 39.5q-62 0 -108.5 -38.5t-55.5 -96.5l-4 -18q-12 -75 24 -130t105 -55z" />
    <glyph glyph-name="uni2077" unicode="&#x2077;" horiz-adv-x="747" 
d="M965 1536l-533 -715h-262v4l610 674v8h-475l47 185h652z" />
    <glyph glyph-name="uni2078" unicode="&#x2078;" horiz-adv-x="851" 
d="M545 793q-152 0 -243 71t-91 183q0 96 70.5 162t199.5 89v7q-129 52 -129 165q0 109 96.5 179.5t245.5 70.5q133 0 216 -66t83 -161q0 -81 -60.5 -140.5t-166.5 -84.5v-6q76 -22 120 -72.5t44 -118.5q0 -127 -108.5 -202.5t-276.5 -75.5zM649 1333q68 0 113 47t45 111
q0 48 -30.5 77t-82.5 29q-67 0 -111 -46t-44 -109q0 -48 30 -78.5t80 -30.5zM545 918q81 0 139.5 52t58.5 128q0 57 -41 92t-108 35q-82 0 -138.5 -51t-56.5 -127q0 -58 40 -93.5t106 -35.5z" />
    <glyph glyph-name="uni2079" unicode="&#x2079;" horiz-adv-x="829" 
d="M651 1722q115 0 194.5 -67.5t108.5 -175.5q32 -128 -6.5 -272t-134.5 -246q-160 -168 -373 -168q-68 0 -131.5 20t-105.5 53l33 99q81 -43 180 -43q130 0 221 78t119 214h-8q-78 -88 -199 -88q-104 0 -177 74.5t-73 185.5q0 145 101.5 240.5t250.5 95.5zM659 1599
q-75 0 -124.5 -56.5t-49.5 -137.5q0 -63 38.5 -103t97.5 -40q62 0 107 39t56 96l4 20q12 75 -24 128.5t-105 53.5z" />
    <glyph glyph-name="uni2080" unicode="&#x2080;" horiz-adv-x="987" 
d="M360 -254q-161 0 -261.5 108t-100.5 279q0 150 63.5 274t176.5 195.5t251 71.5q161 0 263 -107.5t102 -273.5q0 -151 -64.5 -276.5t-178 -198t-251.5 -72.5zM367 -100q83 0 148.5 61.5t98.5 153.5t33 192q0 103 -44.5 159t-121.5 56q-81 0 -146 -61.5t-97.5 -153.5
t-32.5 -192q0 -104 43.5 -159.5t118.5 -55.5z" />
    <glyph glyph-name="uni2081" unicode="&#x2081;" horiz-adv-x="724" 
d="M369 -225h-193l125 501h-297l29 115q186 8 270 61.5t133 200.5h150z" />
    <glyph glyph-name="uni2082" unicode="&#x2082;" horiz-adv-x="780" 
d="M524 -225h-620l35 145l276 170q58 37 93 62.5t72.5 59.5t55 69t17.5 73q0 72 -51 112t-130 40q-103 0 -198 -64l-8 119q122 113 278 113q129 0 218 -79t89 -196q0 -61 -21 -112.5t-63 -94.5t-86.5 -75.5t-109.5 -69.5l-133 -80v-6h331z" />
    <glyph glyph-name="uni2083" unicode="&#x2083;" horiz-adv-x="768" 
d="M219 -254q-97 0 -177.5 41t-135.5 107l47 92q102 -88 225 -88q90 0 147.5 40t57.5 109q0 114 -188 117l26 108l230 181v10h-369l47 182h600l-37 -141l-305 -244v-6q84 -25 131 -82t47 -133q0 -88 -49.5 -156t-127.5 -102.5t-169 -34.5z" />
    <glyph glyph-name="uni2084" unicode="&#x2084;" horiz-adv-x="880" 
d="M469 -225h-180l51 207h-426l33 131l598 540h143l-127 -512h189l-39 -159h-191zM152 147v-6h229l68 269h-11z" />
    <glyph glyph-name="uni2085" unicode="&#x2085;" horiz-adv-x="759" 
d="M207 -254q-91 0 -172 39t-137 109l47 92q101 -88 221 -88q99 0 158 42.5t59 114.5q0 62 -45.5 95.5t-120.5 33.5q-97 0 -192 -57h-7l199 518h500l-47 -182h-398l-69 -180h8q56 34 125 34q95 0 164 -68.5t69 -180.5q0 -138 -102.5 -230t-259.5 -92z" />
    <glyph glyph-name="uni2086" unicode="&#x2086;" horiz-adv-x="829" 
d="M307 -256q-115 0 -194.5 67t-108.5 175q-32 128 6.5 272t134.5 246q160 168 373 168q67 0 130.5 -20.5t107.5 -53.5l-33 -98q-81 43 -182 43q-128 0 -219 -78.5t-119 -214.5h8q78 88 197 88q104 0 177.5 -74.5t73.5 -183.5q0 -146 -101.5 -241t-250.5 -95zM299 -135
q75 0 124.5 56.5t49.5 137.5q0 64 -38 104t-97 40q-62 0 -108.5 -38.5t-55.5 -96.5l-4 -19q-12 -75 24 -129.5t105 -54.5z" />
    <glyph glyph-name="uni2087" unicode="&#x2087;" horiz-adv-x="747" 
d="M702 489l-530 -714h-264v4l612 674v8h-475l45 184h653z" />
    <glyph glyph-name="uni2088" unicode="&#x2088;" horiz-adv-x="851" 
d="M283 -256q-152 0 -243 71t-91 183q0 96 71 162.5t199 89.5v6q-129 52 -129 166q0 109 96.5 179.5t245.5 70.5q133 0 216 -66.5t83 -161.5q0 -81 -60.5 -140.5t-166.5 -84.5v-6q76 -22 120 -72t44 -118q0 -128 -108.5 -203.5t-276.5 -75.5zM387 285q68 0 113 46.5
t45 110.5q0 48 -30.5 77.5t-82.5 29.5q-67 0 -111.5 -46.5t-44.5 -109.5q0 -48 30.5 -78t80.5 -30zM283 -131q81 0 139.5 52t58.5 128q0 57 -41 92t-108 35q-82 0 -138.5 -51t-56.5 -127q0 -58 40 -93.5t106 -35.5z" />
    <glyph glyph-name="uni2089" unicode="&#x2089;" horiz-adv-x="829" 
d="M389 674q115 0 194.5 -67.5t108.5 -176.5q34 -128 -5 -271.5t-136 -246.5q-157 -168 -373 -168q-66 0 -129.5 20.5t-107.5 53.5l34 98q81 -43 181 -43q128 0 220 78.5t120 214.5h-11q-78 -88 -196 -88q-104 0 -178 74.5t-74 185.5q0 145 101.5 240.5t250.5 95.5zM397 551
q-75 0 -124.5 -57t-49.5 -138q0 -63 38 -103t97 -40q63 0 109 39t57 96l2 21q14 75 -23 128.5t-106 53.5z" />
    <glyph glyph-name="uni20A6" unicode="&#x20a6;" horiz-adv-x="1327" 
d="M1083 1382v11h281v-11q-48 -39 -74 -102t-57 -186l-78 -316h172l-35 -137h-172l-157 -641h-215l-103 641h-194l-82 -326q-27 -112 -31.5 -178.5t16.5 -126.5v-10h-278v10q47 50 74.5 116.5t56.5 184.5l82 330h-172l35 137h172l131 520l-21 91v4h275l96 -615h190l80 316
q19 74 26.5 124.5t3.5 92.5t-22 71zM563 1092l-78 -314h138l-50 314h-10zM872 336h13l76 305h-136z" />
    <glyph glyph-name="uni20A9" unicode="&#x20a9;" horiz-adv-x="2123" 
d="M1925 1382v11h301v-11q-31 -23 -57 -50.5t-54 -72.5t-43.5 -72.5t-50.5 -92.5l-98 -185h188l-36 -137h-226l-80 -149h269l-35 -136h-307l-260 -487h-203l-8 1083h-11l-552 -1083h-207l-23 487h-309l35 136h268l-8 149h-223l34 137h183l-9 189q-7 120 -17 177.5t-38 106.5
v11h354v-11q-55 -51 -69.5 -112t-9.5 -170l30 -793h9l497 981l-6 105h262l12 -1080h9l411 779q58 112 78.5 179t-0.5 111z" />
    <glyph glyph-name="uni20AA" unicode="&#x20aa;" horiz-adv-x="1492" 
d="M262 0h-199l349 1393h272q109 0 197.5 -31t149 -93t79 -155.5t-11.5 -218.5l-137 -555h-185l139 563q45 178 -15.5 260t-223.5 82h-103zM1188 0h-273q-109 0 -196.5 31t-147.5 93.5t-79 156.5t10 219l137 553h184l-139 -564q-45 -178 17 -260t225 -82h100l311 1246h199z
" />
    <glyph glyph-name="Euro" unicode="&#x20ac;" horiz-adv-x="1355" 
d="M1087 1419q191 0 336 -86l-57 -231h-10q-42 74 -115.5 113.5t-163.5 39.5q-163 0 -288.5 -93t-196.5 -247h637l-37 -141h-647q-18 -66 -25 -156h631l-35 -141h-590q24 -153 117.5 -231t239.5 -78q169 0 309 100l6 -137q-72 -75 -169 -116.5t-204 -41.5
q-219 0 -361.5 138.5t-164.5 365.5h-197l35 141h160q7 92 22 156h-143l35 141h151q92 228 283 366t442 138z" />
    <glyph glyph-name="uni20B4" unicode="&#x20b4;" horiz-adv-x="1275" 
d="M1163 920h117l-35 -142h-1073l35 142h725q92 69 92 163q0 75 -64.5 123.5t-166.5 48.5q-101 0 -195 -45t-164 -129h-10l63 254q150 84 342 84q190 0 294 -90t104 -221q0 -108 -64 -188zM233 483h-137l35 142h1073l-35 -142h-706q-82 -67 -82 -157q0 -89 70 -138t176 -49
q237 0 438 223h10l-65 -266q-188 -123 -414 -123q-189 0 -305.5 92t-116.5 236q0 106 59 182z" />
    <glyph glyph-name="uni20B8" unicode="&#x20b8;" horiz-adv-x="1275" 
d="M1364 1249h-1102l37 144h1102zM471 322l166 667h-119q-128 0 -205.5 -24.5t-128.5 -77.5h-12l61 246h1102l-61 -246h-12q-25 54 -93 78t-196 24h-111l-166 -667q-28 -109 -31 -181t19 -131v-10h-358v10q53 56 84.5 125.5t60.5 186.5z" />
    <glyph glyph-name="uni20B9" unicode="&#x20b9;" horiz-adv-x="1148" 
d="M1294 1393l-32 -138h-396v-10q126 -66 150 -196h194l-36 -138h-162q-25 -103 -108 -181.5t-198.5 -119.5t-244.5 -41h-33v-10l449 -557v-2h-277l-455 578l33 127h203q160 0 264.5 53t134.5 153h-551l35 138h524q-18 104 -100.5 155t-212.5 51h-160l35 138h944z" />
    <glyph glyph-name="uni20BA" unicode="&#x20ba;" horiz-adv-x="1269" 
d="M977 582h237q-56 -292 -253.5 -437t-546.5 -145h-295v10q36 34 62.5 87t39 97t33.5 130l47 188l-197 -53l35 143l199 53l41 164l-199 -53l35 143l199 54l30 120q19 71 27.5 122t6.5 94.5t-17 72.5v21h344v-21q-44 -39 -75 -108.5t-58 -176.5l-15 -59l517 139l-35 -143
l-518 -139l-39 -164l514 139l-37 -143l-514 -139l-105 -422q234 0 365.5 106.5t171.5 319.5z" />
    <glyph glyph-name="uni20BD" unicode="&#x20bd;" horiz-adv-x="1265" 
d="M705 586h-193l-37 -150h434l-35 -137h-432q-50 -194 -6 -289v-10h-350v10q48 47 75.5 111.5t55.5 177.5h-164l33 137h164l164 656q18 73 26 124t6 95t-18 71v11h389q212 0 343.5 -103t131.5 -264q0 -143 -76.5 -243.5t-207 -148.5t-303.5 -48zM797 1243h-121l-127 -508
h133q175 0 276 78t101 219q0 100 -71 155.5t-191 55.5z" />
    <glyph glyph-name="uni20BF" unicode="&#x20bf;" horiz-adv-x="1323" 
d="M915 719v-12q126 -27 202.5 -103.5t76.5 -181.5q0 -120 -66.5 -212.5t-178 -144t-253.5 -63.5l-47 -186h-127l47 184h-120l-48 -184h-127l48 184h-277v10q51 49 77 112.5t58 190.5l195 785q17 70 25 119t6 94t-19 71v11h266l47 190h127l-47 -190h62q39 0 57 -2l47 192
h127l-51 -213q123 -33 188.5 -111t65.5 -178q0 -140 -97 -232.5t-264 -129.5zM803 1243h-170l-111 -444h193q149 0 239 67t90 191q0 92 -63 139t-178 47zM362 150h230q162 0 264 75t102 219q0 100 -77 153.5t-213 53.5h-181z" />
    <glyph glyph-name="uni2116" unicode="&#x2116;" horiz-adv-x="2496" 
d="M45 0v10q51 50 81 120t60 187l252 1022l-26 80v4h331l408 -1110h12l201 799q26 108 30 174.5t-18 128.5v8h312v-8q-48 -51 -79 -121t-61 -184l-276 -1110h-244l-436 1161h-10l-209 -842q-55 -217 -15 -309v-10h-313zM1962 285q-163 0 -266 102.5t-103 265.5q0 137 66 255
t183 188.5t257 70.5q161 0 264 -103.5t103 -266.5q0 -137 -65 -254.5t-181.5 -187.5t-257.5 -70zM1970 430q82 0 150 60t103.5 148.5t35.5 180.5q0 91 -46 146t-124 55q-82 0 -150.5 -59.5t-104.5 -148t-36 -179.5q0 -92 47 -147.5t125 -55.5zM1505 0h701l37 152h-699z" />
    <glyph glyph-name="uni2117" unicode="&#x2117;" horiz-adv-x="1769" 
d="M946 -29q-212 0 -383.5 98.5t-268.5 271.5t-97 386q0 214 97 387t268.5 271t383.5 98q159 0 298.5 -57.5t238.5 -157.5t156 -240.5t57 -300.5q0 -213 -97 -386t-269 -271.5t-384 -98.5zM946 106q262 0 431 175.5t169 447.5t-169 446.5t-431 174.5q-174 0 -311.5 -79.5
t-214 -221t-76.5 -320.5t76.5 -321t214 -222t311.5 -80zM995 621h-110v-142q0 -89 37 -129v-10h-240v10q31 39 31 129v498q0 97 -31 131v10h311q66 0 122.5 -14.5t102 -43t71.5 -77t26 -111.5q0 -122 -91.5 -186.5t-228.5 -64.5zM961 1008h-76v-277h76q80 0 126 35.5
t46 105.5q0 136 -172 136z" />
    <glyph glyph-name="trademark" unicode="&#x2122;" horiz-adv-x="1787" 
d="M395 883l107 432h-58q-113 0 -174 -64h-10l43 172h621l-41 -172h-11q-28 64 -145 64h-57l-109 -434q-26 -107 -14 -172v-9h-225v9q26 33 42 71.5t31 102.5zM887 879l96 381q15 63 16.5 96t-8.5 59v8h234l75 -505h9l323 505h252v-8q-22 -25 -35.5 -58t-31.5 -102l-95 -378
q-25 -99 -12 -168v-9h-217v9q47 65 70 168l88 354h-9l-342 -531h-112l-80 521h-8l-86 -344q-23 -100 -10 -168v-9h-185v9q41 57 68 170z" />
    <glyph glyph-name="uni2126" unicode="&#x2126;" horiz-adv-x="1638" 
d="M633 0h-559l24 205h391l3 12q-143 57 -228.5 185.5t-85.5 289.5q0 111 36.5 221.5t107 206.5t165 170t220 117t262.5 43q182 0 324.5 -74.5t221 -207.5t78.5 -300q0 -221 -141 -402.5t-367 -250.5v-10h349l-25 -205h-594l57 231q132 32 238 130t165.5 235.5t59.5 286.5
q0 184 -99 290.5t-269 106.5q-96 0 -182 -38.5t-149 -103t-109 -146.5t-69.5 -172t-23.5 -177q0 -156 64.5 -263t189.5 -151z" />
    <glyph glyph-name="uni2153" unicode="&#x2153;" horiz-adv-x="2035" 
d="M565 594h-184l119 477h-281l27 111q176 6 257 58t128 192h141zM1849 1423h-194l-1327 -1423h194zM1540 -27q-92 0 -169.5 39t-127.5 101l45 88q98 -84 215 -84q85 0 140 38t55 103q0 110 -180 113l26 102l217 172v10h-350l45 174h569l-32 -135l-291 -231v-6
q79 -23 123.5 -78t44.5 -127q0 -126 -97.5 -202.5t-232.5 -76.5z" />
    <glyph glyph-name="uni2154" unicode="&#x2154;" horiz-adv-x="2000" 
d="M700 596h-589l32 139l263 162q112 70 168.5 126t56.5 126q0 68 -47.5 105.5t-122.5 37.5q-105 0 -189 -61l-8 112q50 49 119 79t145 30q124 0 208.5 -75t84.5 -187q0 -58 -20 -107t-60.5 -90.5t-82.5 -72t-103 -66.5l-127 -74v-8h315zM1831 1423h-195l-1327 -1423h195z
M1522 -27q-92 0 -169 39t-126 101l43 88q98 -84 215 -84q85 0 139.5 38t54.5 103q0 110 -178 113l25 102l217 172v10h-350l45 174h571l-35 -135l-291 -231v-6q79 -23 124.5 -78t45.5 -127q0 -126 -97.5 -202.5t-233.5 -76.5z" />
    <glyph glyph-name="uni2155" unicode="&#x2155;" horiz-adv-x="2041" 
d="M565 594h-184l119 477h-281l27 111q176 6 257 58t128 192h141zM1849 1423h-194l-1327 -1423h194zM1540 -27q-87 0 -164.5 37t-130.5 103l45 88q94 -84 211 -84q94 0 150.5 41t56.5 108q0 60 -44 91.5t-116 31.5q-91 0 -182 -53h-6l190 493h475l-45 -174h-378l-66 -172h8
q51 33 119 33q91 0 156 -64.5t65 -172.5q0 -131 -97 -218.5t-247 -87.5z" />
    <glyph glyph-name="uni2156" unicode="&#x2156;" horiz-adv-x="2002" 
d="M698 596h-589l34 139l260 162q114 71 171 127t57 125q0 68 -48.5 105.5t-123.5 37.5q-102 0 -189 -61l-8 112q118 109 266 109q124 0 208.5 -75t84.5 -187q0 -58 -20 -107t-60.5 -90.5t-83 -72t-104.5 -66.5l-125 -74v-8h313zM1831 1423h-197l-1325 -1423h195zM1520 -27
q-87 0 -163.5 37t-129.5 103l43 88q94 -84 211 -84q94 0 150.5 41t56.5 108q0 60 -44 91.5t-116 31.5q-91 0 -182 -53h-5l189 493h475l-43 -174h-381l-65 -172h8q51 33 118 33q92 0 157 -64.5t65 -172.5q0 -131 -97 -218.5t-247 -87.5z" />
    <glyph glyph-name="uni2157" unicode="&#x2157;" horiz-adv-x="1982" 
d="M414 569q-92 0 -169.5 39t-127.5 101l45 88q94 -84 213 -84q85 0 139.5 38t54.5 103q0 110 -178 113l25 102l219 172v10h-350l43 174h571l-35 -135l-289 -231v-6q79 -23 123.5 -78t44.5 -127q0 -126 -97 -202.5t-232 -76.5zM1806 1423h-196l-1325 -1423h194zM1497 -27
q-89 0 -165.5 36.5t-129.5 103.5l45 88q94 -84 211 -84q94 0 149.5 40.5t55.5 108.5q0 60 -43.5 91.5t-114.5 31.5q-95 0 -182 -53h-6l188 493h475l-43 -174h-378l-68 -172h10q48 33 119 33q91 0 156 -64.5t65 -172.5q0 -131 -97.5 -218.5t-246.5 -87.5z" />
    <glyph glyph-name="uni2158" unicode="&#x2158;" horiz-adv-x="2170" 
d="M674 594h-172l49 197h-406l31 124l569 517h138l-121 -490h180l-39 -151h-180zM1974 1423h-194l-1325 -1423h194zM371 950v-8h217l65 256h-8zM1665 -27q-87 0 -164.5 37t-130.5 103l45 88q94 -84 211 -84q94 0 149.5 40.5t55.5 108.5q0 60 -43.5 91.5t-114.5 31.5
q-95 0 -182 -53h-6l188 493h475l-43 -174h-379l-65 -172h8q48 33 119 33q91 0 156 -64.5t65 -172.5q0 -131 -97 -218.5t-247 -87.5z" />
    <glyph glyph-name="uni2159" unicode="&#x2159;" horiz-adv-x="2101" 
d="M565 594h-184l119 477h-281l27 111q176 6 257 58t128 192h141zM1849 1423h-194l-1327 -1423h194zM1632 -29q-110 0 -186 64t-103 168q-32 122 5 258.5t129 234.5q154 160 356 160q63 0 123.5 -19.5t101.5 -50.5l-30 -94q-74 41 -173 41q-123 0 -210 -74.5t-113 -203.5h8
q74 84 189 84q98 0 167.5 -71.5t69.5 -176.5q0 -137 -96.5 -228.5t-237.5 -91.5zM1624 88q72 0 119 54t47 132q0 60 -36.5 98t-92.5 38q-59 0 -103 -37t-55 -92l-2 -19q-12 -72 22.5 -123t100.5 -51z" />
    <glyph glyph-name="uni215A" unicode="&#x215a;" horiz-adv-x="2050" 
d="M406 567q-87 0 -163.5 37t-129.5 103l45 88q94 -84 211 -84q92 0 148 41t56 108q0 60 -43 91.5t-114 31.5q-94 0 -185 -53h-4l189 493h475l-43 -174h-379l-68 -172h9q51 33 118 33q92 0 158 -65t66 -173q0 -131 -98 -218t-248 -87zM1808 1423h-194l-1325 -1423h194z
M1589 -29q-110 0 -186 64t-103 168q-31 122 6.5 258.5t129.5 234.5q151 160 354 160q63 0 124 -19t103 -51l-32 -94q-74 41 -173 41q-123 0 -210 -74.5t-113 -203.5h8q74 84 189 84q99 0 169 -71.5t70 -176.5q0 -137 -97 -228.5t-239 -91.5zM1581 88q72 0 119 54t47 132
q0 60 -36.5 98t-92.5 38q-59 0 -103 -37t-53 -92l-4 -19q-12 -72 22.5 -123t100.5 -51z" />
    <glyph glyph-name="oneeighth" unicode="&#x215b;" horiz-adv-x="2123" 
d="M565 594h-184l119 477h-281l27 111q176 6 257 58t128 192h141zM1849 1423h-194l-1327 -1423h194zM1618 -27q-145 0 -231.5 67.5t-86.5 174.5q0 91 67.5 154.5t188.5 85.5v6q-120 48 -120 157q0 104 92 171t233 67q126 0 204.5 -62.5t78.5 -154.5q0 -77 -57 -134t-158 -79
v-8q72 -21 114 -68t42 -112q0 -121 -103.5 -193t-263.5 -72zM1716 487q65 0 108.5 44.5t43.5 105.5q0 46 -29.5 74t-79.5 28q-63 0 -105 -44t-42 -105q0 -45 28.5 -74t75.5 -29zM1620 90q76 0 131 50.5t55 121.5q0 55 -39 88t-102 33q-78 0 -132 -48t-54 -120
q0 -57 38.5 -91t102.5 -34z" />
    <glyph glyph-name="threeeighths" unicode="&#x215c;" horiz-adv-x="2076" 
d="M420 569q-92 0 -169.5 39t-127.5 101l45 88q94 -84 213 -84q85 0 139.5 38t54.5 103q0 110 -178 113l25 102l219 172v10h-350l43 174h571l-35 -135l-288 -231v-6q79 -23 123.5 -78t44.5 -127q0 -126 -97.5 -202.5t-232.5 -76.5zM1812 1423h-196l-1325 -1423h194z
M1581 -27q-146 0 -232.5 67.5t-86.5 174.5q0 91 68 154.5t190 85.5v6q-121 48 -121 157q0 104 91.5 171t233.5 67q126 0 204.5 -62.5t78.5 -154.5q0 -77 -57.5 -134t-157.5 -79v-8q72 -21 114 -68t42 -112q0 -121 -103.5 -193t-263.5 -72zM1679 487q65 0 108.5 44.5
t43.5 105.5q0 46 -30 74t-79 28q-64 0 -105.5 -43.5t-41.5 -105.5q0 -45 28.5 -74t75.5 -29zM1581 90q76 0 132 50.5t56 121.5q0 55 -39 88t-102 33q-78 0 -132 -48t-54 -120q0 -57 38 -91t101 -34z" />
    <glyph glyph-name="fiveeighths" unicode="&#x215d;" horiz-adv-x="2078" 
d="M410 567q-87 0 -163.5 37t-129.5 103l45 88q94 -84 211 -84q92 0 148.5 41t56.5 108q0 60 -43 91.5t-115 31.5q-93 0 -184 -53h-5l189 493h475l-43 -174h-379l-67 -172h8q51 33 118 33q92 0 158 -65t66 -173q0 -131 -98 -218t-248 -87zM1812 1423h-196l-1325 -1423h194z
M1579 -27q-144 0 -230.5 67.5t-86.5 174.5q0 91 68 154.5t190 85.5v6q-123 49 -123 157q0 104 92 171t233 67q126 0 205.5 -63t79.5 -154q0 -77 -57.5 -134t-157.5 -79v-8q72 -21 113 -68t41 -112q0 -121 -103 -193t-264 -72zM1679 487q65 0 108.5 44.5t43.5 105.5
q0 46 -30 74t-79 28q-65 0 -107 -44t-42 -105q0 -45 28.5 -74t77.5 -29zM1581 90q76 0 132 50.5t56 121.5q0 55 -39 88t-102 33q-79 0 -133.5 -48.5t-54.5 -119.5q0 -57 39 -91t102 -34z" />
    <glyph glyph-name="seveneighths" unicode="&#x215e;" horiz-adv-x="2093" 
d="M891 1274l-508 -680h-250v4l582 641v8h-453l45 176h621zM1825 1423h-195l-1325 -1423h195zM1593 -27q-144 0 -230.5 67.5t-86.5 174.5q0 91 67.5 154.5t188.5 85.5v6q-121 48 -121 157q0 104 92.5 171t233.5 67q126 0 204 -62.5t78 -154.5q0 -77 -57 -134t-158 -79v-8
q72 -21 114 -68t42 -112q0 -121 -103.5 -193t-263.5 -72zM1692 487q65 0 108 44.5t43 105.5q0 46 -29 74t-79 28q-63 0 -105.5 -44t-42.5 -105q0 -45 29 -74t76 -29zM1595 90q76 0 131.5 50.5t55.5 121.5q0 55 -39 88t-103 33q-78 0 -132 -48t-54 -120q0 -57 38.5 -91
t102.5 -34z" />
    <glyph glyph-name="uni215F" unicode="&#x215f;" horiz-adv-x="1515" 
d="M649 594h-182l117 477h-281l27 111q178 6 258 57.5t127 192.5h141zM1935 1423h-196l-1325 -1423h194z" />
    <glyph glyph-name="arrowleft" unicode="&#x2190;" horiz-adv-x="1445" 
d="M446 569h893v-159h-893v-11l351 -364l-162 -37l-547 487v7l549 487l162 -37l-353 -362v-11z" />
    <glyph glyph-name="arrowup" unicode="&#x2191;" horiz-adv-x="1163" 
d="M752 0h-166v1090h-11l-368 -351l-39 160l500 551h2l497 -551l-37 -160l-368 351h-10v-1090z" />
    <glyph glyph-name="arrowright" unicode="&#x2192;" horiz-adv-x="1445" 
d="M106 410v159h895v11l-354 362l164 37l549 -487v-7l-547 -487l-164 37l352 364v11h-895z" />
    <glyph glyph-name="arrowdown" unicode="&#x2193;" horiz-adv-x="1167" 
d="M541 334v1089h166v-1089h10l368 350l37 -160l-497 -551h-2l-500 551l39 160l368 -350h11z" />
    <glyph glyph-name="uni2196" unicode="&#x2196;" horiz-adv-x="1351" 
d="M512 780l690 -686l-110 -119l-695 693l-8 -9l-6 -518l-143 88l-41 746l2 4l747 -43l88 -141l-518 -7z" />
    <glyph glyph-name="uni2197" unicode="&#x2197;" horiz-adv-x="1124" 
d="M129 -25l-113 119l693 686l-9 8l-516 7l88 141l746 43l2 -4l-41 -746l-143 -88l-5 518l-10 9z" />
    <glyph glyph-name="uni2198" unicode="&#x2198;" horiz-adv-x="1355" 
d="M846 190l-690 687l110 118l695 -692l8 8l6 518l143 -88l41 -745l-4 -4l-745 43l-88 141l516 6z" />
    <glyph glyph-name="uni2199" unicode="&#x2199;" horiz-adv-x="1124" 
d="M997 995l111 -118l-690 -687l8 -8l516 -6l-88 -141l-745 -43l-5 4l41 745l144 88l6 -518l8 -8z" />
    <glyph glyph-name="uni21A4" unicode="&#x21a4;" horiz-adv-x="1548" 
d="M1180 569v385h163v-931h-163v387h-731v-11l352 -364l-164 -37l-547 487v7l549 487l164 -37l-354 -362v-11h731z" />
    <glyph glyph-name="uni21A5" unicode="&#x21a5;" horiz-adv-x="1286" 
d="M1124 739l-366 351h-10v-930h366v-160h-903v160h369v930h-11l-368 -351l-37 160l498 551h4l497 -551z" />
    <glyph glyph-name="uni21A6" unicode="&#x21a6;" horiz-adv-x="1546" 
d="M752 942l161 39l547 -489v-5l-549 -489l-161 37l352 362v11h-729v-385h-166v931h166v-387h729v13z" />
    <glyph glyph-name="uni21A7" unicode="&#x21a7;" horiz-adv-x="1288" 
d="M838 334l368 350l37 -160l-498 -551h-2l-497 551l37 160l368 -350h11v930h-369v159h903v-159h-369v-930h11z" />
    <glyph glyph-name="uni21B0" unicode="&#x21b0;" horiz-adv-x="1654" 
d="M1452 1044v-1044h-166v885h-731v-13l352 -362l-164 -39l-546 490v4l548 489l164 -37l-354 -362v-11h897z" />
    <glyph glyph-name="uni21B1" unicode="&#x21b1;" horiz-adv-x="1452" 
d="M780 1417l164 37l549 -489v-4l-547 -490l-164 39l353 362v13h-732v-885h-165v1044h897v11z" />
    <glyph glyph-name="uni21B2" unicode="&#x21b2;" horiz-adv-x="1454" 
d="M1169 569v885h166v-1044h-895v-11l355 -362l-164 -37l-549 489v5l547 489l164 -39l-353 -362v-13h729z" />
    <glyph glyph-name="uni21B3" unicode="&#x21b3;" horiz-adv-x="1654" 
d="M870 944l162 39l547 -489v-5l-549 -489l-162 37l353 362v11h-895v1044h166v-885h729v13z" />
    <glyph glyph-name="partialdiff" unicode="&#x2202;" horiz-adv-x="1187" 
d="M526 -29q-199 0 -332 128.5t-133 328.5q0 195 129 330t338 135q126 0 222 -63t139 -164h8q41 296 -100.5 465.5t-444.5 162.5v158q367 11 576 -176t209 -531q0 -152 -42 -291t-118.5 -247t-193.5 -172t-257 -64zM535 125q126 0 209.5 98.5t89.5 231.5q4 125 -68.5 194.5
t-181.5 69.5q-129 0 -209 -91t-80 -229q0 -121 66.5 -197.5t173.5 -76.5z" />
    <glyph glyph-name="emptyset" unicode="&#x2205;" horiz-adv-x="1243" 
d="M1110 985l-117 -147q127 -143 127 -351q0 -223 -141.5 -369.5t-355.5 -146.5q-146 0 -263 74l-106 -133l-107 80l111 137q-133 146 -133 358q0 220 142.5 365t355.5 145q148 0 266 -73l117 145zM287 487q0 -136 71 -229l435 543q-73 43 -170 43q-147 0 -241.5 -100.5
t-94.5 -256.5zM623 129q148 0 243 100.5t95 257.5q0 130 -68 226l-434 -543q74 -41 164 -41z" />
    <glyph glyph-name="uni2206" unicode="&#x2206;" horiz-adv-x="1312" 
d="M1137 0h-1190l39 162l796 1261h217l177 -1261zM190 172v-10h746v8l-129 963h-12z" />
    <glyph glyph-name="product" unicode="&#x220f;" horiz-adv-x="1468" 
d="M1556 1423v-10q-50 -53 -77.5 -111t-55.5 -167l-209 -840q-26 -103 -26.5 -169t20.5 -116v-10h-370v10q48 53 74.5 111t54.5 170l241 969h-559l-237 -963q-19 -77 -24.5 -134t-1 -87.5t16.5 -65.5v-10h-370v10q46 46 74.5 107t58.5 184l203 821q28 112 30.5 170.5
t-20.5 120.5v10h1177z" />
    <glyph glyph-name="summation" unicode="&#x2211;" horiz-adv-x="1441" 
d="M524 209v-6h746v-203h-994v156l435 540l-437 572v155h990v-258h-13q-37 53 -108 77t-189 24h-401v-6l342 -447v-141z" />
    <glyph glyph-name="minus" unicode="&#x2212;" horiz-adv-x="1169" 
d="M1063 406h-957v159h957v-159z" />
    <glyph glyph-name="uni2215" unicode="&#x2215;" horiz-adv-x="1069" 
d="M1358 1423h-195l-1325 -1423h195z" />
    <glyph glyph-name="radical" unicode="&#x221a;" horiz-adv-x="1058" 
d="M809 1423h461v-159h-344l-373 -1264h-231l-254 807h172l194 -621h8z" />
    <glyph glyph-name="infinity" unicode="&#x221e;" horiz-adv-x="1511" 
d="M453 201q-141 0 -232.5 95.5t-91.5 244.5t92 244.5t232 95.5q184 0 311 -201h8q126 201 309 201q140 0 232 -95.5t92 -244.5q0 -147 -92 -243.5t-232 -96.5q-184 0 -311 198h-8q-128 -198 -309 -198zM465 350q65 0 120.5 46.5t110.5 144.5q-54 99 -109 144.5t-122 45.5
q-77 0 -127.5 -51t-50.5 -139q0 -87 50.5 -139t127.5 -52zM1069 350q77 0 126.5 52t49.5 139t-49.5 138.5t-126.5 51.5q-66 0 -121.5 -46t-109.5 -144q55 -99 109.5 -145t121.5 -46z" />
    <glyph glyph-name="integral" unicode="&#x222b;" horiz-adv-x="634" 
d="M111 -311q-87 0 -148 28v148q61 -21 113 -21q94 0 148.5 57.5t54.5 168.5v1157q0 182 88.5 279.5t238.5 97.5q85 0 148 -29v-148q-54 23 -113 23q-92 0 -146.5 -58t-54.5 -169v-1157q0 -182 -89 -279.5t-240 -97.5z" />
    <glyph glyph-name="approxequal" unicode="&#x2248;" horiz-adv-x="1198" 
d="M291 543h-164q-3 138 66.5 221.5t185.5 83.5q95 0 209 -57l82 -46q98 -49 141 -49q48 0 75 36t27 108h166q1 -137 -69.5 -221t-186.5 -84q-98 0 -209 59l-84 43q-88 49 -139 49q-48 0 -74.5 -36.5t-25.5 -106.5zM291 141h-164q-3 138 66.5 221.5t185.5 83.5q95 0 209 -57
l82 -45q98 -49 141 -49q102 0 102 143h166q1 -137 -69.5 -221t-186.5 -84q-96 0 -209 60l-84 43q-88 49 -139 49q-48 0 -74.5 -36.5t-25.5 -107.5z" />
    <glyph glyph-name="notequal" unicode="&#x2260;" horiz-adv-x="1302" 
d="M1130 754v-158h-376l-76 -215h452v-158h-507l-84 -237h-150l84 237h-299v158h354l76 215h-430v158h485l80 229h150l-80 -229h321z" />
    <glyph glyph-name="lessequal" unicode="&#x2264;" horiz-adv-x="1275" 
d="M1094 377v-168l-957 323v160l957 328v-172l-725 -234v-6zM1094 131v-160h-957v160h957z" />
    <glyph glyph-name="greaterequal" unicode="&#x2265;" horiz-adv-x="1337" 
d="M1147 532l-954 -323v168l722 231v6l-722 234v172l954 -328v-160zM1147 -29h-954v160h954v-160z" />
    <glyph glyph-name="angleleft" unicode="&#x2329;" horiz-adv-x="679" 
d="M442 -301l-163 -8l-193 991l651 926l174 -29l-581 -940z" />
    <glyph glyph-name="angleright" unicode="&#x232a;" horiz-adv-x="679" 
d="M322 1595l163 9l191 -992l-651 -925l-172 28l579 940z" />
    <glyph glyph-name="uni2460" unicode="&#x2460;" horiz-adv-x="1681" 
d="M799 -29q-192 0 -341.5 84.5t-232 234t-82.5 339.5q0 174 67 331.5t181.5 272.5t275 182.5t339.5 67.5q292 0 474.5 -183t182.5 -471q0 -235 -112.5 -431.5t-311.5 -311.5t-440 -115zM799 106q150 0 284 58.5t229 156.5t150.5 229.5t55.5 274.5q0 235 -143.5 380
t-370.5 145q-150 0 -283.5 -58t-227.5 -156t-149 -230t-55 -275q0 -235 141.5 -380t368.5 -145zM940 313h-184l118 478h-280l27 110q176 6 257 58t128 192h141z" />
    <glyph glyph-name="uni2461" unicode="&#x2461;" horiz-adv-x="1740" 
d="M829 -29q-193 0 -342.5 84.5t-231 234t-81.5 339.5q0 174 66.5 331.5t180.5 272.5t274 182.5t339 67.5q292 0 475 -183t183 -471q0 -235 -113 -431.5t-311.5 -311.5t-438.5 -115zM827 106q150 0 285 58.5t230 156.5t150.5 229.5t55.5 274.5q0 235 -144.5 380t-371.5 145
q-150 0 -283.5 -58t-227.5 -156t-149 -230t-55 -275q0 -235 141.5 -380t368.5 -145zM1157 326h-590l33 137l262 162q114 71 171 127t57 125t-48.5 107t-123.5 38q-97 0 -189 -61l-8 112q118 109 264 109q123 0 208 -76t85 -186q0 -58 -20 -107t-60.5 -90.5t-82.5 -72
t-103 -66.5l-127 -74v-8h315z" />
    <glyph glyph-name="uni2462" unicode="&#x2462;" horiz-adv-x="1740" 
d="M829 -29q-193 0 -342.5 84.5t-231 234t-81.5 339.5q0 174 66.5 331.5t180.5 272.5t274 182.5t339 67.5q292 0 475 -183t183 -471q0 -235 -113 -431.5t-311.5 -311.5t-438.5 -115zM827 106q150 0 285 58.5t230 156.5t150.5 229.5t55.5 274.5q0 235 -144.5 380t-371.5 145
q-150 0 -283.5 -58t-227.5 -156t-149 -230t-55 -275q0 -235 141.5 -380t368.5 -145zM840 297q-93 0 -170.5 39t-126.5 100l45 90q91 -84 213 -84q85 0 139.5 38.5t54.5 103.5q0 106 -178 112l25 103l219 172v8h-352l45 176h571l-35 -135l-291 -232v-8q79 -23 124.5 -78
t45.5 -127q0 -126 -97 -202t-232 -76z" />
    <glyph glyph-name="uni2463" unicode="&#x2463;" horiz-adv-x="1740" 
d="M829 -29q-193 0 -342.5 84.5t-231 234t-81.5 339.5q0 174 67 331.5t181 272.5t274.5 182.5t339.5 67.5q292 0 474 -183t182 -471q0 -176 -66 -334t-180 -273.5t-275 -183t-342 -67.5zM829 106q150 0 284 58.5t229 156.5t150.5 229.5t55.5 274.5q0 235 -143.5 380
t-370.5 145q-150 0 -284 -58t-228.5 -156t-149.5 -230t-55 -275q0 -235 142.5 -380t369.5 -145zM1012 326h-174l51 196h-408l31 125l569 514h140l-123 -487h180l-37 -152h-182zM709 680v-6h217l63 256h-8z" />
    <glyph glyph-name="uni2464" unicode="&#x2464;" horiz-adv-x="1740" 
d="M829 -29q-193 0 -342.5 84.5t-231 234t-81.5 339.5q0 174 66.5 331.5t180.5 272.5t274 182.5t339 67.5q292 0 475 -183t183 -471q0 -235 -113 -431.5t-311.5 -311.5t-438.5 -115zM827 106q150 0 285 58.5t230 156.5t150.5 229.5t55.5 274.5q0 235 -144.5 380t-371.5 145
q-150 0 -283.5 -58t-227.5 -156t-149 -230t-55 -275q0 -235 141.5 -380t368.5 -145zM815 287q-87 0 -164.5 37t-130.5 102l45 90q94 -84 211 -84q94 0 150.5 40.5t56.5 109.5q0 60 -44 91.5t-116 31.5q-83 0 -182 -54h-6l190 494h475l-45 -174h-378l-66 -172h8q55 32 119 32
q90 0 155.5 -65.5t65.5 -171.5q0 -131 -97 -219t-247 -88z" />
    <glyph glyph-name="uni2465" unicode="&#x2465;" horiz-adv-x="1740" 
d="M829 -29q-193 0 -342.5 84.5t-231 234t-81.5 339.5q0 174 66.5 331.5t180.5 272.5t274 182.5t339 67.5q292 0 475 -183t183 -471q0 -235 -113 -431.5t-311.5 -311.5t-438.5 -115zM827 106q150 0 285 58.5t230 156.5t150.5 229.5t55.5 274.5q0 235 -144.5 380t-371.5 145
q-150 0 -283.5 -58t-227.5 -156t-149 -230t-55 -275q0 -235 141.5 -380t368.5 -145zM854 287q-110 0 -186 63.5t-103 167.5q-31 122 6 259t129 233q152 161 355 161q64 0 124.5 -19t102.5 -52l-33 -92q-80 41 -172 41q-123 0 -210 -75t-113 -204h8q75 82 188 82
q99 0 169.5 -70.5t70.5 -175.5q0 -138 -97 -228.5t-239 -90.5zM846 401q72 0 119 54.5t47 132.5q0 60 -36.5 98.5t-92.5 38.5q-59 0 -103 -37t-53 -92l-4 -18q-12 -72 22.5 -124.5t100.5 -52.5z" />
    <glyph glyph-name="uni2466" unicode="&#x2466;" horiz-adv-x="1740" 
d="M829 -29q-193 0 -342.5 84.5t-231 234t-81.5 339.5q0 174 66.5 331.5t180.5 272.5t274 182.5t339 67.5q292 0 475 -183t183 -471q0 -235 -113 -431.5t-311.5 -311.5t-438.5 -115zM827 106q150 0 285 58.5t230 156.5t150.5 229.5t55.5 274.5q0 235 -144.5 380t-371.5 145
q-150 0 -283.5 -58t-227.5 -156t-149 -230t-55 -275q0 -235 141.5 -380t368.5 -145zM1303 993l-506 -680h-252v4l583 641v7h-452l43 178h620z" />
    <glyph glyph-name="uni2467" unicode="&#x2467;" horiz-adv-x="1740" 
d="M829 -29q-193 0 -342.5 84.5t-231 234t-81.5 339.5q0 174 66.5 331.5t180.5 272.5t274 182.5t339 67.5q292 0 475 -183t183 -471q0 -235 -113 -431.5t-311.5 -311.5t-438.5 -115zM827 106q150 0 285 58.5t230 156.5t150.5 229.5t55.5 274.5q0 235 -144.5 380t-371.5 145
q-150 0 -283.5 -58t-227.5 -156t-149 -230t-55 -275q0 -235 141.5 -380t368.5 -145zM860 287q-144 0 -230.5 68t-86.5 175q0 90 67.5 153t188.5 85v8q-121 45 -121 156q0 104 92.5 171.5t233.5 67.5q126 0 204 -63t78 -154q0 -78 -57 -134.5t-158 -78.5v-8q72 -21 114 -68
t42 -112q0 -122 -103.5 -194t-263.5 -72zM958 803q65 0 108.5 44t43.5 105q0 45 -30 74t-79 29q-63 0 -105 -45t-42 -105q0 -46 28.5 -74t75.5 -28zM860 406q77 0 133 49.5t56 122.5q0 54 -39.5 87t-102.5 33q-79 0 -132.5 -48.5t-53.5 -121.5q0 -55 38 -88.5t101 -33.5z
" />
    <glyph glyph-name="uni2468" unicode="&#x2468;" horiz-adv-x="1740" 
d="M829 -29q-193 0 -342.5 84.5t-231 234t-81.5 339.5q0 174 66.5 331.5t180.5 272.5t274 182.5t339 67.5q292 0 475 -183t183 -471q0 -235 -113 -431.5t-311.5 -311.5t-438.5 -115zM827 106q150 0 285 58.5t230 156.5t150.5 229.5t55.5 274.5q0 235 -144.5 380t-371.5 145
q-150 0 -283.5 -58t-227.5 -156t-149 -230t-55 -275q0 -235 141.5 -380t368.5 -145zM999 1169q110 0 186 -63.5t103 -167.5q31 -122 -6 -258t-129 -234q-152 -161 -354 -161q-63 0 -124.5 19.5t-103.5 51.5l33 95q78 -43 172 -43q123 0 210.5 74.5t113.5 203.5h-8
q-75 -82 -189 -82q-99 0 -169 70.5t-70 175.5q0 138 96.5 228.5t238.5 90.5zM1008 1055q-72 0 -119 -54.5t-47 -132.5q0 -60 36.5 -98.5t92.5 -38.5q59 0 102.5 37.5t52.5 91.5l4 19q12 72 -22 124t-100 52z" />
    <glyph glyph-name="uni24EA" unicode="&#x24ea;" horiz-adv-x="1740" 
d="M829 -29q-192 0 -341.5 84.5t-231.5 234t-82 339.5q0 174 67 331.5t181 272.5t274.5 182.5t339.5 67.5q292 0 474 -183t182 -471q0 -176 -66 -334t-180 -273.5t-275 -183t-342 -67.5zM829 106q150 0 284 58.5t229 156.5t150.5 229.5t55.5 274.5q0 235 -143.5 380
t-370.5 145q-150 0 -284 -58t-228.5 -156t-149.5 -230t-55 -275q0 -235 142.5 -380t369.5 -145zM872 287q-153 0 -248.5 102.5t-95.5 265.5q0 142 61 259.5t168 186t238 68.5q153 0 250.5 -101.5t97.5 -260.5q0 -219 -135.5 -369.5t-335.5 -150.5zM877 432q80 0 143 59
t94 147t31 183q0 98 -41.5 150.5t-116.5 52.5q-77 0 -138.5 -58.5t-92.5 -146t-31 -182.5q0 -98 41 -151.5t111 -53.5z" />
    <glyph glyph-name="uni24FF" unicode="&#x24ff;" horiz-adv-x="1742" 
d="M821 -29q181 0 343.5 69.5t278 186t183.5 276t68 333.5q0 288 -179.5 467.5t-467.5 179.5q-182 0 -344.5 -68.5t-278.5 -184.5t-184 -275t-68 -334q0 -288 180 -469t469 -181zM870 287q-155 0 -250.5 102.5t-95.5 265.5q0 142 61 259.5t168 186t238 68.5
q155 0 251.5 -101.5t96.5 -260.5q0 -144 -61.5 -263t-169 -188t-238.5 -69zM874 432q79 0 142 59t95 147t32 183q0 98 -42.5 150.5t-115.5 52.5q-78 0 -139.5 -58.5t-93 -146t-31.5 -182.5q0 -98 41.5 -151.5t111.5 -53.5z" />
    <glyph glyph-name="lozenge" unicode="&#x25ca;" horiz-adv-x="1196" 
d="M561 0h-164l-241 733l596 692h166l237 -739zM545 231h10l379 445l-168 516h-8l-381 -447z" />
    <glyph glyph-name="openbullet" unicode="&#x25e6;" horiz-adv-x="985" 
d="M459 227q-124 0 -205.5 83.5t-81.5 203.5q0 155 114.5 266t274.5 111q124 0 206.5 -83t82.5 -202q0 -156 -116 -267.5t-275 -111.5zM471 362q93 0 163.5 69t70.5 165q0 71 -43 116.5t-113 45.5q-92 0 -162 -69.5t-70 -166.5q0 -70 43 -115t111 -45z" />
    <glyph glyph-name="uni2776" unicode="&#x2776;" horiz-adv-x="1681" 
d="M788 -29q181 0 344.5 69.5t279 186t183.5 276t68 333.5q0 288 -179.5 467.5t-467.5 179.5q-182 0 -345 -68.5t-279.5 -184.5t-184.5 -275t-68 -334q0 -288 180.5 -469t468.5 -181zM934 311h-184l118 477h-280l26 111q176 6 257 58t128 192h142z" />
    <glyph glyph-name="uni2777" unicode="&#x2777;" horiz-adv-x="1681" 
d="M791 -27q182 0 344.5 69t278.5 185.5t183.5 276t67.5 334.5q0 190 -81 337t-229 228.5t-339 81.5q-182 0 -344.5 -68.5t-278.5 -184.5t-184 -275t-68 -334q0 -288 181 -469t469 -181zM1124 326h-589l34 137l260 164q112 68 170 125t58 127q0 68 -48.5 105.5t-123.5 37.5
q-102 0 -189 -61l-8 112q118 109 266 109q123 0 208 -76t85 -186q0 -58 -20 -107t-60.5 -90.5t-83 -72t-104.5 -66.5l-125 -74v-8h313z" />
    <glyph glyph-name="uni2778" unicode="&#x2778;" horiz-adv-x="1679" 
d="M791 -25q181 0 344 69.5t279 186t183.5 276t67.5 333.5q0 190 -81 337t-229 228.5t-339 81.5q-182 0 -344.5 -68.5t-278.5 -184.5t-184 -275t-68 -334q0 -288 181 -469t469 -181zM807 301q-93 0 -170 38.5t-125 100.5l43 88q98 -84 215 -84q85 0 140 38.5t55 103.5
q0 109 -179 112l25 103l217 172v10h-350l45 174h571l-34 -135l-291 -231v-7q79 -23 124.5 -77.5t45.5 -126.5q0 -126 -97.5 -202.5t-234.5 -76.5z" />
    <glyph glyph-name="uni2779" unicode="&#x2779;" horiz-adv-x="1679" 
d="M791 -25q181 0 344 69.5t279 186t183.5 276t67.5 333.5q0 190 -81 337t-229 228.5t-339 81.5q-182 0 -344.5 -68.5t-278.5 -184.5t-184 -275t-68 -334q0 -288 181 -469t469 -181zM977 328h-172l51 196h-407l30 125l570 516h137l-121 -489h180l-37 -152h-182zM676 684v-8
h217l63 256h-8z" />
    <glyph glyph-name="uni277A" unicode="&#x277a;" horiz-adv-x="1679" 
d="M791 -25q181 0 344 69.5t279 186t183.5 276t67.5 333.5q0 190 -81 337t-229 228.5t-339 81.5q-182 0 -344.5 -68.5t-278.5 -184.5t-184 -275t-68 -334q0 -288 181 -469t469 -181zM782 291q-87 0 -163.5 36.5t-129.5 102.5l46 88q91 -84 208 -84q94 0 150.5 41t56.5 109
q0 59 -43.5 91t-113.5 32q-93 0 -185 -54h-4l189 494h475l-43 -174h-379l-68 -172h8q51 33 119 33q92 0 157.5 -65t65.5 -173q0 -131 -98 -218t-248 -87z" />
    <glyph glyph-name="uni277B" unicode="&#x277b;" horiz-adv-x="1679" 
d="M791 -25q181 0 344 69.5t279 186t183.5 276t67.5 333.5q0 190 -81 337t-229 228.5t-339 81.5q-182 0 -344.5 -68.5t-278.5 -184.5t-184 -275t-68 -334q0 -288 181 -469t469 -181zM821 289q-110 0 -186 63.5t-103 167.5q-32 121 6 258.5t130 235.5q151 160 354 160
q63 0 123.5 -19.5t101.5 -50.5l-30 -94q-74 41 -173 41q-123 0 -210 -75t-113 -204h8q74 84 189 84q99 0 169 -71.5t70 -176.5q0 -137 -97.5 -228t-238.5 -91zM813 406q72 0 119 54t47 132q0 60 -36.5 97.5t-92.5 37.5q-59 0 -103 -37t-53 -92l-4 -18q-12 -72 22.5 -123
t100.5 -51z" />
    <glyph glyph-name="uni277C" unicode="&#x277c;" horiz-adv-x="1681" 
d="M788 -29q181 0 344.5 69.5t279 186t183.5 276t68 333.5q0 288 -179.5 467.5t-467.5 179.5q-182 0 -345 -68.5t-279.5 -184.5t-184.5 -275t-68 -334q0 -288 180.5 -469t468.5 -181zM1272 991l-508 -680h-250v4l582 641v9h-453l45 176h621z" />
    <glyph glyph-name="uni277D" unicode="&#x277d;" horiz-adv-x="1679" 
d="M791 -25q181 0 344 69.5t279 186t183.5 276t67.5 333.5q0 190 -81 337t-229 228.5t-339 81.5q-182 0 -344.5 -68.5t-278.5 -184.5t-184 -275t-68 -334q0 -288 181 -469t469 -181zM827 291q-145 0 -231 67t-86 174q0 91 67.5 154.5t188.5 85.5v6q-121 48 -121 158
q0 104 92.5 171t233.5 67q126 0 205 -63t79 -155q0 -77 -58 -134t-159 -79v-8q72 -21 114 -68t42 -112q0 -121 -103.5 -192.5t-263.5 -71.5zM926 805q65 0 108 44t43 105q0 46 -29 74.5t-79 28.5q-63 0 -105.5 -44.5t-42.5 -105.5q0 -45 29 -73.5t76 -28.5zM829 408
q76 0 131.5 50.5t55.5 121.5q0 55 -38.5 87.5t-103.5 32.5q-77 0 -131.5 -48.5t-54.5 -119.5q0 -57 39 -90.5t102 -33.5z" />
    <glyph glyph-name="uni277E" unicode="&#x277e;" horiz-adv-x="1679" 
d="M791 -25q181 0 344 69.5t279 186t183.5 276t67.5 333.5q0 190 -81 337t-229 228.5t-339 81.5q-182 0 -344.5 -68.5t-278.5 -184.5t-184 -275t-68 -334q0 -288 181 -469t469 -181zM967 1174q110 0 185.5 -64t102.5 -168q32 -122 -4.5 -258.5t-128.5 -234.5
q-154 -160 -356 -160q-64 0 -124.5 19t-100.5 50l30 95q74 -41 172 -41q123 0 210.5 74.5t113.5 203.5h-8q-74 -84 -189 -84q-98 0 -167.5 71.5t-69.5 176.5q0 137 96.5 228.5t237.5 91.5zM975 1057q-72 0 -119 -54.5t-47 -132.5q0 -60 36.5 -97.5t92.5 -37.5q59 0 103 37
t55 92l2 19q12 72 -22.5 123t-100.5 51z" />
    <glyph glyph-name="uni300A" unicode="&#x300a;" horiz-adv-x="1122" 
d="M436 -301l-160 -8l-190 991l651 926l168 -29l-592 -936zM879 -301l-160 -8l-187 952l670 965l168 -29l-610 -975z" />
    <glyph glyph-name="uni300B" unicode="&#x300b;" horiz-adv-x="1122" 
d="M326 1595l161 9l185 -953l-670 -964l-168 28l612 975zM768 1595l160 9l190 -992l-649 -925l-170 28l594 936z" />
    <glyph glyph-name="uni300C" unicode="&#x300c;" horiz-adv-x="745" 
d="M1010 1593l-37 -149h-371l-192 -772h-232l230 921h602z" />
    <glyph glyph-name="uni300D" unicode="&#x300d;" horiz-adv-x="489" 
d="M-432 -299l37 149h368l195 773h231l-231 -922h-600z" />
    <glyph glyph-name="uni300E" unicode="&#x300e;" horiz-adv-x="890" 
d="M608 672h-430l230 921h706l-74 -299h-276zM545 1495l-183 -725h111l154 625h278l25 100h-385z" />
    <glyph glyph-name="uni300F" unicode="&#x300f;" horiz-adv-x="817" 
d="M295 606h430l-231 -921h-707l74 299h278zM358 -217l183 725h-111l-156 -625h-278l-25 -100h387z" />
    <glyph glyph-name="uni3010" unicode="&#x3010;" horiz-adv-x="690" 
d="M508 -299h-524l473 1892h522v-6q-302 -251 -466.5 -583t-164.5 -701q0 -330 160 -596v-6z" />
    <glyph glyph-name="uni3011" unicode="&#x3011;" horiz-adv-x="688" 
d="M266 1593h522l-473 -1892h-520v6q300 251 464.5 583t164.5 701q0 328 -158 596v6z" />
    <glyph glyph-name="uni3014" unicode="&#x3014;" horiz-adv-x="643" 
d="M438 -227l-108 -97l-326 363l320 1272l487 313l80 -119l-344 -223l-318 -1272z" />
    <glyph glyph-name="uni3015" unicode="&#x3015;" horiz-adv-x="643" 
d="M287 1522l108 96l326 -363l-320 -1271l-487 -314l-80 119l344 223l318 1272z" />
    <glyph glyph-name="uniE000" unicode="&#xe000;" horiz-adv-x="1693" 
d="M1866 1386l-1063 -1413l-668 848l133 101l535 -682l936 1241z" />
    <glyph glyph-name="uniE001" unicode="&#xe001;" horiz-adv-x="2162" 
d="M1935 1233h-1585v160h1585v-160zM1935 647h-1585v160h1585v-160zM1935 61h-1585v160h1585v-160z" />
    <glyph glyph-name="uniE002" unicode="&#xe002;" horiz-adv-x="2103" 
d="M1839 0h-1454v1454h1454v-1454zM549 1294v-1134h1126v1134h-1126z" />
    <glyph glyph-name="uniE003" unicode="&#xe003;" horiz-adv-x="2041" 
d="M1675 160v512h164v-672h-1454v1454h909v-160h-745v-1134h1126zM1100 303l-426 602l137 88l297 -422l694 879l125 -98z" />
    <glyph glyph-name="uniE004" unicode="&#xe004;" horiz-adv-x="1404" 
d="M1147 711l-496 -551h572v-160h-1147v160h569l-498 551l39 159l367 -350h12v903h166v-903h10l369 350z" />
    <glyph glyph-name="uniE005" unicode="&#xe005;" horiz-adv-x="1431" 
d="M614 795v628h166v-628h11l366 352l39 -162l-498 -551h-4l-497 551l36 162l369 -352h12zM1270 0h-1147v160h1147v-160z" />
    <glyph glyph-name="uniF8FF" unicode="&#xf8ff;" horiz-adv-x="1832" 
d="M457 328q-8 21 18 57q31 39 84 92q-95 -22 -133 -22q-115 0 -170 28q-54 26 -63 74q-9 45 53 92q-79 47 -115 88q-63 71 -76 135q-11 65 -4 106.5t33 86.5q45 79 109 125q38 27 131 65q59 26 108 41q105 33 225 45q34 3 98 13t93 14q97 13 242 -2q185 -20 337 -76
q94 -36 230 -139q86 -68 86 -188q0 -75 -43 -146q-29 -49 -66.5 -80.5t-105.5 -70.5q41 -44 53 -78q32 -88 -98 -121q-85 -21 -215 -12l-68 6q30 -40 41 -72q14 -46 -27 -55q-32 -6 -51.5 -0.5t-50.5 26.5q-68 -61 -121 -10q-42 -33 -68 -34.5t-59 28.5q-41 -22 -56.5 -21.5
t-37.5 25.5q-90 -70 -162 8q-37 -47 -80 -51q-19 -2 -42.5 3t-28.5 20zM989 1239q-130 0 -198 -4q-110 -7 -166 -21q-77 -18 -88 -49q-9 -17 6 -35q29 -33 73 -51q48 -20 138 -28q107 -10 243 -4q174 8 217 90q13 27 5 41q-16 27 -78 36q-13 2 -67 13.5t-85 11.5zM1151 717
q43 2 129 22q64 16 106 45q54 36 54 76q0 31 -4 45q-12 45 -50 68q-45 26 -90 26q-104 0 -157 -16q-117 -36 -140 -156q-3 -17 0 -34q4 -18 17 -30t37 -24q48 -25 98 -22zM563 696q14 0 27.5 2t33 7t25.5 6q55 13 93.5 57t33.5 84q-10 84 -78 113q-78 32 -184 24
q-66 -5 -137 -35q-101 -44 -101 -86q0 -44 17 -74t61 -51q37 -17 95 -32q55 -15 114 -15zM778 489q12 -4 17 -4q9 0 25.5 23t23.5 47q15 50 12 78q-3 20 -20 43q-12 12 -29 -2q-23 -14 -33 -41q-21 -50 -16 -86l6 -35q9 -18 14 -23zM963 489q5 5 14 23l6 35q5 36 -16 86
q-11 29 -35 41q-14 14 -27 2q-17 -23 -20 -43q-3 -28 12 -78q8 -25 23.5 -47.5t25.5 -22.5q5 0 17 4zM858 12q-92 8 -184 60q-23 12 -56.5 29.5t-45.5 24t-28.5 17t-31.5 21.5q-27 20 -43 43q-10 21 -4 31q8 13 19.5 17t37.5 -3.5t66 -30.5q14 14 23 21t25 11.5t36 2.5
q34 -4 59 -23q26 15 46 20.5t44.5 0t48.5 -26.5q39 31 66 33q26 2 59 -31l4.5 4.5t5.5 6t6 6t8.5 5.5t10.5 4.5t13.5 3.5t15.5 1q21 0 35 -7t19.5 -14t14.5 -24q18 23 31 33q23 18 39 22.5t43 -2.5q26 -7 47 -28q10 -8 8 -21t-20 -39q-21 -33 -123 -110q-83 -62 -184 -62
q-72 0 -111 4z" />
    <glyph glyph-name="uni0122.ss06" horiz-adv-x="1474" 
d="M1047 1450q301 0 499 -131l-59 -238h-12q-62 95 -169.5 148t-246.5 53q-123 0 -230 -35t-184.5 -97.5t-133 -145.5t-83 -180.5t-27.5 -202.5q0 -226 117.5 -356t329.5 -130q76 0 147 21l74 295q25 97 23.5 162t-29.5 128v11h385v-11q-53 -61 -79.5 -123t-55.5 -176
l-88 -354q-196 -115 -420 -115q-189 0 -340.5 82.5t-237.5 231t-86 336.5q0 170 67.5 322t186 263.5t288 176.5t364.5 65zM602 -535h-96l172 418h219v-4z" />
    <glyph glyph-name="uni0136.ss06" horiz-adv-x="1409" 
d="M1599 1423v-10q-76 -43 -148 -94t-119 -90.5t-134 -114.5l-340 -295l471 -815v-4h-280l-369 666l-242 -207l-35 -142q-27 -113 -30 -181t18 -126v-10h-368v10q50 52 78 118t59 187l198 795q28 108 32 175t-19 128v10h368v-10q-53 -51 -81 -118.5t-56 -184.5l-94 -377h8
l506 451q93 83 134.5 134.5t41.5 96.5v8h401zM494 -535h-97l172 418h219v-4z" />
    <glyph glyph-name="Lcaron.ss06" horiz-adv-x="1159" 
d="M25 0v10q51 51 78 117.5t59 194.5l196 790q28 111 31.5 177t-18.5 124v10h370v-10q-52 -49 -81 -116.5t-56 -184.5l-235 -948h346q131 0 209.5 31t138.5 114h12l-78 -309h-972zM920 1026h-93l164 397h209v-4z" />
    <glyph glyph-name="uni013B.ss06" horiz-adv-x="1155" 
d="M25 0v10q51 51 78 117.5t59 194.5l196 790q28 111 31.5 177t-18.5 124v10h370v-10q-52 -49 -81 -116.5t-56 -184.5l-235 -948h346q131 0 209.5 31t138.5 114h12l-78 -309h-972zM356 -535h-96l172 418h219v-4z" />
    <glyph glyph-name="uni0145.ss06" horiz-adv-x="1566" 
d="M23 0v10q52 50 81.5 120.5t57.5 186.5l254 1020l-29 80v6h332l409 -1112h11l200 801q18 72 25.5 123t5 97t-17.5 81v10h311v-10q-48 -51 -78.5 -121.5t-58.5 -183.5l-277 -1108h-245l-435 1161h-12l-209 -844q-28 -110 -32 -178.5t18 -128.5v-10h-311zM530 -535h-96
l172 418h219v-4z" />
    <glyph glyph-name="Q.ss04" horiz-adv-x="1619" 
d="M1593 838q0 -195 -77.5 -370t-215.5 -296l209 -176l-41 -166l-294 250q-184 -107 -404 -107q-279 0 -455 173t-176 442q0 231 105 427.5t296 315.5t425 119q278 0 453 -172t175 -440zM778 145q128 0 236 68l-178 152l43 163l254 -215q94 104 146 249t52 292
q0 195 -100.5 310.5t-276.5 115.5q-98 0 -187 -42t-155 -113t-114.5 -162.5t-73.5 -192t-25 -199.5q0 -198 100.5 -312t278.5 -114z" />
    <glyph glyph-name="uni0156.ss06" horiz-adv-x="1351" 
d="M1307 1069q0 -158 -119.5 -260.5t-321.5 -132.5l412 -672v-4h-281l-387 655h-121l-86 -342q-20 -75 -28 -124t-5 -96.5t23 -82.5v-10h-370v10q52 49 80 116.5t57 186.5l196 791q19 73 28 124.5t7 100.5t-20 84v10h463q212 0 342.5 -99.5t130.5 -254.5zM641 1264
l-113 -449h168q166 0 263.5 68t97.5 186q0 96 -68 145.5t-192 49.5h-156zM459 -535h-97l173 418h219v-4z" />
    <glyph glyph-name="uni0218.ss06" horiz-adv-x="1093" 
d="M473 -27q-272 0 -463 172l62 240h10q62 -124 167.5 -184t219.5 -60q115 0 195.5 59t80.5 162q0 60 -34 107.5t-111 99.5l-121 82q-213 146 -213 365q0 126 69.5 226t186 154t256.5 54q114 0 217 -31.5t179 -85.5l-60 -239h-10q-42 89 -130 139.5t-192 50.5
q-118 0 -198 -62t-80 -165q0 -63 31 -111t102 -98l119 -80q118 -80 172.5 -164t54.5 -196q0 -130 -72 -230.5t-187.5 -152.5t-250.5 -52zM295 -535h-96l172 418h219v-4z" />
    <glyph glyph-name="uni021A.ss06" horiz-adv-x="1257" 
d="M315 0v10q59 53 87.5 118t60.5 194l235 940h-145q-136 0 -216.5 -25t-127.5 -82h-10l67 268h1192l-67 -268h-13q-24 56 -97.5 81.5t-205.5 25.5h-131l-233 -940q-20 -81 -27.5 -131t-3 -97.5t26.5 -83.5v-10h-392zM313 -535h-96l172 418h219v-4z" />
    <glyph glyph-name="a.ss01" horiz-adv-x="1011" 
d="M821 121q27 0 64 16l-6 -112q-81 -50 -172 -50q-77 0 -122 40t-48 110h-11q-109 -152 -264 -152q-100 0 -166.5 66t-66.5 172q0 123 97 194.5t286 110.5l227 45l14 57q26 101 -26.5 155t-153.5 54q-140 0 -289 -88v127q76 59 172 95t193 36q178 0 270.5 -120.5
t46.5 -309.5l-92 -374q-18 -72 47 -72zM354 139q71 0 142 65t100 179l14 57l-143 -37q-109 -28 -162 -62.5t-53 -96.5q0 -50 28 -77.5t74 -27.5z" />
    <glyph glyph-name="a.ss02" horiz-adv-x="985" 
d="M547 997q117 0 201 -54t116.5 -153t1.5 -223l-78 -309q-20 -84 -22 -129.5t14 -89.5v-12l-274 -31h-6l32 129h-10q-109 -152 -262 -152q-97 0 -164 66.5t-67 171.5q0 123 96.5 194.5t282.5 108.5l231 47l14 57q27 100 -25 154.5t-153 54.5q-138 0 -291 -88v127
q76 59 171.5 95t191.5 36zM354 139q72 0 143 65t101 187l12 49l-143 -37q-109 -28 -162 -62.5t-53 -96.5q0 -50 28 -77.5t74 -27.5z" />
    <glyph glyph-name="aacute.ss01" horiz-adv-x="1011" 
d="M485 1133l201 301h270v-4l-317 -297h-154zM866 567l-92 -374q-18 -72 47 -72q27 0 64 16l-6 -112q-81 -50 -172 -50q-77 0 -122 40t-48 110h-11q-109 -152 -264 -152q-100 0 -166.5 66t-66.5 172q0 123 97 194.5t286 110.5l227 45l14 57q26 101 -26.5 155t-153.5 54
q-140 0 -289 -88v127q76 59 172 95t193 36q178 0 270.5 -120.5t46.5 -309.5zM354 139q71 0 142 65t100 179l14 57l-143 -37q-109 -28 -162 -62.5t-53 -96.5q0 -50 28 -77.5t74 -27.5z" />
    <glyph glyph-name="aacute.ss02" horiz-adv-x="985" 
d="M485 1133l201 301h270v-4l-317 -297h-154zM547 997q117 0 201 -54t116.5 -153t1.5 -223l-78 -309q-20 -84 -22 -129.5t14 -89.5v-12l-274 -31h-6l32 129h-10q-109 -152 -262 -152q-97 0 -164 66.5t-67 171.5q0 123 96.5 194.5t282.5 108.5l231 47l14 57q27 100 -25 154.5
t-153 54.5q-138 0 -291 -88v127q76 59 171.5 95t191.5 36zM354 139q72 0 143 65t101 187l12 49l-143 -37q-109 -28 -162 -62.5t-53 -96.5q0 -50 28 -77.5t74 -27.5z" />
    <glyph glyph-name="abreve.ss01" horiz-adv-x="1011" 
d="M616 1133q-125 0 -189 81t-38 220h131q-15 -69 14 -111.5t95 -42.5q131 0 192 154h137q-32 -142 -122.5 -221.5t-219.5 -79.5zM866 567l-92 -374q-18 -72 47 -72q27 0 64 16l-6 -112q-81 -50 -172 -50q-77 0 -122 40t-48 110h-11q-109 -152 -264 -152q-100 0 -166.5 66
t-66.5 172q0 123 97 194.5t286 110.5l227 45l14 57q26 101 -26.5 155t-153.5 54q-140 0 -289 -88v127q76 59 172 95t193 36q178 0 270.5 -120.5t46.5 -309.5zM354 139q71 0 142 65t100 179l14 57l-143 -37q-109 -28 -162 -62.5t-53 -96.5q0 -50 28 -77.5t74 -27.5z" />
    <glyph glyph-name="abreve.ss02" horiz-adv-x="985" 
d="M616 1133q-125 0 -189 81t-38 220h131q-15 -69 14 -111.5t95 -42.5q131 0 192 154h137q-32 -142 -122.5 -221.5t-219.5 -79.5zM547 997q117 0 201 -54t116.5 -153t1.5 -223l-78 -309q-20 -84 -22 -129.5t14 -89.5v-12l-274 -31h-6l32 129h-10q-109 -152 -262 -152
q-97 0 -164 66.5t-67 171.5q0 123 96.5 194.5t282.5 108.5l231 47l14 57q27 100 -25 154.5t-153 54.5q-138 0 -291 -88v127q76 59 171.5 95t191.5 36zM354 139q72 0 143 65t101 187l12 49l-143 -37q-109 -28 -162 -62.5t-53 -96.5q0 -50 28 -77.5t74 -27.5z" />
    <glyph glyph-name="uni01CE.ss01" horiz-adv-x="1011" 
d="M1038 1432l-352 -302h-156l-178 302h158l123 -152l215 152h190zM866 567l-92 -374q-18 -72 47 -72q27 0 64 16l-6 -112q-81 -50 -172 -50q-77 0 -122 40t-48 110h-11q-109 -152 -264 -152q-100 0 -166.5 66t-66.5 172q0 123 97 194.5t286 110.5l227 45l14 57
q26 101 -26.5 155t-153.5 54q-140 0 -289 -88v127q76 59 172 95t193 36q178 0 270.5 -120.5t46.5 -309.5zM354 139q71 0 142 65t100 179l14 57l-143 -37q-109 -28 -162 -62.5t-53 -96.5q0 -50 28 -77.5t74 -27.5z" />
    <glyph glyph-name="acircumflex.ss01" horiz-adv-x="1011" 
d="M772 1133l-123 149l-215 -149h-190l354 301h154l178 -301h-158zM866 567l-92 -374q-18 -72 47 -72q27 0 64 16l-6 -112q-81 -50 -172 -50q-77 0 -122 40t-48 110h-11q-109 -152 -264 -152q-100 0 -166.5 66t-66.5 172q0 123 97 194.5t286 110.5l227 45l14 57
q26 101 -26.5 155t-153.5 54q-140 0 -289 -88v127q76 59 172 95t193 36q178 0 270.5 -120.5t46.5 -309.5zM354 139q71 0 142 65t100 179l14 57l-143 -37q-109 -28 -162 -62.5t-53 -96.5q0 -50 28 -77.5t74 -27.5z" />
    <glyph glyph-name="acircumflex.ss02" horiz-adv-x="985" 
d="M772 1133l-123 149l-215 -149h-190l354 301h154l178 -301h-158zM547 997q117 0 201 -54t116.5 -153t1.5 -223l-78 -309q-20 -84 -22 -129.5t14 -89.5v-12l-274 -31h-6l32 129h-10q-109 -152 -262 -152q-97 0 -164 66.5t-67 171.5q0 123 96.5 194.5t282.5 108.5l231 47
l14 57q27 100 -25 154.5t-153 54.5q-138 0 -291 -88v127q76 59 171.5 95t191.5 36zM354 139q72 0 143 65t101 187l12 49l-143 -37q-109 -28 -162 -62.5t-53 -96.5q0 -50 28 -77.5t74 -27.5z" />
    <glyph glyph-name="adieresis.ss01" horiz-adv-x="1011" 
d="M426 1143q-55 0 -90 36t-35 91q0 66 46 110.5t114 44.5q55 0 90 -35.5t35 -89.5q0 -67 -46 -112t-114 -45zM870 1425q54 0 88.5 -35.5t34.5 -89.5q0 -68 -44.5 -112.5t-112.5 -44.5q-55 0 -91 36.5t-36 90.5q0 66 46 110.5t115 44.5zM866 567l-92 -374q-18 -72 47 -72
q27 0 64 16l-6 -112q-81 -50 -172 -50q-77 0 -122 40t-48 110h-11q-109 -152 -264 -152q-100 0 -166.5 66t-66.5 172q0 123 97 194.5t286 110.5l227 45l14 57q26 101 -26.5 155t-153.5 54q-140 0 -289 -88v127q76 59 172 95t193 36q178 0 270.5 -120.5t46.5 -309.5zM354 139
q71 0 142 65t100 179l14 57l-143 -37q-109 -28 -162 -62.5t-53 -96.5q0 -50 28 -77.5t74 -27.5z" />
    <glyph glyph-name="adieresis.ss02" horiz-adv-x="985" 
d="M426 1143q-55 0 -90 36t-35 91q0 66 46 110.5t114 44.5q55 0 90 -35.5t35 -89.5q0 -67 -46 -112t-114 -45zM870 1425q54 0 88.5 -35.5t34.5 -89.5q0 -68 -44.5 -112.5t-112.5 -44.5q-55 0 -91 36.5t-36 90.5q0 66 46 110.5t115 44.5zM547 997q117 0 201 -54t116.5 -153
t1.5 -223l-78 -309q-20 -84 -22 -129.5t14 -89.5v-12l-274 -31h-6l32 129h-10q-109 -152 -262 -152q-97 0 -164 66.5t-67 171.5q0 123 96.5 194.5t282.5 108.5l231 47l14 57q27 100 -25 154.5t-153 54.5q-138 0 -291 -88v127q76 59 171.5 95t191.5 36zM354 139q72 0 143 65
t101 187l12 49l-143 -37q-109 -28 -162 -62.5t-53 -96.5q0 -50 28 -77.5t74 -27.5z" />
    </font>
</defs>
</svg>
