<?xml version="1.0" standalone="no"?>
<!DOCTYPE svg PUBLIC "-//W3C//DTD SVG 1.1//EN" "http://www.w3.org/Graphics/SVG/1.1/DTD/svg11.dtd" >
<svg xmlns="http://www.w3.org/2000/svg" xmlns:xlink="http://www.w3.org/1999/xlink" version="1.1">
<metadata>
Created by FontForge 20170731 at Sun Jan 22 08:00:30 2023
 By Aleksey,,,
Copyright 2021 Dinamo (Johannes Breyer, Fabian Harb). All rights reserved.
</metadata>
<defs>
<font id="ABCArizonaText-LightItalic" horiz-adv-x="1228" >
  <font-face 
    font-family="ABC Arizona Text Unlicensed Trial Light"
    font-weight="300"
    font-style="italic"
    font-stretch="normal"
    units-per-em="2048"
    panose-1="2 0 0 4 0 2 0 6 0 3"
    ascent="1610"
    descent="-438"
    x-height="965"
    cap-height="1423"
    bbox="-481 -514 2402 1855"
    underline-thickness="102"
    underline-position="-307"
    slope="-14"
    unicode-range="U+0020-FB02"
  />
<missing-glyph horiz-adv-x="1249" 
d="M946 0h-901l365 1454h901zM463 1386l-330 -1320h760l330 1320h-760z" />
    <glyph glyph-name="fi" unicode="fi" horiz-adv-x="1163" 
d="M356 965l45 182q38 151 160.5 239.5t290.5 88.5q149 0 289 -50v-235h-33q-27 91 -101.5 154t-177.5 63q-108 0 -178 -58t-98 -173l-53 -211h590l-197 -781q-22 -88 -6 -114t98 -35v-35h-407v35q51 5 78.5 12t46.5 26t28 42.5t21 72.5l178 713h-445l-180 -715
q-24 -88 -5 -116t112 -35v-35h-424v35q63 5 95 20t47.5 42.5t31.5 88.5l180 715h-199v64h213z" />
    <glyph glyph-name="fl" unicode="fl" horiz-adv-x="1153" 
d="M160 180l180 721h-197v64h213l35 139q43 177 157.5 274t278.5 97q119 0 224 -45l147 34h8l-323 -1282q-21 -83 -5 -110.5t97 -36.5v-35h-406v35q62 6 93 20t47 40.5t30 84.5l260 1041q6 85 -45.5 140.5t-132.5 55.5q-211 0 -276 -274l-45 -178h260v-64h-277l-180 -723
q-24 -78 -5 -106t112 -37v-35h-424v35q91 7 122 34.5t52 110.5z" />
    <glyph glyph-name="f_b.liga" unicode="fb" horiz-adv-x="1763" 
d="M160 180l180 721h-197v64h213l35 143q43 174 158 270.5t280 96.5q117 0 222 -45l145 34h8l-168 -671h6q149 194 330 194q136 0 225 -105.5t89 -271.5q0 -122 -44 -236.5t-119 -201.5t-182.5 -139.5t-228.5 -52.5q-76 0 -142 24.5t-112 63.5h-6l-133 -74h-27l309 1227
q4 86 -48 141t-130 55q-212 0 -278 -272l-45 -180h260v-64h-277l-180 -723q-24 -78 -5 -106t112 -37v-35h-424v35q63 6 95 20.5t48.5 41.5t30.5 83zM1114 35q116 0 215.5 78.5t155 203.5t55.5 261q0 144 -62.5 223.5t-168.5 79.5q-82 0 -153 -48t-142 -128l-92 -367
q-33 -132 22.5 -217.5t169.5 -85.5z" />
    <glyph glyph-name="f_f.liga" unicode="ff" horiz-adv-x="1306" 
d="M1370 1475q111 0 195 -33v-189h-33q-23 64 -72 109t-119 45q-152 0 -194 -168l-68 -274h260v-64h-276l-180 -719q-23 -86 -5.5 -112t111.5 -35v-35h-424v35q91 9 121.5 35t52.5 112l181 719h-435l-180 -721q-23 -82 -5 -110t112 -35v-35h-424v35q91 9 121.5 35.5
t52.5 111.5l180 719h-197v64h213l27 114q43 168 156.5 263.5t277.5 95.5q145 0 262 -82q113 119 289 119zM936 965l51 211l12 43q-10 73 -62 116t-124 43q-102 0 -171.5 -63.5t-104.5 -208.5l-35 -141h434z" />
    <glyph glyph-name="f_f_b.liga" unicode="ffb" horiz-adv-x="2338" 
d="M1948 987q136 0 224.5 -105.5t88.5 -271.5q0 -164 -73.5 -308t-206.5 -233t-293 -89q-76 0 -142 24.5t-112 63.5h-7l-133 -74h-24l307 1227q4 86 -48 141t-130 55q-213 0 -279 -272l-45 -180h262v-64h-276l-182 -723q-24 -78 -5.5 -106t111.5 -37v-35h-424v35
q63 6 95 20.5t48.5 41.5t30.5 83l180 721h-430l-180 -721q-23 -82 -5 -110t112 -35v-35h-424v35q91 9 121.5 35.5t52.5 111.5l180 719h-197v64h213l27 114q43 168 156.5 263.5t277.5 95.5q155 0 275 -88q122 125 311 125q116 0 221 -45l148 34h6l-168 -671h6
q149 194 330 194zM932 965l35 143q11 51 34 102q-9 77 -61.5 122.5t-126.5 45.5q-102 0 -171.5 -63.5t-104.5 -208.5l-35 -141h430zM1692 35q115 0 214 78.5t154.5 203.5t55.5 261q0 144 -63 223.5t-169 79.5q-82 0 -153 -48t-142 -128l-92 -367q-33 -132 23.5 -217.5
t171.5 -85.5z" />
    <glyph glyph-name="f_f_h.liga" unicode="ffh" horiz-adv-x="2351" 
d="M2189 618l-112 -450q-19 -72 -2.5 -98t96.5 -35v-35h-404v35q85 9 116.5 35.5t51.5 107.5l113 447q30 120 -15.5 190t-134.5 70q-150 0 -307 -176l-137 -549q-17 -68 1 -92t89 -33v-35h-399v35q85 8 116.5 32.5t51.5 102.5l262 1051q6 86 -46 141t-132 55
q-211 0 -277 -272l-45 -180h260v-64h-276l-180 -723q-24 -78 -6 -106t112 -37v-35h-424v35q63 6 95 20.5t48.5 41.5t30.5 83l180 721h-430l-180 -721q-23 -82 -5 -110t112 -35v-35h-424v35q91 9 121.5 35.5t52.5 111.5l180 719h-197v64h213l27 114q43 168 156.5 263.5
t277.5 95.5q155 0 275 -88q122 125 311 125q116 0 221 -45l148 34h6l-168 -671h6q159 194 340 194q81 0 143.5 -45t88.5 -127t-1 -197zM932 965l35 143q11 51 34 102q-9 77 -61.5 122.5t-126.5 45.5q-102 0 -171.5 -63.5t-104.5 -208.5l-35 -141h430z" />
    <glyph glyph-name="f_f_i.liga" unicode="ffi" horiz-adv-x="1734" 
d="M1425 1475q145 0 289 -50v-235h-33q-27 91 -101 154t-177 63q-108 0 -179 -58t-100 -173l-51 -211h590l-197 -781q-22 -88 -6 -114t96 -35v-35h-405v35q50 5 77.5 12t46.5 26t28 42.5t22 72.5l176 713h-442l-180 -715q-24 -88 -6.5 -116t110.5 -35v-35h-424v35
q64 5 96.5 20t48 42.5t31.5 88.5l178 715h-428l-180 -721q-23 -82 -5 -110t112 -35v-35h-424v35q91 9 121.5 35.5t52.5 111.5l180 719h-197v64h213l27 114q43 168 156.5 263.5t277.5 95.5q153 0 273 -88q131 125 333 125zM930 965l45 182q8 35 24 74q-10 72 -62 114.5
t-124 42.5q-102 0 -171.5 -63.5t-104.5 -208.5l-35 -141h428z" />
    <glyph glyph-name="f_f_k.liga" unicode="ffk" horiz-adv-x="2260" 
d="M2335 965v-35q-98 -14 -171.5 -49.5t-176.5 -110.5l-301 -219l456 -545v-6h-176l-389 473l-57 -41l-64 -250q-22 -82 -6 -110t96 -37v-35h-405v35q89 7 119.5 33.5t52.5 111.5l260 1043q6 86 -46 140t-132 54q-210 0 -279 -272l-43 -180h260v-64h-276l-180 -723
q-24 -78 -6 -106t112 -37v-35h-424v35q63 6 95 20.5t48.5 41.5t30.5 83l180 721h-428l-180 -721q-23 -82 -5 -110t112 -35v-35h-424v35q91 9 121.5 35.5t52.5 111.5l180 719h-197v64h213l27 114q43 168 156.5 263.5t277.5 95.5q153 0 273 -88q122 125 311 125q116 0 221 -45
l148 34h6l-238 -948h8l396 287q48 35 65 60t0 42.5t-72 24.5v35h398zM930 965l35 143q14 53 36 106q-10 75 -63 119.5t-125 44.5q-102 0 -171.5 -63.5t-104.5 -208.5l-35 -141h428z" />
    <glyph glyph-name="f_f_l.liga" unicode="ffl" horiz-adv-x="1726" 
d="M1778 1464l-322 -1282q-22 -83 -5.5 -110.5t97.5 -36.5v-35h-407v35q90 9 120 35t52 110l260 1041q6 85 -46.5 140.5t-131.5 55.5q-211 0 -279 -274l-43 -178h260v-64h-276l-180 -723q-24 -78 -5.5 -106t111.5 -37v-35h-424v35q89 7 120.5 34.5t53.5 110.5l180 721h-428
l-180 -721q-23 -82 -5 -110t112 -35v-35h-424v35q91 9 121.5 35.5t52.5 111.5l180 719h-197v64h213l27 114q43 168 156.5 263.5t277.5 95.5q157 0 273 -88q122 125 309 125q118 0 223 -45l145 34h9zM930 965l33 139q16 61 38 110q-10 75 -63 119.5t-125 44.5
q-102 0 -171.5 -63.5t-104.5 -208.5l-35 -141h428z" />
    <glyph glyph-name="f_h.liga" unicode="fh" horiz-adv-x="1765" 
d="M160 180l180 721h-197v64h213l35 143q43 174 158 270.5t280 96.5q117 0 222 -45l145 34h8l-168 -671h6q76 94 158 144t182 50q81 0 143.5 -45t89 -127t-0.5 -197l-113 -450q-20 -72 -3 -98t95 -35v-35h-401v35q85 9 116.5 35.5t51.5 107.5l113 447q30 120 -16 190
t-136 70q-148 0 -305 -176l-137 -549q-17 -68 1 -92t89 -33v-35h-400v35q85 8 116.5 32.5t51.5 102.5l262 1051q6 86 -46 141t-132 55q-209 0 -278 -272l-43 -180h260v-64h-277l-180 -723q-24 -78 -5.5 -106t112.5 -37v-35h-424v35q63 6 95 20.5t48.5 41.5t30.5 83z" />
    <glyph glyph-name="f_k.liga" unicode="fk" horiz-adv-x="1687" 
d="M1763 965v-35q-98 -14 -171.5 -49t-178.5 -111l-301 -219l459 -545v-6h-178l-389 473l-56 -39l-63 -252q-22 -82 -6.5 -110t96.5 -37v-35h-406v35q89 7 119.5 33.5t50.5 111.5l262 1043q4 86 -47.5 140t-130.5 54q-212 0 -278 -272l-45 -180h262v-64h-277l-182 -723
q-24 -78 -5 -106t112 -37v-35h-424v35q63 6 95 20.5t48.5 41.5t30.5 83l180 721h-197v64h213l37 143q43 174 157 270.5t279 96.5q117 0 222 -45l149 34h6l-237 -948h6l395 287q49 35 66.5 60t0.5 42.5t-73 24.5v35h399z" />
    <glyph glyph-name=".notdef" horiz-adv-x="1249" 
d="M946 0h-901l365 1454h901zM463 1386l-330 -1320h760l330 1320h-760z" />
    <glyph glyph-name=".null" horiz-adv-x="0" 
 />
    <glyph glyph-name="nonmarkingreturn" horiz-adv-x="682" 
 />
    <glyph glyph-name="space" unicode=" " horiz-adv-x="532" 
 />
    <glyph glyph-name="exclam" unicode="!" horiz-adv-x="550" 
d="M272 375h-49l197 1048h184zM174 -20q-46 0 -74 28.5t-28 75.5q0 55 37.5 92t91.5 37q46 0 75 -29t29 -75q0 -56 -38 -92.5t-93 -36.5z" />
    <glyph glyph-name="quotedbl" unicode="&#x22;" horiz-adv-x="690" 
d="M303 877h-35l68 546h174zM608 877h-37l68 546h174z" />
    <glyph glyph-name="numbersign" unicode="#" horiz-adv-x="1310" 
d="M1358 977v-64h-291l-180 -413h264v-64h-291l-190 -436h-70l191 436h-392l-190 -436h-68l191 436h-262v64h288l181 413h-263v64h291l195 446h67l-194 -446h391l195 446h67l-194 -446h264zM426 500h391l180 413h-391z" />
    <glyph glyph-name="dollar" unicode="$" horiz-adv-x="1067" 
d="M854 1579l-43 -170q154 -18 274 -86v-313h-34q-66 280 -256 333l-144 -579l70 -47q109 -74 167 -153.5t58 -186.5q0 -121 -64 -213t-166.5 -138t-226.5 -46h-34l-41 -164h-64l43 170q-183 20 -338 125v327h35q88 -334 320 -389l143 574l-78 53q-213 142 -213 346
q0 173 129 283t328 110h33l41 164h61zM571 819l27 -18l137 553q-10 2 -35 2q-128 0 -213.5 -76.5t-85.5 -194.5q0 -85 41.5 -146.5t128.5 -119.5zM616 580l-10 6l-137 -547h27q128 0 217.5 74.5t89.5 197.5q0 83 -45.5 142.5t-141.5 126.5z" />
    <glyph glyph-name="percent" unicode="%" horiz-adv-x="1585" 
d="M471 686q-114 0 -186 83t-72 216q0 113 47 217t134 171t192 67q115 0 188.5 -82.5t73.5 -216.5q0 -110 -47.5 -214t-136 -172.5t-193.5 -68.5zM1565 1423h-86l-1346 -1423h86zM473 741q57 0 106 44.5t78.5 112.5t46.5 143t17 141q0 100 -35 151t-100 51q-58 0 -106.5 -44
t-78 -111.5t-45.5 -142.5t-16 -144q0 -98 34 -149.5t99 -51.5zM1116 -14q-114 0 -186 84t-72 217q0 113 47 216.5t134 170.5t192 67q115 0 188.5 -83t73.5 -218q0 -109 -47.5 -213t-136 -172.5t-193.5 -68.5zM1118 41q57 0 106 44.5t78.5 112t46.5 142.5t17 141
q0 102 -35 153.5t-100 51.5q-58 0 -106.5 -44t-78 -111.5t-45.5 -142.5t-16 -144q0 -98 34.5 -150.5t98.5 -52.5z" />
    <glyph glyph-name="ampersand" unicode="&#x26;" horiz-adv-x="1288" 
d="M1073 788h211v-6l-336 -438l223 -336v-8h-170l-137 209h-8q-170 -229 -412 -229q-163 0 -273 104t-110 256q0 147 100.5 247.5t282.5 174.5l43 18l-4 4q-59 90 -91 162.5t-32 151.5q0 145 106.5 245.5t274.5 100.5q144 0 236 -76.5t92 -191.5q0 -114 -84.5 -194
t-236.5 -144l-101 -43l268 -402h9zM735 1386q-105 0 -168 -73.5t-63 -179.5q0 -124 110 -287l7 -8h8l57 26q244 116 244 312q0 93 -51.5 151.5t-143.5 58.5zM510 82q191 0 321 174l-317 481h-6l-33 -14q-120 -55 -188 -144t-68 -202q0 -124 80 -209.5t211 -85.5z" />
    <glyph glyph-name="quotesingle" unicode="'" horiz-adv-x="387" 
d="M303 877h-35l68 546h174z" />
    <glyph glyph-name="parenleft" unicode="(" horiz-adv-x="643" 
d="M416 -299l-33 -20q-134 164 -205.5 337t-71.5 383q0 350 196 664t554 549l27 -31q-191 -149 -335 -358t-218 -433.5t-74 -437.5q0 -383 160 -653z" />
    <glyph glyph-name="parenright" unicode=")" horiz-adv-x="645" 
d="M311 1593l35 21q134 -164 205.5 -337.5t71.5 -383.5q0 -349 -196.5 -662.5t-553.5 -549.5l-29 30q192 149 336 358t218.5 433.5t74.5 437.5q0 385 -162 653z" />
    <glyph glyph-name="asterisk" unicode="*" horiz-adv-x="851" 
d="M573 1081l-170 -299l-102 78l248 238v2l-293 -51v135l301 -54v3l-151 260l124 51l58 -299h2l170 299l102 -76l-250 -242v-2l293 54v-134l-299 52l-2 -4l154 -261l-127 -49l-56 299h-2z" />
    <glyph glyph-name="plus" unicode="+" horiz-adv-x="1185" 
d="M631 516h424v-67h-424v-433h-72v433h-420v67h420v434h72v-434z" />
    <glyph glyph-name="comma" unicode="," horiz-adv-x="475" 
d="M174 213q50 0 81.5 -33t31.5 -80q0 -39 -18.5 -73t-55.5 -78l-217 -268h-66l248 301q-8 -2 -24 -2q-49 0 -79 30t-30 76q0 51 36 89t93 38z" />
    <glyph glyph-name="hyphen" unicode="-" horiz-adv-x="821" 
d="M172 573h539v76h-539v-76z" />
    <glyph glyph-name="period" unicode="." horiz-adv-x="464" 
d="M145 -20q-46 0 -74 28.5t-28 75.5q0 55 37.5 92t91.5 37q46 0 75 -29t29 -75q0 -56 -38 -92.5t-93 -36.5z" />
    <glyph glyph-name="slash" unicode="/" horiz-adv-x="753" 
d="M971 1505h-78l-989 -1585h78z" />
    <glyph glyph-name="zero" unicode="0" horiz-adv-x="1222" 
d="M541 -20q-179 0 -284 138.5t-105 375.5q0 127 29 257.5t86 248.5t133 210.5t178 147.5t213 55q177 0 283 -143.5t106 -380.5q0 -106 -21 -214.5t-59 -209.5t-95.5 -189.5t-126.5 -154t-156 -103.5t-181 -38zM535 41q87 0 165.5 62.5t134 163t96.5 224.5t61 248.5
t20 233.5q0 181 -55.5 280t-161.5 99t-199.5 -96.5t-152.5 -241.5t-92.5 -304.5t-33.5 -295.5q0 -180 56 -276.5t162 -96.5z" />
    <glyph glyph-name="one" unicode="1" horiz-adv-x="710" 
d="M356 0h-145l272 1096h-270v34q146 45 255 110.5t191 164.5h48z" />
    <glyph glyph-name="two" unicode="2" horiz-adv-x="1073" 
d="M870 143v-143h-876v37l444 348q94 74 152 123t123.5 114.5t101 119.5t59 120t23.5 135q0 137 -84.5 221.5t-220.5 84.5q-183 0 -324 -164l-28 26q71 113 178.5 180.5t238.5 67.5q173 0 287.5 -107t114.5 -276q0 -61 -15.5 -117.5t-50 -111.5t-74 -102t-105 -104.5
t-123.5 -103t-148 -112.5l-305 -229v-7h632z" />
    <glyph glyph-name="three" unicode="3" horiz-adv-x="1097" 
d="M477 -20q-298 0 -450 288l30 23q133 -201 361 -201q165 0 270 96t105 246q0 136 -87.5 213.5t-254.5 83.5v37l532 477v6h-664v144h879v-37l-639 -572v-6q190 -20 292.5 -120.5t102.5 -247.5q0 -125 -65.5 -224t-174 -152.5t-237.5 -53.5z" />
    <glyph glyph-name="four" unicode="4" horiz-adv-x="1226" 
d="M737 0h-143l98 387h-678v37l1037 979h36l-219 -881h303v-135h-337zM879 1161l-668 -631v-8h516l158 639h-6z" />
    <glyph glyph-name="five" unicode="5" horiz-adv-x="1097" 
d="M461 -20q-304 0 -453 288l33 23q133 -201 367 -201q174 0 289.5 104t115.5 267q0 130 -75.5 207t-205.5 77q-85 0 -159.5 -29t-159.5 -89h-6l305 766h645v-144h-639l-207 -518l6 -2q131 111 287 111q155 0 262 -101.5t107 -269.5q0 -137 -68 -249.5t-185.5 -176
t-258.5 -63.5z" />
    <glyph glyph-name="six" unicode="6" horiz-adv-x="1198" 
d="M582 -20q-184 0 -295.5 117.5t-134.5 308.5q-25 188 37 382t190 340q111 128 256 200.5t315 72.5q186 0 322 -90l-23 -39q-113 61 -260 61q-253 0 -427 -180.5t-238 -515.5h6q152 211 366 211q160 0 270.5 -106t110.5 -273q0 -126 -61 -237t-176 -181.5t-258 -70.5z
M571 39q79 0 144.5 36.5t107 95t64 129t22.5 142.5q0 143 -73.5 230.5t-194.5 87.5q-96 0 -182 -60t-148 -159l-8 -62q-16 -115 8.5 -214t92 -162.5t167.5 -63.5z" />
    <glyph glyph-name="seven" unicode="7" horiz-adv-x="978" 
d="M1028 1249v-6l-1028 -1237v-6h213l952 1356v37h-899v-144h762z" />
    <glyph glyph-name="eight" unicode="8" horiz-adv-x="1232" 
d="M543 -20q-207 0 -333 103t-126 259q0 113 63.5 203t170.5 143t243 68v8q-107 24 -176.5 97t-69.5 177q0 165 138 270t346 105q183 0 298 -89.5t115 -227.5q0 -143 -111.5 -238t-299.5 -119v-6q137 -27 218 -110.5t81 -206.5q0 -129 -77 -230t-203.5 -153.5t-276.5 -52.5z
M715 776q151 0 244.5 97.5t93.5 238.5q0 112 -67.5 177t-182.5 65q-145 0 -236.5 -97t-91.5 -239q0 -110 63.5 -176t176.5 -66zM537 39q175 0 288 115.5t113 279.5q0 129 -79.5 206t-211.5 77q-173 0 -288 -118t-115 -282q0 -126 78.5 -202t214.5 -76z" />
    <glyph glyph-name="nine" unicode="9" horiz-adv-x="1198" 
d="M365 -8q-91 0 -178 25t-150 67l22 41q119 -64 265 -64q112 0 210.5 38t174 105t133.5 159.5t94 202t51 231.5h-8q-67 -100 -165.5 -161t-215.5 -61q-154 0 -257 109t-103 270q0 123 57 227t165.5 168t246.5 64q157 0 268 -92.5t155 -249.5q54 -195 3 -408.5t-189 -377.5
q-242 -293 -579 -293zM662 664q193 0 331 227l2 43q12 182 -65 301t-213 119q-148 0 -233 -108t-85 -261q0 -135 70 -228t193 -93z" />
    <glyph glyph-name="colon" unicode=":" horiz-adv-x="524" 
d="M326 676q-47 0 -76 28.5t-29 75.5q0 55 38 92t91 37q47 0 76 -29t29 -75q0 -56 -37.5 -92.5t-91.5 -36.5zM158 -20q-47 0 -76 28.5t-29 75.5q0 55 38 92t91 37q47 0 77 -29t30 -75q0 -56 -38.5 -92.5t-92.5 -36.5z" />
    <glyph glyph-name="semicolon" unicode=";" horiz-adv-x="542" 
d="M352 909q47 0 76 -29t29 -75q0 -56 -37.5 -92.5t-91.5 -36.5q-47 0 -76 28.5t-29 75.5q0 55 38 92t91 37zM195 213q51 0 82.5 -33t31.5 -80q0 -39 -18.5 -73.5t-54.5 -77.5l-218 -268h-65l248 301q-8 -2 -25 -2q-49 0 -78.5 30t-29.5 76q0 51 36 89t91 38z" />
    <glyph glyph-name="less" unicode="&#x3c;" horiz-adv-x="1155" 
d="M987 106v-73l-895 413v72l895 416v-76l-809 -375v-4z" />
    <glyph glyph-name="equal" unicode="=" horiz-adv-x="1286" 
d="M1104 623h-916v67h916v-67zM1104 276h-916v68h916v-68z" />
    <glyph glyph-name="greater" unicode="&#x3e;" horiz-adv-x="1155" 
d="M1065 444l-897 -413v73l811 373v6l-811 373v76l897 -414v-74z" />
    <glyph glyph-name="question" unicode="?" horiz-adv-x="1003" 
d="M418 379l63 254q199 89 302.5 191.5t103.5 246.5q0 119 -81.5 190.5t-211.5 71.5q-202 0 -336 -172l-33 27q76 122 187.5 189t246.5 67q169 0 276 -98.5t107 -243.5q0 -74 -27.5 -140t-72.5 -116.5t-112.5 -97.5t-136.5 -81.5t-156 -68.5l-56 -219h-63zM385 -20
q-46 0 -75 28.5t-29 75.5q0 55 38 92t93 37q46 0 75 -29t29 -75q0 -56 -38 -92.5t-93 -36.5z" />
    <glyph glyph-name="at" unicode="@" horiz-adv-x="1609" 
d="M721 -258q-184 0 -327.5 80.5t-222.5 223.5t-79 325q0 174 65.5 333.5t177.5 276.5t270 186.5t335 69.5q264 0 430 -159t166 -410q0 -149 -52 -279t-150 -211.5t-220 -81.5q-83 0 -139 38t-68 99h-6q-103 -137 -246 -137q-102 0 -167.5 79.5t-65.5 201.5q0 127 61 242
t169 186.5t233 71.5q119 0 211 -72h4l123 59h24l-194 -514q-32 -80 -11.5 -136t93.5 -56q72 0 136 46.5t105.5 120.5t65.5 163.5t24 177.5q0 228 -145.5 368t-382.5 140q-131 0 -251 -41.5t-215 -117t-165.5 -175t-108.5 -220.5t-38 -249q0 -251 156.5 -408.5t408.5 -157.5
q210 0 393 107l27 -51q-201 -119 -424 -119zM717 197q92 0 164 82l114 311q38 103 5.5 170t-121.5 67q-93 0 -169 -65.5t-115.5 -162.5t-39.5 -198q0 -91 40 -147.5t122 -56.5z" />
    <glyph glyph-name="A" unicode="A" horiz-adv-x="1419" 
d="M961 1434l192 -1188q18 -106 44.5 -147.5t102.5 -63.5v-35h-509v35q73 9 118 25t66.5 40t26 57t-2.5 76l-38 250h-574l-156 -245q-62 -88 -45.5 -134.5t140.5 -68.5v-35h-432v35q66 14 113 41.5t79 64t74 101.5l758 1192h43zM840 1192l-412 -645h522l-102 645h-8z" />
    <glyph glyph-name="B" unicode="B" horiz-adv-x="1345" 
d="M-35 0v35q120 11 169 49t77 145l238 957q29 107 2.5 150.5t-136.5 52.5v34h553q210 0 330.5 -81t120.5 -218q0 -153 -127 -250.5t-326 -121.5v-9q159 -16 263 -98.5t104 -214.5q0 -129 -85 -228t-228.5 -150.5t-319.5 -51.5h-635zM506 780h213q195 0 313.5 93.5
t118.5 250.5q0 117 -83 178.5t-239 61.5h-178zM690 721h-198l-166 -662h239q225 0 360.5 109t135.5 281q0 135 -95.5 203.5t-275.5 68.5z" />
    <glyph glyph-name="C" unicode="C" horiz-adv-x="1429" 
d="M766 -20q-125 0 -236 45.5t-193.5 127t-130.5 201.5t-48 262q0 160 60.5 310t165.5 264.5t260.5 184t332.5 69.5q231 0 426 -101v-335h-35q-103 374 -407 374q-129 0 -247 -63t-199.5 -165t-130 -233.5t-48.5 -265.5q0 -253 136.5 -404t346.5 -151q148 0 271 62t239 194
l31 -26q-244 -350 -594 -350z" />
    <glyph glyph-name="D" unicode="D" horiz-adv-x="1570" 
d="M213 240l233 944q30 110 4 152.5t-137 52.5v34h529q202 0 359 -73.5t244 -209t87 -313.5q0 -183 -69 -337.5t-192.5 -262t-298 -167.5t-380.5 -60h-629v35q125 12 173 51t77 154zM649 1364l-323 -1305h219q186 0 339.5 60.5t255 166.5t157 250.5t55.5 311.5
q0 244 -144 380t-389 136h-170z" />
    <glyph glyph-name="E" unicode="E" horiz-adv-x="1343" 
d="M1141 424h35v-424h-1213v35q65 6 105.5 18t69.5 38t45.5 61.5t31.5 95.5l231 936q13 48 15.5 80.5t-3.5 55.5t-25.5 36.5t-47 21t-72.5 11.5v34h1063v-344h-35q-14 153 -87.5 219t-241.5 66h-363l-151 -612h209q129 0 184.5 50t66.5 163h35v-486h-35q-11 112 -66 162.5
t-185 50.5h-226l-155 -633h458q173 0 255 80t102 285z" />
    <glyph glyph-name="F" unicode="F" horiz-adv-x="1220" 
d="M-37 0v35q126 12 175 52t75 151l233 940q29 117 2 158.5t-135 52.5v34h1006v-344h-35q-15 156 -91.5 220.5t-244.5 64.5h-297l-157 -627h229q129 0 185.5 50.5t64.5 162.5h37v-485h-37q-8 111 -65.5 162t-186.5 51h-242l-108 -440q-28 -114 2 -152.5t153 -50.5v-35h-563z
" />
    <glyph glyph-name="G" unicode="G" horiz-adv-x="1568" 
d="M977 670v35h596v-35q-110 -11 -163 -52.5t-79 -142.5l-92 -373q-113 -62 -216 -92t-220 -30q-142 0 -263 48.5t-205 132.5t-131.5 201.5t-47.5 253.5q0 166 67.5 318.5t184.5 264.5t283 178.5t353 66.5q261 0 472 -101v-321h-35q-56 180 -169.5 270t-273.5 90
q-156 0 -289.5 -65t-222.5 -172.5t-139.5 -245.5t-50.5 -285q0 -256 130.5 -413.5t360.5 -157.5q130 0 252 47l97 389q26 105 -18 144t-181 47z" />
    <glyph glyph-name="H" unicode="H" horiz-adv-x="1681" 
d="M1292 1389v34h537v-34q-119 -11 -167.5 -48.5t-74.5 -144.5l-239 -960q-27 -114 -0.5 -151.5t135.5 -49.5v-35h-535v35q119 9 167 46.5t77 151.5l117 467h-826l-114 -464q-28 -114 -0.5 -151.5t135.5 -49.5v-35h-537v35q119 9 167 47t77 151l238 959q28 108 0 147
t-138 50v34h539v-34q-120 -11 -168.5 -48t-75.5 -145l-106 -432h823l107 428q27 108 -2 147t-136 50z" />
    <glyph glyph-name="I" unicode="I" horiz-adv-x="700" 
d="M-33 0v35q63 6 99 15t66 31.5t47 59t32 99.5l238 948q15 59 16 94.5t-16.5 58.5t-49 32.5t-88.5 15.5v34h539v-34q-122 -12 -169.5 -49t-74.5 -148l-237 -950q-16 -63 -17 -100t17.5 -59.5t48 -31.5t86.5 -16v-35h-537z" />
    <glyph glyph-name="J" unicode="J" horiz-adv-x="927" 
d="M199 -20q-159 0 -283 83l23 39q104 -53 211 -53q263 0 335 285l213 852q27 116 1 154t-136 49v34h537v-34q-121 -12 -169 -50t-75 -151l-207 -828q-96 -380 -450 -380z" />
    <glyph glyph-name="K" unicode="K" horiz-adv-x="1406" 
d="M1606 1423v-34q-125 -19 -213 -64t-201 -137l-528 -422l628 -760v-6h-198l-547 672l-88 -70l-90 -362q-16 -60 -17 -96.5t16 -59.5t48 -33t88 -16v-35h-537v35q120 11 167.5 49t76.5 154l238 950q27 113 0 151t-138 50v34h539v-34q-85 -9 -128.5 -27t-70.5 -57t-47 -117
l-121 -483h6l639 512q46 36 71 63t31.5 49.5t-16 37.5t-73.5 22v34h465z" />
    <glyph glyph-name="L" unicode="L" horiz-adv-x="1214" 
d="M-37 0v35q124 12 171.5 50.5t76.5 156.5l238 948q29 111 0.5 150.5t-136.5 48.5v34h537v-34q-121 -9 -168 -46.5t-76 -150.5l-282 -1133h346q95 0 155.5 16t110 61.5t76.5 129.5t39 217h36v-483h-1124z" />
    <glyph glyph-name="M" unicode="M" horiz-adv-x="1935" 
d="M829 -10h-43l-249 1255h-9l-249 -1012q-27 -111 -0.5 -148.5t135.5 -49.5v-35h-451v35q123 11 172 48.5t76 149.5l238 951q28 110 1 151.5t-135 53.5v34h340l242 -1218h8l834 1218h348v-34q-121 -9 -170 -49t-78 -154l-235 -950q-15 -60 -16.5 -95.5t15 -58t46.5 -32
t86 -15.5v-35h-535v35q122 12 169.5 49.5t76.5 151.5l250 1007h-8z" />
    <glyph glyph-name="N" unicode="N" horiz-adv-x="1556" 
d="M-43 0v35q123 12 172 50t76 148l250 1014l-90 170v6h194l612 -1169h7l233 936q27 110 1 148.5t-134 50.5v34h446v-34q-121 -12 -169 -51t-76 -148l-301 -1200h-48l-620 1179h-8l-232 -936q-27 -111 0 -148.5t136 -49.5v-35h-449z" />
    <glyph glyph-name="O" unicode="O" horiz-adv-x="1607" 
d="M748 -20q-264 0 -430 168t-166 432q0 133 40 261.5t115 236.5t175.5 190.5t229.5 129t269 46.5q172 0 307 -76.5t210 -213.5t75 -310q0 -167 -63 -324.5t-171 -276.5t-263 -191t-328 -72zM752 43q113 0 216 49t179 132.5t132.5 189.5t85 223.5t28.5 232.5
q0 235 -112 372.5t-304 137.5q-96 0 -184.5 -35t-158.5 -95t-127.5 -141t-95.5 -173t-58.5 -190.5t-20.5 -194.5q0 -236 113 -372t307 -136z" />
    <glyph glyph-name="P" unicode="P" horiz-adv-x="1212" 
d="M668 621h-203l-96 -385q-12 -47 -13.5 -78.5t6 -53.5t29.5 -35t52 -20.5t79 -13.5v-35h-559v35q123 11 172 50.5t78 154.5l236 944q28 114 2 154.5t-138 50.5v34h488q220 0 355.5 -95.5t135.5 -262.5q0 -142 -85 -244t-224 -151t-315 -49zM780 1364h-129l-172 -684h162
q219 0 350 108t131 291q0 138 -91.5 211.5t-250.5 73.5z" />
    <glyph glyph-name="Q" unicode="Q" horiz-adv-x="1601" 
d="M963 43v-6h563v-195h-8l-635 154q-71 -16 -146 -16q-259 0 -422 168t-163 434q0 167 62.5 324t169.5 275.5t261 190.5t326 72q171 0 305.5 -77t208.5 -213.5t74 -307.5q0 -287 -167.5 -512t-428.5 -291zM332 553q0 -236 110 -373t299 -137q114 0 216 48.5t177.5 131
t131.5 188.5t84 224.5t28 236.5q0 234 -110 371t-297 137q-113 0 -216 -49t-178.5 -132t-131.5 -189t-84.5 -224t-28.5 -233z" />
    <glyph glyph-name="R" unicode="R" horiz-adv-x="1337" 
d="M1296 1110q0 -170 -159.5 -274t-411.5 -107l528 -723v-6h-184l-518 731h-55l-125 -500q-28 -109 -1.5 -147.5t136.5 -48.5v-35h-539v35q122 9 169.5 46t76.5 152l238 953q30 109 3.5 151.5t-139.5 51.5v34h500q217 0 349 -84.5t132 -228.5zM653 1364l-145 -580h164
q204 0 330 90t126 246q0 118 -87 181t-246 63h-142z" />
    <glyph glyph-name="S" unicode="S" horiz-adv-x="1114" 
d="M520 -20q-244 0 -442 137v329h35q56 -210 163.5 -307.5t249.5 -97.5q130 0 222 75.5t92 198.5q0 86 -46.5 146.5t-146.5 128.5l-143 98q-105 71 -160 156.5t-55 197.5q0 177 131.5 289.5t333.5 112.5q100 0 200 -27t174 -71v-316h-34q-87 352 -359 352q-131 0 -219 -77.5
t-88 -196.5q0 -89 41 -149.5t133 -122.5l156 -105q111 -74 168 -154.5t57 -191.5q0 -124 -65 -217.5t-169 -140.5t-229 -47z" />
    <glyph glyph-name="T" unicode="T" horiz-adv-x="1286" 
d="M233 0v35q137 11 190.5 51.5t82.5 157.5l280 1122h-141q-179 0 -260 -72t-100 -235h-37v364h1169v-364h-37q-21 162 -104 234.5t-260 72.5h-72l-282 -1124q-28 -116 4 -156.5t161 -50.5v-35h-594z" />
    <glyph glyph-name="U" unicode="U" horiz-adv-x="1593" 
d="M725 -20q-170 0 -288 76t-161 211.5t0 322.5l150 596q27 114 0.5 152.5t-137.5 50.5v34h540v-34q-65 -7 -102 -17t-66.5 -32.5t-46 -57.5t-30.5 -94l-152 -606q-56 -227 36 -359.5t294 -132.5t340 126.5t194 354.5l154 617q12 48 14.5 79.5t-3.5 54t-25.5 35t-46.5 20
t-72 12.5v34h448v-34q-123 -12 -171.5 -49.5t-75.5 -149.5l-158 -629q-67 -273 -227 -427t-408 -154z" />
    <glyph glyph-name="V" unicode="V" horiz-adv-x="1413" 
d="M1360 1163l-756 -1173h-43l-166 1184q-15 104 -45.5 150t-113.5 65v34h520v-34q-102 -12 -149.5 -36t-58 -66.5t0.5 -108.5l131 -942h6l602 933q29 45 43.5 74.5t19 54.5t-7.5 41t-38 28.5t-72 21.5v34h412v-34q-100 -21 -157.5 -69t-127.5 -157z" />
    <glyph glyph-name="W" unicode="W" horiz-adv-x="2011" 
d="M465 -10l-70 1192q-6 98 -35.5 141.5t-117.5 65.5v34h520v-34q-77 -9 -122.5 -24.5t-66 -43t-25 -55t-1.5 -76.5l51 -922h8l553 930l-16 225h157l80 -1149h9l499 889q20 36 30.5 57t20.5 46t9.5 39t-5.5 29t-20.5 24t-39.5 17t-60 14v34h413v-34q-56 -11 -95.5 -28.5
t-71.5 -47.5t-54.5 -62t-54.5 -88l-662 -1173h-47l-77 1093h-9l-653 -1093h-47z" />
    <glyph glyph-name="X" unicode="X" horiz-adv-x="1435" 
d="M231 233l482 492l-240 475q-46 92 -87 132.5t-120 56.5v34h525v-34q-89 -12 -131 -36.5t-43 -60.5t22 -84l180 -362h8l363 371q48 49 59.5 83t-13.5 56.5t-89 32.5v34h418v-34q-95 -19 -156 -60t-152 -133l-407 -418l270 -542q23 -46 40 -73t42 -55.5t56.5 -45.5
t74.5 -27v-35h-526v35q131 20 164 62t-8 116l-222 444h-8l-420 -428q-41 -42 -60.5 -72t-19 -54.5t27 -41t81.5 -26.5v-35h-422v35q95 22 155.5 62.5t155.5 135.5z" />
    <glyph glyph-name="Y" unicode="Y" horiz-adv-x="1423" 
d="M1221 1389v34h421v-34q-97 -16 -159.5 -60t-136.5 -129l-521 -592l-94 -377q-11 -46 -13 -77.5t4.5 -53t26.5 -34.5t46.5 -20t70.5 -11v-35h-536v35q121 12 168.5 49t74.5 147l93 363l-228 616q-30 83 -66 124t-114 55v34h526v-34q-98 -11 -144 -37t-48 -65.5t16 -92.5
l187 -516h6l461 522q38 42 55.5 71.5t16.5 54t-29 39.5t-84 24z" />
    <glyph glyph-name="Z" unicode="Z" horiz-adv-x="1241" 
d="M1059 0h-1084v37l1164 1321v6h-469q-158 0 -237 -74.5t-105 -245.5h-35v379h1073v-37l-1163 -1320v-7h454q87 0 147.5 17.5t106 60.5t72.5 114t41 179h35v-430z" />
    <glyph glyph-name="bracketleft" unicode="[" horiz-adv-x="675" 
d="M932 1593v-51h-307l-447 -1790h295v-51h-450l471 1892h438z" />
    <glyph glyph-name="backslash" unicode="\" horiz-adv-x="747" 
d="M567 -80l-207 1585h-65l205 -1585h67z" />
    <glyph glyph-name="bracketright" unicode="]" horiz-adv-x="675" 
d="M-170 -299v51h307l445 1790h-293v51h450l-471 -1892h-438z" />
    <glyph glyph-name="asciicircum" unicode="^" horiz-adv-x="806" 
d="M276 817h-77l280 606h64l280 -606h-80l-229 516h-6z" />
    <glyph glyph-name="underscore" unicode="_" horiz-adv-x="944" 
d="M-111 -199h859v68h-859v-68z" />
    <glyph glyph-name="grave" unicode="`" horiz-adv-x="411" 
d="M461 1397l33 -275h-37l-195 269v6h199z" />
    <glyph glyph-name="a" unicode="a" horiz-adv-x="1134" 
d="M387 -20q-135 0 -221 105.5t-86 272.5q0 159 71.5 302.5t202 235t287.5 91.5q147 0 256 -88h4l133 74h25l-189 -756q-21 -70 -4.5 -95t99.5 -28v-33l-287 -73h-10l47 188h-6q-140 -196 -322 -196zM444 84q82 0 152.5 47.5t140.5 130.5l92 369q34 130 -21.5 214.5
t-170.5 84.5q-113 0 -209.5 -78t-150.5 -203t-54 -264q0 -137 59.5 -219t161.5 -82z" />
    <glyph glyph-name="b" unicode="b" horiz-adv-x="1118" 
d="M467 -20q-149 0 -254 88h-6l-135 -84h-25l311 1249q17 69 -5 94t-105 29v33l305 75h8l-170 -671h8q144 194 328 194q137 0 225 -104.5t88 -272.5q0 -164 -73 -308t-206 -233t-294 -89zM471 35q116 0 215.5 79.5t155 204t55.5 259.5q0 144 -63.5 223.5t-169.5 79.5
q-81 0 -152 -48t-141 -128l-92 -369q-33 -132 22.5 -216.5t169.5 -84.5z" />
    <glyph glyph-name="c" unicode="c" horiz-adv-x="978" 
d="M477 -20q-174 0 -281.5 123t-107.5 305q0 155 69.5 287t197 212t286.5 80q144 0 266 -61v-230h-35q-29 111 -92 170.5t-153 59.5q-110 0 -202 -67t-143 -175t-51 -231q0 -164 81.5 -258.5t219.5 -94.5q183 0 316 138l29 -25q-170 -233 -400 -233z" />
    <glyph glyph-name="d" unicode="d" horiz-adv-x="1140" 
d="M393 -20q-139 0 -226 105t-87 273q0 118 43 232t117 201.5t182 141.5t229 54q139 0 254 -86h4l84 336q17 65 -5.5 90.5t-104.5 28.5v33l305 75h8l-313 -1251q-21 -69 -4.5 -92.5t98.5 -26.5v-33l-287 -73h-8l45 186h-6q-143 -194 -328 -194zM455 84q81 0 152 46.5
t143 129.5l92 369q33 134 -23.5 217.5t-171.5 83.5q-114 0 -212.5 -77t-155 -202.5t-56.5 -265.5q0 -138 62 -219.5t170 -81.5z" />
    <glyph glyph-name="e" unicode="e" horiz-adv-x="997" 
d="M604 987q168 0 253.5 -107t55.5 -262l-6 -30h-663q-17 -76 -17 -135q0 -167 84 -260t221 -93q181 0 316 138l29 -25q-173 -233 -404 -233q-165 0 -275 118t-110 301q0 153 64.5 287t184 217.5t267.5 83.5zM592 928q-115 0 -202.5 -79t-129.5 -204h514q23 123 -25 203
t-157 80z" />
    <glyph glyph-name="f" unicode="f" horiz-adv-x="729" 
d="M-12 0v35q90 9 121 35t53 112l180 719h-199v64h213l54 211q33 136 132.5 217.5t250.5 81.5q110 0 194 -33v-189h-33q-23 64 -72.5 109t-119.5 45q-72 0 -123 -42t-72 -126l-67 -274h262v-64h-277l-180 -719q-23 -86 -5 -112t112 -35v-35h-424z" />
    <glyph glyph-name="g" unicode="g" horiz-adv-x="1021" 
d="M1071 1106v-176h-315v-6q65 -24 106 -81t41 -134q0 -152 -124.5 -252.5t-299.5 -100.5q-82 0 -149 25q-66 -26 -106 -62.5t-40 -76.5q0 -71 119 -90l305 -52q129 -19 200 -69.5t71 -147.5q0 -95 -72.5 -168t-191.5 -111t-261 -38q-184 0 -305 65.5t-121 178.5
q0 74 64 134.5t180 102.5v4q-109 37 -109 139q0 64 57 120t156 93v5q-122 77 -122 223q0 154 124 255t300 101q55 0 104 -14l383 133h6zM758 735q0 92 -47.5 145.5t-130.5 53.5q-122 0 -201.5 -97.5t-79.5 -226.5q0 -94 48.5 -147t133.5 -53q120 0 198.5 98.5t78.5 226.5z
M557 -18l-311 53q-91 -36 -140 -90.5t-49 -118.5q0 -95 85.5 -150t215.5 -55q105 0 191.5 26t139 76.5t52.5 116.5q0 62 -46 95t-138 47z" />
    <glyph glyph-name="h" unicode="h" horiz-adv-x="1150" 
d="M125 174l264 1059q17 69 -5 94.5t-105 28.5v33l305 75h6l-168 -671h6q161 194 340 194q82 0 144.5 -45.5t88.5 -127.5t0 -196l-112 -450q-21 -72 -4.5 -98t96.5 -35v-35h-403v35q86 9 118 36t52 107l110 447q30 120 -15 190t-136 70q-149 0 -306 -176l-137 -549
q-17 -68 1.5 -92.5t88.5 -32.5v-35h-399v35q88 7 118.5 33t51.5 106z" />
    <glyph glyph-name="i" unicode="i" horiz-adv-x="555" 
d="M461 1159q-43 0 -71 27t-28 71q0 51 36.5 88t88.5 37q43 0 71 -27.5t28 -68.5q0 -54 -36 -90.5t-89 -36.5zM485 977l-200 -803q-21 -78 -4 -104t96 -35v-35h-406v35q92 9 121 34t51 113l140 561q19 70 -3 95t-106 30v33l303 76h8z" />
    <glyph glyph-name="j" unicode="j" horiz-adv-x="514" 
d="M446 1159q-43 0 -70.5 27t-27.5 71q0 51 37 88t90 37q41 0 68.5 -27.5t27.5 -68.5q0 -54 -36 -90.5t-89 -36.5zM-158 -434q-91 0 -164 39l19 39q61 -23 121 -23q85 0 138 49.5t81 157.5l229 915q17 70 -5.5 96t-104.5 29v33l305 76h6l-281 -1129q-35 -135 -121 -208.5
t-223 -73.5z" />
    <glyph glyph-name="k" unicode="k" horiz-adv-x="1071" 
d="M1145 965v-35q-94 -13 -169 -48.5t-179 -109.5l-303 -219l458 -547v-6h-176l-389 473l-57 -41l-64 -252q-22 -78 -6 -107t96 -38v-35h-405v35q90 9 120 34t50 107l268 1065q14 63 -8 87.5t-105 27.5v33l306 75h6l-238 -948h8l396 287q48 35 65.5 60t1 42.5t-72.5 24.5v35
h397z" />
    <glyph glyph-name="l" unicode="l" horiz-adv-x="536" 
d="M-49 0v35q91 9 119.5 34t52.5 113l262 1053q17 68 -4.5 93t-104.5 28v33l304 75h8l-324 -1284q-21 -82 -4 -109t96 -36v-35h-405z" />
    <glyph glyph-name="m" unicode="m" horiz-adv-x="1720" 
d="M141 178l142 570q17 68 -5.5 92.5t-105.5 27.5v33l305 76h6l-45 -184h6q73 86 154 140t184 54q97 0 158 -62.5t61 -156.5h7q167 219 354 219q118 0 185 -94.5t28 -249.5l-117 -467q-21 -79 -5 -105.5t97 -35.5v-35h-403v35q85 9 117 35.5t53 109.5l119 482
q26 101 -14 162t-122 61q-141 0 -299 -185l-127 -518q-22 -85 -7.5 -111t91.5 -36v-35h-397v35q87 9 117.5 36t52.5 113l119 484q26 102 -10.5 159.5t-120.5 57.5q-141 0 -301 -176l-131 -525q-22 -86 -7 -112.5t91 -36.5v-35h-400v35q91 9 120.5 34t49.5 109z" />
    <glyph glyph-name="n" unicode="n" horiz-adv-x="1165" 
d="M139 170l144 573q18 69 -3.5 95t-107.5 30v33l305 76h8l-47 -184h6q159 194 338 194q129 0 202 -103.5t32 -265.5l-113 -452q-21 -70 -3.5 -96t97.5 -35v-35h-403v35q85 9 116.5 36t53.5 107l110 449q30 119 -15.5 188.5t-137.5 69.5q-146 0 -303 -176l-137 -549
q-17 -68 2 -92.5t90 -32.5v-35h-402v35q87 7 117 32t51 103z" />
    <glyph glyph-name="o" unicode="o" horiz-adv-x="1126" 
d="M481 -20q-179 0 -288 111.5t-109 289.5q0 162 72.5 300.5t203 222t287.5 83.5q179 0 289.5 -111.5t110.5 -289.5q0 -162 -73 -300.5t-204 -222t-289 -83.5zM483 41q91 0 169 52.5t128 136.5t78.5 185.5t28.5 202.5q0 142 -65.5 225t-176.5 83q-90 0 -167.5 -52.5
t-127.5 -137t-78 -186t-28 -202.5q0 -144 64 -225.5t175 -81.5z" />
    <glyph glyph-name="p" unicode="p" horiz-adv-x="1148" 
d="M25 -225l245 977q15 65 -7 88.5t-103 27.5v33l303 76h8l-47 -184h6q144 194 330 194q136 0 224.5 -103.5t88.5 -277.5q0 -116 -42.5 -229t-116.5 -201t-182.5 -142t-231.5 -54q-140 0 -254 83h-4l-72 -288q-25 -86 -8.5 -113.5t108.5 -36.5v-35h-417v35q63 6 94.5 20.5
t47.5 42t30 87.5zM502 35q73 0 140.5 31.5t118.5 85.5t89 122.5t58 146t20 152.5q0 147 -63 227.5t-167 80.5q-85 0 -155 -47.5t-142 -128.5l-90 -365q-33 -133 22 -219t169 -86z" />
    <glyph glyph-name="q" unicode="q" horiz-adv-x="1114" 
d="M625 -229l100 403h-6q-143 -194 -328 -194q-139 0 -226 104.5t-87 271.5q0 120 43 234.5t117.5 202t182.5 141t230 53.5q146 0 254 -88h6l133 74h25l-299 -1204q-23 -85 -8 -110t96 -34v-35h-416v35q97 7 130 33.5t53 112.5zM453 84q81 0 150.5 47t144.5 129l92 367
q33 136 -23.5 219.5t-169.5 83.5q-116 0 -215 -78t-155 -203t-56 -264q0 -138 62 -219.5t170 -81.5z" />
    <glyph glyph-name="r" unicode="r" horiz-adv-x="772" 
d="M139 170l144 571q18 72 -5 97t-106 30v33l303 76h8l-75 -303h8q77 158 158 235.5t186 77.5q34 0 67 -10v-148q-41 13 -86 13q-199 0 -362 -291l-96 -385q-20 -75 -1 -99.5t109 -31.5v-35h-422v35q87 7 119 33t51 102z" />
    <glyph glyph-name="s" unicode="s" horiz-adv-x="841" 
d="M344 -20q-171 0 -307 92v215h35q82 -250 286 -250q84 0 142.5 45t58.5 125q0 53 -28.5 90.5t-94.5 83.5l-106 76q-76 57 -112 114.5t-36 130.5q0 118 95 201.5t247 83.5q140 0 267 -67v-207h-35q-28 102 -92 158.5t-160 56.5q-83 0 -144 -45t-61 -123q0 -51 26.5 -88
t94.5 -88l110 -76q80 -57 118 -112t38 -132q0 -123 -99 -203.5t-243 -80.5z" />
    <glyph glyph-name="t" unicode="t" horiz-adv-x="675" 
d="M326 -20q-110 0 -160 71t-21 191l166 659h-192v37q122 37 200.5 96t157.5 164h51l-59 -233h264v-64h-278l-174 -694q-20 -76 8.5 -113t95.5 -37q81 0 158 39l18 -30q-122 -86 -235 -86z" />
    <glyph glyph-name="u" unicode="u" horiz-adv-x="1114" 
d="M365 -20q-120 0 -187.5 100t-30.5 250l105 413q16 68 -4 94t-107 29v33l303 76h9l-164 -656q-27 -111 12 -175t127 -64q133 0 289 180l121 479q11 43 9 70.5t-29.5 41t-90.5 15.5v33l305 76h8l-190 -760q-21 -72 -4 -95t98 -26v-33l-289 -73h-6l45 186h-6
q-145 -194 -323 -194z" />
    <glyph glyph-name="v" unicode="v" horiz-adv-x="1058" 
d="M397 -10l-118 770q-9 65 -46.5 90t-140.5 29v32l297 74l2 -20l31 -209l80 -549h8l364 557q19 30 29.5 49.5t15 40.5t-4 34.5t-30.5 25t-61 18.5v33h342v-33q-81 -13 -125.5 -49t-103.5 -125l-504 -768h-35z" />
    <glyph glyph-name="w" unicode="w" horiz-adv-x="1540" 
d="M475 227h8l334 547l-22 191h141l84 -744h8l332 543q50 76 39.5 115.5t-94.5 52.5v33h340v-33q-85 -14 -129.5 -52.5t-94.5 -123.5l-471 -766h-39l-77 696h-9l-426 -696h-37l-83 762q-7 72 -45 97t-138 30v32l297 74l2 -27q3 -25 12 -104t15 -125z" />
    <glyph glyph-name="x" unicode="x" horiz-adv-x="1036" 
d="M182 199l279 282l-146 307q-31 61 -70.5 96t-105.5 46v35h428v-35q-50 -7 -78 -20t-35 -33t-3 -40.5t18 -50.5l92 -196h8l205 207q59 60 51 91.5t-84 41.5v35h346v-35q-78 -10 -134.5 -46.5t-129.5 -109.5l-233 -239l158 -330q35 -72 73.5 -112.5t106.5 -57.5v-35h-441
v35q67 9 99.5 29t33.5 49t-16 67l-115 250h-6l-239 -244q-48 -49 -61.5 -78t6.5 -46.5t79 -26.5v-35h-358v35q85 17 139.5 50.5t132.5 113.5z" />
    <glyph glyph-name="y" unicode="y" horiz-adv-x="1050" 
d="M815 932v33h342v-33q-88 -16 -133 -54.5t-96 -123.5l-518 -885q-102 -178 -188.5 -240.5t-192.5 -62.5q-74 0 -131 26v144q68 -29 147 -29q99 0 183.5 50.5t158.5 176.5l45 76l-145 750q-13 69 -52.5 91.5t-142.5 27.5v32l293 74l4 -16q6 -37 41 -217l102 -553h9l327 563
q20 35 29 54.5t13.5 41t-4.5 34t-31 23t-60 17.5z" />
    <glyph glyph-name="z" unicode="z" horiz-adv-x="946" 
d="M446 57h-268v9l772 866v33h-764v-258h35q25 114 85.5 158t191.5 44h241v-8l-772 -866v-35h805v315h-35q-30 -147 -95.5 -202.5t-195.5 -55.5z" />
    <glyph glyph-name="braceleft" unicode="{" horiz-adv-x="708" 
d="M354 -313q-148 0 -219.5 96.5t-32.5 255.5l107 430q26 92 2.5 140t-109.5 55v41q97 6 142 46.5t67 125.5l103 415q38 153 141.5 236.5t253.5 83.5q73 0 154 -25l-15 -41q-60 13 -106 13q-222 0 -279 -232l-104 -422q-50 -194 -223 -225v-6q73 -16 101 -81t-1 -183
l-107 -422q-30 -121 17.5 -184.5t159.5 -63.5q40 0 98 10l2 -43q-70 -20 -152 -20z" />
    <glyph glyph-name="bar" unicode="|" horiz-adv-x="501" 
d="M94 -299h-71l471 1892h71z" />
    <glyph glyph-name="braceright" unicode="}" horiz-adv-x="704" 
d="M436 1612q148 0 219.5 -98t32.5 -257l-108 -430q-25 -92 -1.5 -139t109.5 -53v-41q-98 -7 -142.5 -48t-66.5 -126l-104 -414q-38 -153 -141 -236t-254 -83q-82 0 -154 22l14 43q59 -12 107 -12q113 0 182 56.5t98 174.5l105 420q48 197 223 225v7q-157 39 -100 264
l106 424q30 121 -17 184.5t-161 63.5q-30 0 -98 -11v43q86 21 151 21z" />
    <glyph glyph-name="asciitilde" unicode="~" horiz-adv-x="1122" 
d="M190 365h-71q0 105 60.5 171t156.5 66q97 0 199 -63l81 -50q99 -57 166 -57q71 0 111.5 46.5t40.5 125.5h70q0 -106 -61.5 -172.5t-158.5 -66.5q-88 0 -194 63l-86 49q-98 58 -164 58q-71 0 -110.5 -46t-39.5 -124z" />
    <glyph glyph-name="uni00A0" unicode="&#xa0;" horiz-adv-x="532" 
 />
    <glyph glyph-name="exclamdown" unicode="&#xa1;" horiz-adv-x="512" 
d="M358 987q47 0 76 -29.5t29 -76.5q0 -54 -38 -91.5t-91 -37.5q-47 0 -77 30t-30 76q0 56 38.5 92.5t92.5 36.5zM262 592h47l-194 -1051h-185z" />
    <glyph glyph-name="cent" unicode="&#xa2;" horiz-adv-x="1036" 
d="M936 696h-35q-26 98 -78 156t-125 70l-204 -816q34 -6 67 -6q180 0 313 138l29 -25q-170 -233 -397 -233q-29 0 -43 2l-41 -166h-64l45 176q-131 35 -208.5 149.5t-77.5 266.5t67 282.5t190 211t277 85.5l41 166h64l-41 -168q115 -8 221 -59v-230zM260 453
q0 -123 46 -207.5t130 -120.5l199 801q-106 -7 -192.5 -75t-134.5 -173.5t-48 -224.5z" />
    <glyph glyph-name="sterling" unicode="&#xa3;" horiz-adv-x="1118" 
d="M801 1413q184 0 344 -80v-291h-35q-72 310 -322 310q-163 0 -250.5 -113t-80.5 -326l12 -276h541v-62h-539v-8q6 -156 -48 -247.5t-194 -172.5v-6h691v-141h-932v37q90 55 145.5 95.5t98 84.5t62 92t27.5 105t5 137v24h-211v62h207l-9 248q-7 150 47 268.5t168.5 189
t272.5 70.5z" />
    <glyph glyph-name="currency" unicode="&#xa4;" horiz-adv-x="1243" 
d="M1233 1135l-189 -150q62 -94 62 -213q0 -195 -131 -336l123 -151l-51 -39l-119 145q-129 -110 -307 -110q-164 0 -269 108l-188 -149l-37 49l188 147q-63 91 -63 213q0 195 133 338l-123 152l49 39l119 -148q136 113 309 113q163 0 269 -109l188 150zM623 344
q175 0 295 128t120 300q0 134 -83.5 219.5t-217.5 85.5q-116 0 -213 -59.5t-151 -157.5t-54 -211q0 -132 85 -218.5t219 -86.5z" />
    <glyph glyph-name="yen" unicode="&#xa5;" horiz-adv-x="1300" 
d="M1065 1358v35h399v-35q-106 -16 -168 -57t-125 -119l-380 -475h319v-62h-358l-41 -164h344v-61h-361l-45 -182q-15 -59 -17 -94t14 -57.5t44.5 -33t83.5 -18.5v-35h-506v35q117 14 162 51.5t74 151.5l45 182h-344v61h358l39 154l-4 10h-336v62h320l-131 483
q-22 81 -59 118.5t-111 49.5v35h464v-35q-84 -9 -120.5 -27.5t-38.5 -50.5t12 -80l125 -475h8l373 469q32 40 46 65t13.5 46.5t-25 33.5t-73.5 19z" />
    <glyph glyph-name="brokenbar" unicode="&#xa6;" horiz-adv-x="501" 
d="M393 899h-74l175 694h71zM94 -299h-71l172 694h71z" />
    <glyph glyph-name="section" unicode="&#xa7;" horiz-adv-x="1001" 
d="M739 1413q169 0 316 -70v-210h-35q-66 221 -295 221q-126 0 -203.5 -63t-77.5 -156q0 -59 29.5 -105.5t99.5 -91.5l183 -121q89 -57 129.5 -113.5t40.5 -130.5q0 -107 -76 -185.5t-205 -127.5v-6q96 -93 96 -209q0 -138 -120.5 -233t-305.5 -95q-193 0 -327 86v222h35
q73 -248 303 -248q125 0 201.5 60t76.5 153q0 62 -30 109t-97 91l-184 123q-84 55 -126 114t-42 134q0 105 75 182.5t203 124.5v6q-96 90 -96 211q0 134 121.5 231t310.5 97zM662 692l-183 123q-24 16 -35 27q-192 -76 -192 -213q0 -59 29.5 -101t97.5 -86l178 -118l49 -35
q91 40 141 96t50 119q0 57 -31 98t-104 90z" />
    <glyph glyph-name="dieresis" unicode="&#xa8;" horiz-adv-x="684" 
d="M340 1161q-41 0 -67.5 26.5t-26.5 69.5q0 50 35.5 85.5t87.5 35.5q41 0 67.5 -26.5t26.5 -67.5q0 -52 -36 -87.5t-87 -35.5zM696 1161q-42 0 -69 27t-27 69q0 50 36 85.5t87 35.5q41 0 67.5 -26.5t26.5 -67.5q0 -52 -35 -87.5t-86 -35.5z" />
    <glyph glyph-name="copyright" unicode="&#xa9;" horiz-adv-x="1759" 
d="M942 -20q-210 0 -378.5 96t-263.5 267t-95 384t95 384t263.5 267.5t378.5 96.5t378.5 -96.5t263.5 -267.5t95 -384t-95 -384t-263.5 -267t-378.5 -96zM942 43q143 0 267.5 52t213 142.5t139 217.5t50.5 272q0 146 -50.5 273t-139 217.5t-213 142t-267.5 51.5
q-192 0 -345 -88t-239 -244.5t-86 -351.5q0 -145 50.5 -272t139 -217.5t213 -142.5t267.5 -52zM952 336q-151 0 -254.5 108.5t-103.5 274.5q0 169 108.5 285t272.5 116q124 0 209 -45v-184h-31q-19 84 -67 131t-119 47q-111 0 -177.5 -90.5t-66.5 -222.5q0 -148 74.5 -235
t193.5 -87q140 0 230 111l24 -23q-56 -93 -126 -139.5t-167 -46.5z" />
    <glyph glyph-name="ordfeminine" unicode="&#xaa;" horiz-adv-x="888" 
d="M864 1128l-82 -333q-19 -61 -5 -86.5t83 -28.5v-31l-254 -61h-6l41 160h-4q-119 -175 -262 -175q-80 0 -134.5 53t-54.5 132q0 51 23.5 90.5t69.5 67.5t96.5 46.5t122.5 36.5l219 56l22 88q24 98 -19 152.5t-136 54.5q-143 0 -277 -107l-22 31q174 170 354 170
q125 0 193 -88.5t32 -227.5zM436 674q57 0 108.5 35.5t112.5 101.5l50 197l-166 -47q-107 -31 -162 -68.5t-55 -104.5q0 -54 29 -84t83 -30z" />
    <glyph glyph-name="guillemotleft" unicode="&#xab;" horiz-adv-x="1183" 
d="M528 6l-34 -18l-396 526l594 465l27 -29l-443 -448zM940 6l-35 -18l-362 483l645 508l29 -29l-500 -506z" />
    <glyph glyph-name="logicalnot" unicode="&#xac;" horiz-adv-x="1230" 
d="M141 516h895v-516h-71v449h-824v67z" />
    <glyph glyph-name="uni00AD" unicode="&#xad;" horiz-adv-x="821" 
d="M172 573h539v76h-539v-76z" />
    <glyph glyph-name="registered" unicode="&#xae;" horiz-adv-x="1759" 
d="M942 1475q210 0 378.5 -96.5t263.5 -267.5t95 -384t-95 -384t-263.5 -267t-378.5 -96t-378.5 96t-263.5 267t-95 384t95 384t263.5 267.5t378.5 96.5zM942 43q143 0 267.5 52t213 142.5t139 217.5t50.5 272q0 146 -50.5 273t-139 217.5t-213 142t-267.5 51.5
q-192 0 -345 -88t-239 -244.5t-86 -351.5q0 -145 50.5 -272t139 -217.5t213 -142.5t267.5 -52zM1249 922q0 -85 -68 -137.5t-184 -61.5l351 -373v-6h-150l-348 379h-21v-248q0 -57 21 -77t70 -23v-31h-302v31q52 3 72.5 23t20.5 77v506q0 58 -20 77.5t-73 24.5v31h336
q133 0 214 -50.5t81 -141.5zM829 1069v-307h91q95 0 149.5 42t54.5 116q0 72 -54.5 110.5t-149.5 38.5h-91z" />
    <glyph glyph-name="macron" unicode="&#xaf;" horiz-adv-x="667" 
d="M223 1206h576v64h-576v-64z" />
    <glyph glyph-name="degree" unicode="&#xb0;" horiz-adv-x="768" 
d="M545 874q-125 0 -206 80.5t-81 204.5t81 204.5t206 80.5q123 0 204.5 -80.5t81.5 -204.5t-81.5 -204.5t-204.5 -80.5zM545 934q97 0 159 63.5t62 161.5q0 97 -63 161t-158 64q-96 0 -158.5 -64t-62.5 -161q0 -98 62 -161.5t159 -63.5z" />
    <glyph glyph-name="plusminus" unicode="&#xb1;" horiz-adv-x="1200" 
d="M600 946v-356h422v-68h-422v-319h-74v319h-420v68h420v356h74zM1022 -4h-916v67h916v-67z" />
    <glyph glyph-name="uni00B2" unicode="&#xb2;" horiz-adv-x="778" 
d="M793 821h-625v35l305 207q72 48 119.5 85.5t90 82t63 91.5t20.5 99q0 87 -56 138t-145 51q-121 0 -217 -107l-26 27q121 184 309 184q116 0 198 -76t82 -184q0 -61 -24 -115t-72.5 -101.5t-97.5 -83.5t-123 -81l-176 -112v-7h375v-133z" />
    <glyph glyph-name="uni00B3" unicode="&#xb3;" horiz-adv-x="774" 
d="M504 801q-115 0 -195.5 59.5t-122.5 145.5l29 22q90 -129 238 -129q106 0 170.5 57t64.5 146q0 71 -47 112.5t-127 47.5v34l281 258v5h-408v135h594v-37l-387 -354v-5q110 -13 171.5 -75t61.5 -150q0 -118 -92 -195t-231 -77z" />
    <glyph glyph-name="acute" unicode="&#xb4;" horiz-adv-x="409" 
d="M260 1122h-39l137 275h222v-6z" />
    <glyph glyph-name="uni00B5" unicode="&#xb5;" horiz-adv-x="1193" 
d="M14 -410l289 1151q10 42 8 69t-29.5 40.5t-88.5 15.5v33l305 76h6l-164 -662q-27 -107 13.5 -170t125.5 -63q134 0 289 180l121 483q22 61 0.5 90.5t-111.5 32.5v33l305 76h9l-191 -764q-20 -70 -3.5 -92t97.5 -25v-33l-286 -73h-9l45 186h-6q-145 -194 -315 -194
q-100 0 -145 61h-7l-65 -256q-26 -92 -9.5 -121.5t113.5 -38.5v-35h-297z" />
    <glyph glyph-name="paragraph" unicode="&#xb6;" horiz-adv-x="1288" 
d="M1421 1423v-34q-121 -9 -169 -48t-76 -151l-373 -1489h-66l416 1665h-313l-416 -1665h-66l242 969q-188 0 -296.5 91t-108.5 243q0 127 69 222.5t189.5 146t273.5 50.5h694z" />
    <glyph glyph-name="periodcentered" unicode="&#xb7;" horiz-adv-x="501" 
d="M252 430q-46 0 -74 29t-28 76q0 55 37.5 92t91.5 37q46 0 75 -29.5t29 -75.5q0 -56 -38 -92.5t-93 -36.5z" />
    <glyph glyph-name="cedilla" unicode="&#xb8;" horiz-adv-x="497" 
d="M47 -414q-133 0 -203 111l25 24q66 -69 147 -69q62 0 104 31t42 81q0 37 -24.5 57.5t-61.5 20.5q-36 0 -82 -24l-6 2l125 196l41 -16l-76 -117l4 -2q26 13 53 13q54 0 89.5 -35.5t35.5 -89.5q0 -79 -62 -131t-151 -52z" />
    <glyph glyph-name="uni00B9" unicode="&#xb9;" horiz-adv-x="636" 
d="M535 821h-132l150 598h-279v35q150 42 253 99.5t186 154.5h43z" />
    <glyph glyph-name="ordmasculine" unicode="&#xba;" horiz-adv-x="997" 
d="M549 573q-155 0 -247.5 96t-92.5 253q0 135 65.5 255t181.5 193.5t253 73.5q152 0 243.5 -96.5t91.5 -253.5q0 -135 -64.5 -254.5t-179 -193t-251.5 -73.5zM547 635q103 0 187.5 79t127.5 193t43 230q0 114 -52.5 180.5t-143.5 66.5q-77 0 -146.5 -46.5t-115.5 -120
t-72.5 -162t-26.5 -174.5q0 -114 53.5 -180t145.5 -66z" />
    <glyph glyph-name="guillemotright" unicode="&#xbb;" horiz-adv-x="1185" 
d="M248 967l33 18l362 -485l-645 -506l-27 26l500 506zM659 967l33 18l395 -526l-591 -465l-29 26l444 449z" />
    <glyph glyph-name="onequarter" unicode="&#xbc;" horiz-adv-x="1982" 
d="M483 594h-125l142 569h-264v33q143 41 240 95.5t177 148.5h41zM1696 1423h-86l-1346 -1423h86zM1604 0h-115l55 217h-422v35l660 594h35l-131 -522h174v-107h-201zM1278 330v-6h293l84 342h-4z" />
    <glyph glyph-name="onehalf" unicode="&#xbd;" horiz-adv-x="1892" 
d="M483 594h-125l142 569h-264v33q143 41 240 95.5t177 148.5h41zM1696 1423h-86l-1348 -1423h88zM1696 0h-594v35l291 194q142 97 210 172.5t68 169.5q0 82 -53 131.5t-137 49.5q-114 0 -207 -101l-27 25q117 174 295 174q109 0 187.5 -72t78.5 -176q0 -47 -16.5 -90
t-42 -77t-67.5 -70.5t-80.5 -63.5t-94.5 -61l-168 -107v-6h357v-127z" />
    <glyph glyph-name="threequarters" unicode="&#xbe;" horiz-adv-x="2000" 
d="M442 573q-109 0 -184.5 56.5t-118.5 140.5l29 21q87 -123 225 -123q102 0 163.5 54t61.5 138q0 68 -44 107.5t-119 44.5v35l266 245v4h-389v127h567v-32l-369 -338v-6q104 -12 163 -70t59 -143q0 -112 -89 -186.5t-221 -74.5zM1720 1423h-86l-1345 -1423h86zM1630 0h-117
l56 217h-422v35l659 594h35l-131 -522h176v-107h-203zM1303 330v-6h292l86 342h-6z" />
    <glyph glyph-name="questiondown" unicode="&#xbf;" horiz-adv-x="985" 
d="M608 987q47 0 76 -29.5t29 -76.5q0 -54 -38 -91.5t-91 -37.5q-47 0 -77 30t-30 76q0 56 38.5 92.5t92.5 36.5zM578 586l-64 -252q-200 -88 -304 -192t-104 -248q0 -119 81.5 -191t211.5 -72q204 0 338 172l31 -24q-76 -122 -187.5 -190t-244.5 -68q-170 0 -277.5 99.5
t-107.5 244.5q0 74 28 139.5t73 116t113 97t137 80.5t157 69l53 219h66z" />
    <glyph glyph-name="Agrave" unicode="&#xc0;" horiz-adv-x="1419" 
d="M999 1817l33 -275h-35l-194 268v7h196zM961 1434l192 -1188q18 -106 44.5 -147.5t102.5 -63.5v-35h-509v35q73 9 118 25t66.5 40t26 57t-2.5 76l-38 250h-574l-156 -245q-62 -88 -45.5 -134.5t140.5 -68.5v-35h-432v35q66 14 113 41.5t79 64t74 101.5l758 1192h43z
M840 1192l-412 -645h522l-102 645h-8z" />
    <glyph glyph-name="Aacute" unicode="&#xc1;" horiz-adv-x="1419" 
d="M1237 1817v-7l-319 -268h-41l137 275h223zM961 1434l192 -1188q18 -106 44.5 -147.5t102.5 -63.5v-35h-509v35q73 9 118 25t66.5 40t26 57t-2.5 76l-38 250h-574l-156 -245q-62 -88 -45.5 -134.5t140.5 -68.5v-35h-432v35q66 14 113 41.5t79 64t74 101.5l758 1192h43z
M840 1192l-412 -645h522l-102 645h-8z" />
    <glyph glyph-name="Acircumflex" unicode="&#xc2;" horiz-adv-x="1419" 
d="M1180 1540l-181 131l-260 -131l-47 4l309 279h41l179 -279zM961 1434l192 -1188q18 -106 44.5 -147.5t102.5 -63.5v-35h-509v35q73 9 118 25t66.5 40t26 57t-2.5 76l-38 250h-574l-156 -245q-62 -88 -45.5 -134.5t140.5 -68.5v-35h-432v35q66 14 113 41.5t79 64t74 101.5
l758 1192h43zM840 1192l-412 -645h522l-102 645h-8z" />
    <glyph glyph-name="Atilde" unicode="&#xc3;" horiz-adv-x="1419" 
d="M850 1690q-45 0 -77.5 -29.5t-59.5 -97.5l-41 4q28 110 82.5 164.5t124.5 54.5q76 0 145 -60l31 -26q28 -25 48 -34t48 -9q46 0 78.5 29.5t58.5 97.5l43 -4q-28 -111 -82 -165t-125 -54q-83 0 -147 61l-29 25q-27 26 -47 34.5t-51 8.5zM961 1434l192 -1188
q18 -106 44.5 -147.5t102.5 -63.5v-35h-509v35q73 9 118 25t66.5 40t26 57t-2.5 76l-38 250h-574l-156 -245q-62 -88 -45.5 -134.5t140.5 -68.5v-35h-432v35q66 14 113 41.5t79 64t74 101.5l758 1192h43zM840 1192l-412 -645h522l-102 645h-8z" />
    <glyph glyph-name="Adieresis" unicode="&#xc4;" horiz-adv-x="1419" 
d="M809 1581q-41 0 -67.5 26.5t-26.5 67.5q0 50 35 85.5t86 35.5q41 0 67.5 -26t26.5 -66q0 -52 -35 -87.5t-86 -35.5zM1165 1581q-43 0 -69.5 26.5t-26.5 67.5q0 50 36 85.5t87 35.5q41 0 67.5 -26t26.5 -66q0 -52 -35 -87.5t-86 -35.5zM961 1434l192 -1188
q18 -106 44.5 -147.5t102.5 -63.5v-35h-509v35q73 9 118 25t66.5 40t26 57t-2.5 76l-38 250h-574l-156 -245q-62 -88 -45.5 -134.5t140.5 -68.5v-35h-432v35q66 14 113 41.5t79 64t74 101.5l758 1192h43zM840 1192l-412 -645h522l-102 645h-8z" />
    <glyph glyph-name="Aring" unicode="&#xc5;" horiz-adv-x="1419" 
d="M987 1505q-73 0 -124.5 51.5t-51.5 124.5t51 123.5t125 50.5t125 -50.5t51 -123.5t-51.5 -124.5t-124.5 -51.5zM987 1802q-50 0 -83.5 -34.5t-33.5 -86.5q0 -53 33.5 -87.5t83.5 -34.5t83.5 34.5t33.5 87.5q0 52 -33.5 86.5t-83.5 34.5zM961 1434l192 -1188
q18 -106 44.5 -147.5t102.5 -63.5v-35h-509v35q73 9 118 25t66.5 40t26 57t-2.5 76l-38 250h-574l-156 -245q-62 -88 -45.5 -134.5t140.5 -68.5v-35h-432v35q66 14 113 41.5t79 64t74 101.5l758 1192h43zM840 1192l-412 -645h522l-102 645h-8z" />
    <glyph glyph-name="AE" unicode="&#xc6;" horiz-adv-x="1892" 
d="M166 242l960 1181h799v-344h-35q-15 153 -87.5 219t-239.5 66h-275l-151 -612h116q129 0 186 50.5t66 162.5h37v-486h-37q-9 112 -65.5 162.5t-184.5 50.5h-135l-157 -633h370q171 0 254 80.5t103 284.5h34v-424h-1122v35q123 12 171 49.5t75 148.5l61 250h-465
l-208 -256q-36 -45 -50.5 -72.5t-12 -52.5t35 -40.5t96.5 -26.5v-35h-430v35q95 22 154.5 66.5t136.5 140.5zM496 547h430l188 753h-6z" />
    <glyph glyph-name="Ccedilla" unicode="&#xc7;" horiz-adv-x="1429" 
d="M977 1444q231 0 426 -101v-335h-35q-103 374 -407 374q-129 0 -247 -63t-199.5 -165t-130 -233.5t-48.5 -265.5q0 -253 136.5 -404t346.5 -151q148 0 271 62t239 194l31 -26q-244 -350 -594 -350h-21l-63 -97l4 -2q26 13 53 13q55 0 90 -35.5t35 -89.5q0 -79 -62 -131
t-151 -52q-129 0 -202 111l24 24q66 -69 148 -69q62 0 104.5 31t42.5 81q0 37 -25.5 57.5t-62.5 20.5q-40 0 -80 -24l-8 2l104 164q-232 25 -385 197t-153 435q0 160 60.5 310t165.5 264.5t260.5 184t332.5 69.5z" />
    <glyph glyph-name="Egrave" unicode="&#xc8;" horiz-adv-x="1343" 
d="M973 1817l33 -275h-35l-195 268v7h197zM1141 424h35v-424h-1213v35q65 6 105.5 18t69.5 38t45.5 61.5t31.5 95.5l231 936q13 48 15.5 80.5t-3.5 55.5t-25.5 36.5t-47 21t-72.5 11.5v34h1063v-344h-35q-14 153 -87.5 219t-241.5 66h-363l-151 -612h209q129 0 184.5 50
t66.5 163h35v-486h-35q-11 112 -66 162.5t-185 50.5h-226l-155 -633h458q173 0 255 80t102 285z" />
    <glyph glyph-name="Eacute" unicode="&#xc9;" horiz-adv-x="1343" 
d="M893 1542h-41l137 275h223v-7zM1141 424h35v-424h-1213v35q65 6 105.5 18t69.5 38t45.5 61.5t31.5 95.5l231 936q13 48 15.5 80.5t-3.5 55.5t-25.5 36.5t-47 21t-72.5 11.5v34h1063v-344h-35q-14 153 -87.5 219t-241.5 66h-363l-151 -612h209q129 0 184.5 50t66.5 163h35
v-486h-35q-11 112 -66 162.5t-185 50.5h-226l-155 -633h458q173 0 255 80t102 285z" />
    <glyph glyph-name="Ecircumflex" unicode="&#xca;" horiz-adv-x="1343" 
d="M715 1540l-47 4l309 279h41l178 -279l-41 -4l-180 131zM1141 424h35v-424h-1213v35q65 6 105.5 18t69.5 38t45.5 61.5t31.5 95.5l231 936q13 48 15.5 80.5t-3.5 55.5t-25.5 36.5t-47 21t-72.5 11.5v34h1063v-344h-35q-14 153 -87.5 219t-241.5 66h-363l-151 -612h209
q129 0 184.5 50t66.5 163h35v-486h-35q-11 112 -66 162.5t-185 50.5h-226l-155 -633h458q173 0 255 80t102 285z" />
    <glyph glyph-name="Edieresis" unicode="&#xcb;" horiz-adv-x="1343" 
d="M782 1581q-41 0 -67.5 26.5t-26.5 67.5q0 50 35 85.5t86 35.5q41 0 67.5 -26t26.5 -66q0 -52 -35 -87.5t-86 -35.5zM1139 1581q-43 0 -70 26.5t-27 67.5q0 50 36 85.5t87 35.5q41 0 68 -26t27 -66q0 -52 -35 -87.5t-86 -35.5zM1141 424h35v-424h-1213v35q65 6 105.5 18
t69.5 38t45.5 61.5t31.5 95.5l231 936q13 48 15.5 80.5t-3.5 55.5t-25.5 36.5t-47 21t-72.5 11.5v34h1063v-344h-35q-14 153 -87.5 219t-241.5 66h-363l-151 -612h209q129 0 184.5 50t66.5 163h35v-486h-35q-11 112 -66 162.5t-185 50.5h-226l-155 -633h458q173 0 255 80
t102 285z" />
    <glyph glyph-name="Igrave" unicode="&#xcc;" horiz-adv-x="700" 
d="M649 1817l33 -275h-35l-194 268v7h196zM-33 0v35q63 6 99 15t66 31.5t47 59t32 99.5l238 948q15 59 16 94.5t-16.5 58.5t-49 32.5t-88.5 15.5v34h539v-34q-122 -12 -169.5 -49t-74.5 -148l-237 -950q-16 -63 -17 -100t17.5 -59.5t48 -31.5t86.5 -16v-35h-537z" />
    <glyph glyph-name="Iacute" unicode="&#xcd;" horiz-adv-x="700" 
d="M569 1542h-41l138 275h223v-7zM-33 0v35q63 6 99 15t66 31.5t47 59t32 99.5l238 948q15 59 16 94.5t-16.5 58.5t-49 32.5t-88.5 15.5v34h539v-34q-122 -12 -169.5 -49t-74.5 -148l-237 -950q-16 -63 -17 -100t17.5 -59.5t48 -31.5t86.5 -16v-35h-537z" />
    <glyph glyph-name="Icircumflex" unicode="&#xce;" horiz-adv-x="700" 
d="M391 1540l-47 4l309 279h41l178 -279l-41 -4l-180 131zM-33 0v35q63 6 99 15t66 31.5t47 59t32 99.5l238 948q15 59 16 94.5t-16.5 58.5t-49 32.5t-88.5 15.5v34h539v-34q-122 -12 -169.5 -49t-74.5 -148l-237 -950q-16 -63 -17 -100t17.5 -59.5t48 -31.5t86.5 -16v-35
h-537z" />
    <glyph glyph-name="Idieresis" unicode="&#xcf;" horiz-adv-x="700" 
d="M459 1581q-41 0 -67.5 26.5t-26.5 67.5q0 50 34.5 85.5t85.5 35.5q41 0 68 -26t27 -66q0 -52 -35 -87.5t-86 -35.5zM815 1581q-43 0 -69.5 26.5t-26.5 67.5q0 50 36 85.5t87 35.5q41 0 67.5 -26t26.5 -66q0 -52 -35 -87.5t-86 -35.5zM-33 0v35q63 6 99 15t66 31.5t47 59
t32 99.5l238 948q15 59 16 94.5t-16.5 58.5t-49 32.5t-88.5 15.5v34h539v-34q-122 -12 -169.5 -49t-74.5 -148l-237 -950q-16 -63 -17 -100t17.5 -59.5t48 -31.5t86.5 -16v-35h-537z" />
    <glyph glyph-name="Eth" unicode="&#xd0;" horiz-adv-x="1579" 
d="M322 1423h528q202 0 359 -73.5t244 -209t87 -313.5q0 -183 -69 -337.5t-192.5 -262t-298 -167.5t-380.5 -60h-629v35q125 12 173 51t77 154l115 460h-203v62h217l105 422q30 110 4 152.5t-137 52.5v34zM332 59h221q186 0 339.5 60.5t255 166.5t157 250.5t55.5 311.5
q0 244 -144 380t-389 136h-170l-149 -602h270v-62h-286z" />
    <glyph glyph-name="Ntilde" unicode="&#xd1;" horiz-adv-x="1556" 
d="M1188 1561q-84 0 -148 61l-28 25q-27 26 -47.5 34.5t-51.5 8.5q-45 0 -77.5 -29.5t-59.5 -97.5l-41 4q28 110 82.5 164.5t124.5 54.5q76 0 145 -60l31 -26q28 -25 48 -34t48 -9q47 0 79.5 29.5t58.5 97.5l43 -4q-28 -111 -82 -165t-125 -54zM-43 0v35q123 12 172 50
t76 148l250 1014l-90 170v6h194l612 -1169h7l233 936q27 110 1 148.5t-134 50.5v34h446v-34q-121 -12 -169 -51t-76 -148l-301 -1200h-48l-620 1179h-8l-232 -936q-27 -111 0 -148.5t136 -49.5v-35h-449z" />
    <glyph glyph-name="Ograve" unicode="&#xd2;" horiz-adv-x="1607" 
d="M1053 1817l32 -275h-34l-195 268v7h197zM748 -20q-264 0 -430 168t-166 432q0 133 40 261.5t115 236.5t175.5 190.5t229.5 129t269 46.5q172 0 307 -76.5t210 -213.5t75 -310q0 -167 -63 -324.5t-171 -276.5t-263 -191t-328 -72zM752 43q113 0 216 49t179 132.5
t132.5 189.5t85 223.5t28.5 232.5q0 235 -112 372.5t-304 137.5q-96 0 -184.5 -35t-158.5 -95t-127.5 -141t-95.5 -173t-58.5 -190.5t-20.5 -194.5q0 -236 113 -372t307 -136z" />
    <glyph glyph-name="Oacute" unicode="&#xd3;" horiz-adv-x="1607" 
d="M973 1542h-41l137 275h223v-7zM748 -20q-264 0 -430 168t-166 432q0 133 40 261.5t115 236.5t175.5 190.5t229.5 129t269 46.5q172 0 307 -76.5t210 -213.5t75 -310q0 -167 -63 -324.5t-171 -276.5t-263 -191t-328 -72zM752 43q113 0 216 49t179 132.5t132.5 189.5
t85 223.5t28.5 232.5q0 235 -112 372.5t-304 137.5q-96 0 -184.5 -35t-158.5 -95t-127.5 -141t-95.5 -173t-58.5 -190.5t-20.5 -194.5q0 -236 113 -372t307 -136z" />
    <glyph glyph-name="Ocircumflex" unicode="&#xd4;" horiz-adv-x="1607" 
d="M793 1540l-48 4l310 279h41l178 -279l-41 -4l-180 131zM748 -20q-264 0 -430 168t-166 432q0 133 40 261.5t115 236.5t175.5 190.5t229.5 129t269 46.5q172 0 307 -76.5t210 -213.5t75 -310q0 -167 -63 -324.5t-171 -276.5t-263 -191t-328 -72zM752 43q113 0 216 49
t179 132.5t132.5 189.5t85 223.5t28.5 232.5q0 235 -112 372.5t-304 137.5q-96 0 -184.5 -35t-158.5 -95t-127.5 -141t-95.5 -173t-58.5 -190.5t-20.5 -194.5q0 -236 113 -372t307 -136z" />
    <glyph glyph-name="Otilde" unicode="&#xd5;" horiz-adv-x="1607" 
d="M1178 1561q-84 0 -148 61l-29 25q-27 26 -47 34.5t-51 8.5q-45 0 -77.5 -29.5t-59.5 -97.5l-41 4q28 110 82.5 164.5t124.5 54.5q76 0 145 -60l31 -26q28 -25 48 -34t48 -9q46 0 78.5 29.5t58.5 97.5l43 -4q-28 -111 -81.5 -165t-124.5 -54zM748 -20q-264 0 -430 168
t-166 432q0 133 40 261.5t115 236.5t175.5 190.5t229.5 129t269 46.5q172 0 307 -76.5t210 -213.5t75 -310q0 -167 -63 -324.5t-171 -276.5t-263 -191t-328 -72zM752 43q113 0 216 49t179 132.5t132.5 189.5t85 223.5t28.5 232.5q0 235 -112 372.5t-304 137.5
q-96 0 -184.5 -35t-158.5 -95t-127.5 -141t-95.5 -173t-58.5 -190.5t-20.5 -194.5q0 -236 113 -372t307 -136z" />
    <glyph glyph-name="Odieresis" unicode="&#xd6;" horiz-adv-x="1607" 
d="M862 1581q-41 0 -67.5 26.5t-26.5 67.5q0 50 35 85.5t86 35.5q41 0 67.5 -26t26.5 -66q0 -52 -35 -87.5t-86 -35.5zM1219 1581q-43 0 -70 26.5t-27 67.5q0 50 36 85.5t87 35.5q41 0 67.5 -26t26.5 -66q0 -52 -34.5 -87.5t-85.5 -35.5zM748 -20q-264 0 -430 168t-166 432
q0 133 40 261.5t115 236.5t175.5 190.5t229.5 129t269 46.5q172 0 307 -76.5t210 -213.5t75 -310q0 -167 -63 -324.5t-171 -276.5t-263 -191t-328 -72zM752 43q113 0 216 49t179 132.5t132.5 189.5t85 223.5t28.5 232.5q0 235 -112 372.5t-304 137.5q-96 0 -184.5 -35
t-158.5 -95t-127.5 -141t-95.5 -173t-58.5 -190.5t-20.5 -194.5q0 -236 113 -372t307 -136z" />
    <glyph glyph-name="multiply" unicode="&#xd7;" horiz-adv-x="1064" 
d="M582 485l342 -344l-50 -47l-342 342l-342 -344l-47 47l342 344l-342 342l50 49l342 -342l339 340l48 -47z" />
    <glyph glyph-name="Oslash" unicode="&#xd8;" horiz-adv-x="1611" 
d="M1634 1495l45 -45l-229 -219q127 -162 127 -387q0 -167 -63.5 -325t-172 -276.5t-263.5 -190.5t-328 -72q-263 0 -428 165l-226 -215l-43 43l228 220q-127 155 -127 387q0 133 40 262t115.5 236.5t176 190t229.5 129t268 46.5q257 0 426 -166zM336 551q0 -151 47 -260
l936 901q-112 188 -340 188q-114 0 -217 -49t-179.5 -132.5t-133 -190t-85 -224.5t-28.5 -233zM1397 870q0 151 -47 263l-938 -900q111 -190 342 -190q114 0 217 49t179.5 132.5t133 189.5t85 223.5t28.5 232.5z" />
    <glyph glyph-name="Ugrave" unicode="&#xd9;" horiz-adv-x="1593" 
d="M1114 1817l33 -275h-35l-194 268v7h196zM725 -20q-170 0 -288 76t-161 211.5t0 322.5l150 596q27 114 0.5 152.5t-137.5 50.5v34h540v-34q-65 -7 -102 -17t-66.5 -32.5t-46 -57.5t-30.5 -94l-152 -606q-56 -227 36 -359.5t294 -132.5t340 126.5t194 354.5l154 617
q12 48 14.5 79.5t-3.5 54t-25.5 35t-46.5 20t-72 12.5v34h448v-34q-123 -12 -171.5 -49.5t-75.5 -149.5l-158 -629q-67 -273 -227 -427t-408 -154z" />
    <glyph glyph-name="Uacute" unicode="&#xda;" horiz-adv-x="1593" 
d="M1034 1542h-41l137 275h224v-7zM725 -20q-170 0 -288 76t-161 211.5t0 322.5l150 596q27 114 0.5 152.5t-137.5 50.5v34h540v-34q-65 -7 -102 -17t-66.5 -32.5t-46 -57.5t-30.5 -94l-152 -606q-56 -227 36 -359.5t294 -132.5t340 126.5t194 354.5l154 617
q12 48 14.5 79.5t-3.5 54t-25.5 35t-46.5 20t-72 12.5v34h448v-34q-123 -12 -171.5 -49.5t-75.5 -149.5l-158 -629q-67 -273 -227 -427t-408 -154z" />
    <glyph glyph-name="Ucircumflex" unicode="&#xdb;" horiz-adv-x="1593" 
d="M854 1540l-47 4l309 279h41l178 -279l-41 -4l-180 131zM725 -20q-170 0 -288 76t-161 211.5t0 322.5l150 596q27 114 0.5 152.5t-137.5 50.5v34h540v-34q-65 -7 -102 -17t-66.5 -32.5t-46 -57.5t-30.5 -94l-152 -606q-56 -227 36 -359.5t294 -132.5t340 126.5t194 354.5
l154 617q12 48 14.5 79.5t-3.5 54t-25.5 35t-46.5 20t-72 12.5v34h448v-34q-123 -12 -171.5 -49.5t-75.5 -149.5l-158 -629q-67 -273 -227 -427t-408 -154z" />
    <glyph glyph-name="Udieresis" unicode="&#xdc;" horiz-adv-x="1593" 
d="M924 1581q-41 0 -68 26.5t-27 67.5q0 50 35 85.5t86 35.5q41 0 67.5 -26t26.5 -66q0 -52 -34.5 -87.5t-85.5 -35.5zM1280 1581q-43 0 -69.5 26.5t-26.5 67.5q0 50 36 85.5t87 35.5q41 0 67.5 -26t26.5 -66q0 -52 -35 -87.5t-86 -35.5zM725 -20q-170 0 -288 76t-161 211.5
t0 322.5l150 596q27 114 0.5 152.5t-137.5 50.5v34h540v-34q-65 -7 -102 -17t-66.5 -32.5t-46 -57.5t-30.5 -94l-152 -606q-56 -227 36 -359.5t294 -132.5t340 126.5t194 354.5l154 617q12 48 14.5 79.5t-3.5 54t-25.5 35t-46.5 20t-72 12.5v34h448v-34
q-123 -12 -171.5 -49.5t-75.5 -149.5l-158 -629q-67 -273 -227 -427t-408 -154z" />
    <glyph glyph-name="Yacute" unicode="&#xdd;" horiz-adv-x="1423" 
d="M1255 1817v-7l-319 -268h-41l137 275h223zM1221 1389v34h421v-34q-97 -16 -159.5 -60t-136.5 -129l-521 -592l-94 -377q-11 -46 -13 -77.5t4.5 -53t26.5 -34.5t46.5 -20t70.5 -11v-35h-536v35q121 12 168.5 49t74.5 147l93 363l-228 616q-30 83 -66 124t-114 55v34h526
v-34q-98 -11 -144 -37t-48 -65.5t16 -92.5l187 -516h6l461 522q38 42 55.5 71.5t16.5 54t-29 39.5t-84 24z" />
    <glyph glyph-name="Thorn" unicode="&#xde;" horiz-adv-x="1234" 
d="M588 1114h135q219 0 355 -93.5t136 -258.5q0 -108 -49 -194.5t-134.5 -142t-198.5 -85t-244 -29.5h-201l-18 -69q-16 -62 -16.5 -99t17.5 -60t48 -32.5t86 -15.5v-35h-537v35q63 6 99.5 15t66 32t47 59.5t33.5 98.5l236 948q15 59 16 94.5t-16.5 58.5t-49 32.5
t-88.5 15.5v34h539v-34q-123 -14 -170 -50.5t-74 -146.5zM401 369h158q221 0 353 110t132 293q0 138 -92.5 210.5t-251.5 72.5h-129z" />
    <glyph glyph-name="germandbls" unicode="&#xdf;" horiz-adv-x="1130" 
d="M539 -18q-111 0 -191 41l17 40q76 -26 135 -26q109 0 192 55.5t124.5 144.5t41.5 195q0 143 -83 221.5t-222 89.5v48q197 9 311.5 117t114.5 280q0 103 -50.5 166t-144.5 63q-208 0 -276 -268l-287 -1149h-270v35q91 9 121 34.5t53 114.5l227 920q45 175 152.5 273
t281.5 98q156 0 250 -83.5t94 -222.5q0 -151 -125 -261.5t-321 -141.5v-8q64 -12 122.5 -40.5t106.5 -71t76.5 -104.5t28.5 -134q0 -181 -136.5 -303.5t-342.5 -122.5z" />
    <glyph glyph-name="agrave" unicode="&#xe0;" horiz-adv-x="1134" 
d="M737 1397l33 -275h-37l-194 269v6h198zM387 -20q-135 0 -221 105.5t-86 272.5q0 159 71.5 302.5t202 235t287.5 91.5q147 0 256 -88h4l133 74h25l-189 -756q-21 -70 -4.5 -95t99.5 -28v-33l-287 -73h-10l47 188h-6q-140 -196 -322 -196zM444 84q82 0 152.5 47.5
t140.5 130.5l92 369q34 130 -21.5 214.5t-170.5 84.5q-113 0 -209.5 -78t-150.5 -203t-54 -264q0 -137 59.5 -219t161.5 -82z" />
    <glyph glyph-name="aacute" unicode="&#xe1;" horiz-adv-x="1134" 
d="M639 1122h-39l137 275h221v-6zM387 -20q-135 0 -221 105.5t-86 272.5q0 159 71.5 302.5t202 235t287.5 91.5q147 0 256 -88h4l133 74h25l-189 -756q-21 -70 -4.5 -95t99.5 -28v-33l-287 -73h-10l47 188h-6q-140 -196 -322 -196zM444 84q82 0 152.5 47.5t140.5 130.5
l92 369q34 130 -21.5 214.5t-170.5 84.5q-113 0 -209.5 -78t-150.5 -203t-54 -264q0 -137 59.5 -219t161.5 -82z" />
    <glyph glyph-name="acircumflex" unicode="&#xe2;" horiz-adv-x="1134" 
d="M471 1120l-49 4l311 277h41l178 -277l-41 -4l-182 129zM387 -20q-135 0 -221 105.5t-86 272.5q0 159 71.5 302.5t202 235t287.5 91.5q147 0 256 -88h4l133 74h25l-189 -756q-21 -70 -4.5 -95t99.5 -28v-33l-287 -73h-10l47 188h-6q-140 -196 -322 -196zM444 84
q82 0 152.5 47.5t140.5 130.5l92 369q34 130 -21.5 214.5t-170.5 84.5q-113 0 -209.5 -78t-150.5 -203t-54 -264q0 -137 59.5 -219t161.5 -82z" />
    <glyph glyph-name="atilde" unicode="&#xe3;" horiz-adv-x="1134" 
d="M852 1141q-80 0 -145 59l-29 27q-28 25 -48.5 34t-49.5 9q-90 0 -138 -127l-41 4q27 110 81 164.5t126 54.5q75 0 146 -59l28 -27q29 -25 50 -34t47 -9q48 0 80.5 29.5t58.5 97.5l43 -4q-28 -111 -82 -165t-127 -54zM387 -20q-135 0 -221 105.5t-86 272.5
q0 159 71.5 302.5t202 235t287.5 91.5q147 0 256 -88h4l133 74h25l-189 -756q-21 -70 -4.5 -95t99.5 -28v-33l-287 -73h-10l47 188h-6q-140 -196 -322 -196zM444 84q82 0 152.5 47.5t140.5 130.5l92 369q34 130 -21.5 214.5t-170.5 84.5q-113 0 -209.5 -78t-150.5 -203
t-54 -264q0 -137 59.5 -219t161.5 -82z" />
    <glyph glyph-name="adieresis" unicode="&#xe4;" horiz-adv-x="1134" 
d="M539 1161q-42 0 -69.5 27t-27.5 69q0 50 36 85.5t87 35.5q41 0 67.5 -26.5t26.5 -67.5q0 -52 -34.5 -87.5t-85.5 -35.5zM893 1161q-41 0 -67.5 26.5t-26.5 69.5q0 50 35.5 85.5t87.5 35.5q41 0 67.5 -26.5t26.5 -67.5q0 -52 -36 -87.5t-87 -35.5zM387 -20
q-135 0 -221 105.5t-86 272.5q0 159 71.5 302.5t202 235t287.5 91.5q147 0 256 -88h4l133 74h25l-189 -756q-21 -70 -4.5 -95t99.5 -28v-33l-287 -73h-10l47 188h-6q-140 -196 -322 -196zM444 84q82 0 152.5 47.5t140.5 130.5l92 369q34 130 -21.5 214.5t-170.5 84.5
q-113 0 -209.5 -78t-150.5 -203t-54 -264q0 -137 59.5 -219t161.5 -82z" />
    <glyph glyph-name="aring" unicode="&#xe5;" horiz-adv-x="1134" 
d="M727 1083q-73 0 -123.5 51.5t-50.5 125.5t50.5 125t123.5 51q75 0 126.5 -51t51.5 -125t-51.5 -125.5t-126.5 -51.5zM727 1139q51 0 84 34t33 87q0 54 -33 88t-84 34q-50 0 -82.5 -34t-32.5 -88q0 -52 32.5 -86.5t82.5 -34.5zM387 -20q-135 0 -221 105.5t-86 272.5
q0 159 71.5 302.5t202 235t287.5 91.5q147 0 256 -88h4l133 74h25l-189 -756q-21 -70 -4.5 -95t99.5 -28v-33l-287 -73h-10l47 188h-6q-140 -196 -322 -196zM444 84q82 0 152.5 47.5t140.5 130.5l92 369q34 130 -21.5 214.5t-170.5 84.5q-113 0 -209.5 -78t-150.5 -203
t-54 -264q0 -137 59.5 -219t161.5 -82z" />
    <glyph glyph-name="ae" unicode="&#xe6;" horiz-adv-x="1558" 
d="M1167 987q168 0 253 -108t55 -261l-7 -30h-663q-17 -77 -17 -135q0 -166 85 -259.5t221 -93.5q177 0 315 138l29 -25q-168 -233 -402 -233q-129 0 -225 73t-135 197h-8q-197 -270 -412 -270q-93 0 -154 58t-61 148q0 59 26 104.5t77 77.5t109 54t138 41l260 63l27 107
q29 117 -21.5 185.5t-160.5 68.5q-166 0 -322 -129l-24 30q203 199 405 199q90 0 155 -44t95 -122h8q146 166 354 166zM821 645h514q24 122 -24 202.5t-156 80.5q-114 0 -202.5 -79.5t-131.5 -203.5zM315 84q140 0 260 137l64 256l-188 -55q-51 -15 -84 -27t-71 -30.5
t-59.5 -38.5t-36 -49t-14.5 -64q0 -60 34 -94.5t95 -34.5z" />
    <glyph glyph-name="ccedilla" unicode="&#xe7;" horiz-adv-x="978" 
d="M627 926q-110 0 -202 -67t-143 -175t-51 -231q0 -164 81.5 -258.5t219.5 -94.5q183 0 316 138l29 -25q-170 -233 -400 -233h-16l-64 -97l4 -2q26 13 54 13q55 0 90 -35.5t35 -89.5q0 -79 -62 -131t-151 -52q-130 0 -203 111l24 24q66 -69 148 -69q62 0 104.5 31t42.5 81
q0 37 -25.5 57.5t-62.5 20.5q-40 0 -80 -24l-8 2l105 164q-147 24 -235.5 142.5t-88.5 281.5q0 155 69.5 287t197 212t286.5 80q144 0 266 -61v-230h-35q-29 111 -92 170.5t-153 59.5z" />
    <glyph glyph-name="egrave" unicode="&#xe8;" horiz-adv-x="997" 
d="M684 1397l33 -275h-37l-195 269v6h199zM604 987q168 0 253.5 -107t55.5 -262l-6 -30h-663q-17 -76 -17 -135q0 -167 84 -260t221 -93q181 0 316 138l29 -25q-173 -233 -404 -233q-165 0 -275 118t-110 301q0 153 64.5 287t184 217.5t267.5 83.5zM592 928
q-115 0 -202.5 -79t-129.5 -204h514q23 123 -25 203t-157 80z" />
    <glyph glyph-name="eacute" unicode="&#xe9;" horiz-adv-x="997" 
d="M905 1397v-6l-319 -269h-39l137 275h221zM604 987q168 0 253.5 -107t55.5 -262l-6 -30h-663q-17 -76 -17 -135q0 -167 84 -260t221 -93q181 0 316 138l29 -25q-173 -233 -404 -233q-165 0 -275 118t-110 301q0 153 64.5 287t184 217.5t267.5 83.5zM592 928
q-115 0 -202.5 -79t-129.5 -204h514q23 123 -25 203t-157 80z" />
    <glyph glyph-name="ecircumflex" unicode="&#xea;" horiz-adv-x="997" 
d="M858 1120l-182 129l-258 -129l-49 4l311 277h41l178 -277zM604 987q168 0 253.5 -107t55.5 -262l-6 -30h-663q-17 -76 -17 -135q0 -167 84 -260t221 -93q181 0 316 138l29 -25q-173 -233 -404 -233q-165 0 -275 118t-110 301q0 153 64.5 287t184 217.5t267.5 83.5z
M592 928q-115 0 -202.5 -79t-129.5 -204h514q23 123 -25 203t-157 80z" />
    <glyph glyph-name="edieresis" unicode="&#xeb;" horiz-adv-x="997" 
d="M483 1161q-42 0 -69 27t-27 69q0 50 36 85.5t87 35.5q41 0 67.5 -26.5t26.5 -67.5q0 -52 -35 -87.5t-86 -35.5zM866 1378q41 0 68 -26.5t27 -67.5q0 -52 -36 -87.5t-87 -35.5q-42 0 -68.5 26.5t-26.5 69.5q0 50 35.5 85.5t87.5 35.5zM604 987q168 0 253.5 -107t55.5 -262
l-6 -30h-663q-17 -76 -17 -135q0 -167 84 -260t221 -93q181 0 316 138l29 -25q-173 -233 -404 -233q-165 0 -275 118t-110 301q0 153 64.5 287t184 217.5t267.5 83.5zM592 928q-115 0 -202.5 -79t-129.5 -204h514q23 123 -25 203t-157 80z" />
    <glyph glyph-name="igrave" unicode="&#xec;" horiz-adv-x="555" 
d="M475 1397l33 -275h-37l-195 269v6h199zM485 977l-200 -803q-21 -78 -4 -104t96 -35v-35h-406v35q92 9 121 34t51 113l140 561q19 70 -3 95t-106 30v33l303 76h8z" />
    <glyph glyph-name="iacute" unicode="&#xed;" horiz-adv-x="555" 
d="M377 1122h-39l137 275h221v-6zM485 977l-200 -803q-21 -78 -4 -104t96 -35v-35h-406v35q92 9 121 34t51 113l140 561q19 70 -3 95t-106 30v33l303 76h8z" />
    <glyph glyph-name="icircumflex" unicode="&#xee;" horiz-adv-x="555" 
d="M211 1120l-49 4l311 277h41l178 -277l-41 -4l-182 129zM485 977l-200 -803q-21 -78 -4 -104t96 -35v-35h-406v35q92 9 121 34t51 113l140 561q19 70 -3 95t-106 30v33l303 76h8z" />
    <glyph glyph-name="idieresis" unicode="&#xef;" horiz-adv-x="555" 
d="M276 1161q-42 0 -69 27t-27 69q0 50 36 85.5t87 35.5q41 0 67.5 -26.5t26.5 -67.5q0 -52 -35 -87.5t-86 -35.5zM631 1161q-41 0 -67.5 26.5t-26.5 69.5q0 50 35 85.5t87 35.5q41 0 68 -26.5t27 -67.5q0 -52 -36 -87.5t-87 -35.5zM485 977l-200 -803q-21 -78 -4 -104
t96 -35v-35h-406v35q92 9 121 34t51 113l140 561q19 70 -3 95t-106 30v33l303 76h8z" />
    <glyph glyph-name="eth" unicode="&#xf0;" horiz-adv-x="1159" 
d="M1075 1401l15 -53l-187 -82q184 -194 184 -490q0 -109 -24 -220t-74 -214.5t-119 -184t-167 -129t-209 -48.5q-179 0 -289.5 129.5t-110.5 324.5q0 149 66.5 276.5t182 202t253.5 74.5q118 0 209.5 -70t136.5 -180h8q29 301 -125 494l-340 -150l-14 54l317 139
q-92 99 -235 166l18 35q171 -60 291 -168zM922 614l10 56q-36 96 -117 160.5t-186 64.5q-116 0 -207 -70t-137.5 -181.5t-46.5 -240.5q0 -162 69.5 -265t190.5 -103q158 0 267.5 148.5t156.5 430.5z" />
    <glyph glyph-name="ntilde" unicode="&#xf1;" horiz-adv-x="1165" 
d="M915 1141q-80 0 -145 59l-29 27q-28 25 -48.5 34t-49.5 9q-45 0 -78 -29.5t-59 -97.5l-41 4q27 110 81 164.5t126 54.5q74 0 145 -59l29 -27q29 -25 49.5 -34t46.5 -9q48 0 80.5 29.5t58.5 97.5l43 -4q-28 -111 -82 -165t-127 -54zM139 170l144 573q18 69 -3.5 95
t-107.5 30v33l305 76h8l-47 -184h6q159 194 338 194q129 0 202 -103.5t32 -265.5l-113 -452q-21 -70 -3.5 -96t97.5 -35v-35h-403v35q85 9 116.5 36t53.5 107l110 449q30 119 -15.5 188.5t-137.5 69.5q-146 0 -303 -176l-137 -549q-17 -68 2 -92.5t90 -32.5v-35h-402v35
q87 7 117 32t51 103z" />
    <glyph glyph-name="ograve" unicode="&#xf2;" horiz-adv-x="1126" 
d="M735 1397l33 -275h-37l-194 269v6h198zM481 -20q-179 0 -288 111.5t-109 289.5q0 162 72.5 300.5t203 222t287.5 83.5q179 0 289.5 -111.5t110.5 -289.5q0 -162 -73 -300.5t-204 -222t-289 -83.5zM483 41q91 0 169 52.5t128 136.5t78.5 185.5t28.5 202.5q0 142 -65.5 225
t-176.5 83q-90 0 -167.5 -52.5t-127.5 -137t-78 -186t-28 -202.5q0 -144 64 -225.5t175 -81.5z" />
    <glyph glyph-name="oacute" unicode="&#xf3;" horiz-adv-x="1126" 
d="M637 1122h-39l137 275h221v-6zM481 -20q-179 0 -288 111.5t-109 289.5q0 162 72.5 300.5t203 222t287.5 83.5q179 0 289.5 -111.5t110.5 -289.5q0 -162 -73 -300.5t-204 -222t-289 -83.5zM483 41q91 0 169 52.5t128 136.5t78.5 185.5t28.5 202.5q0 142 -65.5 225
t-176.5 83q-90 0 -167.5 -52.5t-127.5 -137t-78 -186t-28 -202.5q0 -144 64 -225.5t175 -81.5z" />
    <glyph glyph-name="ocircumflex" unicode="&#xf4;" horiz-adv-x="1126" 
d="M471 1120l-49 4l311 277h41l178 -277l-41 -4l-182 129zM481 -20q-179 0 -288 111.5t-109 289.5q0 162 72.5 300.5t203 222t287.5 83.5q179 0 289.5 -111.5t110.5 -289.5q0 -162 -73 -300.5t-204 -222t-289 -83.5zM483 41q91 0 169 52.5t128 136.5t78.5 185.5t28.5 202.5
q0 142 -65.5 225t-176.5 83q-90 0 -167.5 -52.5t-127.5 -137t-78 -186t-28 -202.5q0 -144 64 -225.5t175 -81.5z" />
    <glyph glyph-name="otilde" unicode="&#xf5;" horiz-adv-x="1126" 
d="M850 1141q-80 0 -145 59l-29 27q-28 25 -48.5 34t-49.5 9q-90 0 -138 -127l-41 4q27 110 81 164.5t126 54.5q75 0 146 -59l28 -27q29 -25 50 -34t47 -9q48 0 80.5 29.5t58.5 97.5l43 -4q-28 -111 -82 -165t-127 -54zM481 -20q-179 0 -288 111.5t-109 289.5
q0 162 72.5 300.5t203 222t287.5 83.5q179 0 289.5 -111.5t110.5 -289.5q0 -162 -73 -300.5t-204 -222t-289 -83.5zM483 41q91 0 169 52.5t128 136.5t78.5 185.5t28.5 202.5q0 142 -65.5 225t-176.5 83q-90 0 -167.5 -52.5t-127.5 -137t-78 -186t-28 -202.5
q0 -144 64 -225.5t175 -81.5z" />
    <glyph glyph-name="odieresis" unicode="&#xf6;" horiz-adv-x="1126" 
d="M537 1161q-42 0 -69.5 27t-27.5 69q0 50 36 85.5t87 35.5q41 0 67.5 -26.5t26.5 -67.5q0 -52 -34.5 -87.5t-85.5 -35.5zM891 1161q-41 0 -67.5 26.5t-26.5 69.5q0 50 35.5 85.5t87.5 35.5q41 0 67.5 -26.5t26.5 -67.5q0 -52 -36 -87.5t-87 -35.5zM481 -20
q-179 0 -288 111.5t-109 289.5q0 162 72.5 300.5t203 222t287.5 83.5q179 0 289.5 -111.5t110.5 -289.5q0 -162 -73 -300.5t-204 -222t-289 -83.5zM483 41q91 0 169 52.5t128 136.5t78.5 185.5t28.5 202.5q0 142 -65.5 225t-176.5 83q-90 0 -167.5 -52.5t-127.5 -137
t-78 -186t-28 -202.5q0 -144 64 -225.5t175 -81.5z" />
    <glyph glyph-name="divide" unicode="&#xf7;" horiz-adv-x="1187" 
d="M592 711q-41 0 -69.5 28.5t-28.5 69.5t28.5 70.5t69.5 29.5t69.5 -29.5t28.5 -70.5t-28.5 -69.5t-69.5 -28.5zM1053 449h-916v67h916v-67zM592 49q-41 0 -69.5 28.5t-28.5 69.5t28.5 70t69.5 29t69.5 -29t28.5 -70t-28.5 -69.5t-69.5 -28.5z" />
    <glyph glyph-name="oslash" unicode="&#xf8;" horiz-adv-x="1130" 
d="M1032 1030l41 -39l-121 -131q97 -111 97 -274q0 -162 -73 -300.5t-204 -222t-289 -83.5q-154 0 -260 86l-123 -136l-43 39l125 135q-96 113 -96 277q0 162 73 300.5t203.5 222t288.5 83.5q151 0 260 -88zM246 348q0 -81 22 -149l572 622q-66 105 -193 105
q-90 0 -167.5 -52.5t-127.5 -137t-78 -186t-28 -202.5zM889 618q0 77 -23 148l-571 -623q66 -102 192 -102q90 0 167.5 52.5t127.5 136.5t78.5 185.5t28.5 202.5z" />
    <glyph glyph-name="ugrave" unicode="&#xf9;" horiz-adv-x="1114" 
d="M731 1397l33 -275h-37l-195 269v6h199zM365 -20q-120 0 -187.5 100t-30.5 250l105 413q16 68 -4 94t-107 29v33l303 76h9l-164 -656q-27 -111 12 -175t127 -64q133 0 289 180l121 479q11 43 9 70.5t-29.5 41t-90.5 15.5v33l305 76h8l-190 -760q-21 -72 -4 -95t98 -26v-33
l-289 -73h-6l45 186h-6q-145 -194 -323 -194z" />
    <glyph glyph-name="uacute" unicode="&#xfa;" horiz-adv-x="1114" 
d="M633 1122h-39l137 275h221v-6zM365 -20q-120 0 -187.5 100t-30.5 250l105 413q16 68 -4 94t-107 29v33l303 76h9l-164 -656q-27 -111 12 -175t127 -64q133 0 289 180l121 479q11 43 9 70.5t-29.5 41t-90.5 15.5v33l305 76h8l-190 -760q-21 -72 -4 -95t98 -26v-33
l-289 -73h-6l45 186h-6q-145 -194 -323 -194z" />
    <glyph glyph-name="ucircumflex" unicode="&#xfb;" horiz-adv-x="1114" 
d="M465 1120l-49 4l311 277h41l178 -277l-41 -4l-182 129zM365 -20q-120 0 -187.5 100t-30.5 250l105 413q16 68 -4 94t-107 29v33l303 76h9l-164 -656q-27 -111 12 -175t127 -64q133 0 289 180l121 479q11 43 9 70.5t-29.5 41t-90.5 15.5v33l305 76h8l-190 -760
q-21 -72 -4 -95t98 -26v-33l-289 -73h-6l45 186h-6q-145 -194 -323 -194z" />
    <glyph glyph-name="udieresis" unicode="&#xfc;" horiz-adv-x="1114" 
d="M530 1161q-42 0 -69 27t-27 69q0 50 36 85.5t87 35.5q41 0 67.5 -26.5t26.5 -67.5q0 -52 -35 -87.5t-86 -35.5zM885 1161q-41 0 -67.5 26.5t-26.5 69.5q0 50 35 85.5t87 35.5q41 0 68 -26.5t27 -67.5q0 -52 -36 -87.5t-87 -35.5zM365 -20q-120 0 -187.5 100t-30.5 250
l105 413q16 68 -4 94t-107 29v33l303 76h9l-164 -656q-27 -111 12 -175t127 -64q133 0 289 180l121 479q11 43 9 70.5t-29.5 41t-90.5 15.5v33l305 76h8l-190 -760q-21 -72 -4 -95t98 -26v-33l-289 -73h-6l45 186h-6q-145 -194 -323 -194z" />
    <glyph glyph-name="yacute" unicode="&#xfd;" horiz-adv-x="1050" 
d="M932 1397v-6l-320 -269h-39l138 275h221zM815 932v33h342v-33q-88 -16 -133 -54.5t-96 -123.5l-518 -885q-102 -178 -188.5 -240.5t-192.5 -62.5q-74 0 -131 26v144q68 -29 147 -29q99 0 183.5 50.5t158.5 176.5l45 76l-145 750q-13 69 -52.5 91.5t-142.5 27.5v32l293 74
l4 -16q6 -37 41 -217l102 -553h9l327 563q20 35 29 54.5t13.5 41t-4.5 34t-31 23t-60 17.5z" />
    <glyph glyph-name="thorn" unicode="&#xfe;" horiz-adv-x="1118" 
d="M25 -225l364 1456q18 71 -3 96.5t-105 28.5v33l305 75h6l-168 -671h6q147 194 330 194q136 0 224.5 -103.5t88.5 -277.5q0 -116 -42.5 -229t-116.5 -201t-182.5 -142t-231.5 -54q-140 0 -254 83h-4l-72 -288q-25 -86 -8.5 -113.5t108.5 -36.5v-35h-417v35q90 9 120 36
t52 114zM502 35q74 0 142 32t119 86t88.5 123.5t57 146.5t19.5 152q0 146 -62.5 226t-167.5 80q-86 0 -155 -47t-142 -129l-90 -361q-33 -137 21.5 -223t169.5 -86z" />
    <glyph glyph-name="ydieresis" unicode="&#xff;" horiz-adv-x="1050" 
d="M512 1161q-42 0 -69 27t-27 69q0 50 36 85.5t87 35.5q41 0 67.5 -26.5t26.5 -67.5q0 -52 -35 -87.5t-86 -35.5zM866 1161q-41 0 -67.5 26.5t-26.5 69.5q0 50 35.5 85.5t87.5 35.5q41 0 67.5 -26.5t26.5 -67.5q0 -52 -36 -87.5t-87 -35.5zM815 932v33h342v-33
q-88 -16 -133 -54.5t-96 -123.5l-518 -885q-102 -178 -188.5 -240.5t-192.5 -62.5q-74 0 -131 26v144q68 -29 147 -29q99 0 183.5 50.5t158.5 176.5l45 76l-145 750q-13 69 -52.5 91.5t-142.5 27.5v32l293 74l4 -16q6 -37 41 -217l102 -553h9l327 563q20 35 29 54.5t13.5 41
t-4.5 34t-31 23t-60 17.5z" />
    <glyph glyph-name="Amacron" unicode="&#x100;" horiz-adv-x="1419" 
d="M702 1688h576v-66h-576v66zM961 1434l192 -1188q18 -106 44.5 -147.5t102.5 -63.5v-35h-509v35q73 9 118 25t66.5 40t26 57t-2.5 76l-38 250h-574l-156 -245q-62 -88 -45.5 -134.5t140.5 -68.5v-35h-432v35q66 14 113 41.5t79 64t74 101.5l758 1192h43zM840 1192
l-412 -645h522l-102 645h-8z" />
    <glyph glyph-name="amacron" unicode="&#x101;" horiz-adv-x="1134" 
d="M436 1206h576v64h-576v-64zM387 -20q-135 0 -221 105.5t-86 272.5q0 159 71.5 302.5t202 235t287.5 91.5q147 0 256 -88h4l133 74h25l-189 -756q-21 -70 -4.5 -95t99.5 -28v-33l-287 -73h-10l47 188h-6q-140 -196 -322 -196zM444 84q82 0 152.5 47.5t140.5 130.5l92 369
q34 130 -21.5 214.5t-170.5 84.5q-113 0 -209.5 -78t-150.5 -203t-54 -264q0 -137 59.5 -219t161.5 -82z" />
    <glyph glyph-name="Abreve" unicode="&#x102;" horiz-adv-x="1419" 
d="M979 1542q-102 0 -151.5 75.5t-26.5 199.5h43q-10 -76 29 -119t116 -43q83 0 141.5 42.5t86.5 119.5h43q-28 -128 -102 -201.5t-179 -73.5zM961 1434l192 -1188q18 -106 44.5 -147.5t102.5 -63.5v-35h-509v35q73 9 118 25t66.5 40t26 57t-2.5 76l-38 250h-574l-156 -245
q-62 -88 -45.5 -134.5t140.5 -68.5v-35h-432v35q66 14 113 41.5t79 64t74 101.5l758 1192h43zM840 1192l-412 -645h522l-102 645h-8z" />
    <glyph glyph-name="abreve" unicode="&#x103;" horiz-adv-x="1134" 
d="M705 1122q-103 0 -153.5 75.5t-25.5 199.5h41q-10 -76 29.5 -120t116.5 -44q83 0 141 43t86 121h43q-28 -129 -100.5 -202t-177.5 -73zM387 -20q-135 0 -221 105.5t-86 272.5q0 159 71.5 302.5t202 235t287.5 91.5q147 0 256 -88h4l133 74h25l-189 -756q-21 -70 -4.5 -95
t99.5 -28v-33l-287 -73h-10l47 188h-6q-140 -196 -322 -196zM444 84q82 0 152.5 47.5t140.5 130.5l92 369q34 130 -21.5 214.5t-170.5 84.5q-113 0 -209.5 -78t-150.5 -203t-54 -264q0 -137 59.5 -219t161.5 -82z" />
    <glyph glyph-name="Aogonek" unicode="&#x104;" horiz-adv-x="1419" 
d="M961 1434l192 -1188q18 -106 44.5 -147.5t102.5 -63.5v-35h-116q-136 -55 -203.5 -112t-67.5 -128q0 -47 29 -76.5t76 -29.5q65 0 127 59l22 -22q-78 -103 -184 -103q-70 0 -117 43.5t-47 112.5q0 81 73 146.5t204 109.5h-305v35q73 9 118 25t66.5 40t26 57t-2.5 76
l-38 250h-574l-156 -245q-62 -88 -45.5 -134.5t140.5 -68.5v-35h-432v35q66 14 113 41.5t79 64t74 101.5l758 1192h43zM840 1192l-412 -645h522l-102 645h-8z" />
    <glyph glyph-name="aogonek" unicode="&#x105;" horiz-adv-x="1134" 
d="M1059 973l-189 -756q-21 -70 -4.5 -95t99.5 -28v-33l-228 -59l4 -2q-136 -55 -203 -112t-67 -128q0 -47 28.5 -76.5t75.5 -29.5q65 0 127 59l23 -22q-78 -103 -184 -103q-70 0 -117 43.5t-47 112.5q0 84 78 151t217 111l43 170h-6q-140 -196 -322 -196q-135 0 -221 105.5
t-86 272.5q0 159 71.5 302.5t202 235t287.5 91.5q147 0 256 -88h4l133 74h25zM737 262l92 369q34 130 -21.5 214.5t-170.5 84.5q-113 0 -209.5 -78t-150.5 -203t-54 -264q0 -137 59.5 -219t161.5 -82q82 0 152.5 47.5t140.5 130.5z" />
    <glyph glyph-name="Cacute" unicode="&#x106;" horiz-adv-x="1429" 
d="M956 1542h-41l138 275h223v-7zM766 -20q-125 0 -236 45.5t-193.5 127t-130.5 201.5t-48 262q0 160 60.5 310t165.5 264.5t260.5 184t332.5 69.5q231 0 426 -101v-335h-35q-103 374 -407 374q-129 0 -247 -63t-199.5 -165t-130 -233.5t-48.5 -265.5q0 -253 136.5 -404
t346.5 -151q148 0 271 62t239 194l31 -26q-244 -350 -594 -350z" />
    <glyph glyph-name="cacute" unicode="&#x107;" horiz-adv-x="978" 
d="M596 1122h-39l137 275h221v-6zM477 -20q-174 0 -281.5 123t-107.5 305q0 155 69.5 287t197 212t286.5 80q144 0 266 -61v-230h-35q-29 111 -92 170.5t-153 59.5q-110 0 -202 -67t-143 -175t-51 -231q0 -164 81.5 -258.5t219.5 -94.5q183 0 316 138l29 -25
q-170 -233 -400 -233z" />
    <glyph glyph-name="Ccircumflex" unicode="&#x108;" horiz-adv-x="1429" 
d="M778 1540l-47 4l309 279h41l179 -279l-41 -4l-181 131zM766 -20q-125 0 -236 45.5t-193.5 127t-130.5 201.5t-48 262q0 160 60.5 310t165.5 264.5t260.5 184t332.5 69.5q231 0 426 -101v-335h-35q-103 374 -407 374q-129 0 -247 -63t-199.5 -165t-130 -233.5
t-48.5 -265.5q0 -253 136.5 -404t346.5 -151q148 0 271 62t239 194l31 -26q-244 -350 -594 -350z" />
    <glyph glyph-name="ccircumflex" unicode="&#x109;" horiz-adv-x="978" 
d="M430 1120l-49 4l311 277h41l178 -277l-41 -4l-182 129zM477 -20q-174 0 -281.5 123t-107.5 305q0 155 69.5 287t197 212t286.5 80q144 0 266 -61v-230h-35q-29 111 -92 170.5t-153 59.5q-110 0 -202 -67t-143 -175t-51 -231q0 -164 81.5 -258.5t219.5 -94.5
q183 0 316 138l29 -25q-170 -233 -400 -233z" />
    <glyph glyph-name="Cdotaccent" unicode="&#x10a;" horiz-adv-x="1429" 
d="M1022 1579q-43 0 -70.5 27t-27.5 71q0 50 36.5 86.5t88.5 36.5q43 0 70.5 -26.5t27.5 -69.5q0 -52 -36.5 -88.5t-88.5 -36.5zM766 -20q-125 0 -236 45.5t-193.5 127t-130.5 201.5t-48 262q0 160 60.5 310t165.5 264.5t260.5 184t332.5 69.5q231 0 426 -101v-335h-35
q-103 374 -407 374q-129 0 -247 -63t-199.5 -165t-130 -233.5t-48.5 -265.5q0 -253 136.5 -404t346.5 -151q148 0 271 62t239 194l31 -26q-244 -350 -594 -350z" />
    <glyph glyph-name="cdotaccent" unicode="&#x10b;" horiz-adv-x="978" 
d="M680 1159q-43 0 -70.5 27t-27.5 71q0 51 37 88t90 37q41 0 68.5 -27.5t27.5 -68.5q0 -54 -36 -90.5t-89 -36.5zM477 -20q-174 0 -281.5 123t-107.5 305q0 155 69.5 287t197 212t286.5 80q144 0 266 -61v-230h-35q-29 111 -92 170.5t-153 59.5q-110 0 -202 -67t-143 -175
t-51 -231q0 -164 81.5 -258.5t219.5 -94.5q183 0 316 138l29 -25q-170 -233 -400 -233z" />
    <glyph glyph-name="Ccaron" unicode="&#x10c;" horiz-adv-x="1429" 
d="M1268 1819l47 -7l-309 -276h-41l-181 279l41 4l183 -131zM766 -20q-125 0 -236 45.5t-193.5 127t-130.5 201.5t-48 262q0 160 60.5 310t165.5 264.5t260.5 184t332.5 69.5q231 0 426 -101v-335h-35q-103 374 -407 374q-129 0 -247 -63t-199.5 -165t-130 -233.5
t-48.5 -265.5q0 -253 136.5 -404t346.5 -151q148 0 271 62t239 194l31 -26q-244 -350 -594 -350z" />
    <glyph glyph-name="ccaron" unicode="&#x10d;" horiz-adv-x="978" 
d="M928 1397l47 -4l-309 -277h-41l-181 277l43 4l181 -129zM477 -20q-174 0 -281.5 123t-107.5 305q0 155 69.5 287t197 212t286.5 80q144 0 266 -61v-230h-35q-29 111 -92 170.5t-153 59.5q-110 0 -202 -67t-143 -175t-51 -231q0 -164 81.5 -258.5t219.5 -94.5
q183 0 316 138l29 -25q-170 -233 -400 -233z" />
    <glyph glyph-name="Dcaron" unicode="&#x10e;" horiz-adv-x="1570" 
d="M1266 1819l47 -7l-309 -276h-41l-181 279l41 4l183 -131zM213 240l233 944q30 110 4 152.5t-137 52.5v34h529q202 0 359 -73.5t244 -209t87 -313.5q0 -183 -69 -337.5t-192.5 -262t-298 -167.5t-380.5 -60h-629v35q125 12 173 51t77 154zM649 1364l-323 -1305h219
q186 0 339.5 60.5t255 166.5t157 250.5t55.5 311.5q0 244 -144 380t-389 136h-170z" />
    <glyph glyph-name="dcaron" unicode="&#x10f;" horiz-adv-x="1140" 
d="M1370 1473q39 0 63.5 -26.5t24.5 -64.5q0 -48 -55 -114l-154 -193h-57l178 217h-10q-37 0 -61.5 23t-24.5 59q0 40 26.5 69.5t69.5 29.5zM1196 1464l-313 -1251q-21 -69 -4.5 -92.5t98.5 -26.5v-33l-287 -73h-8l45 186h-6q-143 -194 -328 -194q-139 0 -226 105t-87 273
q0 118 43 232t117 201.5t182 141.5t229 54q139 0 254 -86h4l84 336q17 65 -5.5 90.5t-104.5 28.5v33l305 75h8zM750 260l92 369q33 134 -23.5 217.5t-171.5 83.5q-114 0 -212.5 -77t-155 -202.5t-56.5 -265.5q0 -138 62 -219.5t170 -81.5q81 0 152 46.5t143 129.5z" />
    <glyph glyph-name="Dcroat" unicode="&#x110;" horiz-adv-x="1579" 
d="M322 1423h528q202 0 359 -73.5t244 -209t87 -313.5q0 -183 -69 -337.5t-192.5 -262t-298 -167.5t-380.5 -60h-629v35q125 12 173 51t77 154l115 460h-203v62h217l105 422q30 110 4 152.5t-137 52.5v34zM332 59h221q186 0 339.5 60.5t255 166.5t157 250.5t55.5 311.5
q0 244 -144 380t-389 136h-170l-149 -602h270v-62h-286z" />
    <glyph glyph-name="dcroat" unicode="&#x111;" horiz-adv-x="1140" 
d="M1270 1114h-162l-225 -901q-21 -69 -4.5 -92.5t98.5 -26.5v-33l-287 -73h-8l45 186h-6q-143 -194 -328 -194q-139 0 -226 105t-87 273q0 118 43 232t117 201.5t182 141.5t229 54q139 0 254 -86h4l54 213h-281v55h295l16 68q17 65 -5.5 90.5t-104.5 28.5v33l305 75h8
l-74 -295h148v-55zM750 260l92 369q33 134 -23.5 217.5t-171.5 83.5q-114 0 -212.5 -77t-155 -202.5t-56.5 -265.5q0 -138 62 -219.5t170 -81.5q81 0 152 46.5t143 129.5z" />
    <glyph glyph-name="Emacron" unicode="&#x112;" horiz-adv-x="1343" 
d="M678 1622h575v66h-575v-66zM1141 424h35v-424h-1213v35q65 6 105.5 18t69.5 38t45.5 61.5t31.5 95.5l231 936q13 48 15.5 80.5t-3.5 55.5t-25.5 36.5t-47 21t-72.5 11.5v34h1063v-344h-35q-14 153 -87.5 219t-241.5 66h-363l-151 -612h209q129 0 184.5 50t66.5 163h35
v-486h-35q-11 112 -66 162.5t-185 50.5h-226l-155 -633h458q173 0 255 80t102 285z" />
    <glyph glyph-name="emacron" unicode="&#x113;" horiz-adv-x="997" 
d="M381 1206v64h575v-64h-575zM604 987q168 0 253.5 -107t55.5 -262l-6 -30h-663q-17 -76 -17 -135q0 -167 84 -260t221 -93q181 0 316 138l29 -25q-173 -233 -404 -233q-165 0 -275 118t-110 301q0 153 64.5 287t184 217.5t267.5 83.5zM592 928q-115 0 -202.5 -79
t-129.5 -204h514q23 123 -25 203t-157 80z" />
    <glyph glyph-name="Ebreve" unicode="&#x114;" horiz-adv-x="1343" 
d="M952 1542q-102 0 -151.5 75.5t-26.5 199.5h43q-10 -76 29.5 -119t116.5 -43q83 0 141 42.5t86 119.5h43q-28 -128 -102 -201.5t-179 -73.5zM1141 424h35v-424h-1213v35q65 6 105.5 18t69.5 38t45.5 61.5t31.5 95.5l231 936q13 48 15.5 80.5t-3.5 55.5t-25.5 36.5t-47 21
t-72.5 11.5v34h1063v-344h-35q-14 153 -87.5 219t-241.5 66h-363l-151 -612h209q129 0 184.5 50t66.5 163h35v-486h-35q-11 112 -66 162.5t-185 50.5h-226l-155 -633h458q173 0 255 80t102 285z" />
    <glyph glyph-name="ebreve" unicode="&#x115;" horiz-adv-x="997" 
d="M649 1122q-103 0 -153 75.5t-25 199.5h41q-10 -76 29 -120t116 -44q83 0 141.5 43t86.5 121h43q-28 -129 -101 -202t-178 -73zM604 987q168 0 253.5 -107t55.5 -262l-6 -30h-663q-17 -76 -17 -135q0 -167 84 -260t221 -93q181 0 316 138l29 -25q-173 -233 -404 -233
q-165 0 -275 118t-110 301q0 153 64.5 287t184 217.5t267.5 83.5zM592 928q-115 0 -202.5 -79t-129.5 -204h514q23 123 -25 203t-157 80z" />
    <glyph glyph-name="Edotaccent" unicode="&#x116;" horiz-adv-x="1343" 
d="M958 1579q-43 0 -70.5 27t-27.5 71q0 50 36.5 86.5t88.5 36.5q43 0 70.5 -26.5t27.5 -69.5q0 -52 -36.5 -88.5t-88.5 -36.5zM1141 424h35v-424h-1213v35q65 6 105.5 18t69.5 38t45.5 61.5t31.5 95.5l231 936q13 48 15.5 80.5t-3.5 55.5t-25.5 36.5t-47 21t-72.5 11.5v34
h1063v-344h-35q-14 153 -87.5 219t-241.5 66h-363l-151 -612h209q129 0 184.5 50t66.5 163h35v-486h-35q-11 112 -66 162.5t-185 50.5h-226l-155 -633h458q173 0 255 80t102 285z" />
    <glyph glyph-name="edotaccent" unicode="&#x117;" horiz-adv-x="997" 
d="M668 1159q-43 0 -71 27t-28 71q0 51 36.5 88t90.5 37q41 0 69 -27.5t28 -68.5q0 -54 -36 -90.5t-89 -36.5zM604 987q168 0 253.5 -107t55.5 -262l-6 -30h-663q-17 -76 -17 -135q0 -167 84 -260t221 -93q181 0 316 138l29 -25q-173 -233 -404 -233q-165 0 -275 118
t-110 301q0 153 64.5 287t184 217.5t267.5 83.5zM592 928q-115 0 -202.5 -79t-129.5 -204h514q23 123 -25 203t-157 80z" />
    <glyph glyph-name="Eogonek" unicode="&#x118;" horiz-adv-x="1343" 
d="M313 1389v34h1063v-344h-35q-14 153 -87.5 219t-241.5 66h-363l-151 -612h209q129 0 184.5 50t66.5 163h35v-486h-35q-11 112 -66 162.5t-185 50.5h-226l-155 -633h458q173 0 255 80t102 285h35v-424q-136 -55 -203.5 -112t-67.5 -128q0 -47 29 -76.5t76 -29.5
q65 0 127 59l22 -22q-78 -103 -184 -103q-70 0 -117 43.5t-47 112.5q0 81 72.5 146.5t203.5 109.5h-1124v35q65 6 105.5 18t69.5 38t45.5 61.5t31.5 95.5l231 936q13 48 15.5 80.5t-3.5 55.5t-25.5 36.5t-47 21t-72.5 11.5z" />
    <glyph glyph-name="eogonek" unicode="&#x119;" horiz-adv-x="997" 
d="M604 987q167 0 253 -107t56 -262l-6 -30h-663q-17 -76 -17 -135q0 -166 84.5 -259.5t218.5 -93.5q95 0 170.5 33.5t147.5 104.5l29 -25q-69 -91 -136 -140.5t-155 -80.5q-127 -42 -197 -100.5t-70 -129.5q0 -50 29 -79t78 -29q66 0 125 59l22 -22q-74 -103 -182 -103
q-73 0 -119.5 43t-46.5 111q0 73 60 135.5t164 102.5v4q-159 9 -260 125t-101 290q0 154 64.5 288t184 217t267.5 83zM260 645h514q24 121 -24.5 202t-155.5 81q-115 0 -203.5 -79.5t-130.5 -203.5z" />
    <glyph glyph-name="Ecaron" unicode="&#x11a;" horiz-adv-x="1343" 
d="M1204 1819l47 -7l-309 -276h-41l-180 279l41 4l182 -131zM1141 424h35v-424h-1213v35q65 6 105.5 18t69.5 38t45.5 61.5t31.5 95.5l231 936q13 48 15.5 80.5t-3.5 55.5t-25.5 36.5t-47 21t-72.5 11.5v34h1063v-344h-35q-14 153 -87.5 219t-241.5 66h-363l-151 -612h209
q129 0 184.5 50t66.5 163h35v-486h-35q-11 112 -66 162.5t-185 50.5h-226l-155 -633h458q173 0 255 80t102 285z" />
    <glyph glyph-name="ecaron" unicode="&#x11b;" horiz-adv-x="997" 
d="M963 1393l-310 -277h-41l-180 277l43 4l180 -129l260 129zM604 987q168 0 253.5 -107t55.5 -262l-6 -30h-663q-17 -76 -17 -135q0 -167 84 -260t221 -93q181 0 316 138l29 -25q-173 -233 -404 -233q-165 0 -275 118t-110 301q0 153 64.5 287t184 217.5t267.5 83.5z
M592 928q-115 0 -202.5 -79t-129.5 -204h514q23 123 -25 203t-157 80z" />
    <glyph glyph-name="Gcircumflex" unicode="&#x11c;" horiz-adv-x="1568" 
d="M1253 1540l-180 131l-260 -131l-47 4l309 279h41l178 -279zM977 670v35h596v-35q-110 -11 -163 -52.5t-79 -142.5l-92 -373q-113 -62 -216 -92t-220 -30q-142 0 -263 48.5t-205 132.5t-131.5 201.5t-47.5 253.5q0 166 67.5 318.5t184.5 264.5t283 178.5t353 66.5
q261 0 472 -101v-321h-35q-56 180 -169.5 270t-273.5 90q-156 0 -289.5 -65t-222.5 -172.5t-139.5 -245.5t-50.5 -285q0 -256 130.5 -413.5t360.5 -157.5q130 0 252 47l97 389q26 105 -18 144t-181 47z" />
    <glyph glyph-name="gcircumflex" unicode="&#x11d;" horiz-adv-x="1021" 
d="M838 1120l-183 129l-258 -129l-49 4l311 277h41l179 -277zM1071 1106v-176h-315v-6q65 -24 106 -81t41 -134q0 -152 -124.5 -252.5t-299.5 -100.5q-82 0 -149 25q-66 -26 -106 -62.5t-40 -76.5q0 -71 119 -90l305 -52q129 -19 200 -69.5t71 -147.5q0 -95 -72.5 -168
t-191.5 -111t-261 -38q-184 0 -305 65.5t-121 178.5q0 74 64 134.5t180 102.5v4q-109 37 -109 139q0 64 57 120t156 93v5q-122 77 -122 223q0 154 124 255t300 101q55 0 104 -14l383 133h6zM758 735q0 92 -47.5 145.5t-130.5 53.5q-122 0 -201.5 -97.5t-79.5 -226.5
q0 -94 48.5 -147t133.5 -53q120 0 198.5 98.5t78.5 226.5zM557 -18l-311 53q-91 -36 -140 -90.5t-49 -118.5q0 -95 85.5 -150t215.5 -55q105 0 191.5 26t139 76.5t52.5 116.5q0 62 -46 95t-138 47z" />
    <glyph glyph-name="Gbreve" unicode="&#x11e;" horiz-adv-x="1568" 
d="M1053 1542q-102 0 -152 75.5t-27 199.5h44q-10 -76 29 -119t116 -43q83 0 141 42.5t86 119.5h43q-28 -129 -101.5 -202t-178.5 -73zM977 670v35h596v-35q-110 -11 -163 -52.5t-79 -142.5l-92 -373q-113 -62 -216 -92t-220 -30q-142 0 -263 48.5t-205 132.5t-131.5 201.5
t-47.5 253.5q0 166 67.5 318.5t184.5 264.5t283 178.5t353 66.5q261 0 472 -101v-321h-35q-56 180 -169.5 270t-273.5 90q-156 0 -289.5 -65t-222.5 -172.5t-139.5 -245.5t-50.5 -285q0 -256 130.5 -413.5t360.5 -157.5q130 0 252 47l97 389q26 105 -18 144t-181 47z" />
    <glyph glyph-name="gbreve" unicode="&#x11f;" horiz-adv-x="1021" 
d="M631 1122q-103 0 -153 75.5t-25 199.5h41q-10 -76 29 -120t116 -44q83 0 141 43t86 121h43q-28 -129 -100.5 -202t-177.5 -73zM1071 1106v-176h-315v-6q65 -24 106 -81t41 -134q0 -152 -124.5 -252.5t-299.5 -100.5q-82 0 -149 25q-66 -26 -106 -62.5t-40 -76.5
q0 -71 119 -90l305 -52q129 -19 200 -69.5t71 -147.5q0 -95 -72.5 -168t-191.5 -111t-261 -38q-184 0 -305 65.5t-121 178.5q0 74 64 134.5t180 102.5v4q-109 37 -109 139q0 64 57 120t156 93v5q-122 77 -122 223q0 154 124 255t300 101q55 0 104 -14l383 133h6zM758 735
q0 92 -47.5 145.5t-130.5 53.5q-122 0 -201.5 -97.5t-79.5 -226.5q0 -94 48.5 -147t133.5 -53q120 0 198.5 98.5t78.5 226.5zM557 -18l-311 53q-91 -36 -140 -90.5t-49 -118.5q0 -95 85.5 -150t215.5 -55q105 0 191.5 26t139 76.5t52.5 116.5q0 62 -46 95t-138 47z" />
    <glyph glyph-name="Gdotaccent" unicode="&#x120;" horiz-adv-x="1568" 
d="M1057 1579q-43 0 -71 27t-28 71q0 50 36.5 86.5t88.5 36.5q43 0 71 -27t28 -69q0 -52 -36 -88.5t-89 -36.5zM977 670v35h596v-35q-110 -11 -163 -52.5t-79 -142.5l-92 -373q-113 -62 -216 -92t-220 -30q-142 0 -263 48.5t-205 132.5t-131.5 201.5t-47.5 253.5
q0 166 67.5 318.5t184.5 264.5t283 178.5t353 66.5q261 0 472 -101v-321h-35q-56 180 -169.5 270t-273.5 90q-156 0 -289.5 -65t-222.5 -172.5t-139.5 -245.5t-50.5 -285q0 -256 130.5 -413.5t360.5 -157.5q130 0 252 47l97 389q26 105 -18 144t-181 47z" />
    <glyph glyph-name="gdotaccent" unicode="&#x121;" horiz-adv-x="1021" 
d="M647 1159q-43 0 -70.5 27t-27.5 71q0 51 36.5 88t90.5 37q41 0 68.5 -27.5t27.5 -68.5q0 -54 -36 -90.5t-89 -36.5zM1071 1106v-176h-315v-6q65 -24 106 -81t41 -134q0 -152 -124.5 -252.5t-299.5 -100.5q-82 0 -149 25q-66 -26 -106 -62.5t-40 -76.5q0 -71 119 -90
l305 -52q129 -19 200 -69.5t71 -147.5q0 -95 -72.5 -168t-191.5 -111t-261 -38q-184 0 -305 65.5t-121 178.5q0 74 64 134.5t180 102.5v4q-109 37 -109 139q0 64 57 120t156 93v5q-122 77 -122 223q0 154 124 255t300 101q55 0 104 -14l383 133h6zM758 735q0 92 -47.5 145.5
t-130.5 53.5q-122 0 -201.5 -97.5t-79.5 -226.5q0 -94 48.5 -147t133.5 -53q120 0 198.5 98.5t78.5 226.5zM557 -18l-311 53q-91 -36 -140 -90.5t-49 -118.5q0 -95 85.5 -150t215.5 -55q105 0 191.5 26t139 76.5t52.5 116.5q0 62 -46 95t-138 47z" />
    <glyph glyph-name="uni0122" unicode="&#x122;" horiz-adv-x="1568" 
d="M977 670v35h596v-35q-110 -11 -163 -52.5t-79 -142.5l-92 -373q-113 -62 -216 -92t-220 -30q-142 0 -263 48.5t-205 132.5t-131.5 201.5t-47.5 253.5q0 166 67.5 318.5t184.5 264.5t283 178.5t353 66.5q261 0 472 -101v-321h-35q-56 180 -169.5 270t-273.5 90
q-156 0 -289.5 -65t-222.5 -172.5t-139.5 -245.5t-50.5 -285q0 -256 130.5 -413.5t360.5 -157.5q130 0 252 47l97 389q26 105 -18 144t-181 47zM774 -94q40 0 66 -27.5t26 -66.5q0 -53 -59 -123l-162 -203h-59l188 229h-12q-39 0 -64.5 24.5t-25.5 63.5q0 42 28.5 72.5
t73.5 30.5z" />
    <glyph glyph-name="uni0123" unicode="&#x123;" horiz-adv-x="1021" 
d="M625 1081q-40 0 -66.5 28t-26.5 67q0 22 9 44.5t19 36.5t30 39l164 205h57l-186 -229h10q40 0 66 -25t26 -63q0 -41 -29 -72t-73 -31zM1071 1106v-176h-315v-6q65 -24 106 -81t41 -134q0 -152 -124.5 -252.5t-299.5 -100.5q-82 0 -149 25q-66 -26 -106 -62.5t-40 -76.5
q0 -71 119 -90l305 -52q129 -19 200 -69.5t71 -147.5q0 -95 -72.5 -168t-191.5 -111t-261 -38q-184 0 -305 65.5t-121 178.5q0 74 64 134.5t180 102.5v4q-109 37 -109 139q0 64 57 120t156 93v5q-122 77 -122 223q0 154 124 255t300 101q55 0 104 -14l383 133h6zM758 735
q0 92 -47.5 145.5t-130.5 53.5q-122 0 -201.5 -97.5t-79.5 -226.5q0 -94 48.5 -147t133.5 -53q120 0 198.5 98.5t78.5 226.5zM557 -18l-311 53q-91 -36 -140 -90.5t-49 -118.5q0 -95 85.5 -150t215.5 -55q105 0 191.5 26t139 76.5t52.5 116.5q0 62 -46 95t-138 47z" />
    <glyph glyph-name="Hcircumflex" unicode="&#x124;" horiz-adv-x="1681" 
d="M1323 1540l-180 131l-260 -131l-47 4l309 279h41l178 -279zM1292 1389v34h537v-34q-119 -11 -167.5 -48.5t-74.5 -144.5l-239 -960q-27 -114 -0.5 -151.5t135.5 -49.5v-35h-535v35q119 9 167 46.5t77 151.5l117 467h-826l-114 -464q-28 -114 -0.5 -151.5t135.5 -49.5v-35
h-537v35q119 9 167 47t77 151l238 959q28 108 0 147t-138 50v34h539v-34q-120 -11 -168.5 -48t-75.5 -145l-106 -432h823l107 428q27 108 -2 147t-136 50z" />
    <glyph glyph-name="hcircumflex" unicode="&#x125;" horiz-adv-x="1150" 
d="M637 1540l-47 4l309 279h41l178 -279l-41 -4l-180 131zM125 174l264 1059q17 69 -5 94.5t-105 28.5v33l305 75h6l-168 -671h6q161 194 340 194q82 0 144.5 -45.5t88.5 -127.5t0 -196l-112 -450q-21 -72 -4.5 -98t96.5 -35v-35h-403v35q86 9 118 36t52 107l110 447
q30 120 -15 190t-136 70q-149 0 -306 -176l-137 -549q-17 -68 1.5 -92.5t88.5 -32.5v-35h-399v35q88 7 118.5 33t51.5 106z" />
    <glyph glyph-name="Hbar" unicode="&#x126;" horiz-adv-x="1691" 
d="M1837 1423v-34q-120 -11 -168.5 -48t-75.5 -145l-22 -88h184v-61h-199l-202 -811q-27 -114 -0.5 -151.5t137.5 -49.5v-35h-537v35q119 9 167 46.5t77 151.5l117 467h-826l-114 -464q-15 -60 -15.5 -95.5t17.5 -57.5t48 -32t87 -16v-35h-537v35q118 9 165.5 47t76.5 151
l203 814h-187v61h203l21 84q26 108 -2 147t-136 50v34h537v-34q-120 -11 -168.5 -48t-75.5 -145l-22 -88h825l21 84q27 108 -1.5 147t-136.5 50v34h539zM506 764h823l70 283h-824z" />
    <glyph glyph-name="hbar" unicode="&#x127;" horiz-adv-x="1150" 
d="M1001 618l-112 -450q-21 -72 -4.5 -98t96.5 -35v-35h-403v35q86 9 118 36t52 107l110 447q30 120 -15 190t-136 70q-149 0 -306 -176l-137 -549q-17 -68 1.5 -92.5t88.5 -32.5v-35h-399v35q88 7 118.5 33t51.5 106l235 940h-151v55h164l16 64q17 69 -5 94.5t-105 28.5v33
l305 75h6l-74 -295h281v-55h-295l-80 -321h6q161 194 340 194q82 0 144.5 -45.5t88.5 -127.5t0 -196z" />
    <glyph glyph-name="Itilde" unicode="&#x128;" horiz-adv-x="700" 
d="M774 1561q-83 0 -147 61l-29 25q-27 26 -47 34.5t-51 8.5q-45 0 -78 -29.5t-60 -97.5l-40 4q28 110 82 164.5t124 54.5q77 0 146 -60l31 -26q28 -25 48 -34t48 -9q46 0 78.5 29.5t58.5 97.5l43 -4q-28 -111 -82 -165t-125 -54zM-33 0v35q63 6 99 15t66 31.5t47 59
t32 99.5l238 948q15 59 16 94.5t-16.5 58.5t-49 32.5t-88.5 15.5v34h539v-34q-122 -12 -169.5 -49t-74.5 -148l-237 -950q-16 -63 -17 -100t17.5 -59.5t48 -31.5t86.5 -16v-35h-537z" />
    <glyph glyph-name="itilde" unicode="&#x129;" horiz-adv-x="555" 
d="M590 1141q-81 0 -146 59l-28 27q-28 25 -49 34t-50 9q-45 0 -78 -29.5t-59 -97.5l-41 4q27 110 81 164.5t126 54.5q75 0 146 -59l28 -27q29 -25 49.5 -34t46.5 -9q48 0 81 29.5t59 97.5l43 -4q-28 -111 -82 -165t-127 -54zM485 977l-200 -803q-21 -78 -4 -104t96 -35v-35
h-406v35q92 9 121 34t51 113l140 561q19 70 -3 95t-106 30v33l303 76h8z" />
    <glyph glyph-name="Imacron" unicode="&#x12a;" horiz-adv-x="700" 
d="M354 1622h576v66h-576v-66zM-33 0v35q63 6 99 15t66 31.5t47 59t32 99.5l238 948q15 59 16 94.5t-16.5 58.5t-49 32.5t-88.5 15.5v34h539v-34q-122 -12 -169.5 -49t-74.5 -148l-237 -950q-16 -63 -17 -100t17.5 -59.5t48 -31.5t86.5 -16v-35h-537z" />
    <glyph glyph-name="imacron" unicode="&#x12b;" horiz-adv-x="555" 
d="M174 1206h576v64h-576v-64zM485 977l-200 -803q-21 -78 -4 -104t96 -35v-35h-406v35q92 9 121 34t51 113l140 561q19 70 -3 95t-106 30v33l303 76h8z" />
    <glyph glyph-name="Ibreve" unicode="&#x12c;" horiz-adv-x="700" 
d="M629 1542q-102 0 -151.5 75.5t-26.5 199.5h43q-10 -76 29 -119t116 -43q83 0 141 42.5t86 119.5h43q-28 -129 -101.5 -202t-178.5 -73zM-33 0v35q63 6 99 15t66 31.5t47 59t32 99.5l238 948q15 59 16 94.5t-16.5 58.5t-49 32.5t-88.5 15.5v34h539v-34
q-122 -12 -169.5 -49t-74.5 -148l-237 -950q-16 -63 -17 -100t17.5 -59.5t48 -31.5t86.5 -16v-35h-537z" />
    <glyph glyph-name="ibreve" unicode="&#x12d;" horiz-adv-x="555" 
d="M442 1122q-103 0 -153 75.5t-25 199.5h41q-10 -76 29.5 -120t116.5 -44q83 0 141 43t86 121h43q-28 -129 -101 -202t-178 -73zM485 977l-200 -803q-21 -78 -4 -104t96 -35v-35h-406v35q92 9 121 34t51 113l140 561q19 70 -3 95t-106 30v33l303 76h8z" />
    <glyph glyph-name="Iogonek" unicode="&#x12e;" horiz-adv-x="700" 
d="M311 1389v34h539v-34q-122 -12 -169.5 -49t-74.5 -148l-237 -950q-16 -63 -17 -100t17.5 -59.5t48 -31.5t86.5 -16v-35h-168q-136 -55 -203 -112t-67 -128q0 -47 28.5 -76.5t75.5 -29.5q65 0 127 59l22 -22q-78 -103 -184 -103q-70 0 -117 43.5t-47 112.5q0 81 73 146.5
t204 109.5h-281v35q63 6 99 15t66 31.5t47 59t32 99.5l238 948q15 59 16 94.5t-16.5 58.5t-49 32.5t-88.5 15.5z" />
    <glyph glyph-name="iogonek" unicode="&#x12f;" horiz-adv-x="555" 
d="M489 1382q41 0 69 -27.5t28 -68.5q0 -54 -36 -90.5t-89 -36.5q-43 0 -71 27t-28 71q0 51 37 88t90 37zM477 977h8l-200 -803q-21 -78 -4 -104t96 -35v-35h-98q-136 -55 -203.5 -112t-67.5 -128q0 -47 29 -76.5t76 -29.5q65 0 127 59l22 -22q-78 -103 -184 -103
q-70 0 -117 43.5t-47 112.5q0 81 72.5 146.5t203.5 109.5h-219v35q92 9 121 34t51 113l140 561q19 70 -3 95t-106 30v33z" />
    <glyph glyph-name="Idotaccent" unicode="&#x130;" horiz-adv-x="700" 
d="M635 1579q-43 0 -70.5 27t-27.5 71q0 50 36.5 86.5t88.5 36.5q43 0 70.5 -26.5t27.5 -69.5q0 -52 -36 -88.5t-89 -36.5zM-33 0v35q63 6 99 15t66 31.5t47 59t32 99.5l238 948q15 59 16 94.5t-16.5 58.5t-49 32.5t-88.5 15.5v34h539v-34q-122 -12 -169.5 -49t-74.5 -148
l-237 -950q-16 -63 -17 -100t17.5 -59.5t48 -31.5t86.5 -16v-35h-537z" />
    <glyph glyph-name="dotlessi" unicode="&#x131;" horiz-adv-x="555" 
d="M485 977l-200 -803q-21 -78 -4 -104t96 -35v-35h-406v35q92 9 121 34t51 113l140 561q19 70 -3 95t-106 30v33l303 76h8z" />
    <glyph glyph-name="IJ" unicode="&#x132;" horiz-adv-x="1628" 
d="M-33 0v35q63 6 99 15t66 31.5t47 59t32 99.5l238 948q15 59 16 94.5t-16.5 58.5t-49 32.5t-88.5 15.5v34h539v-34q-122 -12 -169.5 -49t-74.5 -148l-237 -950q-16 -63 -17 -100t17.5 -59.5t48 -31.5t86.5 -16v-35h-537zM899 -20q-159 0 -283 83l23 39q104 -53 211 -53
q264 0 336 285l213 852q27 116 1 154t-136 49v34h536v-34q-121 -12 -169 -50t-75 -151l-206 -828q-96 -380 -451 -380z" />
    <glyph glyph-name="ij" unicode="&#x133;" horiz-adv-x="1069" 
d="M461 1159q-43 0 -71 27t-28 71q0 51 36.5 88t88.5 37q43 0 71 -27.5t28 -68.5q0 -54 -36 -90.5t-89 -36.5zM999 1159q-43 0 -69.5 27t-26.5 71q0 51 36.5 88t88.5 37q43 0 70.5 -27.5t27.5 -68.5q0 -54 -37 -90.5t-90 -36.5zM485 977l-200 -803q-21 -78 -4 -104t96 -35
v-35h-406v35q92 9 121 34t51 113l140 561q19 70 -3 95t-106 30v33l303 76h8zM397 -434q-91 0 -164 39l19 39q61 -23 121 -23q85 0 138 49.5t81 157.5l229 915q17 70 -5.5 96t-104.5 29v33l305 76h6l-281 -1129q-35 -135 -121 -208.5t-223 -73.5z" />
    <glyph glyph-name="Jcircumflex" unicode="&#x134;" horiz-adv-x="927" 
d="M637 1540l-47 4l309 279h41l178 -279l-41 -4l-180 131zM199 -20q-159 0 -283 83l23 39q104 -53 211 -53q263 0 335 285l213 852q27 116 1 154t-136 49v34h537v-34q-121 -12 -169 -50t-75 -151l-207 -828q-96 -380 -450 -380z" />
    <glyph glyph-name="jcircumflex" unicode="&#x135;" horiz-adv-x="514" 
d="M197 1120l-50 4l312 277h41l178 -277l-41 -4l-182 129zM-158 -434q-91 0 -164 39l19 39q61 -23 121 -23q85 0 138 49.5t81 157.5l229 915q17 70 -5.5 96t-104.5 29v33l305 76h6l-281 -1129q-35 -135 -121 -208.5t-223 -73.5z" />
    <glyph glyph-name="uni0136" unicode="&#x136;" horiz-adv-x="1406" 
d="M1606 1423v-34q-125 -19 -213 -64t-201 -137l-528 -422l628 -760v-6h-198l-547 672l-88 -70l-90 -362q-16 -60 -17 -96.5t16 -59.5t48 -33t88 -16v-35h-537v35q120 11 167.5 49t76.5 154l238 950q27 113 0 151t-138 50v34h539v-34q-85 -9 -128.5 -27t-70.5 -57t-47 -117
l-121 -483h6l639 512q46 36 71 63t31.5 49.5t-16 37.5t-73.5 22v34h465zM696 -94q40 0 66 -27.5t26 -66.5q0 -53 -59 -123l-162 -203h-59l188 229h-12q-39 0 -64.5 24.5t-25.5 63.5q0 42 28.5 72.5t73.5 30.5z" />
    <glyph glyph-name="uni0137" unicode="&#x137;" horiz-adv-x="1071" 
d="M1145 965v-35q-94 -13 -169 -48.5t-179 -109.5l-303 -219l458 -547v-6h-176l-389 473l-57 -41l-64 -252q-22 -78 -6 -107t96 -38v-35h-405v35q90 9 120 34t50 107l268 1065q14 63 -8 87.5t-105 27.5v33l306 75h6l-238 -948h8l396 287q48 35 65.5 60t1 42.5t-72.5 24.5v35
h397zM471 -94q40 0 66 -27.5t26 -66.5q0 -53 -59 -123l-162 -203h-59l188 229h-12q-39 0 -64.5 24.5t-25.5 63.5q0 42 28.5 72.5t73.5 30.5z" />
    <glyph glyph-name="Lacute" unicode="&#x139;" horiz-adv-x="1214" 
d="M571 1542h-41l138 275h223v-7zM-37 0v35q124 12 171.5 50.5t76.5 156.5l238 948q29 111 0.5 150.5t-136.5 48.5v34h537v-34q-121 -9 -168 -46.5t-76 -150.5l-282 -1133h346q95 0 155.5 16t110 61.5t76.5 129.5t39 217h36v-483h-1124z" />
    <glyph glyph-name="lacute" unicode="&#x13a;" horiz-adv-x="536" 
d="M487 1542h-41l138 275h223v-7zM-49 0v35q91 9 119.5 34t52.5 113l262 1053q17 68 -4.5 93t-104.5 28v33l304 75h8l-324 -1284q-21 -82 -4 -109t96 -36v-35h-405z" />
    <glyph glyph-name="uni013B" unicode="&#x13b;" horiz-adv-x="1214" 
d="M1051 483h36v-483h-1124v35q124 12 171.5 50.5t76.5 156.5l238 948q29 111 0.5 150.5t-136.5 48.5v34h537v-34q-121 -9 -168 -46.5t-76 -150.5l-282 -1133h346q95 0 155.5 16t110 61.5t76.5 129.5t39 217zM537 -94q40 0 66 -27.5t26 -66.5q0 -52 -60 -123l-161 -203h-60
l189 229h-13q-39 0 -64.5 24.5t-25.5 63.5q0 42 28.5 72.5t74.5 30.5z" />
    <glyph glyph-name="uni013C" unicode="&#x13c;" horiz-adv-x="536" 
d="M588 1464l-324 -1284q-21 -82 -4 -109t96 -36v-35h-405v35q91 9 119.5 34t52.5 113l262 1053q17 68 -4.5 93t-104.5 28v33l304 75h8zM104 -94q39 0 65 -27.5t26 -66.5q0 -54 -58 -123l-162 -203h-59l188 229h-12q-40 0 -65 24t-25 64q0 42 28.5 72.5t73.5 30.5z" />
    <glyph glyph-name="Lcaron" unicode="&#x13d;" horiz-adv-x="1214" 
d="M1061 1442q39 0 63.5 -26t24.5 -64q0 -49 -55 -115l-154 -193h-57l178 218h-10q-37 0 -61.5 22.5t-24.5 58.5q0 40 26.5 69.5t69.5 29.5zM324 59h346q95 0 155.5 16t110 61.5t76.5 129.5t39 217h36v-483h-1124v35q124 12 171.5 50.5t76.5 156.5l238 948q29 111 0.5 150.5
t-136.5 48.5v34h537v-34q-121 -9 -168 -46.5t-76 -150.5z" />
    <glyph glyph-name="lcaron" unicode="&#x13e;" horiz-adv-x="536" 
d="M760 1473q39 0 63.5 -26.5t24.5 -64.5q0 -48 -55 -114l-154 -193h-57l178 217h-10q-37 0 -61.5 23t-24.5 59q0 40 26.5 69.5t69.5 29.5zM588 1464l-324 -1284q-21 -82 -4 -109t96 -36v-35h-405v35q91 9 119.5 34t52.5 113l262 1053q17 68 -4.5 93t-104.5 28v33l304 75h8z
" />
    <glyph glyph-name="Ldot" unicode="&#x13f;" horiz-adv-x="1214" 
d="M-37 0v35q124 12 171.5 50.5t76.5 156.5l238 948q29 111 0.5 150.5t-136.5 48.5v34h537v-34q-121 -9 -168 -46.5t-76 -150.5l-282 -1133h346q95 0 155.5 16t110 61.5t76.5 129.5t39 217h36v-483h-1124zM776 494q-47 0 -75.5 29.5t-28.5 76.5q0 54 38 91.5t91 37.5
q47 0 75.5 -29.5t28.5 -76.5q0 -55 -38 -92t-91 -37z" />
    <glyph glyph-name="ldot" unicode="&#x140;" horiz-adv-x="585" 
d="M-49 0v35q91 9 119.5 34t52.5 113l262 1053q17 68 -4.5 93t-104.5 28v33l304 75h8l-324 -1284q-21 -82 -4 -109t96 -36v-35h-405zM612 621q-46 0 -74 29.5t-28 76.5q0 54 37.5 91.5t91.5 37.5q46 0 75 -29.5t29 -76.5q0 -55 -38 -92t-93 -37z" />
    <glyph glyph-name="Lslash" unicode="&#x141;" horiz-adv-x="1243" 
d="M1079 483h37v-483h-1122v35q124 12 171.5 50.5t76.5 156.5l69 274l-217 -106v69l236 117l149 594q27 111 -1.5 150.5t-135.5 48.5v34h539v-34q-121 -9 -169 -46.5t-75 -150.5l-127 -508l440 217v-70l-461 -227l-137 -545h346q63 0 109 6.5t88 24t71 47.5t52.5 77t38 113
t22.5 156z" />
    <glyph glyph-name="lslash" unicode="&#x142;" horiz-adv-x="632" 
d="M674 848l-213 -107l-142 -561q-21 -82 -4.5 -109t97.5 -36v-35h-408v35q92 9 121 34t51 113l121 480l-203 -101v66l221 108l125 500q15 69 -6.5 93.5t-103.5 27.5v33l305 75h6l-162 -647l195 96v-65z" />
    <glyph glyph-name="Nacute" unicode="&#x143;" horiz-adv-x="1556" 
d="M981 1542h-41l137 275h223v-7zM-43 0v35q123 12 172 50t76 148l250 1014l-90 170v6h194l612 -1169h7l233 936q27 110 1 148.5t-134 50.5v34h446v-34q-121 -12 -169 -51t-76 -148l-301 -1200h-48l-620 1179h-8l-232 -936q-27 -111 0 -148.5t136 -49.5v-35h-449z" />
    <glyph glyph-name="nacute" unicode="&#x144;" horiz-adv-x="1165" 
d="M702 1122h-38l137 275h221v-6zM139 170l144 573q18 69 -3.5 95t-107.5 30v33l305 76h8l-47 -184h6q159 194 338 194q129 0 202 -103.5t32 -265.5l-113 -452q-21 -70 -3.5 -96t97.5 -35v-35h-403v35q85 9 116.5 36t53.5 107l110 449q30 119 -15.5 188.5t-137.5 69.5
q-146 0 -303 -176l-137 -549q-17 -68 2 -92.5t90 -32.5v-35h-402v35q87 7 117 32t51 103z" />
    <glyph glyph-name="uni0145" unicode="&#x145;" horiz-adv-x="1556" 
d="M1278 1389v34h446v-34q-121 -12 -169 -51t-76 -148l-301 -1200h-48l-620 1179h-8l-232 -936q-27 -111 0 -148.5t136 -49.5v-35h-449v35q123 12 172 50t76 148l250 1014l-90 170v6h194l612 -1169h7l233 936q27 110 1 148.5t-134 50.5zM690 -94q40 0 66 -27.5t26 -66.5
q0 -53 -59 -123l-162 -203h-59l188 229h-12q-39 0 -64.5 24.5t-25.5 63.5q0 42 28.5 72.5t73.5 30.5z" />
    <glyph glyph-name="uni0146" unicode="&#x146;" horiz-adv-x="1165" 
d="M1016 618l-113 -452q-21 -70 -3.5 -96t97.5 -35v-35h-403v35q85 9 116.5 36t53.5 107l110 449q30 119 -15.5 188.5t-137.5 69.5q-146 0 -303 -176l-137 -549q-17 -68 2 -92.5t90 -32.5v-35h-402v35q87 7 117 32t51 103l144 573q18 69 -3.5 95t-107.5 30v33l305 76h8
l-47 -184h6q159 194 338 194q129 0 202 -103.5t32 -265.5zM471 -94q40 0 66 -27.5t26 -66.5q0 -53 -59 -123l-162 -203h-59l188 229h-12q-39 0 -64.5 24.5t-25.5 63.5q0 42 28.5 72.5t73.5 30.5z" />
    <glyph glyph-name="Ncaron" unicode="&#x147;" horiz-adv-x="1556" 
d="M1294 1819l47 -7l-309 -276h-41l-180 279l41 4l182 -131zM-43 0v35q123 12 172 50t76 148l250 1014l-90 170v6h194l612 -1169h7l233 936q27 110 1 148.5t-134 50.5v34h446v-34q-121 -12 -169 -51t-76 -148l-301 -1200h-48l-620 1179h-8l-232 -936q-27 -111 0 -148.5
t136 -49.5v-35h-449z" />
    <glyph glyph-name="ncaron" unicode="&#x148;" horiz-adv-x="1165" 
d="M1032 1397l47 -4l-309 -277h-41l-180 277l43 4l180 -129zM139 170l144 573q18 69 -3.5 95t-107.5 30v33l305 76h8l-47 -184h6q159 194 338 194q129 0 202 -103.5t32 -265.5l-113 -452q-21 -70 -3.5 -96t97.5 -35v-35h-403v35q85 9 116.5 36t53.5 107l110 449
q30 119 -15.5 188.5t-137.5 69.5q-146 0 -303 -176l-137 -549q-17 -68 2 -92.5t90 -32.5v-35h-402v35q87 7 117 32t51 103z" />
    <glyph glyph-name="Eng" unicode="&#x14a;" horiz-adv-x="1556" 
d="M795 -434q-92 0 -172 39l18 39q63 -23 121 -23q167 0 219 199l57 231l-530 1104h-8l-230 -917q-27 -114 -0.5 -152.5t136.5 -50.5v-35h-449v35q124 12 172 51t76 152l250 1001l-90 178v6h192l596 -1235h8l250 1002q27 110 1 148.5t-134 50.5v34h448v-34
q-122 -12 -171 -50t-76 -149l-336 -1346q-69 -278 -348 -278z" />
    <glyph glyph-name="eng" unicode="&#x14b;" horiz-adv-x="1140" 
d="M489 -434q-91 0 -161 39l18 39q58 -23 119 -23q86 0 139 49t80 158l199 797q30 120 -15 190t-137 70q-148 0 -305 -176l-135 -549q-19 -68 0.5 -92.5t93.5 -32.5v-35h-405v35q87 7 117.5 32.5t49.5 102.5l144 573q19 69 -2.5 95t-106.5 30v33l305 76h7l-48 -184h9
q159 194 336 194q84 0 147 -45t88.5 -127t-0.5 -197l-195 -772q-33 -133 -120 -206.5t-222 -73.5z" />
    <glyph glyph-name="Omacron" unicode="&#x14c;" horiz-adv-x="1607" 
d="M756 1622h575v66h-575v-66zM748 -20q-264 0 -430 168t-166 432q0 133 40 261.5t115 236.5t175.5 190.5t229.5 129t269 46.5q172 0 307 -76.5t210 -213.5t75 -310q0 -167 -63 -324.5t-171 -276.5t-263 -191t-328 -72zM752 43q113 0 216 49t179 132.5t132.5 189.5t85 223.5
t28.5 232.5q0 235 -112 372.5t-304 137.5q-96 0 -184.5 -35t-158.5 -95t-127.5 -141t-95.5 -173t-58.5 -190.5t-20.5 -194.5q0 -236 113 -372t307 -136z" />
    <glyph glyph-name="omacron" unicode="&#x14d;" horiz-adv-x="1126" 
d="M434 1206h576v64h-576v-64zM481 -20q-179 0 -288 111.5t-109 289.5q0 162 72.5 300.5t203 222t287.5 83.5q179 0 289.5 -111.5t110.5 -289.5q0 -162 -73 -300.5t-204 -222t-289 -83.5zM483 41q91 0 169 52.5t128 136.5t78.5 185.5t28.5 202.5q0 142 -65.5 225t-176.5 83
q-90 0 -167.5 -52.5t-127.5 -137t-78 -186t-28 -202.5q0 -144 64 -225.5t175 -81.5z" />
    <glyph glyph-name="Obreve" unicode="&#x14e;" horiz-adv-x="1607" 
d="M1032 1542q-102 0 -151.5 75.5t-26.5 199.5h43q-10 -76 29 -119t116 -43q83 0 141.5 42.5t86.5 119.5h43q-28 -128 -102 -201.5t-179 -73.5zM748 -20q-264 0 -430 168t-166 432q0 133 40 261.5t115 236.5t175.5 190.5t229.5 129t269 46.5q172 0 307 -76.5t210 -213.5
t75 -310q0 -167 -63 -324.5t-171 -276.5t-263 -191t-328 -72zM752 43q113 0 216 49t179 132.5t132.5 189.5t85 223.5t28.5 232.5q0 235 -112 372.5t-304 137.5q-96 0 -184.5 -35t-158.5 -95t-127.5 -141t-95.5 -173t-58.5 -190.5t-20.5 -194.5q0 -236 113 -372t307 -136z
" />
    <glyph glyph-name="obreve" unicode="&#x14f;" horiz-adv-x="1126" 
d="M702 1122q-103 0 -153 75.5t-25 199.5h41q-10 -76 29.5 -120t116.5 -44q83 0 141 43t86 121h43q-28 -129 -101 -202t-178 -73zM481 -20q-179 0 -288 111.5t-109 289.5q0 162 72.5 300.5t203 222t287.5 83.5q179 0 289.5 -111.5t110.5 -289.5q0 -162 -73 -300.5t-204 -222
t-289 -83.5zM483 41q91 0 169 52.5t128 136.5t78.5 185.5t28.5 202.5q0 142 -65.5 225t-176.5 83q-90 0 -167.5 -52.5t-127.5 -137t-78 -186t-28 -202.5q0 -144 64 -225.5t175 -81.5z" />
    <glyph glyph-name="Ohungarumlaut" unicode="&#x150;" horiz-adv-x="1607" 
d="M854 1542h-31l131 275h197v-7zM1126 1542h-30l129 275h198v-7zM748 -20q-264 0 -430 168t-166 432q0 133 40 261.5t115 236.5t175.5 190.5t229.5 129t269 46.5q172 0 307 -76.5t210 -213.5t75 -310q0 -167 -63 -324.5t-171 -276.5t-263 -191t-328 -72zM752 43
q113 0 216 49t179 132.5t132.5 189.5t85 223.5t28.5 232.5q0 235 -112 372.5t-304 137.5q-96 0 -184.5 -35t-158.5 -95t-127.5 -141t-95.5 -173t-58.5 -190.5t-20.5 -194.5q0 -236 113 -372t307 -136z" />
    <glyph glyph-name="ohungarumlaut" unicode="&#x151;" horiz-adv-x="1126" 
d="M528 1122h-32l131 275h196v-6zM801 1122h-33l129 275h199v-6zM481 -20q-179 0 -288 111.5t-109 289.5q0 162 72.5 300.5t203 222t287.5 83.5q179 0 289.5 -111.5t110.5 -289.5q0 -162 -73 -300.5t-204 -222t-289 -83.5zM483 41q91 0 169 52.5t128 136.5t78.5 185.5
t28.5 202.5q0 142 -65.5 225t-176.5 83q-90 0 -167.5 -52.5t-127.5 -137t-78 -186t-28 -202.5q0 -144 64 -225.5t175 -81.5z" />
    <glyph glyph-name="OE" unicode="&#x152;" horiz-adv-x="1882" 
d="M1716 0h-934q-185 0 -327.5 71.5t-222.5 207.5t-80 317q0 165 68.5 317t187 264t287 179t358.5 67h864v-344h-35q-8 76 -27 127.5t-57 88t-97.5 53t-146.5 16.5h-274l-154 -612h123q128 0 184.5 51t65.5 162h35v-486h-35q-9 111 -64.5 162t-183.5 51h-139l-160 -633h373
q171 0 253.5 80t102.5 285h35v-424zM770 59h25l327 1305h-78q-127 0 -240.5 -43t-198 -117.5t-146.5 -173t-93.5 -212.5t-31.5 -232q0 -245 119.5 -386t316.5 -141z" />
    <glyph glyph-name="oe" unicode="&#x153;" horiz-adv-x="1806" 
d="M1415 987q167 0 252 -107.5t55 -261.5l-6 -30h-663q-17 -77 -17 -135q0 -167 85 -260t220 -93q178 0 316 138l29 -25q-169 -233 -404 -233q-118 0 -210 63t-138 172h-8q-78 -110 -194 -172.5t-251 -62.5q-179 0 -288 111.5t-109 289.5q0 162 72.5 300.5t203 222
t287.5 83.5q126 0 219.5 -58.5t139.5 -162.5h8q70 102 173 161.5t228 59.5zM1069 645h514q24 121 -23.5 202t-156.5 81q-115 0 -203.5 -79.5t-130.5 -203.5zM483 41q90 0 168 52.5t128.5 136.5t79 185.5t28.5 202.5q0 142 -65.5 225t-176.5 83q-90 0 -167.5 -52.5
t-127.5 -137t-78 -186t-28 -202.5q0 -144 64 -225.5t175 -81.5z" />
    <glyph glyph-name="Racute" unicode="&#x154;" horiz-adv-x="1337" 
d="M1163 1817v-7l-319 -268h-41l137 275h223zM1296 1110q0 -170 -159.5 -274t-411.5 -107l528 -723v-6h-184l-518 731h-55l-125 -500q-28 -109 -1.5 -147.5t136.5 -48.5v-35h-539v35q122 9 169.5 46t76.5 152l238 953q30 109 3.5 151.5t-139.5 51.5v34h500q217 0 349 -84.5
t132 -228.5zM653 1364l-145 -580h164q204 0 330 90t126 246q0 118 -87 181t-246 63h-142z" />
    <glyph glyph-name="racute" unicode="&#x155;" horiz-adv-x="772" 
d="M537 1122h-39l137 275h221v-6zM139 170l144 571q18 72 -5 97t-106 30v33l303 76h8l-75 -303h8q77 158 158 235.5t186 77.5q34 0 67 -10v-148q-41 13 -86 13q-199 0 -362 -291l-96 -385q-20 -75 -1 -99.5t109 -31.5v-35h-422v35q87 7 119 33t51 102z" />
    <glyph glyph-name="uni0156" unicode="&#x156;" horiz-adv-x="1337" 
d="M1296 1110q0 -170 -159.5 -274t-411.5 -107l528 -723v-6h-184l-518 731h-55l-125 -500q-28 -109 -1.5 -147.5t136.5 -48.5v-35h-539v35q122 9 169.5 46t76.5 152l238 953q30 109 3.5 151.5t-139.5 51.5v34h500q217 0 349 -84.5t132 -228.5zM653 1364l-145 -580h164
q204 0 330 90t126 246q0 118 -87 181t-246 63h-142zM664 -94q40 0 66 -27.5t26 -66.5q0 -52 -60 -123l-161 -203h-60l189 229h-13q-39 0 -64.5 24.5t-25.5 63.5q0 42 28.5 72.5t74.5 30.5z" />
    <glyph glyph-name="uni0157" unicode="&#x157;" horiz-adv-x="772" 
d="M760 987q34 0 67 -10v-148q-41 13 -86 13q-199 0 -362 -291l-96 -385q-20 -75 -1 -99.5t109 -31.5v-35h-422v35q87 7 119 33t51 102l144 571q18 72 -5 97t-106 30v33l303 76h8l-75 -303h8q77 158 158 235.5t186 77.5zM129 -94q40 0 66 -27.5t26 -66.5q0 -53 -59 -123
l-162 -203h-59l188 229h-12q-39 0 -64.5 24.5t-25.5 63.5q0 42 28.5 72.5t73.5 30.5z" />
    <glyph glyph-name="Rcaron" unicode="&#x158;" horiz-adv-x="1337" 
d="M1202 1812l-309 -276h-41l-180 279l41 4l182 -131l260 131zM1296 1110q0 -170 -159.5 -274t-411.5 -107l528 -723v-6h-184l-518 731h-55l-125 -500q-28 -109 -1.5 -147.5t136.5 -48.5v-35h-539v35q122 9 169.5 46t76.5 152l238 953q30 109 3.5 151.5t-139.5 51.5v34h500
q217 0 349 -84.5t132 -228.5zM653 1364l-145 -580h164q204 0 330 90t126 246q0 118 -87 181t-246 63h-142z" />
    <glyph glyph-name="rcaron" unicode="&#x159;" horiz-adv-x="772" 
d="M866 1397l47 -4l-309 -277h-41l-180 277l43 4l180 -129zM139 170l144 571q18 72 -5 97t-106 30v33l303 76h8l-75 -303h8q77 158 158 235.5t186 77.5q34 0 67 -10v-148q-41 13 -86 13q-199 0 -362 -291l-96 -385q-20 -75 -1 -99.5t109 -31.5v-35h-422v35q87 7 119 33
t51 102z" />
    <glyph glyph-name="Sacute" unicode="&#x15a;" horiz-adv-x="1114" 
d="M735 1542h-41l137 275h224v-7zM520 -20q-244 0 -442 137v329h35q56 -210 163.5 -307.5t249.5 -97.5q130 0 222 75.5t92 198.5q0 86 -46.5 146.5t-146.5 128.5l-143 98q-105 71 -160 156.5t-55 197.5q0 177 131.5 289.5t333.5 112.5q100 0 200 -27t174 -71v-316h-34
q-87 352 -359 352q-131 0 -219 -77.5t-88 -196.5q0 -89 41 -149.5t133 -122.5l156 -105q111 -74 168 -154.5t57 -191.5q0 -124 -65 -217.5t-169 -140.5t-229 -47z" />
    <glyph glyph-name="sacute" unicode="&#x15b;" horiz-adv-x="841" 
d="M489 1122h-38l137 275h221v-6zM344 -20q-171 0 -307 92v215h35q82 -250 286 -250q84 0 142.5 45t58.5 125q0 53 -28.5 90.5t-94.5 83.5l-106 76q-76 57 -112 114.5t-36 130.5q0 118 95 201.5t247 83.5q140 0 267 -67v-207h-35q-28 102 -92 158.5t-160 56.5
q-83 0 -144 -45t-61 -123q0 -51 26.5 -88t94.5 -88l110 -76q80 -57 118 -112t38 -132q0 -123 -99 -203.5t-243 -80.5z" />
    <glyph glyph-name="Scircumflex" unicode="&#x15c;" horiz-adv-x="1114" 
d="M557 1540l-47 4l309 279h41l178 -279l-41 -4l-180 131zM520 -20q-244 0 -442 137v329h35q56 -210 163.5 -307.5t249.5 -97.5q130 0 222 75.5t92 198.5q0 86 -46.5 146.5t-146.5 128.5l-143 98q-105 71 -160 156.5t-55 197.5q0 177 131.5 289.5t333.5 112.5q100 0 200 -27
t174 -71v-316h-34q-87 352 -359 352q-131 0 -219 -77.5t-88 -196.5q0 -89 41 -149.5t133 -122.5l156 -105q111 -74 168 -154.5t57 -191.5q0 -124 -65 -217.5t-169 -140.5t-229 -47z" />
    <glyph glyph-name="scircumflex" unicode="&#x15d;" horiz-adv-x="841" 
d="M324 1120l-50 4l312 277h41l178 -277l-41 -4l-182 129zM344 -20q-171 0 -307 92v215h35q82 -250 286 -250q84 0 142.5 45t58.5 125q0 53 -28.5 90.5t-94.5 83.5l-106 76q-76 57 -112 114.5t-36 130.5q0 118 95 201.5t247 83.5q140 0 267 -67v-207h-35q-28 102 -92 158.5
t-160 56.5q-83 0 -144 -45t-61 -123q0 -51 26.5 -88t94.5 -88l110 -76q80 -57 118 -112t38 -132q0 -123 -99 -203.5t-243 -80.5z" />
    <glyph glyph-name="Scedilla" unicode="&#x15e;" horiz-adv-x="1114" 
d="M754 1444q100 0 200 -27t174 -71v-316h-34q-87 352 -359 352q-131 0 -219 -77.5t-88 -196.5q0 -89 41 -149.5t133 -122.5l156 -105q111 -74 168 -154.5t57 -191.5q0 -120 -61 -212t-158.5 -140t-216.5 -53l-66 -97l4 -2q26 13 54 13q55 0 90 -35.5t35 -89.5
q0 -79 -62 -131t-151 -52q-130 0 -203 111l24 24q66 -69 148 -69q62 0 104.5 31t42.5 81q0 37 -25.5 57.5t-62.5 20.5q-40 0 -80 -24l-8 2l103 160q-231 9 -416 137v329h35q56 -210 163.5 -307.5t249.5 -97.5q130 0 222 75.5t92 198.5q0 86 -46.5 146.5t-146.5 128.5
l-143 98q-105 71 -160 156.5t-55 197.5q0 177 131.5 289.5t333.5 112.5z" />
    <glyph glyph-name="scedilla" unicode="&#x15f;" horiz-adv-x="841" 
d="M524 987q140 0 267 -67v-207h-35q-28 102 -92 158.5t-160 56.5q-83 0 -144 -45t-61 -123q0 -51 26.5 -88t94.5 -88l110 -76q80 -57 118 -112t38 -132q0 -118 -90.5 -197t-226.5 -87l-66 -97l4 -2q26 13 53 13q55 0 90 -35.5t35 -89.5q0 -79 -62 -131t-151 -52
q-129 0 -202 111l24 24q66 -69 148 -69q62 0 104.5 31t42.5 81q0 37 -25.5 57.5t-62.5 20.5q-40 0 -80 -24l-8 2l102 160q-156 9 -278 92v215h35q82 -250 286 -250q84 0 142.5 45t58.5 125q0 53 -28.5 90.5t-94.5 83.5l-106 76q-76 57 -112 114.5t-36 130.5q0 118 95 201.5
t247 83.5z" />
    <glyph glyph-name="Scaron" unicode="&#x160;" horiz-adv-x="1114" 
d="M1049 1819l47 -7l-310 -276h-41l-180 279l41 4l182 -131zM520 -20q-244 0 -442 137v329h35q56 -210 163.5 -307.5t249.5 -97.5q130 0 222 75.5t92 198.5q0 86 -46.5 146.5t-146.5 128.5l-143 98q-105 71 -160 156.5t-55 197.5q0 177 131.5 289.5t333.5 112.5
q100 0 200 -27t174 -71v-316h-34q-87 352 -359 352q-131 0 -219 -77.5t-88 -196.5q0 -89 41 -149.5t133 -122.5l156 -105q111 -74 168 -154.5t57 -191.5q0 -124 -65 -217.5t-169 -140.5t-229 -47z" />
    <glyph glyph-name="scaron" unicode="&#x161;" horiz-adv-x="841" 
d="M821 1397l47 -4l-309 -277h-41l-180 277l43 4l180 -129zM344 -20q-171 0 -307 92v215h35q82 -250 286 -250q84 0 142.5 45t58.5 125q0 53 -28.5 90.5t-94.5 83.5l-106 76q-76 57 -112 114.5t-36 130.5q0 118 95 201.5t247 83.5q140 0 267 -67v-207h-35q-28 102 -92 158.5
t-160 56.5q-83 0 -144 -45t-61 -123q0 -51 26.5 -88t94.5 -88l110 -76q80 -57 118 -112t38 -132q0 -123 -99 -203.5t-243 -80.5z" />
    <glyph glyph-name="uni0162" unicode="&#x162;" horiz-adv-x="1286" 
d="M248 1059v364h1169v-364h-37q-21 162 -104 234.5t-260 72.5h-72l-282 -1124q-28 -116 4 -156.5t161 -50.5v-35h-278l-78 -117l4 -2q26 13 53 13q55 0 90 -35.5t35 -89.5q0 -79 -62 -131t-151 -52q-129 0 -202 111l24 24q66 -69 148 -69q62 0 104.5 31t42.5 81
q0 37 -25.5 57.5t-62.5 20.5q-40 0 -80 -24l-8 2l115 180h-263v35q137 11 190.5 51.5t82.5 157.5l280 1122h-141q-179 0 -260 -72t-100 -235h-37z" />
    <glyph glyph-name="uni0163" unicode="&#x163;" horiz-adv-x="675" 
d="M733 901h-278l-174 -694q-20 -76 8.5 -113t95.5 -37q81 0 158 39l18 -30q-122 -86 -235 -86q-40 0 -64 8l-69 -105l4 -2q26 13 53 13q55 0 90 -35.5t35 -89.5q0 -79 -62 -131t-151 -52q-130 0 -203 111l25 24q66 -69 147 -69q62 0 105 31t43 81q0 37 -26 57.5t-63 20.5
q-39 0 -79 -24l-9 2l117 184q-55 30 -75 90.5t1 147.5l166 659h-192v37q122 37 200.5 96t157.5 164h51l-59 -233h264v-64z" />
    <glyph glyph-name="Tcaron" unicode="&#x164;" horiz-adv-x="1286" 
d="M1176 1819l47 -7l-310 -276h-41l-180 279l41 4l182 -131zM233 0v35q137 11 190.5 51.5t82.5 157.5l280 1122h-141q-179 0 -260 -72t-100 -235h-37v364h1169v-364h-37q-21 162 -104 234.5t-260 72.5h-72l-282 -1124q-28 -116 4 -156.5t161 -50.5v-35h-594z" />
    <glyph glyph-name="tcaron" unicode="&#x165;" horiz-adv-x="675" 
d="M786 1473q39 0 63.5 -26.5t24.5 -64.5q0 -48 -55 -114l-153 -193h-58l178 217h-10q-37 0 -61.5 23t-24.5 59q0 40 26.5 69.5t69.5 29.5zM477 1198h51l-59 -233h264v-64h-278l-174 -694q-20 -76 8.5 -113t95.5 -37q81 0 158 39l18 -30q-122 -86 -235 -86q-110 0 -160 71
t-21 191l166 659h-192v37q122 37 200.5 96t157.5 164z" />
    <glyph glyph-name="Tbar" unicode="&#x166;" horiz-adv-x="1286" 
d="M248 1059v364h1169v-364h-37q-21 162 -104 234.5t-260 72.5h-72l-143 -571h270v-58h-285l-124 -495q-28 -116 4 -156.5t161 -50.5v-35h-594v35q137 11 190.5 51.5t82.5 157.5l123 493h-271v58h285l143 571h-141q-179 0 -260 -72t-100 -235h-37z" />
    <glyph glyph-name="tbar" unicode="&#x167;" horiz-adv-x="694" 
d="M745 965v-64h-280l-84 -332h266v-55h-278l-78 -307q-18 -76 9.5 -113t94.5 -37q81 0 158 39l18 -30q-122 -86 -235 -86q-110 0 -159.5 71t-20.5 191l67 272h-164v55h179l84 332h-193v37q123 37 202 96t158 164h50l-58 -233h264z" />
    <glyph glyph-name="Utilde" unicode="&#x168;" horiz-adv-x="1593" 
d="M1239 1561q-83 0 -147 61l-29 25q-27 26 -47 34.5t-51 8.5q-45 0 -78 -29.5t-60 -97.5l-41 4q28 110 82.5 164.5t124.5 54.5q77 0 146 -60l30 -26q28 -25 48.5 -34t48.5 -9q46 0 78.5 29.5t58.5 97.5l43 -4q-28 -111 -82 -165t-125 -54zM725 -20q-170 0 -288 76
t-161 211.5t0 322.5l150 596q27 114 0.5 152.5t-137.5 50.5v34h540v-34q-65 -7 -102 -17t-66.5 -32.5t-46 -57.5t-30.5 -94l-152 -606q-56 -227 36 -359.5t294 -132.5t340 126.5t194 354.5l154 617q12 48 14.5 79.5t-3.5 54t-25.5 35t-46.5 20t-72 12.5v34h448v-34
q-123 -12 -171.5 -49.5t-75.5 -149.5l-158 -629q-67 -273 -227 -427t-408 -154z" />
    <glyph glyph-name="utilde" unicode="&#x169;" horiz-adv-x="1114" 
d="M846 1141q-81 0 -146 59l-28 27q-28 25 -49 34t-50 9q-45 0 -78 -29.5t-59 -97.5l-41 4q27 110 81 164.5t126 54.5q75 0 146 -59l28 -27q29 -25 49.5 -34t46.5 -9q48 0 81 29.5t59 97.5l43 -4q-28 -111 -82 -165t-127 -54zM365 -20q-120 0 -187.5 100t-30.5 250l105 413
q16 68 -4 94t-107 29v33l303 76h9l-164 -656q-27 -111 12 -175t127 -64q133 0 289 180l121 479q11 43 9 70.5t-29.5 41t-90.5 15.5v33l305 76h8l-190 -760q-21 -72 -4 -95t98 -26v-33l-289 -73h-6l45 186h-6q-145 -194 -323 -194z" />
    <glyph glyph-name="Umacron" unicode="&#x16a;" horiz-adv-x="1593" 
d="M817 1622h576v66h-576v-66zM725 -20q-170 0 -288 76t-161 211.5t0 322.5l150 596q27 114 0.5 152.5t-137.5 50.5v34h540v-34q-65 -7 -102 -17t-66.5 -32.5t-46 -57.5t-30.5 -94l-152 -606q-56 -227 36 -359.5t294 -132.5t340 126.5t194 354.5l154 617q12 48 14.5 79.5
t-3.5 54t-25.5 35t-46.5 20t-72 12.5v34h448v-34q-123 -12 -171.5 -49.5t-75.5 -149.5l-158 -629q-67 -273 -227 -427t-408 -154z" />
    <glyph glyph-name="umacron" unicode="&#x16b;" horiz-adv-x="1114" 
d="M428 1206h576v64h-576v-64zM365 -20q-120 0 -187.5 100t-30.5 250l105 413q16 68 -4 94t-107 29v33l303 76h9l-164 -656q-27 -111 12 -175t127 -64q133 0 289 180l121 479q11 43 9 70.5t-29.5 41t-90.5 15.5v33l305 76h8l-190 -760q-21 -72 -4 -95t98 -26v-33l-289 -73
h-6l45 186h-6q-145 -194 -323 -194z" />
    <glyph glyph-name="Ubreve" unicode="&#x16c;" horiz-adv-x="1593" 
d="M1094 1542q-102 0 -152 75.5t-27 199.5h43q-10 -76 29.5 -119t116.5 -43q83 0 141 42.5t86 119.5h43q-28 -129 -101.5 -202t-178.5 -73zM725 -20q-170 0 -288 76t-161 211.5t0 322.5l150 596q27 114 0.5 152.5t-137.5 50.5v34h540v-34q-65 -7 -102 -17t-66.5 -32.5
t-46 -57.5t-30.5 -94l-152 -606q-56 -227 36 -359.5t294 -132.5t340 126.5t194 354.5l154 617q12 48 14.5 79.5t-3.5 54t-25.5 35t-46.5 20t-72 12.5v34h448v-34q-123 -12 -171.5 -49.5t-75.5 -149.5l-158 -629q-67 -273 -227 -427t-408 -154z" />
    <glyph glyph-name="ubreve" unicode="&#x16d;" horiz-adv-x="1114" 
d="M696 1122q-103 0 -153 75.5t-25 199.5h41q-10 -76 29.5 -120t116.5 -44q83 0 141 43t86 121h43q-28 -129 -101 -202t-178 -73zM365 -20q-120 0 -187.5 100t-30.5 250l105 413q16 68 -4 94t-107 29v33l303 76h9l-164 -656q-27 -111 12 -175t127 -64q133 0 289 180l121 479
q11 43 9 70.5t-29.5 41t-90.5 15.5v33l305 76h8l-190 -760q-21 -72 -4 -95t98 -26v-33l-289 -73h-6l45 186h-6q-145 -194 -323 -194z" />
    <glyph glyph-name="Uring" unicode="&#x16e;" horiz-adv-x="1593" 
d="M1102 1505q-74 0 -125 51.5t-51 124.5t51 123.5t125 50.5t125 -50.5t51 -123.5t-51 -124.5t-125 -51.5zM1102 1559q50 0 83.5 34.5t33.5 87.5q0 52 -33.5 86.5t-83.5 34.5t-83.5 -34.5t-33.5 -86.5q0 -53 33.5 -87.5t83.5 -34.5zM725 -20q-170 0 -288 76t-161 211.5
t0 322.5l150 596q27 114 0.5 152.5t-137.5 50.5v34h540v-34q-65 -7 -102 -17t-66.5 -32.5t-46 -57.5t-30.5 -94l-152 -606q-56 -227 36 -359.5t294 -132.5t340 126.5t194 354.5l154 617q12 48 14.5 79.5t-3.5 54t-25.5 35t-46.5 20t-72 12.5v34h448v-34
q-123 -12 -171.5 -49.5t-75.5 -149.5l-158 -629q-67 -273 -227 -427t-408 -154z" />
    <glyph glyph-name="uring" unicode="&#x16f;" horiz-adv-x="1114" 
d="M719 1083q-73 0 -123.5 51.5t-50.5 125.5t50.5 125t123.5 51q75 0 126.5 -51t51.5 -125t-51.5 -125.5t-126.5 -51.5zM719 1139q51 0 84 34t33 87q0 54 -33 88t-84 34q-50 0 -82.5 -34t-32.5 -88q0 -52 32.5 -86.5t82.5 -34.5zM365 -20q-120 0 -187.5 100t-30.5 250
l105 413q16 68 -4 94t-107 29v33l303 76h9l-164 -656q-27 -111 12 -175t127 -64q133 0 289 180l121 479q11 43 9 70.5t-29.5 41t-90.5 15.5v33l305 76h8l-190 -760q-21 -72 -4 -95t98 -26v-33l-289 -73h-6l45 186h-6q-145 -194 -323 -194z" />
    <glyph glyph-name="Uhungarumlaut" unicode="&#x170;" horiz-adv-x="1593" 
d="M915 1542h-30l131 275h196v-7zM1188 1542h-31l129 275h199v-7zM725 -20q-170 0 -288 76t-161 211.5t0 322.5l150 596q27 114 0.5 152.5t-137.5 50.5v34h540v-34q-65 -7 -102 -17t-66.5 -32.5t-46 -57.5t-30.5 -94l-152 -606q-56 -227 36 -359.5t294 -132.5t340 126.5
t194 354.5l154 617q12 48 14.5 79.5t-3.5 54t-25.5 35t-46.5 20t-72 12.5v34h448v-34q-123 -12 -171.5 -49.5t-75.5 -149.5l-158 -629q-67 -273 -227 -427t-408 -154z" />
    <glyph glyph-name="uhungarumlaut" unicode="&#x171;" horiz-adv-x="1114" 
d="M524 1122h-32l131 275h196v-6zM797 1122h-33l129 275h199v-6zM365 -20q-120 0 -187.5 100t-30.5 250l105 413q16 68 -4 94t-107 29v33l303 76h9l-164 -656q-27 -111 12 -175t127 -64q133 0 289 180l121 479q11 43 9 70.5t-29.5 41t-90.5 15.5v33l305 76h8l-190 -760
q-21 -72 -4 -95t98 -26v-33l-289 -73h-6l45 186h-6q-145 -194 -323 -194z" />
    <glyph glyph-name="Uogonek" unicode="&#x172;" horiz-adv-x="1593" 
d="M635 -412q-70 0 -116 43t-46 111q0 73 57.5 133.5t165.5 101.5v7q-165 6 -276 84t-148 210.5t4 311.5l148 590q31 114 5 155.5t-140 53.5v34h540v-34q-125 -13 -172 -53.5t-75 -155.5l-150 -600q-56 -226 35.5 -358t292.5 -132q202 0 340 126t196 355l154 619
q28 109 2 148t-135 51v34h448v-34q-122 -12 -170.5 -51t-76.5 -148l-158 -629q-58 -232 -180 -377.5t-301 -187.5q-161 -38 -236.5 -99.5t-75.5 -136.5q0 -47 29 -76.5t76 -29.5q66 0 125 59l24 -22q-76 -103 -186 -103z" />
    <glyph glyph-name="uogonek" unicode="&#x173;" horiz-adv-x="1114" 
d="M1040 975l-190 -760q-21 -72 -4 -95t98 -26v-33l-164 -47q-135 -38 -210.5 -104.5t-75.5 -142.5q0 -49 27.5 -81t76.5 -32q65 0 127 59l23 -22q-77 -103 -185 -103q-73 0 -118.5 45t-45.5 115q0 81 68 148.5t186 111.5l41 166h-6q-148 -194 -326 -194q-119 0 -185.5 100
t-29.5 250l105 413q16 69 -4.5 94.5t-106.5 28.5v33l303 76h9l-164 -656q-27 -111 12 -175t127 -64q71 0 141 45t148 135l121 479q10 42 8.5 69.5t-29 41.5t-90.5 16v33l305 76h8z" />
    <glyph glyph-name="Wcircumflex" unicode="&#x174;" horiz-adv-x="2011" 
d="M1032 1540l-47 4l309 279h41l178 -279l-40 -4l-181 131zM465 -10l-70 1192q-6 98 -35.5 141.5t-117.5 65.5v34h520v-34q-77 -9 -122.5 -24.5t-66 -43t-25 -55t-1.5 -76.5l51 -922h8l553 930l-16 225h157l80 -1149h9l499 889q20 36 30.5 57t20.5 46t9.5 39t-5.5 29
t-20.5 24t-39.5 17t-60 14v34h413v-34q-56 -11 -95.5 -28.5t-71.5 -47.5t-54.5 -62t-54.5 -88l-662 -1173h-47l-77 1093h-9l-653 -1093h-47z" />
    <glyph glyph-name="wcircumflex" unicode="&#x175;" horiz-adv-x="1540" 
d="M700 1120l-49 4l312 277h41l178 -277l-41 -4l-183 129zM475 227h8l334 547l-22 191h141l84 -744h8l332 543q50 76 39.5 115.5t-94.5 52.5v33h340v-33q-85 -14 -129.5 -52.5t-94.5 -123.5l-471 -766h-39l-77 696h-9l-426 -696h-37l-83 762q-7 72 -45 97t-138 30v32l297 74
l2 -27q3 -25 12 -104t15 -125z" />
    <glyph glyph-name="Ycircumflex" unicode="&#x176;" horiz-adv-x="1423" 
d="M1198 1540l-180 131l-260 -131l-47 4l309 279h41l178 -279zM1221 1389v34h421v-34q-97 -16 -159.5 -60t-136.5 -129l-521 -592l-94 -377q-11 -46 -13 -77.5t4.5 -53t26.5 -34.5t46.5 -20t70.5 -11v-35h-536v35q121 12 168.5 49t74.5 147l93 363l-228 616q-30 83 -66 124
t-114 55v34h526v-34q-98 -11 -144 -37t-48 -65.5t16 -92.5l187 -516h6l461 522q38 42 55.5 71.5t16.5 54t-29 39.5t-84 24z" />
    <glyph glyph-name="ycircumflex" unicode="&#x177;" horiz-adv-x="1050" 
d="M885 1120l-183 129l-258 -129l-49 4l312 277h41l178 -277zM815 932v33h342v-33q-88 -16 -133 -54.5t-96 -123.5l-518 -885q-102 -178 -188.5 -240.5t-192.5 -62.5q-74 0 -131 26v144q68 -29 147 -29q99 0 183.5 50.5t158.5 176.5l45 76l-145 750q-13 69 -52.5 91.5
t-142.5 27.5v32l293 74l4 -16q6 -37 41 -217l102 -553h9l327 563q20 35 29 54.5t13.5 41t-4.5 34t-31 23t-60 17.5z" />
    <glyph glyph-name="Ydieresis" unicode="&#x178;" horiz-adv-x="1423" 
d="M825 1581q-41 0 -67.5 26.5t-26.5 67.5q0 50 35 85.5t86 35.5q41 0 67.5 -26t26.5 -66q0 -52 -35 -87.5t-86 -35.5zM1182 1581q-43 0 -70 26.5t-27 67.5q0 50 36 85.5t87 35.5q41 0 68 -26t27 -66q0 -52 -35 -87.5t-86 -35.5zM1221 1389v34h421v-34q-97 -16 -159.5 -60
t-136.5 -129l-521 -592l-94 -377q-11 -46 -13 -77.5t4.5 -53t26.5 -34.5t46.5 -20t70.5 -11v-35h-536v35q121 12 168.5 49t74.5 147l93 363l-228 616q-30 83 -66 124t-114 55v34h526v-34q-98 -11 -144 -37t-48 -65.5t16 -92.5l187 -516h6l461 522q38 42 55.5 71.5t16.5 54
t-29 39.5t-84 24z" />
    <glyph glyph-name="Zacute" unicode="&#x179;" horiz-adv-x="1241" 
d="M803 1542h-41l137 275h223v-7zM1059 0h-1084v37l1164 1321v6h-469q-158 0 -237 -74.5t-105 -245.5h-35v379h1073v-37l-1163 -1320v-7h454q87 0 147.5 17.5t106 60.5t72.5 114t41 179h35v-430z" />
    <glyph glyph-name="zacute" unicode="&#x17a;" horiz-adv-x="946" 
d="M541 1122h-39l137 275h221v-6zM446 57h-268v9l772 866v33h-764v-258h35q25 114 85.5 158t191.5 44h241v-8l-772 -866v-35h805v315h-35q-30 -147 -95.5 -202.5t-195.5 -55.5z" />
    <glyph glyph-name="Zdotaccent" unicode="&#x17b;" horiz-adv-x="1241" 
d="M868 1579q-43 0 -70.5 27t-27.5 71q0 50 36.5 86.5t88.5 36.5q43 0 70.5 -26.5t27.5 -69.5q0 -52 -36.5 -88.5t-88.5 -36.5zM1059 0h-1084v37l1164 1321v6h-469q-158 0 -237 -74.5t-105 -245.5h-35v379h1073v-37l-1163 -1320v-7h454q87 0 147.5 17.5t106 60.5t72.5 114
t41 179h35v-430z" />
    <glyph glyph-name="zdotaccent" unicode="&#x17c;" horiz-adv-x="946" 
d="M623 1159q-43 0 -71 27t-28 71q0 51 37 88t90 37q41 0 69 -27.5t28 -68.5q0 -54 -36 -90.5t-89 -36.5zM446 57h-268v9l772 866v33h-764v-258h35q25 114 85.5 158t191.5 44h241v-8l-772 -866v-35h805v315h-35q-30 -147 -95.5 -202.5t-195.5 -55.5z" />
    <glyph glyph-name="Zcaron" unicode="&#x17d;" horiz-adv-x="1241" 
d="M1114 1819l47 -7l-309 -276h-41l-180 279l41 4l182 -131zM1059 0h-1084v37l1164 1321v6h-469q-158 0 -237 -74.5t-105 -245.5h-35v379h1073v-37l-1163 -1320v-7h454q87 0 147.5 17.5t106 60.5t72.5 114t41 179h35v-430z" />
    <glyph glyph-name="zcaron" unicode="&#x17e;" horiz-adv-x="946" 
d="M870 1397l48 -4l-310 -277h-41l-180 277l43 4l180 -129zM446 57h-268v9l772 866v33h-764v-258h35q25 114 85.5 158t191.5 44h241v-8l-772 -866v-35h805v315h-35q-30 -147 -95.5 -202.5t-195.5 -55.5z" />
    <glyph glyph-name="uni01E2" unicode="&#x1e2;" horiz-adv-x="1892" 
d="M1262 1688h575v-66h-575v66zM166 242l960 1181h799v-344h-35q-15 153 -87.5 219t-239.5 66h-275l-151 -612h116q129 0 186 50.5t66 162.5h37v-486h-37q-9 112 -65.5 162.5t-184.5 50.5h-135l-157 -633h370q171 0 254 80.5t103 284.5h34v-424h-1122v35q123 12 171 49.5
t75 148.5l61 250h-465l-208 -256q-36 -45 -50.5 -72.5t-12 -52.5t35 -40.5t96.5 -26.5v-35h-430v35q95 22 154.5 66.5t136.5 140.5zM496 547h430l188 753h-6z" />
    <glyph glyph-name="uni01E3" unicode="&#x1e3;" horiz-adv-x="1558" 
d="M625 1270h575v-64h-575v64zM1167 987q168 0 253 -108t55 -261l-7 -30h-663q-17 -77 -17 -135q0 -166 85 -259.5t221 -93.5q177 0 315 138l29 -25q-168 -233 -402 -233q-129 0 -225 73t-135 197h-8q-197 -270 -412 -270q-93 0 -154 58t-61 148q0 59 26 104.5t77 77.5
t109 54t138 41l260 63l27 107q29 117 -21.5 185.5t-160.5 68.5q-166 0 -322 -129l-24 30q203 199 405 199q90 0 155 -44t95 -122h8q146 166 354 166zM821 645h514q24 122 -24 202.5t-156 80.5q-114 0 -202.5 -79.5t-131.5 -203.5zM315 84q140 0 260 137l64 256l-188 -55
q-51 -15 -84 -27t-71 -30.5t-59.5 -38.5t-36 -49t-14.5 -64q0 -60 34 -94.5t95 -34.5z" />
    <glyph glyph-name="AEacute" unicode="&#x1fc;" horiz-adv-x="1892" 
d="M1798 1817v-7l-319 -268h-41l137 275h223zM166 242l960 1181h799v-344h-35q-15 153 -87.5 219t-239.5 66h-275l-151 -612h116q129 0 186 50.5t66 162.5h37v-486h-37q-9 112 -65.5 162.5t-184.5 50.5h-135l-157 -633h370q171 0 254 80.5t103 284.5h34v-424h-1122v35
q123 12 171 49.5t75 148.5l61 250h-465l-208 -256q-36 -45 -50.5 -72.5t-12 -52.5t35 -40.5t96.5 -26.5v-35h-430v35q95 22 154.5 66.5t136.5 140.5zM496 547h430l188 753h-6z" />
    <glyph glyph-name="aeacute" unicode="&#x1fd;" horiz-adv-x="1558" 
d="M1149 1397v-6l-320 -269h-38l137 275h221zM1167 987q168 0 253 -108t55 -261l-7 -30h-663q-17 -77 -17 -135q0 -166 85 -259.5t221 -93.5q177 0 315 138l29 -25q-168 -233 -402 -233q-129 0 -225 73t-135 197h-8q-197 -270 -412 -270q-93 0 -154 58t-61 148
q0 59 26 104.5t77 77.5t109 54t138 41l260 63l27 107q29 117 -21.5 185.5t-160.5 68.5q-166 0 -322 -129l-24 30q203 199 405 199q90 0 155 -44t95 -122h8q146 166 354 166zM821 645h514q24 122 -24 202.5t-156 80.5q-114 0 -202.5 -79.5t-131.5 -203.5zM315 84
q140 0 260 137l64 256l-188 -55q-51 -15 -84 -27t-71 -30.5t-59.5 -38.5t-36 -49t-14.5 -64q0 -60 34 -94.5t95 -34.5z" />
    <glyph glyph-name="Oslashacute" unicode="&#x1fe;" horiz-adv-x="1611" 
d="M1294 1817v-7l-319 -268h-41l137 275h223zM1634 1495l45 -45l-229 -219q127 -162 127 -387q0 -167 -63.5 -325t-172 -276.5t-263.5 -190.5t-328 -72q-263 0 -428 165l-226 -215l-43 43l228 220q-127 155 -127 387q0 133 40 262t115.5 236.5t176 190t229.5 129t268 46.5
q257 0 426 -166zM336 551q0 -151 47 -260l936 901q-112 188 -340 188q-114 0 -217 -49t-179.5 -132.5t-133 -190t-85 -224.5t-28.5 -233zM1397 870q0 151 -47 263l-938 -900q111 -190 342 -190q114 0 217 49t179.5 132.5t133 189.5t85 223.5t28.5 232.5z" />
    <glyph glyph-name="oslashacute" unicode="&#x1ff;" horiz-adv-x="1130" 
d="M958 1397v-6l-319 -269h-39l137 275h221zM1032 1030l41 -39l-121 -131q97 -111 97 -274q0 -162 -73 -300.5t-204 -222t-289 -83.5q-154 0 -260 86l-123 -136l-43 39l125 135q-96 113 -96 277q0 162 73 300.5t203.5 222t288.5 83.5q151 0 260 -88zM246 348q0 -81 22 -149
l572 622q-66 105 -193 105q-90 0 -167.5 -52.5t-127.5 -137t-78 -186t-28 -202.5zM889 618q0 77 -23 148l-571 -623q66 -102 192 -102q90 0 167.5 52.5t127.5 136.5t78.5 185.5t28.5 202.5z" />
    <glyph glyph-name="uni0218" unicode="&#x218;" horiz-adv-x="1114" 
d="M754 1444q100 0 200 -27t174 -71v-316h-34q-87 352 -359 352q-131 0 -219 -77.5t-88 -196.5q0 -89 41 -149.5t133 -122.5l156 -105q111 -74 168 -154.5t57 -191.5q0 -124 -65 -217.5t-169 -140.5t-229 -47q-244 0 -442 137v329h35q56 -210 163.5 -307.5t249.5 -97.5
q130 0 222 75.5t92 198.5q0 86 -46.5 146.5t-146.5 128.5l-143 98q-105 71 -160 156.5t-55 197.5q0 177 131.5 289.5t333.5 112.5zM492 -94q40 0 66 -27.5t26 -66.5q0 -52 -60 -123l-162 -203h-59l189 229h-13q-39 0 -64.5 24.5t-25.5 63.5q0 42 28.5 72.5t74.5 30.5z" />
    <glyph glyph-name="uni0219" unicode="&#x219;" horiz-adv-x="841" 
d="M524 987q140 0 267 -67v-207h-35q-28 102 -92 158.5t-160 56.5q-83 0 -144 -45t-61 -123q0 -51 26.5 -88t94.5 -88l110 -76q80 -57 118 -112t38 -132q0 -123 -99 -203.5t-243 -80.5q-171 0 -307 92v215h35q82 -250 286 -250q84 0 142.5 45t58.5 125q0 53 -28.5 90.5
t-94.5 83.5l-106 76q-76 57 -112 114.5t-36 130.5q0 118 95 201.5t247 83.5zM311 -94q40 0 66 -27.5t26 -66.5q0 -53 -59 -123l-162 -203h-59l188 229h-12q-39 0 -64.5 24.5t-25.5 63.5q0 42 28.5 72.5t73.5 30.5z" />
    <glyph glyph-name="uni021A" unicode="&#x21a;" horiz-adv-x="1286" 
d="M248 1059v364h1169v-364h-37q-21 162 -104 234.5t-260 72.5h-72l-282 -1124q-28 -116 4 -156.5t161 -50.5v-35h-594v35q137 11 190.5 51.5t82.5 157.5l280 1122h-141q-179 0 -260 -72t-100 -235h-37zM479 -94q40 0 66 -27.5t26 -66.5q0 -53 -59 -123l-162 -203h-59
l188 229h-12q-39 0 -64.5 24.5t-25.5 63.5q0 42 28.5 72.5t73.5 30.5z" />
    <glyph glyph-name="uni021B" unicode="&#x21b;" horiz-adv-x="675" 
d="M733 901h-278l-174 -694q-20 -76 8.5 -113t95.5 -37q81 0 158 39l18 -30q-122 -86 -235 -86q-110 0 -160 71t-21 191l166 659h-192v37q122 37 200.5 96t157.5 164h51l-59 -233h264v-64zM201 -94q40 0 66 -27.5t26 -66.5q0 -52 -60 -123l-161 -203h-60l189 229h-13
q-39 0 -64.5 24.5t-25.5 63.5q0 42 28.5 72.5t74.5 30.5z" />
    <glyph glyph-name="uni0226" unicode="&#x226;" horiz-adv-x="1419" 
d="M985 1579q-43 0 -70.5 27t-27.5 71q0 50 36.5 86.5t88.5 36.5q43 0 70.5 -26.5t27.5 -69.5q0 -52 -36 -88.5t-89 -36.5zM961 1434l192 -1188q18 -106 44.5 -147.5t102.5 -63.5v-35h-509v35q73 9 118 25t66.5 40t26 57t-2.5 76l-38 250h-574l-156 -245
q-62 -88 -45.5 -134.5t140.5 -68.5v-35h-432v35q66 14 113 41.5t79 64t74 101.5l758 1192h43zM840 1192l-412 -645h522l-102 645h-8z" />
    <glyph glyph-name="uni0227" unicode="&#x227;" horiz-adv-x="1134" 
d="M723 1159q-43 0 -70.5 27t-27.5 71q0 51 36.5 88t90.5 37q41 0 68.5 -27.5t27.5 -68.5q0 -54 -36 -90.5t-89 -36.5zM387 -20q-135 0 -221 105.5t-86 272.5q0 159 71.5 302.5t202 235t287.5 91.5q147 0 256 -88h4l133 74h25l-189 -756q-21 -70 -4.5 -95t99.5 -28v-33
l-287 -73h-10l47 188h-6q-140 -196 -322 -196zM444 84q82 0 152.5 47.5t140.5 130.5l92 369q34 130 -21.5 214.5t-170.5 84.5q-113 0 -209.5 -78t-150.5 -203t-54 -264q0 -137 59.5 -219t161.5 -82z" />
    <glyph glyph-name="uni0232" unicode="&#x232;" horiz-adv-x="1423" 
d="M721 1688h575v-66h-575v66zM1221 1389v34h421v-34q-97 -16 -159.5 -60t-136.5 -129l-521 -592l-94 -377q-11 -46 -13 -77.5t4.5 -53t26.5 -34.5t46.5 -20t70.5 -11v-35h-536v35q121 12 168.5 49t74.5 147l93 363l-228 616q-30 83 -66 124t-114 55v34h526v-34
q-98 -11 -144 -37t-48 -65.5t16 -92.5l187 -516h6l461 522q38 42 55.5 71.5t16.5 54t-29 39.5t-84 24z" />
    <glyph glyph-name="uni0233" unicode="&#x233;" horiz-adv-x="1050" 
d="M410 1270h575v-64h-575v64zM815 932v33h342v-33q-88 -16 -133 -54.5t-96 -123.5l-518 -885q-102 -178 -188.5 -240.5t-192.5 -62.5q-74 0 -131 26v144q68 -29 147 -29q99 0 183.5 50.5t158.5 176.5l45 76l-145 750q-13 69 -52.5 91.5t-142.5 27.5v32l293 74l4 -16
q6 -37 41 -217l102 -553h9l327 563q20 35 29 54.5t13.5 41t-4.5 34t-31 23t-60 17.5z" />
    <glyph glyph-name="uni0237" unicode="&#x237;" horiz-adv-x="514" 
d="M-158 -434q-91 0 -164 39l19 39q61 -23 121 -23q85 0 138 49.5t81 157.5l229 915q17 70 -5.5 96t-104.5 29v33l305 76h6l-281 -1129q-35 -135 -121 -208.5t-223 -73.5z" />
    <glyph glyph-name="circumflex" unicode="&#x2c6;" horiz-adv-x="657" 
d="M279 1120l-50 4l312 277h41l178 -277l-41 -4l-182 129z" />
    <glyph glyph-name="caron" unicode="&#x2c7;" horiz-adv-x="657" 
d="M762 1403l49 -4l-311 -277h-41l-178 277l41 4l182 -131z" />
    <glyph glyph-name="breve" unicode="&#x2d8;" horiz-adv-x="593" 
d="M459 1122q-103 0 -153 75.5t-25 199.5h41q-10 -76 29 -120t116 -44q83 0 141 43t86 121h43q-28 -129 -100.5 -202t-177.5 -73z" />
    <glyph glyph-name="dotaccent" unicode="&#x2d9;" horiz-adv-x="325" 
d="M340 1159q-43 0 -70.5 27t-27.5 71q0 51 37 88t90 37q42 0 69 -27t27 -69q0 -54 -36 -90.5t-89 -36.5z" />
    <glyph glyph-name="ring" unicode="&#x2da;" horiz-adv-x="460" 
d="M410 1083q-75 0 -126 51.5t-51 125.5t51 125t126 51q74 0 125 -51t51 -125t-51.5 -125.5t-124.5 -51.5zM410 1139q50 0 83 34.5t33 86.5q0 54 -33 88t-83 34q-51 0 -84 -34t-33 -88q0 -53 33 -87t84 -34z" />
    <glyph glyph-name="ogonek" unicode="&#x2db;" horiz-adv-x="567" 
d="M80 -412q-70 0 -117 43.5t-47 112.5q0 90 89 160t247 114l29 -18q-136 -55 -203.5 -112t-67.5 -128q0 -47 29 -76.5t76 -29.5q66 0 125 59l24 -22q-78 -103 -184 -103z" />
    <glyph glyph-name="tilde" unicode="&#x2dc;" horiz-adv-x="677" 
d="M659 1141q-82 0 -147 59l-27 27q-28 25 -48.5 34t-49.5 9q-45 0 -78.5 -29.5t-60.5 -97.5l-41 4q28 110 82.5 164.5t124.5 54.5q74 0 145 -59l31 -27q28 -25 48 -34t48 -9q47 0 79 29t60 98l41 -4q-27 -110 -81 -164.5t-126 -54.5z" />
    <glyph glyph-name="hungarumlaut" unicode="&#x2dd;" horiz-adv-x="667" 
d="M264 1122h-33l131 275h197v-6zM537 1122h-33l129 275h198v-6z" />
    <glyph glyph-name="uni0394" unicode="&#x394;" horiz-adv-x="1179" 
d="M1049 0h-1121v35l873 1399h49l199 -1397v-37zM25 70v-7h862v7l-156 1118h-8z" />
    <glyph glyph-name="Pi" unicode="&#x3a0;" horiz-adv-x="1505" 
d="M1653 1423v-34q-122 -12 -169.5 -51t-74.5 -154l-238 -946q-27 -114 0 -152.5t136 -50.5v-35h-527v35q110 9 158.5 48.5t77.5 152.5l278 1124h-647l-278 -1116q-16 -62 -17 -99.5t15 -60.5t45 -33t82 -16v-35h-527v35q119 11 166.5 50t77.5 157l235 940q27 116 1.5 155.5
t-134.5 51.5v34h1340z" />
    <glyph glyph-name="uni03A9" unicode="&#x3a9;" horiz-adv-x="1511" 
d="M563 0h-489v141h458l21 78q-172 52 -272.5 186.5t-100.5 307.5q0 143 57 276.5t155 233.5t237 160.5t293 60.5q251 0 406 -151.5t155 -387.5q0 -159 -75 -302t-216 -247t-324 -143l-16 -72h434v-141h-536l61 246q153 41 268 146t172.5 243.5t57.5 290.5q0 206 -102.5 330
t-282.5 124q-101 0 -193 -42t-159.5 -112.5t-117.5 -160t-75 -187t-25 -190.5q0 -164 73 -282.5t198 -159.5z" />
    <glyph glyph-name="uni03BC" unicode="&#x3bc;" horiz-adv-x="1136" 
d="M-10 -410l286 1151q10 42 8.5 69t-28.5 40.5t-88 15.5v33l303 76h8l-166 -662q-27 -107 14 -170t126 -63q74 0 144 47t146 133l121 483q10 41 8.5 67.5t-29.5 40t-91 15.5v33l307 76h6l-191 -764q-19 -70 -2 -92t99 -25v-33l-289 -73h-8l47 186h-6q-148 -194 -318 -194
q-97 0 -145 61h-6l-64 -256q-19 -60 -16.5 -93.5t27.5 -47t92 -19.5v-35h-295z" />
    <glyph glyph-name="pi" unicode="&#x3c0;" horiz-adv-x="1214" 
d="M1225 901h-260l-172 -694q-20 -75 8 -112.5t92 -37.5q83 0 162 39l18 -30q-120 -86 -235 -86q-110 0 -160.5 71t-20.5 191l164 659h-360l-225 -901h-144l225 901h-167v64h1075v-64z" />
    <glyph glyph-name="uni0E3F" unicode="&#xe3f;" horiz-adv-x="1306" 
d="M1270 1098q0 -99 -60.5 -178t-158.5 -125t-220 -60v-8q149 -18 248 -100.5t99 -206.5q0 -129 -81.5 -226t-218 -145.5t-307.5 -48.5h-2l-45 -184h-61l45 184h-516v35q113 11 158.5 47.5t70.5 140.5l236 942q28 107 3.5 145t-130.5 48v35h504h20l47 186h64l-47 -190
q164 -15 258 -92.5t94 -198.5zM803 1335h-158l-141 -571h178h16l142 571h-37zM901 1327l-139 -559q160 18 256 105t96 227q0 95 -54.5 152.5t-158.5 74.5zM489 707l-161 -650h194l162 650h-29h-166zM1016 436q0 113 -70.5 179.5t-200.5 84.5l-159 -641q197 10 313.5 112.5
t116.5 264.5z" />
    <glyph glyph-name="Wgrave" unicode="&#x1e80;" horiz-adv-x="2011" 
d="M1292 1817l33 -275h-35l-194 268v7h196zM465 -10l-70 1192q-6 98 -35.5 141.5t-117.5 65.5v34h520v-34q-77 -9 -122.5 -24.5t-66 -43t-25 -55t-1.5 -76.5l51 -922h8l553 930l-16 225h157l80 -1149h9l499 889q20 36 30.5 57t20.5 46t9.5 39t-5.5 29t-20.5 24t-39.5 17
t-60 14v34h413v-34q-56 -11 -95.5 -28.5t-71.5 -47.5t-54.5 -62t-54.5 -88l-662 -1173h-47l-77 1093h-9l-653 -1093h-47z" />
    <glyph glyph-name="wgrave" unicode="&#x1e81;" horiz-adv-x="1540" 
d="M967 1397l32 -275h-36l-195 269v6h199zM475 227h8l334 547l-22 191h141l84 -744h8l332 543q50 76 39.5 115.5t-94.5 52.5v33h340v-33q-85 -14 -129.5 -52.5t-94.5 -123.5l-471 -766h-39l-77 696h-9l-426 -696h-37l-83 762q-7 72 -45 97t-138 30v32l297 74l2 -27
q3 -25 12 -104t15 -125z" />
    <glyph glyph-name="Wacute" unicode="&#x1e82;" horiz-adv-x="2011" 
d="M1212 1542h-41l138 275h223v-7zM465 -10l-70 1192q-6 98 -35.5 141.5t-117.5 65.5v34h520v-34q-77 -9 -122.5 -24.5t-66 -43t-25 -55t-1.5 -76.5l51 -922h8l553 930l-16 225h157l80 -1149h9l499 889q20 36 30.5 57t20.5 46t9.5 39t-5.5 29t-20.5 24t-39.5 17t-60 14v34
h413v-34q-56 -11 -95.5 -28.5t-71.5 -47.5t-54.5 -62t-54.5 -88l-662 -1173h-47l-77 1093h-9l-653 -1093h-47z" />
    <glyph glyph-name="wacute" unicode="&#x1e83;" horiz-adv-x="1540" 
d="M866 1122h-39l138 275h221v-6zM475 227h8l334 547l-22 191h141l84 -744h8l332 543q50 76 39.5 115.5t-94.5 52.5v33h340v-33q-85 -14 -129.5 -52.5t-94.5 -123.5l-471 -766h-39l-77 696h-9l-426 -696h-37l-83 762q-7 72 -45 97t-138 30v32l297 74l2 -27q3 -25 12 -104
t15 -125z" />
    <glyph glyph-name="Wdieresis" unicode="&#x1e84;" horiz-adv-x="2011" 
d="M1102 1581q-41 0 -67.5 26.5t-26.5 67.5q0 50 34.5 85.5t85.5 35.5q41 0 68 -26t27 -66q0 -52 -35 -87.5t-86 -35.5zM1458 1581q-43 0 -69.5 26.5t-26.5 67.5q0 50 36 85.5t87 35.5q41 0 67.5 -26t26.5 -66q0 -52 -35 -87.5t-86 -35.5zM465 -10l-70 1192
q-6 98 -35.5 141.5t-117.5 65.5v34h520v-34q-77 -9 -122.5 -24.5t-66 -43t-25 -55t-1.5 -76.5l51 -922h8l553 930l-16 225h157l80 -1149h9l499 889q20 36 30.5 57t20.5 46t9.5 39t-5.5 29t-20.5 24t-39.5 17t-60 14v34h413v-34q-56 -11 -95.5 -28.5t-71.5 -47.5t-54.5 -62
t-54.5 -88l-662 -1173h-47l-77 1093h-9l-653 -1093h-47z" />
    <glyph glyph-name="wdieresis" unicode="&#x1e85;" horiz-adv-x="1540" 
d="M766 1161q-42 0 -69 27t-27 69q0 50 36 85.5t87 35.5q41 0 67.5 -26.5t26.5 -67.5q0 -52 -35 -87.5t-86 -35.5zM1120 1161q-41 0 -67.5 26.5t-26.5 69.5q0 50 35.5 85.5t87.5 35.5q41 0 67.5 -26.5t26.5 -67.5q0 -52 -36 -87.5t-87 -35.5zM475 227h8l334 547l-22 191h141
l84 -744h8l332 543q50 76 39.5 115.5t-94.5 52.5v33h340v-33q-85 -14 -129.5 -52.5t-94.5 -123.5l-471 -766h-39l-77 696h-9l-426 -696h-37l-83 762q-7 72 -45 97t-138 30v32l297 74l2 -27q3 -25 12 -104t15 -125z" />
    <glyph glyph-name="uni1E9E" unicode="&#x1e9e;" horiz-adv-x="1454" 
d="M496 1423h1034v-34l-578 -619q174 -18 277.5 -109.5t103.5 -238.5q0 -133 -75.5 -235t-198.5 -154.5t-271 -52.5q-155 0 -268 65l21 41q91 -43 194 -43q187 0 306.5 109.5t119.5 285.5q0 141 -88.5 217t-257.5 76h-65v35l550 590v8h-663l-340 -1364h-346v35
q52 6 84.5 13.5t61 20.5t46 35.5t31.5 55t27 82.5z" />
    <glyph glyph-name="uni1ECA" unicode="&#x1eca;" horiz-adv-x="700" 
d="M-33 0v35q63 6 99 15t66 31.5t47 59t32 99.5l238 948q15 59 16 94.5t-16.5 58.5t-49 32.5t-88.5 15.5v34h539v-34q-122 -12 -169.5 -49t-74.5 -148l-237 -950q-16 -63 -17 -100t17.5 -59.5t48 -31.5t86.5 -16v-35h-537zM152 -403q-43 0 -70 27.5t-27 70.5q0 51 36.5 88
t88.5 37q43 0 71 -27.5t28 -68.5q0 -54 -37 -90.5t-90 -36.5z" />
    <glyph glyph-name="uni1ECB" unicode="&#x1ecb;" horiz-adv-x="555" 
d="M461 1159q-43 0 -71 27t-28 71q0 51 36.5 88t88.5 37q43 0 71 -27.5t28 -68.5q0 -54 -36 -90.5t-89 -36.5zM485 977l-200 -803q-21 -78 -4 -104t96 -35v-35h-406v35q92 9 121 34t51 113l140 561q19 70 -3 95t-106 30v33l303 76h8zM90 -403q-43 0 -69.5 27.5t-26.5 70.5
q0 51 36.5 88t88.5 37q43 0 70.5 -27.5t27.5 -68.5q0 -54 -37 -90.5t-90 -36.5z" />
    <glyph glyph-name="uni1ECC" unicode="&#x1ecc;" horiz-adv-x="1607" 
d="M748 -20q-264 0 -430 168t-166 432q0 133 40 261.5t115 236.5t175.5 190.5t229.5 129t269 46.5q172 0 307 -76.5t210 -213.5t75 -310q0 -167 -63 -324.5t-171 -276.5t-263 -191t-328 -72zM752 43q113 0 216 49t179 132.5t132.5 189.5t85 223.5t28.5 232.5
q0 235 -112 372.5t-304 137.5q-96 0 -184.5 -35t-158.5 -95t-127.5 -141t-95.5 -173t-58.5 -190.5t-20.5 -194.5q0 -236 113 -372t307 -136zM655 -403q-43 0 -69.5 27.5t-26.5 70.5q0 51 36.5 88t88.5 37q43 0 70.5 -27.5t27.5 -68.5q0 -54 -37 -90.5t-90 -36.5z" />
    <glyph glyph-name="uni1ECD" unicode="&#x1ecd;" horiz-adv-x="1126" 
d="M481 -20q-179 0 -288 111.5t-109 289.5q0 162 72.5 300.5t203 222t287.5 83.5q179 0 289.5 -111.5t110.5 -289.5q0 -162 -73 -300.5t-204 -222t-289 -83.5zM483 41q91 0 169 52.5t128 136.5t78.5 185.5t28.5 202.5q0 142 -65.5 225t-176.5 83q-90 0 -167.5 -52.5
t-127.5 -137t-78 -186t-28 -202.5q0 -144 64 -225.5t175 -81.5zM389 -403q-43 0 -69.5 27.5t-26.5 70.5q0 51 36.5 88t88.5 37q43 0 70.5 -27.5t27.5 -68.5q0 -54 -37 -90.5t-90 -36.5z" />
    <glyph glyph-name="uni1EE4" unicode="&#x1ee4;" horiz-adv-x="1593" 
d="M725 -20q-170 0 -288 76t-161 211.5t0 322.5l150 596q27 114 0.5 152.5t-137.5 50.5v34h540v-34q-65 -7 -102 -17t-66.5 -32.5t-46 -57.5t-30.5 -94l-152 -606q-56 -227 36 -359.5t294 -132.5t340 126.5t194 354.5l154 617q12 48 14.5 79.5t-3.5 54t-25.5 35t-46.5 20
t-72 12.5v34h448v-34q-123 -12 -171.5 -49.5t-75.5 -149.5l-158 -629q-67 -273 -227 -427t-408 -154zM631 -403q-43 0 -69.5 27.5t-26.5 70.5q0 51 36 88t88 37q43 0 71 -27.5t28 -68.5q0 -54 -37 -90.5t-90 -36.5z" />
    <glyph glyph-name="uni1EE5" unicode="&#x1ee5;" horiz-adv-x="1114" 
d="M365 -20q-120 0 -187.5 100t-30.5 250l105 413q16 68 -4 94t-107 29v33l303 76h9l-164 -656q-27 -111 12 -175t127 -64q133 0 289 180l121 479q11 43 9 70.5t-29.5 41t-90.5 15.5v33l305 76h8l-190 -760q-21 -72 -4 -95t98 -26v-33l-289 -73h-6l45 186h-6
q-145 -194 -323 -194zM385 -403q-43 0 -69.5 27.5t-26.5 70.5q0 51 36.5 88t88.5 37q43 0 70.5 -27.5t27.5 -68.5q0 -54 -37 -90.5t-90 -36.5z" />
    <glyph glyph-name="Ygrave" unicode="&#x1ef2;" horiz-adv-x="1423" 
d="M1016 1817l33 -275h-35l-195 268v7h197zM1221 1389v34h421v-34q-97 -16 -159.5 -60t-136.5 -129l-521 -592l-94 -377q-11 -46 -13 -77.5t4.5 -53t26.5 -34.5t46.5 -20t70.5 -11v-35h-536v35q121 12 168.5 49t74.5 147l93 363l-228 616q-30 83 -66 124t-114 55v34h526v-34
q-98 -11 -144 -37t-48 -65.5t16 -92.5l187 -516h6l461 522q38 42 55.5 71.5t16.5 54t-29 39.5t-84 24z" />
    <glyph glyph-name="ygrave" unicode="&#x1ef3;" horiz-adv-x="1050" 
d="M711 1397l32 -275h-36l-195 269v6h199zM815 932v33h342v-33q-88 -16 -133 -54.5t-96 -123.5l-518 -885q-102 -178 -188.5 -240.5t-192.5 -62.5q-74 0 -131 26v144q68 -29 147 -29q99 0 183.5 50.5t158.5 176.5l45 76l-145 750q-13 69 -52.5 91.5t-142.5 27.5v32l293 74
l4 -16q6 -37 41 -217l102 -553h9l327 563q20 35 29 54.5t13.5 41t-4.5 34t-31 23t-60 17.5z" />
    <glyph glyph-name="uni2002" unicode="&#x2002;" horiz-adv-x="1024" 
 />
    <glyph glyph-name="uni2003" unicode="&#x2003;" horiz-adv-x="2048" 
 />
    <glyph glyph-name="uni2009" unicode="&#x2009;" horiz-adv-x="256" 
 />
    <glyph glyph-name="uni200A" unicode="&#x200a;" horiz-adv-x="86" 
 />
    <glyph glyph-name="endash" unicode="&#x2013;" horiz-adv-x="1079" 
d="M156 537h807v67h-807v-67z" />
    <glyph glyph-name="emdash" unicode="&#x2014;" horiz-adv-x="1624" 
d="M156 537h1351v67h-1351v-67z" />
    <glyph glyph-name="quoteleft" unicode="&#x2018;" horiz-adv-x="456" 
d="M356 1124q50 0 80.5 -30t30.5 -76q0 -51 -37 -89t-92 -38q-50 0 -81.5 33t-31.5 80q0 39 18 72.5t54 78.5l219 268h64l-246 -301q6 2 22 2z" />
    <glyph glyph-name="quoteright" unicode="&#x2019;" horiz-adv-x="452" 
d="M463 1440q51 0 83 -32.5t32 -78.5q0 -28 -12.5 -57t-23.5 -44.5t-38 -51.5l-219 -269h-64l248 301q-6 -2 -25 -2q-50 0 -79 30t-29 77q0 51 36 89t91 38z" />
    <glyph glyph-name="quotesinglbase" unicode="&#x201a;" horiz-adv-x="475" 
d="M174 213q50 0 81.5 -33t31.5 -80q0 -39 -18.5 -73t-55.5 -78l-217 -268h-66l248 301q-8 -2 -24 -2q-49 0 -79 30t-30 76q0 51 36 89t93 38z" />
    <glyph glyph-name="quotedblleft" unicode="&#x201c;" horiz-adv-x="804" 
d="M356 1124q50 0 79.5 -29.5t29.5 -76.5q0 -51 -36 -89t-91 -38q-51 0 -83 33t-32 80q0 27 12 55t24.5 46.5t37.5 49.5l219 268h64l-248 -301q6 2 24 2zM705 1124q49 0 78.5 -30t29.5 -76q0 -51 -36 -89t-93 -38q-50 0 -81.5 33t-31.5 80q0 39 18.5 73t55.5 78l217 268h66
l-248 -301q8 2 25 2z" />
    <glyph glyph-name="quotedblright" unicode="&#x201d;" horiz-adv-x="798" 
d="M463 1440q51 0 83 -32.5t32 -78.5q0 -28 -12.5 -57t-23.5 -44.5t-38 -51.5l-219 -269h-64l248 301q-6 -2 -25 -2q-50 0 -79 30t-29 77q0 51 36 89t91 38zM811 1440q50 0 81.5 -32.5t31.5 -78.5q0 -28 -11.5 -56.5t-23.5 -46t-37 -50.5l-219 -269h-64l246 301
q-6 -2 -22 -2q-50 0 -80.5 30t-30.5 77q0 51 36 89t93 38z" />
    <glyph glyph-name="quotedblbase" unicode="&#x201e;" horiz-adv-x="823" 
d="M174 213q50 0 81.5 -33t31.5 -80q0 -39 -18.5 -73t-55.5 -78l-217 -268h-66l248 301q-8 -2 -24 -2q-49 0 -79 30t-30 76q0 51 36 89t93 38zM520 213q51 0 83 -33t32 -80q0 -27 -12 -55t-24.5 -46.5t-37.5 -49.5l-219 -268h-63l245 301q-6 -2 -22 -2q-50 0 -79.5 29.5
t-29.5 76.5q0 51 36 89t91 38z" />
    <glyph glyph-name="dagger" unicode="&#x2020;" horiz-adv-x="1054" 
d="M418 -299h-176l399 1346l-424 -66v172l434 -63l62 503h174l-189 -503l432 63v-172l-442 66z" />
    <glyph glyph-name="daggerdbl" unicode="&#x2021;" horiz-adv-x="1126" 
d="M461 -299h-176l188 506l-424 -66v172l436 -63l47 397l152 400l-426 -66v172l436 -63l60 503h176l-191 -503l435 63v-172l-445 66l-45 -400l-154 -397l435 63v-172l-445 66z" />
    <glyph glyph-name="bullet" unicode="&#x2022;" horiz-adv-x="817" 
d="M399 322q-94 0 -150 57.5t-56 152.5q0 108 75.5 182t182.5 74q94 0 151 -58t57 -152q0 -111 -76 -183.5t-184 -72.5z" />
    <glyph glyph-name="ellipsis" unicode="&#x2026;" horiz-adv-x="1638" 
d="M145 -20q-46 0 -74 28.5t-28 75.5q0 55 37.5 92t91.5 37q46 0 75 -29t29 -75q0 -56 -38 -92.5t-93 -36.5zM723 -20q-46 0 -75.5 28.5t-29.5 75.5q0 55 38.5 92t93.5 37q46 0 75 -29t29 -75q0 -56 -38 -92.5t-93 -36.5zM1319 -20q-46 0 -74 28.5t-28 75.5q0 55 37.5 92
t91.5 37q46 0 75 -29t29 -75q0 -56 -38 -92.5t-93 -36.5z" />
    <glyph glyph-name="perthousand" unicode="&#x2030;" horiz-adv-x="2068" 
d="M471 686q-114 0 -186 83t-72 216q0 113 47 217t134 171t192 67q115 0 188.5 -82.5t73.5 -216.5q0 -110 -47.5 -214t-136 -172.5t-193.5 -68.5zM133 0l1346 1423h86l-1346 -1423h-86zM586 1384q-58 0 -106.5 -44t-78 -111.5t-45.5 -142.5t-16 -144q0 -98 34 -149.5
t99 -51.5q57 0 106 44.5t78.5 112.5t46.5 143t17 141q0 100 -35 151t-100 51zM1722 741q115 0 189 -83t74 -218q0 -109 -47.5 -213t-136 -172.5t-193.5 -68.5q-74 0 -132.5 37t-91.5 104q-114 -141 -268 -141q-114 0 -186 84t-72 217q0 113 47 216.5t134 170.5t192 67
q75 0 134 -36.5t93 -102.5q109 139 264 139zM1118 41q57 0 106 44.5t78.5 112t46.5 142.5t17 141q0 102 -35 153.5t-100 51.5q-58 0 -106.5 -44t-78 -111.5t-45.5 -142.5t-16 -144q0 -98 34.5 -150.5t98.5 -52.5zM1610 41q57 0 106 44.5t78.5 112t46.5 142.5t17 141
q0 102 -35.5 153.5t-102.5 51.5q-57 0 -105 -44t-77 -111.5t-45 -142.5t-16 -144q0 -98 34.5 -150.5t98.5 -52.5z" />
    <glyph glyph-name="guilsinglleft" unicode="&#x2039;" horiz-adv-x="724" 
d="M510 6l-35 -18l-379 504l619 487l26 -29l-471 -479z" />
    <glyph glyph-name="guilsinglright" unicode="&#x203a;" horiz-adv-x="727" 
d="M219 958l35 19l379 -504l-619 -487l-28 28l471 480z" />
    <glyph glyph-name="uni203D" unicode="&#x203d;" horiz-adv-x="1003" 
d="M1042 1102q0 -91 -39.5 -168.5t-113 -138.5t-156.5 -106t-192 -89l-70 -225h-47l180 958h-10q-202 0 -336 -172l-33 27q76 122 187.5 189t246.5 67q169 0 276 -98.5t107 -243.5zM760 1294l-197 -622q158 80 241 175.5t83 223.5q0 74 -34 132t-93 91zM412 213q46 0 75 -29
t29 -75q0 -56 -38 -92.5t-93 -36.5q-46 0 -75 28.5t-29 75.5q0 55 38 92t93 37z" />
    <glyph glyph-name="fraction" unicode="&#x2044;" horiz-adv-x="344" 
d="M950 1423h-86l-1345 -1423h86z" />
    <glyph glyph-name="uni2070" unicode="&#x2070;" horiz-adv-x="991" 
d="M612 799q-153 0 -246.5 101.5t-93.5 266.5q0 146 63.5 271.5t177 200.5t249.5 75q155 0 249.5 -102t94.5 -266q0 -146 -63.5 -271.5t-178 -200.5t-252.5 -75zM612 858q103 0 184.5 82t121.5 199.5t40 240.5q0 131 -50.5 203t-143.5 72q-102 0 -183 -81t-121 -198.5
t-40 -242.5q0 -131 50 -203t142 -72z" />
    <glyph glyph-name="uni2074" unicode="&#x2074;" horiz-adv-x="860" 
d="M686 821h-121l58 230h-443v34l692 623h37l-137 -547h184v-110h-213zM342 1167v-6h309l90 359h-6z" />
    <glyph glyph-name="uni2075" unicode="&#x2075;" horiz-adv-x="778" 
d="M498 799q-106 0 -188.5 55t-131.5 150l31 22q94 -129 237 -129q114 0 185 61t71 156q0 75 -47.5 117.5t-126.5 42.5q-100 0 -198 -78h-8l204 496h432v-133h-434l-114 -275h6q82 78 188 78q96 0 165 -69t69 -177q0 -129 -95 -223t-245 -94z" />
    <glyph glyph-name="uni2076" unicode="&#x2076;" horiz-adv-x="835" 
d="M567 799q-115 0 -193 70.5t-100 185.5q-23 119 16 251.5t124 229.5q74 84 173 131t208 47q125 0 225 -72l-19 -32q-80 45 -178 45q-158 0 -261 -107t-140 -309h6q98 129 238 129q101 0 173 -71t72 -175q0 -132 -101 -227.5t-243 -95.5zM559 850q98 0 154.5 78.5
t56.5 183.5q0 80 -44.5 129t-113.5 49q-115 0 -202 -127l-7 -57q-14 -107 28 -181.5t128 -74.5z" />
    <glyph glyph-name="uni2077" unicode="&#x2077;" horiz-adv-x="722" 
d="M979 1657l-600 -832h-197v6l666 721v7h-510v133h641v-35z" />
    <glyph glyph-name="uni2078" unicode="&#x2078;" horiz-adv-x="858" 
d="M545 799q-142 0 -230 67t-88 176q0 102 82 170t217 86v7q-69 19 -109 64t-40 104q0 108 93 174.5t232 66.5q123 0 202 -60.5t79 -148.5q0 -87 -68.5 -145.5t-183.5 -77.5v-6q87 -17 139 -70t52 -129q0 -129 -108.5 -203.5t-268.5 -74.5zM645 1313q84 0 141.5 60.5
t57.5 152.5q0 61 -38.5 99t-98.5 38q-84 0 -138.5 -60t-54.5 -153q0 -60 36.5 -98.5t94.5 -38.5zM541 850q103 0 172 71t69 177q0 78 -47.5 122t-124.5 44q-106 0 -174.5 -69t-68.5 -171q0 -82 48 -128t126 -46z" />
    <glyph glyph-name="uni2079" unicode="&#x2079;" horiz-adv-x="835" 
d="M682 1714q115 0 193 -70.5t100 -185.5q23 -119 -15.5 -251.5t-123.5 -229.5q-75 -85 -172.5 -131.5t-208.5 -46.5q-127 0 -226 71l19 33q80 -45 178 -45q158 0 261 107t140 309h-6q-98 -129 -237 -129q-100 0 -173 71.5t-73 174.5q0 132 101 227.5t243 95.5zM690 1665
q-99 0 -155 -79t-56 -185q0 -80 44.5 -129t113.5 -49q118 0 203 129l6 55q14 107 -28 182.5t-128 75.5z" />
    <glyph glyph-name="uni2080" unicode="&#x2080;" horiz-adv-x="991" 
d="M352 -248q-153 0 -246.5 102t-93.5 267q0 146 63.5 271.5t177 200.5t249.5 75q154 0 249 -102.5t95 -266.5q0 -146 -63.5 -271.5t-178 -200.5t-252.5 -75zM352 -188q103 0 184.5 82t121.5 199.5t40 240.5q0 131 -50.5 202.5t-143.5 71.5q-102 0 -183 -81t-121 -198.5
t-40 -242.5q0 -131 50 -202.5t142 -71.5z" />
    <glyph glyph-name="uni2081" unicode="&#x2081;" horiz-adv-x="636" 
d="M274 -225h-131l150 598h-279v35q150 42 253 99.5t186 154.5h43z" />
    <glyph glyph-name="uni2082" unicode="&#x2082;" horiz-adv-x="778" 
d="M532 -225h-624v35l305 206q72 49 119 86t90 82t63.5 92t20.5 99q0 86 -56 137t-145 51q-122 0 -217 -106l-29 26q126 185 310 185q117 0 199.5 -75.5t82.5 -184.5q0 -61 -24 -115t-73.5 -102t-97.5 -83t-122 -81l-178 -113v-6h376v-133z" />
    <glyph glyph-name="uni2083" unicode="&#x2083;" horiz-adv-x="774" 
d="M242 -248q-114 0 -194.5 59.5t-123.5 145.5l29 23q91 -127 237 -127q106 0 171 55.5t65 144.5q0 71 -47.5 113t-126.5 47v35l280 258v6h-407v133h594v-35l-387 -354v-6q110 -12 171.5 -73t61.5 -150q0 -118 -92.5 -196.5t-230.5 -78.5z" />
    <glyph glyph-name="uni2084" unicode="&#x2084;" horiz-adv-x="860" 
d="M426 -225h-121l57 229h-442v35l692 623h37l-137 -547h184v-111h-213zM82 121v-6h309l90 358h-6z" />
    <glyph glyph-name="uni2085" unicode="&#x2085;" horiz-adv-x="778" 
d="M236 -248q-106 0 -188.5 55t-131.5 150l31 23q95 -130 237 -130q114 0 185 61.5t71 156.5q0 75 -47.5 117t-126.5 42q-101 0 -198 -77h-9l205 495h432v-133h-434l-115 -274h7q81 77 188 77q96 0 164.5 -68.5t68.5 -176.5q0 -130 -94.5 -224t-244.5 -94z" />
    <glyph glyph-name="uni2086" unicode="&#x2086;" horiz-adv-x="837" 
d="M305 -250q-115 0 -193 70.5t-100 185.5q-22 120 16.5 252t123.5 229q77 85 174.5 132t205.5 47q128 0 228 -72l-19 -33q-83 45 -178 45q-160 0 -263 -106.5t-140 -309.5h6q98 129 237 129q101 0 173.5 -70.5t72.5 -174.5q0 -133 -101 -228.5t-243 -95.5zM297 -199
q66 0 116 39t73.5 97.5t23.5 125.5q0 80 -45.5 129.5t-114.5 49.5q-117 0 -200 -127l-9 -58q-14 -107 28 -181.5t128 -74.5z" />
    <glyph glyph-name="uni2087" unicode="&#x2087;" horiz-adv-x="722" 
d="M719 610l-600 -831h-197v6l666 721v6h-510v133h641v-35z" />
    <glyph glyph-name="uni2088" unicode="&#x2088;" horiz-adv-x="858" 
d="M283 -250q-142 0 -230 67.5t-88 176.5q0 102 82.5 170t216.5 86v6q-69 19 -109 64t-40 104q0 108 93 175t232 67q123 0 202 -60.5t79 -148.5q0 -87 -68.5 -146t-183.5 -78v-6q87 -17 138.5 -69.5t51.5 -128.5q0 -129 -107.5 -204t-268.5 -75zM383 264q84 0 141.5 60.5
t57.5 152.5q0 61 -38 99t-100 38q-83 0 -136.5 -60t-53.5 -153q0 -61 35.5 -99t93.5 -38zM279 -199q104 0 172.5 71t68.5 177q0 78 -47.5 122t-124.5 44q-106 0 -175 -69t-69 -171q0 -81 49 -127.5t126 -46.5z" />
    <glyph glyph-name="uni2089" unicode="&#x2089;" horiz-adv-x="835" 
d="M422 666q115 0 193 -70.5t100 -185.5q22 -120 -16.5 -252.5t-123.5 -229.5q-76 -85 -174 -131.5t-206 -46.5q-128 0 -228 72l19 33q83 -45 178 -45q160 0 263 106.5t140 308.5h-6q-98 -129 -237 -129q-101 0 -173.5 71.5t-72.5 174.5q0 133 100 228.5t244 95.5zM430 616
q-99 0 -156 -79t-57 -185q0 -80 45.5 -129t114.5 -49q119 0 201 129l8 55q14 107 -28 182.5t-128 75.5z" />
    <glyph glyph-name="uni20A6" unicode="&#x20a6;" horiz-adv-x="1306" 
d="M1421 1393v-35q-113 -13 -156 -51.5t-69 -147.5l-113 -446h193v-62h-207l-166 -661h-47l-211 661h-250l-102 -413q-28 -116 -4.5 -152.5t129.5 -50.5v-35h-416v35q113 14 155.5 51t71.5 152l103 413h-191v62h207l113 454l-78 219v7h166l219 -680h254l111 446
q26 110 2 148.5t-127 50.5v35h413zM502 1075l-90 -362h213l-115 362h-8zM905 283h8l93 368h-220z" />
    <glyph glyph-name="uni20A9" unicode="&#x20a9;" horiz-adv-x="2142" 
d="M1870 1358v35h411v-35q-75 -15 -124.5 -44.5t-78 -66t-69.5 -108.5l-162 -277h224v-61h-259l-108 -185h319v-61h-354l-330 -565h-45l-63 1083h-8l-613 -1083h-45l-51 565h-332v61h328l-16 185h-248v61h241l-26 295q-5 53 -11 81t-22 55t-44.5 41t-76.5 24v35h518v-35
q-66 -8 -108 -19t-67 -26.5t-36 -36.5t-13 -48.5t1 -62.5l80 -915h6l524 926l-14 217h150l65 -1141h6l518 887q26 44 39 71.5t17.5 54.5t-7.5 43t-40 29t-76 21z" />
    <glyph glyph-name="uni20AA" unicode="&#x20aa;" horiz-adv-x="1519" 
d="M231 0h-135l348 1393h230q246 0 359 -136.5t50 -388.5l-137 -555h-131l141 568q57 229 -11.5 341.5t-272.5 112.5h-107zM1184 0h-230q-246 0 -359 136t-50 388l139 555h129l-141 -567q-57 -229 12.5 -342t273.5 -113h107l334 1336h135z" />
    <glyph glyph-name="Euro" unicode="&#x20ac;" horiz-adv-x="1337" 
d="M1016 1413q170 0 317 -80v-286h-35q-36 156 -114 231.5t-178 75.5q-91 0 -175 -40.5t-150 -110t-116.5 -158t-81.5 -189.5h693v-61h-709q-24 -102 -27 -201h672v-62h-670q10 -212 109.5 -322t261.5 -110q106 0 194 47t169 154l32 -25q-174 -296 -446 -296
q-206 0 -337 149.5t-134 402.5h-164v62h166q6 97 31 201h-131v61h149q52 158 148 282.5t233.5 199.5t292.5 75z" />
    <glyph glyph-name="uni20B4" unicode="&#x20b4;" horiz-adv-x="1236" 
d="M1104 870h117v-61h-1039v61h684q217 109 217 269q0 97 -70.5 156t-187.5 59q-128 0 -215 -72.5t-133 -234.5h-35v280q168 86 377 86q183 0 287 -87.5t104 -221.5q0 -139 -106 -234zM260 551h-143v59h1038v-59h-649q-236 -101 -236 -272q0 -106 81.5 -173t199.5 -67
q142 0 251 89t163 267h34v-282q-203 -133 -446 -133q-184 0 -299 91t-115 236q0 149 121 244z" />
    <glyph glyph-name="uni20B8" unicode="&#x20b8;" horiz-adv-x="1314" 
d="M1348 1333h-1080v60h1080v-60zM530 233l234 934h-117q-116 0 -187.5 -35t-104.5 -96t-50 -162h-37v349h1078v-349h-37q-24 153 -101.5 223t-244.5 70h-56l-231 -934q-15 -59 -16 -93t17.5 -56t51 -32t94.5 -17v-35h-553v35q131 14 182 50.5t78 147.5z" />
    <glyph glyph-name="uni20B9" unicode="&#x20b9;" horiz-adv-x="1138" 
d="M1280 1393v-62h-522v-8q114 -30 182.5 -105t69.5 -182h180v-61h-184q-18 -108 -101 -188.5t-207.5 -122t-271.5 -41.5h-61v-9l464 -608v-6h-176l-481 645v33h213q193 0 317.5 79t147.5 218h-592v61h596q0 141 -94.5 218t-263.5 77h-148v62h932z" />
    <glyph glyph-name="uni20BA" unicode="&#x20ba;" horiz-adv-x="1261" 
d="M1036 567h170q-122 -567 -831 -567h-338v35q116 12 160.5 49t72.5 147l86 342l-202 -53v62l219 57l45 186l-201 -53v64l217 57l68 270q28 109 3.5 147t-130.5 48v35h508v-35q-114 -11 -161 -49t-73 -144l-57 -229l532 141v-61l-549 -148l-47 -186l531 141v-61l-547 -146
l-139 -559q567 0 663 510z" />
    <glyph glyph-name="uni20BD" unicode="&#x20bd;" horiz-adv-x="1234" 
d="M684 631h-188l-43 -174h450v-62h-467l-41 -168q-11 -46 -12.5 -76.5t5.5 -51.5t28 -33.5t49 -19.5t74 -11v-35h-523v35q113 11 160 47.5t74 144.5l41 168h-185v62h201l174 704q28 109 3.5 148t-128.5 49v35h453q211 0 343 -93t132 -253q0 -102 -47 -182.5t-129 -131
t-190 -76.5t-234 -26zM795 1335h-123l-162 -647h147q208 0 337.5 101.5t129.5 271.5q0 131 -89 202.5t-240 71.5z" />
    <glyph glyph-name="uni20BF" unicode="&#x20bf;" horiz-adv-x="1318" 
d="M1276 1098q0 -148 -125 -245t-315 -118v-8q150 -20 248 -100t98 -205q0 -176 -139.5 -285.5t-364.5 -132.5l-47 -188h-64l45 184h-37h-110l-45 -184h-64l45 184h-405v35q113 11 159 47.5t72 140.5l236 942q14 57 15 90t-14 55.5t-44.5 32.5t-83.5 15v35h401l47 186h64
l-47 -186h37q49 0 110 -7l49 193h62l-49 -205q127 -28 196.5 -100t69.5 -176zM510 764h178q193 0 311.5 89t118.5 247q0 116 -80.5 175.5t-230.5 59.5h-156zM1022 436q0 132 -95 201.5t-265 69.5h-166l-162 -650h209q220 0 349.5 104t129.5 275z" />
    <glyph glyph-name="uni2116" unicode="&#x2116;" horiz-adv-x="2447" 
d="M-8 2v35q123 12 172 50t76 149l252 1013l-91 170v6h195l610 -1169h8l234 936q27 110 0.5 148.5t-135.5 50.5v34h448v-34q-121 -12 -170 -51t-78 -148l-299 -1200h-47l-620 1177h-8l-232 -936q-27 -109 -0.5 -146.5t135.5 -49.5v-35h-450zM1905 242q-154 0 -246 96
t-92 254q0 100 39 195t104.5 166.5t158.5 115t195 43.5q153 0 245.5 -96.5t92.5 -253.5q0 -134 -64.5 -253.5t-179.5 -193t-253 -73.5zM1905 303q102 0 186.5 79t128 193.5t43.5 231.5q0 113 -53.5 179.5t-145.5 66.5q-102 0 -187 -79.5t-129 -193.5t-44 -229t54 -181.5
t147 -66.5zM1493 0h661v68h-661v-68z" />
    <glyph glyph-name="uni2117" unicode="&#x2117;" horiz-adv-x="1759" 
d="M942 -20q-210 0 -378.5 96t-263.5 267t-95 384t95 384t263.5 267.5t378.5 96.5t378.5 -96.5t263.5 -267.5t95 -384t-95 -384t-263.5 -267t-378.5 -96zM942 43q143 0 267.5 52t213 142.5t139 217.5t50.5 272q0 146 -50.5 273t-139 217.5t-213 142t-267.5 51.5
q-192 0 -345 -88t-239 -244.5t-86 -351.5q0 -145 50.5 -272t139 -217.5t213 -142.5t267.5 -52zM987 670h-115v-195q0 -56 24 -76.5t85 -23.5v-31h-319v31q53 3 72.5 23t19.5 77v506q0 57 -19.5 77t-72.5 25v31h325q135 0 223 -56.5t88 -162.5q0 -108 -88 -166.5t-223 -58.5z
M961 1069h-89v-354h89q99 0 156 45.5t57 134.5q0 88 -56.5 131t-156.5 43z" />
    <glyph glyph-name="trademark" unicode="&#x2122;" horiz-adv-x="1740" 
d="M418 854l131 530h-49q-84 0 -123 -39t-51 -131h-31v209h600v-209h-31q-12 90 -50.5 130t-119.5 40h-26l-131 -528q-13 -53 1 -77.5t58 -30.5v-27h-299v27q53 6 80.5 29.5t40.5 76.5zM903 852l111 442q11 53 0.5 74t-49.5 29v26h182l117 -544h6l385 544h190v-26
q-45 -6 -69 -28.5t-37 -76.5l-111 -440q-12 -53 -0.5 -75.5t49.5 -28.5v-27h-272v27q45 6 69.5 29t36.5 75l109 430h-4l-404 -567h-26l-121 563h-6l-105 -426q-12 -54 -1.5 -76t46.5 -28v-27h-204v27q46 6 70.5 28.5t37.5 75.5z" />
    <glyph glyph-name="uni2126" unicode="&#x2126;" horiz-adv-x="1527" 
d="M573 0h-491v141h461l18 78q-171 52 -271 186.5t-100 307.5q0 143 57 276.5t155 233.5t237 160.5t293 60.5q251 0 406 -151.5t155 -387.5q0 -159 -75 -302t-216 -247t-325 -143l-17 -72h434v-141h-536l63 246q152 41 266.5 146t172 243.5t57.5 290.5q0 206 -101.5 330
t-281.5 124q-127 0 -236.5 -64.5t-180.5 -166t-111.5 -223t-40.5 -238.5q0 -164 72 -282.5t198 -159.5z" />
    <glyph glyph-name="uni2153" unicode="&#x2153;" horiz-adv-x="1894" 
d="M483 594h-125l142 569h-264v33q143 41 240 95.5t177 148.5h41zM1696 1423h-86l-1348 -1423h88zM1415 -20q-108 0 -184 56t-117 138l27 21q88 -121 227 -121q100 0 162.5 54t62.5 138q0 68 -45.5 107.5t-120.5 44.5v33l267 245v6h-387v127h565v-34l-369 -336v-6
q104 -12 162.5 -70t58.5 -143q0 -113 -88 -186.5t-221 -73.5z" />
    <glyph glyph-name="uni2154" unicode="&#x2154;" horiz-adv-x="1923" 
d="M707 594h-594v35l290 194q70 48 113.5 82.5t85 77.5t61 87.5t19.5 94.5q0 84 -53.5 132.5t-139.5 48.5q-114 0 -204 -101l-27 25q118 176 295 176q109 0 187.5 -73t78.5 -177q0 -47 -16.5 -90t-42 -77t-67.5 -70.5t-80.5 -63.5t-94.5 -61l-168 -107v-6h357v-127z
M1745 1423h-86l-1346 -1423h86zM1466 -20q-109 0 -185.5 56t-117.5 138l29 21q88 -121 225 -121q102 0 163.5 54t61.5 138q0 68 -44.5 107.5t-120.5 44.5v33l268 245v6h-389v127h565v-34l-369 -336v-6q104 -12 164 -70t60 -143q0 -113 -89 -186.5t-221 -73.5z" />
    <glyph glyph-name="uni2155" unicode="&#x2155;" horiz-adv-x="1902" 
d="M483 594h-125l142 569h-264v33q143 41 240 95.5t177 148.5h41zM1696 1423h-86l-1348 -1423h88zM1415 -20q-102 0 -180 51.5t-123 142.5l27 21q90 -121 227 -121q109 0 176.5 57.5t67.5 147.5q0 72 -44.5 111.5t-119.5 39.5q-94 0 -191 -72h-8l197 471h411v-127h-415
l-109 -262h4q81 74 183 74q92 0 156.5 -65t64.5 -168q0 -123 -90.5 -212t-233.5 -89z" />
    <glyph glyph-name="uni2156" unicode="&#x2156;" horiz-adv-x="1929" 
d="M707 594h-594v35l290 194q70 48 113.5 82.5t85 77.5t61 87.5t19.5 94.5q0 84 -53.5 132.5t-139.5 48.5q-114 0 -204 -101l-27 25q118 176 295 176q109 0 187.5 -73t78.5 -177q0 -47 -16.5 -90t-42 -77t-67.5 -70.5t-80.5 -63.5t-94.5 -61l-168 -107v-6h357v-127z
M1745 1423h-86l-1346 -1423h86zM1464 -20q-102 0 -180 51.5t-123 142.5l27 21q90 -121 227 -121q108 0 176 57.5t68 147.5q0 72 -45 111.5t-121 39.5q-93 0 -190 -72h-7l195 471h414v-127h-416l-109 -262h4q81 74 181 74q93 0 158 -65t65 -168q0 -123 -90.5 -212t-233.5 -89
z" />
    <glyph glyph-name="uni2157" unicode="&#x2157;" horiz-adv-x="1902" 
d="M432 573q-109 0 -184.5 56.5t-118.5 140.5l29 21q87 -123 225 -123q102 0 163.5 54t61.5 138q0 68 -45 107.5t-121 44.5v35l269 245v4h-389v127h565v-32l-367 -338v-6q103 -12 162 -70t59 -143q0 -112 -88.5 -186.5t-220.5 -74.5zM1710 1423h-86l-1345 -1423h86z
M1430 -20q-102 0 -180.5 51.5t-123.5 142.5l27 21q90 -121 227 -121q109 0 176.5 57.5t67.5 147.5q0 72 -44.5 111.5t-119.5 39.5q-91 0 -192 -72h-6l196 471h412v-127h-416l-108 -262h4q81 74 182 74q92 0 156.5 -65t64.5 -168q0 -123 -90 -212t-233 -89z" />
    <glyph glyph-name="uni2158" unicode="&#x2158;" horiz-adv-x="2074" 
d="M635 594h-115l53 217h-421v35l661 594h33l-129 -522h174v-107h-203zM1864 1423h-86l-1346 -1423h86zM307 924v-6h293l86 342h-6zM1585 -20q-102 0 -180 51t-125 143l29 21q90 -121 227 -121q108 0 176 57.5t68 147.5q0 72 -45 111.5t-121 39.5q-94 0 -191 -72h-6l195 471
h411v-127h-413l-109 -262h4q78 74 181 74q93 0 158 -65t65 -168q0 -123 -91 -212t-233 -89z" />
    <glyph glyph-name="uni2159" unicode="&#x2159;" horiz-adv-x="1945" 
d="M483 594h-125l142 569h-264v33q143 41 240 95.5t177 148.5h41zM1696 1423h-86l-1348 -1423h88zM1468 -20q-108 0 -182.5 67t-95.5 176q-22 114 14.5 239.5t118.5 217.5q72 81 165.5 125.5t197.5 44.5q123 0 215 -68l-17 -30q-79 43 -170 43q-152 0 -250 -102t-133 -296h6
q91 123 226 123q96 0 164.5 -67t68.5 -166q0 -126 -96 -216.5t-232 -90.5zM1460 27q94 0 148.5 74.5t54.5 174.5q0 76 -43 123t-107 47q-112 0 -194 -120l-6 -54q-13 -104 26 -174.5t121 -70.5z" />
    <glyph glyph-name="uni215A" unicode="&#x215a;" horiz-adv-x="1974" 
d="M430 573q-102 0 -180 51.5t-123 143.5l27 20q89 -120 227 -120q109 0 176.5 57t67.5 147q0 72 -44.5 112t-119.5 40q-92 0 -193 -72h-6l195 471h413v-127h-415l-109 -262h4q81 74 182 74q92 0 157 -65.5t65 -168.5q0 -123 -90.5 -212t-233.5 -89zM1735 1423h-86
l-1346 -1423h86zM1507 -20q-108 0 -182.5 67t-95.5 176q-22 114 14.5 239.5t118.5 217.5q72 81 165 125.5t197 44.5q119 0 215 -68l-16 -30q-79 43 -170 43q-152 0 -250.5 -102.5t-132.5 -295.5h6q91 123 226 123q96 0 164.5 -67t68.5 -166q0 -126 -96 -216.5t-232 -90.5z
M1499 27q94 0 148.5 74.5t54.5 174.5q0 77 -43 123.5t-109 46.5q-110 0 -192 -120l-6 -54q-13 -104 26 -174.5t121 -70.5z" />
    <glyph glyph-name="oneeighth" unicode="&#x215b;" horiz-adv-x="1964" 
d="M483 594h-125l142 569h-264v33q143 41 240 95.5t177 148.5h41zM1696 1423h-86l-1348 -1423h88zM1458 -20q-135 0 -219 63.5t-84 167.5q0 97 79 163t206 81v6q-66 17 -104 60t-38 100q0 102 89 165.5t221 63.5q117 0 192.5 -58t75.5 -141t-66 -139t-176 -74v-6
q83 -15 133 -65.5t50 -122.5q0 -123 -102.5 -193.5t-256.5 -70.5zM1554 467q79 0 134 58.5t55 144.5q0 59 -36.5 96t-94.5 37q-79 0 -130.5 -58.5t-51.5 -146.5q0 -58 34 -94.5t90 -36.5zM1454 27q98 0 163.5 67.5t65.5 167.5q0 75 -45 117.5t-118 42.5q-100 0 -166 -66
t-66 -163q0 -78 46 -122t120 -44z" />
    <glyph glyph-name="threeeighths" unicode="&#x215c;" horiz-adv-x="1966" 
d="M432 573q-108 0 -184 57t-117 140l27 21q87 -123 227 -123q100 0 162.5 54t62.5 138q0 68 -45.5 107.5t-120.5 44.5v35l267 245v4h-387v127h565v-32l-369 -338v-6q104 -12 162.5 -70t58.5 -143q0 -112 -88.5 -186.5t-220.5 -74.5zM1710 1423h-86l-1345 -1423h86z
M1475 -20q-137 0 -220.5 63.5t-83.5 167.5q0 97 79 163t206 81v6q-66 17 -103.5 60t-37.5 100q0 103 88 166t221 63q116 0 191 -58t75 -141t-65 -139t-174 -74v-6q83 -15 132.5 -65t49.5 -123q0 -123 -102.5 -193.5t-255.5 -70.5zM1571 467q77 0 132.5 59t55.5 144
q0 59 -36.5 96t-94.5 37q-79 0 -130.5 -58.5t-51.5 -146.5q0 -58 34.5 -94.5t90.5 -36.5zM1470 27q98 0 164 67.5t66 167.5q0 75 -45 117.5t-119 42.5q-100 0 -165.5 -65.5t-65.5 -163.5q0 -78 45.5 -122t119.5 -44z" />
    <glyph glyph-name="fiveeighths" unicode="&#x215d;" horiz-adv-x="1994" 
d="M432 573q-102 0 -180 51.5t-125 143.5l29 20q89 -120 227 -120q108 0 176 57t68 147q0 72 -45 112t-121 40q-94 0 -191 -72h-6l195 471h411v-127h-413l-109 -262h4q78 74 180 74q93 0 158.5 -65.5t65.5 -168.5q0 -123 -90.5 -212t-233.5 -89zM1735 1423h-86l-1346 -1423
h86zM1499 -20q-137 0 -220 63.5t-83 167.5q0 97 78.5 163t206.5 81v6q-66 17 -105 60t-39 100q0 102 89.5 165.5t222.5 63.5q116 0 191 -58t75 -141t-65 -139t-175 -74v-6q83 -15 133 -65.5t50 -122.5q0 -123 -103 -193.5t-256 -70.5zM1595 467q77 0 133 59t56 144
q0 58 -37 95.5t-94 37.5q-79 0 -131 -58.5t-52 -146.5q0 -58 34.5 -94.5t90.5 -36.5zM1495 27q98 0 163.5 67.5t65.5 167.5q0 75 -45 117.5t-118 42.5q-101 0 -166.5 -66t-65.5 -163q0 -78 45.5 -122t120.5 -44z" />
    <glyph glyph-name="seveneighths" unicode="&#x215e;" horiz-adv-x="1974" 
d="M899 1389l-571 -791h-187v6l633 686v6h-483v127h608v-34zM1714 1423h-86l-1345 -1423h86zM1479 -20q-137 0 -220 63.5t-83 167.5q0 97 78 163t206 81v6q-66 17 -104.5 60t-38.5 100q0 102 88.5 165.5t220.5 63.5q118 0 193 -58t75 -141t-65.5 -139t-173.5 -74v-6
q83 -15 131.5 -65t48.5 -123q0 -123 -101.5 -193.5t-254.5 -70.5zM1573 467q79 0 134.5 58.5t55.5 144.5q0 58 -37.5 95.5t-95.5 37.5q-78 0 -129 -58.5t-51 -146.5q0 -58 34 -94.5t89 -36.5zM1475 27q98 0 162.5 67.5t64.5 167.5q0 75 -44.5 117.5t-119.5 42.5
q-100 0 -165.5 -65.5t-65.5 -163.5q0 -78 46.5 -122t121.5 -44z" />
    <glyph glyph-name="uni215F" unicode="&#x215f;" horiz-adv-x="1361" 
d="M559 594h-125l141 569h-264v33q144 40 241 95t177 149h41zM1772 1423h-86l-1346 -1423h86z" />
    <glyph glyph-name="arrowleft" unicode="&#x2190;" horiz-adv-x="1398" 
d="M348 522h944v-61h-944v-6l365 -363l-23 -31l-594 431v2l594 428l25 -29l-367 -363v-8z" />
    <glyph glyph-name="arrowup" unicode="&#x2191;" horiz-adv-x="993" 
d="M618 0h-67v1190h-6l-361 -365l-28 25l428 594h2l428 -594l-29 -25l-360 365h-7v-1190z" />
    <glyph glyph-name="arrowright" unicode="&#x2192;" horiz-adv-x="1402" 
d="M113 461v61h944v8l-365 363l25 29l594 -428v-2l-594 -431l-25 31l365 363v6h-944z" />
    <glyph glyph-name="arrowdown" unicode="&#x2193;" horiz-adv-x="993" 
d="M500 233v1190h67v-1190h6l361 365l29 -25l-428 -593h-5l-426 593l29 25l361 -365h6z" />
    <glyph glyph-name="uni2196" unicode="&#x2196;" horiz-adv-x="1351" 
d="M397 825l799 -798l-45 -45l-801 796l-6 -4l2 -512l-37 -4l-119 723l5 2l723 -117l-5 -39l-512 4z" />
    <glyph glyph-name="uni2197" unicode="&#x2197;" horiz-adv-x="995" 
d="M4 -18l-45 45l801 798l-6 6l-512 -4l-2 39l721 117l4 -2l-119 -723l-37 4l2 512l-6 4z" />
    <glyph glyph-name="uni2198" unicode="&#x2198;" horiz-adv-x="1353" 
d="M958 139l-800 801l45 45l801 -797l6 5l-2 512l36 4l119 -723l-2 -2l-723 116l2 39l514 -4z" />
    <glyph glyph-name="uni2199" unicode="&#x2199;" horiz-adv-x="1011" 
d="M1012 985l45 -45l-801 -801l4 -4l512 4l4 -39l-723 -116l-2 2l117 723l39 -4l-2 -512l4 -5z" />
    <glyph glyph-name="uni21A4" unicode="&#x21a4;" horiz-adv-x="1513" 
d="M1237 522v375h68v-809h-68v373h-879v-6l365 -363l-23 -31l-594 431v2l594 428l25 -29l-367 -363v-8h879z" />
    <glyph glyph-name="uni21A5" unicode="&#x21a5;" horiz-adv-x="1146" 
d="M987 825l-358 365h-6v-1127h358v-63h-786v63h360v1127h-8l-359 -365l-30 25l428 594h4l428 -594z" />
    <glyph glyph-name="uni21A6" unicode="&#x21a6;" horiz-adv-x="1513" 
d="M797 893l22 31l594 -428v-4l-594 -429l-24 29l366 365v6h-878v-375h-68v809h68v-373h878v8z" />
    <glyph glyph-name="uni21A7" unicode="&#x21a7;" horiz-adv-x="1148" 
d="M721 233l358 365l29 -25l-426 -593h-4l-428 593l29 25l360 -365h6v1127h-358v63h784v-63h-358v-1127h8z" />
    <glyph glyph-name="uni21B0" unicode="&#x21b0;" horiz-adv-x="1605" 
d="M461 1059h944v-1059h-68v997h-876v-8l364 -362l-24 -29l-594 428v4l594 428l24 -28l-364 -365v-6z" />
    <glyph glyph-name="uni21B1" unicode="&#x21b1;" horiz-adv-x="1398" 
d="M836 1430l24 28l594 -428v-4l-594 -428l-24 29l364 362v8h-876v-997h-68v1059h944v6z" />
    <glyph glyph-name="uni21B2" unicode="&#x21b2;" horiz-adv-x="1400" 
d="M1200 457v997h68v-1059h-944v-6l364 -364l-24 -29l-594 428v4l594 428l24 -29l-364 -362v-8h876z" />
    <glyph glyph-name="uni21B3" unicode="&#x21b3;" horiz-adv-x="1613" 
d="M911 827l25 29l594 -428v-4l-594 -428l-25 29l367 364v6h-946v1059h67v-997h879v8z" />
    <glyph glyph-name="partialdiff" unicode="&#x2202;" horiz-adv-x="1144" 
d="M506 -20q-188 0 -310 127t-122 315q0 125 55.5 229t159.5 166t237 62q122 0 219.5 -67t157.5 -177h4q16 162 -9.5 297.5t-92 238.5t-184.5 161t-277 59v53q238 6 404.5 -81.5t247.5 -248t81 -381.5q0 -149 -39.5 -284.5t-110.5 -240t-180.5 -166.5t-240.5 -62zM508 37
q102 0 184.5 70.5t132.5 190.5t66 273q-45 91 -128.5 148t-189.5 57q-157 0 -247 -112t-90 -281q0 -151 71.5 -248.5t200.5 -97.5z" />
    <glyph glyph-name="emptyset" unicode="&#x2205;" horiz-adv-x="1222" 
d="M1042 989l-100 -131q75 -69 116.5 -166t41.5 -209q0 -213 -141 -358t-347 -145q-153 0 -278 88l-101 -131l-49 36l103 133q-75 69 -117.5 167t-42.5 210q0 140 63.5 255.5t175 181t246.5 65.5q156 0 281 -88l100 131zM197 483q0 -198 131 -323l524 684q-105 76 -240 76
q-177 0 -296 -125t-119 -312zM612 45q177 0 296.5 125.5t119.5 312.5q0 194 -129 320l-524 -682q102 -76 237 -76z" />
    <glyph glyph-name="uni2206" unicode="&#x2206;" horiz-adv-x="1241" 
d="M1073 0h-1120v35l872 1399h49l199 -1397v-37zM49 70v-7h862v7l-155 1118h-8z" />
    <glyph glyph-name="product" unicode="&#x220f;" horiz-adv-x="1536" 
d="M1669 1423v-34q-122 -12 -169.5 -51t-76.5 -154l-235 -946q-27 -114 -0.5 -152.5t135.5 -50.5v-35h-526v35q110 9 158 48.5t77 152.5l279 1124h-647l-279 -1116q-16 -62 -17 -99.5t15 -60.5t45 -33t82 -16v-35h-528v35q83 7 126.5 25t70.5 59t48 123l234 940
q29 116 3.5 155.5t-134.5 51.5v34h1339z" />
    <glyph glyph-name="summation" unicode="&#x2211;" horiz-adv-x="1452" 
d="M434 145v-4h842v-141h-1000v37l472 653l-478 696v37h981v-346h-34q-19 156 -88.5 223.5t-223.5 67.5h-436v-6l397 -580v-32z" />
    <glyph glyph-name="minus" unicode="&#x2212;" horiz-adv-x="1185" 
d="M1053 449h-916v67h916v-67z" />
    <glyph glyph-name="uni2215" unicode="&#x2215;" horiz-adv-x="1005" 
d="M1282 1423h-86l-1346 -1423h87z" />
    <glyph glyph-name="radical" unicode="&#x221a;" horiz-adv-x="1009" 
d="M840 1423h409v-65h-360l-447 -1358h-90l-272 791h74l241 -701h6z" />
    <glyph glyph-name="infinity" unicode="&#x221e;" horiz-adv-x="1470" 
d="M412 242q-122 0 -202.5 84.5t-80.5 214.5q0 129 81 213t202 84q98 0 174 -58t153 -180h4q77 123 152 180.5t172 57.5q121 0 203 -84t82 -213t-82 -214t-203 -85q-98 0 -174 58t-152 181h-4q-79 -124 -153.5 -181.5t-171.5 -57.5zM414 309q85 0 148.5 54.5t142.5 177.5
q-75 123 -139 177t-152 54q-94 0 -154.5 -64.5t-60.5 -166.5t60.5 -167t154.5 -65zM1067 309q93 0 153 65t60 167t-60 166.5t-153 64.5q-87 0 -151 -54.5t-140 -176.5q76 -124 139.5 -178t151.5 -54z" />
    <glyph glyph-name="integral" unicode="&#x222b;" horiz-adv-x="577" 
d="M63 -305q-63 0 -118 22v64q65 -21 114 -21q115 0 175.5 71.5t60.5 205.5v1220q0 161 79.5 251.5t217.5 90.5q70 0 125 -22v-64q-65 21 -115 21q-115 0 -175 -71.5t-60 -205.5v-1224q0 -160 -81 -249t-223 -89z" />
    <glyph glyph-name="approxequal" unicode="&#x2248;" horiz-adv-x="1179" 
d="M219 557h-69q0 106 60.5 173t156.5 67q93 0 196 -64l84 -49q96 -57 166 -57t110 46.5t40 123.5h71q0 -105 -61.5 -171.5t-159.5 -66.5q-87 0 -195 62l-83 51q-99 57 -166 57q-70 0 -110 -46.5t-40 -125.5zM219 178h-69q0 106 60.5 173t156.5 67q87 0 196 -64l84 -49
q91 -57 166 -57q70 0 110 46.5t40 123.5h71q0 -106 -61.5 -173t-159.5 -67q-83 0 -195 64l-83 49q-99 57 -166 57q-70 0 -110 -46.5t-40 -123.5z" />
    <glyph glyph-name="notequal" unicode="&#x2260;" horiz-adv-x="1286" 
d="M1102 690v-67h-383l-96 -279h479v-68h-502l-96 -276h-70l96 276h-346v68h369l96 279h-465v67h490l94 275h70l-95 -275h359z" />
    <glyph glyph-name="lessequal" unicode="&#x2264;" horiz-adv-x="1230" 
d="M1051 260v-72l-918 355v73l918 355v-74l-826 -317v-5zM1049 63v-67h-916v67h916z" />
    <glyph glyph-name="greaterequal" unicode="&#x2265;" horiz-adv-x="1288" 
d="M1100 543l-918 -355v72l828 315v5l-828 317v74l918 -355v-73zM1100 -4h-916v67h916v-67z" />
    <glyph glyph-name="angleleft" unicode="&#x2329;" horiz-adv-x="641" 
d="M379 -315l-41 -4l-244 983l723 950l39 -15l-592 -964z" />
    <glyph glyph-name="angleright" unicode="&#x232a;" horiz-adv-x="641" 
d="M346 1610l41 4l244 -983l-723 -950l-39 14l592 964z" />
    <glyph glyph-name="uni2460" unicode="&#x2460;" horiz-adv-x="1683" 
d="M793 -20q-182 0 -327.5 82.5t-227.5 229t-82 329.5q0 179 66.5 337.5t180 272t271.5 179t336 65.5q184 0 330.5 -82t228.5 -228t82 -329q0 -180 -66 -339t-180 -272.5t-273 -179t-339 -65.5zM795 43q166 0 313 61.5t251 167.5t164 252.5t60 311.5q0 251 -161.5 413
t-411.5 162q-221 0 -401.5 -104t-283 -285t-102.5 -401q0 -165 73.5 -297t204 -206.5t294.5 -74.5zM901 311h-123l142 570h-265v32q144 41 241 95.5t175 148.5h41z" />
    <glyph glyph-name="uni2461" unicode="&#x2461;" horiz-adv-x="1730" 
d="M817 -20q-182 0 -327.5 82.5t-227.5 229t-82 329.5q0 179 66.5 337.5t180 272t271.5 179t336 65.5q184 0 330.5 -82t228.5 -228t82 -329q0 -180 -66 -339t-180 -272.5t-273 -179t-339 -65.5zM819 43q166 0 313 61.5t251 167.5t164.5 252.5t60.5 311.5q0 251 -162 413
t-412 162q-221 0 -401.5 -104t-282.5 -285t-102 -401q0 -165 73 -297t203.5 -206.5t294.5 -74.5zM1145 324h-596v34l291 195q142 97 210 172.5t68 169.5q0 82 -53 131t-137 49q-115 0 -207 -100l-27 24q117 175 295 175q111 0 189.5 -72t78.5 -176q0 -58 -23 -109
t-69.5 -96.5t-93 -79.5t-117.5 -78l-168 -106v-6h359v-127z" />
    <glyph glyph-name="uni2462" unicode="&#x2462;" horiz-adv-x="1730" 
d="M817 -20q-182 0 -327.5 82.5t-227.5 229t-82 329.5q0 179 66.5 337.5t180 272t271.5 179t336 65.5q184 0 330.5 -82t228.5 -228t82 -329q0 -180 -66 -339t-180 -272.5t-273 -179t-339 -65.5zM819 43q166 0 313 61.5t251 167.5t164.5 252.5t60.5 311.5q0 251 -162 413
t-412 162q-221 0 -401.5 -104t-282.5 -285t-102 -401q0 -165 73 -297t203.5 -206.5t294.5 -74.5zM848 303q-109 0 -184.5 56.5t-116.5 138.5l26 20q88 -121 228 -121q100 0 161.5 54.5t61.5 138.5q0 68 -44.5 107t-119.5 44v33l266 246v6h-389v127h568v-35l-369 -336v-6
q104 -12 162.5 -70t58.5 -143q0 -113 -88 -186.5t-221 -73.5z" />
    <glyph glyph-name="uni2463" unicode="&#x2463;" horiz-adv-x="1730" 
d="M817 -20q-182 0 -327 82.5t-226.5 229t-81.5 329.5q0 179 66 337.5t179.5 272t272 179t336.5 65.5q184 0 330 -82t227.5 -228t81.5 -329q0 -180 -66 -339t-180 -272.5t-273 -179t-339 -65.5zM819 43q166 0 313 61.5t251 167.5t164.5 252.5t60.5 311.5q0 251 -162 413
t-412 162q-132 0 -253 -39t-217 -111t-167.5 -169t-110 -218t-38.5 -253q0 -165 73 -297t203.5 -206.5t294.5 -74.5zM967 324h-115l53 217h-422v34l662 594h33l-131 -522h176v-106h-203zM639 653v-6h293l86 342h-6z" />
    <glyph glyph-name="uni2464" unicode="&#x2464;" horiz-adv-x="1730" 
d="M817 -20q-182 0 -327.5 82.5t-227.5 229t-82 329.5q0 179 66.5 337.5t180 272t271.5 179t336 65.5q184 0 330.5 -82t228.5 -228t82 -329q0 -180 -66 -339t-180 -272.5t-273 -179t-339 -65.5zM819 43q166 0 313 61.5t251 167.5t164.5 252.5t60.5 311.5q0 251 -162 413
t-412 162q-221 0 -401.5 -104t-282.5 -285t-102 -401q0 -165 73 -297t203.5 -206.5t294.5 -74.5zM827 293q-103 0 -181 52t-124 144l29 21q89 -123 225 -123q109 0 176.5 58.5t67.5 148.5q0 71 -44.5 111t-119.5 40q-97 0 -190 -73h-9l197 471h412v-127h-416l-109 -262h7
q79 75 180 75q92 0 156.5 -65t64.5 -168q0 -123 -90 -213t-232 -90z" />
    <glyph glyph-name="uni2465" unicode="&#x2465;" horiz-adv-x="1730" 
d="M817 -20q-182 0 -327.5 82.5t-227.5 229t-82 329.5q0 179 66.5 337.5t180 272t271.5 179t336 65.5q184 0 330.5 -82t228.5 -228t82 -329q0 -180 -66 -339t-180 -272.5t-273 -179t-339 -65.5zM819 43q166 0 313 61.5t251 167.5t164.5 252.5t60.5 311.5q0 251 -162 413
t-412 162q-221 0 -401.5 -104t-282.5 -285t-102 -401q0 -165 73 -297t203.5 -206.5t294.5 -74.5zM850 293q-110 0 -185 67t-96 177q-22 114 14.5 239t118.5 217q72 81 165.5 125.5t197.5 44.5q124 0 215 -67l-16 -31q-79 43 -170 43q-152 0 -250 -101.5t-133 -295.5h6
q91 123 225 123q96 0 165 -67.5t69 -166.5q0 -126 -95.5 -216.5t-230.5 -90.5zM840 340q94 0 148 75t54 175q0 77 -42.5 123.5t-106.5 46.5q-112 0 -195 -121l-6 -53q-13 -104 26.5 -175t121.5 -71z" />
    <glyph glyph-name="uni2466" unicode="&#x2466;" horiz-adv-x="1730" 
d="M817 -20q-182 0 -327.5 82.5t-227.5 229t-82 329.5q0 179 66.5 337.5t180 272t271.5 179t336 65.5q184 0 330.5 -82t228.5 -228t82 -329q0 -180 -66 -339t-180 -272.5t-273 -179t-339 -65.5zM819 43q166 0 313 61.5t251 167.5t164.5 252.5t60.5 311.5q0 251 -162 413
t-412 162q-221 0 -401.5 -104t-282.5 -285t-102 -401q0 -165 73 -297t203.5 -206.5t294.5 -74.5zM1325 1106l-569 -791h-189v7l635 686v6h-485v127h608v-35z" />
    <glyph glyph-name="uni2467" unicode="&#x2467;" horiz-adv-x="1730" 
d="M817 -20q-182 0 -327.5 82.5t-227.5 229t-82 329.5q0 179 66.5 337.5t180 272t271.5 179t336 65.5q184 0 330.5 -82t228.5 -228t82 -329q0 -180 -66 -339t-180 -272.5t-273 -179t-339 -65.5zM819 43q166 0 313 61.5t251 167.5t164.5 252.5t60.5 311.5q0 251 -162 413
t-412 162q-221 0 -401.5 -104t-282.5 -285t-102 -401q0 -165 73 -297t203.5 -206.5t294.5 -74.5zM850 293q-135 0 -219 63.5t-84 167.5q0 97 78.5 163t205.5 81v6q-66 17 -103.5 60t-37.5 100q0 102 88.5 165.5t220.5 63.5q117 0 193 -57.5t76 -140.5t-65.5 -139t-174.5 -74
v-7q83 -15 131.5 -65t48.5 -123q0 -123 -102 -193.5t-256 -70.5zM946 780q79 0 134 58.5t55 144.5q0 59 -36.5 96t-94.5 37q-79 0 -131 -58.5t-52 -146.5q0 -58 34.5 -94.5t90.5 -36.5zM846 340q98 0 163.5 67.5t65.5 167.5q0 75 -45 117.5t-119 42.5q-100 0 -165.5 -65.5
t-65.5 -163.5q0 -78 46 -122t120 -44z" />
    <glyph glyph-name="uni2468" unicode="&#x2468;" horiz-adv-x="1730" 
d="M817 -20q-182 0 -327.5 82.5t-227.5 229t-82 329.5q0 179 66.5 337.5t180 272t271.5 179t336 65.5q184 0 330.5 -82t228.5 -228t82 -329q0 -180 -66 -339t-180 -272.5t-273 -179t-339 -65.5zM819 43q166 0 313 61.5t251 167.5t164.5 252.5t60.5 311.5q0 251 -162 413
t-412 162q-221 0 -401.5 -104t-282.5 -285t-102 -401q0 -165 73 -297t203.5 -206.5t294.5 -74.5zM1008 1161q108 0 182.5 -67t95.5 -176q22 -114 -14.5 -239.5t-118.5 -217.5q-72 -81 -165 -125.5t-197 -44.5q-125 0 -216 67l17 31q79 -43 170 -43q152 0 250.5 102
t132.5 295h-6q-91 -122 -226 -122q-96 0 -164.5 67t-68.5 166q0 126 96 216.5t232 90.5zM1016 1114q-94 0 -148.5 -75t-54.5 -175q0 -76 43 -123t107 -47q111 0 194 121l6 53q13 104 -26 175t-121 71z" />
    <glyph glyph-name="uni24EA" unicode="&#x24ea;" horiz-adv-x="1730" 
d="M817 -20q-182 0 -327.5 82.5t-227.5 229t-82 329.5q0 179 66.5 337.5t180 272t271.5 179t336 65.5q184 0 330.5 -82t228.5 -228t82 -329q0 -180 -66 -339t-180 -272.5t-273 -179t-339 -65.5zM819 43q166 0 313 61.5t251 167.5t164.5 252.5t60.5 311.5q0 251 -162 413
t-412 162q-221 0 -401.5 -104t-282.5 -285t-102 -401q0 -165 73 -297t203.5 -206.5t294.5 -74.5zM854 291q-146 0 -235 97.5t-89 254.5q0 138 60.5 257.5t168.5 191t238 71.5q147 0 236.5 -97t89.5 -253q0 -140 -60 -259.5t-168.5 -191t-240.5 -71.5zM854 348q74 0 138 45.5
t105 118t64 159.5t23 173q0 124 -48.5 193t-136.5 69q-98 0 -174.5 -77.5t-114.5 -189.5t-38 -231q0 -125 47 -192.5t135 -67.5z" />
    <glyph glyph-name="uni24FF" unicode="&#x24ff;" horiz-adv-x="1726" 
d="M799 -20q246 0 446.5 114t314 313t113.5 443q0 180 -79.5 323t-222 222.5t-322.5 79.5q-184 0 -346 -67t-277 -182t-181.5 -277t-66.5 -345q0 -134 46.5 -250t128 -198t197 -129t249.5 -47zM852 291q-146 0 -235 97.5t-89 254.5q0 138 60.5 257.5t168.5 191t238 71.5
q147 0 236.5 -97t89.5 -253q0 -140 -60 -259.5t-168.5 -191t-240.5 -71.5zM852 348q60 0 113.5 30t92 80t66.5 114t42 134t14 138q0 125 -48 193.5t-137 68.5q-98 0 -174 -77.5t-113.5 -189.5t-37.5 -231q0 -125 47 -192.5t135 -67.5z" />
    <glyph glyph-name="lozenge" unicode="&#x25ca;" horiz-adv-x="1212" 
d="M481 -10h-37l-288 729l686 715h39l290 -736zM545 145h6l479 496l-250 635h-6l-479 -500z" />
    <glyph glyph-name="openbullet" unicode="&#x25e6;" horiz-adv-x="862" 
d="M403 299q-97 0 -157 63t-60 156q0 124 92.5 213.5t217.5 89.5q97 0 157 -64t60 -157q0 -123 -93 -212t-217 -89zM410 358q96 0 169.5 72.5t73.5 167.5q0 70 -46 117t-118 47q-96 0 -169.5 -73t-73.5 -169q0 -70 45 -116t119 -46z" />
    <glyph glyph-name="uni2776" unicode="&#x2776;" horiz-adv-x="1679" 
d="M776 -20q185 0 347.5 67t278 182.5t182.5 276.5t67 344q0 135 -46.5 251.5t-128.5 198.5t-198.5 128.5t-251.5 46.5q-184 0 -346 -67t-277.5 -182t-182 -277t-66.5 -345q0 -179 79.5 -321.5t221.5 -222.5t321 -80zM899 311h-123l142 570h-265v32q144 41 241 95.5
t175 148.5h41z" />
    <glyph glyph-name="uni2777" unicode="&#x2777;" horiz-adv-x="1679" 
d="M776 -20q185 0 347.5 67t278 182.5t182.5 276.5t67 344q0 275 -175 451t-450 176q-184 0 -345.5 -67t-276.5 -182.5t-181.5 -277t-66.5 -344.5q0 -274 174.5 -450t445.5 -176zM1118 324h-594v34l289 195q70 47 114.5 82t86 78t61 87.5t19.5 94.5q0 83 -54 131.5
t-139 48.5q-115 0 -207 -100l-26 24q119 177 295 177q111 0 189.5 -73t78.5 -177q0 -58 -23 -109t-69.5 -96.5t-92.5 -79.5t-116 -78l-170 -106v-6h358v-127z" />
    <glyph glyph-name="uni2778" unicode="&#x2778;" horiz-adv-x="1679" 
d="M778 -16q184 0 346 67t277.5 182.5t182.5 277t67 343.5q0 274 -175 449.5t-450 175.5q-184 0 -345.5 -67t-276.5 -182t-181.5 -277t-66.5 -345q0 -272 174.5 -448t447.5 -176zM821 307q-107 0 -183.5 56.5t-117.5 138.5l27 20q88 -121 227 -121q100 0 162.5 54.5
t62.5 138.5q0 68 -45 107t-120 44v33l266 246v6h-387v127h565v-35l-369 -336v-6q104 -12 162.5 -70t58.5 -143q0 -113 -88 -186.5t-221 -73.5z" />
    <glyph glyph-name="uni2779" unicode="&#x2779;" horiz-adv-x="1679" 
d="M778 -16q184 0 346 67t277.5 182.5t182.5 277t67 343.5q0 274 -175 449.5t-450 175.5q-184 0 -345.5 -67t-276.5 -182t-181.5 -277t-66.5 -345q0 -272 174.5 -448t447.5 -176zM942 328h-117l56 217h-422v35l659 594h35l-131 -523h176v-106h-203zM614 657v-6h293l86 342
h-6z" />
    <glyph glyph-name="uni277A" unicode="&#x277a;" horiz-adv-x="1679" 
d="M778 -16q184 0 346 67t277.5 182.5t182.5 277t67 343.5q0 274 -175 449.5t-450 175.5q-184 0 -345.5 -67t-276.5 -182t-181.5 -277t-66.5 -345q0 -272 174.5 -448t447.5 -176zM801 297q-101 0 -179.5 52.5t-125.5 144.5l28 20q89 -123 228 -123q108 0 175.5 58.5
t67.5 148.5q0 71 -45.5 111.5t-120.5 40.5q-96 0 -190 -74h-6l194 471h412v-127h-414l-110 -262h6q80 76 180 76q93 0 158 -65.5t65 -168.5q0 -123 -90.5 -213t-232.5 -90z" />
    <glyph glyph-name="uni277B" unicode="&#x277b;" horiz-adv-x="1679" 
d="M778 -16q184 0 346 67t277.5 182.5t182.5 277t67 343.5q0 274 -175 449.5t-450 175.5q-184 0 -345.5 -67t-276.5 -182t-181.5 -277t-66.5 -345q0 -272 174.5 -448t447.5 -176zM823 297q-110 0 -183.5 67t-94.5 177q-22 114 14.5 239t118.5 217q72 81 164.5 125.5
t195.5 44.5q123 0 217 -67l-18 -31q-79 43 -170 43q-151 0 -249.5 -102t-133.5 -295h6q95 123 228 123q95 0 164 -68t69 -166q0 -126 -96 -216.5t-232 -90.5zM815 344q94 0 148.5 75t54.5 175q0 77 -43 123.5t-109 46.5q-109 0 -192 -121l-6 -53q-14 -104 25.5 -175
t121.5 -71z" />
    <glyph glyph-name="uni277C" unicode="&#x277c;" horiz-adv-x="1679" 
d="M776 -20q185 0 347.5 67t278 182.5t182.5 276.5t67 344q0 135 -46.5 251.5t-128.5 198.5t-198.5 128.5t-251.5 46.5q-184 0 -346 -67t-277.5 -182t-182 -277t-66.5 -345q0 -179 79.5 -321.5t221.5 -222.5t321 -80zM1298 1106l-569 -791h-188v7l633 686v6h-484v127h608
v-35z" />
    <glyph glyph-name="uni277D" unicode="&#x277d;" horiz-adv-x="1679" 
d="M778 -16q184 0 346 67t277.5 182.5t182.5 277t67 343.5q0 274 -175 449.5t-450 175.5q-184 0 -345.5 -67t-276.5 -182t-181.5 -277t-66.5 -345q0 -272 174.5 -448t447.5 -176zM825 297q-137 0 -220 63.5t-83 167.5q0 97 78.5 163t206.5 81v6q-66 17 -104.5 60t-38.5 100
q0 102 88.5 165.5t220.5 63.5q118 0 193 -57.5t75 -140.5t-65.5 -139t-174.5 -74v-6q83 -15 132 -65.5t49 -123.5q0 -123 -102 -193.5t-255 -70.5zM920 784q79 0 134.5 58.5t55.5 144.5q0 59 -37 96t-96 37q-78 0 -129 -58.5t-51 -146.5q0 -58 34 -94.5t89 -36.5zM821 344
q98 0 164 68t66 168q0 75 -45 117t-119 42q-101 0 -166.5 -65.5t-65.5 -163.5q0 -78 45.5 -122t120.5 -44z" />
    <glyph glyph-name="uni277E" unicode="&#x277e;" horiz-adv-x="1679" 
d="M778 -16q184 0 346 67t277.5 182.5t182.5 277t67 343.5q0 274 -175 449.5t-450 175.5q-184 0 -345.5 -67t-276.5 -182t-181.5 -277t-66.5 -345q0 -272 174.5 -448t447.5 -176zM981 1165q110 0 184.5 -66.5t96.5 -176.5q22 -114 -15 -239.5t-119 -217.5
q-72 -81 -165 -125.5t-197 -44.5q-124 0 -215 67l16 31q79 -43 170 -43q152 0 250 102t133 296h-6q-95 -123 -225 -123q-96 0 -165 67t-69 166q0 126 95.5 216.5t230.5 90.5zM989 1118q-93 0 -147 -75t-54 -175q0 -76 43 -123t107 -47q113 0 192 121l9 53q13 104 -27 175
t-123 71z" />
    <glyph glyph-name="uni300A" unicode="&#x300a;" horiz-adv-x="1017" 
d="M379 -315l-41 -4l-244 983l723 950l39 -15l-598 -964zM754 -315l-41 -4l-244 974l723 959l39 -15l-598 -974z" />
    <glyph glyph-name="uni300B" unicode="&#x300b;" horiz-adv-x="1015" 
d="M348 1610l39 4l244 -975l-723 -958l-39 14l600 975zM723 1610l39 4l244 -983l-723 -950l-39 14l600 964z" />
    <glyph glyph-name="uni300C" unicode="&#x300c;" horiz-adv-x="688" 
d="M958 1593v-51h-401l-215 -862h-145l227 913h534z" />
    <glyph glyph-name="uni300D" unicode="&#x300d;" horiz-adv-x="436" 
d="M-434 -299v51h403l215 862h144l-228 -913h-534z" />
    <glyph glyph-name="uni300E" unicode="&#x300e;" horiz-adv-x="849" 
d="M555 680h-358l229 913h655l-49 -200h-299zM526 1550l-204 -827h133l178 713h297l28 114h-432z" />
    <glyph glyph-name="uni300F" unicode="&#x300f;" horiz-adv-x="675" 
d="M205 598h358l-227 -913h-658l50 200h299zM233 -272l207 827h-135l-176 -713h-299l-29 -114h432z" />
    <glyph glyph-name="uni3010" unicode="&#x3010;" horiz-adv-x="667" 
d="M457 -299h-434l471 1892h434v-6q-304 -241 -475.5 -580.5t-171.5 -711.5q0 -338 176 -588v-6z" />
    <glyph glyph-name="uni3011" unicode="&#x3011;" horiz-adv-x="667" 
d="M295 1593h436l-471 -1892h-436v6q304 241 475.5 580.5t171.5 711.5q0 342 -176 588v6z" />
    <glyph glyph-name="uni3014" unicode="&#x3014;" horiz-adv-x="602" 
d="M383 -281l-37 -36l-332 317l334 1335l479 281l27 -45l-354 -207l-355 -1417z" />
    <glyph glyph-name="uni3015" unicode="&#x3015;" horiz-adv-x="604" 
d="M303 1575l37 37l332 -318l-334 -1335l-477 -281l-29 46l356 206l353 1418z" />
    <glyph glyph-name="uniE000" unicode="&#xe000;" horiz-adv-x="1622" 
d="M1804 1413l-1036 -1433l-627 862l58 43l571 -785l977 1354z" />
    <glyph glyph-name="uniE001" unicode="&#xe001;" horiz-adv-x="2142" 
d="M1915 1325h-1565v68h1565v-68zM1915 692h-1565v68h1565v-68zM1915 61h-1565v68h1565v-68z" />
    <glyph glyph-name="uniE002" unicode="&#xe002;" horiz-adv-x="2103" 
d="M1839 0h-1454v1454h1454v-1454zM457 1386v-1318h1310v1318h-1310z" />
    <glyph glyph-name="uniE003" unicode="&#xe003;" horiz-adv-x="2041" 
d="M1767 68v604h72v-672h-1454v1454h909v-68h-837v-1318h1310zM1096 330l-391 594l59 39l336 -514l735 993l53 -41z" />
    <glyph glyph-name="uniE004" unicode="&#xe004;" horiz-adv-x="1255" 
d="M956 662l-426 -594h551v-68h-1097v68h542l-428 594l29 24l360 -364h7v1101h67v-1101h8l361 364z" />
    <glyph glyph-name="uniE005" unicode="&#xe005;" horiz-adv-x="1312" 
d="M567 653v770h68v-770h6l360 363l29 -25l-428 -594h-4l-428 594l29 25l360 -363h8zM1151 0h-1098v68h1098v-68z" />
    <glyph glyph-name="uniF8FF" unicode="&#xf8ff;" horiz-adv-x="1832" 
d="M457 328q-8 21 18 57q31 39 84 92q-95 -22 -133 -22q-115 0 -170 28q-54 26 -63 74q-9 45 53 92q-79 47 -115 88q-63 71 -76 135q-11 65 -4 106.5t33 86.5q45 79 109 125q38 27 131 65q59 26 108 41q105 33 225 45q34 3 98 13t93 14q97 13 242 -2q185 -20 337 -76
q94 -36 230 -139q86 -68 86 -188q0 -75 -43 -146q-29 -49 -66.5 -80.5t-105.5 -70.5q41 -44 53 -78q32 -88 -98 -121q-85 -21 -215 -12l-68 6q30 -40 41 -72q14 -46 -27 -55q-32 -6 -51.5 -0.5t-50.5 26.5q-68 -61 -121 -10q-42 -33 -68 -34.5t-59 28.5q-41 -22 -56.5 -21.5
t-37.5 25.5q-90 -70 -162 8q-37 -47 -80 -51q-19 -2 -42.5 3t-28.5 20zM989 1239q-130 0 -198 -4q-110 -7 -166 -21q-77 -18 -88 -49q-9 -17 6 -35q29 -33 73 -51q48 -20 138 -28q107 -10 243 -4q174 8 217 90q13 27 5 41q-16 27 -78 36q-13 2 -67 13.5t-85 11.5zM1151 717
q43 2 129 22q64 16 106 45q54 36 54 76q0 31 -4 45q-12 45 -50 68q-45 26 -90 26q-104 0 -157 -16q-117 -36 -140 -156q-3 -17 0 -34q4 -18 17 -30t37 -24q48 -25 98 -22zM563 696q14 0 27.5 2t33 7t25.5 6q55 13 93.5 57t33.5 84q-10 84 -78 113q-78 32 -184 24
q-66 -5 -137 -35q-101 -44 -101 -86q0 -44 17 -74t61 -51q37 -17 95 -32q55 -15 114 -15zM778 489q12 -4 17 -4q9 0 25.5 23t23.5 47q15 50 12 78q-3 20 -20 43q-12 12 -29 -2q-23 -14 -33 -41q-21 -50 -16 -86l6 -35q9 -18 14 -23zM963 489q5 5 14 23l6 35q5 36 -16 86
q-11 29 -35 41q-14 14 -27 2q-17 -23 -20 -43q-3 -28 12 -78q8 -25 23.5 -47.5t25.5 -22.5q5 0 17 4zM858 12q-92 8 -184 60q-23 12 -56.5 29.5t-45.5 24t-28.5 17t-31.5 21.5q-27 20 -43 43q-10 21 -4 31q8 13 19.5 17t37.5 -3.5t66 -30.5q14 14 23 21t25 11.5t36 2.5
q34 -4 59 -23q26 15 46 20.5t44.5 0t48.5 -26.5q39 31 66 33q26 2 59 -31l4.5 4.5t5.5 6t6 6t8.5 5.5t10.5 4.5t13.5 3.5t15.5 1q21 0 35 -7t19.5 -14t14.5 -24q18 23 31 33q23 18 39 22.5t43 -2.5q26 -7 47 -28q10 -8 8 -21t-20 -39q-21 -33 -123 -110q-83 -62 -184 -62
q-72 0 -111 4z" />
    <glyph glyph-name="AE.ss07" horiz-adv-x="1873" 
d="M166 240l960 1183h840l-86 -344h-35q21 152 -39 218.5t-229 66.5h-289l-153 -612h149q126 0 197 51t110 162h35l-121 -486h-35q16 111 -26 162t-168 51h-156l-157 -633h323q172 0 276 81.5t175 283.5h35l-105 -424h-1065v35q123 12 171 49.5t75 146.5l63 252h-469
l-206 -256q-28 -35 -43 -58.5t-20.5 -46.5t7 -38t43 -27.5t82.5 -21.5v-35h-430v35q95 22 154.5 66.5t136.5 138.5zM496 547h430l188 753h-8z" />
    <glyph glyph-name="AEacute.ss07" horiz-adv-x="1873" 
d="M1796 1817v-7l-319 -268h-41l137 275h223zM166 240l960 1183h840l-86 -344h-35q21 152 -39 218.5t-229 66.5h-289l-153 -612h149q126 0 197 51t110 162h35l-121 -486h-35q16 111 -26 162t-168 51h-156l-157 -633h323q172 0 276 81.5t175 283.5h35l-105 -424h-1065v35
q123 12 171 49.5t75 146.5l63 252h-469l-206 -256q-28 -35 -43 -58.5t-20.5 -46.5t7 -38t43 -27.5t82.5 -21.5v-35h-430v35q95 22 154.5 66.5t136.5 138.5zM496 547h430l188 753h-8z" />
    <glyph glyph-name="uni01E2.ss07" horiz-adv-x="1873" 
d="M1262 1688h575v-66h-575v66zM166 240l960 1183h840l-86 -344h-35q21 152 -39 218.5t-229 66.5h-289l-153 -612h149q126 0 197 51t110 162h35l-121 -486h-35q16 111 -26 162t-168 51h-156l-157 -633h323q172 0 276 81.5t175 283.5h35l-105 -424h-1065v35q123 12 171 49.5
t75 146.5l63 252h-469l-206 -256q-28 -35 -43 -58.5t-20.5 -46.5t7 -38t43 -27.5t82.5 -21.5v-35h-430v35q95 22 154.5 66.5t136.5 138.5zM496 547h430l188 753h-8z" />
    <glyph glyph-name="C.ss07" horiz-adv-x="1431" 
d="M764 -20q-124 0 -234.5 45.5t-193 126.5t-130.5 201t-48 261q0 129 37.5 251.5t111 226.5t173.5 183t232.5 124t280.5 45q137 0 264.5 -34.5t217.5 -86.5l-80 -315h-35q-4 183 -103.5 278.5t-275.5 95.5q-111 0 -212.5 -40t-179 -110.5t-135 -162.5t-88 -199.5
t-30.5 -218.5q0 -252 137 -401.5t346 -149.5q147 0 271 62t239 194l31 -26q-243 -350 -596 -350z" />
    <glyph glyph-name="Cacute.ss07" horiz-adv-x="1431" 
d="M967 1542h-41l137 275h223v-7zM764 -20q-124 0 -234.5 45.5t-193 126.5t-130.5 201t-48 261q0 129 37.5 251.5t111 226.5t173.5 183t232.5 124t280.5 45q137 0 264.5 -34.5t217.5 -86.5l-80 -315h-35q-4 183 -103.5 278.5t-275.5 95.5q-111 0 -212.5 -40t-179 -110.5
t-135 -162.5t-88 -199.5t-30.5 -218.5q0 -252 137 -401.5t346 -149.5q147 0 271 62t239 194l31 -26q-243 -350 -596 -350z" />
    <glyph glyph-name="Ccaron.ss07" horiz-adv-x="1431" 
d="M1278 1819l47 -7l-309 -276h-41l-180 279l41 4l182 -131zM764 -20q-124 0 -234.5 45.5t-193 126.5t-130.5 201t-48 261q0 129 37.5 251.5t111 226.5t173.5 183t232.5 124t280.5 45q137 0 264.5 -34.5t217.5 -86.5l-80 -315h-35q-4 183 -103.5 278.5t-275.5 95.5
q-111 0 -212.5 -40t-179 -110.5t-135 -162.5t-88 -199.5t-30.5 -218.5q0 -252 137 -401.5t346 -149.5q147 0 271 62t239 194l31 -26q-243 -350 -596 -350z" />
    <glyph glyph-name="Ccedilla.ss07" horiz-adv-x="1431" 
d="M993 1444q137 0 264.5 -34.5t217.5 -86.5l-80 -315h-35q-4 183 -103.5 278.5t-275.5 95.5q-111 0 -212.5 -40t-179 -110.5t-135 -162.5t-88 -199.5t-30.5 -218.5q0 -252 137 -401.5t346 -149.5q147 0 271 62t239 194l31 -26q-243 -350 -596 -350h-21l-63 -97l4 -2
q26 13 53 13q55 0 90 -35.5t35 -89.5q0 -79 -62 -131t-151 -52q-130 0 -203 111l25 24q66 -69 147 -69q62 0 105 31t43 81q0 37 -25.5 57.5t-62.5 20.5q-40 0 -80 -24l-8 2l104 164q-112 12 -210 62.5t-170.5 130.5t-114 193t-41.5 244q0 129 37.5 251.5t111 226.5
t173.5 183t232.5 124t280.5 45z" />
    <glyph glyph-name="Ccircumflex.ss07" horiz-adv-x="1431" 
d="M786 1540l-47 4l310 279h41l178 -279l-41 -4l-180 131zM764 -20q-124 0 -234.5 45.5t-193 126.5t-130.5 201t-48 261q0 129 37.5 251.5t111 226.5t173.5 183t232.5 124t280.5 45q137 0 264.5 -34.5t217.5 -86.5l-80 -315h-35q-4 183 -103.5 278.5t-275.5 95.5
q-111 0 -212.5 -40t-179 -110.5t-135 -162.5t-88 -199.5t-30.5 -218.5q0 -252 137 -401.5t346 -149.5q147 0 271 62t239 194l31 -26q-243 -350 -596 -350z" />
    <glyph glyph-name="Cdotaccent.ss07" horiz-adv-x="1431" 
d="M1032 1579q-43 0 -70.5 27t-27.5 71q0 50 36.5 86.5t88.5 36.5q43 0 70.5 -26.5t27.5 -69.5q0 -52 -36.5 -88.5t-88.5 -36.5zM764 -20q-124 0 -234.5 45.5t-193 126.5t-130.5 201t-48 261q0 129 37.5 251.5t111 226.5t173.5 183t232.5 124t280.5 45q137 0 264.5 -34.5
t217.5 -86.5l-80 -315h-35q-4 183 -103.5 278.5t-275.5 95.5q-111 0 -212.5 -40t-179 -110.5t-135 -162.5t-88 -199.5t-30.5 -218.5q0 -252 137 -401.5t346 -149.5q147 0 271 62t239 194l31 -26q-243 -350 -596 -350z" />
    <glyph glyph-name="E.ss07" horiz-adv-x="1323" 
d="M1186 424h35l-105 -424h-1153v35q124 12 173 55t79 158l231 936q13 48 15.5 80.5t-3.5 55.5t-25.5 36.5t-47 21t-72.5 11.5v34h1102l-86 -344h-35q21 152 -38.5 218.5t-225.5 66.5h-381l-151 -612h227q134 0 203.5 49t111.5 164h35l-121 -486h-34q16 112 -26.5 162.5
t-172.5 50.5h-240l-155 -633h409q173 0 277.5 82t173.5 283z" />
    <glyph glyph-name="Eacute.ss07" horiz-adv-x="1323" 
d="M893 1542h-41l137 275h223v-7zM1186 424h35l-105 -424h-1153v35q124 12 173 55t79 158l231 936q13 48 15.5 80.5t-3.5 55.5t-25.5 36.5t-47 21t-72.5 11.5v34h1102l-86 -344h-35q21 152 -38.5 218.5t-225.5 66.5h-381l-151 -612h227q134 0 203.5 49t111.5 164h35
l-121 -486h-34q16 112 -26.5 162.5t-172.5 50.5h-240l-155 -633h409q173 0 277.5 82t173.5 283z" />
    </font>
</defs>
</svg>
