<?xml version="1.0" standalone="no"?>
<!DOCTYPE svg PUBLIC "-//W3C//DTD SVG 1.1//EN" "http://www.w3.org/Graphics/SVG/1.1/DTD/svg11.dtd" >
<svg xmlns="http://www.w3.org/2000/svg" xmlns:xlink="http://www.w3.org/1999/xlink" version="1.1">
<metadata>
Created by FontForge 20170731 at Sun Jan 22 08:00:33 2023
 By Aleksey,,,
Copyright 2021 Dinamo (Johannes Breyer, Fabian Harb). All rights reserved.
</metadata>
<defs>
<font id="ABCArizonaText-MediumItalic" horiz-adv-x="1228" >
  <font-face 
    font-family="ABC Arizona Text Unlicensed Trial Medium"
    font-weight="500"
    font-style="italic"
    font-stretch="normal"
    units-per-em="2048"
    panose-1="2 0 0 4 0 2 0 6 0 3"
    ascent="1610"
    descent="-438"
    x-height="965"
    cap-height="1423"
    bbox="-479 -535 2511 1882"
    underline-thickness="102"
    underline-position="-307"
    slope="-14"
    unicode-range="U+0020-FB02"
  />
<missing-glyph horiz-adv-x="1271" 
d="M981 0h-930l365 1454h930zM494 1362l-318 -1270h727l320 1270h-729z" />
    <glyph glyph-name="fi" unicode="fi" horiz-adv-x="1259" 
d="M336 965l33 131q48 188 191.5 286.5t346.5 98.5q170 0 318 -58v-272h-39q-41 108 -121 174t-178 66q-203 0 -258 -217l-51 -209h630l-194 -775q-20 -88 -5.5 -113t85.5 -34v-43h-486v43q87 10 115.5 36.5t52.5 113.5l170 690h-389l-172 -684q-23 -91 -6 -120t102 -36v-43
h-506v43q86 7 116.5 35t53.5 119l170 686h-182v82h203z" />
    <glyph glyph-name="fl" unicode="fl" horiz-adv-x="1259" 
d="M141 186l174 697h-182v82h203l29 116q50 194 187.5 297t326.5 103q141 0 262 -54l182 39h8l-317 -1273q-22 -85 -7 -113t85 -37v-43h-484v43q86 10 115 36.5t51 113.5l256 1024q3 79 -41 130.5t-117 51.5q-189 0 -256 -271l-41 -163h246v-82h-266l-174 -697
q-20 -82 -2 -109t100 -34v-43h-504v43q84 9 115 36t51 107z" />
    <glyph glyph-name="f_b.liga" unicode="fb" horiz-adv-x="1853" 
d="M141 188l174 695h-182v82h203l29 116q48 193 186.5 296.5t329.5 103.5q139 0 260 -54l182 39h10l-166 -657h11q66 91 139.5 137.5t169.5 46.5q133 0 220 -107t87 -272q0 -131 -48 -250.5t-128 -204.5t-189 -135.5t-227 -50.5q-159 0 -276 88h-6l-152 -69h-45l307 1225
q4 79 -40.5 130.5t-115.5 51.5q-94 0 -158.5 -63t-99.5 -208l-41 -163h246v-82h-266l-174 -695q-21 -82 -2.5 -110t100.5 -35v-43h-504v43q85 9 115.5 35.5t50.5 109.5zM1198 51q96 0 180 73t132.5 192.5t48.5 252.5q0 128 -50.5 200.5t-136.5 72.5q-64 0 -117 -35.5
t-114 -99.5l-97 -383q-30 -122 14 -197.5t140 -75.5z" />
    <glyph glyph-name="f_f.liga" unicode="ff" horiz-adv-x="1423" 
d="M1462 1481q122 0 215 -35v-227h-39q-26 71 -75 121.5t-119 50.5q-134 0 -170 -150l-68 -276h246v-82h-266l-172 -688q-23 -89 -6 -117t102 -35v-43h-506v43q85 9 116 36t54 116l170 688h-387l-172 -690q-23 -86 -5.5 -114.5t101.5 -35.5v-43h-506v43q85 9 116 36t54 114
l170 690h-182v82h205l22 96q46 180 184 280.5t316 100.5q155 0 283 -74q122 113 319 113zM967 965l39 161q5 21 22 74q-7 72 -53.5 116t-114.5 44q-184 0 -248 -254l-34 -141h389z" />
    <glyph glyph-name="f_f_b.liga" unicode="ffb" horiz-adv-x="2480" 
d="M2114 993q133 0 220 -107t87 -272q0 -131 -48 -250.5t-128 -204.5t-189 -135.5t-227 -50.5q-160 0 -277 88h-8l-149 -69h-45l307 1225q4 79 -40.5 130.5t-115.5 51.5q-94 0 -158.5 -63t-99.5 -208l-41 -163h246v-82h-266l-174 -695q-21 -82 -2.5 -110t100.5 -35v-43h-504
v43q85 9 115.5 35.5t50.5 109.5l174 695h-385l-172 -690q-23 -86 -5.5 -114.5t101.5 -35.5v-43h-506v43q85 9 116 36t54 114l170 690h-182v82h205l22 96q46 180 184 280.5t316 100.5q161 0 295 -82q142 121 352 121q139 0 260 -54l181 39h10l-164 -657h10q66 90 140 137
t170 47zM963 965l28 116q15 59 39 111q-8 76 -54 122t-116 46q-184 0 -248 -254l-34 -141h385zM1825 51q96 0 179 73t131 192.5t48 252.5q0 128 -49.5 200.5t-134.5 72.5q-65 0 -118 -35t-114 -100l-96 -383q-30 -122 14 -197.5t140 -75.5z" />
    <glyph glyph-name="f_f_h.liga" unicode="ffh" horiz-adv-x="2480" 
d="M2341 608l-105 -424q-20 -82 -5.5 -107t83.5 -34v-43h-469v43q73 9 102 36t50 111l114 459q22 90 -10.5 142.5t-97.5 52.5q-111 0 -234 -137l-133 -529q-17 -77 -3 -100.5t73 -34.5v-43h-471v43q81 8 112 32.5t52 106.5l258 1035q4 78 -40.5 130t-115.5 52
q-94 0 -158.5 -63t-99.5 -208l-41 -163h246v-82h-266l-174 -695q-21 -82 -2.5 -110t100.5 -35v-43h-504v43q85 9 115.5 35.5t50.5 109.5l174 695h-385l-172 -690q-23 -86 -5.5 -114.5t101.5 -35.5v-43h-506v43q85 9 116 36t54 114l170 690h-182v82h205l22 96
q46 180 184 280.5t316 100.5q161 0 295 -82q142 121 352 121q139 0 260 -54l183 39h8l-164 -657h10q73 90 146.5 137t167.5 47q83 0 144 -47.5t84 -133t-5 -204.5zM963 965l28 116q15 59 39 111q-8 76 -54 122t-116 46q-184 0 -248 -254l-34 -141h385z" />
    <glyph glyph-name="f_f_i.liga" unicode="ffi" horiz-adv-x="1882" 
d="M1509 1391q-203 0 -258 -217l-51 -209h631l-193 -775q-11 -46 -13.5 -71t7.5 -41.5t28.5 -23t55.5 -11.5v-43h-483v43q86 10 115 36.5t51 113.5l172 690h-391l-172 -684q-23 -91 -5.5 -120t101.5 -36v-43h-506v43q86 7 116.5 35t53.5 119l172 686h-383l-172 -690
q-23 -86 -5.5 -114.5t101.5 -35.5v-43h-506v43q85 9 116 36t54 114l170 690h-182v82h205l22 96q46 180 184 280.5t316 100.5q161 0 295 -82q145 121 375 121q169 0 317 -58v-272h-39q-41 108 -121 174t-178 66zM961 965l32 131q9 40 35 102q-8 74 -53.5 118t-114.5 44
q-184 0 -248 -254l-34 -141h383z" />
    <glyph glyph-name="f_f_k.liga" unicode="ffk" horiz-adv-x="2435" 
d="M2511 965v-43q-102 -18 -175 -53t-171 -107l-236 -176l410 -580v-6h-285l-307 451l-55 -41l-56 -224q-20 -79 -5.5 -106.5t83.5 -36.5v-43h-483v43q81 9 112 34.5t52 108.5l258 1031q4 79 -40 130.5t-116 51.5q-92 0 -156.5 -63t-99.5 -208l-41 -163h246v-82h-266
l-174 -695q-21 -82 -2.5 -110t100.5 -35v-43h-506v43q85 9 115.5 35.5t52.5 109.5l174 695h-383l-172 -690q-23 -86 -5.5 -114.5t101.5 -35.5v-43h-506v43q85 9 116 36t54 114l170 690h-182v82h205l22 96q46 180 184 280.5t316 100.5q161 0 295 -82q139 121 350 121
q139 0 260 -54l183 39h8l-236 -940h11l358 269q151 114 -8 127v43h430zM961 965l28 116q12 50 41 113q-7 75 -54 120.5t-116 45.5q-184 0 -248 -254l-34 -141h383z" />
    <glyph glyph-name="f_f_l.liga" unicode="ffl" horiz-adv-x="1882" 
d="M1956 1466l-320 -1273q-20 -85 -5 -113t85 -37v-43h-485v43q86 10 115 36.5t51 113.5l256 1024q5 79 -39.5 130.5t-118.5 51.5q-91 0 -155 -64t-101 -207l-39 -163h244v-82h-264l-174 -697q-20 -82 -2 -109t100 -34v-43h-506v43q84 9 115 36t53 107l172 697h-381
l-172 -690q-23 -86 -5.5 -114.5t101.5 -35.5v-43h-506v43q85 9 116 36t54 114l170 690h-182v82h205l22 96q46 180 184 280.5t316 100.5q161 0 295 -82q139 121 348 121q141 0 262 -54l183 39h8zM958 965l31 116q16 64 39 115q-8 74 -53.5 119t-114.5 45q-184 0 -248 -254
l-34 -141h380z" />
    <glyph glyph-name="f_h.liga" unicode="fh" horiz-adv-x="1849" 
d="M143 188l174 695h-182v82h203l29 116q48 193 186.5 296.5t329.5 103.5q139 0 260 -54l182 39h8l-164 -657h11q73 90 146.5 137t166.5 47q83 0 144 -47.5t84 -133t-5 -204.5l-104 -424q-20 -82 -5.5 -107t83.5 -34v-43h-469v43q73 9 101 36t50 111l115 459
q22 90 -11 142.5t-98 52.5q-110 0 -233 -137l-133 -529q-17 -77 -3.5 -100.5t72.5 -34.5v-43h-471v43q81 8 112 32.5t52 106.5l258 1035q4 78 -40 130t-115 52q-94 0 -159 -63t-100 -208l-40 -163h245v-82h-266l-174 -695q-21 -82 -2.5 -110t100.5 -35v-43h-504v43
q85 9 115.5 35.5t50.5 109.5z" />
    <glyph glyph-name="f_k.liga" unicode="fk" horiz-adv-x="1812" 
d="M1888 965v-43q-103 -18 -176 -52.5t-172 -107.5l-233 -176l407 -580v-6h-282l-308 451l-57 -41l-55 -224q-20 -80 -4.5 -107t84.5 -36v-43h-486v43q83 9 114 34.5t52 108.5l258 1031q4 79 -40.5 130.5t-115.5 51.5q-92 0 -156.5 -63t-101.5 -208l-41 -163h246v-82h-266
l-172 -695q-23 -82 -4.5 -110t102.5 -35v-43h-506v43q85 9 115.5 35.5t52.5 109.5l172 695h-182v82h203l29 116q50 194 188 297t330 103q136 0 260 -54l180 39h8l-235 -940h10l358 269q154 113 -6 127v43h430z" />
    <glyph glyph-name=".notdef" horiz-adv-x="1271" 
d="M981 0h-930l365 1454h930zM494 1362l-318 -1270h727l320 1270h-729z" />
    <glyph glyph-name=".null" horiz-adv-x="0" 
 />
    <glyph glyph-name="nonmarkingreturn" horiz-adv-x="682" 
 />
    <glyph glyph-name="space" unicode=" " horiz-adv-x="489" 
 />
    <glyph glyph-name="exclam" unicode="!" horiz-adv-x="552" 
d="M289 399h-68l137 1024h306zM186 -27q-63 0 -101 39.5t-38 98.5q0 73 49 122.5t119 49.5q65 0 103 -40t38 -102q0 -73 -49.5 -120.5t-120.5 -47.5z" />
    <glyph glyph-name="quotedbl" unicode="&#x22;" horiz-adv-x="772" 
d="M305 821h-55l59 602h240zM680 821h-55l59 602h240z" />
    <glyph glyph-name="numbersign" unicode="#" horiz-adv-x="1335" 
d="M1384 987v-86h-290l-172 -393h256v-86h-293l-185 -422h-96l184 422h-376l-185 -422h-96l184 422h-249v86h286l172 393h-252v86h289l191 436h96l-191 -436h379l191 436h94l-191 -436h254zM449 508h376l172 393h-376z" />
    <glyph glyph-name="dollar" unicode="$" horiz-adv-x="1107" 
d="M887 1577l-41 -160q154 -15 278 -80v-356h-43q-62 303 -256 350l-127 -510l82 -59q108 -76 162.5 -159t54.5 -191q0 -131 -72.5 -233t-187 -154t-248.5 -52h-4l-39 -157h-84l41 161q-191 21 -342 121v365h43q95 -353 320 -400l127 502l-90 64q-207 148 -207 354
q0 194 143 316t363 122h4l39 156h84zM485 1104q0 -71 34.5 -126t107.5 -108l116 469q-113 -2 -185.5 -68t-72.5 -167zM762 295q0 65 -34.5 115t-106.5 104l-115 -459q111 5 183.5 70.5t72.5 169.5z" />
    <glyph glyph-name="percent" unicode="%" horiz-adv-x="1660" 
d="M494 684q-128 0 -209.5 87t-81.5 230q0 112 48 212.5t139.5 165.5t205.5 65q127 0 210 -87t83 -231q0 -109 -49 -210t-141.5 -166.5t-204.5 -65.5zM1604 1423h-115l-1323 -1423h115zM494 758q49 0 89.5 44.5t65 111.5t38 139t13.5 133q0 184 -106 184q-49 0 -89 -44
t-64 -110.5t-37 -138.5t-13 -135q0 -90 26.5 -137t76.5 -47zM1184 -16q-128 0 -209.5 87t-81.5 230q0 83 28.5 162.5t79 141.5t125 100t160.5 38q127 0 210 -86.5t83 -230.5q0 -109 -49 -210t-141.5 -166.5t-204.5 -65.5zM1184 57q64 0 113.5 76t71.5 171.5t22 180.5
q0 91 -27.5 138t-79.5 47q-49 0 -89 -44t-64 -110.5t-37 -138.5t-13 -135q0 -90 26.5 -137.5t76.5 -47.5z" />
    <glyph glyph-name="ampersand" unicode="&#x26;" horiz-adv-x="1323" 
d="M1073 811h281v-10l-371 -434l236 -357v-10h-267l-110 170h-11q-166 -197 -399 -197q-168 0 -279.5 104t-111.5 255q0 77 28.5 142.5t82 116t116.5 88.5t146 73l39 16q-37 60 -57.5 98.5t-39 95.5t-18.5 109q0 162 115.5 270.5t302.5 108.5q155 0 252.5 -77t97.5 -197
q0 -111 -81 -191t-232 -145l-97 -39l240 -363h10zM748 1368q-88 0 -139.5 -69t-51.5 -166q0 -121 96 -267l6 -8h11l35 19q198 106 198 297q0 86 -40.5 140t-114.5 54zM561 135q144 0 240 96l-309 478l-19 -2q-89 -50 -137.5 -125.5t-48.5 -169.5q0 -119 75 -198t199 -79z
" />
    <glyph glyph-name="quotesingle" unicode="'" horiz-adv-x="397" 
d="M305 821h-55l59 602h240z" />
    <glyph glyph-name="parenleft" unicode="(" horiz-adv-x="681" 
d="M453 -295l-52 -29q-309 356 -309 756q0 340 202.5 644.5t571.5 545.5l41 -41q-272 -250 -422.5 -588.5t-150.5 -681.5q0 -346 119 -606z" />
    <glyph glyph-name="parenright" unicode=")" horiz-adv-x="681" 
d="M313 1589l52 29q309 -356 309 -756q0 -339 -202 -644t-570 -546l-43 41q272 250 422.5 588.5t150.5 681.5q0 353 -119 606z" />
    <glyph glyph-name="asterisk" unicode="*" horiz-adv-x="892" 
d="M590 1047l-158 -308l-145 99l262 231v4l-291 -72v193l299 -74l2 2l-166 254l176 76l35 -309l2 2l158 307l143 -98l-260 -236v-2l289 76v-195l-297 72l-2 -2l164 -252l-174 -76l-35 308h-2z" />
    <glyph glyph-name="plus" unicode="+" horiz-adv-x="1185" 
d="M643 528h424v-92h-424v-424h-96v424h-426v92h426v426h96v-426z" />
    <glyph glyph-name="comma" unicode="," horiz-adv-x="501" 
d="M193 283q66 0 106.5 -44.5t40.5 -107.5q0 -48 -21 -89.5t-67 -98.5l-234 -281h-90l267 313q-10 -2 -29 -2q-63 0 -102 39t-39 101q0 68 49 119t119 51z" />
    <glyph glyph-name="hyphen" unicode="-" horiz-adv-x="817" 
d="M158 561h563v101h-563v-101z" />
    <glyph glyph-name="period" unicode="." horiz-adv-x="483" 
d="M158 -27q-63 0 -100.5 39.5t-37.5 98.5q0 73 48.5 122.5t119.5 49.5q63 0 102.5 -40.5t39.5 -101.5q0 -73 -49.5 -120.5t-122.5 -47.5z" />
    <glyph glyph-name="slash" unicode="/" horiz-adv-x="735" 
d="M961 1505h-111l-954 -1585h108z" />
    <glyph glyph-name="zero" unicode="0" horiz-adv-x="1259" 
d="M559 -27q-194 0 -310 144t-116 391q0 127 30.5 257t90 247t139.5 208t188 145t226 54q192 0 309 -145.5t117 -392.5q0 -129 -30.5 -259.5t-90.5 -246.5t-140 -206t-187.5 -143t-225.5 -53zM555 59q76 0 145 69t118 178t86 240.5t55 258t18 229.5q0 299 -168 299
q-75 0 -144 -70t-117.5 -180t-85.5 -242t-55 -259t-18 -228q0 -151 41 -223t125 -72z" />
    <glyph glyph-name="one" unicode="1" horiz-adv-x="796" 
d="M444 0h-241l252 1012h-289v53q173 56 308.5 138t244.5 204h78z" />
    <glyph glyph-name="two" unicode="2" horiz-adv-x="1087" 
d="M897 225v-225h-932v57l434 326q111 84 185 149.5t136.5 138.5t92 146t29.5 150q0 128 -78.5 205t-204.5 77q-166 0 -297 -143l-41 39q73 120 188 197t263 77q181 0 298 -108.5t117 -274.5q0 -63 -15 -120t-48.5 -111t-74.5 -102t-106.5 -102.5t-130 -102t-157.5 -111.5
l-217 -154v-8h559z" />
    <glyph glyph-name="three" unicode="3" horiz-adv-x="1105" 
d="M487 -27q-90 0 -167.5 25t-135 70t-99.5 99t-73 120l45 32q120 -176 326 -176q148 0 247 89.5t99 222.5q0 116 -75.5 184t-202.5 74v55l448 391v8h-602v226h926v-58l-635 -547v-10q189 -24 289 -123t100 -247q0 -124 -68 -224.5t-179.5 -155.5t-242.5 -55z" />
    <glyph glyph-name="four" unicode="4" horiz-adv-x="1259" 
d="M782 0h-223l86 348h-653v55l1077 1004h66l-213 -854h286v-205h-338zM815 1067l-541 -504v-10h422l129 514h-10z" />
    <glyph glyph-name="five" unicode="5" horiz-adv-x="1103" 
d="M469 -27q-92 0 -170 25t-135.5 70.5t-99 99t-72.5 119.5l47 32q117 -176 330 -176q159 0 266.5 90t107.5 232q0 114 -71 180t-191 66q-131 0 -280 -95h-11l308 777h676v-226h-685l-170 -432h11q129 119 293 119q69 0 134.5 -25t118 -71t84 -119.5t31.5 -163.5
q0 -137 -68 -252t-188 -182.5t-266 -67.5z" />
    <glyph glyph-name="six" unicode="6" horiz-adv-x="1218" 
d="M594 -27q-177 0 -295.5 106t-155.5 275q-41 204 21.5 420t208.5 373q244 260 579 260q104 0 199 -30t160 -79l-33 -53q-114 62 -252 62q-243 0 -402.5 -165t-224.5 -456h11q134 182 333 182q158 0 266.5 -108t108.5 -271q0 -140 -65.5 -257.5t-186.5 -188t-272 -70.5z
M578 57q70 0 127 36t91 94t52 125.5t18 136.5q0 131 -62.5 207.5t-164.5 76.5q-149 0 -254 -158l-14 -86q-15 -83 -8 -161t30 -138t71 -96.5t114 -36.5z" />
    <glyph glyph-name="seven" unicode="7" horiz-adv-x="1021" 
d="M1006 1167v-10l-1020 -1149v-8h336l884 1335v58h-954v-226h754z" />
    <glyph glyph-name="eight" unicode="8" horiz-adv-x="1243" 
d="M541 -27q-214 0 -343.5 104.5t-129.5 274.5q0 164 131 274.5t336 135.5v10q-109 27 -174.5 97t-65.5 171q0 112 68 199t184.5 133.5t259.5 46.5q192 0 314 -91t122 -232q0 -139 -108 -235t-291 -124v-10q129 -27 206.5 -107.5t77.5 -197.5q0 -137 -79 -240t-211.5 -156
t-296.5 -53zM721 788q83 0 146.5 52.5t94.5 131t31 165.5q0 91 -48 144.5t-132 53.5q-81 0 -144 -49.5t-94.5 -126.5t-31.5 -164q0 -95 46.5 -151t131.5 -56zM537 57q100 0 180 61.5t121 154.5t41 194q0 110 -60 174t-160 64q-99 0 -178.5 -60.5t-121.5 -153t-42 -194.5
q0 -113 59.5 -176.5t160.5 -63.5z" />
    <glyph glyph-name="nine" unicode="9" horiz-adv-x="1222" 
d="M381 -14q-106 0 -204 30t-163 82l31 54q122 -64 266 -64q250 0 412.5 174t212.5 481h-10q-136 -190 -351 -190q-151 0 -253.5 110.5t-102.5 276.5q0 129 60.5 238t175.5 175t260 66q173 0 292.5 -101t163.5 -271q50 -200 -5.5 -421.5t-200.5 -379.5q-238 -260 -584 -260z
M690 690q142 0 256 164l8 82q13 106 -5 195t-74 147.5t-142 58.5q-87 0 -149 -53t-88.5 -129.5t-26.5 -165.5q0 -134 59.5 -216.5t161.5 -82.5z" />
    <glyph glyph-name="colon" unicode=":" horiz-adv-x="548" 
d="M346 670q-63 0 -101 39t-38 98q0 73 49 122.5t119 49.5q65 0 103 -40t38 -101q0 -73 -49.5 -120.5t-120.5 -47.5zM174 -27q-63 0 -101 39.5t-38 98.5q0 73 49 122.5t119 49.5q65 0 103 -40t38 -102q0 -73 -49.5 -120.5t-120.5 -47.5z" />
    <glyph glyph-name="semicolon" unicode=";" horiz-adv-x="561" 
d="M367 979q63 0 101 -40t38 -101q0 -73 -49.5 -120.5t-120.5 -47.5q-63 0 -101 39t-38 98q0 73 49.5 122.5t120.5 49.5zM217 283q67 0 107.5 -44t40.5 -108q0 -47 -21.5 -89t-67.5 -99l-233 -281h-90l266 313q-10 -2 -29 -2q-63 0 -102 39t-39 101q0 68 49 119t119 51z" />
    <glyph glyph-name="less" unicode="&#x3c;" horiz-adv-x="1183" 
d="M1020 109v-101l-940 428v92l940 428v-102l-815 -371v-6z" />
    <glyph glyph-name="equal" unicode="=" horiz-adv-x="1286" 
d="M1118 614h-946v91h946v-91zM1118 262h-946v92h946v-92z" />
    <glyph glyph-name="greater" unicode="&#x3e;" horiz-adv-x="1181" 
d="M1104 436l-940 -428v101l815 366v8l-815 371v102l940 -430v-90z" />
    <glyph glyph-name="question" unicode="?" horiz-adv-x="1028" 
d="M426 406l59 241q177 79 267 172.5t90 218.5q0 110 -75.5 176t-199.5 66q-186 0 -315 -152l-43 39q78 129 197 206t270 77q181 0 293 -99t112 -247q0 -94 -39.5 -172.5t-114.5 -139t-161 -105t-201 -87.5l-49 -194h-90zM406 -27q-62 0 -100 40t-38 98q0 73 48.5 122.5
t119.5 49.5q65 0 103.5 -40.5t38.5 -101.5q0 -73 -49.5 -120.5t-122.5 -47.5z" />
    <glyph glyph-name="at" unicode="@" horiz-adv-x="1597" 
d="M717 -266q-184 0 -330.5 80.5t-229.5 226t-83 330.5q0 177 66 338t180 279t274.5 187.5t341.5 69.5q268 0 438 -162t170 -419q0 -155 -53 -284.5t-154.5 -208.5t-230.5 -79q-90 0 -153.5 39.5t-84.5 104.5h-10q-100 -144 -240 -144q-97 0 -162 77t-65 198
q0 132 63.5 250.5t176 192t243.5 73.5q128 0 222 -72h8l125 57h47l-199 -516q-30 -74 -11.5 -123t83.5 -49q84 0 156 73.5t110.5 182.5t38.5 221q0 226 -144.5 364t-375.5 138q-160 0 -303.5 -64t-244.5 -171.5t-159.5 -252t-58.5 -300.5q0 -245 155 -398t400 -153
q198 0 385 106l37 -67q-204 -125 -428 -125zM721 236q66 0 113 57l120 317q34 86 12 145.5t-94 59.5q-82 0 -149.5 -66.5t-101 -158t-33.5 -178.5q0 -79 35.5 -127.5t97.5 -48.5z" />
    <glyph glyph-name="A" unicode="A" horiz-adv-x="1441" 
d="M979 1438l209 -1170q21 -113 49.5 -157t103.5 -68v-43h-636v43q142 22 186.5 69.5t28.5 141.5l-33 192h-498l-110 -178q-72 -107 -55 -155.5t151 -69.5v-43h-490v43q105 22 164.5 71t128.5 160l729 1164h72zM772 1057l-328 -525h428l-90 525h-10z" />
    <glyph glyph-name="B" unicode="B" horiz-adv-x="1390" 
d="M-53 0v43q121 13 169 54.5t77 158.5l229 918q29 105 3 150.5t-132 55.5v43h618q224 0 349.5 -84.5t125.5 -222.5q0 -101 -62 -180t-162.5 -124.5t-231.5 -63.5v-11q167 -19 266.5 -101t99.5 -206q0 -131 -85.5 -230t-226 -149.5t-312.5 -50.5h-725zM598 793h150
q166 0 264 86.5t98 228.5q0 111 -70.5 173t-193.5 62h-111zM702 711h-124l-158 -631h178q185 0 299.5 107.5t114.5 269.5q0 124 -79.5 189t-230.5 65z" />
    <glyph glyph-name="C" unicode="C" horiz-adv-x="1423" 
d="M768 -27q-171 0 -314 79t-229 228.5t-86 340.5q0 166 63.5 317.5t173 264.5t266 180t333.5 67q233 0 428 -100v-381h-43q-52 189 -151 291t-242 102q-148 0 -270.5 -97.5t-189.5 -252t-67 -326.5q0 -125 34.5 -225.5t96 -165.5t144 -100t178.5 -35q243 0 440 205l41 -41
q-242 -351 -606 -351z" />
    <glyph glyph-name="D" unicode="D" horiz-adv-x="1622" 
d="M193 258l227 916q30 104 5 150t-132 56v43h590q209 0 372 -76t253.5 -215t90.5 -319q0 -235 -120 -420.5t-337 -289t-495 -103.5h-700v43q122 14 169.5 55t76.5 160zM735 1343l-315 -1263h168q137 0 254 43t200 117t141.5 172.5t86.5 210.5t28 231q0 236 -116.5 362.5
t-323.5 126.5h-123z" />
    <glyph glyph-name="E" unicode="E" horiz-adv-x="1368" 
d="M1178 459h43v-459h-1274v43q120 13 168 56.5t78 158.5l229 916q27 113 0.5 154t-131.5 52v43h1112v-381h-43q-19 159 -100 229t-254 70h-271l-145 -579h119q141 0 204.5 51t77.5 170h45v-524h-45q-12 118 -76 169.5t-206 51.5h-140l-149 -598h364q87 0 150 17.5t114 60
t82.5 116.5t47.5 183z" />
    <glyph glyph-name="F" unicode="F" horiz-adv-x="1259" 
d="M-53 0v43q121 12 168.5 54t77.5 157l227 909q30 114 5 159.5t-132 57.5v43h1073v-376h-43q-21 156 -101.5 225t-252.5 69h-234l-147 -593h160q143 0 208 50.5t76 164.5h45v-512h-45q-11 112 -76.5 163.5t-207.5 51.5h-181l-102 -410q-30 -115 -1 -157.5t150 -55.5v-43
h-667z" />
    <glyph glyph-name="G" unicode="G" horiz-adv-x="1560" 
d="M909 664v43h674v-43q-107 -12 -155.5 -53.5t-75.5 -147.5l-90 -363q-236 -127 -457 -127q-188 0 -340.5 82.5t-240 232t-87.5 337.5q0 109 31 214t88 196t140.5 167.5t184.5 131.5t224 85.5t256 30.5q267 0 469 -100v-367h-43q-55 180 -163 279.5t-273 99.5
q-141 0 -259 -66.5t-194 -175t-118 -243t-42 -275.5q0 -119 25.5 -216.5t76 -171t131.5 -113.5t187 -40q63 0 131 19l96 385q26 103 -13 145.5t-163 53.5z" />
    <glyph glyph-name="H" unicode="H" horiz-adv-x="1730" 
d="M1257 1380v43h641v-43q-118 -10 -165.5 -50.5t-75.5 -153.5l-232 -928q-27 -113 -1.5 -153.5t130.5 -51.5v-43h-641v43q118 10 165 50.5t75 154.5l109 438h-693l-108 -438q-27 -113 -0.5 -153t131.5 -52v-43h-641v43q117 10 163.5 50.5t75.5 154.5l230 928q28 110 3 151
t-130 53v43h641v-43q-121 -12 -167.5 -51.5t-74.5 -152.5l-100 -404h692l100 404q27 110 2.5 151t-129.5 53z" />
    <glyph glyph-name="I" unicode="I" horiz-adv-x="768" 
d="M-51 0v43q118 11 165 51t76 156l230 924q28 114 3.5 154t-130.5 52v43h641v-43q-119 -11 -166.5 -51t-75.5 -155l-231 -924q-15 -60 -16 -96t16 -59.5t47 -34.5t84 -17v-43h-643z" />
    <glyph glyph-name="J" unicode="J" horiz-adv-x="1011" 
d="M248 -27q-197 0 -342 109l33 55q105 -59 217 -59q121 0 206 65t125 224l201 804q28 114 3 155.5t-130 53.5v43h641v-43q-117 -11 -165.5 -51.5t-75.5 -154.5l-197 -781q-105 -420 -516 -420z" />
    <glyph glyph-name="K" unicode="K" horiz-adv-x="1490" 
d="M1692 1423v-43q-139 -24 -230.5 -72t-204.5 -141l-438 -368l592 -791v-8h-332l-456 631l-84 -70l-78 -311q-28 -116 -2.5 -154.5t131.5 -52.5v-43h-643v43q118 12 166 52.5t75 154.5l232 926q28 110 3 150.5t-132 53.5v43h643v-43q-120 -12 -168 -52t-76 -152l-115 -465
h11l573 483q46 39 71 66.5t33 52.5t-16 42t-82 25v43h527z" />
    <glyph glyph-name="L" unicode="L" horiz-adv-x="1243" 
d="M-53 0v43q121 13 168 55t75 158l230 918q28 110 2 153t-131 53v43h645v-43q-119 -9 -166.5 -49.5t-77.5 -154.5l-272 -1094h266q72 0 123.5 10t99 37.5t79.5 76t56 125.5t37 185h45v-516h-1179z" />
    <glyph glyph-name="M" unicode="M" horiz-adv-x="1945" 
d="M811 -14h-72l-221 1167h-10l-225 -901q-28 -117 -2.5 -157t129.5 -52v-43h-465v43q118 11 166 52t77 159l232 924q26 113 0.5 151.5t-127.5 50.5v43h438l203 -1081h10l717 1081h453v-43q-119 -9 -167.5 -51.5t-76.5 -157.5l-232 -927q-27 -107 -1.5 -148t128.5 -53v-43
h-641v43q117 10 165.5 50.5t76.5 148.5l227 911h-10z" />
    <glyph glyph-name="N" unicode="N" horiz-adv-x="1540" 
d="M-55 0v43q118 10 166.5 53t76.5 156l244 981l-100 182v8h344l514 -1003h10l186 756q28 109 3 150.5t-127 53.5v43h462v-43q-116 -11 -166 -52t-77 -154l-297 -1188h-80l-592 1144h-10l-219 -880q-28 -110 -2.5 -152.5t129.5 -54.5v-43h-465z" />
    <glyph glyph-name="O" unicode="O" horiz-adv-x="1650" 
d="M780 -27q-186 0 -333.5 80.5t-228.5 222t-81 316.5q0 172 64.5 329.5t176 274t270 185.5t337.5 69q140 0 260.5 -47.5t204 -130.5t131 -197.5t47.5 -245.5q0 -232 -109.5 -428t-305 -312t-433.5 -116zM782 63q84 0 161 37t135.5 100t106.5 145.5t78.5 175.5t47 188.5
t16.5 185.5q0 213 -89.5 339t-252.5 126q-84 0 -161 -37t-136 -100.5t-107 -146.5t-79 -176.5t-47.5 -189t-16.5 -184.5q0 -214 90 -338.5t254 -124.5z" />
    <glyph glyph-name="P" unicode="P" horiz-adv-x="1265" 
d="M727 600h-178l-86 -350q-28 -111 2 -153t147 -54v-43h-665v43q119 12 166.5 52t76.5 155l232 921q30 105 5 151t-134 58v43h545q232 0 377 -98t145 -268q0 -142 -86 -247.5t-228 -157.5t-319 -52zM813 1343h-78l-166 -663h119q181 0 287 111t106 278q0 132 -72 203
t-196 71z" />
    <glyph glyph-name="Q" unicode="Q" horiz-adv-x="1644" 
d="M1049 61v-10h555v-270h-11l-647 213q-99 -21 -174 -21q-279 0 -458 176t-179 443q0 172 64.5 329.5t175 274t268 185.5t334.5 69q138 0 257.5 -48t202.5 -131t130 -197.5t47 -244.5q0 -276 -158 -487t-407 -281zM436 526q0 -212 88.5 -337.5t247.5 -125.5q101 0 190 52.5
t152 138.5t109 195t68 223.5t22 222.5q0 214 -88 339.5t-248 125.5q-99 0 -187.5 -52.5t-152 -139t-110 -196t-69 -224t-22.5 -222.5z" />
    <glyph glyph-name="R" unicode="R" horiz-adv-x="1437" 
d="M1382 1096q0 -153 -129 -251t-344 -122l469 -715v-8h-311l-440 713h-47l-117 -465q-31 -102 -6 -147.5t135 -57.5v-43h-643v43q119 10 166 51.5t75 153.5l230 917q18 71 17 116.5t-34 68.5t-110 30v43h594q221 0 358 -90t137 -237zM735 1343l-139 -557h121
q176 0 282.5 89t106.5 229q0 117 -73.5 178t-205.5 61h-92z" />
    <glyph glyph-name="S" unicode="S" horiz-adv-x="1138" 
d="M508 -27q-249 0 -436 131v369h43q61 -216 166 -314t233 -98q116 0 193 66t77 174q0 71 -41.5 124.5t-128.5 115.5l-137 98q-207 146 -207 365q0 197 144.5 321.5t369.5 124.5q98 0 197 -24t174 -64v-361h-43q-38 181 -125.5 271t-216.5 90q-117 0 -191.5 -67t-74.5 -173
q0 -72 39 -128.5t121 -114.5l143 -101q111 -76 164 -160.5t53 -197.5q0 -135 -73.5 -238.5t-190 -156t-252.5 -52.5z" />
    <glyph glyph-name="T" unicode="T" horiz-adv-x="1331" 
d="M205 0v43q135 10 188.5 53t83.5 160l271 1087h-89q-181 0 -268.5 -74.5t-109.5 -242.5h-45v397h1232v-397h-45q-22 165 -111 241t-259 76h-35l-270 -1087q-28 -117 1.5 -160t153.5 -53v-43h-698z" />
    <glyph glyph-name="U" unicode="U" horiz-adv-x="1595" 
d="M733 -27q-133 0 -238.5 45t-171.5 129t-86.5 204t17.5 270l139 559q28 106 2 147t-131 53v43h643v-43q-116 -10 -165.5 -51.5t-75.5 -148.5l-148 -594q-52 -207 28 -326t271 -119q178 0 302 112.5t181 340.5l146 582q27 113 2 152.5t-129 51.5v43h465v-43
q-116 -11 -167 -53.5t-77 -150.5l-149 -594q-151 -609 -658 -609z" />
    <glyph glyph-name="V" unicode="V" horiz-adv-x="1454" 
d="M1382 1128l-735 -1142h-76l-186 1171q-16 108 -47.5 156t-116.5 67v43h647v-43q-109 -14 -158 -41t-58.5 -75.5t5.5 -124.5l117 -774h10l500 780q81 120 73 167.5t-124 67.5v43h459v-43q-74 -13 -126 -43.5t-90 -75.5t-94 -133z" />
    <glyph glyph-name="W" unicode="W" horiz-adv-x="2060" 
d="M473 -14l-88 1159q-9 121 -37.5 166t-116.5 69v43h641v-43q-75 -9 -121.5 -27t-69.5 -48t-29 -65.5t-3 -90.5l51 -735h11l444 737l-29 272h273l88 -995h10l389 692q24 42 36.5 65.5t25 53t13.5 45t-2.5 33.5t-19 28t-40.5 19.5t-62 15.5v43h455v-43q-59 -12 -101 -31
t-77 -53.5t-60.5 -71.5t-62.5 -102l-643 -1136h-80l-90 1011h-13l-612 -1011h-80z" />
    <glyph glyph-name="X" unicode="X" horiz-adv-x="1476" 
d="M254 266l424 428l-227 490q-47 98 -86 139t-117 57v43h653v-43q-95 -13 -140.5 -39.5t-46 -64.5t22.5 -88l133 -297h11l295 299q83 85 75.5 129t-104.5 61v43h465v-43q-99 -19 -164.5 -63t-167.5 -146l-362 -364l260 -553q43 -92 87 -139.5t128 -71.5v-43h-662v43
q89 15 134 41t50 62t-16 83l-174 379h-10l-340 -344q-63 -63 -84 -104.5t2.5 -71t99.5 -45.5v-43h-489v43q106 27 176.5 73t173.5 150z" />
    <glyph glyph-name="Y" unicode="Y" horiz-adv-x="1470" 
d="M1233 1380v43h463v-43q-74 -13 -131 -42t-93.5 -62t-87.5 -92l-471 -557l-94 -381q-27 -114 -1 -153t130 -50v-43h-643v43q116 9 165 50t77 153l86 348l-207 600q-30 90 -65 130t-115 56v43h655v-43q-77 -9 -123 -26t-63 -44t-16 -57t16 -75l151 -457h11l387 457
q33 39 51 65t26.5 50.5t-0.5 40t-35 27.5t-73 19z" />
    <glyph glyph-name="Z" unicode="Z" horiz-adv-x="1286" 
d="M1114 0h-1145v57l1080 1276v8h-342q-171 0 -255.5 -79.5t-117.5 -262.5h-45v424h1126v-57l-1079 -1276v-8h328q92 0 156 17t115.5 60t84 118.5t49.5 189.5h45v-467z" />
    <glyph glyph-name="bracketleft" unicode="[" horiz-adv-x="716" 
d="M969 1593v-75h-279l-434 -1741h260v-76h-516l471 1892h498z" />
    <glyph glyph-name="backslash" unicode="\" horiz-adv-x="722" 
d="M547 -80l-160 1585h-96l160 -1585h96z" />
    <glyph glyph-name="bracketright" unicode="]" horiz-adv-x="714" 
d="M-168 -299v76h279l432 1741h-260v75h518l-473 -1892h-496z" />
    <glyph glyph-name="asciicircum" unicode="^" horiz-adv-x="829" 
d="M281 797h-103l289 626h96l291 -626h-106l-230 516h-6z" />
    <glyph glyph-name="underscore" unicode="_" horiz-adv-x="952" 
d="M-125 -207h893v88h-893v-88z" />
    <glyph glyph-name="grave" unicode="`" horiz-adv-x="444" 
d="M539 1421l22 -313h-49l-244 305v8h271z" />
    <glyph glyph-name="a" unicode="a" horiz-adv-x="1167" 
d="M360 -27q-135 0 -217 108t-82 273q0 121 44.5 236.5t120 204.5t184.5 143.5t231 54.5q159 0 277 -90h8l149 70h45l-180 -721q-10 -43 -10.5 -70.5t22 -41t76.5 -15.5v-43l-385 -94h-10l43 170h-10q-132 -185 -306 -185zM477 125q60 0 113.5 35.5t109.5 97.5l99 389
q29 115 -13.5 191.5t-136.5 76.5q-100 0 -182.5 -79t-126 -196.5t-43.5 -240.5t46.5 -198.5t133.5 -75.5z" />
    <glyph glyph-name="b" unicode="b" horiz-adv-x="1157" 
d="M506 -27q-156 0 -277 88h-6l-151 -81h-47l305 1218q17 72 -5 100.5t-98 32.5v41l400 96h10l-166 -659h10q65 89 139 136.5t171 47.5q133 0 220 -106.5t87 -272.5q0 -175 -80 -322.5t-216 -233t-296 -85.5zM502 51q97 0 180.5 73.5t131.5 192.5t48 252q0 127 -50.5 200
t-135.5 73q-64 0 -119 -36t-111 -97l-96 -387q-31 -120 12 -195.5t140 -75.5z" />
    <glyph glyph-name="c" unicode="c" horiz-adv-x="974" 
d="M469 -27q-177 0 -288 123.5t-111 309.5q0 157 72.5 291t207 215t301.5 81q146 0 271 -59v-264h-43q-28 116 -88.5 178.5t-151.5 62.5q-143 0 -238.5 -127t-95.5 -303q0 -152 77 -235.5t206 -83.5q157 0 274 114l37 -34q-84 -132 -194 -200.5t-236 -68.5z" />
    <glyph glyph-name="d" unicode="d" horiz-adv-x="1175" 
d="M371 -27q-140 0 -226 107.5t-86 275.5q0 122 45 237.5t122.5 204t189.5 142t237 53.5q123 0 219 -67h7l71 282q17 66 -7.5 93t-96.5 30v41l399 96h10l-305 -1216q-20 -70 -4 -97t92 -30v-43l-385 -94h-8l41 170h-10q-131 -185 -305 -185zM483 125q110 0 230 133l96 387
q29 119 -13 194.5t-139 75.5q-101 0 -185.5 -78t-129.5 -196t-45 -242q0 -123 47.5 -198.5t138.5 -75.5z" />
    <glyph glyph-name="e" unicode="e" horiz-adv-x="993" 
d="M598 993q179 0 268.5 -105.5t59.5 -262.5l-8 -41h-611q-8 -41 -8 -90q0 -158 78.5 -245t208.5 -87q156 0 276 114l37 -34q-172 -269 -434 -269q-167 0 -280 119.5t-113 308.5q0 155 67 290.5t189 218.5t270 83zM582 913q-90 0 -158.5 -73t-101.5 -185h385q14 70 9 127.5
t-40 94t-94 36.5z" />
    <glyph glyph-name="f" unicode="f" horiz-adv-x="794" 
d="M-25 0v43q85 9 116 36t54 116l170 688h-182v82h203l41 161q42 168 161 261.5t296 93.5q122 0 215 -35v-227h-41q-24 70 -73.5 121t-119.5 51q-134 0 -170 -150l-67 -276h243v-82h-264l-172 -688q-23 -89 -6 -117t102 -35v-43h-506z" />
    <glyph glyph-name="g" unicode="g" horiz-adv-x="1040" 
d="M1104 1147v-234h-307v-8q62 -25 98.5 -77t36.5 -121q0 -158 -127 -258.5t-313 -100.5q-87 0 -160 25q-105 -46 -105 -109q0 -34 24.5 -52t72.5 -26l297 -47q286 -46 286 -231q0 -107 -81.5 -187.5t-204.5 -119.5t-263 -39q-199 0 -323.5 63t-124.5 174q0 66 57.5 122
t169.5 95v2q-102 47 -102 148q0 70 60 132t169 103v5q-131 80 -131 229q0 159 129.5 258.5t315.5 99.5q62 0 127 -18l391 172h8zM496 420q66 0 117 50.5t75.5 123.5t24.5 151q0 82 -35 129.5t-98 47.5q-66 0 -117.5 -49t-77 -121.5t-25.5 -151.5q0 -85 36 -132.5t100 -47.5z
M543 -59l-326 55h-6q-117 -70 -117 -176q0 -84 74 -133t199 -49q140 0 234.5 48.5t94.5 135.5q0 51 -37 79t-116 40z" />
    <glyph glyph-name="h" unicode="h" horiz-adv-x="1175" 
d="M102 184l252 1016q17 70 -3.5 98.5t-96.5 32.5v41l399 96h9l-166 -659h10q74 89 147.5 136.5t163.5 47.5q84 0 145.5 -47t85.5 -133t-4 -207l-106 -422q-19 -82 -4.5 -107t84.5 -34v-43h-469v43q71 9 100.5 36t50.5 111l115 459q22 89 -11 142t-99 53q-108 0 -234 -137
l-131 -531q-16 -48 -10 -76t23 -39.5t57 -17.5v-43h-473v43q83 8 113 33.5t52 107.5z" />
    <glyph glyph-name="i" unicode="i" horiz-adv-x="602" 
d="M489 1133q-59 0 -96 37.5t-37 95.5q0 69 48.5 117.5t117.5 48.5q59 0 96 -37t37 -97q0 -70 -48.5 -117.5t-117.5 -47.5zM555 981l-197 -799q-20 -78 -4.5 -104t84.5 -35v-43h-485v43q85 9 114.5 35t51.5 110l131 529q18 66 -4 94.5t-99 32.5v41l400 96h8z" />
    <glyph glyph-name="j" unicode="j" horiz-adv-x="561" 
d="M473 1133q-57 0 -95 37.5t-38 95.5q0 69 49.5 117.5t118.5 48.5q59 0 96 -37t37 -97q0 -70 -48.5 -117.5t-119.5 -47.5zM-133 -438q-123 0 -215 57l24 53q57 -24 123 -24q82 0 136 44.5t79 147.5l219 875q17 68 -5 96.5t-97 32.5v41l397 96h11l-275 -1100
q-78 -319 -397 -319z" />
    <glyph glyph-name="k" unicode="k" horiz-adv-x="1140" 
d="M1217 965v-43q-100 -17 -175.5 -52t-175.5 -108l-233 -174l409 -582v-6h-282l-309 451l-56 -41l-55 -224q-21 -78 -6 -106t86 -37v-43h-486v43q84 9 114 34t50 107l256 1024q16 62 -5.5 90.5t-96.5 32.5v41l399 96h8l-235 -942h10l359 269q152 114 -9 127v43h433z" />
    <glyph glyph-name="l" unicode="l" horiz-adv-x="583" 
d="M-66 0v43q84 11 113 36t51 109l254 1018q17 65 -4.5 93t-97.5 32v41l399 96h8l-319 -1282q-20 -82 -5 -108t85 -35v-43h-484z" />
    <glyph glyph-name="m" unicode="m" horiz-adv-x="1738" 
d="M117 182l133 535q17 67 -5.5 94.5t-97.5 32.5v41l400 96h8l-43 -172h10q68 84 143 134t171 50q95 0 154.5 -62t64.5 -155h10q153 217 338 217q121 0 188.5 -99.5t26.5 -260.5l-111 -440q-21 -85 -6 -113t86 -37v-43h-465v43q68 9 96.5 37t49.5 115l121 481
q20 75 -9 121.5t-90 46.5q-107 0 -229 -146l-127 -503q-21 -89 -8.5 -116t73.5 -36v-43h-454v43q71 9 99.5 36t49.5 111l119 486q19 74 -7.5 121t-88.5 47q-104 0 -230 -137l-129 -521q-20 -80 -7.5 -107t71.5 -36v-43h-469v43q84 7 113.5 33.5t50.5 105.5z" />
    <glyph glyph-name="n" unicode="n" horiz-adv-x="1185" 
d="M117 182l131 529q18 69 -1.5 99t-99.5 34v41l400 96h8l-43 -172h10q72 88 146 136t166 48q130 0 199 -107t26 -280l-105 -424q-20 -80 -5.5 -105t85.5 -34v-43h-471v43q73 9 102 36t52 111l112 459q22 90 -10.5 142.5t-99.5 52.5q-109 0 -232 -137l-133 -531
q-9 -39 -10 -62.5t8.5 -38t25.5 -21t46 -11.5v-43h-471v43q81 9 112 33.5t52 105.5z" />
    <glyph glyph-name="o" unicode="o" horiz-adv-x="1148" 
d="M496 -27q-193 0 -310.5 114t-117.5 298q0 166 76 305.5t211.5 221t301.5 81.5q193 0 310.5 -114.5t117.5 -298.5q0 -165 -76 -304t-211.5 -221t-301.5 -82zM500 59q76 0 140 58t103 147.5t60.5 190.5t21.5 194q0 125 -44.5 191.5t-127.5 66.5q-77 0 -141 -58t-103 -148
t-60 -191t-21 -195q0 -125 44 -190.5t128 -65.5z" />
    <glyph glyph-name="p" unicode="p" horiz-adv-x="1183" 
d="M2 -215l234 930q17 69 -4 95.5t-95 31.5v41l395 96h9l-43 -170h10q65 90 139 137t168 47q135 0 222 -106t87 -275q0 -171 -79 -318.5t-215 -234t-295 -86.5q-119 0 -224 60h-8l-61 -246q-22 -91 -5.5 -119t97.5 -35v-43h-500v43q85 9 115 36t53 116zM528 51
q100 0 184.5 76.5t130.5 195t46 244.5q0 129 -50.5 202t-136.5 73q-63 0 -117.5 -34.5t-111.5 -98.5l-96 -385q-31 -122 11.5 -197.5t139.5 -75.5z" />
    <glyph glyph-name="q" unicode="q" horiz-adv-x="1153" 
d="M594 -213l92 371h-8q-65 -89 -139 -137t-168 -48q-140 0 -226 108.5t-86 272.5q0 123 45 239t122.5 204.5t189.5 142t237 53.5q156 0 277 -90h6l149 70h45l-296 -1188q-22 -89 -9 -116t86 -36v-43h-495v43q92 9 124 37t54 117zM485 125q106 0 228 133l96 387
q29 119 -13 194.5t-139 75.5q-102 0 -186.5 -78.5t-129 -196.5t-44.5 -243q0 -122 48 -197t140 -75z" />
    <glyph glyph-name="r" unicode="r" horiz-adv-x="835" 
d="M119 186l131 531q17 66 -5.5 94.5t-97.5 32.5v41l398 96h10l-80 -322h12q75 173 150 253.5t182 80.5q38 0 68 -12v-236q-51 19 -107 19q-96 0 -183 -60.5t-157 -185.5l-82 -332q-21 -85 -3.5 -110t100.5 -33v-43h-502v43q83 8 113.5 34t52.5 109z" />
    <glyph glyph-name="s" unicode="s" horiz-adv-x="843" 
d="M334 -27q-174 0 -305 90v242h43q81 -250 268 -250q75 0 122.5 35.5t47.5 99.5q0 44 -26.5 79.5t-80.5 72.5l-102 72q-147 109 -147 254q0 141 110.5 233t272.5 92q151 0 270 -63v-242h-43q-57 221 -242 221q-75 0 -126.5 -37.5t-51.5 -101.5q0 -44 25.5 -77t85.5 -75
l100 -69q81 -57 118.5 -114.5t37.5 -137.5q0 -140 -110 -232t-267 -92z" />
    <glyph glyph-name="t" unicode="t" horiz-adv-x="729" 
d="M350 -27q-129 0 -188 87t-23 233l148 590h-176v53q141 41 233 110t191 189h79l-67 -270h266v-82h-287l-161 -645q-18 -72 8.5 -108t89.5 -36q78 0 149 39l27 -43q-145 -117 -289 -117z" />
    <glyph glyph-name="u" unicode="u" horiz-adv-x="1150" 
d="M338 -27q-121 0 -186 101.5t-23 267.5l92 371q15 66 -3 95.5t-99 33.5v43l399 94h8l-168 -678q-21 -85 7 -132.5t92 -47.5q101 0 223 137l115 453q10 41 8 69t-28 43.5t-83 18.5v43l400 94h8l-180 -729q-20 -69 -4 -95.5t90 -29.5v-43l-385 -94h-9l43 170h-10
q-135 -185 -307 -185z" />
    <glyph glyph-name="v" unicode="v" horiz-adv-x="1064" 
d="M387 -14l-129 751q-11 67 -44 92.5t-128 26.5v43l371 92l2 -20q19 -109 37 -228l67 -424h10l281 429q27 42 38.5 66t13 49t-20.5 38.5t-68 20.5v43h365v-43q-86 -13 -134 -52t-108 -131l-494 -753h-59z" />
    <glyph glyph-name="w" unicode="w" horiz-adv-x="1564" 
d="M528 340h11l272 422l-27 203h236l76 -625h12l248 401q57 84 52 125.5t-87 55.5v43h360v-43q-86 -14 -134 -55.5t-105 -133.5l-467 -747h-62l-77 661h-13l-424 -661h-59l-88 741q-8 71 -40.5 99.5t-127.5 29.5v43l373 92l4 -37q4 -39 12.5 -116t13.5 -121z" />
    <glyph glyph-name="x" unicode="x" horiz-adv-x="1056" 
d="M176 205l254 250l-154 327q-30 62 -65 95t-96 47v41h508v-41q-39 -7 -64 -18t-36.5 -23t-13.5 -29t2 -32t13 -36l74 -163h10l166 168q108 108 -24 133v41h372v-41q-86 -14 -142.5 -49.5t-125.5 -106.5l-215 -217l158 -338q33 -72 67 -111t97 -59v-43h-512v43q51 7 80 20
t38 32t6.5 39t-14.5 48l-90 203h-10l-195 -197q-66 -65 -58 -98t91 -47v-43h-391v43q81 17 137 51t133 111z" />
    <glyph glyph-name="y" unicode="y" horiz-adv-x="1052" 
d="M811 922v43h365v-43q-91 -16 -141.5 -59.5t-102.5 -133.5l-514 -858q-105 -175 -194.5 -242t-198.5 -67q-77 0 -142 35v213q78 -37 176 -37q216 0 336 200l2 4l-141 760q-11 66 -45 92t-127 27v43l367 92l4 -16q19 -107 39 -232l77 -452h13l262 442q22 38 33 60.5
t17.5 47.5t-0.5 39t-27.5 25.5t-57.5 16.5z" />
    <glyph glyph-name="z" unicode="z" horiz-adv-x="974" 
d="M459 76h-172v10l706 825v54h-819v-289h43q31 123 94.5 168t188.5 45h166v-10l-705 -824v-55h852v338h-43q-40 -150 -111.5 -206t-199.5 -56z" />
    <glyph glyph-name="braceleft" unicode="{" horiz-adv-x="768" 
d="M399 -324q-107 0 -185 48t-112.5 142t0.5 234l91 355q27 98 3.5 145.5t-110.5 54.5v64q99 7 147.5 50.5t69.5 131.5l90 365q44 176 164.5 264t286.5 88q99 0 190 -31l-20 -59q-53 12 -107 12q-215 0 -272 -221l-94 -375q-28 -118 -97 -183t-168 -79v-8
q86 -23 120.5 -99.5t2.5 -207.5l-94 -371q-30 -120 21 -181t159 -61q40 0 95 10v-61q-86 -27 -181 -27z" />
    <glyph glyph-name="bar" unicode="|" horiz-adv-x="485" 
d="M96 -299h-96l471 1892h96z" />
    <glyph glyph-name="braceright" unicode="}" horiz-adv-x="765" 
d="M453 1618q107 0 185 -48t112.5 -142t-0.5 -234l-91 -356q-27 -97 -3.5 -145t110.5 -54v-64q-99 -7 -147.5 -50.5t-69.5 -131.5l-90 -364q-44 -176 -164.5 -264.5t-286.5 -88.5q-97 0 -192 31l22 57q58 -10 107 -10q215 0 272 221l92 375q58 230 266 262v9q-86 23 -120 99
t-2 206l94 370q30 121 -21 182.5t-159 61.5q-40 0 -95 -10v61q85 27 181 27z" />
    <glyph glyph-name="asciitilde" unicode="~" horiz-adv-x="1110" 
d="M197 354h-95q-2 114 61.5 186t166.5 72q95 0 202 -63l76 -43q58 -32 94.5 -46t73.5 -14q66 0 102.5 44.5t36.5 121.5h95q1 -115 -63 -186.5t-167 -71.5q-90 0 -209 68l-75 41q-94 55 -162 55q-64 0 -100.5 -43.5t-36.5 -120.5z" />
    <glyph glyph-name="uni00A0" unicode="&#xa0;" horiz-adv-x="489" 
 />
    <glyph glyph-name="exclamdown" unicode="&#xa1;" horiz-adv-x="520" 
d="M354 993q63 0 101.5 -39.5t38.5 -99.5q0 -73 -49.5 -121.5t-120.5 -48.5q-63 0 -101.5 39.5t-38.5 99.5q0 73 49.5 121.5t120.5 48.5zM252 565h67l-137 -1024h-307z" />
    <glyph glyph-name="cent" unicode="&#xa2;" horiz-adv-x="1046" 
d="M954 670h-43q-45 193 -176 233l-182 -735q30 -6 68 -6q160 0 274 114l37 -34q-171 -269 -428 -269l-39 -157h-82l41 164q-147 28 -234.5 145t-87.5 281q0 156 71.5 289t204 214.5t298.5 83.5l39 160h82l-41 -164q109 -12 198 -55v-264zM340 481q0 -103 36 -175.5
t101 -108.5l178 714q-90 -7 -162.5 -68t-112.5 -156.5t-40 -205.5z" />
    <glyph glyph-name="sterling" unicode="&#xa3;" horiz-adv-x="1155" 
d="M829 1419q96 0 190 -22.5t163 -57.5v-329h-43q-71 323 -318 323q-143 0 -221 -100.5t-72 -292.5l11 -287h514v-86h-512q-5 -121 -57 -200t-173 -136v-10h662v-221h-991v57q84 54 135.5 92.5t93.5 82t62 89t29 100.5t7 130v16h-200v86h196l-8 234q-5 112 28.5 208.5
t99 168.5t170 113.5t234.5 41.5z" />
    <glyph glyph-name="currency" unicode="&#xa4;" horiz-adv-x="1212" 
d="M1225 1135l-191 -152q62 -94 62 -213q0 -194 -125 -332l123 -155l-64 -47l-117 147q-132 -107 -305 -107q-159 0 -264 105l-190 -152l-48 60l191 149q-64 95 -64 215q0 192 127 332l-124 156l63 47l119 -150q129 107 303 107q156 0 264 -103l193 152zM612 365
q165 0 279.5 119t114.5 284q0 125 -80 207t-207 82q-166 0 -279.5 -118t-113.5 -284q0 -124 80 -207t206 -83z" />
    <glyph glyph-name="yen" unicode="&#xa5;" horiz-adv-x="1335" 
d="M1090 1350v43h415v-43q-102 -20 -163.5 -66.5t-137.5 -144.5l-330 -420h287v-84h-342l-37 -146h320v-83h-340l-39 -156q-28 -110 -6 -150t121 -57v-43h-584v43q114 17 160 57.5t73 149.5l39 156h-321v83h342l31 123l-7 23h-309v84h287l-115 452q-22 83 -58.5 123.5
t-105.5 55.5v43h557v-43q-83 -10 -120.5 -33.5t-39 -60t10.5 -87.5l104 -426h11l323 414q30 39 46.5 63.5t24.5 48t0 38t-31.5 25.5t-65.5 18z" />
    <glyph glyph-name="brokenbar" unicode="&#xa6;" horiz-adv-x="485" 
d="M395 899h-96l172 694h96zM96 -299h-96l172 694h98z" />
    <glyph glyph-name="section" unicode="&#xa7;" horiz-adv-x="1013" 
d="M743 1419q178 0 322 -67v-244h-43q-28 102 -100 162.5t-191 60.5q-110 0 -177 -50t-67 -132q0 -55 27 -94t90 -78l170 -107q97 -62 142 -124t45 -144q0 -107 -74 -190.5t-199 -132.5v-11q80 -83 80 -188q0 -158 -126.5 -263.5t-324.5 -105.5q-189 0 -335 86v246h43
q33 -113 111 -179.5t190 -66.5q108 0 172.5 48.5t64.5 129.5q0 55 -26.5 95.5t-85.5 79.5l-168 108q-91 59 -136 123.5t-45 146.5q0 108 71.5 188t197.5 130v8q-88 91 -88 209q0 149 130.5 252.5t329.5 103.5zM641 662l-172 114q-6 4 -47 33q-133 -67 -133 -172
q0 -50 28 -88.5t95 -81.5l170 -113q34 -23 55 -39q135 75 135 179q0 49 -29.5 86t-101.5 82z" />
    <glyph glyph-name="dieresis" unicode="&#xa8;" horiz-adv-x="737" 
d="M340 1141q-54 0 -88.5 35.5t-34.5 89.5q0 65 45 110t109 45q56 0 90.5 -34t34.5 -91q0 -66 -45.5 -110.5t-110.5 -44.5zM741 1141q-54 0 -89.5 35.5t-35.5 89.5q0 64 45.5 109.5t110.5 45.5q56 0 90.5 -34t34.5 -91q0 -66 -45.5 -110.5t-110.5 -44.5z" />
    <glyph glyph-name="copyright" unicode="&#xa9;" horiz-adv-x="1755" 
d="M940 -29q-213 0 -384 97.5t-267 270.5t-96 388t96 388t267 270.5t384 97.5t384.5 -97.5t268.5 -270.5t97 -388t-97 -388t-268.5 -270.5t-384.5 -97.5zM940 55q189 0 339.5 86.5t235 240t84.5 345.5q0 193 -84.5 346.5t-235 239.5t-339.5 86t-339.5 -86t-235 -239.5
t-84.5 -346.5q0 -192 84.5 -345.5t235 -240t339.5 -86.5zM948 330q-158 0 -263 110t-105 281q0 175 115 290t288 115q124 0 211 -43v-209h-39q-16 84 -59.5 133.5t-112.5 49.5q-93 0 -150 -77.5t-57 -195.5q0 -140 70.5 -220.5t181.5 -80.5q122 0 203 90l31 -32
q-59 -106 -134 -158.5t-180 -52.5z" />
    <glyph glyph-name="ordfeminine" unicode="&#xaa;" horiz-adv-x="901" 
d="M899 1108l-72 -287q-17 -64 -3.5 -90t77.5 -29v-36l-340 -82h-6l37 149h-8q-111 -166 -240 -166q-79 0 -130.5 53.5t-51.5 137.5q0 99 81.5 155.5t235.5 94.5l193 49l20 80q21 84 -17.5 130t-119.5 46q-132 0 -256 -92l-29 43q186 186 377 186q140 0 214 -97.5t38 -244.5
zM461 717q68 0 149 92l47 186l-104 -30q-90 -30 -134 -62.5t-44 -93.5q0 -41 24 -66.5t62 -25.5z" />
    <glyph glyph-name="guillemotleft" unicode="&#xab;" horiz-adv-x="1267" 
d="M559 4l-51 -27l-422 539l631 473l43 -43l-377 -440zM1024 4l-51 -27l-389 502l682 510l43 -43l-437 -514z" />
    <glyph glyph-name="logicalnot" unicode="&#xac;" horiz-adv-x="1218" 
d="M115 528h923v-528h-96v436h-827v92z" />
    <glyph glyph-name="uni00AD" unicode="&#xad;" horiz-adv-x="817" 
d="M158 561h563v101h-563v-101z" />
    <glyph glyph-name="registered" unicode="&#xae;" horiz-adv-x="1755" 
d="M940 1483q213 0 384.5 -97.5t268.5 -270.5t97 -388t-97 -388t-268.5 -270.5t-384.5 -97.5t-384 97.5t-267 270.5t-96 388t96 388t267 270.5t384 97.5zM940 55q189 0 339.5 86.5t235 240t84.5 345.5q0 193 -84.5 346.5t-235 239.5t-339.5 86t-339.5 -86t-235 -239.5
t-84.5 -346.5q0 -192 84.5 -345.5t235 -240t339.5 -86.5zM1268 918q0 -71 -54 -122t-149 -71l311 -373v-8h-215l-293 367h-14v-226q0 -56 19.5 -77.5t68.5 -26.5v-37h-350v37q48 5 68 27t20 77v486q0 56 -20 78.5t-68 27.5v37h373q137 0 220 -52t83 -144zM854 1055v-291h61
q80 0 126 40t46 111t-46 105.5t-123 34.5h-64z" />
    <glyph glyph-name="macron" unicode="&#xaf;" horiz-adv-x="673" 
d="M231 1202h590v86h-590v-86z" />
    <glyph glyph-name="degree" unicode="&#xb0;" horiz-adv-x="745" 
d="M535 864q-128 0 -212.5 83.5t-84.5 209.5q0 127 84.5 211t212.5 84t212 -84t84 -211q0 -126 -84.5 -209.5t-211.5 -83.5zM535 942q92 0 151 60.5t59 154.5q0 95 -59.5 156t-150.5 61q-92 0 -151.5 -61t-59.5 -156q0 -94 59.5 -154.5t151.5 -60.5z" />
    <glyph glyph-name="plusminus" unicode="&#xb1;" horiz-adv-x="1214" 
d="M618 956v-350h426v-92h-426v-317h-96v317h-426v92h426v350h96zM1044 -10h-948v92h948v-92z" />
    <glyph glyph-name="uni00B2" unicode="&#xb2;" horiz-adv-x="786" 
d="M813 821h-653v51l299 205q129 89 192.5 162t63.5 156q0 81 -52 127.5t-133 46.5q-113 0 -196 -90l-37 34q55 91 140.5 149t197.5 58q120 0 203.5 -75.5t83.5 -184.5q0 -60 -24 -113t-72.5 -99.5t-94.5 -79.5t-117 -76l-114 -68v-8h313v-195z" />
    <glyph glyph-name="uni00B3" unicode="&#xb3;" horiz-adv-x="776" 
d="M510 793q-123 0 -206 63.5t-128 161.5l39 31q89 -119 219 -119q95 0 155 50t60 130q0 57 -37.5 91.5t-103.5 43.5v45l229 201v10h-368v191h639v-52l-392 -340v-8q105 -19 161.5 -77t56.5 -144q0 -122 -94 -200t-230 -78z" />
    <glyph glyph-name="acute" unicode="&#xb4;" horiz-adv-x="434" 
d="M258 1108h-55l141 313h291v-8z" />
    <glyph glyph-name="uni00B5" unicode="&#xb5;" horiz-adv-x="1243" 
d="M-4 -410l280 1125q16 67 -3.5 95t-98.5 32v43l399 94h9l-168 -682q-20 -81 7.5 -128.5t86.5 -47.5q60 0 113.5 35t113.5 102l115 455q16 67 -2.5 96t-99.5 33v43l399 94h10l-182 -727q-20 -73 -3 -98.5t91 -28.5v-43l-385 -94h-10l43 170h-11q-131 -185 -288 -185
q-42 0 -70 19h-6l-47 -191q-26 -98 -10 -128.5t104 -39.5v-43h-387z" />
    <glyph glyph-name="paragraph" unicode="&#xb6;" horiz-adv-x="1280" 
d="M1419 1423v-43q-115 -9 -164 -51t-77 -155l-369 -1473h-86l412 1645h-287l-412 -1645h-86l240 958q-187 3 -294.5 95.5t-107.5 244.5q0 194 150.5 309t386.5 115h694z" />
    <glyph glyph-name="periodcentered" unicode="&#xb7;" horiz-adv-x="512" 
d="M262 420q-63 0 -100 39.5t-37 99.5q0 73 48.5 121.5t119.5 48.5q63 0 101 -39.5t38 -99.5q0 -73 -49.5 -121.5t-120.5 -48.5z" />
    <glyph glyph-name="cedilla" unicode="&#xb8;" horiz-adv-x="509" 
d="M63 -422q-69 0 -125 33.5t-92 87.5l29 33q61 -64 143 -64q55 0 92 26.5t37 69.5q0 30 -21 48t-54 18q-39 0 -66 -18l-10 2l129 211l47 -25l-68 -109l5 -2q23 13 53 13q54 0 90.5 -36.5t36.5 -96.5q0 -81 -65 -136t-161 -55z" />
    <glyph glyph-name="uni00B9" unicode="&#xb9;" horiz-adv-x="706" 
d="M610 821h-196l131 527h-301v51q176 55 299 126t223 189h68z" />
    <glyph glyph-name="ordmasculine" unicode="&#xba;" horiz-adv-x="997" 
d="M553 567q-164 0 -264.5 99t-100.5 264q0 102 39.5 197t107 166t164 114t203.5 43q162 0 261.5 -101t99.5 -266q0 -136 -65 -254t-183 -190t-262 -72zM551 645q66 0 124 51t94.5 129t57.5 166t21 168q0 98 -39 154.5t-107 56.5q-66 0 -123.5 -51.5t-94 -130t-57.5 -166.5
t-21 -166q0 -100 38 -155.5t107 -55.5z" />
    <glyph glyph-name="guillemotright" unicode="&#xbb;" horiz-adv-x="1271" 
d="M248 969l51 24l389 -499l-682 -510l-43 43l436 514zM713 969l51 24l422 -536l-631 -473l-43 43l377 440z" />
    <glyph glyph-name="onequarter" unicode="&#xbc;" horiz-adv-x="2082" 
d="M561 594h-188l125 502h-285v47q168 53 284 121t212 182h63zM1767 1423h-114l-1323 -1423h114zM1706 0h-170l49 195h-414v47l699 610h49l-127 -508h168v-149h-205zM1391 352v-8h231l66 260h-9z" />
    <glyph glyph-name="onehalf" unicode="&#xbd;" horiz-adv-x="1955" 
d="M561 594h-188l125 502h-287v47q169 53 285.5 121t212.5 182h63zM1765 1423h-114l-1323 -1423h116zM1765 0h-622v49l284 195q123 85 183.5 154.5t60.5 148.5q0 76 -49.5 121t-126.5 45q-105 0 -186 -88l-37 34q125 197 323 197q114 0 193.5 -72.5t79.5 -175.5
q0 -46 -16.5 -89.5t-42 -77t-66.5 -68t-78.5 -59.5t-89.5 -56l-109 -65v-9h299v-184z" />
    <glyph glyph-name="threequarters" unicode="&#xbe;" horiz-adv-x="2039" 
d="M457 567q-118 0 -197 61t-121 154l37 29q80 -113 207 -113q91 0 148 48t57 124q0 54 -35 86.5t-98 40.5v45l219 191v8h-352v182h608v-47l-371 -323v-9q99 -19 152 -74.5t53 -135.5q0 -118 -88.5 -192.5t-218.5 -74.5zM1731 1423h-115l-1323 -1423h117zM1671 0h-170
l49 195h-415v47l700 610h49l-127 -508h168v-149h-205zM1354 352v-8h231l68 260h-8z" />
    <glyph glyph-name="questiondown" unicode="&#xbf;" horiz-adv-x="1009" 
d="M610 993q63 0 101.5 -39.5t38.5 -99.5q0 -73 -49 -121.5t-119 -48.5q-65 0 -103.5 39.5t-38.5 99.5q0 73 49.5 121.5t120.5 48.5zM592 561l-62 -244q-176 -77 -265 -170.5t-89 -220.5q0 -109 75.5 -175t199.5 -66q188 0 315 153l43 -41q-80 -130 -198.5 -206t-270.5 -76
q-181 0 -292 100t-111 248q0 75 27.5 141.5t72.5 117t113.5 96.5t140 80.5t162.5 68.5l47 194h92z" />
    <glyph glyph-name="Agrave" unicode="&#xc0;" horiz-adv-x="1441" 
d="M1024 1835l23 -313h-50l-243 305v8h270zM979 1438l209 -1170q21 -113 49.5 -157t103.5 -68v-43h-636v43q142 22 186.5 69.5t28.5 141.5l-33 192h-498l-110 -178q-72 -107 -55 -155.5t151 -69.5v-43h-490v43q105 22 164.5 71t128.5 160l729 1164h72zM772 1057l-328 -525
h428l-90 525h-10z" />
    <glyph glyph-name="Aacute" unicode="&#xc1;" horiz-adv-x="1441" 
d="M1303 1835v-8l-377 -305h-56l142 313h291zM979 1438l209 -1170q21 -113 49.5 -157t103.5 -68v-43h-636v43q142 22 186.5 69.5t28.5 141.5l-33 192h-498l-110 -178q-72 -107 -55 -155.5t151 -69.5v-43h-490v43q105 22 164.5 71t128.5 160l729 1164h72zM772 1057l-328 -525
h428l-90 525h-10z" />
    <glyph glyph-name="Acircumflex" unicode="&#xc2;" horiz-adv-x="1441" 
d="M1200 1522l-196 123l-279 -123l-66 4l353 313h55l190 -313zM979 1438l209 -1170q21 -113 49.5 -157t103.5 -68v-43h-636v43q142 22 186.5 69.5t28.5 141.5l-33 192h-498l-110 -178q-72 -107 -55 -155.5t151 -69.5v-43h-490v43q105 22 164.5 71t128.5 160l729 1164h72z
M772 1057l-328 -525h428l-90 525h-10z" />
    <glyph glyph-name="Atilde" unicode="&#xc3;" horiz-adv-x="1441" 
d="M852 1665q-87 0 -131 -115l-59 4q27 126 86.5 190t138.5 64q70 0 147 -57l33 -27q28 -20 47 -27t45 -7q43 0 74.5 26t56.5 88l60 -6q-27 -126 -86.5 -189t-143.5 -63q-74 0 -145 58l-31 24q-46 37 -92 37zM979 1438l209 -1170q21 -113 49.5 -157t103.5 -68v-43h-636v43
q142 22 186.5 69.5t28.5 141.5l-33 192h-498l-110 -178q-72 -107 -55 -155.5t151 -69.5v-43h-490v43q105 22 164.5 71t128.5 160l729 1164h72zM772 1057l-328 -525h428l-90 525h-10z" />
    <glyph glyph-name="Adieresis" unicode="&#xc4;" horiz-adv-x="1441" 
d="M778 1559q-54 0 -89.5 34.5t-35.5 89.5q0 64 45.5 109t110.5 45q55 0 90 -34t35 -89q0 -66 -45.5 -110.5t-110.5 -44.5zM1178 1559q-54 0 -88.5 34.5t-34.5 89.5q0 64 45 109t110 45q55 0 90 -34t35 -89q0 -66 -45.5 -110.5t-111.5 -44.5zM979 1438l209 -1170
q21 -113 49.5 -157t103.5 -68v-43h-636v43q142 22 186.5 69.5t28.5 141.5l-33 192h-498l-110 -178q-72 -107 -55 -155.5t151 -69.5v-43h-490v43q105 22 164.5 71t128.5 160l729 1164h72zM772 1057l-328 -525h428l-90 525h-10z" />
    <glyph glyph-name="Aring" unicode="&#xc5;" horiz-adv-x="1441" 
d="M1004 1507q-78 0 -133.5 55t-55.5 132t55.5 132.5t133.5 55.5t134 -55.5t56 -132.5t-56 -132t-134 -55zM1004 1806q-46 0 -75.5 -31.5t-29.5 -80.5t29.5 -80t75.5 -31t76 31t30 80t-30 80.5t-76 31.5zM979 1438l209 -1170q21 -113 49.5 -157t103.5 -68v-43h-636v43
q142 22 186.5 69.5t28.5 141.5l-33 192h-498l-110 -178q-72 -107 -55 -155.5t151 -69.5v-43h-490v43q105 22 164.5 71t128.5 160l729 1164h72zM772 1057l-328 -525h428l-90 525h-10z" />
    <glyph glyph-name="AE" unicode="&#xc6;" horiz-adv-x="1921" 
d="M193 289l897 1134h868v-381h-43q-21 159 -100.5 229t-251.5 70h-201l-145 -579h65q126 0 189 52t75 169h45v-524h-45q-12 117 -75 169t-189 52h-86l-149 -598h296q84 0 146 17.5t113 59.5t83 116t48 184h45v-459h-1205v43q120 12 169 54.5t77 158.5l47 190h-438
l-135 -172q-37 -46 -56.5 -76.5t-27.5 -58t5.5 -45t46 -30.5t89.5 -21v-43h-481v43q51 11 92.5 30.5t80.5 52.5t71.5 68.5t79.5 94.5zM496 532h393l178 711h-10z" />
    <glyph glyph-name="Ccedilla" unicode="&#xc7;" horiz-adv-x="1423" 
d="M967 1362q-148 0 -270.5 -97.5t-189.5 -252t-67 -326.5q0 -125 34.5 -225.5t96 -165.5t144 -100t178.5 -35q243 0 440 205l41 -41q-242 -351 -606 -351h-27l-51 -82l4 -2q23 13 54 13q54 0 90 -36.5t36 -96.5q0 -82 -65 -136.5t-160 -54.5q-69 0 -125 33.5t-92 87.5
l31 33q58 -64 143 -64q54 0 90.5 26.5t36.5 69.5q0 30 -21.5 48t-54.5 18q-38 0 -65 -18l-10 2l100 166q-152 19 -274.5 101.5t-195.5 223.5t-73 316q0 166 63.5 317.5t173 264.5t266 180t333.5 67q233 0 428 -100v-381h-43q-52 189 -151 291t-242 102z" />
    <glyph glyph-name="Egrave" unicode="&#xc8;" horiz-adv-x="1368" 
d="M991 1835l23 -313h-49l-244 305v8h270zM1178 459h43v-459h-1274v43q120 13 168 56.5t78 158.5l229 916q27 113 0.5 154t-131.5 52v43h1112v-381h-43q-19 159 -100 229t-254 70h-271l-145 -579h119q141 0 204.5 51t77.5 170h45v-524h-45q-12 118 -76 169.5t-206 51.5h-140
l-149 -598h364q87 0 150 17.5t114 60t82.5 116.5t47.5 183z" />
    <glyph glyph-name="Eacute" unicode="&#xc9;" horiz-adv-x="1368" 
d="M893 1522h-55l141 313h291v-8zM1178 459h43v-459h-1274v43q120 13 168 56.5t78 158.5l229 916q27 113 0.5 154t-131.5 52v43h1112v-381h-43q-19 159 -100 229t-254 70h-271l-145 -579h119q141 0 204.5 51t77.5 170h45v-524h-45q-12 118 -76 169.5t-206 51.5h-140
l-149 -598h364q87 0 150 17.5t114 60t82.5 116.5t47.5 183z" />
    <glyph glyph-name="Ecircumflex" unicode="&#xca;" horiz-adv-x="1368" 
d="M692 1522l-65 4l352 313h55l191 -313l-58 -4l-196 123zM1178 459h43v-459h-1274v43q120 13 168 56.5t78 158.5l229 916q27 113 0.5 154t-131.5 52v43h1112v-381h-43q-19 159 -100 229t-254 70h-271l-145 -579h119q141 0 204.5 51t77.5 170h45v-524h-45q-12 118 -76 169.5
t-206 51.5h-140l-149 -598h364q87 0 150 17.5t114 60t82.5 116.5t47.5 183z" />
    <glyph glyph-name="Edieresis" unicode="&#xcb;" horiz-adv-x="1368" 
d="M745 1559q-54 0 -89 34.5t-35 89.5q0 64 45 109t110 45q55 0 90 -34t35 -89q0 -66 -45.5 -110.5t-110.5 -44.5zM1145 1559q-54 0 -88.5 34.5t-34.5 89.5q0 64 45.5 109t110.5 45q55 0 90 -34t35 -89q0 -66 -46 -110.5t-112 -44.5zM1178 459h43v-459h-1274v43
q120 13 168 56.5t78 158.5l229 916q27 113 0.5 154t-131.5 52v43h1112v-381h-43q-19 159 -100 229t-254 70h-271l-145 -579h119q141 0 204.5 51t77.5 170h45v-524h-45q-12 118 -76 169.5t-206 51.5h-140l-149 -598h364q87 0 150 17.5t114 60t82.5 116.5t47.5 183z" />
    <glyph glyph-name="Igrave" unicode="&#xcc;" horiz-adv-x="768" 
d="M702 1835l23 -313h-49l-244 305v8h270zM-51 0v43q118 11 165 51t76 156l230 924q28 114 3.5 154t-130.5 52v43h641v-43q-119 -11 -166.5 -51t-75.5 -155l-231 -924q-15 -60 -16 -96t16 -59.5t47 -34.5t84 -17v-43h-643z" />
    <glyph glyph-name="Iacute" unicode="&#xcd;" horiz-adv-x="768" 
d="M604 1522h-55l141 313h291v-8zM-51 0v43q118 11 165 51t76 156l230 924q28 114 3.5 154t-130.5 52v43h641v-43q-119 -11 -166.5 -51t-75.5 -155l-231 -924q-15 -60 -16 -96t16 -59.5t47 -34.5t84 -17v-43h-643z" />
    <glyph glyph-name="Icircumflex" unicode="&#xce;" horiz-adv-x="768" 
d="M406 1522l-66 4l352 313h56l190 -313l-57 -4l-197 123zM-51 0v43q118 11 165 51t76 156l230 924q28 114 3.5 154t-130.5 52v43h641v-43q-119 -11 -166.5 -51t-75.5 -155l-231 -924q-15 -60 -16 -96t16 -59.5t47 -34.5t84 -17v-43h-643z" />
    <glyph glyph-name="Idieresis" unicode="&#xcf;" horiz-adv-x="768" 
d="M459 1559q-54 0 -89.5 34.5t-35.5 89.5q0 64 45 109t110 45q55 0 90 -34t35 -89q0 -66 -45 -110.5t-110 -44.5zM858 1559q-54 0 -88.5 34.5t-34.5 89.5q0 64 45.5 109t110.5 45q55 0 90 -34t35 -89q0 -66 -46 -110.5t-112 -44.5zM-51 0v43q118 11 165 51t76 156l230 924
q28 114 3.5 154t-130.5 52v43h641v-43q-119 -11 -166.5 -51t-75.5 -155l-231 -924q-15 -60 -16 -96t16 -59.5t47 -34.5t84 -17v-43h-643z" />
    <glyph glyph-name="Eth" unicode="&#xd0;" horiz-adv-x="1630" 
d="M301 1423h590q209 0 372 -76t254 -215t91 -319q0 -176 -70.5 -327t-195 -258t-302.5 -167.5t-387 -60.5h-698v43q121 14 169 55t77 160l106 428h-196v82h217l100 406q30 104 5 150t-132 56v43zM428 80h166q138 0 255.5 43t200.5 117t142 172.5t87 210.5t28 231
q0 236 -117 362.5t-324 126.5h-123l-143 -575h264v-82h-284z" />
    <glyph glyph-name="Ntilde" unicode="&#xd1;" horiz-adv-x="1540" 
d="M1167 1546q-74 0 -145 58l-31 24q-46 37 -92 37q-87 0 -131 -115l-59 4q27 126 86.5 190t138.5 64q70 0 147 -57l33 -27q28 -20 47 -27t45 -7q43 0 74.5 26t56.5 88l60 -6q-27 -126 -86.5 -189t-143.5 -63zM-55 0v43q118 10 166.5 53t76.5 156l244 981l-100 182v8h344
l514 -1003h10l186 756q28 109 3 150.5t-127 53.5v43h462v-43q-116 -11 -166 -52t-77 -154l-297 -1188h-80l-592 1144h-10l-219 -880q-28 -110 -2.5 -152.5t129.5 -54.5v-43h-465z" />
    <glyph glyph-name="Ograve" unicode="&#xd2;" horiz-adv-x="1650" 
d="M1090 1835l22 -313h-49l-244 305v8h271zM780 -27q-186 0 -333.5 80.5t-228.5 222t-81 316.5q0 172 64.5 329.5t176 274t270 185.5t337.5 69q140 0 260.5 -47.5t204 -130.5t131 -197.5t47.5 -245.5q0 -232 -109.5 -428t-305 -312t-433.5 -116zM782 63q84 0 161 37
t135.5 100t106.5 145.5t78.5 175.5t47 188.5t16.5 185.5q0 213 -89.5 339t-252.5 126q-84 0 -161 -37t-136 -100.5t-107 -146.5t-79 -176.5t-47.5 -189t-16.5 -184.5q0 -214 90 -338.5t254 -124.5z" />
    <glyph glyph-name="Oacute" unicode="&#xd3;" horiz-adv-x="1650" 
d="M991 1522h-55l141 313h291v-8zM780 -27q-186 0 -333.5 80.5t-228.5 222t-81 316.5q0 172 64.5 329.5t176 274t270 185.5t337.5 69q140 0 260.5 -47.5t204 -130.5t131 -197.5t47.5 -245.5q0 -232 -109.5 -428t-305 -312t-433.5 -116zM782 63q84 0 161 37t135.5 100
t106.5 145.5t78.5 175.5t47 188.5t16.5 185.5q0 213 -89.5 339t-252.5 126q-84 0 -161 -37t-136 -100.5t-107 -146.5t-79 -176.5t-47.5 -189t-16.5 -184.5q0 -214 90 -338.5t254 -124.5z" />
    <glyph glyph-name="Ocircumflex" unicode="&#xd4;" horiz-adv-x="1650" 
d="M793 1522l-66 4l352 313h56l190 -313l-57 -4l-197 123zM780 -27q-186 0 -333.5 80.5t-228.5 222t-81 316.5q0 172 64.5 329.5t176 274t270 185.5t337.5 69q140 0 260.5 -47.5t204 -130.5t131 -197.5t47.5 -245.5q0 -232 -109.5 -428t-305 -312t-433.5 -116zM782 63
q84 0 161 37t135.5 100t106.5 145.5t78.5 175.5t47 188.5t16.5 185.5q0 213 -89.5 339t-252.5 126q-84 0 -161 -37t-136 -100.5t-107 -146.5t-79 -176.5t-47.5 -189t-16.5 -184.5q0 -214 90 -338.5t254 -124.5z" />
    <glyph glyph-name="Otilde" unicode="&#xd5;" horiz-adv-x="1650" 
d="M1186 1546q-75 0 -146 58l-30 24q-46 37 -92 37q-88 0 -132 -115l-59 4q27 126 86.5 190t138.5 64q71 0 148 -57l33 -27q28 -20 47 -27t45 -7q43 0 74.5 26t56.5 88l59 -6q-27 -126 -86 -189t-143 -63zM780 -27q-186 0 -333.5 80.5t-228.5 222t-81 316.5
q0 172 64.5 329.5t176 274t270 185.5t337.5 69q140 0 260.5 -47.5t204 -130.5t131 -197.5t47.5 -245.5q0 -232 -109.5 -428t-305 -312t-433.5 -116zM782 63q84 0 161 37t135.5 100t106.5 145.5t78.5 175.5t47 188.5t16.5 185.5q0 213 -89.5 339t-252.5 126q-84 0 -161 -37
t-136 -100.5t-107 -146.5t-79 -176.5t-47.5 -189t-16.5 -184.5q0 -214 90 -338.5t254 -124.5z" />
    <glyph glyph-name="Odieresis" unicode="&#xd6;" horiz-adv-x="1650" 
d="M846 1559q-54 0 -89.5 34.5t-35.5 89.5q0 64 45.5 109t110.5 45q54 0 89 -34t35 -89q0 -66 -45 -110.5t-110 -44.5zM1245 1559q-54 0 -88.5 34.5t-34.5 89.5q0 64 45.5 109t110.5 45q55 0 90 -34t35 -89q0 -66 -46 -110.5t-112 -44.5zM780 -27q-186 0 -333.5 80.5
t-228.5 222t-81 316.5q0 172 64.5 329.5t176 274t270 185.5t337.5 69q140 0 260.5 -47.5t204 -130.5t131 -197.5t47.5 -245.5q0 -232 -109.5 -428t-305 -312t-433.5 -116zM782 63q84 0 161 37t135.5 100t106.5 145.5t78.5 175.5t47 188.5t16.5 185.5q0 213 -89.5 339
t-252.5 126q-84 0 -161 -37t-136 -100.5t-107 -146.5t-79 -176.5t-47.5 -189t-16.5 -184.5q0 -214 90 -338.5t254 -124.5z" />
    <glyph glyph-name="multiply" unicode="&#xd7;" horiz-adv-x="1081" 
d="M881 889l65 -64l-340 -340l340 -342l-65 -63l-340 340l-340 -342l-66 65l342 342l-342 340l68 64l338 -340z" />
    <glyph glyph-name="Oslash" unicode="&#xd8;" horiz-adv-x="1650" 
d="M1661 1516l55 -56l-231 -223q145 -172 145 -408q0 -232 -109.5 -428t-305 -312t-433.5 -116q-262 0 -444 158l-227 -219l-58 53l230 221q-146 168 -146 406q0 172 65 329.5t176.5 274t270.5 185.5t338 69q261 0 443 -158zM440 526q0 -89 19 -170l825 797q-40 99 -117 153
t-182 54q-100 0 -189.5 -52.5t-153 -139t-110 -196t-69.5 -224t-23 -222.5zM1329 895q0 95 -18 174l-828 -797q40 -100 116.5 -154.5t182.5 -54.5q84 0 161 37t136 100t107 145.5t79 175.5t47.5 188.5t16.5 185.5z" />
    <glyph glyph-name="Ugrave" unicode="&#xd9;" horiz-adv-x="1595" 
d="M1153 1835l23 -313h-50l-243 305v8h270zM733 -27q-133 0 -238.5 45t-171.5 129t-86.5 204t17.5 270l139 559q28 106 2 147t-131 53v43h643v-43q-116 -10 -165.5 -51.5t-75.5 -148.5l-148 -594q-52 -207 28 -326t271 -119q178 0 302 112.5t181 340.5l146 582
q27 113 2 152.5t-129 51.5v43h465v-43q-116 -11 -167 -53.5t-77 -150.5l-149 -594q-151 -609 -658 -609z" />
    <glyph glyph-name="Uacute" unicode="&#xda;" horiz-adv-x="1595" 
d="M1055 1522h-56l142 313h291v-8zM733 -27q-133 0 -238.5 45t-171.5 129t-86.5 204t17.5 270l139 559q28 106 2 147t-131 53v43h643v-43q-116 -10 -165.5 -51.5t-75.5 -148.5l-148 -594q-52 -207 28 -326t271 -119q178 0 302 112.5t181 340.5l146 582q27 113 2 152.5
t-129 51.5v43h465v-43q-116 -11 -167 -53.5t-77 -150.5l-149 -594q-151 -609 -658 -609z" />
    <glyph glyph-name="Ucircumflex" unicode="&#xdb;" horiz-adv-x="1595" 
d="M856 1522l-65 4l352 313h55l191 -313l-58 -4l-196 123zM733 -27q-133 0 -238.5 45t-171.5 129t-86.5 204t17.5 270l139 559q28 106 2 147t-131 53v43h643v-43q-116 -10 -165.5 -51.5t-75.5 -148.5l-148 -594q-52 -207 28 -326t271 -119q178 0 302 112.5t181 340.5
l146 582q27 113 2 152.5t-129 51.5v43h465v-43q-116 -11 -167 -53.5t-77 -150.5l-149 -594q-151 -609 -658 -609z" />
    <glyph glyph-name="Udieresis" unicode="&#xdc;" horiz-adv-x="1595" 
d="M909 1559q-54 0 -89.5 34.5t-35.5 89.5q0 64 45.5 109t110.5 45q55 0 90 -34t35 -89q0 -66 -45.5 -110.5t-110.5 -44.5zM1309 1559q-54 0 -88.5 34.5t-34.5 89.5q0 64 45 109t110 45q55 0 90 -34t35 -89q0 -66 -45.5 -110.5t-111.5 -44.5zM733 -27q-133 0 -238.5 45
t-171.5 129t-86.5 204t17.5 270l139 559q28 106 2 147t-131 53v43h643v-43q-116 -10 -165.5 -51.5t-75.5 -148.5l-148 -594q-52 -207 28 -326t271 -119q178 0 302 112.5t181 340.5l146 582q27 113 2 152.5t-129 51.5v43h465v-43q-116 -11 -167 -53.5t-77 -150.5l-149 -594
q-151 -609 -658 -609z" />
    <glyph glyph-name="Yacute" unicode="&#xdd;" horiz-adv-x="1470" 
d="M1350 1835v-8l-377 -305h-55l141 313h291zM1233 1380v43h463v-43q-74 -13 -131 -42t-93.5 -62t-87.5 -92l-471 -557l-94 -381q-27 -114 -1 -153t130 -50v-43h-643v43q116 9 165 50t77 153l86 348l-207 600q-30 90 -65 130t-115 56v43h655v-43q-77 -9 -123 -26t-63 -44
t-16 -57t16 -75l151 -457h11l387 457q33 39 51 65t26.5 50.5t-0.5 40t-35 27.5t-73 19z" />
    <glyph glyph-name="Thorn" unicode="&#xde;" horiz-adv-x="1288" 
d="M680 1124h80q232 0 377 -95.5t145 -262.5q0 -144 -85.5 -251t-228 -160.5t-321.5 -53.5h-174l-12 -51q-28 -116 -1.5 -155.5t132.5 -51.5v-43h-643v43q118 12 165 51.5t76 155.5l230 924q28 114 3.5 154t-130.5 52v43h641v-43q-119 -12 -166.5 -52.5t-75.5 -153.5z
M494 381h114q182 0 289 112.5t107 280.5q0 131 -72 199.5t-197 68.5h-76z" />
    <glyph glyph-name="germandbls" unicode="&#xdf;" horiz-adv-x="1157" 
d="M586 -25q-122 0 -201 50l23 53q54 -21 100 -21q91 0 160 59t102 148t33 189q0 128 -57.5 199.5t-159.5 80.5v66q162 10 255 124t93 281q0 91 -37.5 144t-108.5 53q-146 0 -202 -221l-295 -1180h-359v43q87 9 117 36t53 118l224 890q97 394 471 394q169 0 273 -88.5
t104 -233.5q0 -155 -122.5 -259.5t-312.5 -135.5v-10q137 -30 227.5 -122.5t90.5 -230.5q0 -181 -134 -303.5t-337 -122.5z" />
    <glyph glyph-name="agrave" unicode="&#xe0;" horiz-adv-x="1167" 
d="M780 1421l23 -313h-51l-242 305v8h270zM360 -27q-135 0 -217 108t-82 273q0 121 44.5 236.5t120 204.5t184.5 143.5t231 54.5q159 0 277 -90h8l149 70h45l-180 -721q-10 -43 -10.5 -70.5t22 -41t76.5 -15.5v-43l-385 -94h-10l43 170h-10q-132 -185 -306 -185zM477 125
q60 0 113.5 35.5t109.5 97.5l99 389q29 115 -13.5 191.5t-136.5 76.5q-100 0 -182.5 -79t-126 -196.5t-43.5 -240.5t46.5 -198.5t133.5 -75.5z" />
    <glyph glyph-name="aacute" unicode="&#xe1;" horiz-adv-x="1167" 
d="M662 1108h-58l144 313h290v-8zM360 -27q-135 0 -217 108t-82 273q0 121 44.5 236.5t120 204.5t184.5 143.5t231 54.5q159 0 277 -90h8l149 70h45l-180 -721q-10 -43 -10.5 -70.5t22 -41t76.5 -15.5v-43l-385 -94h-10l43 170h-10q-132 -185 -306 -185zM477 125
q60 0 113.5 35.5t109.5 97.5l99 389q29 115 -13.5 191.5t-136.5 76.5q-100 0 -182.5 -79t-126 -196.5t-43.5 -240.5t46.5 -198.5t133.5 -75.5z" />
    <glyph glyph-name="acircumflex" unicode="&#xe2;" horiz-adv-x="1167" 
d="M461 1108l-66 4l353 313h55l188 -313l-55 -4l-197 123zM360 -27q-135 0 -217 108t-82 273q0 121 44.5 236.5t120 204.5t184.5 143.5t231 54.5q159 0 277 -90h8l149 70h45l-180 -721q-10 -43 -10.5 -70.5t22 -41t76.5 -15.5v-43l-385 -94h-10l43 170h-10
q-132 -185 -306 -185zM477 125q60 0 113.5 35.5t109.5 97.5l99 389q29 115 -13.5 191.5t-136.5 76.5q-100 0 -182.5 -79t-126 -196.5t-43.5 -240.5t46.5 -198.5t133.5 -75.5z" />
    <glyph glyph-name="atilde" unicode="&#xe3;" horiz-adv-x="1167" 
d="M848 1128q-71 0 -146 58l-30 24q-48 39 -92 39q-43 0 -75 -27t-56 -89l-60 6q27 125 86.5 188.5t138.5 63.5q70 0 148 -58l33 -24q29 -21 48 -29t44 -8q43 0 75 27t56 90l59 -7q-27 -127 -86.5 -190.5t-142.5 -63.5zM360 -27q-135 0 -217 108t-82 273q0 121 44.5 236.5
t120 204.5t184.5 143.5t231 54.5q159 0 277 -90h8l149 70h45l-180 -721q-10 -43 -10.5 -70.5t22 -41t76.5 -15.5v-43l-385 -94h-10l43 170h-10q-132 -185 -306 -185zM477 125q60 0 113.5 35.5t109.5 97.5l99 389q29 115 -13.5 191.5t-136.5 76.5q-100 0 -182.5 -79
t-126 -196.5t-43.5 -240.5t46.5 -198.5t133.5 -75.5z" />
    <glyph glyph-name="adieresis" unicode="&#xe4;" horiz-adv-x="1167" 
d="M526 1141q-54 0 -89.5 35.5t-35.5 89.5q0 64 45.5 109.5t110.5 45.5q56 0 90.5 -34t34.5 -91q0 -66 -45.5 -110.5t-110.5 -44.5zM928 1141q-54 0 -89.5 35.5t-35.5 89.5q0 64 45.5 109.5t109.5 45.5q56 0 90.5 -34t34.5 -91q0 -66 -45 -110.5t-110 -44.5zM360 -27
q-135 0 -217 108t-82 273q0 121 44.5 236.5t120 204.5t184.5 143.5t231 54.5q159 0 277 -90h8l149 70h45l-180 -721q-10 -43 -10.5 -70.5t22 -41t76.5 -15.5v-43l-385 -94h-10l43 170h-10q-132 -185 -306 -185zM477 125q60 0 113.5 35.5t109.5 97.5l99 389
q29 115 -13.5 191.5t-136.5 76.5q-100 0 -182.5 -79t-126 -196.5t-43.5 -240.5t46.5 -198.5t133.5 -75.5z" />
    <glyph glyph-name="aring" unicode="&#xe5;" horiz-adv-x="1167" 
d="M739 1085q-78 0 -133 55t-55 132t55 131.5t133 54.5t134.5 -55t56.5 -131t-56.5 -131.5t-134.5 -55.5zM739 1161q46 0 76.5 31t30.5 80t-30.5 79.5t-76.5 30.5t-75 -30.5t-29 -79.5t29 -80t75 -31zM360 -27q-135 0 -217 108t-82 273q0 121 44.5 236.5t120 204.5
t184.5 143.5t231 54.5q159 0 277 -90h8l149 70h45l-180 -721q-10 -43 -10.5 -70.5t22 -41t76.5 -15.5v-43l-385 -94h-10l43 170h-10q-132 -185 -306 -185zM477 125q60 0 113.5 35.5t109.5 97.5l99 389q29 115 -13.5 191.5t-136.5 76.5q-100 0 -182.5 -79t-126 -196.5
t-43.5 -240.5t46.5 -198.5t133.5 -75.5z" />
    <glyph glyph-name="ae" unicode="&#xe6;" horiz-adv-x="1536" 
d="M1145 993q176 0 266 -105.5t62 -258.5l-11 -45h-610q-8 -41 -8 -90q0 -158 78 -245t208 -87q160 0 277 114l37 -34q-170 -269 -436 -269q-123 0 -220.5 71t-140.5 192h-10q-191 -263 -399 -263q-101 0 -162.5 59.5t-61.5 153.5q0 59 25 105t75.5 79.5t111.5 57.5t147 45
l223 55l25 99q26 103 -18.5 160t-143.5 57q-149 0 -295 -113l-31 45q89 91 201 154t231 63q168 0 248 -127h10q140 127 322 127zM866 655h385q14 70 9 127.5t-40 94t-94 36.5q-90 0 -158.5 -73t-101.5 -185zM518 213l62 250l-129 -39q-97 -32 -149 -73t-52 -111
q0 -51 28.5 -81t73.5 -30q85 0 166 84z" />
    <glyph glyph-name="ccedilla" unicode="&#xe7;" horiz-adv-x="974" 
d="M639 911q-143 0 -238.5 -127t-95.5 -303q0 -152 77 -235.5t206 -83.5q157 0 274 114l37 -34q-84 -132 -194 -200.5t-236 -68.5h-20l-52 -82l4 -2q23 13 54 13q54 0 90.5 -36.5t36.5 -96.5q0 -81 -65 -136t-161 -55q-69 0 -125 33.5t-92 87.5l31 33q58 -64 143 -64
q54 0 90.5 26.5t36.5 69.5q0 30 -21 48t-54 18q-39 0 -66 -18l-10 2l102 166q-147 28 -234 145t-87 281q0 157 72.5 291t207 215t301.5 81q146 0 271 -59v-264h-43q-28 116 -88.5 178.5t-151.5 62.5z" />
    <glyph glyph-name="egrave" unicode="&#xe8;" horiz-adv-x="993" 
d="M715 1421l22 -313h-51l-242 305v8h271zM598 993q179 0 268.5 -105.5t59.5 -262.5l-8 -41h-611q-8 -41 -8 -90q0 -158 78.5 -245t208.5 -87q156 0 276 114l37 -34q-172 -269 -434 -269q-167 0 -280 119.5t-113 308.5q0 155 67 290.5t189 218.5t270 83zM582 913
q-90 0 -158.5 -73t-101.5 -185h385q14 70 9 127.5t-40 94t-94 36.5z" />
    <glyph glyph-name="eacute" unicode="&#xe9;" horiz-adv-x="993" 
d="M539 1108l143 313h291v-8l-377 -305h-57zM598 993q179 0 268.5 -105.5t59.5 -262.5l-8 -41h-611q-8 -41 -8 -90q0 -158 78.5 -245t208.5 -87q156 0 276 114l37 -34q-172 -269 -434 -269q-167 0 -280 119.5t-113 308.5q0 155 67 290.5t189 218.5t270 83zM582 913
q-90 0 -158.5 -73t-101.5 -185h385q14 70 9 127.5t-40 94t-94 36.5z" />
    <glyph glyph-name="ecircumflex" unicode="&#xea;" horiz-adv-x="993" 
d="M870 1108l-196 123l-279 -123l-65 4l352 313h55l189 -313zM598 993q179 0 268.5 -105.5t59.5 -262.5l-8 -41h-611q-8 -41 -8 -90q0 -158 78.5 -245t208.5 -87q156 0 276 114l37 -34q-172 -269 -434 -269q-167 0 -280 119.5t-113 308.5q0 155 67 290.5t189 218.5t270 83z
M582 913q-90 0 -158.5 -73t-101.5 -185h385q14 70 9 127.5t-40 94t-94 36.5z" />
    <glyph glyph-name="edieresis" unicode="&#xeb;" horiz-adv-x="993" 
d="M461 1141q-54 0 -89.5 35.5t-35.5 89.5q0 64 45.5 109.5t110.5 45.5q56 0 90 -34t34 -91q0 -66 -45 -110.5t-110 -44.5zM893 1421q56 0 90.5 -34t34.5 -91q0 -66 -45.5 -110.5t-110.5 -44.5q-54 0 -89.5 35.5t-35.5 89.5q0 64 45.5 109.5t110.5 45.5zM598 993
q179 0 268.5 -105.5t59.5 -262.5l-8 -41h-611q-8 -41 -8 -90q0 -158 78.5 -245t208.5 -87q156 0 276 114l37 -34q-172 -269 -434 -269q-167 0 -280 119.5t-113 308.5q0 155 67 290.5t189 218.5t270 83zM582 913q-90 0 -158.5 -73t-101.5 -185h385q14 70 9 127.5t-40 94
t-94 36.5z" />
    <glyph glyph-name="igrave" unicode="&#xec;" horiz-adv-x="602" 
d="M535 1421l22 -313h-51l-242 305v8h271zM555 981l-197 -799q-20 -78 -4.5 -104t84.5 -35v-43h-485v43q85 9 114.5 35t51.5 110l131 529q18 66 -4 94.5t-99 32.5v41l400 96h8z" />
    <glyph glyph-name="iacute" unicode="&#xed;" horiz-adv-x="602" 
d="M416 1108h-58l144 313h291v-8zM555 981l-197 -799q-20 -78 -4.5 -104t84.5 -35v-43h-485v43q85 9 114.5 35t51.5 110l131 529q18 66 -4 94.5t-99 32.5v41l400 96h8z" />
    <glyph glyph-name="icircumflex" unicode="&#xee;" horiz-adv-x="602" 
d="M217 1108l-65 4l352 313h55l189 -313l-56 -4l-196 123zM555 981l-197 -799q-20 -78 -4.5 -104t84.5 -35v-43h-485v43q85 9 114.5 35t51.5 110l131 529q18 66 -4 94.5t-99 32.5v41l400 96h8z" />
    <glyph glyph-name="idieresis" unicode="&#xef;" horiz-adv-x="602" 
d="M281 1141q-54 0 -89.5 35.5t-35.5 89.5q0 64 45 109.5t110 45.5q56 0 90.5 -34t34.5 -91q0 -66 -45 -110.5t-110 -44.5zM682 1141q-54 0 -89.5 35.5t-35.5 89.5q0 64 45.5 109.5t110.5 45.5q56 0 90.5 -34t34.5 -91q0 -66 -45.5 -110.5t-110.5 -44.5zM555 981l-197 -799
q-20 -78 -4.5 -104t84.5 -35v-43h-485v43q85 9 114.5 35t51.5 110l131 529q18 66 -4 94.5t-99 32.5v41l400 96h8z" />
    <glyph glyph-name="eth" unicode="&#xf0;" horiz-adv-x="1187" 
d="M1128 1352l-190 -84q201 -204 201 -498q0 -115 -29 -230t-85 -216.5t-132 -180t-176.5 -124.5t-210.5 -46q-187 0 -307.5 134t-120.5 335q0 147 64 273.5t178 202t251 75.5q115 0 201.5 -61t134.5 -162h11q33 260 -97 447l-334 -148l-20 68l309 137q-93 99 -221 156
l25 47q170 -47 301 -158l227 100zM877 627l12 65q-29 71 -91.5 118.5t-140.5 47.5q-104 0 -185 -70t-123 -182.5t-42 -243.5q0 -136 53.5 -223.5t147.5 -87.5q135 0 225 145.5t144 430.5z" />
    <glyph glyph-name="ntilde" unicode="&#xf1;" horiz-adv-x="1185" 
d="M909 1128q-70 0 -145 58l-31 24q-48 39 -92 39q-43 0 -75 -27t-56 -89l-59 6q27 125 86.5 188.5t138.5 63.5q69 0 147 -58l33 -24q29 -21 48 -29t44 -8q43 0 75 27t56 90l60 -7q-27 -126 -86.5 -190t-143.5 -64zM117 182l131 529q18 69 -1.5 99t-99.5 34v41l400 96h8
l-43 -172h10q72 88 146 136t166 48q130 0 199 -107t26 -280l-105 -424q-20 -80 -5.5 -105t85.5 -34v-43h-471v43q73 9 102 36t52 111l112 459q22 90 -10.5 142.5t-99.5 52.5q-109 0 -232 -137l-133 -531q-9 -39 -10 -62.5t8.5 -38t25.5 -21t46 -11.5v-43h-471v43
q81 9 112 33.5t52 105.5z" />
    <glyph glyph-name="ograve" unicode="&#xf2;" horiz-adv-x="1148" 
d="M776 1421l23 -313h-51l-242 305v8h270zM496 -27q-193 0 -310.5 114t-117.5 298q0 166 76 305.5t211.5 221t301.5 81.5q193 0 310.5 -114.5t117.5 -298.5q0 -165 -76 -304t-211.5 -221t-301.5 -82zM500 59q76 0 140 58t103 147.5t60.5 190.5t21.5 194q0 125 -44.5 191.5
t-127.5 66.5q-77 0 -141 -58t-103 -148t-60 -191t-21 -195q0 -125 44 -190.5t128 -65.5z" />
    <glyph glyph-name="oacute" unicode="&#xf3;" horiz-adv-x="1148" 
d="M657 1108h-57l143 313h291v-8zM496 -27q-193 0 -310.5 114t-117.5 298q0 166 76 305.5t211.5 221t301.5 81.5q193 0 310.5 -114.5t117.5 -298.5q0 -165 -76 -304t-211.5 -221t-301.5 -82zM500 59q76 0 140 58t103 147.5t60.5 190.5t21.5 194q0 125 -44.5 191.5
t-127.5 66.5q-77 0 -141 -58t-103 -148t-60 -191t-21 -195q0 -125 44 -190.5t128 -65.5z" />
    <glyph glyph-name="ocircumflex" unicode="&#xf4;" horiz-adv-x="1148" 
d="M457 1108l-66 4l352 313h56l188 -313l-55 -4l-197 123zM496 -27q-193 0 -310.5 114t-117.5 298q0 166 76 305.5t211.5 221t301.5 81.5q193 0 310.5 -114.5t117.5 -298.5q0 -165 -76 -304t-211.5 -221t-301.5 -82zM500 59q76 0 140 58t103 147.5t60.5 190.5t21.5 194
q0 125 -44.5 191.5t-127.5 66.5q-77 0 -141 -58t-103 -148t-60 -191t-21 -195q0 -125 44 -190.5t128 -65.5z" />
    <glyph glyph-name="otilde" unicode="&#xf5;" horiz-adv-x="1148" 
d="M846 1128q-71 0 -146 58l-30 24q-48 39 -92 39q-87 0 -132 -116l-59 6q27 125 86.5 188.5t138.5 63.5q70 0 148 -58l33 -24q29 -21 48 -29t44 -8q43 0 75 27t56 90l59 -7q-27 -127 -86.5 -190.5t-142.5 -63.5zM496 -27q-193 0 -310.5 114t-117.5 298q0 166 76 305.5
t211.5 221t301.5 81.5q193 0 310.5 -114.5t117.5 -298.5q0 -165 -76 -304t-211.5 -221t-301.5 -82zM500 59q76 0 140 58t103 147.5t60.5 190.5t21.5 194q0 125 -44.5 191.5t-127.5 66.5q-77 0 -141 -58t-103 -148t-60 -191t-21 -195q0 -125 44 -190.5t128 -65.5z" />
    <glyph glyph-name="odieresis" unicode="&#xf6;" horiz-adv-x="1148" 
d="M522 1141q-54 0 -89.5 35.5t-35.5 89.5q0 64 45.5 109.5t110.5 45.5q56 0 90.5 -34t34.5 -91q0 -66 -45.5 -110.5t-110.5 -44.5zM924 1141q-54 0 -89.5 35.5t-35.5 89.5q0 64 45.5 109.5t109.5 45.5q56 0 90.5 -34t34.5 -91q0 -66 -45 -110.5t-110 -44.5zM496 -27
q-193 0 -310.5 114t-117.5 298q0 166 76 305.5t211.5 221t301.5 81.5q193 0 310.5 -114.5t117.5 -298.5q0 -165 -76 -304t-211.5 -221t-301.5 -82zM500 59q76 0 140 58t103 147.5t60.5 190.5t21.5 194q0 125 -44.5 191.5t-127.5 66.5q-77 0 -141 -58t-103 -148t-60 -191
t-21 -195q0 -125 44 -190.5t128 -65.5z" />
    <glyph glyph-name="divide" unicode="&#xf7;" horiz-adv-x="1167" 
d="M580 696q-51 0 -86 35t-35 86t35 87t86 36t84.5 -35.5t33.5 -87.5q0 -51 -33.5 -86t-84.5 -35zM1059 436h-948v92h948v-92zM580 25q-51 0 -86 34.5t-35 85.5q0 52 35 86.5t86 34.5t84.5 -34.5t33.5 -86.5q0 -51 -33.5 -85.5t-84.5 -34.5z" />
    <glyph glyph-name="oslash" unicode="&#xf8;" horiz-adv-x="1148" 
d="M1071 993l-102 -116q116 -113 116 -297q0 -165 -76 -304t-211.5 -221t-301.5 -82q-144 0 -252 68l-107 -123l-57 51l104 119q-116 116 -116 297q0 166 76 305.5t211.5 221t301.5 81.5q148 0 252 -69l103 118zM328 315q0 -39 2 -57l471 543q-41 106 -148 106
q-76 0 -140 -58t-103 -148t-60.5 -191t-21.5 -195zM500 59q76 0 140 58t103 147.5t60.5 190.5t21.5 194q0 40 -2 58l-471 -541q41 -107 148 -107z" />
    <glyph glyph-name="ugrave" unicode="&#xf9;" horiz-adv-x="1150" 
d="M782 1421l23 -313h-51l-242 305v8h270zM338 -27q-121 0 -186 101.5t-23 267.5l92 371q15 66 -3 95.5t-99 33.5v43l399 94h8l-168 -678q-21 -85 7 -132.5t92 -47.5q101 0 223 137l115 453q10 41 8 69t-28 43.5t-83 18.5v43l400 94h8l-180 -729q-20 -69 -4 -95.5t90 -29.5
v-43l-385 -94h-9l43 170h-10q-135 -185 -307 -185z" />
    <glyph glyph-name="uacute" unicode="&#xfa;" horiz-adv-x="1150" 
d="M664 1108h-58l144 313h290v-8zM338 -27q-121 0 -186 101.5t-23 267.5l92 371q15 66 -3 95.5t-99 33.5v43l399 94h8l-168 -678q-21 -85 7 -132.5t92 -47.5q101 0 223 137l115 453q10 41 8 69t-28 43.5t-83 18.5v43l400 94h8l-180 -729q-20 -69 -4 -95.5t90 -29.5v-43
l-385 -94h-9l43 170h-10q-135 -185 -307 -185z" />
    <glyph glyph-name="ucircumflex" unicode="&#xfb;" horiz-adv-x="1150" 
d="M465 1108l-66 4l353 313h55l188 -313l-55 -4l-197 123zM338 -27q-121 0 -186 101.5t-23 267.5l92 371q15 66 -3 95.5t-99 33.5v43l399 94h8l-168 -678q-21 -85 7 -132.5t92 -47.5q101 0 223 137l115 453q10 41 8 69t-28 43.5t-83 18.5v43l400 94h8l-180 -729
q-20 -69 -4 -95.5t90 -29.5v-43l-385 -94h-9l43 170h-10q-135 -185 -307 -185z" />
    <glyph glyph-name="udieresis" unicode="&#xfc;" horiz-adv-x="1150" 
d="M528 1141q-54 0 -89.5 35.5t-35.5 89.5q0 64 45.5 109.5t110.5 45.5q56 0 90.5 -34t34.5 -91q0 -66 -45.5 -110.5t-110.5 -44.5zM930 1141q-54 0 -89.5 35.5t-35.5 89.5q0 64 45.5 109.5t110.5 45.5q56 0 90 -34t34 -91q0 -66 -45 -110.5t-110 -44.5zM338 -27
q-121 0 -186 101.5t-23 267.5l92 371q15 66 -3 95.5t-99 33.5v43l399 94h8l-168 -678q-21 -85 7 -132.5t92 -47.5q101 0 223 137l115 453q10 41 8 69t-28 43.5t-83 18.5v43l400 94h8l-180 -729q-20 -69 -4 -95.5t90 -29.5v-43l-385 -94h-9l43 170h-10q-135 -185 -307 -185z
" />
    <glyph glyph-name="yacute" unicode="&#xfd;" horiz-adv-x="1052" 
d="M1010 1421v-8l-377 -305h-58l144 313h291zM811 922v43h365v-43q-91 -16 -141.5 -59.5t-102.5 -133.5l-514 -858q-105 -175 -194.5 -242t-198.5 -67q-77 0 -142 35v213q78 -37 176 -37q216 0 336 200l2 4l-141 760q-11 66 -45 92t-127 27v43l367 92l4 -16q19 -107 39 -232
l77 -452h13l262 442q22 38 33 60.5t17.5 47.5t-0.5 39t-27.5 25.5t-57.5 16.5z" />
    <glyph glyph-name="thorn" unicode="&#xfe;" horiz-adv-x="1157" 
d="M2 -215l352 1417q17 70 -4.5 96.5t-95.5 32.5v41l397 96h11l-164 -659h10q66 91 140 137.5t167 46.5q134 0 221.5 -105.5t87.5 -275.5t-79.5 -317.5t-215.5 -234.5t-294 -87q-123 0 -224 60h-8l-61 -246q-22 -91 -5.5 -119t97.5 -35v-43h-500v43q85 9 115 36t53 116z
M526 51q102 0 186.5 76.5t130.5 194.5t46 245q0 128 -51 201.5t-136 73.5q-63 0 -116.5 -34.5t-112.5 -98.5l-96 -385q-31 -121 11 -197t138 -76z" />
    <glyph glyph-name="ydieresis" unicode="&#xff;" horiz-adv-x="1052" 
d="M498 1141q-54 0 -89.5 35.5t-35.5 89.5q0 64 45.5 109.5t109.5 45.5q56 0 90.5 -34t34.5 -91q0 -66 -45 -110.5t-110 -44.5zM899 1141q-54 0 -89.5 35.5t-35.5 89.5q0 64 45.5 109.5t110.5 45.5q56 0 90.5 -34t34.5 -91q0 -66 -45.5 -110.5t-110.5 -44.5zM811 922v43h365
v-43q-91 -16 -141.5 -59.5t-102.5 -133.5l-514 -858q-105 -175 -194.5 -242t-198.5 -67q-77 0 -142 35v213q78 -37 176 -37q216 0 336 200l2 4l-141 760q-11 66 -45 92t-127 27v43l367 92l4 -16q19 -107 39 -232l77 -452h13l262 442q22 38 33 60.5t17.5 47.5t-0.5 39
t-27.5 25.5t-57.5 16.5z" />
    <glyph glyph-name="Amacron" unicode="&#x100;" horiz-adv-x="1441" 
d="M707 1702h589v-86h-589v86zM979 1438l209 -1170q21 -113 49.5 -157t103.5 -68v-43h-636v43q142 22 186.5 69.5t28.5 141.5l-33 192h-498l-110 -178q-72 -107 -55 -155.5t151 -69.5v-43h-490v43q105 22 164.5 71t128.5 160l729 1164h72zM772 1057l-328 -525h428l-90 525
h-10z" />
    <glyph glyph-name="amacron" unicode="&#x101;" horiz-adv-x="1167" 
d="M444 1202h592v86h-592v-86zM360 -27q-135 0 -217 108t-82 273q0 121 44.5 236.5t120 204.5t184.5 143.5t231 54.5q159 0 277 -90h8l149 70h45l-180 -721q-10 -43 -10.5 -70.5t22 -41t76.5 -15.5v-43l-385 -94h-10l43 170h-10q-132 -185 -306 -185zM477 125
q60 0 113.5 35.5t109.5 97.5l99 389q29 115 -13.5 191.5t-136.5 76.5q-100 0 -182.5 -79t-126 -196.5t-43.5 -240.5t46.5 -198.5t133.5 -75.5z" />
    <glyph glyph-name="Abreve" unicode="&#x102;" horiz-adv-x="1441" 
d="M981 1526q-117 0 -173.5 84.5t-23.5 226.5h60q-14 -73 26.5 -117.5t124.5 -44.5q88 0 148.5 43.5t91.5 118.5h61q-32 -150 -113 -230.5t-202 -80.5zM979 1438l209 -1170q21 -113 49.5 -157t103.5 -68v-43h-636v43q142 22 186.5 69.5t28.5 141.5l-33 192h-498l-110 -178
q-72 -107 -55 -155.5t151 -69.5v-43h-490v43q105 22 164.5 71t128.5 160l729 1164h72zM772 1057l-328 -525h428l-90 525h-10z" />
    <glyph glyph-name="abreve" unicode="&#x103;" horiz-adv-x="1167" 
d="M715 1112q-115 0 -171.5 84.5t-23.5 226.5h60q-14 -73 26.5 -117t124.5 -44q88 0 148.5 43.5t91.5 117.5h61q-34 -150 -115 -230.5t-202 -80.5zM360 -27q-135 0 -217 108t-82 273q0 121 44.5 236.5t120 204.5t184.5 143.5t231 54.5q159 0 277 -90h8l149 70h45l-180 -721
q-10 -43 -10.5 -70.5t22 -41t76.5 -15.5v-43l-385 -94h-10l43 170h-10q-132 -185 -306 -185zM477 125q60 0 113.5 35.5t109.5 97.5l99 389q29 115 -13.5 191.5t-136.5 76.5q-100 0 -182.5 -79t-126 -196.5t-43.5 -240.5t46.5 -198.5t133.5 -75.5z" />
    <glyph glyph-name="Aogonek" unicode="&#x104;" horiz-adv-x="1441" 
d="M979 1438l209 -1170q21 -113 49.5 -157t103.5 -68v-43h-145q-133 -58 -190.5 -113.5t-57.5 -113.5q0 -42 28.5 -69.5t74.5 -27.5q58 0 114 50l29 -33q-82 -113 -207 -113q-77 0 -125.5 48t-48.5 118q0 165 268 254h-376v43q142 22 186.5 69.5t28.5 141.5l-33 192h-498
l-110 -178q-72 -107 -55 -155.5t151 -69.5v-43h-490v43q105 22 164.5 71t128.5 160l729 1164h72zM772 1057l-328 -525h428l-90 525h-10z" />
    <glyph glyph-name="aogonek" unicode="&#x105;" horiz-adv-x="1167" 
d="M1120 973l-180 -721q-10 -43 -10.5 -70.5t22 -41t76.5 -15.5v-43l-313 -76l12 -6q-133 -58 -190.5 -113.5t-57.5 -113.5q0 -42 28.5 -69.5t74.5 -27.5q58 0 114 50l29 -33q-82 -113 -207 -113q-77 0 -125.5 48t-48.5 118q0 173 293 262l39 150h-10q-132 -185 -306 -185
q-135 0 -217 108t-82 273q0 121 44.5 236.5t120 204.5t184.5 143.5t231 54.5q159 0 277 -90h8l149 70h45zM700 258l99 389q29 115 -13.5 191.5t-136.5 76.5q-100 0 -182.5 -79t-126 -196.5t-43.5 -240.5t46.5 -198.5t133.5 -75.5q60 0 113.5 35.5t109.5 97.5z" />
    <glyph glyph-name="Cacute" unicode="&#x106;" horiz-adv-x="1423" 
d="M948 1522h-55l141 313h291v-8zM768 -27q-171 0 -314 79t-229 228.5t-86 340.5q0 166 63.5 317.5t173 264.5t266 180t333.5 67q233 0 428 -100v-381h-43q-52 189 -151 291t-242 102q-148 0 -270.5 -97.5t-189.5 -252t-67 -326.5q0 -125 34.5 -225.5t96 -165.5t144 -100
t178.5 -35q243 0 440 205l41 -41q-242 -351 -606 -351z" />
    <glyph glyph-name="cacute" unicode="&#x107;" horiz-adv-x="974" 
d="M618 1108h-57l144 313h290v-8zM469 -27q-177 0 -288 123.5t-111 309.5q0 157 72.5 291t207 215t301.5 81q146 0 271 -59v-264h-43q-28 116 -88.5 178.5t-151.5 62.5q-143 0 -238.5 -127t-95.5 -303q0 -152 77 -235.5t206 -83.5q157 0 274 114l37 -34
q-84 -132 -194 -200.5t-236 -68.5z" />
    <glyph glyph-name="Ccircumflex" unicode="&#x108;" horiz-adv-x="1423" 
d="M750 1522l-66 4l352 313h56l190 -313l-57 -4l-197 123zM768 -27q-171 0 -314 79t-229 228.5t-86 340.5q0 166 63.5 317.5t173 264.5t266 180t333.5 67q233 0 428 -100v-381h-43q-52 189 -151 291t-242 102q-148 0 -270.5 -97.5t-189.5 -252t-67 -326.5
q0 -125 34.5 -225.5t96 -165.5t144 -100t178.5 -35q243 0 440 205l41 -41q-242 -351 -606 -351z" />
    <glyph glyph-name="ccircumflex" unicode="&#x109;" horiz-adv-x="974" 
d="M418 1108l-66 4l353 313h55l188 -313l-55 -4l-197 123zM469 -27q-177 0 -288 123.5t-111 309.5q0 157 72.5 291t207 215t301.5 81q146 0 271 -59v-264h-43q-28 116 -88.5 178.5t-151.5 62.5q-143 0 -238.5 -127t-95.5 -303q0 -152 77 -235.5t206 -83.5q157 0 274 114
l37 -34q-84 -132 -194 -200.5t-236 -68.5z" />
    <glyph glyph-name="Cdotaccent" unicode="&#x10a;" horiz-adv-x="1423" 
d="M1008 1548q-57 0 -95.5 37.5t-38.5 95.5q0 69 48.5 117.5t117.5 48.5q60 0 98 -36.5t38 -96.5q0 -70 -49 -118t-119 -48zM768 -27q-171 0 -314 79t-229 228.5t-86 340.5q0 166 63.5 317.5t173 264.5t266 180t333.5 67q233 0 428 -100v-381h-43q-52 189 -151 291t-242 102
q-148 0 -270.5 -97.5t-189.5 -252t-67 -326.5q0 -125 34.5 -225.5t96 -165.5t144 -100t178.5 -35q243 0 440 205l41 -41q-242 -351 -606 -351z" />
    <glyph glyph-name="cdotaccent" unicode="&#x10b;" horiz-adv-x="974" 
d="M690 1133q-57 0 -95 37.5t-38 95.5q0 69 49.5 117.5t118.5 48.5q59 0 96 -37t37 -97q0 -70 -48.5 -117.5t-119.5 -47.5zM469 -27q-177 0 -288 123.5t-111 309.5q0 157 72.5 291t207 215t301.5 81q146 0 271 -59v-264h-43q-28 116 -88.5 178.5t-151.5 62.5
q-143 0 -238.5 -127t-95.5 -303q0 -152 77 -235.5t206 -83.5q157 0 274 114l37 -34q-84 -132 -194 -200.5t-236 -68.5z" />
    <glyph glyph-name="Ccaron" unicode="&#x10c;" horiz-adv-x="1423" 
d="M1284 1837l66 -6l-351 -313h-57l-188 315l55 4l199 -125zM768 -27q-171 0 -314 79t-229 228.5t-86 340.5q0 166 63.5 317.5t173 264.5t266 180t333.5 67q233 0 428 -100v-381h-43q-52 189 -151 291t-242 102q-148 0 -270.5 -97.5t-189.5 -252t-67 -326.5
q0 -125 34.5 -225.5t96 -165.5t144 -100t178.5 -35q243 0 440 205l41 -41q-242 -351 -606 -351z" />
    <glyph glyph-name="ccaron" unicode="&#x10d;" horiz-adv-x="974" 
d="M961 1423l65 -6l-352 -313h-56l-188 315l55 4l199 -125zM469 -27q-177 0 -288 123.5t-111 309.5q0 157 72.5 291t207 215t301.5 81q146 0 271 -59v-264h-43q-28 116 -88.5 178.5t-151.5 62.5q-143 0 -238.5 -127t-95.5 -303q0 -152 77 -235.5t206 -83.5q157 0 274 114
l37 -34q-84 -132 -194 -200.5t-236 -68.5z" />
    <glyph glyph-name="Dcaron" unicode="&#x10e;" horiz-adv-x="1622" 
d="M1311 1837l65 -6l-350 -313h-57l-189 315l56 4l198 -125zM193 258l227 916q30 104 5 150t-132 56v43h590q209 0 372 -76t253.5 -215t90.5 -319q0 -235 -120 -420.5t-337 -289t-495 -103.5h-700v43q122 14 169.5 55t76.5 160zM735 1343l-315 -1263h168q137 0 254 43
t200 117t141.5 172.5t86.5 210.5t28 231q0 236 -116.5 362.5t-323.5 126.5h-123z" />
    <glyph glyph-name="dcaron" unicode="&#x10f;" horiz-adv-x="1175" 
d="M1442 1479q47 0 78.5 -33.5t31.5 -79.5q0 -57 -67 -141l-142 -172h-71l166 200h-8q-46 0 -76.5 30.5t-30.5 74.5q0 51 32.5 86t86.5 35zM1245 1468h10l-305 -1216q-20 -70 -4 -97t92 -30v-43l-385 -94h-8l41 170h-10q-131 -185 -305 -185q-140 0 -226 107.5t-86 275.5
q0 122 45 237.5t122.5 204t189.5 142t237 53.5q123 0 219 -67h7l71 282q17 66 -7.5 93t-96.5 30v41zM713 258l96 387q29 119 -13 194.5t-139 75.5q-101 0 -185.5 -78t-129.5 -196t-45 -242q0 -123 47.5 -198.5t138.5 -75.5q110 0 230 133z" />
    <glyph glyph-name="Dcroat" unicode="&#x110;" horiz-adv-x="1630" 
d="M301 1423h590q209 0 372 -76t254 -215t91 -319q0 -176 -70.5 -327t-195 -258t-302.5 -167.5t-387 -60.5h-698v43q121 14 169 55t77 160l106 428h-196v82h217l100 406q30 104 5 150t-132 56v43zM428 80h166q138 0 255.5 43t200.5 117t142 172.5t87 210.5t28 231
q0 236 -117 362.5t-324 126.5h-123l-143 -575h264v-82h-284z" />
    <glyph glyph-name="dcroat" unicode="&#x111;" horiz-adv-x="1175" 
d="M1323 1108h-158l-215 -856q-20 -70 -4 -97t92 -30v-43l-385 -94h-8l41 170h-10q-131 -185 -305 -185q-140 0 -226 107.5t-86 275.5q0 122 45 237.5t122.5 204t189.5 142t237 53.5q123 0 219 -67h7l47 182h-285v72h301l8 28q17 66 -7.5 93t-96.5 30v41l399 96h10l-71 -288
h139v-72zM713 258l96 387q29 119 -13 194.5t-139 75.5q-101 0 -185.5 -78t-129.5 -196t-45 -242q0 -123 47.5 -198.5t138.5 -75.5q110 0 230 133z" />
    <glyph glyph-name="Emacron" unicode="&#x112;" horiz-adv-x="1368" 
d="M674 1616h590v86h-590v-86zM1178 459h43v-459h-1274v43q120 13 168 56.5t78 158.5l229 916q27 113 0.5 154t-131.5 52v43h1112v-381h-43q-19 159 -100 229t-254 70h-271l-145 -579h119q141 0 204.5 51t77.5 170h45v-524h-45q-12 118 -76 169.5t-206 51.5h-140l-149 -598
h364q87 0 150 17.5t114 60t82.5 116.5t47.5 183z" />
    <glyph glyph-name="emacron" unicode="&#x113;" horiz-adv-x="993" 
d="M379 1202v86h592v-86h-592zM598 993q179 0 268.5 -105.5t59.5 -262.5l-8 -41h-611q-8 -41 -8 -90q0 -158 78.5 -245t208.5 -87q156 0 276 114l37 -34q-172 -269 -434 -269q-167 0 -280 119.5t-113 308.5q0 155 67 290.5t189 218.5t270 83zM582 913q-90 0 -158.5 -73
t-101.5 -185h385q14 70 9 127.5t-40 94t-94 36.5z" />
    <glyph glyph-name="Ebreve" unicode="&#x114;" horiz-adv-x="1368" 
d="M948 1526q-117 0 -173 84.5t-23 226.5h59q-14 -73 27 -117.5t125 -44.5q88 0 148 43.5t91 118.5h62q-32 -150 -113.5 -230.5t-202.5 -80.5zM1178 459h43v-459h-1274v43q120 13 168 56.5t78 158.5l229 916q27 113 0.5 154t-131.5 52v43h1112v-381h-43q-19 159 -100 229
t-254 70h-271l-145 -579h119q141 0 204.5 51t77.5 170h45v-524h-45q-12 118 -76 169.5t-206 51.5h-140l-149 -598h364q87 0 150 17.5t114 60t82.5 116.5t47.5 183z" />
    <glyph glyph-name="ebreve" unicode="&#x115;" horiz-adv-x="993" 
d="M649 1112q-115 0 -171 84.5t-23 226.5h59q-14 -73 27 -117t125 -44q172 0 239 161h62q-34 -150 -115.5 -230.5t-202.5 -80.5zM598 993q179 0 268.5 -105.5t59.5 -262.5l-8 -41h-611q-8 -41 -8 -90q0 -158 78.5 -245t208.5 -87q156 0 276 114l37 -34q-172 -269 -434 -269
q-167 0 -280 119.5t-113 308.5q0 155 67 290.5t189 218.5t270 83zM582 913q-90 0 -158.5 -73t-101.5 -185h385q14 70 9 127.5t-40 94t-94 36.5z" />
    <glyph glyph-name="Edotaccent" unicode="&#x116;" horiz-adv-x="1368" 
d="M952 1548q-57 0 -95 37.5t-38 95.5q0 69 48.5 117.5t117.5 48.5q60 0 97.5 -36.5t37.5 -96.5q0 -70 -49 -118t-119 -48zM1178 459h43v-459h-1274v43q120 13 168 56.5t78 158.5l229 916q27 113 0.5 154t-131.5 52v43h1112v-381h-43q-19 159 -100 229t-254 70h-271
l-145 -579h119q141 0 204.5 51t77.5 170h45v-524h-45q-12 118 -76 169.5t-206 51.5h-140l-149 -598h364q87 0 150 17.5t114 60t82.5 116.5t47.5 183z" />
    <glyph glyph-name="edotaccent" unicode="&#x117;" horiz-adv-x="993" 
d="M668 1133q-57 0 -95 37.5t-38 95.5q0 69 49 117.5t118 48.5q59 0 96.5 -37t37.5 -97q0 -70 -48.5 -117.5t-119.5 -47.5zM598 993q179 0 268.5 -105.5t59.5 -262.5l-8 -41h-611q-8 -41 -8 -90q0 -158 78.5 -245t208.5 -87q156 0 276 114l37 -34q-172 -269 -434 -269
q-167 0 -280 119.5t-113 308.5q0 155 67 290.5t189 218.5t270 83zM582 913q-90 0 -158.5 -73t-101.5 -185h385q14 70 9 127.5t-40 94t-94 36.5z" />
    <glyph glyph-name="Eogonek" unicode="&#x118;" horiz-adv-x="1368" 
d="M291 1380v43h1112v-381h-43q-19 159 -100 229t-254 70h-271l-145 -579h119q141 0 204.5 51t77.5 170h45v-524h-45q-12 118 -76 169.5t-206 51.5h-140l-149 -598h364q87 0 150 17.5t114 60t82.5 116.5t47.5 183h43v-459q-133 -58 -190.5 -113.5t-57.5 -113.5
q0 -42 28 -69.5t74 -27.5q59 0 115 50l29 -33q-82 -113 -207 -113q-77 0 -125.5 48t-48.5 118q0 165 268 254h-1159v43q120 13 168 56.5t78 158.5l229 916q27 113 0.5 154t-131.5 52z" />
    <glyph glyph-name="eogonek" unicode="&#x119;" horiz-adv-x="993" 
d="M600 993q178 0 267 -106t59 -262l-8 -41h-611q-8 -41 -8 -90q0 -158 78 -245t207 -87q161 0 278 114l37 -34q-67 -104 -139.5 -161.5t-173.5 -92.5q-116 -39 -172 -94.5t-56 -114.5q0 -47 28 -75t75 -28q61 0 114 50l27 -33q-81 -113 -203 -113q-79 0 -127.5 48
t-48.5 116q0 147 199 229v7q-151 14 -250.5 130t-99.5 291q0 155 67 290.5t189.5 218.5t271.5 83zM322 655h385q14 70 9 127t-40 94t-94 37q-90 0 -158.5 -73t-101.5 -185z" />
    <glyph glyph-name="Ecaron" unicode="&#x11a;" horiz-adv-x="1368" 
d="M1229 1837l65 -6l-350 -313h-57l-189 315l56 4l198 -125zM1178 459h43v-459h-1274v43q120 13 168 56.5t78 158.5l229 916q27 113 0.5 154t-131.5 52v43h1112v-381h-43q-19 159 -100 229t-254 70h-271l-145 -579h119q141 0 204.5 51t77.5 170h45v-524h-45
q-12 118 -76 169.5t-206 51.5h-140l-149 -598h364q87 0 150 17.5t114 60t82.5 116.5t47.5 183z" />
    <glyph glyph-name="ecaron" unicode="&#x11b;" horiz-adv-x="993" 
d="M1004 1417l-353 -313h-55l-188 315l55 4l199 -125l276 125zM598 993q179 0 268.5 -105.5t59.5 -262.5l-8 -41h-611q-8 -41 -8 -90q0 -158 78.5 -245t208.5 -87q156 0 276 114l37 -34q-172 -269 -434 -269q-167 0 -280 119.5t-113 308.5q0 155 67 290.5t189 218.5t270 83z
M582 913q-90 0 -158.5 -73t-101.5 -185h385q14 70 9 127.5t-40 94t-94 36.5z" />
    <glyph glyph-name="Gcircumflex" unicode="&#x11c;" horiz-adv-x="1560" 
d="M1280 1522l-197 123l-278 -123l-66 4l353 313h55l190 -313zM909 664v43h674v-43q-107 -12 -155.5 -53.5t-75.5 -147.5l-90 -363q-236 -127 -457 -127q-188 0 -340.5 82.5t-240 232t-87.5 337.5q0 109 31 214t88 196t140.5 167.5t184.5 131.5t224 85.5t256 30.5
q267 0 469 -100v-367h-43q-55 180 -163 279.5t-273 99.5q-141 0 -259 -66.5t-194 -175t-118 -243t-42 -275.5q0 -119 25.5 -216.5t76 -171t131.5 -113.5t187 -40q63 0 131 19l96 385q26 103 -13 145.5t-163 53.5z" />
    <glyph glyph-name="gcircumflex" unicode="&#x11d;" horiz-adv-x="1040" 
d="M834 1108l-197 123l-279 -123l-65 4l352 313h55l189 -313zM1104 1147v-234h-307v-8q62 -25 98.5 -77t36.5 -121q0 -158 -127 -258.5t-313 -100.5q-87 0 -160 25q-105 -46 -105 -109q0 -34 24.5 -52t72.5 -26l297 -47q286 -46 286 -231q0 -107 -81.5 -187.5t-204.5 -119.5
t-263 -39q-199 0 -323.5 63t-124.5 174q0 66 57.5 122t169.5 95v2q-102 47 -102 148q0 70 60 132t169 103v5q-131 80 -131 229q0 159 129.5 258.5t315.5 99.5q62 0 127 -18l391 172h8zM496 420q66 0 117 50.5t75.5 123.5t24.5 151q0 82 -35 129.5t-98 47.5q-66 0 -117.5 -49
t-77 -121.5t-25.5 -151.5q0 -85 36 -132.5t100 -47.5zM543 -59l-326 55h-6q-117 -70 -117 -176q0 -84 74 -133t199 -49q140 0 234.5 48.5t94.5 135.5q0 51 -37 79t-116 40z" />
    <glyph glyph-name="Gbreve" unicode="&#x11e;" horiz-adv-x="1560" 
d="M1061 1526q-117 0 -173.5 84.5t-23.5 226.5h60q-14 -73 26.5 -117.5t124.5 -44.5q88 0 148.5 43.5t91.5 118.5h61q-32 -150 -113 -230.5t-202 -80.5zM909 664v43h674v-43q-107 -12 -155.5 -53.5t-75.5 -147.5l-90 -363q-236 -127 -457 -127q-188 0 -340.5 82.5t-240 232
t-87.5 337.5q0 109 31 214t88 196t140.5 167.5t184.5 131.5t224 85.5t256 30.5q267 0 469 -100v-367h-43q-55 180 -163 279.5t-273 99.5q-141 0 -259 -66.5t-194 -175t-118 -243t-42 -275.5q0 -119 25.5 -216.5t76 -171t131.5 -113.5t187 -40q63 0 131 19l96 385
q26 103 -13 145.5t-163 53.5z" />
    <glyph glyph-name="gbreve" unicode="&#x11f;" horiz-adv-x="1040" 
d="M633 1112q-115 0 -171.5 84.5t-23.5 226.5h60q-14 -73 26.5 -117t124.5 -44q88 0 148.5 43.5t91.5 117.5h61q-34 -150 -115 -230.5t-202 -80.5zM1104 1147v-234h-307v-8q62 -25 98.5 -77t36.5 -121q0 -158 -127 -258.5t-313 -100.5q-87 0 -160 25q-105 -46 -105 -109
q0 -34 24.5 -52t72.5 -26l297 -47q286 -46 286 -231q0 -107 -81.5 -187.5t-204.5 -119.5t-263 -39q-199 0 -323.5 63t-124.5 174q0 66 57.5 122t169.5 95v2q-102 47 -102 148q0 70 60 132t169 103v5q-131 80 -131 229q0 159 129.5 258.5t315.5 99.5q62 0 127 -18l391 172h8z
M496 420q66 0 117 50.5t75.5 123.5t24.5 151q0 82 -35 129.5t-98 47.5q-66 0 -117.5 -49t-77 -121.5t-25.5 -151.5q0 -85 36 -132.5t100 -47.5zM543 -59l-326 55h-6q-117 -70 -117 -176q0 -84 74 -133t199 -49q140 0 234.5 48.5t94.5 135.5q0 51 -37 79t-116 40z" />
    <glyph glyph-name="Gdotaccent" unicode="&#x120;" horiz-adv-x="1560" 
d="M1065 1548q-57 0 -95 37.5t-38 95.5q0 69 48.5 117.5t117.5 48.5q60 0 97.5 -36.5t37.5 -96.5q0 -70 -49 -118t-119 -48zM909 664v43h674v-43q-107 -12 -155.5 -53.5t-75.5 -147.5l-90 -363q-236 -127 -457 -127q-188 0 -340.5 82.5t-240 232t-87.5 337.5q0 109 31 214
t88 196t140.5 167.5t184.5 131.5t224 85.5t256 30.5q267 0 469 -100v-367h-43q-55 180 -163 279.5t-273 99.5q-141 0 -259 -66.5t-194 -175t-118 -243t-42 -275.5q0 -119 25.5 -216.5t76 -171t131.5 -113.5t187 -40q63 0 131 19l96 385q26 103 -13 145.5t-163 53.5z" />
    <glyph glyph-name="gdotaccent" unicode="&#x121;" horiz-adv-x="1040" 
d="M649 1133q-57 0 -95 37.5t-38 95.5q0 69 49.5 117.5t118.5 48.5q59 0 96 -37t37 -97q0 -70 -48.5 -117.5t-119.5 -47.5zM1104 1147v-234h-307v-8q62 -25 98.5 -77t36.5 -121q0 -158 -127 -258.5t-313 -100.5q-87 0 -160 25q-105 -46 -105 -109q0 -34 24.5 -52t72.5 -26
l297 -47q286 -46 286 -231q0 -107 -81.5 -187.5t-204.5 -119.5t-263 -39q-199 0 -323.5 63t-124.5 174q0 66 57.5 122t169.5 95v2q-102 47 -102 148q0 70 60 132t169 103v5q-131 80 -131 229q0 159 129.5 258.5t315.5 99.5q62 0 127 -18l391 172h8zM496 420q66 0 117 50.5
t75.5 123.5t24.5 151q0 82 -35 129.5t-98 47.5q-66 0 -117.5 -49t-77 -121.5t-25.5 -151.5q0 -85 36 -132.5t100 -47.5zM543 -59l-326 55h-6q-117 -70 -117 -176q0 -84 74 -133t199 -49q140 0 234.5 48.5t94.5 135.5q0 51 -37 79t-116 40z" />
    <glyph glyph-name="uni0122" unicode="&#x122;" horiz-adv-x="1560" 
d="M909 664v43h674v-43q-107 -12 -155.5 -53.5t-75.5 -147.5l-90 -363q-236 -127 -457 -127q-188 0 -340.5 82.5t-240 232t-87.5 337.5q0 109 31 214t88 196t140.5 167.5t184.5 131.5t224 85.5t256 30.5q267 0 469 -100v-367h-43q-55 180 -163 279.5t-273 99.5
q-141 0 -259 -66.5t-194 -175t-118 -243t-42 -275.5q0 -119 25.5 -216.5t76 -171t131.5 -113.5t187 -40q63 0 131 19l96 385q26 103 -13 145.5t-163 53.5zM782 -86q50 0 83.5 -34.5t33.5 -84.5q0 -61 -72 -147l-147 -183h-78l176 211h-8q-49 0 -81 31.5t-32 79.5q0 53 35 90
t90 37z" />
    <glyph glyph-name="uni0123" unicode="&#x123;" horiz-adv-x="1040" 
d="M623 1081q-52 0 -84.5 34.5t-32.5 84.5q0 62 72 148l147 182h76l-174 -211h8q49 0 81 -31.5t32 -79.5q0 -53 -35 -90t-90 -37zM1104 1147v-234h-307v-8q62 -25 98.5 -77t36.5 -121q0 -158 -127 -258.5t-313 -100.5q-87 0 -160 25q-105 -46 -105 -109q0 -34 24.5 -52
t72.5 -26l297 -47q286 -46 286 -231q0 -107 -81.5 -187.5t-204.5 -119.5t-263 -39q-199 0 -323.5 63t-124.5 174q0 66 57.5 122t169.5 95v2q-102 47 -102 148q0 70 60 132t169 103v5q-131 80 -131 229q0 159 129.5 258.5t315.5 99.5q62 0 127 -18l391 172h8zM496 420
q66 0 117 50.5t75.5 123.5t24.5 151q0 82 -35 129.5t-98 47.5q-66 0 -117.5 -49t-77 -121.5t-25.5 -151.5q0 -85 36 -132.5t100 -47.5zM543 -59l-326 55h-6q-117 -70 -117 -176q0 -84 74 -133t199 -49q140 0 234.5 48.5t94.5 135.5q0 51 -37 79t-116 40z" />
    <glyph glyph-name="Hcircumflex" unicode="&#x124;" horiz-adv-x="1730" 
d="M1358 1522l-197 123l-278 -123l-66 4l352 313h56l190 -313zM1257 1380v43h641v-43q-118 -10 -165.5 -50.5t-75.5 -153.5l-232 -928q-27 -113 -1.5 -153.5t130.5 -51.5v-43h-641v43q118 10 165 50.5t75 154.5l109 438h-693l-108 -438q-27 -113 -0.5 -153t131.5 -52v-43
h-641v43q117 10 163.5 50.5t75.5 154.5l230 928q28 110 3 151t-130 53v43h641v-43q-121 -12 -167.5 -51.5t-74.5 -152.5l-100 -404h692l100 404q27 110 2.5 151t-129.5 53z" />
    <glyph glyph-name="hcircumflex" unicode="&#x125;" horiz-adv-x="1175" 
d="M641 1522l-66 4l353 313h55l191 -313l-58 -4l-196 123zM102 184l252 1016q17 70 -3.5 98.5t-96.5 32.5v41l399 96h9l-166 -659h10q74 89 147.5 136.5t163.5 47.5q84 0 145.5 -47t85.5 -133t-4 -207l-106 -422q-19 -82 -4.5 -107t84.5 -34v-43h-469v43q71 9 100.5 36
t50.5 111l115 459q22 89 -11 142t-99 53q-108 0 -234 -137l-131 -531q-16 -48 -10 -76t23 -39.5t57 -17.5v-43h-473v43q83 8 113 33.5t52 107.5z" />
    <glyph glyph-name="Hbar" unicode="&#x126;" horiz-adv-x="1748" 
d="M1907 1423v-43q-118 -10 -166 -50.5t-76 -153.5l-14 -56h174v-82h-195l-196 -790q-27 -113 -0.5 -153.5t131.5 -51.5v-43h-641v43q117 10 163.5 50.5t75.5 154.5l109 438h-692l-109 -438q-27 -113 -1 -153t130 -52v-43h-641v43q117 11 164.5 51t75.5 154l196 790h-174v82
h195l14 56q27 110 1.5 151t-130.5 53v43h641v-43q-119 -12 -166 -51.5t-76 -152.5l-14 -56h692l15 56q28 110 3 151t-130 53v43h641zM600 772h692l66 266h-692z" />
    <glyph glyph-name="hbar" unicode="&#x127;" horiz-adv-x="1175" 
d="M1044 606l-106 -422q-19 -82 -4.5 -107t84.5 -34v-43h-469v43q71 9 100.5 36t50.5 111l115 459q22 89 -11 142t-99 53q-108 0 -234 -137l-131 -531q-16 -48 -10 -76t23 -39.5t57 -17.5v-43h-473v43q83 8 113 33.5t52 107.5l230 924h-142v72h160l4 20q17 70 -3.5 98.5
t-96.5 32.5v41l399 96h9l-72 -288h282v-72h-301l-75 -299h10q74 89 147.5 136.5t163.5 47.5q84 0 145.5 -47t85.5 -133t-4 -207z" />
    <glyph glyph-name="Itilde" unicode="&#x128;" horiz-adv-x="768" 
d="M799 1546q-75 0 -146 58l-30 24q-46 37 -93 37q-87 0 -131 -115l-59 4q27 126 86.5 190t138.5 64q71 0 148 -57l32 -27q47 -34 93 -34q43 0 74.5 26t56.5 88l59 -6q-27 -126 -86 -189t-143 -63zM-51 0v43q118 11 165 51t76 156l230 924q28 114 3.5 154t-130.5 52v43h641
v-43q-119 -11 -166.5 -51t-75.5 -155l-231 -924q-15 -60 -16 -96t16 -59.5t47 -34.5t84 -17v-43h-643z" />
    <glyph glyph-name="itilde" unicode="&#x129;" horiz-adv-x="602" 
d="M604 1128q-70 0 -145 58l-31 24q-48 39 -92 39q-43 0 -75 -27t-56 -89l-60 6q27 125 87 188.5t139 63.5q69 0 147 -58l33 -24q29 -21 48 -29t44 -8q43 0 75 27t56 90l60 -7q-27 -126 -86.5 -190t-143.5 -64zM555 981l-197 -799q-20 -78 -4.5 -104t84.5 -35v-43h-485v43
q85 9 114.5 35t51.5 110l131 529q18 66 -4 94.5t-99 32.5v41l400 96h8z" />
    <glyph glyph-name="Imacron" unicode="&#x12a;" horiz-adv-x="768" 
d="M387 1616h590v86h-590v-86zM-51 0v43q118 11 165 51t76 156l230 924q28 114 3.5 154t-130.5 52v43h641v-43q-119 -11 -166.5 -51t-75.5 -155l-231 -924q-15 -60 -16 -96t16 -59.5t47 -34.5t84 -17v-43h-643z" />
    <glyph glyph-name="imacron" unicode="&#x12b;" horiz-adv-x="602" 
d="M199 1202h592v86h-592v-86zM555 981l-197 -799q-20 -78 -4.5 -104t84.5 -35v-43h-485v43q85 9 114.5 35t51.5 110l131 529q18 66 -4 94.5t-99 32.5v41l400 96h8z" />
    <glyph glyph-name="Ibreve" unicode="&#x12c;" horiz-adv-x="768" 
d="M659 1526q-117 0 -173 84.5t-23 226.5h59q-14 -73 27 -117.5t125 -44.5q88 0 148 43.5t91 118.5h62q-32 -150 -113.5 -230.5t-202.5 -80.5zM-51 0v43q118 11 165 51t76 156l230 924q28 114 3.5 154t-130.5 52v43h641v-43q-119 -11 -166.5 -51t-75.5 -155l-231 -924
q-15 -60 -16 -96t16 -59.5t47 -34.5t84 -17v-43h-643z" />
    <glyph glyph-name="ibreve" unicode="&#x12d;" horiz-adv-x="602" 
d="M471 1112q-115 0 -171.5 84.5t-23.5 226.5h60q-14 -73 26.5 -117t124.5 -44q88 0 148.5 43.5t91.5 117.5h61q-34 -150 -115 -230.5t-202 -80.5zM555 981l-197 -799q-20 -78 -4.5 -104t84.5 -35v-43h-485v43q85 9 114.5 35t51.5 110l131 529q18 66 -4 94.5t-99 32.5v41
l400 96h8z" />
    <glyph glyph-name="Iogonek" unicode="&#x12e;" horiz-adv-x="768" 
d="M293 1380v43h641v-43q-119 -11 -166.5 -51t-75.5 -155l-231 -924q-15 -60 -16 -96t16 -59.5t47 -34.5t84 -17v-43h-201q-133 -58 -190.5 -113.5t-57.5 -113.5q0 -42 28.5 -69.5t74.5 -27.5q58 0 114 50l29 -33q-82 -113 -207 -113q-77 0 -125.5 48t-48.5 118
q0 165 268 254h-327v43q118 11 165 51t76 156l230 924q28 114 3.5 154t-130.5 52z" />
    <glyph glyph-name="iogonek" unicode="&#x12f;" horiz-adv-x="602" 
d="M522 1432q59 0 96 -37t37 -97q0 -70 -48.5 -117.5t-119.5 -47.5q-57 0 -95 37.5t-38 95.5q0 69 49.5 117.5t118.5 48.5zM547 981h8l-197 -799q-20 -78 -4.5 -104t84.5 -35v-43h-127q-133 -58 -190.5 -113.5t-57.5 -113.5q0 -42 28.5 -69.5t74.5 -27.5q59 0 115 50l28 -33
q-82 -113 -207 -113q-77 0 -125.5 48t-48.5 118q0 165 269 254h-244v43q85 9 114.5 35t51.5 110l131 529q18 66 -4 94.5t-99 32.5v41z" />
    <glyph glyph-name="Idotaccent" unicode="&#x130;" horiz-adv-x="768" 
d="M666 1548q-57 0 -95.5 37.5t-38.5 95.5q0 69 48.5 117.5t117.5 48.5q60 0 98 -36.5t38 -96.5q0 -70 -49 -118t-119 -48zM-51 0v43q118 11 165 51t76 156l230 924q28 114 3.5 154t-130.5 52v43h641v-43q-119 -11 -166.5 -51t-75.5 -155l-231 -924q-15 -60 -16 -96
t16 -59.5t47 -34.5t84 -17v-43h-643z" />
    <glyph glyph-name="dotlessi" unicode="&#x131;" horiz-adv-x="602" 
d="M555 981l-197 -799q-20 -78 -4.5 -104t84.5 -35v-43h-485v43q85 9 114.5 35t51.5 110l131 529q18 66 -4 94.5t-99 32.5v41l400 96h8z" />
    <glyph glyph-name="IJ" unicode="&#x132;" horiz-adv-x="1779" 
d="M-51 0v43q118 11 165 51t76 156l230 924q28 114 3.5 154t-130.5 52v43h641v-43q-119 -11 -166.5 -51t-75.5 -155l-231 -924q-15 -60 -16 -96t16 -59.5t47 -34.5t84 -17v-43h-643zM1016 -27q-197 0 -342 109l33 55q105 -59 217 -59q121 0 206 65t125 224l201 804
q28 114 3 155.5t-130 53.5v43h641v-43q-117 -11 -165.5 -51.5t-75.5 -154.5l-197 -781q-105 -420 -516 -420z" />
    <glyph glyph-name="ij" unicode="&#x133;" horiz-adv-x="1163" 
d="M489 1133q-59 0 -96 37.5t-37 95.5q0 69 48.5 117.5t117.5 48.5q59 0 96 -37t37 -97q0 -70 -48.5 -117.5t-117.5 -47.5zM1075 1133q-57 0 -95 37.5t-38 95.5q0 69 49.5 117.5t118.5 48.5q59 0 96 -37t37 -97q0 -70 -49 -117.5t-119 -47.5zM555 981l-197 -799
q-20 -78 -4.5 -104t84.5 -35v-43h-485v43q85 9 114.5 35t51.5 110l131 529q18 66 -4 94.5t-99 32.5v41l400 96h8zM469 -438q-123 0 -215 57l25 53q57 -24 122 -24q82 0 136 44.5t79 147.5l220 875q17 68 -5.5 96.5t-97.5 32.5v41l397 96h11l-275 -1100q-78 -319 -397 -319z
" />
    <glyph glyph-name="Jcircumflex" unicode="&#x134;" horiz-adv-x="1011" 
d="M668 1522l-66 4l352 313h56l190 -313l-57 -4l-197 123zM248 -27q-197 0 -342 109l33 55q105 -59 217 -59q121 0 206 65t125 224l201 804q28 114 3 155.5t-130 53.5v43h641v-43q-117 -11 -165.5 -51.5t-75.5 -154.5l-197 -781q-105 -420 -516 -420z" />
    <glyph glyph-name="jcircumflex" unicode="&#x135;" horiz-adv-x="561" 
d="M201 1108l-66 4l352 313h56l188 -313l-55 -4l-197 123zM-133 -438q-123 0 -215 57l24 53q57 -24 123 -24q82 0 136 44.5t79 147.5l219 875q17 68 -5 96.5t-97 32.5v41l397 96h11l-275 -1100q-78 -319 -397 -319z" />
    <glyph glyph-name="uni0136" unicode="&#x136;" horiz-adv-x="1490" 
d="M1692 1423v-43q-139 -24 -230.5 -72t-204.5 -141l-438 -368l592 -791v-8h-332l-456 631l-84 -70l-78 -311q-28 -116 -2.5 -154.5t131.5 -52.5v-43h-643v43q118 12 166 52.5t75 154.5l232 926q28 110 3 150.5t-132 53.5v43h643v-43q-120 -12 -168 -52t-76 -152l-115 -465
h11l573 483q46 39 71 66.5t33 52.5t-16 42t-82 25v43h527zM743 -86q50 0 83.5 -34.5t33.5 -84.5q0 -61 -72 -147l-147 -183h-78l176 211h-8q-49 0 -81 31.5t-32 79.5q0 53 35 90t90 37z" />
    <glyph glyph-name="uni0137" unicode="&#x137;" horiz-adv-x="1140" 
d="M1217 965v-43q-100 -17 -175.5 -52t-175.5 -108l-233 -174l409 -582v-6h-282l-309 451l-56 -41l-55 -224q-21 -78 -6 -106t86 -37v-43h-486v43q84 9 114 34t50 107l256 1024q16 62 -5.5 90.5t-96.5 32.5v41l399 96h8l-235 -942h10l359 269q152 114 -9 127v43h433z
M494 -86q50 0 83 -34.5t33 -84.5q0 -62 -71 -147l-148 -183h-78l176 211h-8q-49 0 -80.5 31.5t-31.5 79.5q0 53 35 90t90 37z" />
    <glyph glyph-name="Lacute" unicode="&#x139;" horiz-adv-x="1243" 
d="M606 1522h-55l141 313h291v-8zM-53 0v43q121 13 168 55t75 158l230 918q28 110 2 153t-131 53v43h645v-43q-119 -9 -166.5 -49.5t-77.5 -154.5l-272 -1094h266q72 0 123.5 10t99 37.5t79.5 76t56 125.5t37 185h45v-516h-1179z" />
    <glyph glyph-name="lacute" unicode="&#x13a;" horiz-adv-x="583" 
d="M518 1522h-55l141 313h291v-8zM-66 0v43q84 11 113 36t51 109l254 1018q17 65 -4.5 93t-97.5 32v41l399 96h8l-319 -1282q-20 -82 -5 -108t85 -35v-43h-484z" />
    <glyph glyph-name="uni013B" unicode="&#x13b;" horiz-adv-x="1243" 
d="M1081 516h45v-516h-1179v43q121 13 168 55t75 158l230 918q28 110 2 153t-131 53v43h645v-43q-119 -9 -166.5 -49.5t-77.5 -154.5l-272 -1094h266q72 0 123.5 10t99 37.5t79.5 76t56 125.5t37 185zM561 -86q50 0 83.5 -34.5t33.5 -84.5q0 -61 -72 -147l-147 -183h-78
l176 211h-8q-49 0 -81 31.5t-32 79.5q0 53 35 90t90 37z" />
    <glyph glyph-name="uni013C" unicode="&#x13c;" horiz-adv-x="583" 
d="M657 1468l-319 -1282q-20 -82 -5 -108t85 -35v-43h-484v43q84 11 113 36t51 109l254 1018q17 65 -4.5 93t-97.5 32v41l399 96h8zM131 -86q50 0 83.5 -34.5t33.5 -84.5q0 -61 -72 -147l-147 -183h-78l176 211h-8q-49 0 -81 31.5t-32 79.5q0 53 35 90t90 37z" />
    <glyph glyph-name="Lcaron" unicode="&#x13d;" horiz-adv-x="1243" 
d="M1145 1448q47 0 78.5 -33.5t31.5 -79.5q0 -57 -67 -141l-141 -172h-72l166 201h-8q-46 0 -76.5 30t-30.5 74q0 51 32.5 86t86.5 35zM420 82h266q72 0 123.5 10t99 37.5t79.5 76t56 125.5t37 185h45v-516h-1179v43q121 13 168 55t75 158l230 918q28 110 2 153t-131 53v43
h645v-43q-119 -9 -166.5 -49.5t-77.5 -154.5z" />
    <glyph glyph-name="lcaron" unicode="&#x13e;" horiz-adv-x="583" 
d="M844 1479q47 0 78.5 -33.5t31.5 -79.5q0 -57 -67 -141l-142 -172h-71l166 200h-9q-45 0 -75.5 30.5t-30.5 74.5q0 51 32.5 86t86.5 35zM649 1468h8l-319 -1282q-20 -82 -5 -108t85 -35v-43h-484v43q84 11 113 36t51 109l254 1018q17 65 -4.5 93t-97.5 32v41z" />
    <glyph glyph-name="Ldot" unicode="&#x13f;" horiz-adv-x="1243" 
d="M-53 0v43q121 13 168 55t75 158l230 918q28 110 2 153t-131 53v43h645v-43q-119 -9 -166.5 -49.5t-77.5 -154.5l-272 -1094h266q72 0 123.5 10t99 37.5t79.5 76t56 125.5t37 185h45v-516h-1179zM829 469q-63 0 -100 39.5t-37 99.5q0 73 48.5 121.5t119.5 48.5
q63 0 102 -39.5t39 -99.5q0 -73 -49.5 -121.5t-122.5 -48.5z" />
    <glyph glyph-name="ldot" unicode="&#x140;" horiz-adv-x="731" 
d="M-66 0v43q84 11 113 36t51 109l254 1018q17 65 -4.5 93t-97.5 32v41l399 96h8l-319 -1282q-20 -82 -5 -108t85 -35v-43h-484zM711 592q-63 0 -101.5 39.5t-38.5 99.5q0 73 49.5 121.5t120.5 48.5q63 0 101.5 -39.5t38.5 -99.5q0 -73 -49.5 -121.5t-120.5 -48.5z" />
    <glyph glyph-name="Lslash" unicode="&#x141;" horiz-adv-x="1271" 
d="M1112 516h45v-516h-1182v43q122 13 169 54.5t77 158.5l55 225l-200 -100v90l227 113l148 590q28 110 2 153t-131 53v43h643v-43q-118 -9 -166 -50t-76 -154l-109 -439l387 193v-90l-413 -205l-137 -553h264q91 0 152.5 17t113.5 63t83 132.5t48 221.5z" />
    <glyph glyph-name="lslash" unicode="&#x142;" horiz-adv-x="681" 
d="M748 862l-213 -104l-142 -572q-21 -82 -5.5 -108t85.5 -35v-43h-485v43q86 11 115 36t51 109l108 435l-190 -95v86l215 107l121 485q15 65 -7 93t-96 32v41l400 96h8l-154 -612l189 92v-86z" />
    <glyph glyph-name="Nacute" unicode="&#x143;" horiz-adv-x="1540" 
d="M975 1522h-55l141 313h291v-8zM-55 0v43q118 10 166.5 53t76.5 156l244 981l-100 182v8h344l514 -1003h10l186 756q28 109 3 150.5t-127 53.5v43h462v-43q-116 -11 -166 -52t-77 -154l-297 -1188h-80l-592 1144h-10l-219 -880q-28 -110 -2.5 -152.5t129.5 -54.5v-43h-465
z" />
    <glyph glyph-name="nacute" unicode="&#x144;" horiz-adv-x="1185" 
d="M721 1108h-57l143 313h291v-8zM117 182l131 529q18 69 -1.5 99t-99.5 34v41l400 96h8l-43 -172h10q72 88 146 136t166 48q130 0 199 -107t26 -280l-105 -424q-20 -80 -5.5 -105t85.5 -34v-43h-471v43q73 9 102 36t52 111l112 459q22 90 -10.5 142.5t-99.5 52.5
q-109 0 -232 -137l-133 -531q-9 -39 -10 -62.5t8.5 -38t25.5 -21t46 -11.5v-43h-471v43q81 9 112 33.5t52 105.5z" />
    <glyph glyph-name="uni0145" unicode="&#x145;" horiz-adv-x="1540" 
d="M1262 1380v43h462v-43q-116 -11 -166 -52t-77 -154l-297 -1188h-80l-592 1144h-10l-219 -880q-28 -110 -2.5 -152.5t129.5 -54.5v-43h-465v43q118 10 166.5 53t76.5 156l244 981l-100 182v8h344l514 -1003h10l186 756q28 109 3 150.5t-127 53.5zM684 -86q50 0 83.5 -34.5
t33.5 -84.5q0 -61 -72 -147l-147 -183h-78l176 211h-8q-49 0 -81 31.5t-32 79.5q0 53 35 90t90 37z" />
    <glyph glyph-name="uni0146" unicode="&#x146;" horiz-adv-x="1185" 
d="M1059 606l-105 -424q-20 -80 -5.5 -105t85.5 -34v-43h-471v43q73 9 102 36t52 111l112 459q22 90 -10.5 142.5t-99.5 52.5q-109 0 -232 -137l-133 -531q-9 -39 -10 -62.5t8.5 -38t25.5 -21t46 -11.5v-43h-471v43q81 9 112 33.5t52 105.5l131 529q18 69 -1.5 99t-99.5 34
v41l400 96h8l-43 -172h10q72 88 146 136t166 48q130 0 199 -107t26 -280zM475 -86q50 0 83.5 -34.5t33.5 -84.5q0 -61 -72 -147l-147 -183h-78l176 211h-8q-49 0 -81 31.5t-32 79.5q0 53 35 90t90 37z" />
    <glyph glyph-name="Ncaron" unicode="&#x147;" horiz-adv-x="1540" 
d="M1311 1837l65 -6l-350 -313h-57l-189 315l56 4l198 -125zM-55 0v43q118 10 166.5 53t76.5 156l244 981l-100 182v8h344l514 -1003h10l186 756q28 109 3 150.5t-127 53.5v43h462v-43q-116 -11 -166 -52t-77 -154l-297 -1188h-80l-592 1144h-10l-219 -880
q-28 -110 -2.5 -152.5t129.5 -54.5v-43h-465z" />
    <glyph glyph-name="ncaron" unicode="&#x148;" horiz-adv-x="1185" 
d="M1065 1423l65 -6l-352 -313h-55l-188 315l55 4l198 -125zM117 182l131 529q18 69 -1.5 99t-99.5 34v41l400 96h8l-43 -172h10q72 88 146 136t166 48q130 0 199 -107t26 -280l-105 -424q-20 -80 -5.5 -105t85.5 -34v-43h-471v43q73 9 102 36t52 111l112 459
q22 90 -10.5 142.5t-99.5 52.5q-109 0 -232 -137l-133 -531q-9 -39 -10 -62.5t8.5 -38t25.5 -21t46 -11.5v-43h-471v43q81 9 112 33.5t52 105.5z" />
    <glyph glyph-name="Eng" unicode="&#x14a;" horiz-adv-x="1540" 
d="M741 -438q-128 0 -225 57l23 53q60 -24 125 -24q82 0 136 44t79 142l77 309l-450 965h-10l-213 -856q-28 -112 -3 -154.5t128 -54.5v-43h-463v43q118 10 166.5 52t76.5 155l242 973l-98 192v8h338l501 -1069h11l204 822q29 110 3.5 151.5t-127.5 52.5v43h462v-43
q-117 -11 -166 -51.5t-77 -152.5l-322 -1297q-21 -85 -64.5 -148.5t-101 -99t-120.5 -52.5t-132 -17z" />
    <glyph glyph-name="eng" unicode="&#x14b;" horiz-adv-x="1163" 
d="M487 -438q-120 0 -215 57l25 53q57 -24 123 -24q82 0 136 44t79 146l203 811q22 89 -11.5 142t-99.5 53q-110 0 -233 -137l-132 -531q-18 -77 -1.5 -100.5t83.5 -32.5v-43h-485v43q83 9 113.5 33.5t50.5 105.5l133 529q16 70 -3.5 99.5t-98.5 33.5v41l399 96h8l-43 -172
h10q71 88 146.5 136t167.5 48q130 0 199 -107t26 -280l-182 -727q-78 -317 -398 -317z" />
    <glyph glyph-name="Omacron" unicode="&#x14c;" horiz-adv-x="1650" 
d="M774 1616h590v86h-590v-86zM780 -27q-186 0 -333.5 80.5t-228.5 222t-81 316.5q0 172 64.5 329.5t176 274t270 185.5t337.5 69q140 0 260.5 -47.5t204 -130.5t131 -197.5t47.5 -245.5q0 -232 -109.5 -428t-305 -312t-433.5 -116zM782 63q84 0 161 37t135.5 100
t106.5 145.5t78.5 175.5t47 188.5t16.5 185.5q0 213 -89.5 339t-252.5 126q-84 0 -161 -37t-136 -100.5t-107 -146.5t-79 -176.5t-47.5 -189t-16.5 -184.5q0 -214 90 -338.5t254 -124.5z" />
    <glyph glyph-name="omacron" unicode="&#x14d;" horiz-adv-x="1148" 
d="M440 1202h592v86h-592v-86zM496 -27q-193 0 -310.5 114t-117.5 298q0 166 76 305.5t211.5 221t301.5 81.5q193 0 310.5 -114.5t117.5 -298.5q0 -165 -76 -304t-211.5 -221t-301.5 -82zM500 59q76 0 140 58t103 147.5t60.5 190.5t21.5 194q0 125 -44.5 191.5t-127.5 66.5
q-77 0 -141 -58t-103 -148t-60 -191t-21 -195q0 -125 44 -190.5t128 -65.5z" />
    <glyph glyph-name="Obreve" unicode="&#x14e;" horiz-adv-x="1650" 
d="M1047 1526q-117 0 -173.5 84.5t-23.5 226.5h59q-14 -73 27 -117.5t125 -44.5q88 0 148 43.5t91 118.5h62q-32 -150 -113 -230.5t-202 -80.5zM780 -27q-186 0 -333.5 80.5t-228.5 222t-81 316.5q0 172 64.5 329.5t176 274t270 185.5t337.5 69q140 0 260.5 -47.5
t204 -130.5t131 -197.5t47.5 -245.5q0 -232 -109.5 -428t-305 -312t-433.5 -116zM782 63q84 0 161 37t135.5 100t106.5 145.5t78.5 175.5t47 188.5t16.5 185.5q0 213 -89.5 339t-252.5 126q-84 0 -161 -37t-136 -100.5t-107 -146.5t-79 -176.5t-47.5 -189t-16.5 -184.5
q0 -214 90 -338.5t254 -124.5z" />
    <glyph glyph-name="obreve" unicode="&#x14f;" horiz-adv-x="1148" 
d="M711 1112q-115 0 -171.5 84.5t-23.5 226.5h59q-14 -73 27 -117t125 -44q88 0 148.5 43.5t91.5 117.5h61q-34 -150 -115 -230.5t-202 -80.5zM496 -27q-193 0 -310.5 114t-117.5 298q0 166 76 305.5t211.5 221t301.5 81.5q193 0 310.5 -114.5t117.5 -298.5q0 -165 -76 -304
t-211.5 -221t-301.5 -82zM500 59q76 0 140 58t103 147.5t60.5 190.5t21.5 194q0 125 -44.5 191.5t-127.5 66.5q-77 0 -141 -58t-103 -148t-60 -191t-21 -195q0 -125 44 -190.5t128 -65.5z" />
    <glyph glyph-name="Ohungarumlaut" unicode="&#x150;" horiz-adv-x="1650" 
d="M856 1522h-47l139 313h254v-8zM1182 1522h-47l141 313h252v-8zM780 -27q-186 0 -333.5 80.5t-228.5 222t-81 316.5q0 172 64.5 329.5t176 274t270 185.5t337.5 69q140 0 260.5 -47.5t204 -130.5t131 -197.5t47.5 -245.5q0 -232 -109.5 -428t-305 -312t-433.5 -116z
M782 63q84 0 161 37t135.5 100t106.5 145.5t78.5 175.5t47 188.5t16.5 185.5q0 213 -89.5 339t-252.5 126q-84 0 -161 -37t-136 -100.5t-107 -146.5t-79 -176.5t-47.5 -189t-16.5 -184.5q0 -214 90 -338.5t254 -124.5z" />
    <glyph glyph-name="ohungarumlaut" unicode="&#x151;" horiz-adv-x="1148" 
d="M522 1108h-47l139 313h252v-8zM848 1108h-47l141 313h252v-8zM496 -27q-193 0 -310.5 114t-117.5 298q0 166 76 305.5t211.5 221t301.5 81.5q193 0 310.5 -114.5t117.5 -298.5q0 -165 -76 -304t-211.5 -221t-301.5 -82zM500 59q76 0 140 58t103 147.5t60.5 190.5
t21.5 194q0 125 -44.5 191.5t-127.5 66.5q-77 0 -141 -58t-103 -148t-60 -191t-21 -195q0 -125 44 -190.5t128 -65.5z" />
    <glyph glyph-name="OE" unicode="&#x152;" horiz-adv-x="1974" 
d="M1827 0h-1002q-200 0 -356 72.5t-245 211.5t-89 324q0 165 70 314.5t192 260t296 175.5t372 65h944v-381h-45q-19 158 -97 228.5t-253 70.5h-205l-143 -579h63q129 0 192.5 52.5t75.5 168.5h45v-524h-45q-12 116 -75.5 168.5t-192.5 52.5h-86l-149 -598h303
q170 0 263 83.5t124 293.5h43v-459zM807 82h14l318 1259h-60q-118 0 -222 -44.5t-179.5 -120t-130.5 -172.5t-82 -204.5t-27 -213.5q0 -234 102.5 -369t266.5 -135z" />
    <glyph glyph-name="oe" unicode="&#x153;" horiz-adv-x="1775" 
d="M1382 993q177 0 266 -105.5t60 -260.5l-8 -43h-610q-9 -47 -9 -90q0 -158 79 -245t208 -87q157 0 277 114l36 -34q-168 -269 -436 -269q-101 0 -184.5 46.5t-136.5 130.5h-11q-169 -177 -417 -177q-193 0 -310.5 114t-117.5 298q0 166 76 305.5t211.5 221t301.5 81.5
q114 0 204.5 -43.5t146.5 -122.5h10q153 166 364 166zM1104 655h385q14 70 9 127t-40 94t-94 37q-90 0 -158.5 -73t-101.5 -185zM498 59q62 0 116.5 38.5t92 100.5t65 140t40.5 157.5t13 153.5q0 125 -44.5 191.5t-127.5 66.5q-76 0 -140 -58t-103 -148t-60.5 -191
t-21.5 -195q0 -124 43.5 -190t126.5 -66z" />
    <glyph glyph-name="Racute" unicode="&#x154;" horiz-adv-x="1437" 
d="M1260 1835v-8l-377 -305h-56l142 313h291zM1382 1096q0 -153 -129 -251t-344 -122l469 -715v-8h-311l-440 713h-47l-117 -465q-31 -102 -6 -147.5t135 -57.5v-43h-643v43q119 10 166 51.5t75 153.5l230 917q18 71 17 116.5t-34 68.5t-110 30v43h594q221 0 358 -90
t137 -237zM735 1343l-139 -557h121q176 0 282.5 89t106.5 229q0 117 -73.5 178t-205.5 61h-92z" />
    <glyph glyph-name="racute" unicode="&#x155;" horiz-adv-x="835" 
d="M588 1108h-58l144 313h291v-8zM119 186l131 531q17 66 -5.5 94.5t-97.5 32.5v41l398 96h10l-80 -322h12q75 173 150 253.5t182 80.5q38 0 68 -12v-236q-51 19 -107 19q-96 0 -183 -60.5t-157 -185.5l-82 -332q-21 -85 -3.5 -110t100.5 -33v-43h-502v43q83 8 113.5 34
t52.5 109z" />
    <glyph glyph-name="uni0156" unicode="&#x156;" horiz-adv-x="1437" 
d="M1382 1096q0 -153 -129 -251t-344 -122l469 -715v-8h-311l-440 713h-47l-117 -465q-31 -102 -6 -147.5t135 -57.5v-43h-643v43q119 10 166 51.5t75 153.5l230 917q18 71 17 116.5t-34 68.5t-110 30v43h594q221 0 358 -90t137 -237zM735 1343l-139 -557h121
q176 0 282.5 89t106.5 229q0 117 -73.5 178t-205.5 61h-92zM705 -86q50 0 83 -34.5t33 -84.5q0 -62 -71 -147l-148 -183h-78l176 211h-8q-49 0 -80.5 31.5t-31.5 79.5q0 53 35 90t90 37z" />
    <glyph glyph-name="uni0157" unicode="&#x157;" horiz-adv-x="835" 
d="M819 993q38 0 68 -12v-236q-51 19 -107 19q-96 0 -183 -60.5t-157 -185.5l-82 -332q-21 -85 -3.5 -110t100.5 -33v-43h-502v43q83 8 113.5 34t52.5 109l131 531q17 66 -5.5 94.5t-97.5 32.5v41l398 96h10l-80 -322h12q75 173 150 253.5t182 80.5zM156 -86q50 0 83 -34.5
t33 -84.5q0 -62 -71 -147l-148 -183h-78l177 211h-9q-49 0 -80.5 31.5t-31.5 79.5q0 53 35 90t90 37z" />
    <glyph glyph-name="Rcaron" unicode="&#x158;" horiz-adv-x="1437" 
d="M1284 1831l-350 -313h-57l-189 315l55 4l199 -125l277 125zM1382 1096q0 -153 -129 -251t-344 -122l469 -715v-8h-311l-440 713h-47l-117 -465q-31 -102 -6 -147.5t135 -57.5v-43h-643v43q119 10 166 51.5t75 153.5l230 917q18 71 17 116.5t-34 68.5t-110 30v43h594
q221 0 358 -90t137 -237zM735 1343l-139 -557h121q176 0 282.5 89t106.5 229q0 117 -73.5 178t-205.5 61h-92z" />
    <glyph glyph-name="rcaron" unicode="&#x159;" horiz-adv-x="835" 
d="M930 1423l65 -6l-352 -313h-55l-189 315l56 4l198 -125zM119 186l131 531q17 66 -5.5 94.5t-97.5 32.5v41l398 96h10l-80 -322h12q75 173 150 253.5t182 80.5q38 0 68 -12v-236q-51 19 -107 19q-96 0 -183 -60.5t-157 -185.5l-82 -332q-21 -85 -3.5 -110t100.5 -33v-43
h-502v43q83 8 113.5 34t52.5 109z" />
    <glyph glyph-name="Sacute" unicode="&#x15a;" horiz-adv-x="1138" 
d="M756 1522h-56l142 313h291v-8zM508 -27q-249 0 -436 131v369h43q61 -216 166 -314t233 -98q116 0 193 66t77 174q0 71 -41.5 124.5t-128.5 115.5l-137 98q-207 146 -207 365q0 197 144.5 321.5t369.5 124.5q98 0 197 -24t174 -64v-361h-43q-38 181 -125.5 271t-216.5 90
q-117 0 -191.5 -67t-74.5 -173q0 -72 39 -128.5t121 -114.5l143 -101q111 -76 164 -160.5t53 -197.5q0 -135 -73.5 -238.5t-190 -156t-252.5 -52.5z" />
    <glyph glyph-name="sacute" unicode="&#x15b;" horiz-adv-x="843" 
d="M508 1108h-57l143 313h291v-8zM334 -27q-174 0 -305 90v242h43q81 -250 268 -250q75 0 122.5 35.5t47.5 99.5q0 44 -26.5 79.5t-80.5 72.5l-102 72q-147 109 -147 254q0 141 110.5 233t272.5 92q151 0 270 -63v-242h-43q-57 221 -242 221q-75 0 -126.5 -37.5
t-51.5 -101.5q0 -44 25.5 -77t85.5 -75l100 -69q81 -57 118.5 -114.5t37.5 -137.5q0 -140 -110 -232t-267 -92z" />
    <glyph glyph-name="Scircumflex" unicode="&#x15c;" horiz-adv-x="1138" 
d="M557 1522l-65 4l352 313h55l191 -313l-58 -4l-196 123zM508 -27q-249 0 -436 131v369h43q61 -216 166 -314t233 -98q116 0 193 66t77 174q0 71 -41.5 124.5t-128.5 115.5l-137 98q-207 146 -207 365q0 197 144.5 321.5t369.5 124.5q98 0 197 -24t174 -64v-361h-43
q-38 181 -125.5 271t-216.5 90q-117 0 -191.5 -67t-74.5 -173q0 -72 39 -128.5t121 -114.5l143 -101q111 -76 164 -160.5t53 -197.5q0 -135 -73.5 -238.5t-190 -156t-252.5 -52.5z" />
    <glyph glyph-name="scircumflex" unicode="&#x15d;" horiz-adv-x="843" 
d="M307 1108l-65 4l352 313h55l189 -313l-56 -4l-196 123zM334 -27q-174 0 -305 90v242h43q81 -250 268 -250q75 0 122.5 35.5t47.5 99.5q0 44 -26.5 79.5t-80.5 72.5l-102 72q-147 109 -147 254q0 141 110.5 233t272.5 92q151 0 270 -63v-242h-43q-57 221 -242 221
q-75 0 -126.5 -37.5t-51.5 -101.5q0 -44 25.5 -77t85.5 -75l100 -69q81 -57 118.5 -114.5t37.5 -137.5q0 -140 -110 -232t-267 -92z" />
    <glyph glyph-name="Scedilla" unicode="&#x15e;" horiz-adv-x="1138" 
d="M784 1450q98 0 197 -24t174 -64v-361h-43q-38 181 -125.5 271t-216.5 90q-117 0 -191.5 -67t-74.5 -173q0 -72 39 -128.5t121 -114.5l143 -101q111 -76 164 -160.5t53 -197.5q0 -98 -40 -181t-108 -139t-156 -89t-185 -38l-52 -82l4 -2q23 13 54 13q54 0 90.5 -36.5
t36.5 -96.5q0 -81 -65 -136t-161 -55q-69 0 -125 33.5t-92 87.5l31 33q58 -64 143 -64q54 0 90.5 26.5t36.5 69.5q0 30 -21 48t-54 18q-39 0 -66 -18l-10 2l98 159q-226 9 -401 131v369h43q61 -216 166 -314t233 -98q116 0 193 66t77 174q0 71 -41.5 124.5t-128.5 115.5
l-137 98q-207 146 -207 365q0 197 144.5 321.5t369.5 124.5z" />
    <glyph glyph-name="scedilla" unicode="&#x15f;" horiz-adv-x="843" 
d="M537 993q151 0 270 -63v-242h-43q-57 221 -242 221q-75 0 -126.5 -37.5t-51.5 -101.5q0 -44 25.5 -77t85.5 -75l100 -69q81 -57 118.5 -114.5t37.5 -137.5q0 -137 -105 -228t-256 -96l-51 -82l4 -2q23 13 53 13q54 0 90.5 -36.5t36.5 -96.5q0 -82 -65 -136.5t-160 -54.5
q-69 0 -125 33.5t-92 87.5l31 33q58 -64 143 -64q54 0 90.5 26.5t36.5 69.5q0 30 -21.5 48t-54.5 18q-38 0 -65 -18l-11 2l99 161q-147 9 -260 88v242h43q81 -250 268 -250q75 0 122.5 35.5t47.5 99.5q0 44 -26.5 79.5t-80.5 72.5l-102 72q-147 109 -147 254
q0 141 110.5 233t272.5 92z" />
    <glyph glyph-name="Scaron" unicode="&#x160;" horiz-adv-x="1138" 
d="M1094 1837l65 -6l-350 -313h-57l-189 315l55 4l199 -125zM508 -27q-249 0 -436 131v369h43q61 -216 166 -314t233 -98q116 0 193 66t77 174q0 71 -41.5 124.5t-128.5 115.5l-137 98q-207 146 -207 365q0 197 144.5 321.5t369.5 124.5q98 0 197 -24t174 -64v-361h-43
q-38 181 -125.5 271t-216.5 90q-117 0 -191.5 -67t-74.5 -173q0 -72 39 -128.5t121 -114.5l143 -101q111 -76 164 -160.5t53 -197.5q0 -135 -73.5 -238.5t-190 -156t-252.5 -52.5z" />
    <glyph glyph-name="scaron" unicode="&#x161;" horiz-adv-x="849" 
d="M854 1423l64 -6l-351 -313h-55l-190 315l57 4l196 -125zM334 -27q-174 0 -305 90v242h43q81 -250 268 -250q75 0 122.5 35.5t47.5 99.5q0 44 -26.5 79.5t-80.5 72.5l-102 72q-147 109 -147 254q0 141 110.5 233t272.5 92q151 0 270 -63v-242h-43q-57 221 -242 221
q-75 0 -126.5 -37.5t-51.5 -101.5q0 -44 25.5 -77t85.5 -75l100 -69q81 -57 118.5 -114.5t37.5 -137.5q0 -140 -110 -232t-267 -92z" />
    <glyph glyph-name="uni0162" unicode="&#x162;" horiz-adv-x="1331" 
d="M236 1026v397h1232v-397h-45q-22 165 -111 241t-259 76h-35l-270 -1087q-28 -117 1.5 -160t153.5 -53v-43h-336l-67 -109l4 -2q23 13 53 13q54 0 90.5 -36.5t36.5 -96.5q0 -82 -65 -136.5t-160 -54.5q-69 0 -125 33.5t-92 87.5l30 33q58 -64 144 -64q54 0 90.5 26.5
t36.5 69.5q0 30 -21.5 48t-54.5 18q-39 0 -66 -18l-10 2l115 186h-301v43q135 10 188.5 53t83.5 160l271 1087h-89q-181 0 -268.5 -74.5t-109.5 -242.5h-45z" />
    <glyph glyph-name="uni0163" unicode="&#x163;" horiz-adv-x="729" 
d="M813 883h-287l-161 -645q-18 -72 8.5 -108t89.5 -36q78 0 149 39l27 -43q-145 -117 -289 -117q-36 0 -71 9l-56 -91l4 -2q23 13 54 13q54 0 90.5 -36.5t36.5 -96.5q0 -81 -65 -136t-161 -55q-69 0 -125 33.5t-92 87.5l31 33q58 -64 143 -64q54 0 90.5 26.5t36.5 69.5
q0 30 -21.5 48t-54.5 18q-38 0 -65 -18l-10 2l114 186q-67 36 -91 111.5t1 181.5l148 590h-176v53q141 41 233 110t191 189h79l-67 -270h266v-82z" />
    <glyph glyph-name="Tcaron" unicode="&#x164;" horiz-adv-x="1331" 
d="M1223 1837l65 -6l-350 -313h-57l-189 315l56 4l198 -125zM205 0v43q135 10 188.5 53t83.5 160l271 1087h-89q-181 0 -268.5 -74.5t-109.5 -242.5h-45v397h1232v-397h-45q-22 165 -111 241t-259 76h-35l-270 -1087q-28 -117 1.5 -160t153.5 -53v-43h-698z" />
    <glyph glyph-name="tcaron" unicode="&#x165;" horiz-adv-x="729" 
d="M858 1479q47 0 79 -33.5t32 -79.5q0 -56 -68 -141l-141 -172h-72l166 200h-8q-46 0 -76.5 30.5t-30.5 74.5q0 51 32.5 86t86.5 35zM535 1235h79l-67 -270h266v-82h-287l-161 -645q-18 -72 8.5 -108t89.5 -36q78 0 149 39l27 -43q-145 -117 -289 -117q-129 0 -188 87
t-23 233l148 590h-176v53q141 41 233 110t191 189z" />
    <glyph glyph-name="Tbar" unicode="&#x166;" horiz-adv-x="1331" 
d="M236 1026v397h1232v-397h-45q-22 165 -111 241t-259 76h-35l-135 -540h254v-76h-273l-116 -471q-28 -117 1.5 -160t153.5 -53v-43h-698v43q135 10 188.5 53t83.5 160l117 471h-256v76h274l136 540h-89q-181 0 -268.5 -74.5t-109.5 -242.5h-45z" />
    <glyph glyph-name="tbar" unicode="&#x167;" horiz-adv-x="747" 
d="M823 965v-82h-286l-78 -310h266v-69h-283l-67 -266q-18 -72 8.5 -108t89.5 -36q79 0 150 39l26 -43q-145 -117 -289 -117q-129 0 -187.5 87t-22.5 233l53 211h-160v69h176l78 310h-176v53q141 41 233 110t191 189h80l-68 -270h266z" />
    <glyph glyph-name="Utilde" unicode="&#x168;" horiz-adv-x="1595" 
d="M1249 1546q-74 0 -145 58l-31 24q-46 37 -92 37q-87 0 -131 -115l-59 4q27 126 86.5 190t138.5 64q70 0 147 -57l33 -27q28 -20 47 -27t45 -7q43 0 74.5 26t56.5 88l60 -6q-27 -126 -86.5 -189t-143.5 -63zM733 -27q-133 0 -238.5 45t-171.5 129t-86.5 204t17.5 270
l139 559q28 106 2 147t-131 53v43h643v-43q-116 -10 -165.5 -51.5t-75.5 -148.5l-148 -594q-52 -207 28 -326t271 -119q178 0 302 112.5t181 340.5l146 582q27 113 2 152.5t-129 51.5v43h465v-43q-116 -11 -167 -53.5t-77 -150.5l-149 -594q-151 -609 -658 -609z" />
    <glyph glyph-name="utilde" unicode="&#x169;" horiz-adv-x="1150" 
d="M852 1128q-70 0 -145 58l-31 24q-48 39 -92 39q-43 0 -75 -27t-56 -89l-60 6q27 125 86.5 188.5t138.5 63.5q70 0 148 -58l33 -24q29 -21 48 -29t44 -8q43 0 75 27t56 90l59 -7q-27 -127 -86.5 -190.5t-142.5 -63.5zM338 -27q-121 0 -186 101.5t-23 267.5l92 371
q15 66 -3 95.5t-99 33.5v43l399 94h8l-168 -678q-21 -85 7 -132.5t92 -47.5q101 0 223 137l115 453q10 41 8 69t-28 43.5t-83 18.5v43l400 94h8l-180 -729q-20 -69 -4 -95.5t90 -29.5v-43l-385 -94h-9l43 170h-10q-135 -185 -307 -185z" />
    <glyph glyph-name="Umacron" unicode="&#x16a;" horiz-adv-x="1595" 
d="M838 1616h589v86h-589v-86zM733 -27q-133 0 -238.5 45t-171.5 129t-86.5 204t17.5 270l139 559q28 106 2 147t-131 53v43h643v-43q-116 -10 -165.5 -51.5t-75.5 -148.5l-148 -594q-52 -207 28 -326t271 -119q178 0 302 112.5t181 340.5l146 582q27 113 2 152.5t-129 51.5
v43h465v-43q-116 -11 -167 -53.5t-77 -150.5l-149 -594q-151 -609 -658 -609z" />
    <glyph glyph-name="umacron" unicode="&#x16b;" horiz-adv-x="1150" 
d="M446 1202h592v86h-592v-86zM338 -27q-121 0 -186 101.5t-23 267.5l92 371q15 66 -3 95.5t-99 33.5v43l399 94h8l-168 -678q-21 -85 7 -132.5t92 -47.5q101 0 223 137l115 453q10 41 8 69t-28 43.5t-83 18.5v43l400 94h8l-180 -729q-20 -69 -4 -95.5t90 -29.5v-43
l-385 -94h-9l43 170h-10q-135 -185 -307 -185z" />
    <glyph glyph-name="Ubreve" unicode="&#x16c;" horiz-adv-x="1595" 
d="M1110 1526q-117 0 -173.5 84.5t-23.5 226.5h60q-14 -73 26.5 -117.5t124.5 -44.5q88 0 148.5 43.5t91.5 118.5h61q-32 -150 -113 -230.5t-202 -80.5zM733 -27q-133 0 -238.5 45t-171.5 129t-86.5 204t17.5 270l139 559q28 106 2 147t-131 53v43h643v-43
q-116 -10 -165.5 -51.5t-75.5 -148.5l-148 -594q-52 -207 28 -326t271 -119q178 0 302 112.5t181 340.5l146 582q27 113 2 152.5t-129 51.5v43h465v-43q-116 -11 -167 -53.5t-77 -150.5l-149 -594q-151 -609 -658 -609z" />
    <glyph glyph-name="ubreve" unicode="&#x16d;" horiz-adv-x="1150" 
d="M719 1112q-115 0 -171.5 84.5t-23.5 226.5h60q-14 -73 26.5 -117t124.5 -44q88 0 148.5 43.5t91.5 117.5h61q-34 -150 -115 -230.5t-202 -80.5zM338 -27q-121 0 -186 101.5t-23 267.5l92 371q15 66 -3 95.5t-99 33.5v43l399 94h8l-168 -678q-21 -85 7 -132.5t92 -47.5
q101 0 223 137l115 453q10 41 8 69t-28 43.5t-83 18.5v43l400 94h8l-180 -729q-20 -69 -4 -95.5t90 -29.5v-43l-385 -94h-9l43 170h-10q-135 -185 -307 -185z" />
    <glyph glyph-name="Uring" unicode="&#x16e;" horiz-adv-x="1595" 
d="M1135 1507q-78 0 -133.5 55t-55.5 132t55.5 132.5t133.5 55.5t134 -55.5t56 -132.5t-56 -132t-134 -55zM1135 1583q46 0 76 31t30 80t-30 80.5t-76 31.5t-75.5 -31.5t-29.5 -80.5t29.5 -80t75.5 -31zM733 -27q-133 0 -238.5 45t-171.5 129t-86.5 204t17.5 270l139 559
q28 106 2 147t-131 53v43h643v-43q-116 -10 -165.5 -51.5t-75.5 -148.5l-148 -594q-52 -207 28 -326t271 -119q178 0 302 112.5t181 340.5l146 582q27 113 2 152.5t-129 51.5v43h465v-43q-116 -11 -167 -53.5t-77 -150.5l-149 -594q-151 -609 -658 -609z" />
    <glyph glyph-name="uring" unicode="&#x16f;" horiz-adv-x="1150" 
d="M741 1085q-78 0 -133 55t-55 132t55 131.5t133 54.5t134.5 -55t56.5 -131t-56.5 -131.5t-134.5 -55.5zM741 1161q46 0 76.5 31t30.5 80t-30.5 79.5t-76.5 30.5t-75 -30.5t-29 -79.5t29 -80t75 -31zM338 -27q-121 0 -186 101.5t-23 267.5l92 371q15 66 -3 95.5t-99 33.5
v43l399 94h8l-168 -678q-21 -85 7 -132.5t92 -47.5q101 0 223 137l115 453q10 41 8 69t-28 43.5t-83 18.5v43l400 94h8l-180 -729q-20 -69 -4 -95.5t90 -29.5v-43l-385 -94h-9l43 170h-10q-135 -185 -307 -185z" />
    <glyph glyph-name="Uhungarumlaut" unicode="&#x170;" horiz-adv-x="1595" 
d="M920 1522h-48l140 313h254v-8zM1245 1522h-47l141 313h252v-8zM733 -27q-133 0 -238.5 45t-171.5 129t-86.5 204t17.5 270l139 559q28 106 2 147t-131 53v43h643v-43q-116 -10 -165.5 -51.5t-75.5 -148.5l-148 -594q-52 -207 28 -326t271 -119q178 0 302 112.5t181 340.5
l146 582q27 113 2 152.5t-129 51.5v43h465v-43q-116 -11 -167 -53.5t-77 -150.5l-149 -594q-151 -609 -658 -609z" />
    <glyph glyph-name="uhungarumlaut" unicode="&#x171;" horiz-adv-x="1150" 
d="M528 1108h-47l140 313h251v-8zM854 1108h-47l141 313h252v-8zM338 -27q-121 0 -186 101.5t-23 267.5l92 371q15 66 -3 95.5t-99 33.5v43l399 94h8l-168 -678q-21 -85 7 -132.5t92 -47.5q101 0 223 137l115 453q10 41 8 69t-28 43.5t-83 18.5v43l400 94h8l-180 -729
q-20 -69 -4 -95.5t90 -29.5v-43l-385 -94h-9l43 170h-10q-135 -185 -307 -185z" />
    <glyph glyph-name="Uogonek" unicode="&#x172;" horiz-adv-x="1595" 
d="M647 -420q-78 0 -127 48t-49 118q0 147 213 227v7q-164 9 -277 88.5t-156 219.5t3 335l139 551q28 109 3 151.5t-132 54.5v43h643v-43q-117 -10 -165.5 -53.5t-77.5 -152.5l-146 -588q-52 -205 29 -325t270 -120q178 0 302 112.5t181 340.5l146 580q27 113 1.5 153.5
t-128.5 52.5v43h465v-43q-116 -11 -166.5 -52.5t-79.5 -153.5l-147 -592q-125 -502 -498 -592q-81 -19 -139.5 -45.5t-89 -55.5t-44.5 -57t-14 -57q0 -43 28 -71t75 -28q61 0 114 50l29 -33q-82 -113 -205 -113z" />
    <glyph glyph-name="uogonek" unicode="&#x173;" horiz-adv-x="1153" 
d="M1104 979l-182 -729q-20 -69 -3 -95.5t91 -29.5v-43l-205 -55q-140 -36 -214.5 -104t-74.5 -140q0 -50 28.5 -78.5t73.5 -28.5q59 0 115 50l29 -33q-83 -113 -205 -113q-77 0 -126.5 49.5t-49.5 122.5q0 82 63.5 146.5t176.5 107.5l36 152h-8q-135 -185 -311 -185
q-117 0 -182.5 102t-24.5 267l92 371q20 60 0.5 92.5t-100.5 36.5v43l399 94h8l-168 -678q-21 -85 7 -132.5t90 -47.5q54 0 107.5 33.5t117.5 103.5l113 453q10 40 9 68t-27.5 44t-84.5 19v43l402 94h8z" />
    <glyph glyph-name="Wcircumflex" unicode="&#x174;" horiz-adv-x="2060" 
d="M1049 1522l-66 4l352 313h56l190 -313l-57 -4l-197 123zM473 -14l-88 1159q-9 121 -37.5 166t-116.5 69v43h641v-43q-75 -9 -121.5 -27t-69.5 -48t-29 -65.5t-3 -90.5l51 -735h11l444 737l-29 272h273l88 -995h10l389 692q24 42 36.5 65.5t25 53t13.5 45t-2.5 33.5
t-19 28t-40.5 19.5t-62 15.5v43h455v-43q-59 -12 -101 -31t-77 -53.5t-60.5 -71.5t-62.5 -102l-643 -1136h-80l-90 1011h-13l-612 -1011h-80z" />
    <glyph glyph-name="wcircumflex" unicode="&#x175;" horiz-adv-x="1564" 
d="M698 1108l-65 4l352 313h55l189 -313l-55 -4l-197 123zM528 340h11l272 422l-27 203h236l76 -625h12l248 401q57 84 52 125.5t-87 55.5v43h360v-43q-86 -14 -134 -55.5t-105 -133.5l-467 -747h-62l-77 661h-13l-424 -661h-59l-88 741q-8 71 -40.5 99.5t-127.5 29.5v43
l373 92l4 -37q4 -39 12.5 -116t13.5 -121z" />
    <glyph glyph-name="Ycircumflex" unicode="&#x176;" horiz-adv-x="1470" 
d="M1249 1522l-196 123l-279 -123l-65 4l352 313h55l191 -313zM1233 1380v43h463v-43q-74 -13 -131 -42t-93.5 -62t-87.5 -92l-471 -557l-94 -381q-27 -114 -1 -153t130 -50v-43h-643v43q116 9 165 50t77 153l86 348l-207 600q-30 90 -65 130t-115 56v43h655v-43
q-77 -9 -123 -26t-63 -44t-16 -57t16 -75l151 -457h11l387 457q33 39 51 65t26.5 50.5t-0.5 40t-35 27.5t-73 19z" />
    <glyph glyph-name="ycircumflex" unicode="&#x177;" horiz-adv-x="1052" 
d="M909 1108l-196 123l-279 -123l-65 4l352 313h55l189 -313zM811 922v43h365v-43q-91 -16 -141.5 -59.5t-102.5 -133.5l-514 -858q-105 -175 -194.5 -242t-198.5 -67q-77 0 -142 35v213q78 -37 176 -37q216 0 336 200l2 4l-141 760q-11 66 -45 92t-127 27v43l367 92l4 -16
q19 -107 39 -232l77 -452h13l262 442q22 38 33 60.5t17.5 47.5t-0.5 39t-27.5 25.5t-57.5 16.5z" />
    <glyph glyph-name="Ydieresis" unicode="&#x178;" horiz-adv-x="1470" 
d="M825 1559q-54 0 -89.5 34.5t-35.5 89.5q0 64 45.5 109t110.5 45q55 0 90 -34t35 -89q0 -66 -45.5 -110.5t-110.5 -44.5zM1225 1559q-54 0 -88.5 34.5t-34.5 89.5q0 64 45 109t110 45q55 0 90 -34t35 -89q0 -66 -45.5 -110.5t-111.5 -44.5zM1233 1380v43h463v-43
q-74 -13 -131 -42t-93.5 -62t-87.5 -92l-471 -557l-94 -381q-27 -114 -1 -153t130 -50v-43h-643v43q116 9 165 50t77 153l86 348l-207 600q-30 90 -65 130t-115 56v43h655v-43q-77 -9 -123 -26t-63 -44t-16 -57t16 -75l151 -457h11l387 457q33 39 51 65t26.5 50.5t-0.5 40
t-35 27.5t-73 19z" />
    <glyph glyph-name="Zacute" unicode="&#x179;" horiz-adv-x="1286" 
d="M831 1522h-55l142 313h290v-8zM1114 0h-1145v57l1080 1276v8h-342q-171 0 -255.5 -79.5t-117.5 -262.5h-45v424h1126v-57l-1079 -1276v-8h328q92 0 156 17t115.5 60t84 118.5t49.5 189.5h45v-467z" />
    <glyph glyph-name="zacute" unicode="&#x17a;" horiz-adv-x="974" 
d="M571 1108h-57l143 313h291v-8zM459 76h-172v10l706 825v54h-819v-289h43q31 123 94.5 168t188.5 45h166v-10l-705 -824v-55h852v338h-43q-40 -150 -111.5 -206t-199.5 -56z" />
    <glyph glyph-name="Zdotaccent" unicode="&#x17b;" horiz-adv-x="1286" 
d="M891 1548q-57 0 -95 37.5t-38 95.5q0 69 48.5 117.5t117.5 48.5q60 0 97.5 -36.5t37.5 -96.5q0 -70 -49 -118t-119 -48zM1114 0h-1145v57l1080 1276v8h-342q-171 0 -255.5 -79.5t-117.5 -262.5h-45v424h1126v-57l-1079 -1276v-8h328q92 0 156 17t115.5 60t84 118.5
t49.5 189.5h45v-467z" />
    <glyph glyph-name="zdotaccent" unicode="&#x17c;" horiz-adv-x="974" 
d="M643 1133q-57 0 -95 37.5t-38 95.5q0 69 49.5 117.5t118.5 48.5q59 0 96 -37t37 -97q0 -70 -48.5 -117.5t-119.5 -47.5zM459 76h-172v10l706 825v54h-819v-289h43q31 123 94.5 168t188.5 45h166v-10l-705 -824v-55h852v338h-43q-40 -150 -111.5 -206t-199.5 -56z" />
    <glyph glyph-name="Zcaron" unicode="&#x17d;" horiz-adv-x="1286" 
d="M1167 1837l66 -6l-350 -313h-58l-188 315l55 4l199 -125zM1114 0h-1145v57l1080 1276v8h-342q-171 0 -255.5 -79.5t-117.5 -262.5h-45v424h1126v-57l-1079 -1276v-8h328q92 0 156 17t115.5 60t84 118.5t49.5 189.5h45v-467z" />
    <glyph glyph-name="zcaron" unicode="&#x17e;" horiz-adv-x="974" 
d="M913 1423l66 -6l-352 -313h-56l-188 315l55 4l199 -125zM459 76h-172v10l706 825v54h-819v-289h43q31 123 94.5 168t188.5 45h166v-10l-705 -824v-55h852v338h-43q-40 -150 -111.5 -206t-199.5 -56z" />
    <glyph glyph-name="uni01E2" unicode="&#x1e2;" horiz-adv-x="1921" 
d="M1280 1702h590v-86h-590v86zM193 289l897 1134h868v-381h-43q-21 159 -100.5 229t-251.5 70h-201l-145 -579h65q126 0 189 52t75 169h45v-524h-45q-12 117 -75 169t-189 52h-86l-149 -598h296q84 0 146 17.5t113 59.5t83 116t48 184h45v-459h-1205v43q120 12 169 54.5
t77 158.5l47 190h-438l-135 -172q-37 -46 -56.5 -76.5t-27.5 -58t5.5 -45t46 -30.5t89.5 -21v-43h-481v43q51 11 92.5 30.5t80.5 52.5t71.5 68.5t79.5 94.5zM496 532h393l178 711h-10z" />
    <glyph glyph-name="uni01E3" unicode="&#x1e3;" horiz-adv-x="1536" 
d="M606 1288h592v-86h-592v86zM1145 993q176 0 266 -105.5t62 -258.5l-11 -45h-610q-8 -41 -8 -90q0 -158 78 -245t208 -87q160 0 277 114l37 -34q-170 -269 -436 -269q-123 0 -220.5 71t-140.5 192h-10q-191 -263 -399 -263q-101 0 -162.5 59.5t-61.5 153.5q0 59 25 105
t75.5 79.5t111.5 57.5t147 45l223 55l25 99q26 103 -18.5 160t-143.5 57q-149 0 -295 -113l-31 45q89 91 201 154t231 63q168 0 248 -127h10q140 127 322 127zM866 655h385q14 70 9 127.5t-40 94t-94 36.5q-90 0 -158.5 -73t-101.5 -185zM518 213l62 250l-129 -39
q-97 -32 -149 -73t-52 -111q0 -51 28.5 -81t73.5 -30q85 0 166 84z" />
    <glyph glyph-name="AEacute" unicode="&#x1fc;" horiz-adv-x="1921" 
d="M1876 1835v-8l-377 -305h-55l141 313h291zM193 289l897 1134h868v-381h-43q-21 159 -100.5 229t-251.5 70h-201l-145 -579h65q126 0 189 52t75 169h45v-524h-45q-12 117 -75 169t-189 52h-86l-149 -598h296q84 0 146 17.5t113 59.5t83 116t48 184h45v-459h-1205v43
q120 12 169 54.5t77 158.5l47 190h-438l-135 -172q-37 -46 -56.5 -76.5t-27.5 -58t5.5 -45t46 -30.5t89.5 -21v-43h-481v43q51 11 92.5 30.5t80.5 52.5t71.5 68.5t79.5 94.5zM496 532h393l178 711h-10z" />
    <glyph glyph-name="aeacute" unicode="&#x1fd;" horiz-adv-x="1536" 
d="M1202 1421v-8l-377 -305h-57l143 313h291zM1145 993q176 0 266 -105.5t62 -258.5l-11 -45h-610q-8 -41 -8 -90q0 -158 78 -245t208 -87q160 0 277 114l37 -34q-170 -269 -436 -269q-123 0 -220.5 71t-140.5 192h-10q-191 -263 -399 -263q-101 0 -162.5 59.5t-61.5 153.5
q0 59 25 105t75.5 79.5t111.5 57.5t147 45l223 55l25 99q26 103 -18.5 160t-143.5 57q-149 0 -295 -113l-31 45q89 91 201 154t231 63q168 0 248 -127h10q140 127 322 127zM866 655h385q14 70 9 127.5t-40 94t-94 36.5q-90 0 -158.5 -73t-101.5 -185zM518 213l62 250
l-129 -39q-97 -32 -149 -73t-52 -111q0 -51 28.5 -81t73.5 -30q85 0 166 84z" />
    <glyph glyph-name="Oslashacute" unicode="&#x1fe;" horiz-adv-x="1650" 
d="M1370 1835v-8l-377 -305h-55l141 313h291zM1661 1516l55 -56l-231 -223q145 -172 145 -408q0 -232 -109.5 -428t-305 -312t-433.5 -116q-262 0 -444 158l-227 -219l-58 53l230 221q-146 168 -146 406q0 172 65 329.5t176.5 274t270.5 185.5t338 69q261 0 443 -158z
M440 526q0 -89 19 -170l825 797q-40 99 -117 153t-182 54q-100 0 -189.5 -52.5t-153 -139t-110 -196t-69.5 -224t-23 -222.5zM1329 895q0 95 -18 174l-828 -797q40 -100 116.5 -154.5t182.5 -54.5q84 0 161 37t136 100t107 145.5t79 175.5t47.5 188.5t16.5 185.5z" />
    <glyph glyph-name="oslashacute" unicode="&#x1ff;" horiz-adv-x="1148" 
d="M1034 1421v-8l-377 -305h-57l143 313h291zM1071 993l-102 -116q116 -113 116 -297q0 -165 -76 -304t-211.5 -221t-301.5 -82q-144 0 -252 68l-107 -123l-57 51l104 119q-116 116 -116 297q0 166 76 305.5t211.5 221t301.5 81.5q148 0 252 -69l103 118zM328 315
q0 -39 2 -57l471 543q-41 106 -148 106q-76 0 -140 -58t-103 -148t-60.5 -191t-21.5 -195zM500 59q76 0 140 58t103 147.5t60.5 190.5t21.5 194q0 40 -2 58l-471 -541q41 -107 148 -107z" />
    <glyph glyph-name="uni0218" unicode="&#x218;" horiz-adv-x="1138" 
d="M784 1450q98 0 197 -24t174 -64v-361h-43q-38 181 -125.5 271t-216.5 90q-117 0 -191.5 -67t-74.5 -173q0 -72 39 -128.5t121 -114.5l143 -101q111 -76 164 -160.5t53 -197.5q0 -135 -73.5 -238.5t-190 -156t-252.5 -52.5q-249 0 -436 131v369h43q61 -216 166 -314
t233 -98q116 0 193 66t77 174q0 71 -41.5 124.5t-128.5 115.5l-137 98q-207 146 -207 365q0 197 144.5 321.5t369.5 124.5zM489 -86q50 0 83.5 -34.5t33.5 -84.5q0 -62 -71 -147l-148 -183h-78l176 211h-8q-49 0 -80.5 31.5t-31.5 79.5q0 53 34.5 90t89.5 37z" />
    <glyph glyph-name="uni0219" unicode="&#x219;" horiz-adv-x="843" 
d="M537 993q151 0 270 -63v-242h-43q-57 221 -242 221q-75 0 -126.5 -37.5t-51.5 -101.5q0 -44 25.5 -77t85.5 -75l100 -69q81 -57 118.5 -114.5t37.5 -137.5q0 -140 -110 -232t-267 -92q-174 0 -305 90v242h43q81 -250 268 -250q75 0 122.5 35.5t47.5 99.5q0 44 -26.5 79.5
t-80.5 72.5l-102 72q-147 109 -147 254q0 141 110.5 233t272.5 92zM305 -86q50 0 83.5 -34.5t33.5 -84.5q0 -61 -72 -147l-147 -183h-78l176 211h-8q-49 0 -81 31.5t-32 79.5q0 53 35 90t90 37z" />
    <glyph glyph-name="uni021A" unicode="&#x21a;" horiz-adv-x="1331" 
d="M236 1026v397h1232v-397h-45q-22 165 -111 241t-259 76h-35l-270 -1087q-28 -117 1.5 -160t153.5 -53v-43h-698v43q135 10 188.5 53t83.5 160l271 1087h-89q-181 0 -268.5 -74.5t-109.5 -242.5h-45zM508 -86q50 0 83.5 -34.5t33.5 -84.5q0 -61 -72 -147l-147 -183h-78
l176 211h-8q-49 0 -81 31.5t-32 79.5q0 53 35 90t90 37z" />
    <glyph glyph-name="uni021B" unicode="&#x21b;" horiz-adv-x="729" 
d="M813 883h-287l-161 -645q-18 -72 8.5 -108t89.5 -36q78 0 149 39l27 -43q-145 -117 -289 -117q-129 0 -188 87t-23 233l148 590h-176v53q141 41 233 110t191 189h79l-67 -270h266v-82zM229 -86q50 0 83.5 -34.5t33.5 -84.5q0 -61 -72 -147l-147 -183h-78l176 211h-8
q-49 0 -81 31.5t-32 79.5q0 53 35 90t90 37z" />
    <glyph glyph-name="uni0226" unicode="&#x226;" horiz-adv-x="1441" 
d="M985 1548q-57 0 -95 37.5t-38 95.5q0 69 48.5 117.5t117.5 48.5q60 0 97.5 -36.5t37.5 -96.5q0 -70 -49 -118t-119 -48zM979 1438l209 -1170q21 -113 49.5 -157t103.5 -68v-43h-636v43q142 22 186.5 69.5t28.5 141.5l-33 192h-498l-110 -178q-72 -107 -55 -155.5
t151 -69.5v-43h-490v43q105 22 164.5 71t128.5 160l729 1164h72zM772 1057l-328 -525h428l-90 525h-10z" />
    <glyph glyph-name="uni0227" unicode="&#x227;" horiz-adv-x="1167" 
d="M733 1133q-57 0 -95 37.5t-38 95.5q0 69 49.5 117.5t118.5 48.5q59 0 96 -37t37 -97q0 -70 -48.5 -117.5t-119.5 -47.5zM360 -27q-135 0 -217 108t-82 273q0 121 44.5 236.5t120 204.5t184.5 143.5t231 54.5q159 0 277 -90h8l149 70h45l-180 -721q-10 -43 -10.5 -70.5
t22 -41t76.5 -15.5v-43l-385 -94h-10l43 170h-10q-132 -185 -306 -185zM477 125q60 0 113.5 35.5t109.5 97.5l99 389q29 115 -13.5 191.5t-136.5 76.5q-100 0 -182.5 -79t-126 -196.5t-43.5 -240.5t46.5 -198.5t133.5 -75.5z" />
    <glyph glyph-name="uni0232" unicode="&#x232;" horiz-adv-x="1470" 
d="M754 1702h589v-86h-589v86zM1233 1380v43h463v-43q-74 -13 -131 -42t-93.5 -62t-87.5 -92l-471 -557l-94 -381q-27 -114 -1 -153t130 -50v-43h-643v43q116 9 165 50t77 153l86 348l-207 600q-30 90 -65 130t-115 56v43h655v-43q-77 -9 -123 -26t-63 -44t-16 -57t16 -75
l151 -457h11l387 457q33 39 51 65t26.5 50.5t-0.5 40t-35 27.5t-73 19z" />
    <glyph glyph-name="uni0233" unicode="&#x233;" horiz-adv-x="1052" 
d="M416 1288h592v-86h-592v86zM811 922v43h365v-43q-91 -16 -141.5 -59.5t-102.5 -133.5l-514 -858q-105 -175 -194.5 -242t-198.5 -67q-77 0 -142 35v213q78 -37 176 -37q216 0 336 200l2 4l-141 760q-11 66 -45 92t-127 27v43l367 92l4 -16q19 -107 39 -232l77 -452h13
l262 442q22 38 33 60.5t17.5 47.5t-0.5 39t-27.5 25.5t-57.5 16.5z" />
    <glyph glyph-name="uni0237" unicode="&#x237;" horiz-adv-x="561" 
d="M-133 -438q-123 0 -215 57l24 53q57 -24 123 -24q82 0 136 44.5t79 147.5l219 875q17 68 -5 96.5t-97 32.5v41l397 96h11l-275 -1100q-78 -319 -397 -319z" />
    <glyph glyph-name="circumflex" unicode="&#x2c6;" horiz-adv-x="706" 
d="M276 1108l-65 4l352 313h55l189 -313l-55 -4l-197 123z" />
    <glyph glyph-name="caron" unicode="&#x2c7;" horiz-adv-x="706" 
d="M813 1425l66 -4l-353 -313h-55l-188 315l55 2l199 -122z" />
    <glyph glyph-name="breve" unicode="&#x2d8;" horiz-adv-x="628" 
d="M487 1112q-117 0 -173 84.5t-23 226.5h59q-14 -73 27 -117t125 -44q172 0 239 161h62q-32 -149 -114 -230t-202 -81z" />
    <glyph glyph-name="dotaccent" unicode="&#x2d9;" horiz-adv-x="358" 
d="M362 1133q-58 0 -95.5 37.5t-37.5 95.5q0 69 48.5 117.5t117.5 48.5q59 0 96 -37t37 -97q0 -70 -48.5 -117.5t-117.5 -47.5z" />
    <glyph glyph-name="ring" unicode="&#x2da;" horiz-adv-x="473" 
d="M428 1085q-78 0 -133 55t-55 132t55 131.5t133 54.5t134 -55t56 -131q0 -77 -56 -132t-134 -55zM428 1161q46 0 76.5 31t30.5 80t-30.5 79.5t-76.5 30.5t-75 -30.5t-29 -79.5t29 -80t75 -31z" />
    <glyph glyph-name="ogonek" unicode="&#x2db;" horiz-adv-x="591" 
d="M90 -420q-78 0 -127 48t-49 118q0 186 342 274l43 -20q-133 -58 -191.5 -113.5t-58.5 -113.5q0 -42 28.5 -69.5t74.5 -27.5q58 0 114 50l29 -33q-82 -113 -205 -113z" />
    <glyph glyph-name="tilde" unicode="&#x2dc;" horiz-adv-x="673" 
d="M659 1128q-70 0 -145 58l-31 24q-48 39 -92 39t-75.5 -26.5t-55.5 -89.5l-59 6q27 125 86.5 188.5t138.5 63.5q70 0 145 -58l35 -24q29 -21 48 -29t44 -8q43 0 74.5 26.5t56.5 90.5l60 -7q-27 -126 -86.5 -190t-143.5 -64z" />
    <glyph glyph-name="hungarumlaut" unicode="&#x2dd;" horiz-adv-x="753" 
d="M264 1108h-45l139 313h252v-8zM592 1108h-49l141 313h252v-8z" />
    <glyph glyph-name="uni0394" unicode="&#x394;" horiz-adv-x="1177" 
d="M1065 0h-1151v55l874 1383h74l203 -1383v-55zM43 94v-10h752v8l-140 955h-8z" />
    <glyph glyph-name="Pi" unicode="&#x3a0;" horiz-adv-x="1542" 
d="M1710 1423v-43q-119 -12 -167 -54.5t-77 -160.5l-227 -913q-30 -112 -4 -155.5t131 -53.5v-43h-612v43q96 11 140.5 54t72.5 155l272 1087h-508l-270 -1083q-28 -117 -6.5 -159.5t108.5 -53.5v-43h-614v43q116 12 163 52.5t76 156.5l228 913q30 115 6 159t-129 56v43
h1417z" />
    <glyph glyph-name="uni03A9" unicode="&#x3a9;" horiz-adv-x="1527" 
d="M569 0h-508v221h480l10 41q-174 47 -278.5 174t-104.5 293q0 142 58 274t158 230.5t243 157.5t303 59q256 0 421 -153t165 -388t-173.5 -417t-447.5 -236l-8 -35h428v-221h-572l78 303q125 50 219.5 159t141.5 241.5t47 269.5q0 180 -78.5 283.5t-218.5 103.5
q-74 0 -141 -30.5t-118.5 -82t-93.5 -118.5t-68.5 -142t-41 -150.5t-14.5 -144.5q0 -147 48.5 -247t141.5 -146z" />
    <glyph glyph-name="uni03BC" unicode="&#x3bc;" horiz-adv-x="1169" 
d="M-39 -410l281 1125q16 67 -3.5 95t-97.5 32v43l398 94h8l-168 -682q-20 -81 7.5 -128.5t86.5 -47.5q60 0 113.5 35t113.5 102l115 455q16 67 -2.5 96t-99.5 33v43l399 94h10l-182 -727q-20 -73 -3 -98.5t91 -28.5v-43l-385 -94h-10l43 170h-10q-131 -185 -289 -185
q-41 0 -70 19h-4l-49 -191q-26 -98 -10 -128.5t104 -39.5v-43h-387z" />
    <glyph glyph-name="pi" unicode="&#x3c0;" horiz-adv-x="1255" 
d="M1266 883h-238l-162 -645q-18 -71 9 -107.5t88 -36.5q80 0 151 39l27 -43q-140 -117 -289 -117q-128 0 -187.5 86.5t-23.5 233.5l147 590h-260l-221 -883h-239l221 883h-152l4 82h1129z" />
    <glyph glyph-name="uni0E3F" unicode="&#xe3f;" horiz-adv-x="1345" 
d="M1319 1092q0 -146 -119 -242t-309 -123v-10q153 -21 243.5 -99.5t90.5 -197.5q0 -130 -81.5 -227t-214 -145t-294.5 -48h-33l-45 -184h-82l45 184h-538v43q111 9 156 49.5t73 151.5l225 909q16 62 15 104t-32 64.5t-100 28.5v43h541h8l47 186h82l-47 -190
q177 -17 273 -96.5t96 -200.5zM801 1315h-90l-136 -543h132h8l133 541q-14 2 -47 2zM926 1294l-127 -514q124 23 195 103.5t71 201.5q0 79 -36 132t-103 77zM557 700l-156 -624h140l155 622q-14 2 -41 2h-98zM963 446q0 194 -189 242l-151 -608q154 17 247 117.5t93 248.5z
" />
    <glyph glyph-name="Wgrave" unicode="&#x1e80;" horiz-adv-x="2060" 
d="M1346 1835l22 -313h-49l-244 305v8h271zM473 -14l-88 1159q-9 121 -37.5 166t-116.5 69v43h641v-43q-75 -9 -121.5 -27t-69.5 -48t-29 -65.5t-3 -90.5l51 -735h11l444 737l-29 272h273l88 -995h10l389 692q24 42 36.5 65.5t25 53t13.5 45t-2.5 33.5t-19 28t-40.5 19.5
t-62 15.5v43h455v-43q-59 -12 -101 -31t-77 -53.5t-60.5 -71.5t-62.5 -102l-643 -1136h-80l-90 1011h-13l-612 -1011h-80z" />
    <glyph glyph-name="wgrave" unicode="&#x1e81;" horiz-adv-x="1564" 
d="M1016 1421l22 -313h-51l-242 305v8h271zM528 340h11l272 422l-27 203h236l76 -625h12l248 401q57 84 52 125.5t-87 55.5v43h360v-43q-86 -14 -134 -55.5t-105 -133.5l-467 -747h-62l-77 661h-13l-424 -661h-59l-88 741q-8 71 -40.5 99.5t-127.5 29.5v43l373 92l4 -37
q4 -39 12.5 -116t13.5 -121z" />
    <glyph glyph-name="Wacute" unicode="&#x1e82;" horiz-adv-x="2060" 
d="M1247 1522h-55l141 313h291v-8zM473 -14l-88 1159q-9 121 -37.5 166t-116.5 69v43h641v-43q-75 -9 -121.5 -27t-69.5 -48t-29 -65.5t-3 -90.5l51 -735h11l444 737l-29 272h273l88 -995h10l389 692q24 42 36.5 65.5t25 53t13.5 45t-2.5 33.5t-19 28t-40.5 19.5t-62 15.5
v43h455v-43q-59 -12 -101 -31t-77 -53.5t-60.5 -71.5t-62.5 -102l-643 -1136h-80l-90 1011h-13l-612 -1011h-80z" />
    <glyph glyph-name="wacute" unicode="&#x1e83;" horiz-adv-x="1564" 
d="M899 1108h-57l143 313h291v-8zM528 340h11l272 422l-27 203h236l76 -625h12l248 401q57 84 52 125.5t-87 55.5v43h360v-43q-86 -14 -134 -55.5t-105 -133.5l-467 -747h-62l-77 661h-13l-424 -661h-59l-88 741q-8 71 -40.5 99.5t-127.5 29.5v43l373 92l4 -37
q4 -39 12.5 -116t13.5 -121z" />
    <glyph glyph-name="Wdieresis" unicode="&#x1e84;" horiz-adv-x="2060" 
d="M1102 1559q-54 0 -89.5 34.5t-35.5 89.5q0 64 45.5 109t110.5 45q54 0 89 -34t35 -89q0 -66 -45 -110.5t-110 -44.5zM1501 1559q-54 0 -88.5 34.5t-34.5 89.5q0 64 45.5 109t110.5 45q55 0 90 -34t35 -89q0 -66 -46 -110.5t-112 -44.5zM473 -14l-88 1159
q-9 121 -37.5 166t-116.5 69v43h641v-43q-75 -9 -121.5 -27t-69.5 -48t-29 -65.5t-3 -90.5l51 -735h11l444 737l-29 272h273l88 -995h10l389 692q24 42 36.5 65.5t25 53t13.5 45t-2.5 33.5t-19 28t-40.5 19.5t-62 15.5v43h455v-43q-59 -12 -101 -31t-77 -53.5t-60.5 -71.5
t-62.5 -102l-643 -1136h-80l-90 1011h-13l-612 -1011h-80z" />
    <glyph glyph-name="wdieresis" unicode="&#x1e85;" horiz-adv-x="1564" 
d="M762 1141q-54 0 -89.5 35.5t-35.5 89.5q0 64 45.5 109.5t110.5 45.5q56 0 90.5 -34t34.5 -91q0 -66 -45.5 -110.5t-110.5 -44.5zM1163 1141q-54 0 -89.5 35.5t-35.5 89.5q0 64 45.5 109.5t110.5 45.5q56 0 90.5 -34t34.5 -91q0 -66 -45.5 -110.5t-110.5 -44.5zM528 340
h11l272 422l-27 203h236l76 -625h12l248 401q57 84 52 125.5t-87 55.5v43h360v-43q-86 -14 -134 -55.5t-105 -133.5l-467 -747h-62l-77 661h-13l-424 -661h-59l-88 741q-8 71 -40.5 99.5t-127.5 29.5v43l373 92l4 -37q4 -39 12.5 -116t13.5 -121z" />
    <glyph glyph-name="uni1E9E" unicode="&#x1e9e;" horiz-adv-x="1525" 
d="M471 1423h1139v-55l-527 -604q150 -31 244 -121.5t94 -232.5q0 -127 -76 -227.5t-203.5 -155t-281.5 -54.5q-180 0 -299 74l29 57q90 -36 174 -36q170 0 272.5 108t102.5 268q0 132 -75.5 203.5t-219.5 71.5h-37v55l481 557v10h-567l-334 -1341h-453v43q118 12 166.5 52
t75.5 153z" />
    <glyph glyph-name="uni1ECA" unicode="&#x1eca;" horiz-adv-x="768" 
d="M-51 0v43q118 11 165 51t76 156l230 924q28 114 3.5 154t-130.5 52v43h641v-43q-119 -11 -166.5 -51t-75.5 -155l-231 -924q-15 -60 -16 -96t16 -59.5t47 -34.5t84 -17v-43h-643zM186 -416q-57 0 -95 37.5t-38 95.5q0 69 49.5 117.5t118.5 48.5q59 0 96 -36.5t37 -96.5
q0 -70 -48.5 -118t-119.5 -48z" />
    <glyph glyph-name="uni1ECB" unicode="&#x1ecb;" horiz-adv-x="602" 
d="M489 1133q-59 0 -96 37.5t-37 95.5q0 69 48.5 117.5t117.5 48.5q59 0 96 -37t37 -97q0 -70 -48.5 -117.5t-117.5 -47.5zM555 981l-197 -799q-20 -78 -4.5 -104t84.5 -35v-43h-485v43q85 9 114.5 35t51.5 110l131 529q18 66 -4 94.5t-99 32.5v41l400 96h8zM113 -416
q-57 0 -95 37.5t-38 95.5q0 69 49 117.5t118 48.5q59 0 96.5 -36.5t37.5 -96.5q0 -70 -48.5 -118t-119.5 -48z" />
    <glyph glyph-name="uni1ECC" unicode="&#x1ecc;" horiz-adv-x="1650" 
d="M780 -27q-186 0 -333.5 80.5t-228.5 222t-81 316.5q0 172 64.5 329.5t176 274t270 185.5t337.5 69q140 0 260.5 -47.5t204 -130.5t131 -197.5t47.5 -245.5q0 -232 -109.5 -428t-305 -312t-433.5 -116zM782 63q84 0 161 37t135.5 100t106.5 145.5t78.5 175.5t47 188.5
t16.5 185.5q0 213 -89.5 339t-252.5 126q-84 0 -161 -37t-136 -100.5t-107 -146.5t-79 -176.5t-47.5 -189t-16.5 -184.5q0 -214 90 -338.5t254 -124.5zM694 -416q-57 0 -95 37.5t-38 95.5q0 69 49.5 117.5t118.5 48.5q59 0 96 -36.5t37 -96.5q0 -70 -48.5 -118t-119.5 -48z
" />
    <glyph glyph-name="uni1ECD" unicode="&#x1ecd;" horiz-adv-x="1148" 
d="M496 -27q-193 0 -310.5 114t-117.5 298q0 166 76 305.5t211.5 221t301.5 81.5q193 0 310.5 -114.5t117.5 -298.5q0 -165 -76 -304t-211.5 -221t-301.5 -82zM500 59q76 0 140 58t103 147.5t60.5 190.5t21.5 194q0 125 -44.5 191.5t-127.5 66.5q-77 0 -141 -58t-103 -148
t-60 -191t-21 -195q0 -125 44 -190.5t128 -65.5zM408 -416q-57 0 -95.5 37.5t-38.5 95.5q0 69 49.5 117.5t118.5 48.5q59 0 96 -36.5t37 -96.5q0 -70 -48 -118t-119 -48z" />
    <glyph glyph-name="uni1EE4" unicode="&#x1ee4;" horiz-adv-x="1595" 
d="M733 -27q-133 0 -238.5 45t-171.5 129t-86.5 204t17.5 270l139 559q28 106 2 147t-131 53v43h643v-43q-116 -10 -165.5 -51.5t-75.5 -148.5l-148 -594q-52 -207 28 -326t271 -119q178 0 302 112.5t181 340.5l146 582q27 113 2 152.5t-129 51.5v43h465v-43
q-116 -11 -167 -53.5t-77 -150.5l-149 -594q-151 -609 -658 -609zM651 -416q-57 0 -95 37.5t-38 95.5q0 69 49.5 117.5t118.5 48.5q59 0 96 -36.5t37 -96.5q0 -70 -48.5 -118t-119.5 -48z" />
    <glyph glyph-name="uni1EE5" unicode="&#x1ee5;" horiz-adv-x="1150" 
d="M338 -27q-121 0 -186 101.5t-23 267.5l92 371q15 66 -3 95.5t-99 33.5v43l399 94h8l-168 -678q-21 -85 7 -132.5t92 -47.5q101 0 223 137l115 453q10 41 8 69t-28 43.5t-83 18.5v43l400 94h8l-180 -729q-20 -69 -4 -95.5t90 -29.5v-43l-385 -94h-9l43 170h-10
q-135 -185 -307 -185zM397 -416q-57 0 -95 37.5t-38 95.5q0 69 49.5 117.5t118.5 48.5q59 0 96 -36.5t37 -96.5q0 -70 -48.5 -118t-119.5 -48z" />
    <glyph glyph-name="Ygrave" unicode="&#x1ef2;" horiz-adv-x="1470" 
d="M1071 1835l23 -313h-50l-243 305v8h270zM1233 1380v43h463v-43q-74 -13 -131 -42t-93.5 -62t-87.5 -92l-471 -557l-94 -381q-27 -114 -1 -153t130 -50v-43h-643v43q116 9 165 50t77 153l86 348l-207 600q-30 90 -65 130t-115 56v43h655v-43q-77 -9 -123 -26t-63 -44
t-16 -57t16 -75l151 -457h11l387 457q33 39 51 65t26.5 50.5t-0.5 40t-35 27.5t-73 19z" />
    <glyph glyph-name="ygrave" unicode="&#x1ef3;" horiz-adv-x="1052" 
d="M752 1421l22 -313h-51l-242 305v8h271zM811 922v43h365v-43q-91 -16 -141.5 -59.5t-102.5 -133.5l-514 -858q-105 -175 -194.5 -242t-198.5 -67q-77 0 -142 35v213q78 -37 176 -37q216 0 336 200l2 4l-141 760q-11 66 -45 92t-127 27v43l367 92l4 -16q19 -107 39 -232
l77 -452h13l262 442q22 38 33 60.5t17.5 47.5t-0.5 39t-27.5 25.5t-57.5 16.5z" />
    <glyph glyph-name="uni2002" unicode="&#x2002;" horiz-adv-x="1024" 
 />
    <glyph glyph-name="uni2003" unicode="&#x2003;" horiz-adv-x="2048" 
 />
    <glyph glyph-name="uni2009" unicode="&#x2009;" horiz-adv-x="256" 
 />
    <glyph glyph-name="uni200A" unicode="&#x200a;" horiz-adv-x="86" 
 />
    <glyph glyph-name="endash" unicode="&#x2013;" horiz-adv-x="1099" 
d="M137 524h864v92h-864v-92z" />
    <glyph glyph-name="emdash" unicode="&#x2014;" horiz-adv-x="1652" 
d="M137 524h1417v92h-1417v-92z" />
    <glyph glyph-name="quoteleft" unicode="&#x2018;" horiz-adv-x="479" 
d="M367 1112q63 0 102 -39.5t39 -101.5q0 -67 -48.5 -117.5t-119.5 -50.5q-67 0 -108.5 43.5t-41.5 105.5q0 48 21.5 90t67.5 99l235 282h90l-264 -313q8 2 27 2z" />
    <glyph glyph-name="quoteright" unicode="&#x2019;" horiz-adv-x="475" 
d="M463 1452q67 0 108 -43t41 -106q0 -49 -21.5 -91t-66.5 -98l-235 -283h-90l266 316q-10 -2 -29 -2q-63 0 -101 38.5t-38 100.5q0 68 48 118t118 50z" />
    <glyph glyph-name="quotesinglbase" unicode="&#x201a;" horiz-adv-x="501" 
d="M193 283q66 0 106.5 -44.5t40.5 -107.5q0 -48 -21 -89.5t-67 -98.5l-234 -281h-90l267 313q-10 -2 -29 -2q-63 0 -102 39t-39 101q0 68 49 119t119 51z" />
    <glyph glyph-name="quotedblleft" unicode="&#x201c;" horiz-adv-x="892" 
d="M365 1110q64 0 102.5 -38.5t38.5 -100.5q0 -68 -49 -119t-119 -51q-66 0 -107 44t-41 107q0 49 21.5 91.5t67.5 97.5l233 280h92l-266 -313q8 2 27 2zM780 1110q63 0 102.5 -38.5t39.5 -100.5q0 -68 -49 -119t-119 -51q-67 0 -108.5 44t-41.5 107q0 49 22 91t68 98
l234 280h90l-266 -313q10 2 28 2z" />
    <glyph glyph-name="quotedblright" unicode="&#x201d;" horiz-adv-x="888" 
d="M463 1452q67 0 107 -44t40 -108q0 -48 -21.5 -89.5t-66.5 -96.5l-233 -283h-90l264 314q-8 -2 -27 -2q-63 0 -102 39t-39 102q0 67 48.5 117.5t119.5 50.5zM877 1452q67 0 108 -44t41 -108q0 -47 -21.5 -88t-66.5 -98l-236 -283h-90l265 314q-8 -2 -25 -2
q-64 0 -102.5 39t-38.5 102q0 67 48.5 117.5t117.5 50.5z" />
    <glyph glyph-name="quotedblbase" unicode="&#x201e;" horiz-adv-x="915" 
d="M190 283q67 0 108.5 -44t41.5 -108q0 -47 -21 -88t-67 -100l-236 -281h-90l267 313q-10 -2 -29 -2q-63 0 -102 39t-39 101q0 68 48.5 119t118.5 51zM606 283q67 0 108.5 -44t41.5 -108q0 -47 -21.5 -88.5t-68.5 -99.5l-234 -281h-90l266 313q-10 -2 -28 -2
q-63 0 -102.5 39t-39.5 101q0 68 49 119t119 51z" />
    <glyph glyph-name="dagger" unicode="&#x2020;" horiz-adv-x="1107" 
d="M514 -299h-307l444 1327l-424 -117v299l443 -114l6 497h307l-238 -497l429 114v-299l-445 117z" />
    <glyph glyph-name="daggerdbl" unicode="&#x2021;" horiz-adv-x="1165" 
d="M549 -299h-307l237 498l-424 -115v299l441 -115l-2 379l192 381l-424 -117v299l440 -114l9 497h307l-238 -497l428 114v-299l-444 117l2 -381l-193 -379l431 115v-299l-449 115z" />
    <glyph glyph-name="bullet" unicode="&#x2022;" horiz-adv-x="909" 
d="M446 252q-126 0 -201 78.5t-75 197.5q0 146 97.5 244t238.5 98q127 0 203.5 -80t76.5 -200q0 -146 -98.5 -242t-241.5 -96z" />
    <glyph glyph-name="ellipsis" unicode="&#x2026;" horiz-adv-x="1734" 
d="M158 -27q-63 0 -100.5 39.5t-37.5 98.5q0 73 48.5 122.5t119.5 49.5q63 0 102.5 -40.5t39.5 -101.5q0 -73 -49.5 -120.5t-122.5 -47.5zM774 -27q-63 0 -101 39.5t-38 98.5q0 73 49.5 122.5t120.5 49.5q63 0 101 -40.5t38 -101.5q0 -73 -49.5 -120.5t-120.5 -47.5z
M1411 -27q-63 0 -101 39.5t-38 98.5q0 73 49 122.5t119 49.5q65 0 103 -40t38 -102q0 -73 -49.5 -120.5t-120.5 -47.5z" />
    <glyph glyph-name="perthousand" unicode="&#x2030;" horiz-adv-x="2142" 
d="M494 684q-128 0 -209.5 87t-81.5 230q0 112 48 212.5t139.5 165.5t205.5 65q127 0 210 -87t83 -231q0 -109 -49 -210t-141.5 -166.5t-204.5 -65.5zM166 0l1323 1423h115l-1323 -1423h-115zM594 1370q-49 0 -89 -44t-64 -110.5t-37 -138.5t-13 -135q0 -90 26.5 -137
t76.5 -47q49 0 89.5 44.5t65 111.5t38 139t13.5 133q0 184 -106 184zM1769 743q128 0 210.5 -86.5t82.5 -230.5q0 -109 -49 -210t-141.5 -166.5t-204.5 -65.5q-145 0 -227 108q-111 -108 -256 -108q-128 0 -209.5 87t-81.5 230q0 83 28.5 162.5t79 141.5t125 100t160.5 38
q145 0 227 -108q108 108 256 108zM1184 57q64 0 113.5 76t71.5 171.5t22 180.5q0 91 -27.5 138t-79.5 47q-49 0 -89 -44t-64 -110.5t-37 -138.5t-13 -135q0 -90 26.5 -137.5t76.5 -47.5zM1669 57q49 0 89.5 44.5t65 111.5t37.5 138.5t13 133.5q0 91 -27.5 138t-77.5 47
q-49 0 -90 -44t-64.5 -110.5t-36.5 -138.5t-13 -135q0 -185 104 -185z" />
    <glyph glyph-name="guilsinglleft" unicode="&#x2039;" horiz-adv-x="753" 
d="M543 4l-51 -27l-410 527l653 485l43 -43l-403 -475z" />
    <glyph glyph-name="guilsinglright" unicode="&#x203a;" horiz-adv-x="755" 
d="M211 961l53 24l410 -524l-654 -486l-43 43l402 476z" />
    <glyph glyph-name="uni203D" unicode="&#x203d;" horiz-adv-x="1028" 
d="M676 1450q181 0 293 -99t112 -247q0 -93 -39 -171t-113 -138t-158.5 -104t-197.5 -87l-69 -205h-68l129 881q-184 0 -313 -152l-43 39q78 129 197 206t270 77zM782 1206l-172 -497q119 68 178.5 147.5t59.5 181.5t-66 168zM436 283q65 0 103.5 -40.5t38.5 -101.5
q0 -73 -49.5 -120.5t-122.5 -47.5q-62 0 -100 40t-38 98q0 73 48.5 122.5t119.5 49.5z" />
    <glyph glyph-name="fraction" unicode="&#x2044;" horiz-adv-x="352" 
d="M958 1423h-114l-1323 -1423h114z" />
    <glyph glyph-name="uni2070" unicode="&#x2070;" horiz-adv-x="1001" 
d="M623 793q-165 0 -266 103t-101 271q0 151 65.5 277.5t183 201t261.5 74.5q165 0 267 -103t102 -269q0 -152 -66 -279t-183.5 -201.5t-262.5 -74.5zM621 877q66 0 122.5 52t91.5 132.5t54.5 171.5t19.5 174q0 231 -143 231q-65 0 -121 -52.5t-90.5 -133t-54 -172.5
t-19.5 -176q0 -111 36.5 -169t103.5 -58z" />
    <glyph glyph-name="uni2074" unicode="&#x2074;" horiz-adv-x="884" 
d="M727 821h-180l51 205h-434v49l735 639h51l-133 -532h176v-156h-215zM393 1190v-8h244l70 274h-9z" />
    <glyph glyph-name="uni2075" unicode="&#x2075;" horiz-adv-x="768" 
d="M500 793q-109 0 -195 57.5t-137 167.5l41 31q86 -119 217 -119q94 0 154.5 48t60.5 126q0 66 -43.5 101.5t-116.5 35.5q-90 0 -182 -63h-10l211 514h461v-191h-472l-90 -225h9q79 82 188 82q97 0 165 -69t68 -179q0 -133 -93 -225t-236 -92z" />
    <glyph glyph-name="uni2076" unicode="&#x2076;" horiz-adv-x="839" 
d="M567 793q-117 0 -197 70t-106 184q-29 125 10.5 260.5t131.5 236.5q162 176 389 176q146 0 249 -82l-24 -47q-84 49 -180 49q-140 0 -237.5 -99t-131.5 -271h8q89 104 215 104q100 0 170 -71.5t70 -174.5q0 -143 -106.5 -239t-260.5 -96zM557 858q80 0 127 72.5t47 175.5
q0 74 -34.5 117t-92.5 43q-81 0 -149 -84l-15 -80q-18 -108 12 -176t105 -68z" />
    <glyph glyph-name="uni2077" unicode="&#x2077;" horiz-adv-x="751" 
d="M1008 1640l-547 -815h-297v9l670 655v6h-504v197h678v-52z" />
    <glyph glyph-name="uni2078" unicode="&#x2078;" horiz-adv-x="864" 
d="M545 793q-155 0 -244.5 69.5t-89.5 179.5q0 105 84 172.5t221 85.5v11q-76 17 -117 61.5t-41 106.5q0 108 96.5 174.5t252.5 66.5q134 0 215.5 -62t81.5 -155q0 -88 -69 -147t-183 -78v-8q85 -15 137.5 -67t52.5 -128q0 -131 -112.5 -206.5t-284.5 -75.5zM649 1319
q67 0 112.5 66t45.5 151q0 56 -25 87.5t-71 31.5q-65 0 -109.5 -66t-44.5 -151q0 -55 24.5 -87t67.5 -32zM541 858q83 0 142.5 77t59.5 179q0 67 -35.5 105t-95.5 38q-85 0 -143.5 -75t-58.5 -176q0 -68 35.5 -108t95.5 -40z" />
    <glyph glyph-name="uni2079" unicode="&#x2079;" horiz-adv-x="839" 
d="M674 1720q118 0 198 -70t107 -184q28 -124 -12 -260.5t-131 -236.5q-162 -176 -390 -176q-144 0 -249 84l24 45q85 -50 180 -50q141 0 238 100t131 273h-8q-86 -104 -213 -104q-101 0 -171.5 70.5t-70.5 172.5q0 144 106.5 240t260.5 96zM686 1655q-81 0 -128.5 -72.5
t-47.5 -175.5q0 -73 34.5 -115.5t92.5 -42.5q82 0 149 82l15 80q18 108 -11.5 176t-103.5 68z" />
    <glyph glyph-name="uni2080" unicode="&#x2080;" horiz-adv-x="1001" 
d="M360 -254q-164 0 -265 104t-101 271q0 151 65.5 277.5t183 201t261.5 74.5q165 0 267.5 -103.5t102.5 -269.5q0 -152 -66.5 -279t-184.5 -201.5t-263 -74.5zM358 -170q66 0 123 52t92 132.5t54.5 171.5t19.5 174q0 114 -36.5 173t-104.5 59q-66 0 -122 -52.5
t-90.5 -133.5t-53.5 -172.5t-19 -176.5q0 -111 36 -169t101 -58z" />
    <glyph glyph-name="uni2081" unicode="&#x2081;" horiz-adv-x="706" 
d="M352 -225h-198l131 526h-299v51q174 55 297 126.5t223 189.5h67z" />
    <glyph glyph-name="uni2082" unicode="&#x2082;" horiz-adv-x="786" 
d="M553 -225h-653v51l299 205q129 89 192.5 161.5t63.5 155.5q0 81 -52 127.5t-133 46.5q-113 0 -196 -90l-37 35q55 91 140.5 149t197.5 58q120 0 203.5 -75.5t83.5 -184.5q0 -49 -18 -94.5t-44 -80t-70 -72t-82.5 -63t-93.5 -59.5l-114 -68v-8h313v-194z" />
    <glyph glyph-name="uni2083" unicode="&#x2083;" horiz-adv-x="776" 
d="M248 -254q-122 0 -205.5 63.5t-128.5 161.5l41 31q86 -119 217 -119q95 0 155 50t60 130q0 57 -37.5 92t-103.5 44v45l231 200v11h-371v190h639v-51l-389 -340v-8q104 -18 159.5 -76.5t55.5 -144.5q0 -122 -93.5 -200.5t-229.5 -78.5z" />
    <glyph glyph-name="uni2084" unicode="&#x2084;" horiz-adv-x="882" 
d="M465 -225h-180l53 205h-436v49l735 639h51l-133 -533h176v-155h-215zM131 143v-8h244l69 275h-8z" />
    <glyph glyph-name="uni2085" unicode="&#x2085;" horiz-adv-x="768" 
d="M238 -254q-108 0 -193.5 58t-136.5 167l39 31q89 -119 219 -119q93 0 154 48.5t61 125.5q0 66 -44 102t-118 36q-90 0 -180 -64h-10l211 514h460v-190h-471l-92 -226h8q79 82 191 82q95 0 164 -69.5t69 -178.5q0 -133 -93.5 -225t-237.5 -92z" />
    <glyph glyph-name="uni2086" unicode="&#x2086;" horiz-adv-x="841" 
d="M305 -256q-117 0 -197 70t-106 184q-29 125 10 261t131 237q162 176 389 176q147 0 250 -82l-24 -47q-84 49 -180 49q-140 0 -237.5 -99.5t-131.5 -271.5h8q90 105 215 105q100 0 170 -71.5t70 -174.5q0 -144 -106.5 -240t-260.5 -96zM295 -190q80 0 127 72t47 175
q0 74 -34.5 117t-92.5 43q-81 0 -149 -84l-15 -80q-18 -108 11.5 -175.5t105.5 -67.5z" />
    <glyph glyph-name="uni2087" unicode="&#x2087;" horiz-adv-x="751" 
d="M745 594l-546 -815h-297v8l669 655v7h-501v196h675v-51z" />
    <glyph glyph-name="uni2088" unicode="&#x2088;" horiz-adv-x="862" 
d="M283 -256q-155 0 -244.5 70t-89.5 180q0 105 84 172.5t221 85.5v10q-76 17 -117 61.5t-41 106.5q0 109 96 175.5t252 66.5q134 0 215.5 -62t81.5 -155q0 -88 -69 -147.5t-183 -78.5v-8q86 -15 138.5 -66.5t52.5 -127.5q0 -131 -112.5 -207t-284.5 -76zM387 270
q67 0 112.5 66t45.5 151q0 56 -25 87.5t-71 31.5q-65 0 -109.5 -66t-44.5 -151q0 -55 24.5 -87t67.5 -32zM279 -190q83 0 142.5 77t59.5 179q0 67 -35.5 105t-95.5 38q-85 0 -144 -75.5t-59 -176.5q0 -67 36 -107t96 -40z" />
    <glyph glyph-name="uni2089" unicode="&#x2089;" horiz-adv-x="841" 
d="M412 672q118 0 198.5 -70t106.5 -184q29 -123 -11.5 -260t-132.5 -238q-162 -176 -387 -176q-143 0 -252 84l27 45q84 -49 180 -49q139 0 237 100.5t132 272.5h-8q-91 -105 -215 -105q-100 0 -170 71t-70 173q0 143 106.5 239.5t258.5 96.5zM424 606q-81 0 -127.5 -72
t-46.5 -176q0 -73 34 -115t93 -42q78 0 149 82l13 79q18 108 -11.5 176t-103.5 68z" />
    <glyph glyph-name="uni20A6" unicode="&#x20a6;" horiz-adv-x="1312" 
d="M1434 1393v-43q-113 -10 -156 -51.5t-72 -157.5l-88 -357h189v-82h-209l-178 -716h-74l-228 716h-194l-113 -450q-29 -116 -5.5 -156.5t124.5 -52.5v-43h-432v43q112 12 155 51.5t72 157.5l113 450h-191v82h209l93 369l-84 231v9h274l192 -609h201l88 357
q29 112 6.5 154.5t-125.5 54.5v43h433zM506 1028l-62 -244h150l-78 244h-10zM938 449h10l64 253h-154z" />
    <glyph glyph-name="uni20A9" unicode="&#x20a9;" horiz-adv-x="2187" 
d="M1888 1350v43h445v-43q-59 -11 -101.5 -29t-77 -52t-57.5 -66t-59 -93l-135 -233h215v-84h-265l-98 -170h305v-84h-354l-322 -553h-69l-80 1018h-10l-586 -1018h-70l-55 553h-326v84h318l-19 170h-233v84h225l-24 251q-7 63 -13 94t-22 60t-43 43t-74 25v43h612v-43
q-82 -11 -129.5 -28t-69 -42.5t-25 -61.5t2.5 -85l72 -754h10l432 754l-24 260h254l75 -1010h11l422 725q29 49 43.5 79t21.5 61t-4 48.5t-39.5 32t-79.5 21.5z" />
    <glyph glyph-name="uni20AA" unicode="&#x20aa;" horiz-adv-x="1519" 
d="M276 0h-202l348 1393h264q118 0 210 -32t151 -95t76 -157.5t-13 -219.5l-149 -596h-183l152 610q54 215 -3.5 314.5t-248.5 99.5h-74zM1206 0h-262q-245 0 -365 130.5t-61 373.5l150 596h184l-152 -611q-54 -214 3 -313.5t249 -99.5h72l328 1317h202z" />
    <glyph glyph-name="Euro" unicode="&#x20ac;" horiz-adv-x="1359" 
d="M1047 1419q171 0 321 -80v-325h-43q-34 157 -110 238t-177 81q-156 0 -277.5 -129.5t-182.5 -326.5h630v-84h-651q-22 -104 -22 -195h604v-84h-600q15 -180 104 -273.5t234 -93.5q97 0 178 41t157 134l41 -37q-178 -312 -479 -312q-218 0 -355 149t-145 392h-155v84h157
q6 96 31 195h-121v84h148q88 240 277.5 391t435.5 151z" />
    <glyph glyph-name="uni20B4" unicode="&#x20b4;" horiz-adv-x="1263" 
d="M1163 891h97v-84h-1082v84h635q108 49 163.5 108.5t55.5 145.5q0 84 -58.5 136t-158.5 52q-259 0 -336 -319h-41v323q70 36 170 59t205 23q201 0 311.5 -93.5t110.5 -235.5q0 -111 -72 -199zM223 532h-112v84h1079v-84h-594q-121 -53 -181.5 -115t-60.5 -151
q0 -95 68 -151t172 -56q286 0 399 371h41v-330q-197 -127 -442 -127q-197 0 -321 95t-124 251q0 121 76 213z" />
    <glyph glyph-name="uni20B8" unicode="&#x20b8;" horiz-adv-x="1343" 
d="M1372 1311h-1114v82h1114v-82zM494 246l223 893h-80q-152 0 -231 -75t-105 -228h-43v376h1114v-376h-45q-25 155 -106 229t-234 74h-35l-221 -893q-28 -109 0 -148.5t139 -54.5v-43h-632v43q125 14 177 54t79 149z" />
    <glyph glyph-name="uni20B9" unicode="&#x20b9;" horiz-adv-x="1161" 
d="M1309 1393v-84h-527v-11q107 -29 173.5 -95t76.5 -163h189v-84h-191q-23 -154 -182 -250.5t-377 -101.5h-14v-10l426 -588v-6h-287l-438 629v55h186q180 0 295.5 72.5t138.5 199.5h-532v84h538q-9 135 -99.5 202t-240.5 67h-110v84h975z" />
    <glyph glyph-name="uni20BA" unicode="&#x20ba;" horiz-adv-x="1302" 
d="M985 582h268q-54 -292 -253.5 -437t-553.5 -145h-419v43q116 10 159.5 51.5t73.5 161.5l72 289l-197 -53v86l219 59l45 178l-196 -53v86l219 59l61 246q28 104 4.5 145.5t-122.5 51.5v43h585v-43q-108 -9 -154.5 -49t-74.5 -146l-45 -180l493 133v-84l-516 -139l-43 -180
l492 131v-84l-514 -140l-133 -534q231 0 364 132.5t166 371.5z" />
    <glyph glyph-name="uni20BD" unicode="&#x20bd;" horiz-adv-x="1273" 
d="M737 614h-172l-39 -157h377v-84h-397l-35 -137q-26 -105 2.5 -144.5t136.5 -48.5v-43h-604v43q109 9 156.5 49t73.5 144l34 137h-176v84h197l170 688q30 104 7 149.5t-122 55.5v43h481q225 0 361.5 -96.5t136.5 -258.5q0 -135 -77 -232t-208.5 -144.5t-302.5 -47.5z
M811 1317h-72l-155 -627h106q175 0 283 106.5t108 262.5q0 122 -75 190t-195 68z" />
    <glyph glyph-name="uni20BF" unicode="&#x20bf;" horiz-adv-x="1349" 
d="M1321 1092q0 -147 -119 -242.5t-309 -122.5v-10q151 -21 242.5 -99.5t91.5 -197.5q0 -122 -72.5 -215.5t-190.5 -143.5t-266 -59l-47 -186h-82l45 184h-133l-45 -184h-82l45 184h-417v43q111 9 157 50t74 151l225 909q16 63 15 105t-31.5 64t-99.5 28v43h407l47 186h82
l-47 -186h51q28 0 82 -4l47 190h82l-51 -201q144 -27 221.5 -103t77.5 -183zM580 774h129q163 0 260.5 85.5t97.5 227.5q0 109 -71 169.5t-195 60.5h-86zM965 446q0 123 -79 187.5t-227 64.5h-98l-155 -622h159q178 0 289 104t111 266z" />
    <glyph glyph-name="uni2116" unicode="&#x2116;" horiz-adv-x="2461" 
d="M-16 2v43q118 10 166.5 52t76.5 155l244 981l-100 182v10h344l514 -1003h10l186 754q28 110 3 152t-128 54v43h463v-43q-116 -11 -166 -52.5t-77 -155.5l-297 -1186h-80l-592 1145h-10l-219 -881q-28 -110 -2.5 -152.5t129.5 -54.5v-43h-465zM1919 248
q-162 0 -262.5 98.5t-100.5 263.5q0 136 66.5 255.5t185 192t260.5 72.5q163 0 263 -100.5t100 -265.5q0 -102 -39 -196t-106 -164.5t-163 -113t-204 -42.5zM1917 326q66 0 124.5 51t95.5 129t58 166.5t21 167.5q0 98 -39.5 154.5t-108.5 56.5q-65 0 -122.5 -51.5
t-94.5 -129.5t-58 -166.5t-21 -166.5q0 -99 38.5 -155t106.5 -56zM1487 0h698v90h-698v-90z" />
    <glyph glyph-name="uni2117" unicode="&#x2117;" horiz-adv-x="1755" 
d="M940 -29q-213 0 -384 97.5t-267 270.5t-96 388t96 388t267 270.5t384 97.5t384.5 -97.5t268.5 -270.5t97 -388t-97 -388t-268.5 -270.5t-384.5 -97.5zM940 55q189 0 339.5 86.5t235 240t84.5 345.5q0 193 -84.5 346.5t-235 239.5t-339.5 86t-339.5 -86t-235 -239.5
t-84.5 -346.5q0 -192 84.5 -345.5t235 -240t339.5 -86.5zM993 657h-88v-172q0 -55 24 -77t81 -27v-37h-369v37q49 5 68.5 26.5t19.5 77.5v486q0 56 -20 78.5t-68 27.5v37h352q140 0 230 -57.5t90 -167.5t-91 -171t-229 -61zM961 1055h-56v-338h56q79 0 125.5 44t46.5 128
t-46 125t-126 41z" />
    <glyph glyph-name="trademark" unicode="&#x2122;" horiz-adv-x="1802" 
d="M406 852l129 518h-31q-75 0 -117.5 -40t-62.5 -138h-35v231h641v-231h-37q-13 94 -56 136t-122 42h-8l-129 -518q-13 -55 0.5 -78.5t58.5 -28.5v-34h-354v34q53 5 81.5 28.5t41.5 78.5zM936 850l108 436q12 54 1 75.5t-52 27.5v34h240l100 -483h6l332 483h254v-34
q-47 -5 -73.5 -28.5t-39.5 -78.5l-108 -434q-12 -56 -0.5 -77t51.5 -26v-34h-332v34q47 5 73.5 27.5t37.5 75.5l98 389h-6l-366 -532h-39l-111 526h-8l-94 -383q-12 -56 -0.5 -77t49.5 -26v-34h-234v34q46 3 72 26.5t41 78.5z" />
    <glyph glyph-name="uni2126" unicode="&#x2126;" horiz-adv-x="1540" 
d="M580 0h-510v221h479l10 41q-174 47 -277.5 173.5t-103.5 293.5q0 142 58 274t157.5 230.5t242 157.5t302.5 59q256 0 421 -153t165 -388t-173 -417t-448 -236l-8 -35h428v-221h-571l77 303q125 50 219.5 159t141.5 241.5t47 269.5q0 180 -78.5 283.5t-218.5 103.5
q-88 0 -166 -43t-133.5 -113t-96 -158t-60 -179t-19.5 -175q0 -300 188 -393z" />
    <glyph glyph-name="uni2153" unicode="&#x2153;" horiz-adv-x="1970" 
d="M561 594h-188l125 502h-287v47q169 53 285.5 121t212.5 182h63zM1765 1423h-114l-1323 -1423h116zM1489 -27q-118 0 -197.5 60.5t-122.5 154.5l39 29q80 -113 207 -113q91 0 148 47t57 123q0 54 -36 87.5t-97 41.5v43l219 193v8h-352v182h608v-49l-373 -323v-8
q100 -19 153.5 -74t53.5 -137q0 -116 -89 -190.5t-218 -74.5z" />
    <glyph glyph-name="uni2154" unicode="&#x2154;" horiz-adv-x="1927" 
d="M731 594h-620v49l282 197q123 83 183.5 152.5t60.5 148.5q0 77 -49 121.5t-125 44.5q-110 0 -189 -86l-34 32q53 87 134 143t187 56q115 0 194 -72.5t79 -175.5q0 -47 -17 -90.5t-41.5 -76.5t-66.5 -68.5t-77.5 -59.5t-88.5 -57l-111 -66v-6h299v-186zM1745 1423h-117
l-1323 -1423h117zM1466 -27q-118 0 -196.5 60.5t-120.5 154.5l37 29q80 -113 207 -113q91 0 147.5 47t56.5 123q0 54 -36 87.5t-97 41.5v43l219 193v8h-352v182h608v-49l-370 -323v-8q99 -19 152 -74t53 -137q0 -116 -89.5 -190.5t-218.5 -74.5z" />
    <glyph glyph-name="uni2155" unicode="&#x2155;" horiz-adv-x="1970" 
d="M561 594h-188l125 502h-287v47q169 53 285.5 121t212.5 182h63zM1765 1423h-114l-1323 -1423h116zM1487 -27q-104 0 -186.5 55.5t-129.5 159.5l39 29q83 -113 207 -113q90 0 147.5 45.5t57.5 118.5q0 63 -42.5 98t-111.5 35q-85 0 -172 -61h-10l201 489h440v-182h-448
l-88 -213h8q76 76 180 76q92 0 157.5 -65.5t65.5 -168.5q0 -128 -89.5 -215.5t-225.5 -87.5z" />
    <glyph glyph-name="uni2156" unicode="&#x2156;" horiz-adv-x="1923" 
d="M731 594h-620v49l282 197q123 83 183.5 152.5t60.5 148.5q0 77 -49 121.5t-125 44.5q-110 0 -189 -86l-34 32q53 87 134 143t187 56q115 0 194 -72.5t79 -175.5q0 -47 -17 -90.5t-41.5 -76.5t-66.5 -68.5t-77.5 -59.5t-88.5 -57l-111 -66v-6h299v-186zM1743 1423h-115
l-1323 -1423h115zM1462 -27q-104 0 -185 55t-128 160l37 29q86 -113 209 -113q89 0 146.5 45.5t57.5 118.5q0 63 -42 98t-111 35q-85 0 -172 -61h-10l200 489h439v-182h-449l-86 -213h6q76 76 182 76q91 0 156.5 -65.5t65.5 -168.5q0 -127 -90 -215t-226 -88z" />
    <glyph glyph-name="uni2157" unicode="&#x2157;" horiz-adv-x="1910" 
d="M446 567q-116 0 -194.5 60.5t-122.5 154.5l39 29q80 -113 207 -113q91 0 148 48t57 124q0 54 -36 86.5t-98 40.5v45l220 191v8h-355v182h609v-47l-371 -323v-9q100 -19 153.5 -74t53.5 -136q0 -118 -90 -192.5t-220 -74.5zM1722 1423h-114l-1323 -1423h114zM1442 -27
q-104 0 -185.5 55t-128.5 160l37 29q83 -113 209 -113q89 0 147 45.5t58 118.5q0 63 -42.5 98t-113.5 35q-81 0 -172 -61h-8l201 489h438v-182h-448l-88 -213h8q76 76 182 76q91 0 156 -65.5t65 -168.5q0 -128 -89.5 -215.5t-225.5 -87.5z" />
    <glyph glyph-name="uni2158" unicode="&#x2158;" horiz-adv-x="2097" 
d="M682 594h-170l49 194h-414v48l699 610h49l-127 -508h168v-150h-205zM1890 1423h-114l-1323 -1423h114zM365 946v-8h233l66 260h-9zM1610 -27q-104 0 -185.5 55t-128.5 160l37 29q83 -113 209 -113q89 0 147 45.5t58 118.5q0 63 -42.5 98t-113.5 35q-81 0 -172 -61h-8
l201 489h438v-182h-448l-89 -213h9q76 76 182 76q91 0 156 -65.5t65 -168.5q0 -128 -89.5 -215.5t-225.5 -87.5z" />
    <glyph glyph-name="uni2159" unicode="&#x2159;" horiz-adv-x="2015" 
d="M561 594h-188l125 502h-287v47q169 53 285.5 121t212.5 182h63zM1765 1423h-114l-1323 -1423h116zM1528 -27q-112 0 -188.5 67t-102.5 175q-27 118 11 247t126 226q155 168 369 168q136 0 239 -78l-24 -43q-79 45 -172 45q-133 0 -225 -94.5t-125 -259.5h8
q85 100 203 100q96 0 162.5 -67.5t66.5 -165.5q0 -136 -101 -228t-247 -92zM1518 35q76 0 120.5 68.5t44.5 168.5q0 69 -32.5 109.5t-87.5 40.5q-79 0 -144 -80l-12 -76q-16 -103 12 -167t99 -64z" />
    <glyph glyph-name="uni215A" unicode="&#x215a;" horiz-adv-x="1959" 
d="M438 567q-103 0 -184.5 55t-130.5 160l39 29q83 -113 207 -113q90 0 147 45.5t57 118.5q0 63 -42 98t-111 35q-85 0 -172 -61h-10l200 489h441v-182h-449l-88 -213h8q76 76 180 76q92 0 158 -65.5t66 -168.5q0 -127 -90 -215t-226 -88zM1720 1423h-114l-1323 -1423h114z
M1483 -27q-112 0 -189.5 67t-101.5 175q-27 119 10.5 248t124.5 225q155 168 371 168q134 0 237 -78l-22 -43q-79 45 -172 45q-134 0 -226.5 -95t-125.5 -259h8q89 100 205 100q96 0 162.5 -67.5t66.5 -165.5q0 -135 -102 -227.5t-246 -92.5zM1470 35q77 0 121.5 68.5
t44.5 168.5q0 69 -32.5 109.5t-87.5 40.5q-81 0 -142 -80l-14 -76q-16 -103 11.5 -167t98.5 -64z" />
    <glyph glyph-name="oneeighth" unicode="&#x215b;" horiz-adv-x="2043" 
d="M561 594h-188l125 502h-287v47q169 53 285.5 121t212.5 182h63zM1765 1423h-114l-1323 -1423h116zM1522 -27q-148 0 -233 66.5t-85 171.5q0 99 80 163.5t211 82.5v8q-72 17 -112 59t-40 101q0 105 91.5 168t240.5 63q128 0 206.5 -59.5t78.5 -147.5q0 -84 -66 -139.5
t-174 -73.5v-10q80 -14 130.5 -63t50.5 -121q0 -125 -107.5 -197t-271.5 -72zM1622 475q63 0 106.5 63t43.5 142q0 53 -24.5 84t-68.5 31q-62 0 -103.5 -63.5t-41.5 -145.5q0 -51 23.5 -81t64.5 -30zM1518 35q80 0 136 74t56 170q0 64 -33 100.5t-90 36.5q-81 0 -136.5 -72
t-55.5 -168q0 -66 33 -103.5t90 -37.5z" />
    <glyph glyph-name="threeeighths" unicode="&#x215c;" horiz-adv-x="1986" 
d="M449 567q-116 0 -195 61t-123 154l39 29q80 -113 207 -113q91 0 148 48t57 124q0 54 -36.5 86.5t-99.5 40.5v45l222 191v8h-355v182h609v-47l-371 -323v-9q100 -19 153.5 -74t53.5 -136q0 -118 -89.5 -192.5t-219.5 -74.5zM1724 1423h-114l-1323 -1423h114zM1481 -27
q-148 0 -234 66.5t-86 171.5q0 99 80 163.5t211 82.5v8q-72 17 -110.5 59t-38.5 101q0 105 91 168t240 63q128 0 205.5 -59.5t77.5 -147.5q0 -84 -66 -139.5t-174 -73.5v-10q82 -14 132.5 -63t50.5 -121q0 -125 -107.5 -197t-271.5 -72zM1579 475q64 0 107 62.5t43 142.5
q0 53 -24.5 84t-66.5 31q-62 0 -104.5 -64t-42.5 -145q0 -51 23.5 -81t64.5 -30zM1477 35q78 0 135 74.5t57 169.5q0 64 -33 100.5t-90 36.5q-82 0 -138 -72t-56 -168q0 -66 33 -103.5t92 -37.5z" />
    <glyph glyph-name="fiveeighths" unicode="&#x215d;" horiz-adv-x="1988" 
d="M438 567q-104 0 -185 55t-128 160l37 29q86 -113 209 -113q89 0 146.5 45.5t57.5 118.5q0 63 -42 98t-111 35q-85 0 -172 -61h-10l200 489h439v-182h-449l-86 -213h8q76 76 180 76q91 0 157.5 -65.5t66.5 -168.5q0 -127 -90.5 -215t-227.5 -88zM1722 1423h-116
l-1323 -1423h116zM1477 -27q-148 0 -233 66.5t-85 171.5q0 99 80 163.5t211 82.5v8q-72 17 -111 59t-39 101q0 105 91.5 168t240.5 63q126 0 204.5 -59.5t78.5 -147.5q0 -84 -66 -139.5t-174 -73.5v-10q80 -14 130 -63t50 -121q0 -125 -107 -197t-271 -72zM1577 475
q64 0 106.5 62.5t42.5 142.5q0 53 -24 84t-66 31q-64 0 -105.5 -63.5t-41.5 -145.5q0 -51 23.5 -81t64.5 -30zM1473 35q80 0 137 74t57 170q0 64 -34 100.5t-91 36.5q-80 0 -136 -72t-56 -168q0 -66 33 -103.5t90 -37.5z" />
    <glyph glyph-name="seveneighths" unicode="&#x215e;" horiz-adv-x="2002" 
d="M932 1374l-522 -776h-283v8l639 623v8h-479v186h645v-49zM1739 1423h-115l-1323 -1423h115zM1495 -27q-147 0 -232 66.5t-85 171.5q0 99 79 163.5t211 82.5v8q-73 17 -112 59t-39 101q0 105 91.5 168t240.5 63q128 0 206 -59.5t78 -147.5q0 -84 -65.5 -139.5
t-173.5 -73.5v-10q80 -14 130 -63t50 -121q0 -125 -107.5 -197t-271.5 -72zM1595 475q62 0 105 62.5t43 142.5q0 53 -24 84t-66 31q-62 0 -104 -64t-42 -145q0 -51 23.5 -81t64.5 -30zM1491 35q80 0 136 74t56 170q0 64 -32.5 100.5t-89.5 36.5q-82 0 -138.5 -72t-56.5 -168
q0 -66 34 -103.5t91 -37.5z" />
    <glyph glyph-name="uni215F" unicode="&#x215f;" horiz-adv-x="1417" 
d="M641 594h-188l125 502h-287v47q168 53 284.5 121t212.5 182h64zM1845 1423h-114l-1323 -1423h114z" />
    <glyph glyph-name="arrowleft" unicode="&#x2190;" horiz-adv-x="1404" 
d="M453 537h862v-91h-862v-8l307 -368l-41 -45l-637 462v9l639 462l39 -43l-307 -368v-10z" />
    <glyph glyph-name="arrowup" unicode="&#x2191;" horiz-adv-x="1046" 
d="M651 0h-94v1079h-10l-365 -305l-45 39l465 637h6l463 -637l-43 -39l-366 305h-11v-1079z" />
    <glyph glyph-name="arrowright" unicode="&#x2192;" horiz-adv-x="1402" 
d="M94 446v91h862v10l-307 368l39 43l639 -462v-9l-637 -462l-41 45l307 368v8h-862z" />
    <glyph glyph-name="arrowdown" unicode="&#x2193;" horiz-adv-x="1050" 
d="M522 344v1079h94v-1079h11l366 305l43 -39l-463 -637h-8l-463 637l45 39l365 -305h10z" />
    <glyph glyph-name="uni2196" unicode="&#x2196;" horiz-adv-x="1349" 
d="M485 754l715 -715l-61 -66l-719 715l-6 -6l-45 -477l-58 -2l-125 778l7 6l778 -125l-4 -59l-475 -43z" />
    <glyph glyph-name="uni2197" unicode="&#x2197;" horiz-adv-x="1005" 
d="M29 -27l-62 66l715 715l-6 6l-475 43l-4 59l776 125l8 -6l-125 -778l-57 2l-45 477l-9 6z" />
    <glyph glyph-name="uni2198" unicode="&#x2198;" horiz-adv-x="1351" 
d="M868 213l-714 715l61 65l717 -714l8 6l45 477l57 2l125 -778l-8 -6l-776 124l4 58l473 45z" />
    <glyph glyph-name="uni2199" unicode="&#x2199;" horiz-adv-x="1015" 
d="M991 993l64 -65l-717 -715l8 -6l475 -45l2 -58l-776 -124l-8 6l125 778l57 -2l45 -477l8 -6z" />
    <glyph glyph-name="uni21A4" unicode="&#x21a4;" horiz-adv-x="1521" 
d="M1231 537v378h92v-847h-92v378h-770v-8l307 -368l-41 -45l-637 462v9l639 462l39 -43l-307 -368v-10h770z" />
    <glyph glyph-name="uni21A5" unicode="&#x21a5;" horiz-adv-x="1179" 
d="M1028 774l-366 305h-9v-989h361v-90h-817v90h362v989h-10l-367 -305l-43 39l463 637h8l463 -637z" />
    <glyph glyph-name="uni21A6" unicode="&#x21a6;" horiz-adv-x="1521" 
d="M762 915l39 43l639 -462v-9l-639 -462l-39 45l305 368v11h-768v-381h-94v847h94v-378h768v10z" />
    <glyph glyph-name="uni21A7" unicode="&#x21a7;" horiz-adv-x="1179" 
d="M752 344l366 305l43 -39l-463 -637h-6l-463 637l43 39l367 -305h8v989h-360v90h817v-90h-363v-989h11z" />
    <glyph glyph-name="uni21B0" unicode="&#x21b0;" horiz-adv-x="1640" 
d="M578 1061h862v-1061h-94v971h-768v-10l305 -369l-39 -43l-637 463v8l637 463l39 -43l-305 -371v-8z" />
    <glyph glyph-name="uni21B1" unicode="&#x21b1;" horiz-adv-x="1431" 
d="M811 1440l39 43l639 -463v-8l-637 -463l-41 43l307 369v10h-770v-971h-92v1061h862v8z" />
    <glyph glyph-name="uni21B2" unicode="&#x21b2;" horiz-adv-x="1435" 
d="M1208 483v971h95v-1061h-863v-8l305 -371l-38 -43l-637 463v8l637 463l38 -43l-305 -368v-11h768z" />
    <glyph glyph-name="uni21B3" unicode="&#x21b3;" horiz-adv-x="1652" 
d="M893 862l39 43l639 -463v-8l-639 -463l-39 43l305 371v8h-860v1061h92v-971h768v11z" />
    <glyph glyph-name="partialdiff" unicode="&#x2202;" horiz-adv-x="1167" 
d="M520 -27q-202 0 -332.5 130.5t-130.5 326.5q0 125 56 229t159 166t232 62q120 0 209 -58.5t143 -152.5h8q13 160 -12 286.5t-87.5 220.5t-172 144.5t-260.5 50.5v72q369 13 578.5 -179.5t209.5 -539.5q0 -148 -42 -284.5t-117.5 -242t-190 -168.5t-250.5 -63zM522 53
q132 0 216.5 147t105.5 392q-32 65 -94 104t-142 39q-139 0 -220 -109t-81 -266q0 -136 56.5 -221.5t158.5 -85.5z" />
    <glyph glyph-name="emptyset" unicode="&#x2205;" horiz-adv-x="1212" 
d="M1073 995l-117 -147q67 -69 105.5 -163.5t38.5 -201.5q0 -216 -142.5 -364t-349.5 -148q-158 0 -284 90l-113 -141l-68 51l117 146q-69 70 -107 164.5t-38 201.5q0 142 65.5 259.5t178.5 184t249 66.5q157 0 283 -90l117 146zM209 483q0 -175 108 -293l517 644
q-97 69 -226 69q-169 0 -284 -120.5t-115 -299.5zM608 61q169 0 284.5 122t115.5 300q0 174 -109 293l-518 -643q106 -72 227 -72z" />
    <glyph glyph-name="uni2206" unicode="&#x2206;" horiz-adv-x="1257" 
d="M1098 0h-1151v55l876 1383h74l201 -1383v-55zM78 94v-10h749v8l-137 955h-10z" />
    <glyph glyph-name="product" unicode="&#x220f;" horiz-adv-x="1591" 
d="M1735 1423v-43q-118 -12 -165.5 -54.5t-78.5 -160.5l-227 -913q-28 -112 -2 -155.5t131 -53.5v-43h-615v43q97 11 141.5 54t73.5 155l271 1087h-506l-273 -1083q-27 -117 -5.5 -159.5t108.5 -53.5v-43h-615v43q118 12 164.5 52.5t75.5 156.5l227 913q31 115 7 159
t-128 56v43h1416z" />
    <glyph glyph-name="summation" unicode="&#x2211;" horiz-adv-x="1499" 
d="M512 227v-8h811v-219h-1044v57l442 594l-451 715v57h1028v-376h-43q-22 158 -97 227t-232 69h-334v-6l326 -514v-51z" />
    <glyph glyph-name="minus" unicode="&#x2212;" horiz-adv-x="1185" 
d="M1067 436h-946v92h946v-92z" />
    <glyph glyph-name="uni2215" unicode="&#x2215;" horiz-adv-x="980" 
d="M1274 1423h-117l-1323 -1423h117z" />
    <glyph glyph-name="radical" unicode="&#x221a;" horiz-adv-x="1011" 
d="M823 1423h434v-90h-366l-434 -1333h-125l-273 799h101l231 -680h8z" />
    <glyph glyph-name="infinity" unicode="&#x221e;" horiz-adv-x="1488" 
d="M412 231q-129 0 -213 87t-84 223t84.5 222.5t212.5 86.5q98 0 177.5 -56t155.5 -171h9q76 114 154 170.5t175 56.5q128 0 212.5 -86.5t84.5 -222.5t-84.5 -223t-212.5 -87q-98 0 -177 56.5t-154 171.5h-9q-75 -114 -154.5 -171t-176.5 -57zM416 319q82 0 146.5 52
t139.5 170q-74 118 -139 169.5t-147 51.5q-90 0 -148.5 -61t-58.5 -160t58.5 -160.5t148.5 -61.5zM1081 319q89 0 148 62t59 160t-59 159.5t-148 61.5q-83 0 -148 -52t-138 -169q73 -118 137.5 -170t148.5 -52z" />
    <glyph glyph-name="integral" unicode="&#x222b;" horiz-adv-x="567" 
d="M55 -309q-76 0 -135 24v86q64 -22 123 -22q116 0 176 69t60 205v1192q0 171 84 265t231 94q82 0 137 -27v-84q-58 20 -123 20q-115 0 -175 -68.5t-60 -203.5v-1194q0 -172 -83.5 -264t-234.5 -92z" />
    <glyph glyph-name="approxequal" unicode="&#x2248;" horiz-adv-x="1153" 
d="M219 547h-94q-2 114 61 186t166 72q94 0 203 -64l76 -43q106 -59 168 -59q66 0 102.5 44.5t36.5 121.5h96q0 -115 -64 -186.5t-167 -71.5q-91 0 -209 67l-76 41q-95 56 -160 56q-66 0 -102.5 -43.5t-36.5 -120.5zM219 166h-94q-1 115 61.5 186.5t165.5 71.5q91 0 203 -62
l76 -43q101 -59 168 -59q66 0 102.5 43.5t36.5 120.5h96q0 -114 -64 -185t-167 -71q-89 0 -209 65l-76 43q-101 56 -160 56q-66 0 -102.5 -44t-36.5 -122z" />
    <glyph glyph-name="notequal" unicode="&#x2260;" horiz-adv-x="1286" 
d="M1116 705v-91h-391l-92 -260h483v-92h-516l-92 -262h-92l92 262h-338v92h371l92 260h-463v91h494l92 260h92l-92 -260h360z" />
    <glyph glyph-name="lessequal" unicode="&#x2264;" horiz-adv-x="1241" 
d="M1069 283v-99l-948 353v94l948 354v-100l-817 -299v-6zM1069 82v-92h-948v92h948z" />
    <glyph glyph-name="greaterequal" unicode="&#x2265;" horiz-adv-x="1304" 
d="M1126 537l-948 -353v99l817 297v6l-817 299v100l948 -354v-94zM1124 -10h-946v92h946v-92z" />
    <glyph glyph-name="angleleft" unicode="&#x2329;" horiz-adv-x="665" 
d="M414 -315l-64 -9l-280 1004l757 940l60 -25l-537 -964z" />
    <glyph glyph-name="angleright" unicode="&#x232a;" horiz-adv-x="665" 
d="M336 1610l63 8l281 -1004l-758 -940l-59 25l538 965z" />
    <glyph glyph-name="uni2460" unicode="&#x2460;" horiz-adv-x="1665" 
d="M793 -27q-189 0 -338.5 84.5t-231.5 233t-82 334.5q0 180 65.5 339t178.5 273t271.5 180t338.5 66q191 0 340.5 -84t231.5 -232.5t82 -335.5q0 -180 -65.5 -339t-178.5 -273t-272.5 -180t-339.5 -66zM793 55q163 0 306.5 60t245 163.5t160 247t58.5 305.5q0 248 -159 408
t-409 160q-216 0 -392.5 -101.5t-276 -278.5t-99.5 -392q0 -250 159 -411t407 -161zM930 313h-189l125 502h-284v47q167 53 283 121t212 182h64z" />
    <glyph glyph-name="uni2461" unicode="&#x2461;" horiz-adv-x="1724" 
d="M821 -27q-189 0 -338 84.5t-231 233t-82 334.5q0 180 65.5 339t178.5 273t272.5 180t339.5 66q190 0 339 -84t231.5 -232.5t82.5 -335.5q0 -240 -111 -436.5t-308 -309t-439 -112.5zM821 55q163 0 306.5 60t245 163.5t160 247t58.5 305.5q0 248 -158.5 408t-408.5 160
q-216 0 -392.5 -101.5t-276 -278.5t-99.5 -392q0 -250 158.5 -411t406.5 -161zM1157 326h-622v47l284 196q123 83 183.5 153t60.5 150q0 76 -49 120t-125 44q-110 0 -189 -86l-34 35q53 86 134 141.5t187 55.5q115 0 194 -72.5t79 -175.5q0 -47 -16.5 -90.5t-42 -76.5
t-67 -68t-78 -59.5t-89.5 -55.5l-109 -66v-8h299v-184z" />
    <glyph glyph-name="uni2462" unicode="&#x2462;" horiz-adv-x="1724" 
d="M821 -27q-189 0 -338 84.5t-231 233t-82 334.5q0 180 65.5 339t178.5 273t272.5 180t339.5 66q190 0 339 -84t231.5 -232.5t82.5 -335.5q0 -240 -111 -436.5t-308 -309t-439 -112.5zM821 55q163 0 306.5 60t245 163.5t160 247t58.5 305.5q0 248 -158.5 408t-408.5 160
q-216 0 -392.5 -101.5t-276 -278.5t-99.5 -392q0 -250 158.5 -411t406.5 -161zM848 297q-117 0 -196.5 61t-121.5 154l37 29q84 -113 209 -113q91 0 147 47.5t56 124.5q0 54 -35 87t-98 42v43l219 191v8h-352v184h608v-49l-371 -324v-8q100 -18 153.5 -74t53.5 -137
q0 -116 -89.5 -191t-219.5 -75z" />
    <glyph glyph-name="uni2463" unicode="&#x2463;" horiz-adv-x="1724" 
d="M821 -27q-189 0 -338 84.5t-231 233t-82 334.5q0 180 65.5 339t178.5 273t272.5 180t339.5 66q191 0 340 -84t231 -232.5t82 -335.5q0 -240 -111 -436.5t-308 -309t-439 -112.5zM821 55q163 0 306.5 60t245 163.5t160 247t58.5 305.5q0 248 -158.5 408t-406.5 160
q-217 0 -394 -101.5t-276.5 -278.5t-99.5 -392q0 -250 158.5 -411t406.5 -161zM993 326h-172l49 194h-413v45l700 611h49l-127 -508h166v-148h-203zM676 676v-8h231l66 262h-8z" />
    <glyph glyph-name="uni2464" unicode="&#x2464;" horiz-adv-x="1724" 
d="M821 -27q-189 0 -338 84.5t-231 233t-82 334.5q0 180 65.5 339t178.5 273t272.5 180t339.5 66q190 0 339 -84t231.5 -232.5t82.5 -335.5q0 -240 -111 -436.5t-308 -309t-439 -112.5zM821 55q163 0 306.5 60t245 163.5t160 247t58.5 305.5q0 248 -158.5 408t-408.5 160
q-216 0 -392.5 -101.5t-276 -278.5t-99.5 -392q0 -250 158.5 -411t406.5 -161zM827 287q-105 0 -186.5 55.5t-128.5 159.5l37 28q43 -56 92.5 -84t116.5 -28q89 0 147 46t58 120q0 62 -42.5 96.5t-111.5 34.5q-84 0 -172 -62h-10l200 492h441v-184h-451l-86 -213h8
q77 77 181 77q91 0 157 -65.5t66 -169.5q0 -126 -90.5 -214.5t-225.5 -88.5z" />
    <glyph glyph-name="uni2465" unicode="&#x2465;" horiz-adv-x="1724" 
d="M821 -27q-189 0 -338 84.5t-231 233t-82 334.5q0 180 65.5 339t178.5 273t272.5 180t339.5 66q190 0 339 -84t231.5 -232.5t82.5 -335.5q0 -240 -111 -436.5t-308 -309t-439 -112.5zM821 55q163 0 306.5 60t245 163.5t160 247t58.5 305.5q0 248 -158.5 408t-408.5 160
q-216 0 -392.5 -101.5t-276 -278.5t-99.5 -392q0 -250 158.5 -411t406.5 -161zM846 287q-112 0 -188.5 66.5t-102.5 174.5q-27 118 11.5 248.5t125.5 227.5q73 79 168 123t201 44q139 0 239 -79l-24 -43q-79 45 -172 45q-133 0 -225 -94.5t-125 -258.5h8q85 99 203 99
q96 0 162.5 -67t66.5 -165q0 -137 -101 -229t-247 -92zM836 350q75 0 120 69t45 167q0 69 -32.5 110t-87.5 41q-79 0 -144 -80l-12 -75q-16 -103 12 -167.5t99 -64.5z" />
    <glyph glyph-name="uni2466" unicode="&#x2466;" horiz-adv-x="1724" 
d="M821 -27q-189 0 -338 84.5t-231 233t-82 334.5q0 180 65.5 339t178.5 273t272.5 180t339.5 66q190 0 339 -84t231.5 -232.5t82.5 -335.5q0 -240 -111 -436.5t-308 -309t-439 -112.5zM821 55q163 0 306.5 60t245 163.5t160 247t58.5 305.5q0 248 -158.5 408t-408.5 160
q-216 0 -392.5 -101.5t-276 -278.5t-99.5 -392q0 -250 158.5 -411t406.5 -161zM1337 1094l-522 -777h-283v7l639 624v6h-479v189h645v-49z" />
    <glyph glyph-name="uni2467" unicode="&#x2467;" horiz-adv-x="1724" 
d="M821 -27q-189 0 -338 84.5t-231 233t-82 334.5q0 180 65.5 339t178.5 273t272.5 180t339.5 66q190 0 339 -84t231.5 -232.5t82.5 -335.5q0 -240 -111 -436.5t-308 -309t-439 -112.5zM821 55q163 0 306.5 60t245 163.5t160 247t58.5 305.5q0 248 -158.5 408t-408.5 160
q-216 0 -392.5 -101.5t-276 -278.5t-99.5 -392q0 -250 158.5 -411t406.5 -161zM844 287q-147 0 -232.5 67t-85.5 172q0 99 80 163.5t211 82.5v8q-72 17 -110.5 59t-38.5 101q0 104 91.5 167.5t239.5 63.5q127 0 205 -59t78 -147q0 -84 -66 -140t-174 -75v-9
q81 -16 131 -64.5t50 -119.5q0 -125 -107.5 -197.5t-271.5 -72.5zM944 788q64 0 107 63t43 144q0 53 -23.5 83t-66.5 30q-64 0 -106 -63.5t-42 -143.5q0 -53 23.5 -83t64.5 -30zM840 350q80 0 137 73.5t57 170.5q0 63 -34 100t-91 37q-80 0 -136 -71.5t-56 -167.5
q0 -66 33 -104t90 -38z" />
    <glyph glyph-name="uni2468" unicode="&#x2468;" horiz-adv-x="1724" 
d="M821 -27q-189 0 -338 84.5t-231 233t-82 334.5q0 180 65.5 339t178.5 273t272.5 180t339.5 66q190 0 339 -84t231.5 -232.5t82.5 -335.5q0 -240 -111 -436.5t-308 -309t-439 -112.5zM821 55q163 0 306.5 60t245 163.5t160 247t58.5 305.5q0 248 -158.5 408t-408.5 160
q-216 0 -392.5 -101.5t-276 -278.5t-99.5 -392q0 -250 158.5 -411t406.5 -161zM999 1169q112 0 189.5 -67t101.5 -174q27 -119 -10.5 -248.5t-124.5 -224.5q-157 -170 -371 -170q-134 0 -239 80l24 43q81 -46 172 -46q134 0 227 95t126 258h-9q-88 -99 -204 -99
q-96 0 -163 68t-67 166q0 136 101 227.5t247 91.5zM1012 1108q-76 0 -121 -69.5t-45 -168.5q0 -69 33 -110t88 -41q77 0 141 80l12 75q18 102 -9.5 168t-98.5 66z" />
    <glyph glyph-name="uni24EA" unicode="&#x24ea;" horiz-adv-x="1724" 
d="M821 -27q-189 0 -338 84.5t-231 233t-82 334.5q0 180 65.5 339t179 273t272.5 180t339 66q191 0 340 -84t231 -232.5t82 -335.5q0 -240 -111 -436.5t-308 -309t-439 -112.5zM821 55q163 0 306.5 60t245 163.5t160 247t58.5 305.5q0 248 -158.5 408t-406.5 160
q-162 0 -305.5 -59.5t-245 -162.5t-160.5 -246t-59 -304q0 -250 158.5 -411t406.5 -161zM854 287q-157 0 -252.5 98t-95.5 258q0 220 139 373t346 153q158 0 255 -98.5t97 -255.5q0 -145 -62.5 -266t-175 -191.5t-251.5 -70.5zM852 365q64 0 118 49.5t87.5 126.5t52 164
t18.5 167q0 106 -35 162t-100 56q-63 0 -116.5 -49.5t-86 -126.5t-51 -164t-18.5 -168q0 -106 34.5 -161.5t96.5 -55.5z" />
    <glyph glyph-name="uni24FF" unicode="&#x24ff;" horiz-adv-x="1726" 
d="M801 -29q149 0 285.5 43t245 123t188.5 187.5t123 241.5t43 280q0 184 -82 329.5t-227.5 226.5t-327.5 81q-187 0 -351 -67.5t-280.5 -184t-184 -278t-67.5 -343.5q0 -279 179 -459t456 -180zM854 285q-156 0 -252 99t-96 259q0 220 139 373t346 153q158 0 255 -98.5
t97 -255.5q0 -145 -62.5 -266.5t-175 -192.5t-251.5 -71zM854 365q83 0 148 85t95.5 198.5t30.5 221.5t-35 164t-100 56q-63 0 -116.5 -49.5t-86 -126.5t-51 -164t-18.5 -168q0 -106 34.5 -161.5t98.5 -55.5z" />
    <glyph glyph-name="lozenge" unicode="&#x25ca;" horiz-adv-x="1212" 
d="M485 -14h-57l-285 731l693 723h57l289 -740zM598 231h10l350 363l-235 596h-8l-348 -365z" />
    <glyph glyph-name="openbullet" unicode="&#x25e6;" horiz-adv-x="950" 
d="M432 233q-118 0 -193 79t-75 196q0 152 115 264.5t270 112.5q121 0 198.5 -79t77.5 -196q0 -152 -118 -264.5t-275 -112.5zM440 313q118 0 209.5 88.5t91.5 204.5q0 89 -54.5 144t-145.5 55q-116 0 -205.5 -88.5t-89.5 -206.5q0 -87 53.5 -142t140.5 -55z" />
    <glyph glyph-name="uni2776" unicode="&#x2776;" horiz-adv-x="1669" 
d="M772 -29q187 0 351 67.5t280.5 184t184 278.5t67.5 345q0 279 -179 458t-456 179q-187 0 -351 -67.5t-280.5 -184t-184 -278t-67.5 -343.5q0 -279 179 -459t456 -180zM930 311h-189l125 502h-284v47q167 53 283 121t212 182h64z" />
    <glyph glyph-name="uni2777" unicode="&#x2777;" horiz-adv-x="1669" 
d="M772 -29q186 0 351 68t282 184.5t184.5 278.5t67.5 344q0 184 -82 329.5t-227.5 226.5t-327.5 81q-187 0 -351 -67.5t-280.5 -184t-184 -278t-67.5 -343.5q0 -279 179 -459t456 -180zM1128 324h-622v49l285 194q122 86 182.5 155t60.5 148q0 77 -49.5 121.5t-126.5 44.5
q-107 0 -186 -86l-37 33q125 197 323 197q114 0 193.5 -72t79.5 -176q0 -46 -16.5 -89.5t-42 -77t-66.5 -68t-78.5 -59.5t-89.5 -56l-109 -66v-8h299v-184z" />
    <glyph glyph-name="uni2778" unicode="&#x2778;" horiz-adv-x="1667" 
d="M772 -25q149 0 285.5 43t245 123t188.5 187.5t123 241.5t43 280q0 184 -82 329.5t-227.5 226.5t-327.5 81q-187 0 -351 -67.5t-280.5 -184t-184 -278t-67.5 -343.5q0 -279 179 -459t456 -180zM819 301q-117 0 -196.5 60.5t-120.5 154.5l37 29q84 -113 209 -113
q91 0 147.5 47t56.5 123q0 54 -36 87.5t-99 41.5v43l219 193v8h-352v182h608v-49l-370 -324v-8q100 -19 153 -73.5t53 -137.5q0 -116 -89.5 -190t-219.5 -74z" />
    <glyph glyph-name="uni2779" unicode="&#x2779;" horiz-adv-x="1667" 
d="M772 -25q149 0 285.5 43t245 123t188.5 187.5t123 241.5t43 280q0 184 -82 329.5t-227.5 226.5t-327.5 81q-187 0 -351 -67.5t-280.5 -184t-184 -278t-67.5 -343.5q0 -279 179 -459t456 -180zM965 328h-172l49 194h-414v47l700 611h48l-125 -508h166v-150h-203zM647 680
v-8h232l65 260h-8z" />
    <glyph glyph-name="uni277A" unicode="&#x277a;" horiz-adv-x="1667" 
d="M772 -25q149 0 285.5 43t245 123t188.5 187.5t123 241.5t43 280q0 184 -82 329.5t-227.5 226.5t-327.5 81q-187 0 -351 -67.5t-280.5 -184t-184 -278t-67.5 -343.5q0 -279 179 -459t456 -180zM799 291q-105 0 -187 55t-129 160l37 29q86 -113 209 -113q89 0 147 45.5
t58 118.5q0 63 -42.5 98t-111.5 35q-84 0 -172 -62h-10l201 490h440v-182h-451l-86 -213h9q75 75 180 75q91 0 157 -65t66 -168q0 -127 -90 -215t-225 -88z" />
    <glyph glyph-name="uni277B" unicode="&#x277b;" horiz-adv-x="1667" 
d="M772 -25q149 0 285.5 43t245 123t188.5 187.5t123 241.5t43 280q0 184 -82 329.5t-227.5 226.5t-327.5 81q-187 0 -351 -67.5t-280.5 -184t-184 -278t-67.5 -343.5q0 -279 179 -459t456 -180zM817 291q-112 0 -188.5 66.5t-102.5 174.5q-27 118 11.5 247.5t126.5 226.5
q73 80 167.5 124t200.5 44q137 0 240 -78l-25 -43q-79 45 -172 45q-133 0 -225 -95t-125 -260h8q86 101 203 101q95 0 162 -68t67 -166q0 -136 -101 -227.5t-247 -91.5zM807 352q75 0 120.5 69.5t45.5 168.5q0 69 -32.5 109t-88.5 40q-78 0 -143 -80l-13 -75
q-16 -103 12 -167.5t99 -64.5z" />
    <glyph glyph-name="uni277C" unicode="&#x277c;" horiz-adv-x="1669" 
d="M772 -29q187 0 351 67.5t280.5 184t184 278.5t67.5 345q0 279 -179 458t-456 179q-187 0 -351 -67.5t-280.5 -184t-184 -278t-67.5 -343.5q0 -279 179 -459t456 -180zM1307 1092l-521 -777h-282v9l639 622v8h-481v187h645v-49z" />
    <glyph glyph-name="uni277D" unicode="&#x277d;" horiz-adv-x="1667" 
d="M772 -25q149 0 285.5 43t245 123t188.5 187.5t123 241.5t43 280q0 184 -82 329.5t-227.5 226.5t-327.5 81q-187 0 -351 -67.5t-280.5 -184t-184 -278t-67.5 -343.5q0 -279 179 -459t456 -180zM815 291q-148 0 -232.5 66t-84.5 171q0 99 79 163.5t211 82.5v8
q-72 17 -111.5 59t-39.5 101q0 105 91.5 168.5t240.5 63.5q128 0 206 -59.5t78 -147.5q0 -84 -65.5 -139.5t-173.5 -73.5v-11q80 -14 130 -63t50 -121q0 -125 -107.5 -196.5t-271.5 -71.5zM915 793q63 0 106.5 62.5t43.5 141.5q0 53 -24.5 84t-67.5 31q-62 0 -104 -64
t-42 -145q0 -51 23.5 -80.5t64.5 -29.5zM811 352q80 0 136.5 74t56.5 170q0 64 -33 100.5t-90 36.5q-82 0 -137.5 -71.5t-55.5 -167.5q0 -66 33 -104t90 -38z" />
    <glyph glyph-name="uni277E" unicode="&#x277e;" horiz-adv-x="1667" 
d="M772 -25q149 0 285.5 43t245 123t188.5 187.5t123 241.5t43 280q0 184 -82 329.5t-227.5 226.5t-327.5 81q-187 0 -351 -67.5t-280.5 -184t-184 -278t-67.5 -343.5q0 -279 179 -459t456 -180zM973 1171q112 0 188.5 -66.5t100.5 -174.5q27 -118 -11 -247t-125 -226
q-155 -168 -370 -168q-135 0 -238 78l23 43q79 -45 172 -45q134 0 226.5 95t125.5 259h-8q-86 -101 -205 -101q-95 0 -162 68t-67 166q0 135 102 227t248 92zM983 1110q-77 0 -121.5 -69t-44.5 -169q0 -69 32.5 -109t88.5 -40q80 0 141 80l15 76q16 103 -12 167t-99 64z" />
    <glyph glyph-name="uni300A" unicode="&#x300a;" horiz-adv-x="1112" 
d="M412 -315l-64 -9l-276 1004l753 940l60 -27l-563 -962zM860 -315l-63 -9l-275 992l758 952l59 -25l-567 -977z" />
    <glyph glyph-name="uni300B" unicode="&#x300b;" horiz-adv-x="1112" 
d="M336 1610l63 8l275 -991l-758 -953l-59 25l565 977zM784 1610l62 8l278 -1004l-753 -940l-62 27l565 963z" />
    <glyph glyph-name="uni300C" unicode="&#x300c;" horiz-adv-x="722" 
d="M999 1593v-75h-374l-211 -848h-238l230 923h593z" />
    <glyph glyph-name="uni300D" unicode="&#x300d;" horiz-adv-x="491" 
d="M-418 -299v76h373l211 848h240l-232 -924h-592z" />
    <glyph glyph-name="uni300E" unicode="&#x300e;" horiz-adv-x="886" 
d="M629 670h-453l230 923h724l-53 -219h-274zM561 1534l-201 -805h113l174 703h275l24 102h-385z" />
    <glyph glyph-name="uni300F" unicode="&#x300f;" horiz-adv-x="745" 
d="M205 608h450l-229 -923h-725l53 219h275zM270 -256l201 805h-111l-176 -703h-272l-27 -102h385z" />
    <glyph glyph-name="uni3010" unicode="&#x3010;" horiz-adv-x="684" 
d="M510 -299h-510l471 1892h510v-10q-327 -238 -509.5 -558.5t-182.5 -676.5q0 -375 221 -637v-10z" />
    <glyph glyph-name="uni3011" unicode="&#x3011;" horiz-adv-x="681" 
d="M258 1593h510l-471 -1892h-510v10q328 238 510 558t182 677q0 375 -221 637v10z" />
    <glyph glyph-name="uni3014" unicode="&#x3014;" horiz-adv-x="641" 
d="M430 -270l-53 -54l-377 347l326 1302l532 299l39 -65l-322 -181l-360 -1448z" />
    <glyph glyph-name="uni3015" unicode="&#x3015;" horiz-adv-x="643" 
d="M297 1565l53 53l375 -346l-326 -1303l-530 -299l-39 66l320 180l362 1448z" />
    <glyph glyph-name="uniE000" unicode="&#xe000;" horiz-adv-x="1640" 
d="M1821 1409l-1043 -1436l-639 863l78 57l561 -760l967 1331z" />
    <glyph glyph-name="uniE001" unicode="&#xe001;" horiz-adv-x="2142" 
d="M1915 1300h-1565v93h1565v-93zM1915 680h-1565v92h1565v-92zM1915 61h-1565v93h1565v-93z" />
    <glyph glyph-name="uniE002" unicode="&#xe002;" horiz-adv-x="2103" 
d="M1839 0h-1454v1454h1454v-1454zM481 1364v-1274h1262v1274h-1262z" />
    <glyph glyph-name="uniE003" unicode="&#xe003;" horiz-adv-x="2041" 
d="M1743 92v580h96v-672h-1454v1454h909v-92h-813v-1270h1262zM1096 319l-402 596l80 52l328 -488l725 967l74 -55z" />
    <glyph glyph-name="uniE004" unicode="&#xe004;" horiz-adv-x="1343" 
d="M1055 729l-463 -637h571v-92h-1136v92h557l-463 637l43 39l366 -305h11v960h94v-960h10l367 305z" />
    <glyph glyph-name="uniE005" unicode="&#xe005;" horiz-adv-x="1384" 
d="M606 764v659h94v-659h11l366 305l43 -39l-463 -639h-8l-463 639l43 39l367 -305h10zM1223 0h-1137v92h1137v-92z" />
    <glyph glyph-name="uniF8FF" unicode="&#xf8ff;" horiz-adv-x="1832" 
d="M457 328q-8 21 18 57q31 39 84 92q-95 -22 -133 -22q-115 0 -170 28q-54 26 -63 74q-9 45 53 92q-79 47 -115 88q-63 71 -76 135q-11 65 -4 106.5t33 86.5q45 79 109 125q38 27 131 65q59 26 108 41q105 33 225 45q34 3 98 13t93 14q97 13 242 -2q185 -20 337 -76
q94 -36 230 -139q86 -68 86 -188q0 -75 -43 -146q-29 -49 -66.5 -80.5t-105.5 -70.5q41 -44 53 -78q32 -88 -98 -121q-85 -21 -215 -12l-68 6q30 -40 41 -72q14 -46 -27 -55q-32 -6 -51.5 -0.5t-50.5 26.5q-68 -61 -121 -10q-42 -33 -68 -34.5t-59 28.5q-41 -22 -56.5 -21.5
t-37.5 25.5q-90 -70 -162 8q-37 -47 -80 -51q-19 -2 -42.5 3t-28.5 20zM989 1239q-130 0 -198 -4q-110 -7 -166 -21q-77 -18 -88 -49q-9 -17 6 -35q29 -33 73 -51q48 -20 138 -28q107 -10 243 -4q174 8 217 90q13 27 5 41q-16 27 -78 36q-13 2 -67 13.5t-85 11.5zM1151 717
q43 2 129 22q64 16 106 45q54 36 54 76q0 31 -4 45q-12 45 -50 68q-45 26 -90 26q-104 0 -157 -16q-117 -36 -140 -156q-3 -17 0 -34q4 -18 17 -30t37 -24q48 -25 98 -22zM563 696q14 0 27.5 2t33 7t25.5 6q55 13 93.5 57t33.5 84q-10 84 -78 113q-78 32 -184 24
q-66 -5 -137 -35q-101 -44 -101 -86q0 -44 17 -74t61 -51q37 -17 95 -32q55 -15 114 -15zM778 489q12 -4 17 -4q9 0 25.5 23t23.5 47q15 50 12 78q-3 20 -20 43q-12 12 -29 -2q-23 -14 -33 -41q-21 -50 -16 -86l6 -35q9 -18 14 -23zM963 489q5 5 14 23l6 35q5 36 -16 86
q-11 29 -35 41q-14 14 -27 2q-17 -23 -20 -43q-3 -28 12 -78q8 -25 23.5 -47.5t25.5 -22.5q5 0 17 4zM858 12q-92 8 -184 60q-23 12 -56.5 29.5t-45.5 24t-28.5 17t-31.5 21.5q-27 20 -43 43q-10 21 -4 31q8 13 19.5 17t37.5 -3.5t66 -30.5q14 14 23 21t25 11.5t36 2.5
q34 -4 59 -23q26 15 46 20.5t44.5 0t48.5 -26.5q39 31 66 33q26 2 59 -31l4.5 4.5t5.5 6t6 6t8.5 5.5t10.5 4.5t13.5 3.5t15.5 1q21 0 35 -7t19.5 -14t14.5 -24q18 23 31 33q23 18 39 22.5t43 -2.5q26 -7 47 -28q10 -8 8 -21t-20 -39q-21 -33 -123 -110q-83 -62 -184 -62
q-72 0 -111 4z" />
    <glyph glyph-name="AE.ss07" horiz-adv-x="1929" 
d="M193 289l894 1134h938l-96 -381h-43q19 158 -44.5 228.5t-237.5 70.5h-242l-145 -579h86q132 0 212.5 52.5t122.5 168.5h45l-131 -524h-45q17 115 -33 168t-176 53h-102l-149 -598h256q85 0 153 17.5t130 60t114 116.5t94 183h45l-115 -459h-1151v43q119 12 168 54.5
t78 158.5l47 190h-440l-135 -172q-30 -39 -47.5 -65t-28.5 -51.5t-7.5 -42t18.5 -31t45.5 -24.5t78.5 -17v-43h-481v43q51 11 92.5 30.5t80.5 52.5t71.5 68.5t79.5 94.5zM494 532h395l178 711h-12z" />
    <glyph glyph-name="AEacute.ss07" horiz-adv-x="1929" 
d="M1874 1835v-8l-377 -305h-55l141 313h291zM193 289l894 1134h938l-96 -381h-43q19 158 -44.5 228.5t-237.5 70.5h-242l-145 -579h86q132 0 212.5 52.5t122.5 168.5h45l-131 -524h-45q17 115 -33 168t-176 53h-102l-149 -598h256q85 0 153 17.5t130 60t114 116.5t94 183
h45l-115 -459h-1151v43q119 12 168 54.5t78 158.5l47 190h-440l-135 -172q-30 -39 -47.5 -65t-28.5 -51.5t-7.5 -42t18.5 -31t45.5 -24.5t78.5 -17v-43h-481v43q51 11 92.5 30.5t80.5 52.5t71.5 68.5t79.5 94.5zM494 532h395l178 711h-12z" />
    <glyph glyph-name="uni01E2.ss07" horiz-adv-x="1929" 
d="M1280 1702h590v-86h-590v86zM193 289l894 1134h938l-96 -381h-43q19 158 -44.5 228.5t-237.5 70.5h-242l-145 -579h86q132 0 212.5 52.5t122.5 168.5h45l-131 -524h-45q17 115 -33 168t-176 53h-102l-149 -598h256q85 0 153 17.5t130 60t114 116.5t94 183h45l-115 -459
h-1151v43q119 12 168 54.5t78 158.5l47 190h-440l-135 -172q-30 -39 -47.5 -65t-28.5 -51.5t-7.5 -42t18.5 -31t45.5 -24.5t78.5 -17v-43h-481v43q51 11 92.5 30.5t80.5 52.5t71.5 68.5t79.5 94.5zM494 532h395l178 711h-12z" />
    <glyph glyph-name="C.ss07" horiz-adv-x="1427" 
d="M764 -27q-126 0 -239.5 46t-199 127.5t-136 203t-50.5 264.5q0 166 64 318.5t175 267t272 182.5t345 68q144 0 273 -34.5t219 -86.5l-90 -360h-43q-3 186 -97.5 289.5t-265.5 103.5q-122 0 -226.5 -57t-175 -152t-110 -218t-39.5 -255q0 -124 35 -223.5t97 -164
t144 -98.5t177 -34q247 0 440 205l39 -41q-240 -351 -608 -351z" />
    <glyph glyph-name="Cacute.ss07" horiz-adv-x="1427" 
d="M956 1522h-55l141 313h291v-8zM764 -27q-126 0 -239.5 46t-199 127.5t-136 203t-50.5 264.5q0 166 64 318.5t175 267t272 182.5t345 68q144 0 273 -34.5t219 -86.5l-90 -360h-43q-3 186 -97.5 289.5t-265.5 103.5q-122 0 -226.5 -57t-175 -152t-110 -218t-39.5 -255
q0 -124 35 -223.5t97 -164t144 -98.5t177 -34q247 0 440 205l39 -41q-240 -351 -608 -351z" />
    <glyph glyph-name="Ccaron.ss07" horiz-adv-x="1427" 
d="M1294 1837l66 -6l-350 -313h-58l-188 315l55 4l199 -125zM764 -27q-126 0 -239.5 46t-199 127.5t-136 203t-50.5 264.5q0 166 64 318.5t175 267t272 182.5t345 68q144 0 273 -34.5t219 -86.5l-90 -360h-43q-3 186 -97.5 289.5t-265.5 103.5q-122 0 -226.5 -57t-175 -152
t-110 -218t-39.5 -255q0 -124 35 -223.5t97 -164t144 -98.5t177 -34q247 0 440 205l39 -41q-240 -351 -608 -351z" />
    <glyph glyph-name="Ccedilla.ss07" horiz-adv-x="1427" 
d="M991 1362q-122 0 -226.5 -57t-175 -152t-110 -218t-39.5 -255q0 -124 35 -223.5t97 -164t144 -98.5t177 -34q247 0 440 205l39 -41q-240 -351 -608 -351h-25l-51 -82l4 -2q23 13 53 13q54 0 90.5 -36.5t36.5 -96.5q0 -82 -65 -136.5t-160 -54.5q-69 0 -125 33.5t-92 87.5
l31 33q58 -64 143 -64q54 0 90.5 26.5t36.5 69.5q0 30 -21.5 48t-54.5 18q-38 0 -65 -18l-10 2l100 166q-151 19 -272.5 100t-195 220.5t-73.5 313.5q0 166 64 318.5t175 267t272 182.5t345 68q144 0 273 -34.5t219 -86.5l-90 -360h-43q-3 186 -97.5 289.5t-265.5 103.5z
" />
    <glyph glyph-name="Ccircumflex.ss07" horiz-adv-x="1427" 
d="M758 1522l-66 4l352 313h56l190 -313l-57 -4l-197 123zM764 -27q-126 0 -239.5 46t-199 127.5t-136 203t-50.5 264.5q0 166 64 318.5t175 267t272 182.5t345 68q144 0 273 -34.5t219 -86.5l-90 -360h-43q-3 186 -97.5 289.5t-265.5 103.5q-122 0 -226.5 -57t-175 -152
t-110 -218t-39.5 -255q0 -124 35 -223.5t97 -164t144 -98.5t177 -34q247 0 440 205l39 -41q-240 -351 -608 -351z" />
    <glyph glyph-name="Cdotaccent.ss07" horiz-adv-x="1427" 
d="M1018 1548q-57 0 -95 37.5t-38 95.5q0 69 48.5 117.5t117.5 48.5q60 0 97.5 -36.5t37.5 -96.5q0 -70 -49 -118t-119 -48zM764 -27q-126 0 -239.5 46t-199 127.5t-136 203t-50.5 264.5q0 166 64 318.5t175 267t272 182.5t345 68q144 0 273 -34.5t219 -86.5l-90 -360h-43
q-3 186 -97.5 289.5t-265.5 103.5q-122 0 -226.5 -57t-175 -152t-110 -218t-39.5 -255q0 -124 35 -223.5t97 -164t144 -98.5t177 -34q247 0 440 205l39 -41q-240 -351 -608 -351z" />
    <glyph glyph-name="E.ss07" horiz-adv-x="1347" 
d="M1212 459h45l-114 -459h-1196v43q120 13 169 57.5t77 157.5l229 916q27 113 0.5 154t-131.5 52v43h1153l-96 -381h-43q19 157 -46 228t-237 71h-287l-145 -579h121q142 0 221.5 51.5t124.5 169.5h45l-131 -524h-45q14 120 -32.5 170.5t-188.5 50.5h-136l-149 -598h299
q177 0 294 84t199 293z" />
    <glyph glyph-name="Eacute.ss07" horiz-adv-x="1347" 
d="M893 1522h-55l141 313h291v-8zM1212 459h45l-114 -459h-1196v43q120 13 169 57.5t77 157.5l229 916q27 113 0.5 154t-131.5 52v43h1153l-96 -381h-43q19 157 -46 228t-237 71h-287l-145 -579h121q142 0 221.5 51.5t124.5 169.5h45l-131 -524h-45q14 120 -32.5 170.5
t-188.5 50.5h-136l-149 -598h299q177 0 294 84t199 293z" />
    <glyph glyph-name="Ebreve.ss07" horiz-adv-x="1347" 
d="M948 1526q-117 0 -173 84.5t-23 226.5h59q-14 -73 27 -117.5t125 -44.5q88 0 148 43.5t91 118.5h62q-32 -150 -113.5 -230.5t-202.5 -80.5zM1212 459h45l-114 -459h-1196v43q120 13 169 57.5t77 157.5l229 916q27 113 0.5 154t-131.5 52v43h1153l-96 -381h-43
q19 157 -46 228t-237 71h-287l-145 -579h121q142 0 221.5 51.5t124.5 169.5h45l-131 -524h-45q14 120 -32.5 170.5t-188.5 50.5h-136l-149 -598h299q177 0 294 84t199 293z" />
    <glyph glyph-name="Ecaron.ss07" horiz-adv-x="1347" 
d="M1229 1837l65 -6l-350 -313h-57l-189 315l56 4l198 -125zM1212 459h45l-114 -459h-1196v43q120 13 169 57.5t77 157.5l229 916q27 113 0.5 154t-131.5 52v43h1153l-96 -381h-43q19 157 -46 228t-237 71h-287l-145 -579h121q142 0 221.5 51.5t124.5 169.5h45l-131 -524
h-45q14 120 -32.5 170.5t-188.5 50.5h-136l-149 -598h299q177 0 294 84t199 293z" />
    <glyph glyph-name="Ecircumflex.ss07" horiz-adv-x="1347" 
d="M692 1522l-65 4l352 313h55l191 -313l-58 -4l-196 123zM1212 459h45l-114 -459h-1196v43q120 13 169 57.5t77 157.5l229 916q27 113 0.5 154t-131.5 52v43h1153l-96 -381h-43q19 157 -46 228t-237 71h-287l-145 -579h121q142 0 221.5 51.5t124.5 169.5h45l-131 -524h-45
q14 120 -32.5 170.5t-188.5 50.5h-136l-149 -598h299q177 0 294 84t199 293z" />
    </font>
</defs>
</svg>
